<?xml version="1.0" encoding="UTF-8"?>
<svg xmlns="http://www.w3.org/2000/svg" xmlns:xlink="http://www.w3.org/1999/xlink"
     width="600.0" height="600.0" viewBox="-300.0 -300.0 600.0 600.0">
<defs>
</defs>
<rect x="-300.0" y="-300.0" width="600.0" height="600.0" fill="#ffffff" fill-opacity="1.0" />
<path d="M200.0,-0.0 A200,200,0,0,0,188.90431566372806,-65.68987382860918 L202.12761776018903,-70.28816499661183 A214.0,214.0,0,0,1,214.0,-0.0 Z" fill="#1f77b4" fill-opacity="0.9" />
<path d="M188.2379827366262,-67.57560103503053 A200,200,0,0,0,161.51075827319258,-117.9587850141665 L172.81651135231607,-126.21589996515816 A214.0,214.0,0,0,1,201.41464152819006,-72.30589310748267 Z" fill="#1f77b4" fill-opacity="0.9" />
<path d="M160.3231146121324,-119.56796778847192 A200,200,0,0,0,11.749662229520633,-199.6545652808675 L12.572138585587078,-213.63038485052823 A214.0,214.0,0,0,1,171.54573263498168,-127.93772553366496 Z" fill="#1f77b4" fill-opacity="0.9" />
<path d="M9.752562374090658,-199.7620772998205 A200,200,0,0,0,2.929254115379474,-199.97854752529716 L3.1343019034560378,-213.97704585206796 A214.0,214.0,0,0,1,10.435241740277005,-213.74542271080796 Z" fill="#ff7f0e" fill-opacity="0.9" />
<path d="M0.929355508232523,-199.9978407341922 A200,200,0,0,0,-5.094338259726297,-199.93510876705844 L-5.450941937907138,-213.93056638075254 A214.0,214.0,0,0,1,0.9944103938087997,-213.99768958558568 Z" fill="#ff7f0e" fill-opacity="0.9" />
<path d="M-7.0934013102550155,-199.87416956138097 A200,200,0,0,0,-13.880339717282256,-199.51775903245513 L-14.851963497492015,-213.484002164727 A214.0,214.0,0,0,1,-7.589939401972867,-213.86536143067764 Z" fill="#ff7f0e" fill-opacity="0.9" />
<path d="M-15.874790043610826,-199.3689821438412 A200,200,0,0,0,-75.49288658965776,-185.2048165528129 L-80.7773886509338,-198.1691537115098 A214.0,214.0,0,0,1,-16.986025346663585,-213.3248108939101 Z" fill="#2ca02c" fill-opacity="0.9" />
<path d="M-77.34112927499658,-184.44064010534194 A200,200,0,0,0,-137.11314957992974,-145.6021435703191 L-146.71107005052482,-155.79429362024143 A214.0,214.0,0,0,1,-82.75500832424635,-197.35148491271588 Z" fill="#2ca02c" fill-opacity="0.9" />
<path d="M-138.56229114838158,-144.223754880086 A200,200,0,0,0,-166.64857146075457,-110.58143438249377 L-178.3139714630074,-118.32213478926833 A214.0,214.0,0,0,1,-148.26165152876828,-154.31941772169205 Z" fill="#2ca02c" fill-opacity="0.9" />
<path d="M-167.7460350152962,-108.90944741686562 A200,200,0,0,0,-197.3306101969205,-32.567319191346016 L-211.14375291070496,-34.84703153474024 A214.0,214.0,0,0,1,-179.48825746636695,-116.53310873604622 Z" fill="#d62728" fill-opacity="0.9" />
<path d="M-197.64641151268555,-30.59241762525755 A200,200,0,0,0,-198.48059775688512,24.60594062558001 L-212.37423959986708,26.328356469370615 A214.0,214.0,0,0,1,-211.48166031857355,-32.73388685902558 Z" fill="#d62728" fill-opacity="0.9" />
<path d="M-198.22461850441107,26.589483236435758 A200,200,0,0,0,-169.20356817320024,106.63091726819749 L-181.04781794532425,114.09508147697133 A214.0,214.0,0,0,1,-212.10034179971984,28.450747062986263 Z" fill="#d62728" fill-opacity="0.9" />
<path d="M-168.12881666434157,108.31759324804176 A200,200,0,0,0,-123.22227692511281,157.5318078020779 L-131.8478363098707,168.55903434822338 A214.0,214.0,0,0,1,-179.89783383084549,115.8998247754047 Z" fill="#d62728" fill-opacity="0.9" />
<path d="M-121.64082403975827,158.75613350963346 A200,200,0,0,0,-63.323050739060925,189.71080951041856 L-67.7556642907952,202.99056617614787 A214.0,214.0,0,0,1,-130.15568172254135,169.86906285530782 Z" fill="#d62728" fill-opacity="0.9" />
<path d="M-61.422808136114504,190.33454400259052 A200,200,0,0,0,-60.82465444026902,190.5265372913229 L-65.08238025108786,203.86339490171554 A214.0,214.0,0,0,1,-65.72240470564252,203.65796208277186 Z" fill="#9467bd" fill-opacity="0.9" />
<path d="M-58.91637961424146,191.1252474508551 A200,200,0,0,0,-33.28625849748767,197.21061075722685 L-35.61629659231181,211.01535351023273 A214.0,214.0,0,0,1,-63.04052618723836,204.504014772415 Z" fill="#9467bd" fill-opacity="0.9" />
<path d="M-31.312520959130584,197.53360734615265 A200,200,0,0,0,41.569264014546256,195.6322986863083 L44.47911249556449,209.3265595943499 A214.0,214.0,0,0,1,-33.504397426269726,211.36095986038336 Z" fill="#9467bd" fill-opacity="0.9" />
<path d="M43.523475950308956,195.20683144091774 A200,200,0,0,0,49.798033516066866,193.70120252061596 L53.28389586219155,207.2602866970591 A214.0,214.0,0,0,1,46.57011926683059,208.871309641782 Z" fill="#8c564b" fill-opacity="0.9" />
<path d="M51.73252337697395,193.1935455056686 A200,200,0,0,0,81.24778370428504,182.75337929335728 L86.935128563585,195.5461158438923 A214.0,214.0,0,0,1,55.35380001336213,206.7170936910654 Z" fill="#8c564b" fill-opacity="0.9" />
<path d="M83.07122468314225,181.93177740472635 A200,200,0,0,0,123.87968587703311,157.01536048109307 L132.55126388842544,168.0064357147696 A214.0,214.0,0,0,1,88.8862104109622,194.6670018230572 Z" fill="#8c564b" fill-opacity="0.9" />
<path d="M125.44361938007063,155.7687335662326 A200,200,0,0,0,180.9941245811163,85.09481104694545 L193.66371330179444,91.05144782023164 A214.0,214.0,0,0,1,134.2246727366756,166.6725449158689 Z" fill="#e377c2" fill-opacity="0.9" />
<path d="M181.83600887837306,83.28064526157463 A200,200,0,0,0,197.63713746513884,30.652273889318803 L211.47173708769856,32.79793306157112 A214.0,214.0,0,0,1,194.5645294998592,89.11029042988487 Z" fill="#e377c2" fill-opacity="0.9" />
<path d="M197.9337733208205,28.674402853102947 A200,200,0,0,0,199.99000008333306,1.9999666668340497 L213.9893000891664,2.139964333512433 A214.0,214.0,0,0,1,211.78913745327796,30.681611052820156 Z" fill="#e377c2" fill-opacity="0.9" />
<path d="M193.0,-0.0 A193.0,193.0,0,0,0,186.6154276298049,-49.230906659790904 L191.45002420052526,-50.506318749422796 A198.0,198.0,0,0,1,198.0,-0.0 Z" fill="#1f77b4" fill-opacity="0.6" />
<path d="M181.64965334084428,-65.21045499880447 A193.0,193.0,0,0,0,171.05853734520508,-89.37548210398128 L175.4901056702104,-91.69090910149374 A198.0,198.0,0,0,1,186.35560290925994,-66.89984502468022 Z" fill="#1f77b4" fill-opacity="0.6" />
<path d="M154.71180560070778,-115.3830889158754 A193.0,193.0,0,0,0,47.12789050632659,-187.15758583723957 L48.348820312189964,-192.0062279573753 A198.0,198.0,0,0,1,158.71988346601108,-118.37228811058719 Z" fill="#1f77b4" fill-opacity="0.6" />
<path d="M-15.319172392084447,-192.39106776880675 A193.0,193.0,0,0,0,-62.877351218531196,-182.4703776061788 L-64.50629814129107,-187.19758946126115 A198.0,198.0,0,0,1,-15.716042143174718,-197.3752923224028 Z" fill="#2ca02c" fill-opacity="0.6" />
<path d="M-74.6341897503717,-177.98521770165496 A193.0,193.0,0,0,0,-126.74264572684254,-145.5517150505623 L-130.0261339581079,-149.32248487052505 A198.0,198.0,0,0,1,-76.5677179822466,-182.59623370428852 Z" fill="#2ca02c" fill-opacity="0.6" />
<path d="M-133.71261095818824,-139.17592345928298 A193.0,193.0,0,0,0,-146.13167809931974,-126.07352083556954 L-149.91747286873218,-129.33967422509207 A198.0,198.0,0,0,1,-137.17666823689777,-142.78151733128516 Z" fill="#2ca02c" fill-opacity="0.6" />
<path d="M-161.87492378976086,-105.09761675727532 A193.0,193.0,0,0,0,-188.7414551635762,-40.3195126797901 L-193.63113016781392,-41.364059640406424 A198.0,198.0,0,0,1,-166.06857466514325,-107.82035294269696 Z" fill="#d62728" fill-opacity="0.6" />
<path d="M-190.72878710974155,-29.521683008373536 A193.0,193.0,0,0,0,-192.98431449909108,2.4605603662390836 L-197.9839081389639,2.52430545344735 A198.0,198.0,0,0,1,-195.66994739755867,-30.286493449004976 Z" fill="#d62728" fill-opacity="0.6" />
<path d="M-191.28675685675668,25.658851323160505 A193.0,193.0,0,0,0,-187.86744876848252,44.21336554958916 L-192.7344811199976,45.358789527557796 A198.0,198.0,0,0,1,-196.24237231936695,26.323588404071398 Z" fill="#d62728" fill-opacity="0.6" />
<path d="M-162.2443080810896,104.5264774843603 A193.0,193.0,0,0,0,-132.2494758802316,140.56698093579456 L-135.6756281051081,144.20861256625557 A198.0,198.0,0,0,1,-166.44752849769816,107.23441731556133 Z" fill="#d62728" fill-opacity="0.6" />
<path d="M-117.38339519836673,153.1996688367963 A193.0,193.0,0,0,0,-62.93381775729913,182.450910062107 L-64.56422754375767,187.17761757666938 A198.0,198.0,0,0,1,-120.42441579936069,157.16857217453713 Z" fill="#d62728" fill-opacity="0.6" />
<path d="M-59.273009851350494,183.67283496249985 A193.0,193.0,0,0,0,-58.71827153675862,183.85093034231696 L-60.23947028123423,188.61390781232515 A198.0,198.0,0,0,1,-60.80858005475336,188.43119856256462 Z" fill="#9467bd" fill-opacity="0.6" />
<path d="M-56.854306327743004,184.4358637900752 A193.0,193.0,0,0,0,-36.4799591969338,189.52100827346305 L-37.42503586006679,194.4308789541227 A198.0,198.0,0,0,1,-58.32721581809904,189.21399497634656 Z" fill="#9467bd" fill-opacity="0.6" />
<path d="M-30.216582725561015,190.6199310890373 A193.0,193.0,0,0,0,35.955273898372084,189.62124954469908 L36.886757678122656,194.53371714948403 A198.0,198.0,0,0,1,-30.99939574953928,195.55827127269112 Z" fill="#9467bd" fill-opacity="0.6" />
<path d="M49.921885058779864,186.4317714129702 A193.0,193.0,0,0,0,57.7402431908557,184.16043091897032 L59.236104413416726,188.93142653863276 A198.0,198.0,0,0,1,51.21519814320421,191.26161005061192 Z" fill="#8c564b" fill-opacity="0.6" />
<path d="M80.16373181923227,175.56416519556092 A193.0,193.0,0,0,0,107.60633524852167,160.2182156135274 L110.39406414097043,164.36894658797112 A198.0,198.0,0,0,1,82.24051243631082,180.1124596306791 Z" fill="#8c564b" fill-opacity="0.6" />
<path d="M121.05309270176815,150.31682789141448 A193.0,193.0,0,0,0,160.87487029854415,106.62211827958866 L165.04261305239245,109.38434932310132 A198.0,198.0,0,0,1,124.18918318626991,154.2110462305703 Z" fill="#e377c2" fill-opacity="0.6" />
<path d="M175.47174856763,80.36582267741953 A193.0,193.0,0,0,0,186.9453172481182,47.96298947105401 L191.78846018200727,49.20555396512276 A198.0,198.0,0,0,1,180.01764878958932,82.44783880895889 Z" fill="#e377c2" fill-opacity="0.6" />
<path d="M190.34948193196695,-54.50756578890483 A198.0,198.0,0,0,0,187.01527250709074,-65.0329750903231 C74.8061090028363,-26.013190036129245,19.01885792456544,-76.88252755499909,47.5471448114136,-192.2063188874977 A198.0,198.0,0,0,0,38.61202576585119,-194.19863919774835 C15.444810306340479,-77.67945567909935,76.13979277278678,-21.803026315561933,190.34948193196695,-54.50756578890483 Z" fill="#1f77b4" fill-opacity="0.6" />
<path d="M190.35197214924577,-54.498868785441374 A198.0,198.0,0,0,0,190.34948193196695,-54.50756578890483 C76.13979277278678,-21.803026315561933,-54.015579377251996,-57.92199223559036,-135.03894844312998,-144.8049805889759 A198.0,198.0,0,0,0,-135.73807781631663,-144.14983257267963 C-54.29523112652666,-57.65993302907185,76.1407888596983,-21.799547514176552,190.35197214924577,-54.498868785441374 Z" fill="#1f77b4" fill-opacity="0.6" />
<path d="M190.72726417930377,-53.170581139179454 A198.0,198.0,0,0,0,190.35197214924577,-54.498868785441374 C76.1407888596983,-21.799547514176552,-49.12870047609558,62.12093680499424,-122.82175119023894,155.30234201248558 A198.0,198.0,0,0,0,-122.80840493448562,155.3128960435913 C-49.12336197379425,62.12515841743652,76.29090567172152,-21.268232455671782,190.72726417930377,-53.170581139179454 Z" fill="#d62728" fill-opacity="0.6" />
<path d="M190.91143553521138,-52.50546430501142 A198.0,198.0,0,0,0,190.72726417930377,-53.170581139179454 C76.29090567172152,-21.268232455671782,16.08036844004175,77.55038201603207,40.20092110010437,193.87595504008016 A198.0,198.0,0,0,0,40.20838264979002,193.87440770944488 C16.083353059916007,77.54976308377796,76.36457421408456,-21.00218572200457,190.91143553521138,-52.50546430501142 Z" fill="#9467bd" fill-opacity="0.6" />
<path d="M191.09328745892702,-51.839709568436845 A198.0,198.0,0,0,0,190.91143553521138,-52.50546430501142 C76.36457421408456,-21.00218572200457,49.05440409634949,62.17962237543785,122.63601024087372,155.44905593859463 A198.0,198.0,0,0,0,122.64088901826278,155.44520687628213 C49.056355607305115,62.17808275051286,76.43731498357081,-20.73588382737474,191.09328745892702,-51.839709568436845 Z" fill="#8c564b" fill-opacity="0.6" />
<path d="M191.45002420052526,-50.506318749422796 A198.0,198.0,0,0,0,191.09328745892702,-51.839709568436845 C76.43731498357081,-20.73588382737474,79.19243580315953,1.0945828257639418,197.98108950789882,2.7364570644098545 A198.0,198.0,0,0,0,197.9901000824997,1.9799670001657093 C79.19604003299989,0.7919868000662837,76.58000968021011,-20.20252749976912,191.45002420052526,-50.506318749422796 Z" fill="#1f77b4" fill-opacity="0.6" />
<path d="M175.2065594926225,-92.23156461189488 A198.0,198.0,0,0,0,159.89565069046066,-116.77919716402484 C63.95826027618426,-46.71167886560994,19.339528124875986,-76.80249118295012,48.348820312189964,-192.0062279573753 A198.0,198.0,0,0,0,47.5471448114136,-192.2063188874977 C19.01885792456544,-76.88252755499909,70.082623797049,-36.89262584475795,175.2065594926225,-92.23156461189488 Z" fill="#1f77b4" fill-opacity="0.6" />
<path d="M175.2733349074724,-92.10460395883055 A198.0,198.0,0,0,0,175.2065594926225,-92.23156461189488 C70.082623797049,-36.89262584475795,-4.75801828478592,-79.05694948580829,-11.8950457119648,-197.64237371452072 A198.0,198.0,0,0,0,-13.573720706636108,-197.534184652121 C-5.429488282654443,-79.01367386084841,70.10933396298896,-36.84184158353222,175.2733349074724,-92.10460395883055 Z" fill="#1f77b4" fill-opacity="0.6" />
<path d="M175.4901056702104,-91.69090910149374 A198.0,198.0,0,0,0,175.2733349074724,-92.10460395883055 C70.10933396298896,-36.84184158353222,-77.9896881130637,-13.793061590055013,-194.97422028265925,-34.48265397513753 A198.0,198.0,0,0,0,-194.97533888261665,-34.476328511150875 C-77.99013555304667,-13.790531404460351,70.19604226808416,-36.6763636405975,175.4901056702104,-91.69090910149374 Z" fill="#d62728" fill-opacity="0.6" />
<path d="M13.219902072600672,-197.5581792515583 A198.0,198.0,0,0,0,11.632165607225426,-197.6580196280588 C4.652866242890171,-79.06320785122352,3.8620147001399006,-79.10578261072892,9.655036750349751,-197.7644565268223 A198.0,198.0,0,0,0,3.111149788316597,-197.975555933036 C1.244459915326639,-79.1902223732144,5.287960829040269,-79.02327170062333,13.219902072600672,-197.5581792515583 Z" fill="#1f77b4" fill-opacity="0.6" />
<path d="M14.648991093875747,-197.45735504136468 A198.0,198.0,0,0,0,13.219902072600672,-197.5581792515583 C5.287960829040269,-79.02327170062333,0.36802478126007915,-79.19914493074013,0.9200619531501978,-197.9978623268503 A198.0,198.0,0,0,0,-4.735005918402284,-197.94337503173148 C-1.8940023673609137,-79.1773500126926,5.859596437550299,-78.98294201654588,14.648991093875747,-197.45735504136468 Z" fill="#1f77b4" fill-opacity="0.6" />
<path d="M15.832515679402746,-197.36598351099278 A198.0,198.0,0,0,0,14.648991093875747,-197.45735504136468 C5.859596437550299,-78.98294201654588,-2.8089869188609864,-79.15017114630687,-7.022467297152465,-197.87542786576716 A198.0,198.0,0,0,0,-11.8950457119648,-197.64237371452072 C-4.75801828478592,-79.05694948580829,6.333006271761099,-78.94639340439711,15.832515679402746,-197.36598351099278 Z" fill="#1f77b4" fill-opacity="0.6" />
<path d="M16.024773358277276,-197.3504665279914 A198.0,198.0,0,0,0,15.832515679402746,-197.36598351099278 C6.333006271761099,-78.94639340439711,-25.80251925651643,-74.87903578450447,-64.50629814129107,-187.19758946126115 A198.0,198.0,0,0,0,-71.25405876828572,-184.7345639263148 C-28.50162350731429,-73.89382557052592,6.409909343310911,-78.94018661119657,16.024773358277276,-197.3504665279914 Z" fill="#1f77b4" fill-opacity="0.6" />
<path d="M16.186858946511663,-197.33723824318037 A198.0,198.0,0,0,0,16.024773358277276,-197.3504665279914 C6.409909343310911,-78.94018661119657,-52.02297234656899,-59.71809062778311,-130.05743086642246,-149.29522656945778 A198.0,198.0,0,0,0,-135.03894844312998,-144.8049805889759 C-54.015579377251996,-57.92199223559036,6.474743578604666,-78.93489529727215,16.186858946511663,-197.33723824318037 Z" fill="#1f77b4" fill-opacity="0.6" />
<path d="M17.063025105585464,-197.26341063219544 A198.0,198.0,0,0,0,16.186858946511663,-197.33723824318037 C6.474743578604666,-78.93489529727215,-60.05998904416438,-51.627877314633565,-150.14997261041094,-129.0696932865839 A198.0,198.0,0,0,0,-164.58355355332648,-110.07385656803031 C-65.8334214213306,-44.02954262721212,6.825210042234186,-78.90536425287819,17.063025105585464,-197.26341063219544 Z" fill="#1f77b4" fill-opacity="0.6" />
<path d="M17.207947828905507,-197.2508213709582 A198.0,198.0,0,0,0,17.063025105585464,-197.26341063219544 C6.825210042234186,-78.90536425287819,-77.45245206712558,-16.54562385616257,-193.63113016781392,-41.364059640406424 A198.0,198.0,0,0,0,-194.97422028265925,-34.48265397513753 C-77.9896881130637,-13.793061590055013,6.883179131562203,-78.90032854838329,17.207947828905507,-197.2508213709582 Z" fill="#1f77b4" fill-opacity="0.6" />
<path d="M17.55137110849739,-197.22056021675783 A198.0,198.0,0,0,0,17.207947828905507,-197.2508213709582 C6.883179131562203,-78.90032854838329,-79.18890970705591,1.3253601049326975,-197.97227426763976,3.3134002623317436 A198.0,198.0,0,0,0,-197.4306802044008,15.00421654161333 C-78.97227208176032,6.001686616645332,7.020548443398956,-78.88822408670313,17.55137110849739,-197.22056021675783 Z" fill="#1f77b4" fill-opacity="0.6" />
<path d="M17.574304993536927,-197.2185179033504 A198.0,198.0,0,0,0,17.55137110849739,-197.22056021675783 C7.020548443398956,-78.88822408670313,-72.39869889191057,32.11025379467543,-180.99674722977642,80.27563448668857 A198.0,198.0,0,0,0,-180.52259994480383,81.33628285807207 C-72.20903997792153,32.53451314322883,7.0297219974147716,-78.88740716134016,17.574304993536927,-197.2185179033504 Z" fill="#1f77b4" fill-opacity="0.6" />
<path d="M17.630679184441505,-197.2134862312801 A198.0,198.0,0,0,0,17.574304993536927,-197.2185179033504 C7.0297219974147716,-78.88740716134016,-49.97642291222545,61.44100546783384,-124.94105728056363,153.6025136695846 A198.0,198.0,0,0,0,-122.82175119023894,155.30234201248558 C-49.12870047609558,62.12093680499424,7.052271673776602,-78.88539449251203,17.630679184441505,-197.2134862312801 Z" fill="#1f77b4" fill-opacity="0.6" />
<path d="M17.657226996597753,-197.21111108350516 A198.0,198.0,0,0,0,17.630679184441505,-197.2134862312801 C7.052271673776602,-78.88539449251203,-25.60917462396418,74.9453812791643,-64.02293655991045,187.36345319791073 A198.0,198.0,0,0,0,-62.978423211589856,187.71712284653705 C-25.191369284635943,75.08684913861482,7.062890798639102,-78.88444443340207,17.657226996597753,-197.21111108350516 Z" fill="#1f77b4" fill-opacity="0.6" />
<path d="M26.753988034245904,-196.1841586985642 A198.0,198.0,0,0,0,17.657226996597753,-197.21111108350516 C7.062890798639102,-78.88444443340207,-24.095788112493693,75.44556312493006,-60.23947028123423,188.61390781232515 A198.0,198.0,0,0,0,-60.22673478440561,188.61797479882154 C-24.090693913762244,75.44718991952861,10.701595213698361,-78.47366347942568,26.753988034245904,-196.1841586985642 Z" fill="#9467bd" fill-opacity="0.6" />
<path d="M26.87145956566074,-196.1681030667602 A198.0,198.0,0,0,0,26.753988034245904,-196.1841586985642 C10.701595213698361,-78.47366347942568,-14.970014344026717,77.77235158164909,-37.42503586006679,194.4308789541227 A198.0,198.0,0,0,0,-33.891488888966684,195.07784851409718 C-13.556595555586675,78.03113940563888,10.748583826264296,-78.46724122670409,26.87145956566074,-196.1681030667602 Z" fill="#1f77b4" fill-opacity="0.6" />
<path d="M26.947886191956464,-196.1576188420561 A198.0,198.0,0,0,0,26.87145956566074,-196.1681030667602 C10.748583826264296,-78.46724122670409,14.779092971087355,77.80885817792186,36.947732427718385,194.52214544480464 A198.0,198.0,0,0,0,40.20092110010437,193.87595504008016 C16.08036844004175,77.55038201603207,10.779154476782587,-78.46304753682244,26.947886191956464,-196.1576188420561 Z" fill="#1f77b4" fill-opacity="0.6" />
<path d="M27.01646882878665,-196.14818482979445 A198.0,198.0,0,0,0,26.947886191956464,-196.1576188420561 C10.779154476782587,-78.46304753682244,29.62524573905591,73.45056034436054,74.06311434763977,183.62640086090136 A198.0,198.0,0,0,0,75.38918150736964,183.08596699815328 C30.15567260294786,73.23438679926132,10.80658753151466,-78.45927393191778,27.01646882878665,-196.14818482979445 Z" fill="#1f77b4" fill-opacity="0.6" />
<path d="M29.030503588269145,-195.8602304231553 A198.0,198.0,0,0,0,27.01646882878665,-196.14818482979445 C10.80658753151466,-78.45927393191778,46.53716864893323,64.08534882592703,116.34292162233307,160.21337206481758 A198.0,198.0,0,0,0,122.63601024087372,155.44905593859463 C49.05440409634949,62.17962237543785,11.612201435307659,-78.34409216926213,29.030503588269145,-195.8602304231553 Z" fill="#1f77b4" fill-opacity="0.6" />
<path d="M29.288144193636203,-195.8218695899229 A198.0,198.0,0,0,0,29.030503588269145,-195.8602304231553 C11.612201435307659,-78.34409216926213,68.6500049683758,39.49451630089902,171.62501242093947,98.73629075224756 A198.0,198.0,0,0,0,178.21306272795476,86.27922271973746 C71.28522509118191,34.511689087894986,11.715257677454481,-78.32874783596917,29.288144193636203,-195.8218695899229 Z" fill="#1f77b4" fill-opacity="0.6" />
<path d="M29.594366480489054,-195.77582453566248 A198.0,198.0,0,0,0,29.288144193636203,-195.8218695899229 C11.715257677454481,-78.32874783596917,77.40489580869132,16.766696300871043,193.51223952172828,41.9167407521776 A198.0,198.0,0,0,0,195.4370262019445,31.75482308784705 C78.17481048077781,12.70192923513882,11.837746592195622,-78.310329814265,29.594366480489054,-195.77582453566248 Z" fill="#1f77b4" fill-opacity="0.6" />
<path d="M38.61202576585119,-194.19863919774835 A198.0,198.0,0,0,0,29.594366480489054,-195.77582453566248 C11.837746592195622,-78.310329814265,79.17468639344526,2.0022573509907198,197.9367159836131,5.005643377476799 A198.0,198.0,0,0,0,197.98108950789882,2.7364570644098545 C79.19243580315953,1.0945828257639418,15.444810306340479,-77.67945567909935,38.61202576585119,-194.19863919774835 Z" fill="#1f77b4" fill-opacity="0.6" />
<path d="M3.111149788316597,-197.975555933036 A198.0,198.0,0,0,0,2.8999615742256797,-197.9787620500442 C1.1599846296902718,-79.19150482001768,14.770422007091907,77.81050464900234,36.926055017729766,194.52626162250584 A198.0,198.0,0,0,0,36.947732427718385,194.52214544480464 C14.779092971087355,77.80885817792186,1.244459915326639,-79.1902223732144,3.111149788316597,-197.975555933036 Z" fill="#9467bd" fill-opacity="0.6" />
<path d="M-4.940599880818557,-197.93835018211516 A198.0,198.0,0,0,0,-5.0433948771290344,-197.93575767938785 C-2.017357950851614,-79.17430307175515,-79.18896882629252,1.3218230700328495,-197.9724220657313,3.3045576750821235 A198.0,198.0,0,0,0,-197.97227426763976,3.3134002623317436 C-79.18890970705591,1.3253601049326975,-1.976239952327423,-79.17534007284607,-4.940599880818557,-197.93835018211516 Z" fill="#d62728" fill-opacity="0.6" />
<path d="M-4.735005918402284,-197.94337503173148 A198.0,198.0,0,0,0,-4.940599880818557,-197.93835018211516 C-1.976239952327423,-79.17534007284607,14.761619477239108,77.8121750782562,36.90404869309777,194.5304376956405 A198.0,198.0,0,0,0,36.926055017729766,194.52626162250584 C14.770422007091907,77.81050464900234,-1.8940023673609137,-79.1773500126926,-4.735005918402284,-197.94337503173148 Z" fill="#9467bd" fill-opacity="0.6" />
<path d="M-13.573720706636108,-197.534184652121 A198.0,198.0,0,0,0,-13.741536320109432,-197.5225814421306 C-5.496614528043773,-79.00903257685223,14.754703071249063,77.81348685979361,36.886757678122656,194.53371714948403 A198.0,198.0,0,0,0,36.90404869309777,194.5304376956405 C14.761619477239108,77.8121750782562,-5.429488282654443,-79.01367386084841,-13.573720706636108,-197.534184652121 Z" fill="#9467bd" fill-opacity="0.6" />
<path d="M-71.25405876828572,-184.7345639263148 A198.0,198.0,0,0,0,-74.73795772376118,-183.35276838728475 C-29.895183089504474,-73.3411073549139,-52.01045358324316,-59.72899394821002,-130.0261339581079,-149.32248487052505 A198.0,198.0,0,0,0,-130.05743086642246,-149.29522656945778 C-52.02297234656899,-59.71809062778311,-28.50162350731429,-73.89382557052592,-71.25405876828572,-184.7345639263148 Z" fill="#2ca02c" fill-opacity="0.6" />
<path d="M-135.73807781631663,-144.14983257267963 A198.0,198.0,0,0,0,-135.74201808413042,-144.14612213461592 C-54.296807233652174,-57.65844885384637,-59.966989147492875,-51.73586969003683,-149.91747286873218,-129.33967422509207 A198.0,198.0,0,0,0,-150.14997261041094,-129.0696932865839 C-60.05998904416438,-51.627877314633565,-54.29523112652666,-57.65993302907185,-135.73807781631663,-144.14983257267963 Z" fill="#2ca02c" fill-opacity="0.6" />
<path d="M-164.9786355679661,-109.48081935267122 A198.0,198.0,0,0,0,-164.98208574614702,-109.47562003866884 C-65.99283429845882,-43.79024801546754,-79.19356325558556,1.00972218137894,-197.9839081389639,2.52430545344735 A198.0,198.0,0,0,0,-197.9724220657313,3.3045576750821235 C-79.18896882629252,1.3218230700328495,-65.99145422718645,-43.79232774106849,-164.9786355679661,-109.48081935267122 Z" fill="#2ca02c" fill-opacity="0.6" />
<path d="M-164.58355355332648,-110.07385656803031 A198.0,198.0,0,0,0,-164.9786355679661,-109.48081935267122 C-65.99145422718645,-43.79232774106849,68.6471718689691,39.499440431381046,171.61792967242272,98.74860107845261 A198.0,198.0,0,0,0,171.62501242093947,98.73629075224756 C68.6500049683758,39.49451630089902,-65.8334214213306,-44.02954262721212,-164.58355355332648,-110.07385656803031 Z" fill="#e377c2" fill-opacity="0.6" />
<path d="M-195.29976999996435,-32.588338987451074 A198.0,198.0,0,0,0,-195.3573040949513,-32.241645999432556 C-78.14292163798052,-12.896658399773024,-77.08464335147474,18.182347466043588,-192.71160837868683,45.455868665108966 A198.0,198.0,0,0,0,-180.99674722977642,80.27563448668857 C-72.39869889191057,32.11025379467543,-78.11990799998574,-13.035335594980431,-195.29976999996435,-32.588338987451074 Z" fill="#d62728" fill-opacity="0.6" />
<path d="M-195.29920871679033,-32.59170254214357 A198.0,198.0,0,0,0,-195.29976999996435,-32.588338987451074 C-78.11990799998574,-13.035335594980431,-50.081729901578,61.35519806883023,-125.20432475394499,153.38799517207556 A198.0,198.0,0,0,0,-124.94105728056363,153.6025136695846 C-49.97642291222545,61.44100546783384,-78.11968348671614,-13.036681016857429,-195.29920871679033,-32.59170254214357 Z" fill="#d62728" fill-opacity="0.6" />
<path d="M-194.97533888261665,-34.476328511150875 A198.0,198.0,0,0,0,-195.29920871679033,-32.59170254214357 C-78.11968348671614,-13.036681016857429,68.64288885983422,39.50688305822731,171.60722214958554,98.76720764556826 A198.0,198.0,0,0,0,171.61792967242272,98.74860107845261 C68.6471718689691,39.499440431381046,-77.99013555304667,-13.790531404460351,-194.97533888261665,-34.476328511150875 Z" fill="#e377c2" fill-opacity="0.6" />
<path d="M-197.20842085892713,17.687248014552086 A198.0,198.0,0,0,0,-196.49579177931625,24.359881219324212 C-78.59831671172651,9.743952487729686,-77.09379244799905,18.143515811023118,-192.7344811199976,45.358789527557796 A198.0,198.0,0,0,0,-192.71160837868683,45.455868665108966 C-77.08464335147474,18.182347466043588,-78.88336834357085,7.074899205820834,-197.20842085892713,17.687248014552086 Z" fill="#d62728" fill-opacity="0.6" />
<path d="M-197.23605866637178,17.376339135604905 A198.0,198.0,0,0,0,-197.20842085892713,17.687248014552086 C-78.88336834357085,7.074899205820834,-50.08309736029784,61.354081843011286,-125.20774340074459,153.3852046075282 A198.0,198.0,0,0,0,-125.20432475394499,153.38799517207556 C-50.081729901578,61.35519806883023,-78.89442346654872,6.950535654241962,-197.23605866637178,17.376339135604905 Z" fill="#d62728" fill-opacity="0.6" />
<path d="M-197.37930316340368,15.665589128059654 A198.0,198.0,0,0,0,-197.23605866637178,17.376339135604905 C-78.89442346654872,6.950535654241962,-25.61709300002375,74.94267506720142,-64.04273250005937,187.35668766800356 A198.0,198.0,0,0,0,-64.02293655991045,187.36345319791073 C-25.60917462396418,74.9453812791643,-78.95172126536147,6.266235651223862,-197.37930316340368,15.665589128059654 Z" fill="#d62728" fill-opacity="0.6" />
<path d="M-197.3802264449244,15.653951850901967 A198.0,198.0,0,0,0,-197.37930316340368,15.665589128059654 C-78.95172126536147,6.266235651223862,19.612397963171567,76.73326427393913,49.030994907928914,191.83316068484783 A198.0,198.0,0,0,0,49.165536138477805,191.79872277003315 C19.666214455391124,76.71948910801326,-78.95209057796977,6.261580740360787,-197.3802264449244,15.653951850901967 Z" fill="#d62728" fill-opacity="0.6" />
<path d="M-197.38239252823624,15.626615750996068 A198.0,198.0,0,0,0,-197.3802264449244,15.653951850901967 C-78.95209057796977,6.261580740360787,29.00445793374051,73.6979064829516,72.51114483435127,184.24476620737897 A198.0,198.0,0,0,0,74.06311434763977,183.62640086090136 C29.62524573905591,73.45056034436054,-78.9529570112945,6.250646300398428,-197.38239252823624,15.626615750996068 Z" fill="#d62728" fill-opacity="0.6" />
<path d="M-197.4067816599536,15.31543517695165 A198.0,198.0,0,0,0,-197.38239252823624,15.626615750996068 C-78.9529570112945,6.250646300398428,68.6418962470135,39.50860766483975,171.60474061753376,98.77151916209937 A198.0,198.0,0,0,0,171.60722214958554,98.76720764556826 C68.64288885983422,39.50688305822731,-78.96271266398145,6.12617407078066,-197.4067816599536,15.31543517695165 Z" fill="#e377c2" fill-opacity="0.6" />
<path d="M-197.4306802044008,15.00421654161333 A198.0,198.0,0,0,0,-197.4067816599536,15.31543517695165 C-78.96271266398145,6.12617407078066,79.17467002612567,2.002904454565642,197.93667506531415,5.007261136414105 A198.0,198.0,0,0,0,197.9367159836131,5.005643377476799 C79.17468639344526,2.0022573509907198,-78.97227208176032,6.001686616645332,-197.4306802044008,15.00421654161333 Z" fill="#e377c2" fill-opacity="0.6" />
<path d="M-178.04717090497564,86.62104208986638 A198.0,198.0,0,0,0,-167.51153249146824,105.56460809551551 C-67.0046129965873,42.22584323820621,-54.270251242043244,57.68344502650223,-135.6756281051081,144.20861256625557 A198.0,198.0,0,0,0,-125.20774340074459,153.3852046075282 C-50.08309736029784,61.354081843011286,-71.21886836199026,34.648416835946556,-178.04717090497564,86.62104208986638 Z" fill="#d62728" fill-opacity="0.6" />
<path d="M-178.37981217052817,85.93394329371306 A198.0,198.0,0,0,0,-178.04717090497564,86.62104208986638 C-71.21886836199026,34.648416835946556,17.235296476322347,77.30190525060344,43.08824119080587,193.25476312650858 A198.0,198.0,0,0,0,49.030994907928914,191.83316068484783 C19.612397963171567,76.73326427393913,-71.35192486821127,34.37357731748522,-178.37981217052817,85.93394329371306 Z" fill="#d62728" fill-opacity="0.6" />
<path d="M-178.3873919289051,85.918207620988 A198.0,198.0,0,0,0,-178.37981217052817,85.93394329371306 C-71.35192486821127,34.37357731748522,28.73777133313061,73.80230686641643,71.84442833282652,184.50576716604107 A198.0,198.0,0,0,0,72.51114483435127,184.24476620737897 C29.00445793374051,73.6979064829516,-71.35495677156204,34.3672830483952,-178.3873919289051,85.918207620988 Z" fill="#d62728" fill-opacity="0.6" />
<path d="M-178.3963535026468,85.89959870080118 A198.0,198.0,0,0,0,-178.3873919289051,85.918207620988 C-71.35495677156204,34.3672830483952,46.071424736338905,64.42098899243832,115.17856184084725,161.0524724810958 A198.0,198.0,0,0,0,116.34292162233307,160.21337206481758 C46.53716864893323,64.08534882592703,-71.35854140105873,34.359839480320474,-178.3963535026468,85.89959870080118 Z" fill="#d62728" fill-opacity="0.6" />
<path d="M-180.52259994480383,81.33628285807207 A198.0,198.0,0,0,0,-178.3963535026468,85.89959870080118 C-71.35854140105873,34.359839480320474,68.63112095244287,39.52732266181405,171.57780238110718,98.8183066545351 A198.0,198.0,0,0,0,171.60474061753376,98.77151916209937 C68.6418962470135,39.50860766483975,-72.20903997792153,32.53451314322883,-180.52259994480383,81.33628285807207 Z" fill="#e377c2" fill-opacity="0.6" />
<path d="M-121.99509283464528,155.95254830962614 A198.0,198.0,0,0,0,-121.99005415586167,155.95648972405712 C-48.79602166234467,62.38259588962285,-25.82569101750307,74.87104703066775,-64.56422754375767,187.17761757666938 A198.0,198.0,0,0,0,-64.04273250005937,187.35668766800356 C-25.61709300002375,74.94267506720142,-48.79803713385812,62.38101932385046,-121.99509283464528,155.95254830962614 Z" fill="#d62728" fill-opacity="0.6" />
<path d="M-122.21308799491787,155.78177403902697 A198.0,198.0,0,0,0,-121.99509283464528,155.95254830962614 C-48.79803713385812,62.38101932385046,24.24037031682249,75.39923372888687,60.600925792056216,188.49808432221718 A198.0,198.0,0,0,0,71.84442833282652,184.50576716604107 C28.73777133313061,73.80230686641643,-48.88523519796715,62.31270961561079,-122.21308799491787,155.78177403902697 Z" fill="#d62728" fill-opacity="0.6" />
<path d="M-122.27491356494204,155.73325114658704 A198.0,198.0,0,0,0,-122.21308799491787,155.78177403902697 C-48.88523519796715,62.31270961561079,44.18448923719302,65.72952845448059,110.46122309298254,164.32382113620147 A198.0,198.0,0,0,0,115.17856184084725,161.0524724810958 C46.071424736338905,64.42098899243832,-48.90996542597682,62.29330045863482,-122.27491356494204,155.73325114658704 Z" fill="#d62728" fill-opacity="0.6" />
<path d="M-122.80840493448562,155.3128960435913 A198.0,198.0,0,0,0,-122.27491356494204,155.73325114658704 C-48.90996542597682,62.29330045863482,79.1746448249375,2.0039004079544616,197.93661206234373,5.009751019886154 A198.0,198.0,0,0,0,197.93667506531415,5.007261136414105 C79.17467002612567,2.002904454565642,-49.12336197379425,62.12515841743652,-122.80840493448562,155.3128960435913 Z" fill="#e377c2" fill-opacity="0.6" />
<path d="M-62.716988363436585,187.80463085510047 A198.0,198.0,0,0,0,-62.68982023167032,187.81370141531437 C-25.07592809266813,75.12548056612574,23.69444176536669,75.5725706154531,59.236104413416726,188.93142653863276 A198.0,198.0,0,0,0,60.600925792056216,188.49808432221718 C24.24037031682249,75.39923372888687,-25.086795345374636,75.12185234204019,-62.716988363436585,187.80463085510047 Z" fill="#d62728" fill-opacity="0.6" />
<path d="M-62.978423211589856,187.71712284653705 A198.0,198.0,0,0,0,-62.716988363436585,187.80463085510047 C-25.086795345374636,75.12185234204019,68.6304011326246,39.528572455567385,171.57600283156148,98.82143113891846 A198.0,198.0,0,0,0,171.57780238110718,98.8183066545351 C68.63112095244287,39.52732266181405,-25.191369284635943,75.08684913861482,-62.978423211589856,187.71712284653705 Z" fill="#e377c2" fill-opacity="0.6" />
<path d="M-60.220756081463755,188.6198837264429 A198.0,198.0,0,0,0,-60.21640789586633,188.6212719184097 C-24.086563158346536,75.44850876736388,68.29023495281659,40.113386918697195,170.72558738204145,100.28346729674298 A198.0,198.0,0,0,0,171.57600283156148,98.82143113891846 C68.6304011326246,39.528572455567385,-24.088302432585504,75.44795349057716,-60.220756081463755,188.6198837264429 Z" fill="#9467bd" fill-opacity="0.6" />
<path d="M-60.22673478440561,188.61797479882154 A198.0,198.0,0,0,0,-60.220756081463755,188.6198837264429 C-24.088302432585504,75.44795349057716,79.16641012520597,2.3064058375934877,197.91602531301493,5.766014593983719 A198.0,198.0,0,0,0,197.93661206234373,5.009751019886154 C79.1746448249375,2.0039004079544616,-24.090693913762244,75.44718991952861,-60.22673478440561,188.61797479882154 Z" fill="#9467bd" fill-opacity="0.6" />
<path d="M-33.00631352850004,195.22956555618916 A198.0,198.0,0,0,0,-32.953395912512796,195.23850464965457 C-13.181358365005119,78.09540185986184,66.26924907471614,43.37080385551132,165.67312268679035,108.42700963877829 A198.0,198.0,0,0,0,170.72558738204145,100.28346729674298 C68.29023495281659,40.113386918697195,-13.202525411400016,78.09182622247567,-33.00631352850004,195.22956555618916 Z" fill="#9467bd" fill-opacity="0.6" />
<path d="M-33.891488888966684,195.07784851409718 A198.0,198.0,0,0,0,-33.00631352850004,195.22956555618916 C-13.202525411400016,78.09182622247567,79.16634932105931,2.308491970099334,197.91587330264827,5.771229925248335 A198.0,198.0,0,0,0,197.91602531301493,5.766014593983719 C79.16641012520597,2.3064058375934877,-13.556595555586675,78.03113940563888,-33.891488888966684,195.07784851409718 Z" fill="#e377c2" fill-opacity="0.6" />
<path d="M41.14480737288333,193.67783772607626 A198.0,198.0,0,0,0,41.1535713744008,193.67597569944522 C16.46142854976032,77.47039027977809,66.02118386820094,43.74749456415997,165.05295967050233,109.36873641039992 A198.0,198.0,0,0,0,165.67312268679035,108.42700963877829 C66.26924907471614,43.37080385551132,16.457922949153332,77.47113509043051,41.14480737288333,193.67783772607626 Z" fill="#9467bd" fill-opacity="0.6" />
<path d="M41.1358255447832,193.67974560275826 A198.0,198.0,0,0,0,41.14480737288333,193.67783772607626 C16.457922949153332,77.47113509043051,77.34398570656775,17.0454649400433,193.35996426641935,42.61366235010824 A198.0,198.0,0,0,0,193.51223952172828,41.9167407521776 C77.40489580869132,16.766696300871043,16.45433021791328,77.4718982411033,41.1358255447832,193.67974560275826 Z" fill="#9467bd" fill-opacity="0.6" />
<path d="M40.20838264979002,193.87440770944488 A198.0,198.0,0,0,0,41.1358255447832,193.67974560275826 C16.45433021791328,77.4718982411033,79.16630407208335,2.3100431957953784,197.91576018020837,5.775107989488446 A198.0,198.0,0,0,0,197.91587330264827,5.771229925248335 C79.16634932105931,2.308491970099334,16.083353059916007,77.54976308377796,40.20838264979002,193.87440770944488 Z" fill="#e377c2" fill-opacity="0.6" />
<path d="M49.165536138477805,191.79872277003315 A198.0,198.0,0,0,0,49.3000531809062,191.7641904954098 C19.72002127236248,76.70567619816391,79.1662334229871,2.3124631061099965,197.91558355746776,5.781157765274991 A198.0,198.0,0,0,0,197.91576018020837,5.775107989488446 C79.16630407208335,2.3100431957953784,19.666214455391124,76.71948910801326,49.165536138477805,191.79872277003315 Z" fill="#e377c2" fill-opacity="0.6" />
<path d="M76.05074073298879,182.81215723787005 A198.0,198.0,0,0,0,80.43530586724219,180.92584550042372 C32.17412234689688,72.37033820016948,44.15762565638818,65.74757863518845,110.39406414097043,164.36894658797112 A198.0,198.0,0,0,0,110.46122309298254,164.32382113620147 C44.18448923719302,65.72952845448059,30.420296293195516,73.12486289514803,76.05074073298879,182.81215723787005 Z" fill="#8c564b" fill-opacity="0.6" />
<path d="M75.38918150736964,183.08596699815328 A198.0,198.0,0,0,0,76.05074073298879,182.81215723787005 C30.420296293195516,73.12486289514803,66.01704522095699,43.75373972924053,165.04261305239245,109.38434932310132 A198.0,198.0,0,0,0,165.05295967050233,109.36873641039992 C66.02118386820094,43.74749456415997,30.15567260294786,73.23438679926132,75.38918150736964,183.08596699815328 Z" fill="#e377c2" fill-opacity="0.6" />
<path d="M178.7015208266634,85.26292543795094 A198.0,198.0,0,0,0,179.18418333530514,84.24386293647599 C71.67367333412206,33.697545174590395,76.7153840728029,19.682221586049106,191.78846018200727,49.20555396512276 A198.0,198.0,0,0,0,193.35996426641935,42.61366235010824 C77.34398570656775,17.0454649400433,71.48060833066536,34.105170175180376,178.7015208266634,85.26292543795094 Z" fill="#e377c2" fill-opacity="0.6" />
<path d="M178.21306272795476,86.27922271973746 A198.0,198.0,0,0,0,178.7015208266634,85.26292543795094 C71.48060833066536,34.105170175180376,78.38220535275259,11.352087210681667,195.95551338188147,28.380218026704167 A198.0,198.0,0,0,0,197.91558355746776,5.781157765274991 C79.1662334229871,2.3124631061099965,71.28522509118191,34.511689087894986,178.21306272795476,86.27922271973746 Z" fill="#e377c2" fill-opacity="0.6" />
<path d="M195.4370262019445,31.75482308784705 A198.0,198.0,0,0,0,195.66076609048747,30.345751150425617 C78.264306436195,12.138300460170248,78.38177423504493,11.355063529828769,195.95443558761232,28.38765882457192 A198.0,198.0,0,0,0,195.95551338188147,28.380218026704167 C78.38220535275259,11.352087210681667,78.17481048077781,12.70192923513882,195.4370262019445,31.75482308784705 Z" fill="#e377c2" fill-opacity="0.6" />
<text x="220.0" y="0" font-size="10" text-anchor="start" dominant-baseline="middle" transform="rotate(-9.587343)" font-family="Arial">Canada</text>
<text x="220.00000000000003" y="0" font-size="10" text-anchor="start" dominant-baseline="middle" transform="rotate(-27.945015)" font-family="Arial">Mexico</text>
<text x="220.00000000000003" y="0" font-size="10" text-anchor="start" dominant-baseline="middle" transform="rotate(-61.673687)" font-family="Arial">United Sta.</text>
<text x="220.00000000000006" y="0" font-size="10" text-anchor="start" dominant-baseline="middle" transform="rotate(-88.182894)" font-family="Arial">Costa Rica</text>
<text x="-220.00000000000006" y="0" font-size="10" text-anchor="end" dominant-baseline="middle" transform="rotate(89.403332)" font-family="Arial">Dominican .</text>
<text x="-220.00000000000003" y="0" font-size="10" text-anchor="end" dominant-baseline="middle" transform="rotate(86.993920)" font-family="Arial">Guatemala</text>
<text x="-220.00000000000003" y="0" font-size="10" text-anchor="end" dominant-baseline="middle" transform="rotate(76.635353)" font-family="Arial">Argentina</text>
<text x="-220.00000000000003" y="0" font-size="10" text-anchor="end" dominant-baseline="middle" transform="rotate(56.985107)" font-family="Arial">Brazil</text>
<text x="-220.00000000000003" y="0" font-size="10" text-anchor="end" dominant-baseline="middle" transform="rotate(39.856806)" font-family="Arial">Colombia</text>
<text x="-220.0" y="0" font-size="10" text-anchor="end" dominant-baseline="middle" transform="rotate(21.182655)" font-family="Arial">Germany</text>
<text x="-220.00000000000006" y="0" font-size="10" text-anchor="end" dominant-baseline="middle" transform="rotate(0.865818)" font-family="Arial">Spain</text>
<text x="-220.00000000000006" y="0" font-size="10" text-anchor="end" dominant-baseline="middle" transform="rotate(-19.929396)" font-family="Arial">France</text>
<text x="-220.00000000000003" y="0" font-size="10" text-anchor="end" dominant-baseline="middle" transform="rotate(-42.379542)" font-family="Arial">United Kin.</text>
<text x="-220.00000000000003" y="0" font-size="10" text-anchor="end" dominant-baseline="middle" transform="rotate(-62.040943)" font-family="Arial">Italy</text>
<text x="-220.00000000000006" y="0" font-size="10" text-anchor="end" dominant-baseline="middle" transform="rotate(-72.204590)" font-family="Arial">Indonesia</text>
<text x="-220.00000000000006" y="0" font-size="10" text-anchor="end" dominant-baseline="middle" transform="rotate(-76.643570)" font-family="Arial">India</text>
<text x="220.0" y="0" font-size="10" text-anchor="start" dominant-baseline="middle" transform="rotate(-271.494369)" font-family="Arial">Japan</text>
<text x="220.00000000000003" y="0" font-size="10" text-anchor="start" dominant-baseline="middle" transform="rotate(-283.493446)" font-family="Arial">Egypt</text>
<text x="220.00000000000003" y="0" font-size="10" text-anchor="start" dominant-baseline="middle" transform="rotate(-289.479754)" font-family="Arial">Nigeria</text>
<text x="220.00000000000003" y="0" font-size="10" text-anchor="start" dominant-baseline="middle" transform="rotate(-301.406982)" font-family="Arial">South Afri.</text>
<text x="220.00000000000003" y="0" font-size="10" text-anchor="start" dominant-baseline="middle" transform="rotate(-321.832251)" font-family="Arial">Australia</text>
<text x="220.00000000000003" y="0" font-size="10" text-anchor="start" dominant-baseline="middle" transform="rotate(-343.288155)" font-family="Arial">New Zealan.</text>
<text x="220.00000000000006" y="0" font-size="10" text-anchor="start" dominant-baseline="middle" transform="rotate(-355.592012)" font-family="Arial">Papua New .</text>
<text x="-295.0" y="-285.0" font-size="8" text-anchor="start" dominant-baseline="middle" font-family="Arial" font-weight="bold">Continents</text>
<circle cx="-290.5" cy="-274.5" r="4.5" fill="#8c564b" stroke="#333" stroke-width="0.5" />
<text x="-278.0" y="-271.0" font-size="6" text-anchor="start" dominant-baseline="middle" font-family="Arial">Africa</text>
<circle cx="-290.5" cy="-262.5" r="4.5" fill="#9467bd" stroke="#333" stroke-width="0.5" />
<text x="-278.0" y="-259.0" font-size="6" text-anchor="start" dominant-baseline="middle" font-family="Arial">Asia</text>
<circle cx="-290.5" cy="-250.5" r="4.5" fill="#ff7f0e" stroke="#333" stroke-width="0.5" />
<text x="-278.0" y="-247.0" font-size="6" text-anchor="start" dominant-baseline="middle" font-family="Arial">Central America</text>
<circle cx="-290.5" cy="-238.5" r="4.5" fill="#d62728" stroke="#333" stroke-width="0.5" />
<text x="-278.0" y="-235.0" font-size="6" text-anchor="start" dominant-baseline="middle" font-family="Arial">Europe</text>
<circle cx="-290.5" cy="-226.5" r="4.5" fill="#1f77b4" stroke="#333" stroke-width="0.5" />
<text x="-278.0" y="-223.0" font-size="6" text-anchor="start" dominant-baseline="middle" font-family="Arial">North America</text>
<circle cx="-290.5" cy="-214.5" r="4.5" fill="#e377c2" stroke="#333" stroke-width="0.5" />
<text x="-278.0" y="-211.0" font-size="6" text-anchor="start" dominant-baseline="middle" font-family="Arial">Oceania</text>
<circle cx="-290.5" cy="-202.5" r="4.5" fill="#2ca02c" stroke="#333" stroke-width="0.5" />
<text x="-278.0" y="-199.0" font-size="6" text-anchor="start" dominant-baseline="middle" font-family="Arial">South America</text>
</svg>