<?xml version="1.0" encoding="UTF-8"?>
<svg xmlns="http://www.w3.org/2000/svg" xmlns:xlink="http://www.w3.org/1999/xlink"
     width="600.0" height="600.0" viewBox="-300.0 -300.0 600.0 600.0">
<defs>
</defs>
<rect x="-300.0" y="-300.0" width="600.0" height="600.0" fill="#ffffff" fill-opacity="1.0" />
<path d="M200.0,-0.0 A200,200,0,0,0,188.10862327527218,-67.93486475648368 L201.27622690454123,-72.69030528943753 A214.0,214.0,0,0,1,214.0,-0.0 Z" fill="#1f77b4" fill-opacity="0.9" />
<path d="M187.41988059734277,-69.81252292302422 A200,200,0,0,0,168.00133808812018,-108.51520815351708 L179.7614317542886,-116.11127272426329 A214.0,214.0,0,0,1,200.5392722391568,-74.69939952763592 Z" fill="#1f77b4" fill-opacity="0.9" />
<path d="M166.90780409545854,-110.18976781912208 A200,200,0,0,0,16.40643111827131,-199.32593664137494 L17.554881296550302,-213.2787522062712 A214.0,214.0,0,0,1,178.59135038214066,-117.90305156646063 Z" fill="#1f77b4" fill-opacity="0.9" />
<path d="M14.412384657960972,-199.48003200438626 A200,200,0,0,0,7.323775816814074,-199.86586078614087 L7.836440123991059,-213.85647104117075 A214.0,214.0,0,0,1,15.421251584018242,-213.4436342446933 Z" fill="#ff7f0e" fill-opacity="0.9" />
<path d="M5.3247843340236285,-199.92910411392367 A200,200,0,0,0,-1.4368618507492112,-199.99483850345203 L-1.537442180301656,-213.9944771986937 A214.0,214.0,0,0,1,5.697519237405283,-213.92414140189834 Z" fill="#ff7f0e" fill-opacity="0.9" />
<path d="M-3.4367050609834644,-199.97047046582605 A200,200,0,0,0,-10.587219041611021,-199.71958039452454 L-11.328324374523794,-213.69995102214128 A214.0,214.0,0,0,1,-3.677274415252307,-213.96840339843388 Z" fill="#ff7f0e" fill-opacity="0.9" />
<path d="M-12.583852202585216,-199.6037240728326 A200,200,0,0,0,-75.02337956921009,-185.39550296060102 L-80.2750161390548,-198.3731881678431 A214.0,214.0,0,0,1,-13.464721856766182,-213.57598475793088 Z" fill="#2ca02c" fill-opacity="0.9" />
<path d="M-76.87355256200128,-184.63601197084284 A200,200,0,0,0,-137.53537927146812,-145.20337271790012 L-147.1628558204709,-155.36760880815314 A214.0,214.0,0,0,1,-82.25470124134138,-197.56053280880187 Z" fill="#2ca02c" fill-opacity="0.9" />
<path d="M-138.98051208654863,-143.82078173949935 A200,200,0,0,0,-163.33979637073728,-115.41278491383041 L-174.77358211668889,-123.49167985779854 A214.0,214.0,0,0,1,-148.70914793260704,-153.8882364612643 Z" fill="#2ca02c" fill-opacity="0.9" />
<path d="M-164.48573806274706,-113.77364358212914 A200,200,0,0,0,-196.8593521856949,-35.30432632169235 L-210.63950683869353,-37.77562916421082 A214.0,214.0,0,0,1,-175.99973972713937,-121.73779863287818 Z" fill="#d62728" fill-opacity="0.9" />
<path d="M-197.202546679302,-33.334000407957426 A200,200,0,0,0,-198.031846791025,27.989063159312806 L-211.89407606639676,29.948297580464704 A214.0,214.0,0,0,1,-211.00672494685315,-35.66738043651445 Z" fill="#d62728" fill-opacity="0.9" />
<path d="M-197.74205931442586,29.96794918058434 A200,200,0,0,0,-163.71089131855035,114.88578703950196 L-175.17065371084888,122.92779213226711 A214.0,214.0,0,0,1,-211.5840034664357,32.06570562322525 Z" fill="#d62728" fill-opacity="0.9" />
<path d="M-162.5538671193375,116.51712442619224 A200,200,0,0,0,-106.11965537939687,169.52468475758343 L-113.54803125595467,181.3914126906143 A214.0,214.0,0,0,1,-173.93263781769113,124.6733231360257 Z" fill="#d62728" fill-opacity="0.9" />
<path d="M-104.41913084724135,170.57738746125378 A200,200,0,0,0,-38.79980445503599,196.20034448045948 L-41.515790766888514,209.93436859409167 A214.0,214.0,0,0,1,-111.72847000654825,182.51780458354156 Z" fill="#d62728" fill-opacity="0.9" />
<path d="M-36.83589373606913,196.57852612293394 A200,200,0,0,0,-30.911395331713443,197.59677537512226 L-33.07519300493339,211.42854965138082 A214.0,214.0,0,0,1,-39.41440629759397,210.33902295153933 Z" fill="#9467bd" fill-opacity="0.9" />
<path d="M-28.933914953706612,197.8960044201289 A200,200,0,0,0,-27.43693970887567,198.10909706374292 L-29.357525488496968,211.97673385820494 A214.0,214.0,0,0,1,-30.959289000466075,211.7487247295379 Z" fill="#9467bd" fill-opacity="0.9" />
<path d="M-25.454509920702606,198.37355651572327 A200,200,0,0,0,38.81106331413806,196.1981176373157 L41.52783774612773,209.93198587192782 A214.0,214.0,0,0,1,-27.236325615151788,212.2597054718239 Z" fill="#9467bd" fill-opacity="0.9" />
<path d="M40.77107125399392,195.8002036485196 A200,200,0,0,0,47.440713914131926,194.2919933072835 L50.76156388812117,207.89243283879335 A214.0,214.0,0,0,1,43.6250462417735,209.506217903916 Z" fill="#8c564b" fill-opacity="0.9" />
<path d="M49.38122944943893,193.80787955617765 A200,200,0,0,0,77.2246772550917,184.48942848533875 L82.63040466294812,197.40368847931248 A214.0,214.0,0,0,1,52.83791551089966,207.3744311251101 Z" fill="#8c564b" fill-opacity="0.9" />
<path d="M79.06567959017481,183.7079701889491 A200,200,0,0,0,125.47598424646102,155.7426639600783 L134.2593031437133,166.6446504372838 A214.0,214.0,0,0,1,84.60027716148706,196.56752810217554 Z" fill="#8c564b" fill-opacity="0.9" />
<path d="M127.02711118215007,154.48013796186774 A200,200,0,0,0,183.46157744091667,79.63573069226236 L196.30388786178085,85.21023184072072 A214.0,214.0,0,0,1,135.91900896490057,165.29374761919848 Z" fill="#e377c2" fill-opacity="0.9" />
<path d="M184.2487484728539,77.79716374127675 A200,200,0,0,0,199.57555403265246,13.02298861858581 L213.54584281493814,13.934597821886818 A214.0,214.0,0,0,1,197.14616086595368,83.24296520316612 Z" fill="#e377c2" fill-opacity="0.9" />
<path d="M199.69580305380566,11.02661519668065 A200,200,0,0,0,199.99000008333306,1.999966666834405 L213.9893000891664,2.1399643335128133 A214.0,214.0,0,0,1,213.67450926757206,11.798478260448297 Z" fill="#e377c2" fill-opacity="0.9" />
<path d="M193.0,-0.0 A193.0,193.0,0,0,0,183.3717880347026,-60.197901566052074 L188.12235249156018,-61.757432694706274 A198.0,198.0,0,0,1,198.0,-0.0 Z" fill="#1f77b4" fill-opacity="0.6" />
<path d="M180.86018477643577,-67.36908462071837 A193.0,193.0,0,0,0,175.63217118456217,-80.01462644414869 L180.18222743286688,-82.08754422767586 A198.0,198.0,0,0,1,185.54568179136933,-69.11439769379398 Z" fill="#1f77b4" fill-opacity="0.6" />
<path d="M161.06603095211747,-106.3331259454528 A193.0,193.0,0,0,0,27.623929376513193,-191.01287528803238 L28.339575215282967,-195.96139537321457 A198.0,198.0,0,0,1,165.23872605450396,-109.08787014093086 Z" fill="#1f77b4" fill-opacity="0.6" />
<path d="M-12.143417375494733,-192.61759373028346 A193.0,193.0,0,0,0,-63.44144361812311,-182.27502086585673 L-65.08500433361853,-186.9971716654903 A198.0,198.0,0,0,1,-12.458013680559365,-197.60768683210426 Z" fill="#2ca02c" fill-opacity="0.6" />
<path d="M-74.18297822233123,-178.17375155186335 A193.0,193.0,0,0,0,-128.4337329284872,-144.06170985398595 L-131.76103170901794,-147.79387850305292 A198.0,198.0,0,0,1,-76.10481703638126,-182.7896518511344 Z" fill="#2ca02c" fill-opacity="0.6" />
<path d="M-134.11619416351942,-138.78705437861686 A193.0,193.0,0,0,0,-141.4182982375911,-131.3387411375019 L-145.08198472043026,-134.74129919805893 A198.0,198.0,0,0,1,-137.59070696568313,-142.38257392210434 Z" fill="#2ca02c" fill-opacity="0.6" />
<path d="M-158.7287372305509,-109.79156605675462 A193.0,193.0,0,0,0,-189.11188765281958,-38.5447006524548 L-194.01115935366983,-39.54326802687073 A198.0,198.0,0,0,1,-162.8408806821196,-112.63590714630784 Z" fill="#d62728" fill-opacity="0.6" />
<path d="M-190.30045754552646,-32.16731039367892 A193.0,193.0,0,0,0,-192.83265313564561,8.035414405478749 L-197.82831772465198,8.243585763133638 A198.0,198.0,0,0,1,-195.230521212509,-33.00066040387785 Z" fill="#d62728" fill-opacity="0.6" />
<path d="M-190.82108723842094,28.91907095926389 A193.0,193.0,0,0,0,-182.56679793195437,62.59683932015212 L-187.29650772293763,64.2185190952856 A198.0,198.0,0,0,1,-195.76463872128159,29.668269688778498 Z" fill="#d62728" fill-opacity="0.6" />
<path d="M-156.8644817701607,112.43902507127551 A193.0,193.0,0,0,0,-109.24338329816536,159.1065152832219 L-112.0735227618484,163.2284457309738 A198.0,198.0,0,0,1,-160.92832844814413,115.35195318193033 Z" fill="#d62728" fill-opacity="0.6" />
<path d="M-100.7644612675879,164.6071789001099 A193.0,193.0,0,0,0,-42.38629774575828,188.28808184111898 L-43.484388360933366,193.16601142249513 A198.0,198.0,0,0,1,-103.37493953876893,168.87161358664125 Z" fill="#d62728" fill-opacity="0.6" />
<path d="M-35.54663745530671,189.69827770863125 A193.0,193.0,0,0,0,-31.237322459842762,190.45532201946943 L-32.046579518387915,195.3893977194557 A198.0,198.0,0,0,1,-36.46753479870844,194.6127408617046 Z" fill="#9467bd" fill-opacity="0.6" />
<path d="M-27.921227930326882,190.9696442654244 A193.0,193.0,0,0,0,-26.822731143423223,191.12702868513296 L-27.51762055128393,196.07850611220894 A198.0,198.0,0,0,1,-28.64457580416955,195.9170443759276 Z" fill="#9467bd" fill-opacity="0.6" />
<path d="M-24.563602073478016,191.43048203767296 A193.0,193.0,0,0,0,26.82660051632742,191.12648561813035 L27.521590167009478,196.077948976113 A198.0,198.0,0,0,1,-25.19996482149558,196.38982095056602 Z" fill="#9467bd" fill-opacity="0.6" />
<path d="M47.65288641870857,187.02460377171144 A193.0,193.0,0,0,0,52.94020986985291,185.5972364528522 L54.3117178975693,190.40545501380691 A198.0,198.0,0,0,1,48.88741715494454,191.86980076061587 Z" fill="#8c564b" fill-opacity="0.6" />
<path d="M76.29838080451869,177.2781912323359 A193.0,193.0,0,0,0,111.6508272554584,157.4264678291798 L114.54333573357908,161.5048737314902 A198.0,198.0,0,0,1,78.27502279427306,181.87089048705963 Z" fill="#8c564b" fill-opacity="0.6" />
<path d="M122.58116229077481,149.07333313320237 A193.0,193.0,0,0,0,171.5922580530756,88.34645989651602 L176.0376533394247,90.63522828761748 A198.0,198.0,0,0,1,125.75684007032856,152.93533658224908 Z" fill="#e377c2" fill-opacity="0.6" />
<path d="M177.800042276304,75.07426301033206 A193.0,193.0,0,0,0,192.1637321020469,17.9471464197723 L197.14206713059735,18.412098399559145 A198.0,198.0,0,0,1,182.40626098812535,77.01919210386399 Z" fill="#e377c2" fill-opacity="0.6" />
<path d="M188.12015204759146,-61.76413517237227 A198.0,198.0,0,0,0,186.22753704251946,-67.25551610891885 C74.49101481700778,-26.902206443567543,10.88391955560747,-78.44858376737636,27.20979888901867,-196.1214594184409 A198.0,198.0,0,0,0,25.064921311789476,-196.4071020091529 C10.025968524715791,-78.56284080366117,75.24806081903658,-24.70565406894891,188.12015204759146,-61.76413517237227 Z" fill="#1f77b4" fill-opacity="0.6" />
<path d="M188.1210161528442,-61.76150323317376 A198.0,198.0,0,0,0,188.12015204759146,-61.76413517237227 C75.24806081903658,-24.70565406894891,-53.85839659229342,-58.06817645240151,-134.64599148073353,-145.17044113100377 A198.0,198.0,0,0,0,-134.86107421570497,-144.9706544835406 C-53.94442968628199,-57.98826179341625,75.24840646113768,-24.704601293269505,188.1210161528442,-61.76150323317376 Z" fill="#1f77b4" fill-opacity="0.6" />
<path d="M188.12235249156018,-61.757432694706274 A198.0,198.0,0,0,0,188.1210161528442,-61.76150323317376 C75.24840646113768,-24.704601293269505,79.1958089535118,0.8147663461762354,197.98952238377947,2.0369158654405886 A198.0,198.0,0,0,0,197.9901000824997,1.979967000166061 C79.19604003299989,0.7919868000664244,75.24894099662407,-24.70297307788251,188.12235249156018,-61.757432694706274 Z" fill="#1f77b4" fill-opacity="0.6" />
<path d="M180.0897199878896,-82.29029562884992 A198.0,198.0,0,0,0,166.321324707239,-107.43005607198191 C66.5285298828956,-42.97202242879277,11.335830086113187,-78.38455814928584,28.339575215282967,-195.96139537321457 A198.0,198.0,0,0,0,27.20979888901867,-196.1214594184409 C10.88391955560747,-78.44858376737636,72.03588799515585,-32.91611825153997,180.0897199878896,-82.29029562884992 Z" fill="#1f77b4" fill-opacity="0.6" />
<path d="M180.09837539683338,-82.2713509031016 A198.0,198.0,0,0,0,180.0897199878896,-82.29029562884992 C72.03588799515585,-32.91611825153997,-3.9968675178915634,-79.09908374971496,-9.992168794728908,-197.7477093742874 A198.0,198.0,0,0,0,-10.330837219470176,-197.73030572561407 C-4.132334887788071,-79.09212229024564,72.03935015873336,-32.90854036124065,180.09837539683338,-82.2713509031016 Z" fill="#1f77b4" fill-opacity="0.6" />
<path d="M180.18222743286688,-82.08754422767586 A198.0,198.0,0,0,0,180.09837539683338,-82.2713509031016 C72.03935015873336,-32.90854036124065,49.58609511432118,61.75645044295773,123.96523778580294,154.3911261073943 A198.0,198.0,0,0,0,123.96753598878585,154.38928078357347 C49.587014395514345,61.75571231342939,72.07289097314676,-32.83501769107035,180.18222743286688,-82.08754422767586 Z" fill="#8c564b" fill-opacity="0.6" />
<path d="M17.91207251579569,-197.18812757919497 A198.0,198.0,0,0,0,16.242366807088597,-197.33267727496118 C6.496946722835439,-78.93307090998448,5.707304324552545,-78.99409267373697,14.268260811381362,-197.4852316843424 A198.0,198.0,0,0,0,7.436348731467343,-197.8603060685594 C2.9745394925869375,-79.14412242742377,7.164829006318276,-78.87525103167799,17.91207251579569,-197.18812757919497 Z" fill="#1f77b4" fill-opacity="0.6" />
<path d="M19.54686533744633,-197.0327892902086 A198.0,198.0,0,0,0,17.91207251579569,-197.18812757919497 C7.164829006318276,-78.87525103167799,2.108614596273357,-79.17192522911378,5.271536490683393,-197.92981307278444 A198.0,198.0,0,0,0,-1.3245248841593287,-197.99556973283833 C-0.5298099536637315,-79.19822789313534,7.818746134978532,-78.81311571608344,19.54686533744633,-197.0327892902086 Z" fill="#1f77b4" fill-opacity="0.6" />
<path d="M21.149179353133032,-196.86724514933664 A198.0,198.0,0,0,0,19.54686533744633,-197.0327892902086 C7.818746134978532,-78.81311571608344,-1.360935204149452,-79.18830630446712,-3.40233801037363,-197.9707657611678 A198.0,198.0,0,0,0,-9.992168794728908,-197.7477093742874 C-3.9968675178915634,-79.09908374971496,8.459671741253214,-78.74689805973466,21.149179353133032,-196.86724514933664 Z" fill="#1f77b4" fill-opacity="0.6" />
<path d="M21.202874070194877,-196.8614693919647 A198.0,198.0,0,0,0,21.149179353133032,-196.86724514933664 C8.459671741253214,-78.74689805973466,-26.03400173344741,-74.79886866619613,-65.08500433361853,-186.9971716654903 A198.0,198.0,0,0,0,-66.99050662138623,-186.32303137993972 C-26.796202648554495,-74.52921255197589,8.48114962807795,-78.74458775678589,21.202874070194877,-196.8614693919647 Z" fill="#1f77b4" fill-opacity="0.6" />
<path d="M21.63309959281395,-196.8146564715326 A198.0,198.0,0,0,0,21.202874070194877,-196.8614693919647 C8.48114962807795,-78.74458775678589,-52.72926230021372,-59.09538812187683,-131.82315575053428,-147.73847030469207 A198.0,198.0,0,0,0,-134.64599148073353,-145.17044113100377 C-53.85839659229342,-58.06817645240151,8.65323983712558,-78.72586258861304,21.63309959281395,-196.8146564715326 Z" fill="#1f77b4" fill-opacity="0.6" />
<path d="M22.750138953065377,-196.6886656053577 A198.0,198.0,0,0,0,21.63309959281395,-196.8146564715326 C8.65323983712558,-78.72586258861304,-58.355431741720466,-53.54702219766664,-145.88857935430116,-133.8675554941666 A198.0,198.0,0,0,0,-161.5684668456841,-114.45361733529911 C-64.62738673827364,-45.78144693411965,9.100055581226151,-78.67546624214309,22.750138953065377,-196.6886656053577 Z" fill="#1f77b4" fill-opacity="0.6" />
<path d="M22.82085638606825,-196.6804731380481 A198.0,198.0,0,0,0,22.750138953065377,-196.6886656053577 C9.100055581226151,-78.67546624214309,-77.60476901226122,-15.815809386610068,-194.011922530653,-39.53952346652517 A198.0,198.0,0,0,0,-194.685313815918,-36.0780900879956 C-77.87412552636721,-14.43123603519824,9.1283425544273,-78.67218925521924,22.82085638606825,-196.6804731380481 Z" fill="#1f77b4" fill-opacity="0.6" />
<path d="M22.89637671057453,-196.6716958118973 A198.0,198.0,0,0,0,22.82085638606825,-196.6804731380481 C9.1283425544273,-78.67218925521924,-79.12847161937009,3.3652606411010404,-197.8211790484252,8.4131516027526 A198.0,198.0,0,0,0,-197.68940335341915,11.086018300956642 C-79.07576134136767,4.434407320382657,9.158550684229812,-78.66867832475893,22.89637671057453,-196.6716958118973 Z" fill="#1f77b4" fill-opacity="0.6" />
<path d="M22.924398815432905,-196.66843147529036 A198.0,198.0,0,0,0,22.89637671057453,-196.6716958118973 C9.158550684229812,-78.66867832475893,-67.57357439009768,41.309224685848754,-168.9339359752442,103.27306171462187 A198.0,198.0,0,0,0,-168.15506451375873,104.53647343570394 C-67.2620258055035,41.81458937428158,9.169759526173163,-78.66737259011614,22.924398815432905,-196.66843147529036 Z" fill="#1f77b4" fill-opacity="0.6" />
<path d="M23.35419830691046,-196.6178563138188 A198.0,198.0,0,0,0,22.924398815432905,-196.66843147529036 C9.169759526173163,-78.66737259011614,-43.19138737274561,66.38632432073214,-107.97846843186402,165.96581080183034 A198.0,198.0,0,0,0,-105.61566084230516,167.47934853241807 C-42.24626433692207,66.99173941296723,9.341679322764184,-78.64714252552753,23.35419830691046,-196.6178563138188 Z" fill="#1f77b4" fill-opacity="0.6" />
<path d="M23.409279366207812,-196.6113059810011 A198.0,198.0,0,0,0,23.35419830691046,-196.6178563138188 C9.341679322764184,-78.64714252552753,-16.255998704353125,77.51375688304671,-40.63999676088281,193.78439220761675 A198.0,198.0,0,0,0,-38.425609237681485,194.2356109335078 C-15.370243695072595,77.69424437340312,9.363711746483125,-78.64452239240045,23.409279366207812,-196.6113059810011 Z" fill="#1f77b4" fill-opacity="0.6" />
<path d="M24.268512433187713,-196.50709733818832 A198.0,198.0,0,0,0,23.409279366207812,-196.6113059810011 C9.363711746483125,-78.64452239240045,-12.818155939709241,78.1558371352089,-32.0453898492731,195.38959283802222 A198.0,198.0,0,0,0,-30.660355388015436,195.611713881047 C-12.264142155206175,78.2446855524188,9.707404973275086,-78.60283893527533,24.268512433187713,-196.50709733818832 Z" fill="#1f77b4" fill-opacity="0.6" />
<path d="M24.284648780346743,-196.50510383604595 A198.0,198.0,0,0,0,24.268512433187713,-196.50709733818832 C9.707404973275086,-78.60283893527533,-11.007048220513573,78.43140244488359,-27.51762055128393,196.07850611220894 A198.0,198.0,0,0,0,-27.292119138862336,196.11002073558134 C-10.916847655544935,78.44400829423255,9.713859512138697,-78.60204153441839,24.284648780346743,-196.50510383604595 Z" fill="#1f77b4" fill-opacity="0.6" />
<path d="M24.573201081447873,-196.46922860491597 A198.0,198.0,0,0,0,24.284648780346743,-196.50510383604595 C9.713859512138697,-78.60204153441839,11.020064423199669,78.42957465209491,27.55016105799917,196.07393663023728 A198.0,198.0,0,0,0,38.418933705330936,194.23693143412606 C15.367573482132375,77.69477257365043,9.82928043257915,-78.5876914419664,24.573201081447873,-196.46922860491597 Z" fill="#1f77b4" fill-opacity="0.6" />
<path d="M24.63341847874275,-196.46168759850133 A198.0,198.0,0,0,0,24.573201081447873,-196.46922860491597 C9.82928043257915,-78.5876914419664,18.691422462219126,76.96278793247325,46.728556155547814,192.40696983118312 A198.0,198.0,0,0,0,46.966306774990606,192.34907337421066 C18.786522709996245,76.93962934968427,9.853367391497102,-78.58467503940054,24.63341847874275,-196.46168759850133 Z" fill="#1f77b4" fill-opacity="0.6" />
<path d="M24.71480043069696,-196.4514663719027 A198.0,198.0,0,0,0,24.63341847874275,-196.46168759850133 C9.853367391497102,-78.58467503940054,28.467039942977536,73.90715551883271,71.16759985744383,184.76788879708175 A198.0,198.0,0,0,0,72.53031011458317,184.23722239189993 C29.01212404583327,73.69488895675998,9.885920172278786,-78.58058654876109,24.71480043069696,-196.4514663719027 Z" fill="#1f77b4" fill-opacity="0.6" />
<path d="M24.890924055751757,-196.4292287304789 A198.0,198.0,0,0,0,24.71480043069696,-196.4514663719027 C9.885920172278786,-78.58058654876109,47.528778312769,63.35341531516403,118.8219457819225,158.38353828791006 A198.0,198.0,0,0,0,123.96523778580294,154.3911261073943 C49.58609511432118,61.75645044295773,9.956369622300704,-78.57169149219158,24.890924055751757,-196.4292287304789 Z" fill="#1f77b4" fill-opacity="0.6" />
<path d="M24.983106613573078,-196.41752565373295 A198.0,198.0,0,0,0,24.890924055751757,-196.4292287304789 C9.956369622300704,-78.57169149219158,71.63797618281794,33.773367738945005,179.09494045704483,84.43341934736252 A198.0,198.0,0,0,0,181.24327535704472,79.71747071909941 C72.4973101428179,31.886988287639767,9.993242645429232,-78.56701026149318,24.983106613573078,-196.41752565373295 Z" fill="#1f77b4" fill-opacity="0.6" />
<path d="M25.043483655696825,-196.4098366334712 A198.0,198.0,0,0,0,24.983106613573078,-196.41752565373295 C9.993242645429232,-78.56701026149318,78.96448725410332,6.103257547945615,197.41121813525828,15.258143869864037 A198.0,198.0,0,0,0,197.57979849232592,12.892758732399951 C79.03191939693038,5.157103492959981,10.017393462278731,-78.56393465338849,25.043483655696825,-196.4098366334712 Z" fill="#1f77b4" fill-opacity="0.6" />
<path d="M25.064921311789476,-196.4071020091529 A198.0,198.0,0,0,0,25.043483655696825,-196.4098366334712 C10.017393462278731,-78.56393465338849,79.19532713797736,0.8603252342843786,197.9883178449434,2.150813085710946 A198.0,198.0,0,0,0,197.98952238377947,2.0369158654405886 C79.1958089535118,0.8147663461762354,10.025968524715791,-78.56284080366117,25.064921311789476,-196.4071020091529 Z" fill="#1f77b4" fill-opacity="0.6" />
<path d="M7.287700709981361,-197.86583691572866 A198.0,198.0,0,0,0,7.250538058645933,-197.86720217827948 C2.9002152234583733,-79.1468808713118,-52.728120080809425,-59.096407274416805,-131.82030020202356,-147.741018186042 A198.0,198.0,0,0,0,-131.82315575053428,-147.73847030469207 C-52.72926230021372,-59.09538812187683,2.9150802839925447,-79.14633476629147,7.287700709981361,-197.86583691572866 Z" fill="#2ca02c" fill-opacity="0.6" />
<path d="M7.324863104242123,-197.86446467343274 A198.0,198.0,0,0,0,7.287700709981361,-197.86583691572866 C2.9150802839925447,-79.14633476629147,-43.19289792335678,66.38534152192396,-107.98224480839194,165.9633538048099 A198.0,198.0,0,0,0,-107.97846843186402,165.96581080183034 C-43.19138737274561,66.38632432073214,2.9299452416968492,-79.1457858693731,7.324863104242123,-197.86446467343274 Z" fill="#d62728" fill-opacity="0.6" />
<path d="M7.436348731467343,-197.8603060685594 A198.0,198.0,0,0,0,7.324863104242123,-197.86446467343274 C2.9299452416968492,-79.1457858693731,11.015960684721817,78.43015115497779,27.53990171180454,196.07537788744446 A198.0,198.0,0,0,0,27.55016105799917,196.07393663023728 C11.020064423199669,78.42957465209491,2.9745394925869375,-79.14412242742377,7.436348731467343,-197.8603060685594 Z" fill="#9467bd" fill-opacity="0.6" />
<path d="M-1.3898371537261214,-197.99512204265568 A198.0,198.0,0,0,0,-1.4224932322417192,-197.99489011841752 C-0.5689972928966877,-79.19795604736701,-43.194246106183584,66.38446432199663,-107.98561526545896,165.96116080499158 A198.0,198.0,0,0,0,-107.98224480839194,165.9633538048099 C-43.19289792335678,66.38534152192396,-0.5559348614904486,-79.19804881706227,-1.3898371537261214,-197.99512204265568 Z" fill="#d62728" fill-opacity="0.6" />
<path d="M-1.3245248841593287,-197.99556973283833 A198.0,198.0,0,0,0,-1.3898371537261214,-197.99512204265568 C-0.5559348614904486,-79.19804881706227,11.013518882094221,78.43049408128037,27.53379720523555,196.07623520320092 A198.0,198.0,0,0,0,27.53990171180454,196.07537788744446 C11.015960684721817,78.43015115497779,-0.5298099536637315,-79.19822789313534,-1.3245248841593287,-197.99556973283833 Z" fill="#9467bd" fill-opacity="0.6" />
<path d="M-10.443720009218264,-197.72437561506942 A198.0,198.0,0,0,0,-10.481346851194912,-197.72238459057928 C-4.192538740477965,-79.08895383623172,-43.19577259856649,66.38347105728151,-107.98943149641623,165.95867764320377 A198.0,198.0,0,0,0,-107.98561526545896,165.96116080499158 C-43.194246106183584,66.38446432199663,-4.177488003687306,-79.08975024602778,-10.443720009218264,-197.72437561506942 Z" fill="#d62728" fill-opacity="0.6" />
<path d="M-10.406092789030184,-197.72635947911976 A198.0,198.0,0,0,0,-10.443720009218264,-197.72437561506942 C-4.177488003687306,-79.08975024602778,11.012136481164893,78.43068819104036,27.53034120291223,196.0767204776009 A198.0,198.0,0,0,0,27.53379720523555,196.07623520320092 C11.013518882094221,78.43049408128037,-4.162437115612074,-79.09054379164792,-10.406092789030184,-197.72635947911976 Z" fill="#9467bd" fill-opacity="0.6" />
<path d="M-10.36846519199327,-197.72833618265852 A198.0,198.0,0,0,0,-10.406092789030184,-197.72635947911976 C-4.162437115612074,-79.09054379164792,47.52769802974615,63.354225746932336,118.81924507436536,158.38556436733083 A198.0,198.0,0,0,0,118.8219457819225,158.38353828791006 C47.528778312769,63.35341531516403,-4.147386076797308,-79.09133447306341,-10.36846519199327,-197.72833618265852 Z" fill="#8c564b" fill-opacity="0.6" />
<path d="M-10.330837219470176,-197.73030572561407 A198.0,198.0,0,0,0,-10.36846519199327,-197.72833618265852 C-4.147386076797308,-79.09133447306341,78.96437669281237,6.10468783113713,197.4109417320309,15.261719577842824 A198.0,198.0,0,0,0,197.41121813525828,15.258143869864037 C78.96448725410332,6.103257547945615,-4.132334887788071,-79.09212229024564,-10.330837219470176,-197.73030572561407 Z" fill="#e377c2" fill-opacity="0.6" />
<path d="M-67.6693616177179,-186.07755775012345 A198.0,198.0,0,0,0,-74.273145773518,-183.54154793099502 C-29.7092583094072,-73.41661917239801,-52.70441268360718,-59.11755140122117,-131.76103170901794,-147.79387850305292 A198.0,198.0,0,0,0,-131.82030020202356,-147.741018186042 C-52.728120080809425,-59.096407274416805,-27.06774464708716,-74.43102310004939,-67.6693616177179,-186.07755775012345 Z" fill="#2ca02c" fill-opacity="0.6" />
<path d="M-67.26215597840935,-186.22513893976864 A198.0,198.0,0,0,0,-67.6693616177179,-186.07755775012345 C-27.06774464708716,-74.43102310004939,-58.323262480192525,-53.58205906519987,-145.8081562004813,-133.95514766299968 A198.0,198.0,0,0,0,-145.88857935430116,-133.8675554941666 C-58.355431741720466,-53.54702219766664,-26.904862391363743,-74.49005557590746,-67.26215597840935,-186.22513893976864 Z" fill="#2ca02c" fill-opacity="0.6" />
<path d="M-66.99050662138623,-186.32303137993972 A198.0,198.0,0,0,0,-67.26215597840935,-186.22513893976864 C-26.904862391363743,-74.49005557590746,-77.60446374146794,-15.817307210748291,-194.01115935366983,-39.54326802687073 A198.0,198.0,0,0,0,-194.011922530653,-39.53952346652517 C-77.60476901226122,-15.815809386610068,-26.796202648554495,-74.52921255197589,-66.99050662138623,-186.32303137993972 Z" fill="#d62728" fill-opacity="0.6" />
<path d="M-136.14532885284555,-143.76525808257898 A198.0,198.0,0,0,0,-136.16002547875345,-143.7513389907211 C-54.46401019150139,-57.500535596288444,-58.03279388817211,-53.89651967922357,-145.08198472043026,-134.74129919805893 A198.0,198.0,0,0,0,-145.8081562004813,-133.95514766299968 C-58.323262480192525,-53.58205906519987,-54.45813154113822,-57.506103233031595,-136.14532885284555,-143.76525808257898 Z" fill="#2ca02c" fill-opacity="0.6" />
<path d="M-135.07586050919528,-144.77054917247645 A198.0,198.0,0,0,0,-136.14532885284555,-143.76525808257898 C-54.45813154113822,-57.506103233031595,-79.1286804602016,3.360346504054637,-197.82170115050397,8.400866260136592 A198.0,198.0,0,0,0,-197.8211790484252,8.4131516027526 C-79.12847161937009,3.3652606411010404,-54.03034420367811,-57.90821966899058,-135.07586050919528,-144.77054917247645 Z" fill="#d62728" fill-opacity="0.6" />
<path d="M-134.86107421570497,-144.9706544835406 A198.0,198.0,0,0,0,-135.07586050919528,-144.77054917247645 C-54.03034420367811,-57.90821966899058,-12.818631807355167,78.15575908778229,-32.046579518387915,195.3893977194557 A198.0,198.0,0,0,0,-32.0453898492731,195.38959283802222 C-12.818155939709241,78.1558371352089,-53.94442968628199,-57.98826179341625,-134.86107421570497,-144.9706544835406 Z" fill="#9467bd" fill-opacity="0.6" />
<path d="M-161.70582509888663,-114.25946844392497 A198.0,198.0,0,0,0,-161.70639840702998,-114.25865706469203 C-64.682559362812,-45.70346282587681,-79.1313270898608,3.2974343052534554,-197.82831772465198,8.243585763133638 A198.0,198.0,0,0,0,-197.82170115050397,8.400866260136592 C-79.1286804602016,3.360346504054637,-64.68233003955466,-45.703787377569995,-161.70582509888663,-114.25946844392497 Z" fill="#2ca02c" fill-opacity="0.6" />
<path d="M-161.5684668456841,-114.45361733529911 A198.0,198.0,0,0,0,-161.70582509888663,-114.25946844392497 C-64.68233003955466,-45.703787377569995,11.010528638242072,78.43091392497254,27.52632159560518,196.07728481243134 A198.0,198.0,0,0,0,27.53034120291223,196.0767204776009 C11.012136481164893,78.43068819104036,-64.62738673827364,-45.78144693411965,-161.5684668456841,-114.45361733529911 Z" fill="#9467bd" fill-opacity="0.6" />
<path d="M-194.77295702671455,-35.60189898122851 A198.0,198.0,0,0,0,-194.89075866383794,-34.951283058475425 C-77.95630346553519,-13.98051322339017,-74.89261899946362,25.763066964186947,-187.23154749865904,64.40766741046737 A198.0,198.0,0,0,0,-168.9339359752442,103.27306171462187 C-67.57357439009768,41.309224685848754,-77.90918281068582,-14.240759592491404,-194.77295702671455,-35.60189898122851 Z" fill="#d62728" fill-opacity="0.6" />
<path d="M-194.69321586138716,-36.03542281632483 A198.0,198.0,0,0,0,-194.77295702671455,-35.60189898122851 C-77.90918281068582,-14.240759592491404,-43.27414052826847,66.3324110939718,-108.18535132067116,165.83102773492948 A198.0,198.0,0,0,0,-107.98943149641623,165.95867764320377 C-43.19577259856649,66.38347105728151,-77.87728634455488,-14.414169126529934,-194.69321586138716,-36.03542281632483 Z" fill="#d62728" fill-opacity="0.6" />
<path d="M-194.6913972096944,-36.04524729471269 A198.0,198.0,0,0,0,-194.69321586138716,-36.03542281632483 C-77.87728634455488,-14.414169126529934,-16.577572452599764,77.44562022205521,-41.443931131499404,193.61405055513802 A198.0,198.0,0,0,0,-40.63999676088281,193.78439220761675 C-16.255998704353125,77.51375688304671,-77.87655888387776,-14.418098917885075,-194.6913972096944,-36.04524729471269 Z" fill="#d62728" fill-opacity="0.6" />
<path d="M-194.685313815918,-36.0780900879956 A198.0,198.0,0,0,0,-194.6913972096944,-36.04524729471269 C-77.87655888387776,-14.418098917885075,18.585722044417636,76.98838182536147,46.46430511104409,192.47095456340367 A198.0,198.0,0,0,0,46.728556155547814,192.40696983118312 C18.691422462219126,76.96278793247325,-77.87412552636721,-14.43123603519824,-194.685313815918,-36.0780900879956 Z" fill="#d62728" fill-opacity="0.6" />
<path d="M-197.47515775643026,14.407014578773055 A198.0,198.0,0,0,0,-196.05152832311475,27.709172527719677 C-78.4206113292459,11.08366901108787,-74.91860308917505,25.68740763811424,-187.29650772293763,64.2185190952856 A198.0,198.0,0,0,0,-187.23154749865904,64.40766741046737 C-74.89261899946362,25.763066964186947,-78.99006310257211,5.7628058315092225,-197.47515775643026,14.407014578773055 Z" fill="#d62728" fill-opacity="0.6" />
<path d="M-197.48654961916748,14.2500077023175 A198.0,198.0,0,0,0,-197.47515775643026,14.407014578773055 C-78.99006310257211,5.7628058315092225,-43.27488161295481,66.33192761698356,-108.18720403238702,165.8298190424589 A198.0,198.0,0,0,0,-108.18535132067116,165.83102773492948 C-43.27414052826847,66.3324110939718,-78.994619847667,5.700003080927001,-197.48654961916748,14.2500077023175 Z" fill="#d62728" fill-opacity="0.6" />
<path d="M-197.67926925573045,11.265278803492526 A198.0,198.0,0,0,0,-197.48654961916748,14.2500077023175 C-78.994619847667,5.700003080927001,-16.591113240461777,77.44272051937597,-41.477783101154444,193.6068012984399 A198.0,198.0,0,0,0,-41.443931131499404,193.61405055513802 C-16.577572452599764,77.44562022205521,-79.07170770229219,4.506111521397011,-197.67926925573045,11.265278803492526 Z" fill="#d62728" fill-opacity="0.6" />
<path d="M-197.68816322171978,11.108110641449656 A198.0,198.0,0,0,0,-197.67926925573045,11.265278803492526 C-79.07170770229219,4.506111521397011,11.009856980123855,78.43100821280585,27.524642450309635,196.0775205320146 A198.0,198.0,0,0,0,27.52632159560518,196.07728481243134 C11.010528638242072,78.43091392497254,-79.07526528868792,4.443244256579862,-197.68816322171978,11.108110641449656 Z" fill="#9467bd" fill-opacity="0.6" />
<path d="M-197.68829636443803,11.10574088145971 A198.0,198.0,0,0,0,-197.68816322171978,11.108110641449656 C-79.07526528868792,4.443244256579862,18.57515007187073,76.99093323117653,46.43787517967682,192.4773330779413 A198.0,198.0,0,0,0,46.46430511104409,192.47095456340367 C18.585722044417636,76.98838182536147,-79.07531854577522,4.442296352583884,-197.68829636443803,11.10574088145971 Z" fill="#d62728" fill-opacity="0.6" />
<path d="M-197.68940335341915,11.086018300956642 A198.0,198.0,0,0,0,-197.68829636443803,11.10574088145971 C-79.07531854577522,4.442296352583884,28.093191119442743,74.05006828306416,70.23297779860685,185.1251707076604 A198.0,198.0,0,0,0,71.16759985744383,184.76788879708175 C28.467039942977536,73.90715551883271,-79.07576134136767,4.434407320382657,-197.68940335341915,11.086018300956642 Z" fill="#d62728" fill-opacity="0.6" />
<path d="M-166.62386430269837,106.96021617796012 A198.0,198.0,0,0,0,-162.07378240536485,113.73692916910694 C-64.82951296214594,45.49477166764278,-44.82940910473936,65.29137829238952,-112.0735227618484,163.2284457309738 A198.0,198.0,0,0,0,-108.18720403238702,165.8298190424589 C-43.27488161295481,66.33192761698356,-66.64954572107935,42.784086471184054,-166.62386430269837,106.96021617796012 Z" fill="#d62728" fill-opacity="0.6" />
<path d="M-166.63246247190784,106.94682066591895 A198.0,198.0,0,0,0,-166.62386430269837,106.96021617796012 C-66.64954572107935,42.784086471184054,-17.072918384539857,77.33793026603985,-42.682295961349645,193.3448256650996 A198.0,198.0,0,0,0,-41.477783101154444,193.6068012984399 C-16.591113240461777,77.44272051937597,-66.65298498876314,42.77872826636758,-166.63246247190784,106.94682066591895 Z" fill="#d62728" fill-opacity="0.6" />
<path d="M-167.06985443994432,106.26224041217942 A198.0,198.0,0,0,0,-166.63246247190784,106.94682066591895 C-66.65298498876314,42.77872826636758,16.14534421658159,77.53688064481378,40.36336054145398,193.84220161203442 A198.0,198.0,0,0,0,46.43787517967682,192.4773330779413 C18.57515007187073,76.99093323117653,-66.82794177597773,42.504896164871774,-167.06985443994432,106.26224041217942 Z" fill="#d62728" fill-opacity="0.6" />
<path d="M-167.08935333479224,106.23157723653055 A198.0,198.0,0,0,0,-167.06985443994432,106.26224041217942 C-66.82794177597773,42.504896164871774,27.632085629405452,74.22336454088568,69.08021407351363,185.5584113522142 A198.0,198.0,0,0,0,70.23297779860685,185.1251707076604 C28.093191119442743,74.05006828306416,-66.8357413339169,42.492630894612226,-167.08935333479224,106.23157723653055 Z" fill="#d62728" fill-opacity="0.6" />
<path d="M-167.10187915114923,106.21187308467314 A198.0,198.0,0,0,0,-167.08935333479224,106.23157723653055 C-66.8357413339169,42.492630894612226,47.005243638584005,63.74281975624673,117.51310909646001,159.35704939061682 A198.0,198.0,0,0,0,118.81924507436536,158.38556436733083 C47.52769802974615,63.354225746932336,-66.8407516604597,42.48474923386926,-167.10187915114923,106.21187308467314 Z" fill="#d62728" fill-opacity="0.6" />
<path d="M-168.15506451375873,104.53647343570394 A198.0,198.0,0,0,0,-167.10187915114923,106.21187308467314 C-66.8407516604597,42.48474923386926,71.58879093190313,33.8775000982697,178.97197732975783,84.69375024567425 A198.0,198.0,0,0,0,179.09494045704483,84.43341934736252 C71.63797618281794,33.773367738945005,-67.2620258055035,41.81458937428158,-168.15506451375873,104.53647343570394 Z" fill="#e377c2" fill-opacity="0.6" />
<path d="M-105.06691541854389,167.82414392581464 A198.0,198.0,0,0,0,-105.0584588256029,167.8294379100076 C-42.02338353024116,67.13177516400305,-17.393755344373346,77.26640456899806,-43.484388360933366,193.16601142249513 A198.0,198.0,0,0,0,-42.682295961349645,193.3448256650996 C-17.072918384539857,77.33793026603985,-42.026766167417556,67.12965757032586,-105.06691541854389,167.82414392581464 Z" fill="#d62728" fill-opacity="0.6" />
<path d="M-105.4177961637218,167.60396251874238 A198.0,198.0,0,0,0,-105.06691541854389,167.82414392581464 C-42.026766167417556,67.12965757032586,21.961432567224293,76.09425391969658,54.90358141806073,190.23563479924147 A198.0,198.0,0,0,0,69.08021407351363,185.5584113522142 C27.632085629405452,74.22336454088568,-42.16711846548873,67.04158500749695,-105.4177961637218,167.60396251874238 Z" fill="#d62728" fill-opacity="0.6" />
<path d="M-105.61566084230516,167.47934853241807 A198.0,198.0,0,0,0,-105.4177961637218,167.60396251874238 C-42.16711846548873,67.04158500749695,46.056843421387896,64.43141449679464,115.14210855346973,161.0785362419866 A198.0,198.0,0,0,0,117.51310909646001,159.35704939061682 C47.005243638584005,63.74281975624673,-42.24626433692207,66.99173941296723,-105.61566084230516,167.47934853241807 Z" fill="#d62728" fill-opacity="0.6" />
<path d="M-38.425609237681485,194.2356109335078 A198.0,198.0,0,0,0,-38.41180641048563,194.23834103565488 C-15.364722564194253,77.69533641426196,21.724687159027724,76.16218200552277,54.3117178975693,190.40545501380691 A198.0,198.0,0,0,0,54.90358141806073,190.23563479924147 C21.961432567224293,76.09425391969658,-15.370243695072595,77.69424437340312,-38.425609237681485,194.2356109335078 Z" fill="#d62728" fill-opacity="0.6" />
<path d="M-30.604921538511928,195.62039458507778 A198.0,198.0,0,0,0,-30.60228137839631,195.62080762137103 C-12.240912551358525,78.24832304854841,71.44032740180366,34.18946651708831,178.60081850450914,85.47366629272078 A198.0,198.0,0,0,0,178.97197732975783,84.69375024567425 C71.58879093190313,33.8775000982697,-12.241968615404772,78.24815783403112,-30.604921538511928,195.62039458507778 Z" fill="#9467bd" fill-opacity="0.6" />
<path d="M-30.660355388015436,195.611713881047 A198.0,198.0,0,0,0,-30.604921538511928,195.62039458507778 C-12.241968615404772,78.24815783403112,79.19494857691683,0.8944942143472239,197.98737144229204,2.2362355358680595 A198.0,198.0,0,0,0,197.9883178449434,2.150813085710946 C79.19532713797736,0.8603252342843786,-12.264142155206175,78.2446855524188,-30.660355388015436,195.611713881047 Z" fill="#9467bd" fill-opacity="0.6" />
<path d="M-27.27533591075692,196.11235568152094 A198.0,198.0,0,0,0,-27.16257031178691,196.1280060931055 C-10.865028124714765,78.45120243724222,11.008636066803792,78.4311795904452,27.521590167009478,196.077948976113 A198.0,198.0,0,0,0,27.524642450309635,196.0775205320146 C11.009856980123855,78.43100821280585,-10.910134364302769,78.44494227260839,-27.27533591075692,196.11235568152094 Z" fill="#9467bd" fill-opacity="0.6" />
<path d="M-27.2777982427552,196.11201320425923 A198.0,198.0,0,0,0,-27.27533591075692,196.11235568152094 C-10.910134364302769,78.44494227260839,45.84471077938185,64.58252467622206,114.61177694845462,161.45631169055514 A198.0,198.0,0,0,0,115.14210855346973,161.0785362419866 C46.056843421387896,64.43141449679464,-10.911119297102081,78.4448052817037,-27.2777982427552,196.11201320425923 Z" fill="#9467bd" fill-opacity="0.6" />
<path d="M-27.292119138862336,196.11002073558134 A198.0,198.0,0,0,0,-27.2777982427552,196.11201320425923 C-10.911119297102081,78.4448052817037,70.41596771876144,36.25233082479453,176.03991929690358,90.63082706198631 A198.0,198.0,0,0,0,178.60081850450914,85.47366629272078 C71.44032740180366,34.18946651708831,-10.916847655544935,78.44400829423255,-27.292119138862336,196.11002073558134 Z" fill="#9467bd" fill-opacity="0.6" />
<path d="M38.418933705330936,194.23693143412606 A198.0,198.0,0,0,0,38.42295268099668,194.23613646094253 C15.369181072398673,77.69445458437701,79.19468801272025,0.9172734422752788,197.98672003180062,2.293183605688197 A198.0,198.0,0,0,0,197.98737144229204,2.2362355358680595 C79.19494857691683,0.8944942143472239,15.367573482132375,77.69477257365043,38.418933705330936,194.23693143412606 Z" fill="#9467bd" fill-opacity="0.6" />
<path d="M72.6735244282698,184.18077762669392 A198.0,198.0,0,0,0,76.45243048254079,182.64453420048537 C30.58097219301632,73.05781368019414,45.817334293431635,64.60194949259608,114.54333573357908,161.5048737314902 A198.0,198.0,0,0,0,114.61177694845462,161.45631169055514 C45.84471077938185,64.58252467622206,29.06940977130792,73.67231105067758,72.6735244282698,184.18077762669392 Z" fill="#8c564b" fill-opacity="0.6" />
<path d="M72.53031011458317,184.23722239189993 A198.0,198.0,0,0,0,72.6735244282698,184.18077762669392 C29.06940977130792,73.67231105067758,79.19468590440788,0.9174554496990089,197.98671476101967,2.293638624247522 A198.0,198.0,0,0,0,197.98672003180062,2.293183605688197 C79.19468801272025,0.9172734422752788,29.01212404583327,73.69488895675998,72.53031011458317,184.23722239189993 Z" fill="#e377c2" fill-opacity="0.6" />
<path d="M123.96753598878585,154.38928078357347 A198.0,198.0,0,0,0,124.22122440399642,154.1852373204775 C49.68848976159857,61.67409492819101,70.41506133576989,36.25409131504699,176.0376533394247,90.63522828761748 A198.0,198.0,0,0,0,176.03991929690358,90.63082706198631 C70.41596771876144,36.25233082479453,49.587014395514345,61.75571231342939,123.96753598878585,154.38928078357347 Z" fill="#e377c2" fill-opacity="0.6" />
<path d="M181.60893544525004,78.88088847397067 A198.0,198.0,0,0,0,181.6269616665075,78.83937338533974 C72.650784666603,31.5357493541359,78.85682685223895,7.364839359823659,197.14206713059735,18.412098399559145 A198.0,198.0,0,0,0,197.4109417320309,15.261719577842824 C78.96437669281237,6.10468783113713,72.64357417810002,31.55235538958827,181.60893544525004,78.88088847397067 Z" fill="#e377c2" fill-opacity="0.6" />
<path d="M181.24327535704472,79.71747071909941 A198.0,198.0,0,0,0,181.60893544525004,78.88088847397067 C72.64357417810002,31.55235538958827,79.07953800930704,4.366539617885538,197.6988450232676,10.916349044713844 A198.0,198.0,0,0,0,197.98671476101967,2.293638624247522 C79.19468590440788,0.9174554496990089,72.4973101428179,31.886988287639767,181.24327535704472,79.71747071909941 Z" fill="#e377c2" fill-opacity="0.6" />
<text x="220.00000000000006" y="0" font-size="10" text-anchor="start" dominant-baseline="middle" transform="rotate(-9.928517)" font-family="Arial">Canada</text>
<text x="220.00000000000003" y="0" font-size="10" text-anchor="start" dominant-baseline="middle" transform="rotate(-26.644583)" font-family="Arial">Mexico</text>
<text x="220.00000000000006" y="0" font-size="10" text-anchor="start" dominant-baseline="middle" transform="rotate(-59.363374)" font-family="Arial">United Sta.</text>
<text x="220.00000000000003" y="0" font-size="10" text-anchor="start" dominant-baseline="middle" transform="rotate(-86.884499)" font-family="Arial">Costa Rica</text>
<text x="220.00000000000006" y="0" font-size="10" text-anchor="start" dominant-baseline="middle" transform="rotate(-89.443008)" font-family="Arial">Dominican .</text>
<text x="-220.00000000000003" y="0" font-size="10" text-anchor="end" dominant-baseline="middle" transform="rotate(87.990487)" font-family="Arial">Guatemala</text>
<text x="-220.00000000000003" y="0" font-size="10" text-anchor="end" dominant-baseline="middle" transform="rotate(77.180536)" font-family="Arial">Argentina</text>
<text x="-220.00000000000003" y="0" font-size="10" text-anchor="end" dominant-baseline="middle" transform="rotate(56.974504)" font-family="Arial">Brazil</text>
<text x="-220.00000000000003" y="0" font-size="10" text-anchor="end" dominant-baseline="middle" transform="rotate(40.612423)" font-family="Arial">Colombia</text>
<text x="-220.00000000000003" y="0" font-size="10" text-anchor="end" dominant-baseline="middle" transform="rotate(22.419280)" font-family="Arial">Germany</text>
<text x="-220.00000000000003" y="0" font-size="10" text-anchor="end" dominant-baseline="middle" transform="rotate(0.774790)" font-family="Arial">Spain</text>
<text x="-220.00000000000003" y="0" font-size="10" text-anchor="end" dominant-baseline="middle" transform="rotate(-21.838645)" font-family="Arial">France</text>
<text x="-220.00000000000003" y="0" font-size="10" text-anchor="end" dominant-baseline="middle" transform="rotate(-46.793360)" font-family="Arial">United Kin.</text>
<text x="-220.00000000000003" y="0" font-size="10" text-anchor="end" dominant-baseline="middle" transform="rotate(-68.670408)" font-family="Arial">Italy</text>
<text x="-220.0" y="0" font-size="10" text-anchor="end" dominant-baseline="middle" transform="rotate(-80.247800)" font-family="Arial">Indonesia</text>
<text x="-220.00000000000006" y="0" font-size="10" text-anchor="end" dominant-baseline="middle" transform="rotate(-81.898443)" font-family="Arial">India</text>
<text x="220.00000000000003" y="0" font-size="10" text-anchor="start" dominant-baseline="middle" transform="rotate(-271.938766)" font-family="Arial">Japan</text>
<text x="220.0" y="0" font-size="10" text-anchor="start" dominant-baseline="middle" transform="rotate(-282.742026)" font-family="Arial">Egypt</text>
<text x="220.00000000000006" y="0" font-size="10" text-anchor="start" dominant-baseline="middle" transform="rotate(-288.504004)" font-family="Arial">Nigeria</text>
<text x="220.00000000000003" y="0" font-size="10" text-anchor="start" dominant-baseline="middle" transform="rotate(-301.071769)" font-family="Arial">South Afri.</text>
<text x="220.00000000000003" y="0" font-size="10" text-anchor="start" dominant-baseline="middle" transform="rotate(-322.982836)" font-family="Arial">Australia</text>
<text x="220.00000000000003" y="0" font-size="10" text-anchor="start" dominant-baseline="middle" transform="rotate(-346.687569)" font-family="Arial">New Zealan.</text>
<text x="220.00000000000003" y="0" font-size="10" text-anchor="start" dominant-baseline="middle" transform="rotate(-358.133274)" font-family="Arial">Papua New .</text>
<text x="-295.0" y="-285.0" font-size="8" text-anchor="start" dominant-baseline="middle" font-family="Arial" font-weight="bold">Continents</text>
<circle cx="-290.5" cy="-274.5" r="4.5" fill="#8c564b" stroke="#333" stroke-width="0.5" />
<text x="-278.0" y="-271.0" font-size="6" text-anchor="start" dominant-baseline="middle" font-family="Arial">Africa</text>
<circle cx="-290.5" cy="-262.5" r="4.5" fill="#9467bd" stroke="#333" stroke-width="0.5" />
<text x="-278.0" y="-259.0" font-size="6" text-anchor="start" dominant-baseline="middle" font-family="Arial">Asia</text>
<circle cx="-290.5" cy="-250.5" r="4.5" fill="#ff7f0e" stroke="#333" stroke-width="0.5" />
<text x="-278.0" y="-247.0" font-size="6" text-anchor="start" dominant-baseline="middle" font-family="Arial">Central America</text>
<circle cx="-290.5" cy="-238.5" r="4.5" fill="#d62728" stroke="#333" stroke-width="0.5" />
<text x="-278.0" y="-235.0" font-size="6" text-anchor="start" dominant-baseline="middle" font-family="Arial">Europe</text>
<circle cx="-290.5" cy="-226.5" r="4.5" fill="#1f77b4" stroke="#333" stroke-width="0.5" />
<text x="-278.0" y="-223.0" font-size="6" text-anchor="start" dominant-baseline="middle" font-family="Arial">North America</text>
<circle cx="-290.5" cy="-214.5" r="4.5" fill="#e377c2" stroke="#333" stroke-width="0.5" />
<text x="-278.0" y="-211.0" font-size="6" text-anchor="start" dominant-baseline="middle" font-family="Arial">Oceania</text>
<circle cx="-290.5" cy="-202.5" r="4.5" fill="#2ca02c" stroke="#333" stroke-width="0.5" />
<text x="-278.0" y="-199.0" font-size="6" text-anchor="start" dominant-baseline="middle" font-family="Arial">South America</text>
</svg>