<?xml version="1.0" encoding="UTF-8"?>
<svg xmlns="http://www.w3.org/2000/svg" xmlns:xlink="http://www.w3.org/1999/xlink"
     width="600.0" height="600.0" viewBox="-300.0 -300.0 600.0 600.0">
<defs>
</defs>
<rect x="-300.0" y="-300.0" width="600.0" height="600.0" fill="#ffffff" fill-opacity="1.0" />
<path d="M200.0,-0.0 A200,200,0,0,0,189.66731588382692,-63.45320547793164 L202.94402799569482,-67.89492986138686 A214.0,214.0,0,0,1,214.0,-0.0 Z" fill="#1f77b4" fill-opacity="0.9" />
<path d="M189.02331111776255,-65.3466743918735 A200,200,0,0,0,160.16292325810838,-119.78246120954972 L171.37432788617596,-128.1672334942182 A214.0,214.0,0,0,1,202.25494289600593,-69.92094159930465 Z" fill="#1f77b4" fill-opacity="0.9" />
<path d="M158.95711053022802,-121.37807467529245 A200,200,0,0,0,16.288180951361007,-199.33563444927682 L17.42835361795628,-213.2891288607262 A214.0,214.0,0,0,1,170.084108267344,-129.87453990256293 Z" fill="#1f77b4" fill-opacity="0.9" />
<path d="M14.294043427047015,-199.48854684544096 A200,200,0,0,0,7.373012464370531,-199.86405051234263 L7.889123336876469,-213.85453404820663 A214.0,214.0,0,0,1,15.294626466940306,-213.45274512462186 Z" fill="#ff7f0e" fill-opacity="0.9" />
<path d="M5.374036622204494,-199.92778628890784 A200,200,0,0,0,-1.283019091144506,-199.99588461268837 L-1.3728304275246215,-213.99559653557657 A214.0,214.0,0,0,1,5.75021918575881,-213.9227313291314 Z" fill="#ff7f0e" fill-opacity="0.9" />
<path d="M-3.2828804543706513,-199.97305492471307 A200,200,0,0,0,-10.271457392412824,-199.7360687583388 L-10.990459409881723,-213.71759357142253 A214.0,214.0,0,0,1,-3.5126820861765973,-213.97116876944298 Z" fill="#ff7f0e" fill-opacity="0.9" />
<path d="M-12.268271222228005,-199.62336917610085 A200,200,0,0,0,-66.95319052323453,-188.46026180274572 L-71.63991385986094,-201.65248012893792 A214.0,214.0,0,0,1,-13.127050207783967,-213.59700501842792 Z" fill="#2ca02c" fill-opacity="0.9" />
<path d="M-68.83441409974631,-187.78131812175738 A200,200,0,0,0,-130.8979478981835,-151.214176703259 L-140.06080425105637,-161.79916907248713 A214.0,214.0,0,0,1,-73.65282308672856,-200.9260103902804 Z" fill="#2ca02c" fill-opacity="0.9" />
<path d="M-132.403519620125,-149.89765839466332 A200,200,0,0,0,-161.19984970704806,-118.38331155371992 L-172.48383918654145,-126.67014336248032 A214.0,214.0,0,0,1,-141.67176599353377,-160.39049448228977 Z" fill="#2ca02c" fill-opacity="0.9" />
<path d="M-162.375603166813,-116.76542080690528 A200,200,0,0,0,-195.9692187963428,-39.950785778894485 L-209.6870641120868,-42.7473407834171 A214.0,214.0,0,0,1,-173.74189538848992,-124.93900026338866 Z" fill="#d62728" fill-opacity="0.9" />
<path d="M-196.3589216164145,-37.98912872966142 A200,200,0,0,0,-198.86868359083923,21.24256780256752 L-212.78949144219797,22.72954754874725 A214.0,214.0,0,0,1,-210.10404612956353,-40.64836774073772 Z" fill="#d62728" fill-opacity="0.9" />
<path d="M-198.64631810190593,23.230159374321907 A200,200,0,0,0,-173.70570172246573,99.1278426533422 L-185.86510084303833,106.06679163907616 A214.0,214.0,0,0,1,-212.55156036903935,24.85627053052444 Z" fill="#d62728" fill-opacity="0.9" />
<path d="M-172.70575460444783,100.85991436893175 A200,200,0,0,0,-124.66154196359223,156.3953322681324 L-133.3878499010437,167.34300552690166 A214.0,214.0,0,0,1,-184.7951574267592,107.92010837475698 Z" fill="#d62728" fill-opacity="0.9" />
<path d="M-123.09138168151328,157.63410720949963 A200,200,0,0,0,-63.45836467497566,189.66558979629858 L-67.90045020222396,202.9421810820395 A214.0,214.0,0,0,1,-131.70777839921922,168.6684947141646 Z" fill="#d62728" fill-opacity="0.9" />
<path d="M-61.558567495993444,190.29067966624436 A200,200,0,0,0,-51.316860972929405,193.3043708245756 L-54.909041241034465,206.8356767822959 A214.0,214.0,0,0,1,-65.86766722071299,203.61102724288148 Z" fill="#9467bd" fill-opacity="0.9" />
<path d="M-49.38128366025104,193.80786574353948 A200,200,0,0,0,-30.407048877956445,197.67501455301215 L-32.5355422994134,211.51226557172302 A214.0,214.0,0,0,1,-52.83797351646862,207.37441634558726 Z" fill="#9467bd" fill-opacity="0.9" />
<path d="M-28.428811338323058,197.96919630561226 A200,200,0,0,0,34.047730892127284,197.08057240909687 L36.4310720545762,210.87621247773367 A214.0,214.0,0,0,1,-30.418828132005675,211.82704004700514 Z" fill="#9467bd" fill-opacity="0.9" />
<path d="M36.01680139726228,196.73024682826522 A200,200,0,0,0,43.32365165173935,195.25127709584575 L46.3563072673611,208.91886649255497 A214.0,214.0,0,0,1,38.53797749507064,210.5013641062438 Z" fill="#8c564b" fill-opacity="0.9" />
<path d="M45.27396571644983,194.8082853174005 A200,200,0,0,0,76.09468320417885,184.95837150033427 L81.42131102847138,197.90545750535767 A214.0,214.0,0,0,1,48.44314331660132,208.44486528961855 Z" fill="#8c564b" fill-opacity="0.9" />
<path d="M77.94043139048684,184.188189509167 A200,200,0,0,0,120.3917819418788,159.7054126849153 L128.8192066778103,170.88479157285937 A214.0,214.0,0,0,1,83.39626158782092,197.0813627748087 Z" fill="#8c564b" fill-opacity="0.9" />
<path d="M121.98278991235823,158.49352972660267 A200,200,0,0,0,181.66181969296846,83.6599262839707 L194.37814707147626,89.51612112384866 A214.0,214.0,0,0,1,130.5215852062233,169.58807680746486 Z" fill="#e377c2" fill-opacity="0.9" />
<path d="M182.48932199726434,81.83915540240362 A200,200,0,0,0,198.70201870978164,22.748796905717686 L212.61116001946635,24.341212689117924 A214.0,214.0,0,0,1,195.26357453707286,87.56789628057187 Z" fill="#e377c2" fill-opacity="0.9" />
<path d="M198.91956786924837,20.760672405090794 A200,200,0,0,0,199.99000008333306,1.9999666668336944 L213.9893000891664,2.139964333512053 A214.0,214.0,0,0,1,212.84393762009577,22.213919473447152 Z" fill="#e377c2" fill-opacity="0.9" />
<path d="M193.0,-0.0 A193.0,193.0,0,0,0,186.60118683907106,-49.28485639879754 L191.43541447738895,-50.56166615006172 A198.0,198.0,0,0,1,198.0,-0.0 Z" fill="#1f77b4" fill-opacity="0.6" />
<path d="M182.40749522864087,-63.05954078815793 A193.0,193.0,0,0,0,167.2713858066386,-96.27711820742593 L171.60484139748417,-98.77134406772194 A198.0,198.0,0,0,1,187.13307800658492,-64.69320764795476 Z" fill="#1f77b4" fill-opacity="0.6" />
<path d="M153.39361166167004,-117.12984206165721 A193.0,193.0,0,0,0,29.842913495157422,-190.67878884165526 L30.61604596912523,-195.61865383755307 A198.0,198.0,0,0,1,157.36753942492575,-120.16429392853952 Z" fill="#1f77b4" fill-opacity="0.6" />
<path d="M-11.838881729450025,-192.63655125493733 A193.0,193.0,0,0,0,-48.3712503465301,-186.8400977839428 L-49.62439154721741,-191.6805148249776 A198.0,198.0,0,0,1,-12.145588510005725,-197.62713548433985 Z" fill="#2ca02c" fill-opacity="0.6" />
<path d="M-66.4252096062552,-181.20897198749586 A193.0,193.0,0,0,0,-118.42353096233566,-152.3970712133692 L-121.49149808571224,-156.3451818665653 A198.0,198.0,0,0,1,-68.14606995874885,-185.90350494053982 Z" fill="#2ca02c" fill-opacity="0.6" />
<path d="M-127.76939643342062,-144.6512403508501 A193.0,193.0,0,0,0,-139.19675177613217,-133.69092824486577 L-142.80288524183507,-137.1544237952509 A198.0,198.0,0,0,1,-131.07948442392376,-148.39868181071668 Z" fill="#2ca02c" fill-opacity="0.6" />
<path d="M-156.69245705597453,-112.6786310786636 A193.0,193.0,0,0,0,-186.72375101611328,-48.81844739924169 L-191.5611538921784,-50.083174015802356 A198.0,198.0,0,0,1,-160.75184713514486,-115.59776659883623 Z" fill="#d62728" fill-opacity="0.6" />
<path d="M-189.48635935984,-36.65950922412326 A193.0,193.0,0,0,0,-192.989201070795,2.0416341631798836 L-197.9889213057897,2.094526239946202 A198.0,198.0,0,0,1,-194.39533240025037,-37.6092374423648 Z" fill="#d62728" fill-opacity="0.6" />
<path d="M-191.69369696833922,22.41710379622064 A193.0,193.0,0,0,0,-188.52930731049028,41.30012451587422 L-193.4134862563579,42.37007592820256 A198.0,198.0,0,0,1,-196.6598549208869,22.997857780578688 Z" fill="#d62728" fill-opacity="0.6" />
<path d="M-166.66105319329216,97.32981736601914 A193.0,193.0,0,0,0,-127.95572816688552,144.48644098766536 L-131.2706434043696,148.22961303397793 A198.0,198.0,0,0,1,-170.97869705840336,99.85131522524244 Z" fill="#d62728" fill-opacity="0.6" />
<path d="M-118.78318332266032,152.11691345716713 A193.0,193.0,0,0,0,-65.5661525855521,181.52156796129793 L-67.2647575748151,186.22419925563207 A198.0,198.0,0,0,1,-121.86046786469815,156.05776613740463 Z" fill="#d62728" fill-opacity="0.6" />
<path d="M-59.40401763363367,183.6305058779258 A193.0,193.0,0,0,0,-54.268040850281885,185.21333575709968 L-55.67394864433064,190.0116087041748 A198.0,198.0,0,0,1,-60.94298182103351,188.3877728695819 Z" fill="#9467bd" fill-opacity="0.6" />
<path d="M-47.65293873214225,187.0245904425156 A193.0,193.0,0,0,0,-30.606667122032945,190.5576866140043 L-31.399585959391313,195.49441424649146 A198.0,198.0,0,0,1,-48.88747082364853,191.86978708610408 Z" fill="#9467bd" fill-opacity="0.6" />
<path d="M-27.43380294148175,191.04027443491583 A193.0,193.0,0,0,0,22.868180218916052,191.64040892639312 L23.46062012096051,196.60518635971937 A198.0,198.0,0,0,1,-28.144523224939825,195.98950434255613 Z" fill="#9467bd" fill-opacity="0.6" />
<path d="M34.756213348358095,189.84468818927596 A193.0,193.0,0,0,0,34.84251335326997,189.8288683610246 L35.74516913962412,194.7467146916211 A198.0,198.0,0,0,1,35.65663338328965,194.76294435998258 Z" fill="#8c564b" fill-opacity="0.6" />
<path d="M43.68937691637409,187.98999533129148 A193.0,193.0,0,0,0,51.913914378149705,185.88691587612652 L53.258834439759795,190.70263908535262 A198.0,198.0,0,0,1,44.82122605928534,192.86020246422652 Z" fill="#8c564b" fill-opacity="0.6" />
<path d="M75.2125162918198,177.74160287634615 A193.0,193.0,0,0,0,105.19107567088399,161.81420703758482 L107.91623307168409,166.00628494011292 A198.0,198.0,0,0,1,77.16102707658196,182.34630761407533 Z" fill="#8c564b" fill-opacity="0.6" />
<path d="M117.71339226542568,152.94625618617158 A193.0,193.0,0,0,0,165.3773008482402,99.49546906342346 L169.661686880578,102.07307188890074 A198.0,198.0,0,0,1,120.76296201323464,156.90859442933663 Z" fill="#e377c2" fill-opacity="0.6" />
<path d="M176.1021957273601,78.9747849633195 A193.0,193.0,0,0,0,189.68707538275575,35.606367867794894 L194.60124832013284,36.52881263120927 A198.0,198.0,0,0,1,180.6644287772917,81.02076384837959 Z" fill="#e377c2" fill-opacity="0.6" />
<path d="M187.77172913782033,-62.81542594453235 A198.0,198.0,0,0,0,187.77064272498865,-62.818673423152326 C75.10825708999546,-25.127469369260933,68.64193655899366,-39.50853762708878,171.60484139748417,-98.77134406772194 A198.0,198.0,0,0,0,171.4397625799769,-99.05759842900068 C68.57590503199076,-39.62303937160027,75.10869165512814,-25.12617037781294,187.77172913782033,-62.81542594453235 Z" fill="#1f77b4" fill-opacity="0.6" />
<path d="M191.28016256470823,-51.14586404802236 A198.0,198.0,0,0,0,187.77172913782033,-62.81542594453235 C75.10869165512814,-25.12617037781294,12.009941807826078,-78.2841062909492,30.024854519565192,-195.71026572737298 A198.0,198.0,0,0,0,28.062669956115474,-196.00124120763658 C11.225067982446191,-78.40049648305464,76.5120650258833,-20.458345619208945,191.28016256470823,-51.14586404802236 Z" fill="#1f77b4" fill-opacity="0.6" />
<path d="M191.2814482036474,-51.14105565116312 A198.0,198.0,0,0,0,191.28016256470823,-51.14586404802236 C76.5120650258833,-20.458345619208945,-0.4230301394269468,-79.19887022869163,-1.057575348567367,-197.99717557172906 A198.0,198.0,0,0,0,-1.1107288603876084,-197.99688452447603 C-0.4442915441550434,-79.19875380979042,76.51257928145895,-20.45642226046525,191.2814482036474,-51.14105565116312 Z" fill="#1f77b4" fill-opacity="0.6" />
<path d="M191.35801021766542,-50.85382901548172 A198.0,198.0,0,0,0,191.2814482036474,-51.14105565116312 C76.51257928145895,-20.45642226046525,-77.48957938928532,-16.370860883644685,-193.7239484732133,-40.92715220911171 A198.0,198.0,0,0,0,-193.72475878619395,-40.923316498433664 C-77.48990351447759,-16.369326599373466,76.54320408706617,-20.34153160619269,191.35801021766542,-50.85382901548172 Z" fill="#d62728" fill-opacity="0.6" />
<path d="M191.43414093481056,-50.56648776166959 A198.0,198.0,0,0,0,191.35801021766542,-50.85382901548172 C76.54320408706617,-20.34153160619269,-20.510464532226944,76.49811007255185,-51.276161330567355,191.24527518137964 A198.0,198.0,0,0,0,-50.812910876911886,191.36887962313781 C-20.325164350764755,76.54755184925513,76.57365637392422,-20.226595104667837,191.43414093481056,-50.56648776166959 Z" fill="#1f77b4" fill-opacity="0.6" />
<path d="M191.43541447738895,-50.56166615006172 A198.0,198.0,0,0,0,191.43414093481056,-50.56648776166959 C76.57365637392422,-20.226595104667837,71.6035751042854,33.8462410362652,179.00893776071348,84.61560259066299 A198.0,198.0,0,0,0,179.32666509411382,83.94014049442337 C71.73066603764553,33.576056197769354,76.57416579095558,-20.22466646002469,191.43541447738895,-50.56166615006172 Z" fill="#1f77b4" fill-opacity="0.6" />
<path d="M170.8031997569487,-100.15122042585345 A198.0,198.0,0,0,0,158.5612940255273,-118.58463659745422 C63.42451761021093,-47.43385463898169,12.246418387650094,-78.24746153502123,30.61604596912523,-195.61865383755307 A198.0,198.0,0,0,0,30.024854519565192,-195.71026572737298 C12.009941807826078,-78.2841062909492,68.32127990277948,-40.06048817034139,170.8031997569487,-100.15122042585345 Z" fill="#1f77b4" fill-opacity="0.6" />
<path d="M170.85822942766023,-100.05731076160811 A198.0,198.0,0,0,0,170.8031997569487,-100.15122042585345 C68.32127990277948,-40.06048817034139,-3.502999617331272,-79.12249360125713,-8.75749904332818,-197.80623400314283 A198.0,198.0,0,0,0,-9.98060532903026,-197.7482933359126 C-3.992242131612104,-79.09931733436504,68.3432917710641,-40.02292430464325,170.85822942766023,-100.05731076160811 Z" fill="#1f77b4" fill-opacity="0.6" />
<path d="M171.02497747838572,-99.77202553079525 A198.0,198.0,0,0,0,170.85822942766023,-100.05731076160811 C68.3432917710641,-40.02292430464325,-49.77017814020299,-61.60819237644017,-124.42544535050746,-154.02048094110043 A198.0,198.0,0,0,0,-124.42847658835898,-154.01803210630956 C-49.77139063534359,-61.60721284252383,68.40999099135429,-39.9088102123181,171.02497747838572,-99.77202553079525 Z" fill="#2ca02c" fill-opacity="0.6" />
<path d="M171.19124918338784,-99.48646241087886 A198.0,198.0,0,0,0,171.02497747838572,-99.77202553079525 C68.40999099135429,-39.9088102123181,-20.511180793547766,76.4979180269267,-51.277951983869414,191.24479506731674 A198.0,198.0,0,0,0,-51.276161330567355,191.24527518137964 C-20.510464532226944,76.49811007255185,68.47649967335514,-39.79458496435154,171.19124918338784,-99.48646241087886 Z" fill="#9467bd" fill-opacity="0.6" />
<path d="M171.4397625799769,-99.05759842900068 A198.0,198.0,0,0,0,171.19124918338784,-99.48646241087886 C68.47649967335514,-39.79458496435154,79.19603385856556,0.7926039824139759,197.99008464641386,1.9815099560349396 A198.0,198.0,0,0,0,197.9901000824997,1.9799670001653575 C79.19604003299989,0.7919868000661431,68.57590503199076,-39.62303937160027,171.4397625799769,-99.05759842900068 Z" fill="#e377c2" fill-opacity="0.6" />
<path d="M17.67798252024343,-197.20925164406958 A198.0,198.0,0,0,0,16.12529914184744,-197.34227810478404 C6.450119656738976,-78.93691124191362,5.660441197110618,-78.99746455079463,14.151102992776545,-197.49366137698655 A198.0,198.0,0,0,0,7.6923771725877765,-197.85051764762872 C3.0769508690351106,-79.14020705905149,7.071193008097372,-78.88370065762784,17.67798252024343,-197.20925164406958 Z" fill="#1f77b4" fill-opacity="0.6" />
<path d="M19.22859595821904,-197.0641040308345 A198.0,198.0,0,0,0,17.67798252024343,-197.20925164406958 C7.071193008097372,-78.88370065762784,2.12811850239298,-79.17140337040752,5.320296255982449,-197.92850842601877 A198.0,198.0,0,0,0,-1.057575348567367,-197.99717557172906 C-0.4230301394269468,-79.19887022869163,7.691438383287616,-78.82564161233381,19.22859595821904,-197.0641040308345 Z" fill="#1f77b4" fill-opacity="0.6" />
<path d="M20.54542414721806,-196.9311695659448 A198.0,198.0,0,0,0,19.22859595821904,-197.0641040308345 C7.691438383287616,-78.82564161233381,-1.300020659930778,-79.18932975018639,-3.2500516498269447,-197.97332437546595 A198.0,198.0,0,0,0,-8.75749904332818,-197.80623400314283 C-3.502999617331272,-79.12249360125713,8.218169658887225,-78.77246782637792,20.54542414721806,-196.9311695659448 Z" fill="#1f77b4" fill-opacity="0.6" />
<path d="M20.67135664746732,-196.91799058073187 A198.0,198.0,0,0,0,20.54542414721806,-196.9311695659448 C8.218169658887225,-78.77246782637792,-19.849756618886964,-76.67220592999104,-49.62439154721741,-191.6805148249776 A198.0,198.0,0,0,0,-53.830333002727606,-190.54210885999834 C-21.532133201091042,-76.21684354399933,8.268542658986929,-78.76719623229275,20.67135664746732,-196.91799058073187 Z" fill="#1f77b4" fill-opacity="0.6" />
<path d="M20.75343486414759,-196.90935717060168 A198.0,198.0,0,0,0,20.67135664746732,-196.91799058073187 C8.268542658986929,-78.76719623229275,-48.64129236788686,-62.50331732621678,-121.60323091971715,-156.25829331554195 A198.0,198.0,0,0,0,-124.42544535050746,-154.02048094110043 C-49.77017814020299,-61.60819237644017,8.301373945659035,-78.76374286824068,20.75343486414759,-196.90935717060168 Z" fill="#1f77b4" fill-opacity="0.6" />
<path d="M21.612406299253,-196.81692989668346 A198.0,198.0,0,0,0,20.75343486414759,-196.90935717060168 C8.301373945659035,-78.76374286824068,-57.86615104728105,-54.07539702094895,-144.66537761820263,-135.18849255237237 A198.0,198.0,0,0,0,-159.3278265190682,-117.55272730443012 C-63.73113060762728,-47.02109092177205,8.6449625197012,-78.7267719586734,21.612406299253,-196.81692989668346 Z" fill="#1f77b4" fill-opacity="0.6" />
<path d="M21.797307534167903,-196.79653803931842 A198.0,198.0,0,0,0,21.612406299253,-196.81692989668346 C8.6449625197012,-78.7267719586734,-76.62446155687137,-20.033269606320943,-191.5611538921784,-50.083174015802356 A198.0,198.0,0,0,0,-193.7239484732133,-40.92715220911171 C-77.48957938928532,-16.370860883644685,8.718923013667162,-78.71861521572737,21.797307534167903,-196.79653803931842 Z" fill="#1f77b4" fill-opacity="0.6" />
<path d="M21.850984941359396,-196.79058528571048 A198.0,198.0,0,0,0,21.797307534167903,-196.79653803931842 C8.718923013667162,-78.71861521572737,-79.17999165864109,1.780146324752449,-197.9499791466027,4.450365811881122 A198.0,198.0,0,0,0,-197.89503628955342,6.446286679658177 C-79.15801451582138,2.578514671863271,8.740393976543759,-78.71623411428419,21.850984941359396,-196.79058528571048 Z" fill="#1f77b4" fill-opacity="0.6" />
<path d="M21.888064763731588,-196.78646452665055 A198.0,198.0,0,0,0,21.850984941359396,-196.79058528571048 C8.740393976543759,-78.71623411428419,-72.69529631971446,31.43300642619015,-181.73824079928613,78.58251606547537 A198.0,198.0,0,0,0,-181.02186441709625,80.21897906953456 C-72.4087457668385,32.08759162781382,8.755225905492635,-78.71458581066022,21.888064763731588,-196.78646452665055 Z" fill="#1f77b4" fill-opacity="0.6" />
<path d="M22.28231904620224,-196.74221269957104 A198.0,198.0,0,0,0,21.888064763731588,-196.78646452665055 C8.755225905492635,-78.71458581066022,-50.71358351003079,60.833974451544215,-126.78395877507695,152.08493612886053 A198.0,198.0,0,0,0,-123.65083580462081,154.64304318273972 C-49.46033432184833,61.85721727309589,8.912927618480897,-78.69688507982842,22.28231904620224,-196.74221269957104 Z" fill="#1f77b4" fill-opacity="0.6" />
<path d="M22.3730566055329,-196.73191489467493 A198.0,198.0,0,0,0,22.28231904620224,-196.74221269957104 C8.912927618480897,-78.69688507982842,-26.574628391076686,74.60850572070306,-66.43657097769172,186.52126430175764 A198.0,198.0,0,0,0,-62.848511699797626,187.76065769250064 C-25.139404679919053,75.10426307700025,8.94922264221316,-78.69276595786998,22.3730566055329,-196.73191489467493 Z" fill="#1f77b4" fill-opacity="0.6" />
<path d="M25.523560771355157,-196.34802735334762 A198.0,198.0,0,0,0,22.3730566055329,-196.73191489467493 C8.94922264221316,-78.69276595786998,-21.528150310515038,76.21796864393508,-53.82037577628759,190.5449216098377 A198.0,198.0,0,0,0,-51.277951983869414,191.24479506731674 C-20.511180793547766,76.4979180269267,10.209424308542063,-78.53921094133905,25.523560771355157,-196.34802735334762 Z" fill="#1f77b4" fill-opacity="0.6" />
<path d="M25.56843124963552,-196.34218936192156 A198.0,198.0,0,0,0,25.523560771355157,-196.34802735334762 C10.209424308542063,-78.53921094133905,-12.559834383756526,78.19776569859658,-31.399585959391313,195.49441424649146 A198.0,198.0,0,0,0,-30.13897509453814,195.69272388172945 C-12.055590037815257,78.27708955269179,10.227372499854209,-78.53687574476862,25.56843124963552,-196.34218936192156 Z" fill="#1f77b4" fill-opacity="0.6" />
<path d="M25.832217993169603,-196.3076578067024 A198.0,198.0,0,0,0,25.56843124963552,-196.34218936192156 C10.227372499854209,-78.53687574476862,9.397526236843701,78.64048893939963,23.49381559210925,196.60122234849905 A198.0,198.0,0,0,0,33.700065947021116,195.11100828801645 C13.480026378808446,78.04440331520658,10.332887197267842,-78.52306312268097,25.832217993169603,-196.3076578067024 Z" fill="#1f77b4" fill-opacity="0.6" />
<path d="M25.945021849605713,-196.29278091978696 A198.0,198.0,0,0,0,25.832217993169603,-196.3076578067024 C10.332887197267842,-78.52306312268097,16.91003289112872,77.37370863297781,42.2750822278218,193.43427158244452 A198.0,198.0,0,0,0,42.89041513522196,193.2987643248873 C17.156166054088782,77.31950572995493,10.378008739842286,-78.51711236791479,25.945021849605713,-196.29278091978696 Z" fill="#1f77b4" fill-opacity="0.6" />
<path d="M26.000967937648046,-196.28537812660778 A198.0,198.0,0,0,0,25.945021849605713,-196.29278091978696 C10.378008739842286,-78.51711236791479,28.219679906163755,74.00195717677782,70.54919976540938,185.00489294194455 A198.0,198.0,0,0,0,71.65767241148534,184.57837897372556 C28.663068964594135,73.83135158949023,10.400387175059219,-78.51415125064312,26.000967937648046,-196.28537812660778 Z" fill="#1f77b4" fill-opacity="0.6" />
<path d="M26.22926917733596,-196.2550010532798 A198.0,198.0,0,0,0,26.000967937648046,-196.28537812660778 C10.400387175059219,-78.51415125064312,45.05034356952037,65.13913220383101,112.62585892380092,162.84783050957753 A198.0,198.0,0,0,0,119.18786412246001,158.10835855806613 C47.67514564898401,63.243343423226456,10.491707670934385,-78.50200042131193,26.22926917733596,-196.2550010532798 Z" fill="#1f77b4" fill-opacity="0.6" />
<path d="M26.419368105509857,-196.22950081194614 A198.0,198.0,0,0,0,26.22926917733596,-196.2550010532798 C10.491707670934385,-78.50200042131193,69.61176661735954,37.77356150021162,174.02941654339884,94.43390375052905 A198.0,198.0,0,0,0,179.00893776071348,84.61560259066299 C71.6035751042854,33.8462410362652,10.567747242203943,-78.49180032477847,26.419368105509857,-196.22950081194614 Z" fill="#1f77b4" fill-opacity="0.6" />
<path d="M26.490884890729227,-196.21985887699066 A198.0,198.0,0,0,0,26.419368105509857,-196.22950081194614 C10.567747242203943,-78.49180032477847,78.55850343569317,10.059897511614434,196.3962585892329,25.149743779036083 A198.0,198.0,0,0,0,196.71499852268383,22.52130893666051 C78.68599940907353,9.008523574664205,10.596353956291692,-78.48794355079627,26.490884890729227,-196.21985887699066 Z" fill="#1f77b4" fill-opacity="0.6" />
<path d="M28.062669956115474,-196.00124120763658 A198.0,198.0,0,0,0,26.490884890729227,-196.21985887699066 C10.596353956291692,-78.48794355079627,79.19010666710645,1.2518011233028274,197.9752666677661,3.1295028082570684 A198.0,198.0,0,0,0,197.99008464641386,1.9815099560349396 C79.19603385856556,0.7926039824139759,11.225067982446191,-78.40049648305464,28.062669956115474,-196.00124120763658 Z" fill="#1f77b4" fill-opacity="0.6" />
<path d="M7.342960994552858,-197.86379386798504 A198.0,198.0,0,0,0,7.299282339726825,-197.8654100072192 C2.9197129358907303,-79.14616400288769,-48.63984173963859,-62.50444620619331,-121.59960434909647,-156.26111551548325 A198.0,198.0,0,0,0,-121.60323091971715,-156.25829331554195 C-48.64129236788686,-62.50331732621678,2.9371843978211434,-79.14551754719402,7.342960994552858,-197.86379386798504 Z" fill="#2ca02c" fill-opacity="0.6" />
<path d="M7.386639291551599,-197.86216808671765 A198.0,198.0,0,0,0,7.342960994552858,-197.86379386798504 C2.9371843978211434,-79.14551754719402,-21.528991864883757,76.2177309376353,-53.82247966220939,190.54432734408823 A198.0,198.0,0,0,0,-53.82037577628759,190.5449216098377 C-21.528150310515038,76.21796864393508,2.9546557166206395,-79.14486723468707,7.386639291551599,-197.86216808671765 Z" fill="#9467bd" fill-opacity="0.6" />
<path d="M7.47399480355316,-197.85888759840043 A198.0,198.0,0,0,0,7.386639291551599,-197.86216808671765 C2.9546557166206395,-79.14486723468707,9.394283021037344,78.64087643535423,23.485707552593357,196.60219108838555 A198.0,198.0,0,0,0,23.49381559210925,196.60122234849905 C9.397526236843701,78.64048893939963,2.9895979214212645,-79.14355503936018,7.47399480355316,-197.85888759840043 Z" fill="#9467bd" fill-opacity="0.6" />
<path d="M7.517672014299088,-197.8572328915105 A198.0,198.0,0,0,0,7.47399480355316,-197.85888759840043 C2.9895979214212645,-79.14355503936018,45.04912599257255,65.13997426546409,112.62281498143136,162.84993566366023 A198.0,198.0,0,0,0,112.62585892380092,162.84783050957753 C45.05034356952037,65.13913220383101,3.0070688057196353,-79.1428931566042,7.517672014299088,-197.8572328915105 Z" fill="#8c564b" fill-opacity="0.6" />
<path d="M7.5613488587039415,-197.855568542907 A198.0,198.0,0,0,0,7.517672014299088,-197.8572328915105 C3.0070688057196353,-79.1428931566042,78.5583071345806,10.061430323214632,196.39576783645148,25.153575808036578 A198.0,198.0,0,0,0,196.3962585892329,25.149743779036083 C78.55850343569317,10.059897511614434,3.024539543481577,-79.14222741716281,7.5613488587039415,-197.855568542907 Z" fill="#e377c2" fill-opacity="0.6" />
<path d="M7.6923771725877765,-197.85051764762872 A198.0,198.0,0,0,0,7.5613488587039415,-197.855568542907 C3.024539543481577,-79.14222741716281,79.1900836456955,1.2532566328379908,197.9752091142387,3.133141582094977 A198.0,198.0,0,0,0,197.9752666677661,3.1295028082570684 C79.19010666710645,1.2518011233028274,3.0769508690351106,-79.14020705905149,7.6923771725877765,-197.85051764762872 Z" fill="#e377c2" fill-opacity="0.6" />
<path d="M-1.2170356400511941,-197.99625962186974 A198.0,198.0,0,0,0,-1.2701889002330609,-197.99592576656147 C-0.5080755600932244,-79.1983703066246,9.392284287059105,78.64111517438613,23.480710717647764,196.6027879359653 A198.0,198.0,0,0,0,23.485707552593357,196.60219108838555 C9.394283021037344,78.64087643535423,-0.4868142560204777,-79.1985038487479,-1.2170356400511941,-197.99625962186974 Z" fill="#9467bd" fill-opacity="0.6" />
<path d="M-1.1107288603876084,-197.99688452447603 A198.0,198.0,0,0,0,-1.2170356400511941,-197.99625962186974 C-0.4868142560204777,-79.1985038487479,79.19006470885444,1.254452632604308,197.9751617721361,3.1361315815107695 A198.0,198.0,0,0,0,197.9752091142387,3.133141582094977 C79.1900836456955,1.2532566328379908,-0.4442915441550434,-79.19875380979042,-1.1107288603876084,-197.99688452447603 Z" fill="#e377c2" fill-opacity="0.6" />
<path d="M-10.121709302419912,-197.7411211680497 A198.0,198.0,0,0,0,-10.168742818488695,-197.73870807075542 C-4.0674971273954785,-79.09548322830217,-48.638283265233355,-62.50565895189749,-121.59570816308337,-156.26414737974372 A198.0,198.0,0,0,0,-121.59960434909647,-156.26111551548325 C-48.63984173963859,-62.50444620619331,-4.048683720967965,-79.09644846721989,-10.121709302419912,-197.7411211680497 Z" fill="#2ca02c" fill-opacity="0.6" />
<path d="M-10.027640555029715,-197.74591380076384 A198.0,198.0,0,0,0,-10.121709302419912,-197.7411211680497 C-4.048683720967965,-79.09644846721989,9.388799993050407,78.64153123312451,23.471999982626016,196.60382808281125 A198.0,198.0,0,0,0,23.480710717647764,196.6027879359653 C9.392284287059105,78.64111517438613,-4.011056222011886,-79.09836552030555,-10.027640555029715,-197.74591380076384 Z" fill="#9467bd" fill-opacity="0.6" />
<path d="M-9.98060532903026,-197.7482933359126 A198.0,198.0,0,0,0,-10.027640555029715,-197.74591380076384 C-4.011056222011886,-79.09836552030555,79.19005645032297,1.2549738621426405,197.97514112580743,3.137434655356601 A198.0,198.0,0,0,0,197.9751617721361,3.1361315815107695 C79.19006470885444,1.254452632604308,-3.992242131612104,-79.09931733436504,-9.98060532903026,-197.7482933359126 Z" fill="#e377c2" fill-opacity="0.6" />
<path d="M-56.38792656493593,-189.8009529420424 A198.0,198.0,0,0,0,-66.28365861800218,-186.57565918471826 C-26.513463447200873,-74.63026367388731,-48.596599234284895,-62.53807274662612,-121.49149808571224,-156.3451818665653 A198.0,198.0,0,0,0,-121.59570816308337,-156.26414737974372 C-48.638283265233355,-62.50565895189749,-22.555170625974373,-75.92038117681696,-56.38792656493593,-189.8009529420424 Z" fill="#2ca02c" fill-opacity="0.6" />
<path d="M-55.92365459364586,-189.93826590998086 A198.0,198.0,0,0,0,-56.38792656493593,-189.8009529420424 C-22.555170625974373,-75.92038117681696,-57.67114306354509,-54.28332393787355,-144.1778576588627,-135.70830984468387 A198.0,198.0,0,0,0,-144.66537761820263,-135.18849255237237 C-57.86615104728105,-54.07539702094895,-22.369461837458346,-75.97530636399235,-55.92365459364586,-189.93826590998086 Z" fill="#2ca02c" fill-opacity="0.6" />
<path d="M-54.52884356598169,-190.34338764285116 A198.0,198.0,0,0,0,-55.92365459364586,-189.93826590998086 C-22.369461837458346,-75.97530636399235,-21.53236512789696,76.21677802163332,-53.830912819742395,190.54194505408327 A198.0,198.0,0,0,0,-53.82247966220939,190.54432734408823 C-21.528991864883757,76.2177309376353,-21.811537426392675,-76.13735505714047,-54.52884356598169,-190.34338764285116 Z" fill="#9467bd" fill-opacity="0.6" />
<path d="M-54.29608775555854,-190.40991270005006 A198.0,198.0,0,0,0,-54.52884356598169,-190.34338764285116 C-21.811537426392675,-76.13735505714047,9.387716637375298,78.64166056446385,23.469291593438246,196.6041514111596 A198.0,198.0,0,0,0,23.471999982626016,196.60382808281125 C9.388799993050407,78.64153123312451,-21.718435102223417,-76.16396508002002,-54.29608775555854,-190.40991270005006 Z" fill="#9467bd" fill-opacity="0.6" />
<path d="M-53.830333002727606,-190.54210885999834 A198.0,198.0,0,0,0,-54.29608775555854,-190.40991270005006 C-21.718435102223417,-76.16396508002002,79.19004617442152,1.2556221139296395,197.97511543605378,3.1390552848240985 A198.0,198.0,0,0,0,197.97514112580743,3.137434655356601 C79.19005645032297,1.2549738621426405,-21.532133201091042,-76.21684354399933,-53.830333002727606,-190.54210885999834 Z" fill="#e377c2" fill-opacity="0.6" />
<path d="M-129.56417830470772,-149.7234908096452 A198.0,198.0,0,0,0,-129.58896841920165,-149.70203493622643 C-51.83558736768066,-59.88081397449057,-57.12115409673403,-54.86176951810036,-142.80288524183507,-137.1544237952509 A198.0,198.0,0,0,0,-144.1778576588627,-135.70830984468387 C-57.67114306354509,-54.28332393787355,-51.82567132188309,-59.88939632385808,-129.56417830470772,-149.7234908096452 Z" fill="#2ca02c" fill-opacity="0.6" />
<path d="M-124.83288488507709,-153.6904383859617 A198.0,198.0,0,0,0,-129.56417830470772,-149.7234908096452 C-51.82567132188309,-59.88939632385808,-79.18045917371441,1.7592285353944348,-197.951147934286,4.398071338486087 A198.0,198.0,0,0,0,-197.9499791466027,4.450365811881122 C-79.17999165864109,1.780146324752449,-49.93315395403084,-61.47617535438468,-124.83288488507709,-153.6904383859617 Z" fill="#d62728" fill-opacity="0.6" />
<path d="M-124.83130509100982,-153.6917215378734 A198.0,198.0,0,0,0,-124.83288488507709,-153.6904383859617 C-49.93315395403084,-61.47617535438468,-72.73069954485881,31.351002276091194,-181.826748862147,78.37750569022798 A198.0,198.0,0,0,0,-181.73824079928613,78.58251606547537 C-72.69529631971446,31.43300642619015,-49.93252203640393,-61.476688615149364,-124.83130509100982,-153.6917215378734 Z" fill="#2ca02c" fill-opacity="0.6" />
<path d="M-124.43148372114365,-154.0156026477667 A198.0,198.0,0,0,0,-124.83130509100982,-153.6917215378734 C-49.93252203640393,-61.476688615149364,9.385900868234478,78.64187729760573,23.46475217058619,196.60469324401433 A198.0,198.0,0,0,0,23.469291593438246,196.6041514111596 C9.387716637375298,78.64166056446385,-49.77259348845746,-61.60624105910669,-124.43148372114365,-154.0156026477667 Z" fill="#9467bd" fill-opacity="0.6" />
<path d="M-124.42847658835898,-154.01803210630956 A198.0,198.0,0,0,0,-124.43148372114365,-154.0156026477667 C-49.77259348845746,-61.60624105910669,44.9466385993652,65.21073284834372,112.36659649841299,163.0268321208593 A198.0,198.0,0,0,0,112.62281498143136,162.84993566366023 C45.04912599257255,65.13997426546409,-49.77139063534359,-61.60721284252383,-124.42847658835898,-154.01803210630956 Z" fill="#2ca02c" fill-opacity="0.6" />
<path d="M-159.5813193066352,-117.20837226219696 A198.0,198.0,0,0,0,-159.58785120997757,-117.19947843818272 C-63.83514048399103,-46.87979137527309,-79.19172334840194,1.1449686066315874,-197.97930837100483,2.8624215165789684 A198.0,198.0,0,0,0,-197.951147934286,4.398071338486087 C-79.18045917371441,1.7592285353944348,-63.832527722654085,-46.88334890487879,-159.5813193066352,-117.20837226219696 Z" fill="#2ca02c" fill-opacity="0.6" />
<path d="M-159.49690434722507,-117.32321809280607 A198.0,198.0,0,0,0,-159.5813193066352,-117.20837226219696 C-63.832527722654085,-46.88334890487879,-72.73110637065399,31.350058470449667,-181.82776592663498,78.37514617612416 A198.0,198.0,0,0,0,-181.826748862147,78.37750569022798 C-72.73069954485881,31.351002276091194,-63.79876173889003,-46.92928723712243,-159.49690434722507,-117.32321809280607 Z" fill="#d62728" fill-opacity="0.6" />
<path d="M-159.3278265190682,-117.55272730443012 A198.0,198.0,0,0,0,-159.49690434722507,-117.32321809280607 C-63.79876173889003,-46.92928723712243,9.384248048384205,78.64207454388776,23.46062012096051,196.60518635971937 A198.0,198.0,0,0,0,23.46475217058619,196.60469324401433 C9.385900868234478,78.64187729760573,-63.73113060762728,-47.02109092177205,-159.3278265190682,-117.55272730443012 Z" fill="#9467bd" fill-opacity="0.6" />
<path d="M-194.00742768122504,-39.561572321057085 A198.0,198.0,0,0,0,-194.0095266083794,-39.55127792110554 C-77.60381064335176,-15.820511168442216,-79.19556852231588,0.8378104959784809,-197.9889213057897,2.094526239946202 A198.0,198.0,0,0,0,-197.97930837100483,2.8624215165789684 C-79.19172334840194,1.1449686066315874,-77.60297107249002,-15.824628928422834,-194.00742768122504,-39.561572321057085 Z" fill="#d62728" fill-opacity="0.6" />
<path d="M-193.9273853892686,-39.9520862544385 A198.0,198.0,0,0,0,-194.00742768122504,-39.561572321057085 C-77.60297107249002,-15.824628928422834,-77.35311498646394,17.00398782318106,-193.3827874661598,42.509969557952644 A198.0,198.0,0,0,0,-181.82776592663498,78.37514617612416 C-72.73110637065399,31.350058470449667,-77.57095415570745,-15.9808345017754,-193.9273853892686,-39.9520862544385 Z" fill="#d62728" fill-opacity="0.6" />
<path d="M-193.92575793623053,-39.959985095824514 A198.0,198.0,0,0,0,-193.9273853892686,-39.9520862544385 C-77.57095415570745,-15.9808345017754,-50.95218267756075,60.63427314970039,-127.38045669390186,151.58568287425098 A198.0,198.0,0,0,0,-126.78395877507695,152.08493612886053 C-50.71358351003079,60.833974451544215,-77.57030317449221,-15.983994038329806,-193.92575793623053,-39.959985095824514 Z" fill="#d62728" fill-opacity="0.6" />
<path d="M-193.92472211678626,-39.96501159673587 A198.0,198.0,0,0,0,-193.92575793623053,-39.959985095824514 C-77.57030317449221,-15.983994038329806,-26.733504339810196,74.55172530339824,-66.83376084952549,186.37931325849559 A198.0,198.0,0,0,0,-66.43657097769172,186.52126430175764 C-26.574628391076686,74.60850572070306,-77.5698888467145,-15.986004638694348,-193.92472211678626,-39.96501159673587 Z" fill="#d62728" fill-opacity="0.6" />
<path d="M-193.91143600399613,-40.02942651185641 A198.0,198.0,0,0,0,-193.92472211678626,-39.96501159673587 C-77.5698888467145,-15.986004638694348,16.628528313522732,77.43469536407032,41.571320783806826,193.5867384101758 A198.0,198.0,0,0,0,42.2750822278218,193.43427158244452 C16.91003289112872,77.37370863297781,-77.56457440159846,-16.011770604742562,-193.91143600399613,-40.02942651185641 Z" fill="#d62728" fill-opacity="0.6" />
<path d="M-193.90871815330988,-40.042590127765585 A198.0,198.0,0,0,0,-193.91143600399613,-40.02942651185641 C-77.56457440159846,-16.011770604742562,44.63851059379235,65.42204041428155,111.59627648448085,163.55510103570387 A198.0,198.0,0,0,0,112.36659649841299,163.0268321208593 C44.9466385993652,65.21073284834372,-77.56348726132396,-16.017036051106235,-193.90871815330988,-40.042590127765585 Z" fill="#d62728" fill-opacity="0.6" />
<path d="M-193.7255131472501,-40.919745305104605 A198.0,198.0,0,0,0,-193.90871815330988,-40.042590127765585 C-77.56348726132396,-16.017036051106235,69.54043996211806,37.904712238388704,173.85109990529514,94.76178059597176 A198.0,198.0,0,0,0,174.02941654339884,94.43390375052905 C69.61176661735954,37.77356150021162,-77.49020525890005,-16.367898122041844,-193.7255131472501,-40.919745305104605 Z" fill="#e377c2" fill-opacity="0.6" />
<path d="M-193.72475878619395,-40.923316498433664 A198.0,198.0,0,0,0,-193.7255131472501,-40.919745305104605 C-77.49020525890005,-16.367898122041844,78.5447824804468,10.166471615034348,196.36195620111698,25.41617903758587 A198.0,198.0,0,0,0,196.39576783645148,25.153575808036578 C78.5583071345806,10.061430323214632,-77.48990351447759,-16.369326599373466,-193.72475878619395,-40.923316498433664 Z" fill="#d62728" fill-opacity="0.6" />
<path d="M-197.74695664130732,10.007054466771438 A198.0,198.0,0,0,0,-196.87999675493083,21.030142124541847 C-78.75199870197234,8.41205684981674,-77.36539450254317,16.948030371281025,-193.4134862563579,42.37007592820256 A198.0,198.0,0,0,0,-193.3827874661598,42.509969557952644 C-77.35311498646394,17.00398782318106,-79.09878265652293,4.002821786708576,-197.74695664130732,10.007054466771438 Z" fill="#d62728" fill-opacity="0.6" />
<path d="M-197.76224385988755,9.70025275456097 A198.0,198.0,0,0,0,-197.74695664130732,10.007054466771438 C-79.09878265652293,4.002821786708576,-50.95342394191567,60.63323006895984,-127.38355985478917,151.5830751723996 A198.0,198.0,0,0,0,-127.38045669390186,151.58568287425098 C-50.95218267756075,60.63427314970039,-79.10489754395502,3.880101101824388,-197.76224385988755,9.70025275456097 Z" fill="#d62728" fill-opacity="0.6" />
<path d="M-197.89401490174203,6.47756636933173 A198.0,198.0,0,0,0,-197.76224385988755,9.70025275456097 C-79.10489754395502,3.880101101824388,-26.747158863886092,74.54682751606565,-66.86789715971523,186.3670687901641 A198.0,198.0,0,0,0,-66.83376084952549,186.37931325849559 C-26.733504339810196,74.55172530339824,-79.15760596069681,2.5910265477326924,-197.89401490174203,6.47756636933173 Z" fill="#d62728" fill-opacity="0.6" />
<path d="M-197.89503628955342,6.446286679658177 A198.0,198.0,0,0,0,-197.89401490174203,6.47756636933173 C-79.15760596069681,2.5910265477326924,27.552697455079073,74.25287107545998,68.88174363769768,185.63217768864993 A198.0,198.0,0,0,0,70.54919976540938,185.00489294194455 C28.219679906163755,74.00195717677782,-79.15801451582138,2.578514671863271,-197.89503628955342,6.446286679658177 Z" fill="#d62728" fill-opacity="0.6" />
<path d="M-179.9253359673016,82.64909846485705 A198.0,198.0,0,0,0,-171.96864470524108,98.13656422680879 C-68.78745788209643,39.254625690723515,-52.50825736174784,59.29184521359117,-131.2706434043696,148.22961303397793 A198.0,198.0,0,0,0,-127.38355985478917,151.5830751723996 C-50.95342394191567,60.63323006895984,-71.97013438692065,33.05963938594282,-179.9253359673016,82.64909846485705 Z" fill="#d62728" fill-opacity="0.6" />
<path d="M-179.94379345876675,82.6089050627636 A198.0,198.0,0,0,0,-179.9253359673016,82.64909846485705 C-71.97013438692065,33.05963938594282,-22.26957945773226,76.00464348166992,-55.67394864433064,190.0116087041748 A198.0,198.0,0,0,0,-53.830912819742395,190.54194505408327 C-21.53236512789696,76.21677802163332,-71.97751738350671,33.04356202510544,-179.94379345876675,82.6089050627636 Z" fill="#d62728" fill-opacity="0.6" />
<path d="M-180.15427329163725,82.14887591904153 A198.0,198.0,0,0,0,-179.94379345876675,82.6089050627636 C-71.97751738350671,33.04356202510544,14.333479003514269,77.89217791059521,35.83369750878567,194.730444776488 A198.0,198.0,0,0,0,41.571320783806826,193.5867384101758 C16.628528313522732,77.43469536407032,-72.0617093166549,32.85955036761661,-180.15427329163725,82.14887591904153 Z" fill="#d62728" fill-opacity="0.6" />
<path d="M-180.18602481302756,82.07920846401372 A198.0,198.0,0,0,0,-180.15427329163725,82.14887591904153 C-72.0617093166549,32.85955036761661,26.286799484179582,74.71040203933141,65.71699871044895,186.77600509832854 A198.0,198.0,0,0,0,68.88174363769768,185.63217768864993 C27.552697455079073,74.25287107545998,-72.07440992521103,32.83168338560549,-180.18602481302756,82.07920846401372 Z" fill="#d62728" fill-opacity="0.6" />
<path d="M-180.19833078975924,82.05218815232477 A198.0,198.0,0,0,0,-180.18602481302756,82.07920846401372 C-72.07440992521103,32.83168338560549,43.91569390817713,65.90942139454188,109.78923477044282,164.7735534863547 A198.0,198.0,0,0,0,111.59627648448085,163.55510103570387 C44.63851059379235,65.42204041428155,-72.0793323159037,32.82087526092991,-180.19833078975924,82.05218815232477 Z" fill="#d62728" fill-opacity="0.6" />
<path d="M-181.02186441709625,80.21897906953456 A198.0,198.0,0,0,0,-180.19833078975924,82.05218815232477 C-72.0793323159037,32.82087526092991,69.53582702557671,37.91317396194992,173.83956756394176,94.7829349048748 A198.0,198.0,0,0,0,173.85109990529514,94.76178059597176 C69.54043996211806,37.904712238388704,-72.4087457668385,32.08759162781382,-181.02186441709625,80.21897906953456 Z" fill="#e377c2" fill-opacity="0.6" />
<path d="M-123.41879729825203,154.82829351721531 A198.0,198.0,0,0,0,-123.4149265439563,154.8313789454511 C-49.36597061758252,61.93255157818044,-26.905903029926044,74.48967970225283,-67.2647575748151,186.22419925563207 A198.0,198.0,0,0,0,-66.86789715971523,186.3670687901641 C-26.747158863886092,74.54682751606565,-49.367518919300814,61.93131740688613,-123.41879729825203,154.82829351721531 Z" fill="#d62728" fill-opacity="0.6" />
<path d="M-123.63395930289447,154.65653593395345 A198.0,198.0,0,0,0,-123.41879729825203,154.82829351721531 C-49.367518919300814,61.93131740688613,21.7607183109497,76.15189517399747,54.40179577737424,190.37973793499367 A198.0,198.0,0,0,0,65.71699871044895,186.77600509832854 C26.286799484179582,74.71040203933141,-49.45358372115779,61.86261437358138,-123.63395930289447,154.65653593395345 Z" fill="#d62728" fill-opacity="0.6" />
<path d="M-123.65083580462081,154.64304318273972 A198.0,198.0,0,0,0,-123.63395930289447,154.65653593395345 C-49.45358372115779,61.86261437358138,43.39613344749562,66.25266486570295,108.49033361873904,165.6316621642574 A198.0,198.0,0,0,0,109.78923477044282,164.7735534863547 C43.91569390817713,65.90942139454188,-49.46033432184833,61.85721727309589,-123.65083580462081,154.64304318273972 Z" fill="#d62728" fill-opacity="0.6" />
<path d="M-62.83018873930858,187.7667898830431 A198.0,198.0,0,0,0,-62.82378102822591,187.76893389833558 C-25.129512411290364,75.10757355933423,14.298067655849648,77.89868587664844,35.74516913962412,194.7467146916211 A198.0,198.0,0,0,0,35.83369750878567,194.730444776488 C14.333479003514269,77.89217791059521,-25.132075495723434,75.10671595321723,-62.83018873930858,187.7667898830431 Z" fill="#d62728" fill-opacity="0.6" />
<path d="M-62.84501978988632,187.7618264919917 A198.0,198.0,0,0,0,-62.83018873930858,187.7667898830431 C-25.132075495723434,75.10671595321723,21.45601460462124,76.23830688890119,53.6400365115531,190.595767222253 A198.0,198.0,0,0,0,54.40179577737424,190.37973793499367 C21.7607183109497,76.15189517399747,-25.13800791595453,75.10473059679668,-62.84501978988632,187.7618264919917 Z" fill="#d62728" fill-opacity="0.6" />
<path d="M-62.848511699797626,187.76065769250064 A198.0,198.0,0,0,0,-62.84501978988632,187.7618264919917 C-25.13800791595453,75.10473059679668,43.291898407605544,66.32082276529417,108.22974601901386,165.80205691323542 A198.0,198.0,0,0,0,108.49033361873904,165.6316621642574 C43.39613344749562,66.25266486570295,-25.139404679919053,75.10426307700025,-62.848511699797626,187.76065769250064 Z" fill="#d62728" fill-opacity="0.6" />
<path d="M-50.80891128350477,191.36994156393772 A198.0,198.0,0,0,0,-50.803692363200106,191.37132711632987 C-20.321476945280043,76.54853084653195,69.24798836467504,38.43639040604399,173.1199709116876,96.09097601510997 A198.0,198.0,0,0,0,173.83956756394176,94.7829349048748 C69.53582702557671,37.91317396194992,-20.32356451340191,76.54797662557509,-50.80891128350477,191.36994156393772 Z" fill="#9467bd" fill-opacity="0.6" />
<path d="M-50.812910876911886,191.36887962313781 A198.0,198.0,0,0,0,-50.80891128350477,191.36994156393772 C-20.32356451340191,76.54797662557509,79.18853679585149,1.3474569128826648,197.9713419896287,3.368642282206662 A198.0,198.0,0,0,0,197.97511543605378,3.1390552848240985 C79.19004617442152,1.2556221139296395,-20.325164350764755,76.54755184925513,-50.812910876911886,191.36887962313781 Z" fill="#9467bd" fill-opacity="0.6" />
<path d="M-30.10544756174555,195.69788457494116 A198.0,198.0,0,0,0,-30.10297838917688,195.69826440748204 C-12.041191355670753,78.27930576299282,43.187556319245545,66.38881667247877,107.96889079811386,165.9720416811969 A198.0,198.0,0,0,0,108.22974601901386,165.80205691323542 C43.291898407605544,66.32082276529417,-12.042179024698221,78.27915382997647,-30.10544756174555,195.69788457494116 Z" fill="#9467bd" fill-opacity="0.6" />
<path d="M-30.13897509453814,195.69272388172945 A198.0,198.0,0,0,0,-30.10544756174555,195.69788457494116 C-12.042179024698221,78.27915382997647,67.86578809546471,40.827378144836594,169.66447023866178,102.06844536209148 A198.0,198.0,0,0,0,173.1199709116876,96.09097601510997 C69.24798836467504,38.43639040604399,-12.055590037815257,78.27708955269179,-30.13897509453814,195.69272388172945 Z" fill="#9467bd" fill-opacity="0.6" />
<path d="M33.700065947021116,195.11100828801645 A198.0,198.0,0,0,0,33.70725358320601,195.10976668500592 C13.482901433282406,78.04390667400237,21.30353377590392,76.28105563414105,53.258834439759795,190.70263908535262 A198.0,198.0,0,0,0,53.6400365115531,190.595767222253 C21.45601460462124,76.23830688890119,13.480026378808446,78.04440331520658,33.700065947021116,195.11100828801645 Z" fill="#9467bd" fill-opacity="0.6" />
<path d="M71.84216825406061,184.50664719883466 A198.0,198.0,0,0,0,75.33373637213705,183.10878778533092 C30.133494548854824,73.24351511413236,43.16649322867364,66.40251397604517,107.91623307168409,166.00628494011292 A198.0,198.0,0,0,0,107.96889079811386,165.9720416811969 C43.187556319245545,66.38881667247877,28.736867301624244,73.80265887953387,71.84216825406061,184.50664719883466 Z" fill="#8c564b" fill-opacity="0.6" />
<path d="M71.65767241148534,184.57837897372556 A198.0,198.0,0,0,0,71.84216825406061,184.50664719883466 C28.736867301624244,73.80265887953387,67.86467475223121,40.8292287555603,169.661686880578,102.07307188890074 A198.0,198.0,0,0,0,169.66447023866178,102.06844536209148 C67.86578809546471,40.827378144836594,28.663068964594135,73.83135158949023,71.65767241148534,184.57837897372556 Z" fill="#e377c2" fill-opacity="0.6" />
<path d="M179.68876040714304,83.16218722078169 A198.0,198.0,0,0,0,179.84520149603878,82.823327021131 C71.93808059841551,33.1293308084524,77.84049932805314,14.611525052483708,194.60124832013284,36.52881263120927 A198.0,198.0,0,0,0,196.36195620111698,25.41617903758587 C78.5447824804468,10.166471615034348,71.87550416285721,33.264874888312676,179.68876040714304,83.16218722078169 Z" fill="#e377c2" fill-opacity="0.6" />
<path d="M179.32666509411382,83.94014049442337 A198.0,198.0,0,0,0,179.68876040714304,83.16218722078169 C71.87550416285721,33.264874888312676,78.77214887622236,8.221226272415954,196.9303721905559,20.553065681039886 A198.0,198.0,0,0,0,197.9713419896287,3.368642282206662 C79.18853679585149,1.3474569128826648,71.73066603764553,33.576056197769354,179.32666509411382,83.94014049442337 Z" fill="#e377c2" fill-opacity="0.6" />
<text x="220.00000000000003" y="0" font-size="10" text-anchor="start" dominant-baseline="middle" transform="rotate(-9.248833)" font-family="Arial">Canada</text>
<text x="220.00000000000006" y="0" font-size="10" text-anchor="start" dominant-baseline="middle" transform="rotate(-27.931330)" font-family="Arial">Mexico</text>
<text x="220.00000000000003" y="0" font-size="10" text-anchor="start" dominant-baseline="middle" transform="rotate(-61.346800)" font-family="Arial">United Sta.</text>
<text x="220.0" y="0" font-size="10" text-anchor="start" dominant-baseline="middle" transform="rotate(-86.894436)" font-family="Arial">Costa Rica</text>
<text x="220.00000000000006" y="0" font-size="10" text-anchor="start" dominant-baseline="middle" transform="rotate(-89.413914)" font-family="Arial">Dominican .</text>
<text x="-220.0" y="0" font-size="10" text-anchor="end" dominant-baseline="middle" transform="rotate(88.057815)" font-family="Arial">Guatemala</text>
<text x="-220.00000000000003" y="0" font-size="10" text-anchor="end" dominant-baseline="middle" transform="rotate(78.462443)" font-family="Arial">Argentina</text>
<text x="-220.00000000000003" y="0" font-size="10" text-anchor="end" dominant-baseline="middle" transform="rotate(59.493883)" font-family="Arial">Brazil</text>
<text x="-220.00000000000003" y="0" font-size="10" text-anchor="end" dominant-baseline="middle" transform="rotate(42.419601)" font-family="Arial">Colombia</text>
<text x="-220.00000000000003" y="0" font-size="10" text-anchor="end" dominant-baseline="middle" transform="rotate(23.621372)" font-family="Arial">Germany</text>
<text x="-220.00000000000003" y="0" font-size="10" text-anchor="end" dominant-baseline="middle" transform="rotate(2.426282)" font-family="Arial">Spain</text>
<text x="-220.00000000000003" y="0" font-size="10" text-anchor="end" dominant-baseline="middle" transform="rotate(-18.190958)" font-family="Arial">France</text>
<text x="-220.00000000000006" y="0" font-size="10" text-anchor="end" dominant-baseline="middle" transform="rotate(-40.863391)" font-family="Arial">United Kin.</text>
<text x="-220.00000000000003" y="0" font-size="10" text-anchor="end" dominant-baseline="middle" transform="rotate(-61.757824)" font-family="Arial">Italy</text>
<text x="-220.00000000000006" y="0" font-size="10" text-anchor="end" dominant-baseline="middle" transform="rotate(-73.603125)" font-family="Arial">Indonesia</text>
<text x="-220.00000000000003" y="0" font-size="10" text-anchor="end" dominant-baseline="middle" transform="rotate(-78.480292)" font-family="Arial">India</text>
<text x="220.00000000000003" y="0" font-size="10" text-anchor="start" dominant-baseline="middle" transform="rotate(-270.814881)" font-family="Arial">Japan</text>
<text x="220.00000000000003" y="0" font-size="10" text-anchor="start" dominant-baseline="middle" transform="rotate(-281.442569)" font-family="Arial">Egypt</text>
<text x="220.00000000000003" y="0" font-size="10" text-anchor="start" dominant-baseline="middle" transform="rotate(-287.723226)" font-family="Arial">Nigeria</text>
<text x="220.00000000000003" y="0" font-size="10" text-anchor="start" dominant-baseline="middle" transform="rotate(-299.973146)" font-family="Arial">South Afri.</text>
<text x="220.00000000000003" y="0" font-size="10" text-anchor="start" dominant-baseline="middle" transform="rotate(-321.427999)" font-family="Arial">Australia</text>
<text x="220.00000000000003" y="0" font-size="10" text-anchor="start" dominant-baseline="middle" transform="rotate(-344.657245)" font-family="Arial">New Zealan.</text>
<text x="220.00000000000003" y="0" font-size="10" text-anchor="start" dominant-baseline="middle" transform="rotate(-356.734407)" font-family="Arial">Papua New .</text>
<text x="-295.0" y="-285.0" font-size="8" text-anchor="start" dominant-baseline="middle" font-family="Arial" font-weight="bold">Continents</text>
<circle cx="-290.5" cy="-274.5" r="4.5" fill="#8c564b" stroke="#333" stroke-width="0.5" />
<text x="-278.0" y="-271.0" font-size="6" text-anchor="start" dominant-baseline="middle" font-family="Arial">Africa</text>
<circle cx="-290.5" cy="-262.5" r="4.5" fill="#9467bd" stroke="#333" stroke-width="0.5" />
<text x="-278.0" y="-259.0" font-size="6" text-anchor="start" dominant-baseline="middle" font-family="Arial">Asia</text>
<circle cx="-290.5" cy="-250.5" r="4.5" fill="#ff7f0e" stroke="#333" stroke-width="0.5" />
<text x="-278.0" y="-247.0" font-size="6" text-anchor="start" dominant-baseline="middle" font-family="Arial">Central America</text>
<circle cx="-290.5" cy="-238.5" r="4.5" fill="#d62728" stroke="#333" stroke-width="0.5" />
<text x="-278.0" y="-235.0" font-size="6" text-anchor="start" dominant-baseline="middle" font-family="Arial">Europe</text>
<circle cx="-290.5" cy="-226.5" r="4.5" fill="#1f77b4" stroke="#333" stroke-width="0.5" />
<text x="-278.0" y="-223.0" font-size="6" text-anchor="start" dominant-baseline="middle" font-family="Arial">North America</text>
<circle cx="-290.5" cy="-214.5" r="4.5" fill="#e377c2" stroke="#333" stroke-width="0.5" />
<text x="-278.0" y="-211.0" font-size="6" text-anchor="start" dominant-baseline="middle" font-family="Arial">Oceania</text>
<circle cx="-290.5" cy="-202.5" r="4.5" fill="#2ca02c" stroke="#333" stroke-width="0.5" />
<text x="-278.0" y="-199.0" font-size="6" text-anchor="start" dominant-baseline="middle" font-family="Arial">South America</text>
</svg>