<?xml version="1.0" encoding="UTF-8"?>
<svg xmlns="http://www.w3.org/2000/svg" xmlns:xlink="http://www.w3.org/1999/xlink"
     width="600.0" height="600.0" viewBox="-300.0 -300.0 600.0 600.0">
<defs>
</defs>
<rect x="-300.0" y="-300.0" width="600.0" height="600.0" fill="#ffffff" fill-opacity="1.0" />
<path d="M200.0,-0.0 A200,200,0,0,0,188.25733004845495,-67.52168305831172 L201.4353431518468,-72.24820087239355 A214.0,214.0,0,0,1,214.0,-0.0 Z" fill="#1f77b4" fill-opacity="0.9" />
<path d="M187.5727116833673,-69.40084892671251 A200,200,0,0,0,162.82580913551146,-116.13679812775102 L174.22361577499728,-124.2663739966936 A214.0,214.0,0,0,1,200.702801501203,-74.25890835158239 Z" fill="#1f77b4" fill-opacity="0.9" />
<path d="M161.65631928765728,-117.75922229009075 A200,200,0,0,0,12.69598349110488,-199.59662322592933 L13.584702335482222,-213.5683868517444 A214.0,214.0,0,0,1,172.9722616377933,-126.0023678503971 Z" fill="#1f77b4" fill-opacity="0.9" />
<path d="M10.699415730898545,-199.71360119685738 A200,200,0,0,0,3.647304040077073,-199.96674016755696 L3.9026153228824683,-213.96441197928596 A214.0,214.0,0,0,1,11.448374832061445,-213.69355328063742 Z" fill="#ff7f0e" fill-opacity="0.9" />
<path d="M1.6474876023425917,-199.99321434638756 A200,200,0,0,0,-5.102805626893474,-199.93489283947946 L-5.460002020776018,-213.93033533824303 A214.0,214.0,0,0,1,1.7628117345065732,-213.9927393506347 Z" fill="#ff7f0e" fill-opacity="0.9" />
<path d="M-7.10186609481756,-199.87386897233785 A200,200,0,0,0,-14.16593512620902,-199.49768490386057 L-15.157550585043651,-213.46252284713083 A214.0,214.0,0,0,1,-7.59899672145479,-213.86503980040152 Z" fill="#ff7f0e" fill-opacity="0.9" />
<path d="M-16.16017043494587,-199.34605311245443 A200,200,0,0,0,-76.01946396224056,-184.98929995784513 L-81.34082643959741,-197.9385509548943 A214.0,214.0,0,0,1,-17.29138236539208,-213.30027683032625 Z" fill="#2ca02c" fill-opacity="0.9" />
<path d="M-77.86552518889974,-184.2198686001508 A200,200,0,0,0,-138.38281793666417,-144.39596843370683 L-148.06961519223066,-154.5036862240663 A214.0,214.0,0,0,1,-83.31611195212272,-197.11525940216134 Z" fill="#2ca02c" fill-opacity="0.9" />
<path d="M-139.8198344718893,-143.004943579771 A200,200,0,0,0,-165.16751094866567,-112.78161785957145 L-176.72923671507226,-120.67633110974147 A214.0,214.0,0,0,1,-149.60722288492155,-153.015289630355 Z" fill="#2ca02c" fill-opacity="0.9" />
<path d="M-166.28705002369117,-111.1243312439649 A200,200,0,0,0,-197.17770121925972,-33.4806532476346 L-210.98014030460791,-35.824298974969025 A214.0,214.0,0,0,1,-177.92714352534955,-118.90303443104246 Z" fill="#d62728" fill-opacity="0.9" />
<path d="M-197.50264336875122,-31.507235079515777 A200,200,0,0,0,-198.1934205728817,26.821037295765343 L-212.06696001298343,28.698509906468917 A214.0,214.0,0,0,1,-211.32782840456383,-33.71274153508188 Z" fill="#d62728" fill-opacity="0.9" />
<path d="M-197.91530508162626,28.80159742873312 A200,200,0,0,0,-167.10992411038305,109.88299806531498 L-178.80761879810987,117.57480792988703 A214.0,214.0,0,0,1,-211.7693764373401,30.817709248744443 Z" fill="#d62728" fill-opacity="0.9" />
<path d="M-166.00275701689475,111.54857535078517 A200,200,0,0,0,-113.96448816728967,164.3535683724807 L-121.94200233899996,175.85831815855437 A214.0,214.0,0,0,1,-177.6229500080774,119.35697562534014 Z" fill="#d62728" fill-opacity="0.9" />
<path d="M-112.31528169876603,165.484976650229 A200,200,0,0,0,-50.661785251576006,193.47708782985958 L-54.20811021918633,207.02048397794977 A214.0,214.0,0,0,1,-120.17735141767966,177.06892501574504 Z" fill="#d62728" fill-opacity="0.9" />
<path d="M-48.724513551143964,193.97402346501036 A200,200,0,0,0,-42.043297670865975,195.5309722805033 L-44.9863285078266,209.21814034013855 A214.0,214.0,0,0,1,-52.13522949972405,207.5522051075611 Z" fill="#9467bd" fill-opacity="0.9" />
<path d="M-40.08591838902787,195.94162178288767 A200,200,0,0,0,-31.31648731163299,197.532978569302 L-33.5086414234473,211.36028706915315 A214.0,214.0,0,0,1,-42.89193267625982,209.6575353076898 Z" fill="#9467bd" fill-opacity="0.9" />
<path d="M-29.33962463662141,197.83626165640655 A200,200,0,0,0,36.05786262947765,196.72272502838538 L38.58191301354108,210.49331578037237 A214.0,214.0,0,0,1,-31.39339836118491,211.68479997235502 Z" fill="#9467bd" fill-opacity="0.9" />
<path d="M38.02325421469715,196.35231635742042 A200,200,0,0,0,44.86921793290159,194.90190682004572 L48.010063188204704,208.54504029744894 A214.0,214.0,0,0,1,40.684882009725946,210.09697850243987 Z" fill="#8c564b" fill-opacity="0.9" />
<path d="M46.81596107541209,194.44347710475017 A200,200,0,0,0,75.91355364750515,185.0327872908133 L81.22750240283052,197.98508240117025 A214.0,214.0,0,0,1,50.09307835069094,208.0545205020827 Z" fill="#8c564b" fill-opacity="0.9" />
<path d="M77.76005503571773,184.26441284426613 A200,200,0,0,0,121.65212273347639,158.7474756789512 L130.16777132481974,169.85979897647778 A214.0,214.0,0,0,1,83.20325888821797,197.16292174336476 Z" fill="#8c564b" fill-opacity="0.9" />
<path d="M123.23348847703708,157.5230374192295 A200,200,0,0,0,181.8874270226273,83.16828657059388 L194.6195469142112,88.99006663053545 A214.0,214.0,0,0,1,131.85983267042968,168.54965003857558 Z" fill="#e377c2" fill-opacity="0.9" />
<path d="M182.7100017314565,81.34528423511205 A200,200,0,0,0,199.01642172874529,19.81070120632264 L212.94757124975746,21.197450290765225 A214.0,214.0,0,0,1,195.49970185265846,87.0394541315699 Z" fill="#e377c2" fill-opacity="0.9" />
<path d="M199.20457470087828,17.81957963146712 A200,200,0,0,0,199.99000008333306,1.9999666668340497 L213.9893000891664,2.139964333512433 A214.0,214.0,0,0,1,213.1488949299398,19.06695020566982 Z" fill="#e377c2" fill-opacity="0.9" />
<path d="M193.0,-0.0 A193.0,193.0,0,0,0,184.66047466990426,-56.12048729907506 L189.44442479088625,-57.57438593376612 A198.0,198.0,0,0,1,198.0,-0.0 Z" fill="#1f77b4" fill-opacity="0.6" />
<path d="M181.00766677444943,-66.97181921427757 A193.0,193.0,0,0,0,171.62306262947342,-88.2866035912575 L176.0692559618432,-90.57382130087558 A198.0,198.0,0,0,1,185.69698456653362,-68.70684043744538 Z" fill="#1f77b4" fill-opacity="0.6" />
<path d="M155.9983481125893,-113.63764950993757 A193.0,193.0,0,0,0,27.573334298627923,-191.02018541414964 L28.287669384084605,-195.96889488083747 A198.0,198.0,0,0,1,160.03975609478073,-116.58163006718983 Z" fill="#1f77b4" fill-opacity="0.6" />
<path d="M-15.594564469722762,-192.36894125351853 A193.0,193.0,0,0,0,-61.314590899382644,-183.00142333556136 L-62.90305180351172,-187.74239285202668 A198.0,198.0,0,0,1,-15.998568730596409,-197.3525925813299 Z" fill="#2ca02c" fill-opacity="0.6" />
<path d="M-75.14023180728825,-177.7721731991455 A193.0,193.0,0,0,0,-128.17540490983336,-144.2915991185913 L-131.4960112546477,-148.0297234480885 A198.0,198.0,0,0,1,-77.08686993701073,-182.37766991414927 Z" fill="#2ca02c" fill-opacity="0.6" />
<path d="M-134.92614026537316,-137.99977055447903 A193.0,193.0,0,0,0,-143.6322866780563,-128.9137937679 L-147.353330374379,-132.25352935774197 A198.0,198.0,0,0,1,-138.4216361271704,-141.5748941439733 Z" fill="#2ca02c" fill-opacity="0.6" />
<path d="M-160.46700327286197,-107.23497965042613 A193.0,193.0,0,0,0,-188.97027433021836,-39.233090874439405 L-193.8658772921411,-40.24949219243007 A198.0,198.0,0,0,1,-164.62417952345425,-110.01308793152525 Z" fill="#d62728" fill-opacity="0.6" />
<path d="M-190.59005085084493,-30.404481851732726 A193.0,193.0,0,0,0,-192.87926989247387,6.825485019119527 L-197.87614216948097,7.002311055884281 A198.0,198.0,0,0,1,-195.52761693506372,-31.19216272872062 Z" fill="#d62728" fill-opacity="0.6" />
<path d="M-190.98826940376932,27.793541518727462 A193.0,193.0,0,0,0,-185.40880001369337,53.596425976759484 L-190.21213680161287,54.98493442175325 A198.0,198.0,0,0,1,-195.93615203080998,28.51358145444579 Z" fill="#d62728" fill-opacity="0.6" />
<path d="M-160.19266052130342,107.64437521350769 A193.0,193.0,0,0,0,-119.08169524023853,151.88334292709965 L-122.16671325164369,155.81814455733542 A198.0,198.0,0,0,1,-164.3427294467258,110.43308959727732 Z" fill="#d62728" fill-opacity="0.6" />
<path d="M-108.38424683930923,159.69300246747096 A193.0,193.0,0,0,0,-52.72331736044652,185.65896640482956 L-54.08920641123529,190.46878418733812 A198.0,198.0,0,0,1,-111.19212888177837,163.8301268837267 Z" fill="#d62728" fill-opacity="0.6" />
<path d="M-47.01915557685392,187.184932643735 A193.0,193.0,0,0,0,-43.3252549716227,188.07424672624342 L-44.44767090353002,192.94663653780412 A198.0,198.0,0,0,1,-48.23726841563252,192.03428323036024 Z" fill="#9467bd" fill-opacity="0.6" />
<path d="M-38.68291124541189,189.0836650204866 A193.0,193.0,0,0,0,-31.285655484223387,190.4473884329278 L-32.096164693659226,195.38125859958396 A198.0,198.0,0,0,1,-39.685059205137584,193.9822055650588 Z" fill="#9467bd" fill-opacity="0.6" />
<path d="M-28.31273777433966,190.9119924984323 A193.0,193.0,0,0,0,25.74251995641925,191.27551507261288 L26.40942461850265,196.23083929729196 A198.0,198.0,0,0,1,-29.046228390255195,195.8578990398425 Z" fill="#9467bd" fill-opacity="0.6" />
<path d="M36.692440317182744,189.47998528491073 A193.0,193.0,0,0,0,36.704386494113685,189.47767153965853 L37.6552773359301,194.3864195070072 A198.0,198.0,0,0,1,37.64302167255017,194.38879319384623 Z" fill="#8c564b" fill-opacity="0.6" />
<path d="M45.17740243777266,187.6379554060839 A193.0,193.0,0,0,0,51.46082927407108,186.01285721805607 L52.79401137961696,190.83184315634767 A198.0,198.0,0,0,1,46.34780146465797,192.49904233370265 Z" fill="#8c564b" fill-opacity="0.6" />
<path d="M75.0384531094676,177.81515839471683 A193.0,193.0,0,0,0,106.86969337117321,160.71051191117343 L109.63833827716216,164.8739966757116 A198.0,198.0,0,0,1,76.98245448536055,182.42176871582348 Z" fill="#8c564b" fill-opacity="0.6" />
<path d="M118.92031638034078,152.00973110955644 A193.0,193.0,0,0,0,166.8112278778505,97.07221154317966 L171.1327622788311,99.58703567642266 A198.0,198.0,0,0,1,122.0011535922667,155.9478070450372 Z" fill="#e377c2" fill-opacity="0.6" />
<path d="M176.3151516708555,78.49819928688312 A193.0,193.0,0,0,0,190.63297997201857,30.134149183077522 L195.57165820963561,30.91482662305362 A198.0,198.0,0,0,1,180.88290171414192,80.53183139276092 Z" fill="#e377c2" fill-opacity="0.6" />
<path d="M186.3751306200967,-66.84542382498518 A198.0,198.0,0,0,0,186.3747567479704,-66.84646622772857 C74.54990269918817,-26.73858649109143,70.42770238473729,-36.229528520350236,176.0692559618432,-90.57382130087558 A198.0,198.0,0,0,0,176.02961529711803,-90.65083859705122 C70.41184611884721,-36.26033543882049,74.55005224803868,-26.73816952999407,186.3751306200967,-66.84542382498518 Z" fill="#1f77b4" fill-opacity="0.6" />
<path d="M189.1895710374342,-58.4063884405776 A198.0,198.0,0,0,0,186.3751306200967,-66.84542382498518 C74.55005224803868,-26.73816952999407,10.959716817324933,-78.4380303633642,27.399292043312332,-196.0950759084105 A198.0,198.0,0,0,0,24.75357898175674,-196.44658390410848 C9.901431592702696,-78.5786335616434,75.67582841497368,-23.362555376231043,189.1895710374342,-58.4063884405776 Z" fill="#1f77b4" fill-opacity="0.6" />
<path d="M189.18991819042526,-58.40526393314394 A198.0,198.0,0,0,0,189.1895710374342,-58.4063884405776 C75.67582841497368,-23.362555376231043,-1.9391443815343512,-79.17625729388556,-4.847860953835878,-197.94064323471386 A198.0,198.0,0,0,0,-4.859856193481353,-197.94034908976664 C-1.9439424773925413,-79.17613963590667,75.67596727617011,-23.36210557325758,189.18991819042526,-58.40526393314394 Z" fill="#1f77b4" fill-opacity="0.6" />
<path d="M189.1910102713814,-58.401726280085704 A198.0,198.0,0,0,0,189.18991819042526,-58.40526393314394 C75.67596727617011,-23.36210557325758,-5.5179182056153735,-79.00754760575815,-13.794795514038434,-197.51886901439536 A198.0,198.0,0,0,0,-13.833043525744133,-197.5161940368811 C-5.533217410297653,-79.00647761475244,75.67640410855256,-23.36069051203428,189.1910102713814,-58.401726280085704 Z" fill="#1f77b4" fill-opacity="0.6" />
<path d="M189.19159670265012,-58.399826516024746 A198.0,198.0,0,0,0,189.1910102713814,-58.401726280085704 C75.67640410855256,-23.36069051203428,-53.83029525906974,-58.09422787438848,-134.57573814767434,-145.2355696859712 A198.0,198.0,0,0,0,-134.7321196363618,-145.0905094700997 C-53.892847854544726,-58.036203788039884,75.67663868106006,-23.3599306064099,189.19159670265012,-58.399826516024746 Z" fill="#1f77b4" fill-opacity="0.6" />
<path d="M189.1919590708217,-58.39865257815912 A198.0,198.0,0,0,0,189.19159670265012,-58.399826516024746 C75.67663868106006,-23.3599306064099,-65.32927088875282,-44.77417073653017,-163.32317722188202,-111.93542684132542 A198.0,198.0,0,0,0,-163.3652382937536,-111.87403146943934 C-65.34609531750145,-44.749612587775744,75.67678362832868,-23.35946103126365,189.1919590708217,-58.39865257815912 Z" fill="#1f77b4" fill-opacity="0.6" />
<path d="M189.22354609160269,-58.296222900966065 A198.0,198.0,0,0,0,189.1919590708217,-58.39865257815912 C75.67678362832868,-23.35946103126365,-78.00344502823717,-13.71504880511857,-195.0086125705929,-34.287622012796426 A198.0,198.0,0,0,0,-195.00884379604176,-34.28630690714571 C-78.0035375184167,-13.714522762858284,75.68941843664108,-23.318489160386427,189.22354609160269,-58.296222900966065 Z" fill="#d62728" fill-opacity="0.6" />
<path d="M189.28655375578654,-58.09131232170378 A198.0,198.0,0,0,0,189.22354609160269,-58.296222900966065 C75.68941843664108,-23.318489160386427,-45.32892976524988,64.94557818925814,-113.32232441312469,162.36394547314535 A198.0,198.0,0,0,0,-113.32016009776119,162.36545604104887 C-45.328064039104476,64.94618241641955,75.71462150231461,-23.236524928681515,189.28655375578654,-58.09131232170378 Z" fill="#d62728" fill-opacity="0.6" />
<path d="M189.31797438072365,-57.988831479688045 A198.0,198.0,0,0,0,189.28655375578654,-58.09131232170378 C75.71462150231461,-23.236524928681515,-16.969148167959144,77.36076531714154,-42.422870419897855,193.40191329285383 A198.0,198.0,0,0,0,-41.651412522593034,193.56952196787793 C-16.660565009037214,77.42780878715118,75.72718975228946,-23.19553259187522,189.31797438072365,-57.988831479688045 Z" fill="#1f77b4" fill-opacity="0.6" />
<path d="M189.34933952194083,-57.88633364279321 A198.0,198.0,0,0,0,189.31797438072365,-57.988831479688045 C75.72718975228946,-23.19553259187522,14.228436109130165,77.91143437190976,35.57109027282541,194.7785859297744 A198.0,198.0,0,0,0,35.57212636351023,194.77839671272187 C14.228850545404093,77.91135868508876,75.73973580877633,-23.154533457117285,189.34933952194083,-57.88633364279321 Z" fill="#9467bd" fill-opacity="0.6" />
<path d="M189.38064917024582,-57.783818841058476 A198.0,198.0,0,0,0,189.34933952194083,-57.88633364279321 C75.73973580877633,-23.154533457117285,48.14338919536059,62.887630554696834,120.35847298840147,157.21907638674207 A198.0,198.0,0,0,0,120.35924387921817,157.21848623117728 C48.14369755168727,62.88739449247092,75.75225966809833,-23.11352753642339,189.38064917024582,-57.783818841058476 Z" fill="#8c564b" fill-opacity="0.6" />
<path d="M189.38167272453674,-57.78046413846511 A198.0,198.0,0,0,0,189.38064917024582,-57.783818841058476 C75.75225966809833,-23.11352753642339,71.86142000869482,33.29528967187333,179.65355002173706,83.23822417968331 A198.0,198.0,0,0,0,179.86161634971492,82.78767398633666 C71.94464653988597,33.11506959453467,75.7526690898147,-23.112185655386046,189.38167272453674,-57.78046413846511 Z" fill="#1f77b4" fill-opacity="0.6" />
<path d="M189.38197672150247,-57.77946774639159 A198.0,198.0,0,0,0,189.38167272453674,-57.78046413846511 C75.7526690898147,-23.112185655386046,78.7987443825671,7.962278802632558,196.99686095641772,19.905697006581395 A198.0,198.0,0,0,0,197.0067082590248,19.808000932539706 C78.80268330360992,7.923200373015883,75.752790688601,-23.111787098556636,189.38197672150247,-57.77946774639159 Z" fill="#1f77b4" fill-opacity="0.6" />
<path d="M189.44442479088625,-57.57438593376612 A198.0,198.0,0,0,0,189.38197672150247,-57.77946774639159 C75.752790688601,-23.111787098556636,79.19562713041739,0.8322520170585425,197.98906782604345,2.080630042646356 A198.0,198.0,0,0,0,197.9901000824997,1.9799670001657093 C79.19604003299989,0.7919868000662837,75.7777699163545,-23.02975437350645,189.44442479088625,-57.57438593376612 Z" fill="#1f77b4" fill-opacity="0.6" />
<path d="M175.76351565978518,-91.16570935890562 A198.0,198.0,0,0,0,161.19755104415634,-114.97543014647351 C64.47902041766254,-45.99017205858941,11.315067753633842,-78.38755795233499,28.287669384084605,-195.96889488083747 A198.0,198.0,0,0,0,27.399292043312332,-196.0950759084105 C10.959716817324933,-78.4380303633642,70.30540626391408,-36.46628374356225,175.76351565978518,-91.16570935890562 Z" fill="#1f77b4" fill-opacity="0.6" />
<path d="M175.79106409783174,-91.11257752556459 A198.0,198.0,0,0,0,175.76351565978518,-91.16570935890562 C70.30540626391408,-36.46628374356225,-5.201689159384237,-79.02899739898731,-13.004222898460593,-197.5724934974683 A198.0,198.0,0,0,0,-13.794795514038434,-197.51886901439536 C-5.5179182056153735,-79.00754760575815,70.3164256391327,-36.44503101022584,175.79106409783174,-91.11257752556459 Z" fill="#1f77b4" fill-opacity="0.6" />
<path d="M175.83090678479434,-91.0356645454789 A198.0,198.0,0,0,0,175.79106409783174,-91.11257752556459 C70.3164256391327,-36.44503101022584,-53.829946670645406,-58.094550875581014,-134.5748666766135,-145.23637718895253 A198.0,198.0,0,0,0,-134.57573814767434,-145.2355696859712 C-53.83029525906974,-58.09422787438848,70.33236271391773,-36.41426581819156,175.83090678479434,-91.0356645454789 Z" fill="#2ca02c" fill-opacity="0.6" />
<path d="M175.85081550949675,-90.99720152095306 A198.0,198.0,0,0,0,175.83090678479434,-91.0356645454789 C70.33236271391773,-36.41426581819156,-78.00339724897792,-13.715320543762155,-195.00849312244478,-34.28830135940539 A198.0,198.0,0,0,0,-195.0086125705929,-34.287622012796426 C-78.00344502823717,-13.71504880511857,70.34032620379871,-36.398880608381226,175.85081550949675,-90.99720152095306 Z" fill="#d62728" fill-opacity="0.6" />
<path d="M175.89060771658097,-90.92026241213685 A198.0,198.0,0,0,0,175.85081550949675,-90.99720152095306 C70.34032620379871,-36.398880608381226,-16.969340169363797,77.36072320122413,-42.42335042340949,193.40180800306032 A198.0,198.0,0,0,0,-42.422870419897855,193.40191329285383 C-16.969148167959144,77.36076531714154,70.35624308663239,-36.368104964854744,175.89060771658097,-90.92026241213685 Z" fill="#9467bd" fill-opacity="0.6" />
<path d="M175.93036626089207,-90.84330590257254 A198.0,198.0,0,0,0,175.89060771658097,-90.92026241213685 C70.35624308663239,-36.368104964854744,48.14307061743879,62.88787443954758,120.35767654359697,157.21968609886895 A198.0,198.0,0,0,0,120.35847298840147,157.21907638674207 C48.14338919536059,62.887630554696834,70.37214650435683,-36.33732236102902,175.93036626089207,-90.84330590257254 Z" fill="#8c564b" fill-opacity="0.6" />
<path d="M176.02961529711803,-90.65083859705122 A198.0,198.0,0,0,0,175.93036626089207,-90.84330590257254 C70.37214650435683,-36.33732236102902,79.19562435067067,0.8325164908034419,197.98906087667666,2.0812912270086046 A198.0,198.0,0,0,0,197.98906782604345,2.080630042646356 C79.19562713041739,0.8322520170585425,70.41184611884721,-36.26033543882049,176.02961529711803,-90.65083859705122 Z" fill="#e377c2" fill-opacity="0.6" />
<path d="M14.200399716131553,-197.4901229122664 A198.0,198.0,0,0,0,12.569023656193874,-197.60065699367004 C5.02760946247755,-79.04026279746802,4.236968629435824,-79.08658607395553,10.59242157358956,-197.71646518488882 A198.0,198.0,0,0,0,3.863004447895848,-197.96231256639618 C1.5452017791583392,-79.18492502655847,5.680159886452621,-78.99604916490657,14.200399716131553,-197.4901229122664 Z" fill="#1f77b4" fill-opacity="0.6" />
<path d="M15.792481214952831,-197.36919095207176 A198.0,198.0,0,0,0,14.200399716131553,-197.4901229122664 C5.680159886452621,-78.99604916490657,0.6524050905276664,-79.19731288116948,1.6310127263191658,-197.9932822029237 A198.0,198.0,0,0,0,-4.847860953835878,-197.94064323471386 C-1.9391443815343512,-79.17625729388556,6.316992485981133,-78.94767638082871,15.792481214952831,-197.36919095207176 Z" fill="#1f77b4" fill-opacity="0.6" />
<path d="M17.238522731399573,-197.2481516619079 A198.0,198.0,0,0,0,15.792481214952831,-197.36919095207176 C6.316992485981133,-78.94767638082871,-2.812338973547754,-79.15005211304579,-7.0308474338693845,-197.87513028261446 A198.0,198.0,0,0,0,-13.004222898460593,-197.5724934974683 C-5.201689159384237,-79.02899739898731,6.89540909255983,-78.89926066476318,17.238522731399573,-197.2481516619079 Z" fill="#1f77b4" fill-opacity="0.6" />
<path d="M17.344652023603434,-197.23884771053625 A198.0,198.0,0,0,0,17.238522731399573,-197.2481516619079 C6.89540909255983,-78.89926066476318,-25.16122072140469,-75.09695714081067,-62.90305180351172,-187.74239285202668 A198.0,198.0,0,0,0,-66.58064850453701,-186.4698829428369 C-26.632259401814807,-74.58795317713476,6.937860809441374,-78.8955390842145,17.344652023603434,-197.23884771053625 Z" fill="#1f77b4" fill-opacity="0.6" />
<path d="M17.851017456972627,-197.19366413693635 A198.0,198.0,0,0,0,17.344652023603434,-197.23884771053625 C6.937860809441374,-78.8955390842145,-52.629654334051764,-59.18411513808607,-131.5741358351294,-147.96028784521516 A198.0,198.0,0,0,0,-134.5748666766135,-145.23637718895253 C-53.829946670645406,-58.094550875581014,7.1404069827890515,-78.87746565477454,17.851017456972627,-197.19366413693635 Z" fill="#1f77b4" fill-opacity="0.6" />
<path d="M18.849889266031777,-197.10068917854738 A198.0,198.0,0,0,0,17.851017456972627,-197.19366413693635 C7.1404069827890515,-78.87746565477454,-59.386604340140174,-52.40106129600474,-148.46651085035043,-131.00265324001185 A198.0,198.0,0,0,0,-163.32317722188202,-111.93542684132542 C-65.32927088875282,-44.77417073653017,7.539955706412711,-78.84027567141896,18.849889266031777,-197.10068917854738 Z" fill="#1f77b4" fill-opacity="0.6" />
<path d="M18.97172152320778,-197.08899964849854 A198.0,198.0,0,0,0,18.849889266031777,-197.10068917854738 C7.539955706412711,-78.84027567141896,-77.54647022507987,-16.09922220577137,-193.86617556269965,-40.24805551442842 A198.0,198.0,0,0,0,-195.00849312244478,-34.28830135940539 C-78.00339724897792,-13.715320543762155,7.588688609283112,-78.83559985939942,18.97172152320778,-197.08899964849854 Z" fill="#1f77b4" fill-opacity="0.6" />
<path d="M19.104724873834662,-197.07615149351554 A198.0,198.0,0,0,0,18.97172152320778,-197.08899964849854 C7.588688609283112,-78.83559985939942,-79.1296730358496,3.336891553457781,-197.824182589624,8.342228883644452 A198.0,198.0,0,0,0,-197.57061179314667,13.032780044247307 C-79.02824471725867,5.213112017698923,7.641889949533866,-78.83046059740622,19.104724873834662,-197.07615149351554 Z" fill="#1f77b4" fill-opacity="0.6" />
<path d="M19.231222286408713,-197.06384774831415 A198.0,198.0,0,0,0,19.104724873834662,-197.07615149351554 C7.641889949533866,-78.83046059740622,-70.09191004841735,36.87497994256501,-175.22977512104336,92.18744985641253 A198.0,198.0,0,0,0,-174.45462626980165,93.64605369722648 C-69.78185050792067,37.45842147889059,7.692488914563485,-78.82553909932567,19.231222286408713,-197.06384774831415 Z" fill="#1f77b4" fill-opacity="0.6" />
<path d="M19.48419328828147,-197.0389966780812 A198.0,198.0,0,0,0,19.231222286408713,-197.06384774831415 C7.692488914563485,-78.82553909932567,-46.516850065480384,64.10009875176182,-116.29212516370094,160.25024687940456 A198.0,198.0,0,0,0,-113.32232441312469,162.36394547314535 C-45.32892976524988,64.94557818925814,7.793677315312589,-78.81559867123248,19.48419328828147,-197.0389966780812 Z" fill="#1f77b4" fill-opacity="0.6" />
<path d="M19.54334631106673,-197.03313836754901 A198.0,198.0,0,0,0,19.48419328828147,-197.0389966780812 C7.793677315312589,-78.81559867123248,-21.051981508323006,76.35086164918657,-52.62995377080751,190.8771541229664 A198.0,198.0,0,0,0,-50.2887734763974,191.50728253055962 C-20.115509390558962,76.60291301222385,7.817338524426693,-78.8132553470196,19.54334631106673,-197.03313836754901 Z" fill="#1f77b4" fill-opacity="0.6" />
<path d="M22.19743906354095,-196.75180735896782 A198.0,198.0,0,0,0,19.54334631106673,-197.03313836754901 C7.817338524426693,-78.8132553470196,-17.43170731196961,77.25785125273563,-43.57926827992402,193.14462813183908 A198.0,198.0,0,0,0,-42.42335042340949,193.40180800306032 C-16.969340169363797,77.36072320122413,8.87897562541638,-78.70072294358714,22.19743906354095,-196.75180735896782 Z" fill="#1f77b4" fill-opacity="0.6" />
<path d="M22.23430454870864,-196.74764471585237 A198.0,198.0,0,0,0,22.19743906354095,-196.75180735896782 C8.87897562541638,-78.70072294358714,-12.83846587746369,78.1525034398336,-32.096164693659226,195.38125859958396 A198.0,198.0,0,0,0,-31.284434626599992,195.5128746402497 C-12.513773850639998,78.20514985609988,8.893721819483456,-78.69905788634095,22.23430454870864,-196.74764471585237 Z" fill="#1f77b4" fill-opacity="0.6" />
<path d="M22.46911447665232,-196.720967094601 A198.0,198.0,0,0,0,22.23430454870864,-196.74764471585237 C8.893721819483456,-78.69905788634095,10.577492581658134,78.49048764458638,26.443731454145333,196.22621911146595 A198.0,198.0,0,0,0,35.57109027282541,194.7785859297744 C14.228436109130165,77.91143437190976,8.987645790660928,-78.68838683784041,22.46911447665232,-196.720967094601 Z" fill="#1f77b4" fill-opacity="0.6" />
<path d="M22.526295513092556,-196.7144275605041 A198.0,198.0,0,0,0,22.46911447665232,-196.720967094601 C8.987645790660928,-78.68838683784041,17.66600701154009,77.20461253233654,44.16501752885022,193.01153133084134 A198.0,198.0,0,0,0,44.408360457419214,192.95568797390743 C17.763344182967685,77.18227518956297,9.010518205237023,-78.68577102420164,22.526295513092556,-196.7144275605041 Z" fill="#1f77b4" fill-opacity="0.6" />
<path d="M22.603534084844256,-196.70556740182846 A198.0,198.0,0,0,0,22.526295513092556,-196.7144275605041 C9.010518205237023,-78.68577102420164,27.64511292569716,74.21851340013119,69.11278231424289,185.54628350032795 A198.0,198.0,0,0,0,70.49746580421602,185.02461272810004 C28.19898632168641,74.00984509124002,9.041413633937703,-78.68222696073138,22.603534084844256,-196.70556740182846 Z" fill="#1f77b4" fill-opacity="0.6" />
<path d="M22.856042354224094,-196.67638731658133 A198.0,198.0,0,0,0,22.603534084844256,-196.70556740182846 C9.041413633937703,-78.68222696073138,45.78907155950218,64.62198484818298,114.47267889875545,161.55496212045742 A198.0,198.0,0,0,0,120.35767654359697,157.21968609886895 C48.14307061743879,62.88787443954758,9.142416941689637,-78.67055492663253,22.856042354224094,-196.67638731658133 Z" fill="#1f77b4" fill-opacity="0.6" />
<path d="M23.018591963103514,-196.65742910969865 A198.0,198.0,0,0,0,22.856042354224094,-196.67638731658133 C9.142416941689637,-78.67055492663253,70.23431280289458,36.60302316892908,175.58578200723645,91.50755792232269 A198.0,198.0,0,0,0,179.65355002173706,83.23822417968331 C71.86142000869482,33.29528967187333,9.207436785241406,-78.66297164387947,23.018591963103514,-196.65742910969865 Z" fill="#1f77b4" fill-opacity="0.6" />
<path d="M23.113472025278526,-196.64630027268927 A198.0,198.0,0,0,0,23.018591963103514,-196.65742910969865 C9.207436785241406,-78.66297164387947,78.64171942243527,9.387223566261111,196.60429855608817,23.46805891565278 A198.0,198.0,0,0,0,196.99686095641772,19.905697006581395 C78.7987443825671,7.962278802632558,9.245388810111411,-78.65852010907571,23.113472025278526,-196.64630027268927 Z" fill="#1f77b4" fill-opacity="0.6" />
<path d="M24.75357898175674,-196.44658390410848 A198.0,198.0,0,0,0,23.113472025278526,-196.64630027268927 C9.245388810111411,-78.65852010907571,79.193252090363,1.033839132658329,197.9831302259075,2.584597831645822 A198.0,198.0,0,0,0,197.98906087667666,2.0812912270086046 C79.19562435067067,0.8325164908034419,9.901431592702696,-78.5786335616434,24.75357898175674,-196.44658390410848 Z" fill="#1f77b4" fill-opacity="0.6" />
<path d="M3.6360486149090003,-197.9666112011569 A198.0,198.0,0,0,0,3.610830999676302,-197.9670727658814 C1.4443323998705209,-79.18682910635256,-52.62887267049719,-59.18481022553502,-131.57218167624296,-147.96202556383753 A198.0,198.0,0,0,0,-131.5741358351294,-147.96028784521516 C-52.629654334051764,-59.18411513808607,1.4544194459636002,-79.18664448046276,3.6360486149090003,-197.9666112011569 Z" fill="#2ca02c" fill-opacity="0.6" />
<path d="M3.6486574004259054,-197.96637921418454 A198.0,198.0,0,0,0,3.6360486149090003,-197.9666112011569 C1.4544194459636002,-79.18664448046276,-46.51733582461616,64.09974623803032,-116.29333956154039,160.2493655950758 A198.0,198.0,0,0,0,-116.29212516370094,160.25024687940456 C-46.516850065480384,64.10009875176182,1.4594629601703621,-79.18655168567382,3.6486574004259054,-197.96637921418454 Z" fill="#d62728" fill-opacity="0.6" />
<path d="M3.6612661711415915,-197.96614642414005 A198.0,198.0,0,0,0,3.6486574004259054,-197.96637921418454 C1.4594629601703621,-79.18655168567382,-17.431918334898434,77.25780363927926,-43.57979583724608,193.14450909819814 A198.0,198.0,0,0,0,-43.57926827992402,193.14462813183908 C-17.43170731196961,77.25785125273563,1.4645064684566367,-79.18645856965603,3.6612661711415915,-197.96614642414005 Z" fill="#9467bd" fill-opacity="0.6" />
<path d="M3.7747444330905857,-197.96401517564965 A198.0,198.0,0,0,0,3.6612661711415915,-197.96614642414005 C1.4645064684566367,-79.18645856965603,10.573220077998299,78.49106329501603,26.433050194995744,196.22765823754008 A198.0,198.0,0,0,0,26.443731454145333,196.22621911146595 C10.577492581658134,78.49048764458638,1.5098977732362344,-79.18560607025987,3.7747444330905857,-197.96401517564965 Z" fill="#9467bd" fill-opacity="0.6" />
<path d="M3.7873530529813393,-197.96377435493613 A198.0,198.0,0,0,0,3.7747444330905857,-197.96401517564965 C1.5098977732362344,-79.18560607025987,45.78871128449117,64.62224012602404,114.47177821122793,161.55560031506008 A198.0,198.0,0,0,0,114.47267889875545,161.55496212045742 C45.78907155950218,64.62198484818298,1.5149412211925357,-79.18550974197446,3.7873530529813393,-197.96377435493613 Z" fill="#8c564b" fill-opacity="0.6" />
<path d="M3.799961657508327,-197.96353273116102 A198.0,198.0,0,0,0,3.7873530529813393,-197.96377435493613 C1.5149412211925357,-79.18550974197446,78.64166495786272,9.387679833444869,196.60416239465678,23.46919958361217 A198.0,198.0,0,0,0,196.60429855608817,23.46805891565278 C78.64171942243527,9.387223566261111,1.519984663003331,-79.18541309246442,3.799961657508327,-197.96353273116102 Z" fill="#e377c2" fill-opacity="0.6" />
<path d="M3.863004447895848,-197.96231256639618 A198.0,198.0,0,0,0,3.799961657508327,-197.96353273116102 C1.519984663003331,-79.18541309246442,79.19324448902631,1.034421239778024,197.98311122256578,2.58605309944506 A198.0,198.0,0,0,0,197.9831302259075,2.584597831645822 C79.193252090363,1.033839132658329,1.5452017791583392,-79.18492502655847,3.863004447895848,-197.96231256639618 Z" fill="#e377c2" fill-opacity="0.6" />
<path d="M-5.039782621821594,-197.93584968652036 A198.0,198.0,0,0,0,-5.051777570624539,-197.93554391108466 C-2.0207110282498157,-79.17421756443387,-79.12969055286322,3.3364761363012954,-197.82422638215806,8.341190340753238 A198.0,198.0,0,0,0,-197.824182589624,8.342228883644452 C-79.1296730358496,3.336891553457781,-2.015913048728638,-79.17433987460815,-5.039782621821594,-197.93584968652036 Z" fill="#d62728" fill-opacity="0.6" />
<path d="M-5.027787654510611,-197.9361547350588 A198.0,198.0,0,0,0,-5.039782621821594,-197.93584968652036 C-2.015913048728638,-79.17433987460815,-70.092191386448,36.87444517068083,-175.23047846612,92.18611292670207 A198.0,198.0,0,0,0,-175.22977512104336,92.18744985641253 C-70.09191004841735,36.87497994256501,-2.0111150618042446,-79.17446189402352,-5.027787654510611,-197.9361547350588 Z" fill="#d62728" fill-opacity="0.6" />
<path d="M-5.015792668735687,-197.93645905669894 A198.0,198.0,0,0,0,-5.027787654510611,-197.9361547350588 C-2.0111150618042446,-79.17446189402352,-46.51780488846276,64.09940583467923,-116.29451222115691,160.24851458669806 A198.0,198.0,0,0,0,-116.29333956154039,160.2493655950758 C-46.51733582461616,64.09974623803032,-2.0063170674942747,-79.17458362267958,-5.015792668735687,-197.93645905669894 Z" fill="#d62728" fill-opacity="0.6" />
<path d="M-4.907836973149927,-197.93916524085117 A198.0,198.0,0,0,0,-5.015792668735687,-197.93645905669894 C-2.0063170674942747,-79.17458362267958,10.569094366038122,78.4916189429278,26.422735915095302,196.22904735731947 A198.0,198.0,0,0,0,26.433050194995744,196.22765823754008 C10.573220077998299,78.49106329501603,-1.963134789259971,-79.17566609634048,-4.907836973149927,-197.93916524085117 Z" fill="#9467bd" fill-opacity="0.6" />
<path d="M-4.883846619186376,-197.93975861913205 A198.0,198.0,0,0,0,-4.907836973149927,-197.93916524085117 C-1.963134789259971,-79.17566609634048,78.64155976449422,9.388561008348608,196.60389941123555,23.47140252087152 A198.0,198.0,0,0,0,196.60416239465678,23.46919958361217 C78.64166495786272,9.387679833444869,-1.9535386476745504,-79.17590344765283,-4.883846619186376,-197.93975861913205 Z" fill="#e377c2" fill-opacity="0.6" />
<path d="M-4.859856193481353,-197.94034908976664 A198.0,198.0,0,0,0,-4.883846619186376,-197.93975861913205 C-1.9535386476745504,-79.17590344765283,79.19324155183185,1.0346460811385094,197.9831038795796,2.5866152028462737 A198.0,198.0,0,0,0,197.98311122256578,2.58605309944506 C79.19324448902631,1.034421239778024,-1.9439424773925413,-79.17613963590667,-4.859856193481353,-197.94034908976664 Z" fill="#e377c2" fill-opacity="0.6" />
<path d="M-13.986030371130365,-197.50542006349554 A198.0,198.0,0,0,0,-14.02427577494693,-197.50270805482197 C-5.609710309978772,-79.0010832219288,-52.6276853693742,-59.185865987262176,-131.56921342343549,-147.96466496815543 A198.0,198.0,0,0,0,-131.57218167624296,-147.96202556383753 C-52.62887267049719,-59.18481022553502,-5.594412148452147,-79.00216802539822,-13.986030371130365,-197.50542006349554 Z" fill="#2ca02c" fill-opacity="0.6" />
<path d="M-13.97328178657707,-197.50632242060738 A198.0,198.0,0,0,0,-13.986030371130365,-197.50542006349554 C-5.594412148452147,-79.00216802539822,-46.51829676895596,64.09904886747807,-116.2957419223899,160.2476221686952 A198.0,198.0,0,0,0,-116.29451222115691,160.24851458669806 C-46.51780488846276,64.09940583467923,-5.589312714630829,-79.00252896824296,-13.97328178657707,-197.50632242060738 Z" fill="#d62728" fill-opacity="0.6" />
<path d="M-13.896789058524307,-197.5117192823324 A198.0,198.0,0,0,0,-13.97328178657707,-197.50632242060738 C-5.589312714630829,-79.00252896824296,10.566210067180148,78.49200726708563,26.415525167950367,196.23001816771404 A198.0,198.0,0,0,0,26.422735915095302,196.22904735731947 C10.569094366038122,78.4916189429278,-5.558715623409723,-79.00468771293296,-13.896789058524307,-197.5117192823324 Z" fill="#9467bd" fill-opacity="0.6" />
<path d="M-13.88404006755577,-197.51261587909391 A198.0,198.0,0,0,0,-13.896789058524307,-197.5117192823324 C-5.558715623409723,-79.00468771293296,45.78834646402072,64.62249862153894,114.4708661600518,161.55624655384733 A198.0,198.0,0,0,0,114.47177821122793,161.55560031506008 C45.78871128449117,64.62224012602404,-5.553616027022308,-79.00504635163757,-13.88404006755577,-197.51261587909391 Z" fill="#8c564b" fill-opacity="0.6" />
<path d="M-13.845792747781394,-197.5153007318306 A198.0,198.0,0,0,0,-13.88404006755577,-197.51261587909391 C-5.553616027022308,-79.00504635163757,78.64139427818854,9.389947070271324,196.60348569547133,23.474867675678308 A198.0,198.0,0,0,0,196.60389941123555,23.47140252087152 C78.64155976449422,9.388561008348608,-5.538317099112557,-79.00612029273225,-13.845792747781394,-197.5153007318306 Z" fill="#e377c2" fill-opacity="0.6" />
<path d="M-13.833043525744133,-197.5161940368811 A198.0,198.0,0,0,0,-13.845792747781394,-197.5153007318306 C-5.538317099112557,-79.00612029273225,79.19324001153423,1.0347639709296164,197.98310002883557,2.5869099273240406 A198.0,198.0,0,0,0,197.9831038795796,2.5866152028462737 C79.19324155183185,1.0346460811385094,-5.533217410297653,-79.00647761475244,-13.833043525744133,-197.5161940368811 Z" fill="#e377c2" fill-opacity="0.6" />
<path d="M-67.44526932865749,-186.15889891483795 A198.0,198.0,0,0,0,-75.25926932261815,-183.1394069582667 C-30.10370772904726,-73.25576278330668,-52.59840450185908,-59.2118893792354,-131.4960112546477,-148.0297234480885 A198.0,198.0,0,0,0,-131.56921342343549,-147.96466496815543 C-52.6276853693742,-59.185865987262176,-26.978107731463,-74.46355956593518,-67.44526932865749,-186.15889891483795 Z" fill="#2ca02c" fill-opacity="0.6" />
<path d="M-67.14027393278086,-186.26911610954497 A198.0,198.0,0,0,0,-67.44526932865749,-186.15889891483795 C-26.978107731463,-74.46355956593518,-59.27815103354248,-52.523716643479524,-148.19537758385619,-131.3092916086988 A198.0,198.0,0,0,0,-148.46651085035043,-131.00265324001185 C-59.386604340140174,-52.40106129600474,-26.856109573112345,-74.50764644381799,-67.14027393278086,-186.26911610954497 Z" fill="#2ca02c" fill-opacity="0.6" />
<path d="M-67.03856873532642,-186.30574414633307 A198.0,198.0,0,0,0,-67.14027393278086,-186.26911610954497 C-26.856109573112345,-74.50764644381799,-77.54635091685645,-16.09979687697203,-193.8658772921411,-40.24949219243007 A198.0,198.0,0,0,0,-193.86617556269965,-40.24805551442842 C-77.54647022507987,-16.09922220577137,-26.81542749413057,-74.52229765853323,-67.03856873532642,-186.30574414633307 Z" fill="#d62728" fill-opacity="0.6" />
<path d="M-66.73333337089097,-186.4152950195062 A198.0,198.0,0,0,0,-67.03856873532642,-186.30574414633307 C-26.81542749413057,-74.52229765853323,-17.432530173644007,77.25766558565559,-43.58132543411001,193.14416396413895 A198.0,198.0,0,0,0,-43.57979583724608,193.14450909819814 C-17.431918334898434,77.25780363927926,-26.69333334835639,-74.56611800780249,-66.73333337089097,-186.4152950195062 Z" fill="#9467bd" fill-opacity="0.6" />
<path d="M-66.68244338319474,-186.4335048869892 A198.0,198.0,0,0,0,-66.73333337089097,-186.4152950195062 C-26.69333334835639,-74.56611800780249,10.565980661886238,78.49203814816282,26.414951654715594,196.23009537040704 A198.0,198.0,0,0,0,26.415525167950367,196.23001816771404 C10.566210067180148,78.49200726708563,-26.672977353277897,-74.57340195479568,-66.68244338319474,-186.4335048869892 Z" fill="#9467bd" fill-opacity="0.6" />
<path d="M-66.58064850453701,-186.4698829428369 A198.0,198.0,0,0,0,-66.68244338319474,-186.4335048869892 C-26.672977353277897,-74.57340195479568,79.19323854126708,1.0348764882689425,197.98309635316767,2.587191220672356 A198.0,198.0,0,0,0,197.98310002883557,2.5869099273240406 C79.19324001153423,1.0347639709296164,-26.632259401814807,-74.58795317713476,-66.58064850453701,-186.4698829428369 Z" fill="#e377c2" fill-opacity="0.6" />
<path d="M-136.9828113287485,-142.96751169574327 A198.0,198.0,0,0,0,-136.99898975729752,-142.95200874936975 C-54.79959590291901,-57.1808034997479,-58.9413321497516,-52.90141174309679,-147.353330374379,-132.25352935774197 A198.0,198.0,0,0,0,-148.19537758385619,-131.3092916086988 C-59.27815103354248,-52.523716643479524,-54.79312453149941,-57.18700467829731,-136.9828113287485,-142.96751169574327 Z" fill="#2ca02c" fill-opacity="0.6" />
<path d="M-134.96723220849682,-144.8718269021886 A198.0,198.0,0,0,0,-136.9828113287485,-142.96751169574327 C-54.79312453149941,-57.18700467829731,-79.1300747162334,3.3273526118104755,-197.82518679058347,8.318381529526189 A198.0,198.0,0,0,0,-197.82422638215806,8.341190340753238 C-79.12969055286322,3.3364761363012954,-53.98689288339873,-57.948730760875435,-134.96723220849682,-144.8718269021886 Z" fill="#d62728" fill-opacity="0.6" />
<path d="M-134.88917875523362,-144.94450474143073 A198.0,198.0,0,0,0,-134.96723220849682,-144.8718269021886 C-53.98689288339873,-57.948730760875435,-70.10616905786081,36.84786371054151,-175.265422644652,92.11965927635377 A198.0,198.0,0,0,0,-175.23047846612,92.18611292670207 C-70.092191386448,36.87444517068083,-53.95567150209345,-57.977801896572295,-134.88917875523362,-144.94450474143073 Z" fill="#d62728" fill-opacity="0.6" />
<path d="M-134.81108616604527,-145.01714052735667 A198.0,198.0,0,0,0,-134.88917875523362,-144.94450474143073 C-53.95567150209345,-57.977801896572295,-17.43270229934465,77.25762674676479,-43.58175574836163,193.14406686691194 A198.0,198.0,0,0,0,-43.58132543411001,193.14416396413895 C-17.432530173644007,77.25766558565559,-53.92443446641811,-58.00685621094267,-134.81108616604527,-145.01714052735667 Z" fill="#9467bd" fill-opacity="0.6" />
<path d="M-134.73295446358912,-145.0897342388924 A198.0,198.0,0,0,0,-134.81108616604527,-145.01714052735667 C-53.92443446641811,-58.00685621094267,10.565593436199933,78.49209027246586,26.413983590499832,196.23022568116463 A198.0,198.0,0,0,0,26.414951654715594,196.23009537040704 C10.565980661886238,78.49203814816282,-53.89318178543565,-58.03589369555696,-134.73295446358912,-145.0897342388924 Z" fill="#9467bd" fill-opacity="0.6" />
<path d="M-134.7321196363618,-145.0905094700997 A198.0,198.0,0,0,0,-134.73295446358912,-145.0897342388924 C-53.89318178543565,-58.03589369555696,45.75694947125393,64.64473354485357,114.39237367813483,161.6118338621339 A198.0,198.0,0,0,0,114.4708661600518,161.55624655384733 C45.78834646402072,64.62249862153894,-53.892847854544726,-58.036203788039884,-134.7321196363618,-145.0905094700997 Z" fill="#2ca02c" fill-opacity="0.6" />
<path d="M-163.51227025651843,-111.65902326081525 A198.0,198.0,0,0,0,-163.515835839179,-111.65380168097575 C-65.4063343356716,-44.6615206723903,-79.14470990761879,2.9588669518702795,-197.86177476904695,7.3971673796756985 A198.0,198.0,0,0,0,-197.82518679058347,8.318381529526189 C-79.1300747162334,3.3273526118104755,-65.40490810260738,-44.6636093043261,-163.51227025651843,-111.65902326081525 Z" fill="#2ca02c" fill-opacity="0.6" />
<path d="M-163.4912830095629,-111.68975055880021 A198.0,198.0,0,0,0,-163.51227025651843,-111.65902326081525 C-65.40490810260738,-44.6636093043261,-70.10631580126365,36.84758451748897,-175.2657895031591,92.11896129372242 A198.0,198.0,0,0,0,-175.265422644652,92.11965927635377 C-70.10616905786081,36.84786371054151,-65.39651320382517,-44.67590022352009,-163.4912830095629,-111.68975055880021 Z" fill="#d62728" fill-opacity="0.6" />
<path d="M-163.40727628628298,-111.81262029260553 A198.0,198.0,0,0,0,-163.4912830095629,-111.68975055880021 C-65.39651320382517,-44.67590022352009,10.56463631044069,78.49221910245701,26.411590776101725,196.23054775614253 A198.0,198.0,0,0,0,26.413983590499832,196.23022568116463 C10.565593436199933,78.49209027246586,-65.36291051451319,-44.72504811704221,-163.40727628628298,-111.81262029260553 Z" fill="#9467bd" fill-opacity="0.6" />
<path d="M-163.3652382937536,-111.87403146943934 A198.0,198.0,0,0,0,-163.40727628628298,-111.81262029260553 C-65.36291051451319,-44.72504811704221,70.2339914353975,36.60363980606998,175.58497858849375,91.50909951517494 A198.0,198.0,0,0,0,175.58578200723645,91.50755792232269 C70.23431280289458,36.60302316892908,-65.34609531750145,-44.749612587775744,-163.3652382937536,-111.87403146943934 Z" fill="#e377c2" fill-opacity="0.6" />
<path d="M-195.20499124098973,-33.151340766326754 A198.0,198.0,0,0,0,-195.2059242070671,-33.14584671515834 C-78.08236968282685,-13.258338686063338,-79.1504568677924,2.8009244223537126,-197.87614216948097,7.002311055884281 A198.0,198.0,0,0,0,-197.86177476904695,7.3971673796756985 C-79.14470990761879,2.9588669518702795,-78.0819964963959,-13.260536306530703,-195.20499124098973,-33.151340766326754 Z" fill="#d62728" fill-opacity="0.6" />
<path d="M-195.16814671214905,-33.36756672196907 A198.0,198.0,0,0,0,-195.20499124098973,-33.151340766326754 C-78.0819964963959,-13.260536306530703,-76.06768046271826,22.053298824026157,-190.16920115679562,55.133247060065386 A198.0,198.0,0,0,0,-175.2657895031591,92.11896129372242 C-70.10631580126365,36.84758451748897,-78.06725868485962,-13.34702668878763,-195.16814671214905,-33.36756672196907 Z" fill="#d62728" fill-opacity="0.6" />
<path d="M-195.14345062871828,-33.511694626159894 A198.0,198.0,0,0,0,-195.16814671214905,-33.36756672196907 C-78.06725868485962,-13.34702668878763,-46.65586590189132,63.998985749343994,-116.63966475472829,159.99746437335997 A198.0,198.0,0,0,0,-116.2957419223899,160.2476221686952 C-46.51829676895596,64.09904886747807,-78.05738025148732,-13.404677850463958,-195.14345062871828,-33.511694626159894 Z" fill="#d62728" fill-opacity="0.6" />
<path d="M-195.14220341081747,-33.51895654657437 A198.0,198.0,0,0,0,-195.14345062871828,-33.511694626159894 C-78.05738025148732,-13.404677850463958,-21.285611809061468,76.28605855537396,-53.21402952265367,190.71514638843487 A198.0,198.0,0,0,0,-52.62995377080751,190.8771541229664 C-21.051981508323006,76.35086164918657,-78.056881364327,-13.40758261862975,-195.14220341081747,-33.51895654657437 Z" fill="#d62728" fill-opacity="0.6" />
<path d="M-195.13616163708437,-33.554111842599625 A198.0,198.0,0,0,0,-195.14220341081747,-33.51895654657437 C-78.056881364327,-13.40758261862975,17.5442960653714,77.23236158224475,43.8607401634285,193.08090395561186 A198.0,198.0,0,0,0,44.16501752885022,193.01153133084134 C17.66600701154009,77.20461253233654,-78.05446465483375,-13.42164473703985,-195.13616163708437,-33.554111842599625 Z" fill="#d62728" fill-opacity="0.6" />
<path d="M-195.13591038057157,-33.55557300874972 A198.0,198.0,0,0,0,-195.13616163708437,-33.554111842599625 C-78.05446465483375,-13.42164473703985,27.62377907135366,74.226456400781,69.05944767838415,185.5661410019525 A198.0,198.0,0,0,0,69.11278231424289,185.54628350032795 C27.64511292569716,74.21851340013119,-78.05436415222863,-13.422229203499889,-195.13591038057157,-33.55557300874972 Z" fill="#d62728" fill-opacity="0.6" />
<path d="M-195.13434085104626,-33.56469902483401 A198.0,198.0,0,0,0,-195.13591038057157,-33.55557300874972 C-78.05436415222863,-13.422229203499889,45.536868611956905,64.79995059425103,113.84217152989225,161.99987648562757 A198.0,198.0,0,0,0,114.39237367813483,161.6118338621339 C45.75694947125393,64.64473354485357,-78.05373634041851,-13.425879609933606,-195.13434085104626,-33.56469902483401 Z" fill="#d62728" fill-opacity="0.6" />
<path d="M-195.00906850702938,-34.28502880297349 A198.0,198.0,0,0,0,-195.13434085104626,-33.56469902483401 C-78.05373634041851,-13.425879609933606,70.20776071618205,36.65392660028831,175.51940179045513,91.63481650072077 A198.0,198.0,0,0,0,175.58497858849375,91.50909951517494 C70.2339914353975,36.60363980606998,-78.00362740281176,-13.714011521189398,-195.00906850702938,-34.28502880297349 Z" fill="#e377c2" fill-opacity="0.6" />
<path d="M-195.00884379604176,-34.28630690714571 A198.0,198.0,0,0,0,-195.00906850702938,-34.28502880297349 C-78.00362740281176,-13.714011521189398,78.63672799582625,9.428945333940396,196.5918199895656,23.57236333485099 A198.0,198.0,0,0,0,196.60348569547133,23.474867675678308 C78.64139427818854,9.389947070271324,-78.0035375184167,-13.714522762858284,-195.00884379604176,-34.28630690714571 Z" fill="#d62728" fill-opacity="0.6" />
<path d="M-197.35317726499014,15.991354645975893 A198.0,198.0,0,0,0,-196.21148636715287,26.55282692280769 C-78.48459454686116,10.621130769123077,-76.08485472064515,21.993973768701302,-190.21213680161287,54.98493442175325 A198.0,198.0,0,0,0,-190.16920115679562,55.133247060065386 C-76.06768046271826,22.053298824026157,-78.94127090599606,6.396541858390357,-197.35317726499014,15.991354645975893 Z" fill="#d62728" fill-opacity="0.6" />
<path d="M-197.3742769146624,15.728789286342575 A198.0,198.0,0,0,0,-197.35317726499014,15.991354645975893 C-78.94127090599606,6.396541858390357,-46.65705268669562,63.998120555145285,-116.64263171673905,159.9953013878632 A198.0,198.0,0,0,0,-116.63966475472829,159.99746437335997 C-46.65586590189132,63.998985749343994,-78.94971076586496,6.291515714537031,-197.3742769146624,15.728789286342575 Z" fill="#d62728" fill-opacity="0.6" />
<path d="M-197.55435694908834,13.276899127137673 A198.0,198.0,0,0,0,-197.3742769146624,15.728789286342575 C-78.94971076586496,6.291515714537031,-21.308963904225937,76.27953891659543,-53.27240976056484,190.69884729148856 A198.0,198.0,0,0,0,-53.21402952265367,190.71514638843487 C-21.285611809061468,76.28605855537396,-79.02174277963535,5.310759650855069,-197.55435694908834,13.276899127137673 Z" fill="#d62728" fill-opacity="0.6" />
<path d="M-197.55729594122914,13.233095646507339 A198.0,198.0,0,0,0,-197.55435694908834,13.276899127137673 C-79.02174277963535,5.310759650855069,10.564442697183333,78.49224516153129,26.41110674295833,196.2306129038282 A198.0,198.0,0,0,0,26.411590776101725,196.23054775614253 C10.56463631044069,78.49221910245701,-79.02291837649166,5.293238258602936,-197.55729594122914,13.233095646507339 Z" fill="#9467bd" fill-opacity="0.6" />
<path d="M-197.55743115630898,13.231076861701029 A198.0,198.0,0,0,0,-197.55729594122914,13.233095646507339 C-79.02291837649166,5.293238258602936,17.534557302732832,77.23457321819795,43.83639325683208,193.08643304549486 A198.0,198.0,0,0,0,43.8607401634285,193.08090395561186 C17.5442960653714,77.23236158224475,-79.0229724625236,5.292430744680412,-197.55743115630898,13.231076861701029 Z" fill="#d62728" fill-opacity="0.6" />
<path d="M-197.5589752074152,13.20800193049346 A198.0,198.0,0,0,0,-197.55743115630898,13.231076861701029 C-79.0229724625236,5.292430744680412,27.153860006556155,74.39964977568343,67.88465001639038,185.99912443920857 A198.0,198.0,0,0,0,69.05944767838415,185.5661410019525 C27.62377907135366,74.226456400781,-79.02359008296608,5.283200772197384,-197.5589752074152,13.20800193049346 Z" fill="#d62728" fill-opacity="0.6" />
<path d="M-197.5648129260016,13.120392277443564 A198.0,198.0,0,0,0,-197.5589752074152,13.20800193049346 C-79.02359008296608,5.283200772197384,70.2075003224981,36.65442535992657,175.51875080624527,91.63606339981642 A198.0,198.0,0,0,0,175.51940179045513,91.63481650072077 C70.20776071618205,36.65392660028831,-79.02592517040064,5.248156910977426,-197.5648129260016,13.120392277443564 Z" fill="#e377c2" fill-opacity="0.6" />
<path d="M-197.57061179314667,13.032780044247307 A198.0,198.0,0,0,0,-197.5648129260016,13.120392277443564 C-79.02592517040064,5.248156910977426,79.19323730027133,1.0349714502887442,197.98309325067834,2.58742862572186 A198.0,198.0,0,0,0,197.98309635316767,2.587191220672356 C79.19323854126708,1.0348764882689425,-79.02824471725867,5.213112017698923,-197.57061179314667,13.032780044247307 Z" fill="#e377c2" fill-opacity="0.6" />
<path d="M-172.95025629639116,96.39610389954883 A198.0,198.0,0,0,0,-165.43882486927922,108.78416808466183 C-66.1755299477117,43.51366723386474,-48.86668530065748,62.32725782293417,-122.16671325164369,155.81814455733542 A198.0,198.0,0,0,0,-116.64263171673905,159.9953013878632 C-46.65705268669562,63.998120555145285,-69.18010251855647,38.558441559819535,-172.95025629639116,96.39610389954883 Z" fill="#d62728" fill-opacity="0.6" />
<path d="M-172.95247406377698,96.39212475725675 A198.0,198.0,0,0,0,-172.95025629639116,96.39610389954883 C-69.18010251855647,38.558441559819535,-21.449034463300503,76.2402709897607,-53.62258615825125,190.60067747440175 A198.0,198.0,0,0,0,-53.27240976056484,190.69884729148856 C-21.308963904225937,76.27953891659543,-69.18098962551079,38.556849902902705,-172.95247406377698,96.39212475725675 Z" fill="#d62728" fill-opacity="0.6" />
<path d="M-172.96497969370006,96.36968298981753 A198.0,198.0,0,0,0,-172.95247406377698,96.39212475725675 C-69.18098962551079,38.556849902902705,-17.77906836141201,77.17865461512166,-44.44767090353002,192.94663653780412 A198.0,198.0,0,0,0,-43.58175574836163,193.14406686691194 C-17.43270229934465,77.25762674676479,-69.18599187748002,38.54787319592702,-172.96497969370006,96.36968298981753 Z" fill="#d62728" fill-opacity="0.6" />
<path d="M-173.32442311308586,95.72170262023124 A198.0,198.0,0,0,0,-172.96497969370006,96.36968298981753 C-69.18599187748002,38.54787319592702,15.071915285441092,77.75266792611356,37.67978821360273,194.38166981528389 A198.0,198.0,0,0,0,43.83639325683208,193.08643304549486 C17.534557302732832,77.23457321819795,-69.32976924523435,38.2886810480925,-173.32442311308586,95.72170262023124 Z" fill="#d62728" fill-opacity="0.6" />
<path d="M-173.34177650726238,95.69027389085215 A198.0,198.0,0,0,0,-173.32442311308586,95.72170262023124 C-69.32976924523435,38.2886810480925,26.650702124999647,74.58136547586494,66.62675531249911,186.45341368966234 A198.0,198.0,0,0,0,67.88465001639038,185.99912443920857 C27.153860006556155,74.39964977568343,-69.33671060290496,38.27610955634086,-173.34177650726238,95.69027389085215 Z" fill="#d62728" fill-opacity="0.6" />
<path d="M-173.37804959192508,95.6245361803129 A198.0,198.0,0,0,0,-173.34177650726238,95.69027389085215 C-69.33671060290496,38.27610955634086,45.03185360302512,65.15191601998912,112.57963400756279,162.8797900499728 A198.0,198.0,0,0,0,113.84217152989225,161.99987648562757 C45.536868611956905,64.79995059425103,-69.35121983677003,38.24981447212516,-173.37804959192508,95.6245361803129 Z" fill="#d62728" fill-opacity="0.6" />
<path d="M-174.45462626980165,93.64605369722648 A198.0,198.0,0,0,0,-173.37804959192508,95.6245361803129 C-69.35121983677003,38.24981447212516,70.19437128167657,36.6795616163844,175.48592820419142,91.698904040961 A198.0,198.0,0,0,0,175.51875080624527,91.63606339981642 C70.2075003224981,36.65442535992657,-69.78185050792067,37.45842147889059,-174.45462626980165,93.64605369722648 Z" fill="#e377c2" fill-opacity="0.6" />
<path d="M-112.8296305908442,162.70671301680713 A198.0,198.0,0,0,0,-112.82484328561678,162.7100326887559 C-45.12993731424672,65.08401307550236,-21.635682564494118,76.18751367493525,-54.08920641123529,190.46878418733812 A198.0,198.0,0,0,0,-53.62258615825125,190.60067747440175 C-21.449034463300503,76.2402709897607,-45.131852236337686,65.08268520672286,-112.8296305908442,162.70671301680713 Z" fill="#d62728" fill-opacity="0.6" />
<path d="M-112.83078937621434,162.70590944627781 A198.0,198.0,0,0,0,-112.8296305908442,162.70671301680713 C-45.131852236337686,65.08268520672286,15.067013139852214,77.75361801899331,37.66753284963053,194.38404504748326 A198.0,198.0,0,0,0,37.67978821360273,194.38166981528389 C15.071915285441092,77.75266792611356,-45.13231575048574,65.08236377851112,-112.83078937621434,162.70590944627781 Z" fill="#d62728" fill-opacity="0.6" />
<path d="M-113.12079468683955,162.5044178150794 A198.0,198.0,0,0,0,-112.83078937621434,162.70590944627781 C-45.13231575048574,65.08236377851112,21.424598436259874,76.24714146671343,53.56149609064968,190.61785366678356 A198.0,198.0,0,0,0,66.62675531249911,186.45341368966234 C26.650702124999647,74.58136547586494,-45.24831787473582,65.00176712603177,-113.12079468683955,162.5044178150794 Z" fill="#d62728" fill-opacity="0.6" />
<path d="M-113.1706520267998,162.46970031310144 A198.0,198.0,0,0,0,-113.12079468683955,162.5044178150794 C-45.24831787473582,65.00176712603177,44.01369335695867,65.8440186887132,110.03423339239667,164.610046721783 A198.0,198.0,0,0,0,112.57963400756279,162.8797900499728 C45.03185360302512,65.15191601998912,-45.26826081071992,64.98788012524058,-113.1706520267998,162.46970031310144 Z" fill="#d62728" fill-opacity="0.6" />
<path d="M-113.32016009776119,162.36545604104887 A198.0,198.0,0,0,0,-113.1706520267998,162.46970031310144 C-45.26826081071992,64.98788012524058,79.19323545197801,1.0351128670691851,197.98308862994503,2.587782167672963 A198.0,198.0,0,0,0,197.98309325067834,2.58742862572186 C79.19323730027133,1.0349714502887442,-45.328064039104476,64.94618241641955,-113.32016009776119,162.36545604104887 Z" fill="#e377c2" fill-opacity="0.6" />
<path d="M-50.21380099813501,191.5269542109405 A198.0,198.0,0,0,0,-50.15516739906025,191.542316951561 C-20.0620669596241,76.6169267806244,10.564212300667277,78.49227617075728,26.41053075166819,196.23069042689318 A198.0,198.0,0,0,0,26.41110674295833,196.2306129038282 C10.564442697183333,78.49224516153129,-20.085520399254005,76.61078168437619,-50.21380099813501,191.5269542109405 Z" fill="#9467bd" fill-opacity="0.6" />
<path d="M-50.214936364881524,191.5266565412525 A198.0,198.0,0,0,0,-50.21380099813501,191.5269542109405 C-20.085520399254005,76.61078168437619,15.062110934372042,77.75456780280288,37.6552773359301,194.3864195070072 A198.0,198.0,0,0,0,37.66753284963053,194.38404504748326 C15.067013139852214,77.75361801899331,-20.08597454595261,76.610662616501,-50.214936364881524,191.5266565412525 Z" fill="#d62728" fill-opacity="0.6" />
<path d="M-50.22909328319206,191.52294428592202 A198.0,198.0,0,0,0,-50.214936364881524,191.5266565412525 C-20.08597454595261,76.610662616501,21.161481873017877,76.32058493576903,52.90370468254469,190.80146233942259 A198.0,198.0,0,0,0,53.56149609064968,190.61785366678356 C21.424598436259874,76.24714146671343,-20.091637313276824,76.60917771436881,-50.22909328319206,191.52294428592202 Z" fill="#d62728" fill-opacity="0.6" />
<path d="M-50.23014589580876,191.52266822307422 A198.0,198.0,0,0,0,-50.22909328319206,191.52294428592202 C-20.091637313276824,76.60917771436881,43.981703197298934,65.8653913968839,109.95425799324732,164.66347849220972 A198.0,198.0,0,0,0,110.03423339239667,164.610046721783 C44.01369335695867,65.8440186887132,-20.092058358323506,76.60906728922969,-50.23014589580876,191.52266822307422 Z" fill="#d62728" fill-opacity="0.6" />
<path d="M-50.2887734763974,191.50728253055962 A198.0,198.0,0,0,0,-50.23014589580876,191.52266822307422 C-20.092058358323506,76.60906728922969,70.19421624175476,36.679858317689465,175.4855406043869,91.69964579422366 A198.0,198.0,0,0,0,175.48592820419142,91.698904040961 C70.19437128167657,36.6795616163844,-20.115509390558962,76.60291301222385,-50.2887734763974,191.50728253055962 Z" fill="#e377c2" fill-opacity="0.6" />
<path d="M-41.623381025837546,193.57555153473785 A198.0,198.0,0,0,0,-41.622864694157315,193.57566255769828 C-16.649145877662928,77.43026502307931,21.139544085671652,76.32666425208129,52.848860214179126,190.81666063020322 A198.0,198.0,0,0,0,52.90370468254469,190.80146233942259 C21.161481873017877,76.32058493576903,-16.64935241033502,77.43022061389514,-41.623381025837546,193.57555153473785 Z" fill="#9467bd" fill-opacity="0.6" />
<path d="M-41.62729373009449,193.57471016821498 A198.0,198.0,0,0,0,-41.623381025837546,193.57555153473785 C-16.64935241033502,77.43022061389514,69.95635432260767,37.13150266134907,174.89088580651915,92.82875665337266 A198.0,198.0,0,0,0,175.4855406043869,91.69964579422366 C70.19421624175476,36.679858317689465,-16.6509174920378,77.429884067286,-41.62729373009449,193.57471016821498 Z" fill="#9467bd" fill-opacity="0.6" />
<path d="M-41.651412522593034,193.56952196787793 A198.0,198.0,0,0,0,-41.62729373009449,193.57471016821498 C-16.6509174920378,77.429884067286,79.19228311865662,1.1055742645951514,197.98070779664152,2.7639356614878783 A198.0,198.0,0,0,0,197.98308862994503,2.587782167672963 C79.19323545197801,1.0351128670691851,-16.660565009037214,77.42780878715118,-41.651412522593034,193.56952196787793 Z" fill="#9467bd" fill-opacity="0.6" />
<path d="M-31.065796868280632,195.54773398057753 A198.0,198.0,0,0,0,-31.003322438516662,195.55764878360898 C-12.401328975406665,78.2230595134436,10.563769847401062,78.49233571891679,26.40942461850265,196.23083929729196 A198.0,198.0,0,0,0,26.41053075166819,196.23069042689318 C10.564212300667277,78.49227617075728,-12.426318747312253,78.21909359223102,-31.065796868280632,195.54773398057753 Z" fill="#9467bd" fill-opacity="0.6" />
<path d="M-31.067549012420187,195.54745561720017 A198.0,198.0,0,0,0,-31.065796868280632,195.54773398057753 C-12.426318747312253,78.21909359223102,43.88567047801084,65.92941624719158,109.71417619502708,164.82354061797895 A198.0,198.0,0,0,0,109.95425799324732,164.66347849220972 C43.981703197298934,65.8653913968839,-12.427019604968075,78.21898224688007,-31.067549012420187,195.54745561720017 Z" fill="#9467bd" fill-opacity="0.6" />
<path d="M-31.097035160383257,195.5427687341925 A198.0,198.0,0,0,0,-31.067549012420187,195.54745561720017 C-12.427019604968075,78.21898224688007,68.48276183888855,39.78380739595033,171.20690459722135,99.45951848987582 A198.0,198.0,0,0,0,174.89088580651915,92.82875665337266 C69.95635432260767,37.13150266134907,-12.438814064153304,78.217107493677,-31.097035160383257,195.5427687341925 Z" fill="#9467bd" fill-opacity="0.6" />
<path d="M-31.284434626599992,195.5128746402497 A198.0,198.0,0,0,0,-31.097035160383257,195.5427687341925 C-12.438814064153304,78.217107493677,79.19227857362552,1.1058997772367627,197.9806964340638,2.7647494430919064 A198.0,198.0,0,0,0,197.98070779664152,2.7639356614878783 C79.19228311865662,1.1055742645951514,-12.513773850639998,78.20514985609988,-31.284434626599992,195.5128746402497 Z" fill="#e377c2" fill-opacity="0.6" />
<path d="M35.69613372664132,194.75570861201922 A198.0,198.0,0,0,0,35.69728400318287,194.75549777810153 C14.27891360127315,77.90219911124062,21.117604551846785,76.33273726253907,52.79401137961696,190.83184315634767 A198.0,198.0,0,0,0,52.848860214179126,190.81666063020322 C21.139544085671652,76.32666425208129,14.27845349065653,77.9022834448077,35.69613372664132,194.75570861201922 Z" fill="#9467bd" fill-opacity="0.6" />
<path d="M35.69516520460812,194.7558861267503 A198.0,198.0,0,0,0,35.69613372664132,194.75570861201922 C14.27845349065653,77.9022834448077,68.45425417741073,39.83283927884689,171.1356354435268,99.58209819711722 A198.0,198.0,0,0,0,171.20690459722135,99.45951848987582 C68.48276183888855,39.78380739595033,14.278066081843248,77.90235445070013,35.69516520460812,194.7558861267503 Z" fill="#9467bd" fill-opacity="0.6" />
<path d="M35.69415838266913,194.75607065596935 A198.0,198.0,0,0,0,35.69516520460812,194.7558861267503 C14.278066081843248,77.90235445070013,78.63204237422809,9.46794127873631,196.5801059355702,23.669853196840776 A198.0,198.0,0,0,0,196.5918199895656,23.57236333485099 C78.63672799582625,9.428945333940396,14.277663353067652,77.90242826238774,35.69415838266913,194.75607065596935 Z" fill="#9467bd" fill-opacity="0.6" />
<path d="M35.57212636351023,194.77839671272187 A198.0,198.0,0,0,0,35.69415838266913,194.75607065596935 C14.277663353067652,77.90242826238774,79.19199488069155,1.1260314456192133,197.97998720172887,2.815078614048033 A198.0,198.0,0,0,0,197.9806964340638,2.7647494430919064 C79.19227857362552,1.1058997772367627,14.228850545404093,77.91135868508876,35.57212636351023,194.77839671272187 Z" fill="#9467bd" fill-opacity="0.6" />
<path d="M44.408360457419214,192.95568797390743 A198.0,198.0,0,0,0,44.420525753572576,192.95288775184525 C17.768210301429033,77.18115510073811,79.19199332489967,1.1261408566627997,197.97998331224917,2.8153521416569993 A198.0,198.0,0,0,0,197.97998720172887,2.815078614048033 C79.19199488069155,1.1260314456192133,17.763344182967685,77.18227518956297,44.408360457419214,192.95568797390743 Z" fill="#e377c2" fill-opacity="0.6" />
<path d="M70.68356652949792,184.95359802574816 A198.0,198.0,0,0,0,75.15441811103011,183.18245941790516 C30.061767244412046,73.27298376716207,43.85533531086487,65.94959867028464,109.63833827716216,164.8739966757116 A198.0,198.0,0,0,0,109.71417619502708,164.82354061797895 C43.88567047801084,65.92941624719158,28.27342661179917,73.98143921029927,70.68356652949792,184.95359802574816 Z" fill="#8c564b" fill-opacity="0.6" />
<path d="M70.55064472858021,185.00434191764705 A198.0,198.0,0,0,0,70.68356652949792,184.95359802574816 C28.27342661179917,73.98143921029927,68.45340720339564,39.83429480041166,171.1335180084891,99.58573700102914 A198.0,198.0,0,0,0,171.1356354435268,99.58209819711722 C68.45425417741073,39.83283927884689,28.220257891432084,74.00173676705883,70.55064472858021,185.00434191764705 Z" fill="#e377c2" fill-opacity="0.6" />
<path d="M70.49746580421602,185.02461272810004 A198.0,198.0,0,0,0,70.55064472858021,185.00434191764705 C28.220257891432084,74.00173676705883,79.19199170812175,1.126254545286154,197.97997927030434,2.8156363632153854 A198.0,198.0,0,0,0,197.97998331224917,2.8153521416569993 C79.19199332489967,1.1261408566627997,28.19898632168641,74.00984509124002,70.49746580421602,185.02461272810004 Z" fill="#e377c2" fill-opacity="0.6" />
<path d="M120.35924387921817,157.21848623117728 A198.0,198.0,0,0,0,120.43560150614162,157.16000092216166 C48.17424060245665,62.864000368864666,68.45310491153245,39.83481427056907,171.1327622788311,99.58703567642266 A198.0,198.0,0,0,0,171.1335180084891,99.58573700102914 C68.45340720339564,39.83429480041166,48.14369755168727,62.88739449247092,120.35924387921817,157.21848623117728 Z" fill="#e377c2" fill-opacity="0.6" />
<path d="M179.9504418136018,82.5944216705312 A198.0,198.0,0,0,0,180.06855275240102,82.33660370488793 C72.02742110096041,32.934641481955175,78.22866328385425,12.365930649221449,195.57165820963561,30.91482662305362 A198.0,198.0,0,0,0,196.5801059355702,23.669853196840776 C78.63204237422809,9.46794127873631,71.98017672544073,33.037768668212486,179.9504418136018,82.5944216705312 Z" fill="#e377c2" fill-opacity="0.6" />
<path d="M179.86161634971492,82.78767398633666 A198.0,198.0,0,0,0,179.9504418136018,82.5944216705312 C71.98017672544073,33.037768668212486,78.88502931534936,7.056355285589998,197.21257328837336,17.640888213974993 A198.0,198.0,0,0,0,197.97997927030434,2.8156363632153854 C79.19199170812175,1.126254545286154,71.94464653988597,33.11506959453467,179.86161634971492,82.78767398633666 Z" fill="#e377c2" fill-opacity="0.6" />
<path d="M197.0067082590248,19.808000932539706 A198.0,198.0,0,0,0,197.02625751145786,19.612594194259415 C78.81050300458315,7.8450376777037665,78.88501158154781,7.05655353406098,197.2125289538695,17.64138383515245 A198.0,198.0,0,0,0,197.21257328837336,17.640888213974993 C78.88502931534936,7.056355285589998,78.80268330360992,7.923200373015883,197.0067082590248,19.808000932539706 Z" fill="#e377c2" fill-opacity="0.6" />
<text x="220.00000000000003" y="0" font-size="10" text-anchor="start" dominant-baseline="middle" transform="rotate(-9.865616)" font-family="Arial">Canada</text>
<text x="220.0" y="0" font-size="10" text-anchor="start" dominant-baseline="middle" transform="rotate(-27.901428)" font-family="Arial">Mexico</text>
<text x="220.00000000000003" y="0" font-size="10" text-anchor="start" dominant-baseline="middle" transform="rotate(-61.216022)" font-family="Arial">United Sta.</text>
<text x="220.00000000000006" y="0" font-size="10" text-anchor="start" dominant-baseline="middle" transform="rotate(-87.944223)" font-family="Arial">Costa Rica</text>
<text x="-220.0" y="0" font-size="10" text-anchor="end" dominant-baseline="middle" transform="rotate(89.504985)" font-family="Arial">Dominican .</text>
<text x="-220.0" y="0" font-size="10" text-anchor="end" dominant-baseline="middle" transform="rotate(86.951698)" font-family="Arial">Guatemala</text>
<text x="-220.0" y="0" font-size="10" text-anchor="end" dominant-baseline="middle" transform="rotate(76.512844)" font-family="Arial">Argentina</text>
<text x="-220.00000000000003" y="0" font-size="10" text-anchor="end" dominant-baseline="middle" transform="rotate(56.652757)" font-family="Arial">Brazil</text>
<text x="-220.0" y="0" font-size="10" text-anchor="end" dominant-baseline="middle" transform="rotate(39.985863)" font-family="Arial">Colombia</text>
<text x="-220.00000000000003" y="0" font-size="10" text-anchor="end" dominant-baseline="middle" transform="rotate(21.695209)" font-family="Arial">Germany</text>
<text x="-220.00000000000003" y="0" font-size="10" text-anchor="end" dominant-baseline="middle" transform="rotate(0.678518)" font-family="Arial">Spain</text>
<text x="-220.00000000000003" y="0" font-size="10" text-anchor="end" dominant-baseline="middle" transform="rotate(-20.803363)" font-family="Arial">France</text>
<text x="-220.00000000000003" y="0" font-size="10" text-anchor="end" dominant-baseline="middle" transform="rotate(-44.581000)" font-family="Arial">United Kin.</text>
<text x="-220.0" y="0" font-size="10" text-anchor="end" dominant-baseline="middle" transform="rotate(-65.580854)" font-family="Arial">Italy</text>
<text x="-220.00000000000003" y="0" font-size="10" text-anchor="end" dominant-baseline="middle" transform="rotate(-76.882257)" font-family="Arial">Indonesia</text>
<text x="-220.00000000000003" y="0" font-size="10" text-anchor="end" dominant-baseline="middle" transform="rotate(-79.714667)" font-family="Arial">India</text>
<text x="220.00000000000003" y="0" font-size="10" text-anchor="start" dominant-baseline="middle" transform="rotate(-270.975493)" font-family="Arial">Japan</text>
<text x="220.00000000000003" y="0" font-size="10" text-anchor="start" dominant-baseline="middle" transform="rotate(-281.961999)" font-family="Arial">Egypt</text>
<text x="220.00000000000003" y="0" font-size="10" text-anchor="start" dominant-baseline="middle" transform="rotate(-287.922149)" font-family="Arial">Nigeria</text>
<text x="220.00000000000003" y="0" font-size="10" text-anchor="start" dominant-baseline="middle" transform="rotate(-300.171855)" font-family="Arial">South Afri.</text>
<text x="220.00000000000003" y="0" font-size="10" text-anchor="start" dominant-baseline="middle" transform="rotate(-321.732241)" font-family="Arial">Australia</text>
<text x="220.00000000000006" y="0" font-size="10" text-anchor="start" dominant-baseline="middle" transform="rotate(-345.157986)" font-family="Arial">New Zealan.</text>
<text x="220.0" y="0" font-size="10" text-anchor="start" dominant-baseline="middle" transform="rotate(-357.157665)" font-family="Arial">Papua New .</text>
<text x="-295.0" y="-285.0" font-size="8" text-anchor="start" dominant-baseline="middle" font-family="Arial" font-weight="bold">Continents</text>
<circle cx="-290.5" cy="-274.5" r="4.5" fill="#8c564b" stroke="#333" stroke-width="0.5" />
<text x="-278.0" y="-271.0" font-size="6" text-anchor="start" dominant-baseline="middle" font-family="Arial">Africa</text>
<circle cx="-290.5" cy="-262.5" r="4.5" fill="#9467bd" stroke="#333" stroke-width="0.5" />
<text x="-278.0" y="-259.0" font-size="6" text-anchor="start" dominant-baseline="middle" font-family="Arial">Asia</text>
<circle cx="-290.5" cy="-250.5" r="4.5" fill="#ff7f0e" stroke="#333" stroke-width="0.5" />
<text x="-278.0" y="-247.0" font-size="6" text-anchor="start" dominant-baseline="middle" font-family="Arial">Central America</text>
<circle cx="-290.5" cy="-238.5" r="4.5" fill="#d62728" stroke="#333" stroke-width="0.5" />
<text x="-278.0" y="-235.0" font-size="6" text-anchor="start" dominant-baseline="middle" font-family="Arial">Europe</text>
<circle cx="-290.5" cy="-226.5" r="4.5" fill="#1f77b4" stroke="#333" stroke-width="0.5" />
<text x="-278.0" y="-223.0" font-size="6" text-anchor="start" dominant-baseline="middle" font-family="Arial">North America</text>
<circle cx="-290.5" cy="-214.5" r="4.5" fill="#e377c2" stroke="#333" stroke-width="0.5" />
<text x="-278.0" y="-211.0" font-size="6" text-anchor="start" dominant-baseline="middle" font-family="Arial">Oceania</text>
<circle cx="-290.5" cy="-202.5" r="4.5" fill="#2ca02c" stroke="#333" stroke-width="0.5" />
<text x="-278.0" y="-199.0" font-size="6" text-anchor="start" dominant-baseline="middle" font-family="Arial">South America</text>
</svg>