<?xml version="1.0" encoding="UTF-8"?>
<svg xmlns="http://www.w3.org/2000/svg" xmlns:xlink="http://www.w3.org/1999/xlink"
     width="600.0" height="600.0" viewBox="-300.0 -300.0 600.0 600.0">
<defs>
</defs>
<rect x="-300.0" y="-300.0" width="600.0" height="600.0" fill="#ffffff" fill-opacity="1.0" />
<path d="M200.0,-0.0 A200,200,0,0,0,187.0529391625465,-70.78981530314002 L200.14664490392477,-75.74510237435982 A214.0,214.0,0,0,1,214.0,-0.0 Z" fill="#1f77b4" fill-opacity="0.9" />
<path d="M186.335700238739,-72.656774058162 A200,200,0,0,0,158.6459568095308,-121.78448336298224 L169.75117378619794,-130.309397198391 A214.0,214.0,0,0,1,199.37919925545074,-77.74274824223335 Z" fill="#1f77b4" fill-opacity="0.9" />
<path d="M157.42020004147514,-123.36482731679217 A200,200,0,0,0,9.786972699442714,-199.76039438632566 L10.472060788403704,-213.74362199336846 A214.0,214.0,0,0,1,168.4396140443784,-132.00036522896764 Z" fill="#1f77b4" fill-opacity="0.9" />
<path d="M7.788912704254973,-199.84827454568003 A200,200,0,0,0,0.7306827529724568,-199.9986652523324 L0.7818305456805288,-213.99857181999568 A214.0,214.0,0,0,1,8.334136593552822,-213.83765376387765 Z" fill="#ff7f0e" fill-opacity="0.9" />
<path d="M-1.2693071004398573,-199.99597210815213 A200,200,0,0,0,-8.32541107744564,-199.82664369495762 L-8.908189852866835,-213.81450875360468 A214.0,214.0,0,0,1,-1.3581585974706474,-213.9956901557228 Z" fill="#ff7f0e" fill-opacity="0.9" />
<path d="M-10.323227943036162,-199.7333997228208 A200,200,0,0,0,-17.170152232968157,-199.26160160024986 L-18.372062889275927,-213.20991371226737 A214.0,214.0,0,0,1,-11.045853899048694,-213.71473770341825 Z" fill="#ff7f0e" fill-opacity="0.9" />
<path d="M-19.161876538412333,-199.0799399425433 A200,200,0,0,0,-80.55055653128153,-183.061759640021 L-86.18909548847124,-195.87608281482247 A214.0,214.0,0,0,1,-20.5032078961012,-213.01553573852132 Z" fill="#2ca02c" fill-opacity="0.9" />
<path d="M-82.37711612327708,-182.24711448802728 A200,200,0,0,0,-138.9746537947659,-143.82644264051362 L-148.70287956039954,-153.89429362534958 A214.0,214.0,0,0,1,-88.14351425190648,-195.0044125021892 Z" fill="#2ca02c" fill-opacity="0.9" />
<path d="M-140.4059455754333,-142.42952800268793 A200,200,0,0,0,-164.7657688295391,-113.36772654512781 L-176.29937264760684,-121.30346740328676 A214.0,214.0,0,0,1,-150.23436176571363,-152.3995949628761 Z" fill="#2ca02c" fill-opacity="0.9" />
<path d="M-165.89118898067446,-111.71442797856577 A200,200,0,0,0,-196.4380992224681,-37.57756210644553 L-210.1887661680409,-40.20799145389672 A214.0,214.0,0,0,1,-177.50357220932167,-119.53443793706538 Z" fill="#d62728" fill-opacity="0.9" />
<path d="M-196.80404675752467,-35.611334991292345 A200,200,0,0,0,-198.74237613402022,22.39347960017904 L-212.65434246340163,23.961023172191577 A214.0,214.0,0,0,1,-210.5803300305514,-38.104128440682814 Z" fill="#d62728" fill-opacity="0.9" />
<path d="M-198.5085080342487,24.37975057330604 A200,200,0,0,0,-170.93880826383793,103.82641200262508 L-182.90452484230659,111.09426084280884 A214.0,214.0,0,0,1,-212.40410359664614,26.086333113437465 Z" fill="#d62728" fill-opacity="0.9" />
<path d="M-169.89201457893827,105.53058031826521 A200,200,0,0,0,-122.51526027596276,158.0822918593765 L-131.09132849528015,169.14805228953287 A214.0,214.0,0,0,1,-181.78445559946397,112.91772094054377 Z" fill="#d62728" fill-opacity="0.9" />
<path d="M-120.92833799232,159.2995199943026 A200,200,0,0,0,-62.358738595727225,190.02996532323465 L-66.72385029742813,203.3320628958611 A214.0,214.0,0,0,1,-129.3933216517824,170.45048639390382 Z" fill="#d62728" fill-opacity="0.9" />
<path d="M-60.45535270305038,190.64404089703348 A200,200,0,0,0,-52.92532611700375,192.87018913095096 L-56.630098945194014,206.37110237011754 A214.0,214.0,0,0,1,-64.6872273922639,203.98912375982584 Z" fill="#9467bd" fill-opacity="0.9" />
<path d="M-50.99401012631136,193.3897901421832 A200,200,0,0,0,-30.94415723357472,197.59164742747555 L-33.11024823992496,211.42306274739886 A214.0,214.0,0,0,1,-54.56359083515316,206.92707545213602 Z" fill="#9467bd" fill-opacity="0.9" />
<path d="M-28.966726496108265,197.89120434243574 A200,200,0,0,0,38.89294441433412,196.18190251596482 L41.61545052333751,209.91463569208238 A214.0,214.0,0,0,1,-30.994397350835847,211.74358864640627 Z" fill="#9467bd" fill-opacity="0.9" />
<path d="M40.85278611165808,195.78317054056285 A200,200,0,0,0,47.169294564912576,194.35806556520495 L50.47114518445646,207.96313015476932 A214.0,214.0,0,0,1,43.71248113947414,209.48799247840225 Z" fill="#8c564b" fill-opacity="0.9" />
<path d="M49.110484382641175,193.87666265876962 A200,200,0,0,0,79.47943457030797,183.52934228723245 L85.04299499022953,196.37639624733873 A214.0,214.0,0,0,1,52.54821828942606,207.4480290448835 Z" fill="#8c564b" fill-opacity="0.9" />
<path d="M81.3107234664973,182.72538479739154 A200,200,0,0,0,118.93888902743296,160.79036251255852 L127.26461125935327,172.0456878884376 A214.0,214.0,0,0,1,87.0024741091521,195.51616173320895 Z" fill="#8c564b" fill-opacity="0.9" />
<path d="M120.5408189594051,159.59295399420338 A200,200,0,0,0,179.15337555396974,88.90482567115396 L191.69411184274762,95.12816346813474 A214.0,214.0,0,0,1,128.97867628656346,170.76446077379762 Z" fill="#e377c2" fill-opacity="0.9" />
<path d="M180.0334513991537,87.10887657012093 A200,200,0,0,0,198.93775919394804,20.58562524896303 L212.8634023375244,22.026619016390445 A214.0,214.0,0,0,1,192.63579299709448,93.2064979300294 Z" fill="#e377c2" fill-opacity="0.9" />
<path d="M199.13366521044804,18.595251540465878 A200,200,0,0,0,199.99000008333306,1.999966666834405 L213.9893000891664,2.1399643335128133 A214.0,214.0,0,0,1,213.07302177517943,19.89691914829849 Z" fill="#e377c2" fill-opacity="0.9" />
<path d="M193.0,-0.0 A193.0,193.0,0,0,0,182.1881716369148,-63.690424049444616 L186.908072456524,-65.34043503518153 A198.0,198.0,0,0,1,198.0,-0.0 Z" fill="#1f77b4" fill-opacity="0.6" />
<path d="M179.81395073038314,-70.11378696612633 A193.0,193.0,0,0,0,167.54202151779583,-95.80538098525801 L171.8824883964952,-98.28738567399526 A198.0,198.0,0,0,1,184.4723432363516,-71.93020631758039 Z" fill="#1f77b4" fill-opacity="0.6" />
<path d="M151.9104930400235,-119.04705836070444 A193.0,193.0,0,0,0,21.55385534303843,-191.79267796204152 L22.112245377832167,-196.76140018903743 A198.0,198.0,0,0,1,155.8459980410604,-122.13117904362424 Z" fill="#1f77b4" fill-opacity="0.6" />
<path d="M-18.491210859567904,-192.11214204455428 A193.0,193.0,0,0,0,-64.72316557675768,-181.8238483745287 L-66.39993152434208,-186.53431076765122 A198.0,198.0,0,0,1,-18.970257773028212,-197.08914054311785 Z" fill="#2ca02c" fill-opacity="0.6" />
<path d="M-79.49391705896238,-175.86846548094633 A193.0,193.0,0,0,0,-127.79749820066642,-144.62641340243025 L-131.10831421622774,-148.37321167710462 A198.0,198.0,0,0,1,-81.5533449620443,-180.424643343147 Z" fill="#2ca02c" fill-opacity="0.6" />
<path d="M-135.49173748029312,-137.44449452259386 A193.0,193.0,0,0,0,-144.20986344507793,-128.26735861142527 L-147.94587027007995,-131.5903471764881 A198.0,198.0,0,0,1,-139.00188611967894,-141.00523272266105 Z" fill="#2ca02c" fill-opacity="0.6" />
<path d="M-160.08499736635085,-107.80442299931596 A193.0,193.0,0,0,0,-189.2145084274089,-38.037741791200084 L-194.11643869754903,-39.02317551636071 A198.0,198.0,0,0,1,-164.2322770908677,-110.5972836987801 Z" fill="#d62728" fill-opacity="0.6" />
<path d="M-189.91590512101132,-34.36493826659711 A193.0,193.0,0,0,0,-192.9063860568389,6.010509004221874 L-197.9039608251508,6.166221672725031 A198.0,198.0,0,0,1,-194.83600628994944,-35.25522164137942 Z" fill="#d62728" fill-opacity="0.6" />
<path d="M-191.56071025305002,23.52645930324033 A193.0,193.0,0,0,0,-185.49094626414643,53.31143267659896 L-190.2964111932694,54.69255787547458 A198.0,198.0,0,0,1,-196.52342295390622,24.13595306757298 Z" fill="#d62728" fill-opacity="0.6" />
<path d="M-163.94579406867544,101.83701000712593 A193.0,193.0,0,0,0,-127.20934687699392,145.14400458554476 L-130.50492581163107,148.90421195822728 A198.0,198.0,0,0,1,-168.1930944331489,104.47527451508256 Z" fill="#d62728" fill-opacity="0.6" />
<path d="M-116.6958461625888,153.724036794502 A193.0,193.0,0,0,0,-64.94235755720048,181.74567448749016 L-66.62480205350101,186.4541116503785 A198.0,198.0,0,0,1,-119.71905461239679,157.70652479435958 Z" fill="#d62728" fill-opacity="0.6" />
<path d="M-58.33941535844362,183.97149946563732 A193.0,193.0,0,0,0,-51.39817031519124,186.03018058436268 L-52.72972913164697,190.84961531452754 A198.0,198.0,0,0,1,-59.850799176019876,188.73760048806315 Z" fill="#9467bd" fill-opacity="0.6" />
<path d="M-49.20921977189047,186.62114748720677 A193.0,193.0,0,0,0,-32.291229633999386,190.27946943568116 L-33.127789987211806,195.20898936924803 A198.0,198.0,0,0,1,-50.48407002504825,191.45589224076136 Z" fill="#9467bd" fill-opacity="0.6" />
<path d="M-27.952891068744474,190.9650121904505 A193.0,193.0,0,0,0,31.322002706981873,190.44141394776457 L32.13345355431301,195.37512933501236 A198.0,198.0,0,0,1,-28.67705923114718,195.9122922990114 Z" fill="#9467bd" fill-opacity="0.6" />
<path d="M47.39161742924874,187.09097946571268 A193.0,193.0,0,0,0,54.449761831955364,185.15999415760234 L55.8603774234568,189.95688519795473 A198.0,198.0,0,0,1,48.61937953881477,191.93789603218192 Z" fill="#8c564b" fill-opacity="0.6" />
<path d="M78.46484814516988,176.32999632948284 A193.0,193.0,0,0,0,102.54223791402764,163.5056251129696 L105.19877257501281,167.74152213662165 A198.0,198.0,0,0,1,80.49761623183232,180.8981309494176 Z" fill="#8c564b" fill-opacity="0.6" />
<path d="M116.32189029582591,154.00720060440628 A193.0,193.0,0,0,0,162.86577112880312,103.55549524105574 L167.08509162436798,106.23828009186029 A198.0,198.0,0,0,1,119.33541076981105,157.99702445426135 Z" fill="#e377c2" fill-opacity="0.6" />
<path d="M173.73228060018332,84.0600658901667 A193.0,193.0,0,0,0,191.02761840826852,27.521791461766256 L195.9765204395708,28.23479124056849 A198.0,198.0,0,0,1,178.23311688516216,86.23778780441972 Z" fill="#e377c2" fill-opacity="0.6" />
<path d="M186.8909914174459,-65.38927532098947 A198.0,198.0,0,0,0,185.18240977092103,-70.08191715010862 C74.07296390836841,-28.032766860043452,8.540627105467903,-78.73815903769497,21.35156776366976,-196.84539759423743 A198.0,198.0,0,0,0,20.10049436255383,-196.97708020574615 C8.040197745021533,-78.79083208229846,74.75639656697835,-26.15571012839579,186.8909914174459,-65.38927532098947 Z" fill="#1f77b4" fill-opacity="0.6" />
<path d="M186.89830162314217,-65.3683780614524 A198.0,198.0,0,0,0,186.8909914174459,-65.38927532098947 C74.75639656697835,-26.15571012839579,-6.568891176978873,-78.92711618135436,-16.422227942447183,-197.3177904533859 A198.0,198.0,0,0,0,-16.63832816058053,-197.29968584876366 C-6.655331264232213,-78.91987433950547,74.75932064925688,-26.147351224580962,186.89830162314217,-65.3683780614524 Z" fill="#1f77b4" fill-opacity="0.6" />
<path d="M186.90053100068633,-65.36200357747222 A198.0,198.0,0,0,0,186.89830162314217,-65.3683780614524 C74.75932064925688,-26.147351224580962,-65.15542255706484,-45.02677993605948,-162.88855639266208,-112.56694984014868 A198.0,198.0,0,0,0,-163.11199491619772,-112.24293792688381 C-65.24479796647908,-44.89717517075353,74.76021240027454,-26.144801430988892,186.90053100068633,-65.36200357747222 Z" fill="#1f77b4" fill-opacity="0.6" />
<path d="M186.90317602483708,-65.3544397254598 A198.0,198.0,0,0,0,186.90053100068633,-65.36200357747222 C74.76021240027454,-26.144801430988892,70.68868554676496,35.717638999107756,176.72171386691238,89.29409749776939 A198.0,198.0,0,0,0,177.18206243537935,88.3771279865177 C70.87282497415174,35.35085119460708,74.76127040993484,-26.141775890183922,186.90317602483708,-65.3544397254598 Z" fill="#1f77b4" fill-opacity="0.6" />
<path d="M186.9050437362652,-65.34909812648364 A198.0,198.0,0,0,0,186.90317602483708,-65.3544397254598 C74.76127040993484,-26.141775890183922,78.75667027146196,8.368206961603082,196.89167567865488,20.920517404007704 A198.0,198.0,0,0,0,196.94838160200854,20.3797689964734 C78.77935264080342,8.151907598589359,74.76201749450608,-26.139639250593458,186.9050437362652,-65.34909812648364 Z" fill="#1f77b4" fill-opacity="0.6" />
<path d="M186.908072456524,-65.34043503518153 A198.0,198.0,0,0,0,186.9050437362652,-65.34909812648364 C74.76201749450608,-26.139639250593458,79.1950294004651,0.8873095623680451,197.98757350116273,2.2182739059201126 A198.0,198.0,0,0,0,197.9901000824997,1.979967000166061 C79.19604003299989,0.7919868000664244,74.7632289826096,-26.136174014072612,186.908072456524,-65.34043503518153 Z" fill="#1f77b4" fill-opacity="0.6" />
<path d="M171.48774828782672,-98.97450271242079 A198.0,198.0,0,0,0,157.05949724143548,-120.56663852935242 C62.823798896574196,-48.22665541174097,8.844898151132867,-78.70456007561498,22.112245377832167,-196.76140018903743 A198.0,198.0,0,0,0,21.35156776366976,-196.84539759423743 C8.540627105467903,-78.73815903769497,68.5950993151307,-39.589801084968315,171.48774828782672,-98.97450271242079 Z" fill="#1f77b4" fill-opacity="0.6" />
<path d="M171.52300379921033,-98.91339225653967 A198.0,198.0,0,0,0,171.48774828782672,-98.97450271242079 C68.5950993151307,-39.589801084968315,-6.2230530679922165,-78.95513669491652,-15.55763266998054,-197.3878417372913 A198.0,198.0,0,0,0,-16.422227942447183,-197.3177904533859 C-6.568891176978873,-78.92711618135436,68.60920151968413,-39.56535690261587,171.52300379921033,-98.91339225653967 Z" fill="#1f77b4" fill-opacity="0.6" />
<path d="M171.8824883964952,-98.28738567399526 A198.0,198.0,0,0,0,171.52300379921033,-98.91339225653967 C68.60920151968413,-39.56535690261587,79.19501885006794,0.8882507176371667,197.98754712516984,2.2206267940929165 A198.0,198.0,0,0,0,197.98757350116273,2.2182739059201126 C79.1950294004651,0.8873095623680451,68.75299535859808,-39.314954269598104,171.8824883964952,-98.28738567399526 Z" fill="#e377c2" fill-opacity="0.6" />
<path d="M11.282301306688758,-197.67829844781923 A198.0,198.0,0,0,0,9.689102972448156,-197.7627904424624 C3.8756411889792624,-79.10511617698496,3.0844094308849694,-79.13991672008929,7.711023577212424,-197.84979180022322 A198.0,198.0,0,0,0,0.9888011422485359,-197.99753097526516 C0.3955204568994144,-79.19901239010608,4.512920522675503,-79.0713193791277,11.282301306688758,-197.67829844781923 Z" fill="#1f77b4" fill-opacity="0.6" />
<path d="M12.831279343682569,-197.58380062749168 A198.0,198.0,0,0,0,11.282301306688758,-197.67829844781923 C4.512920522675503,-79.0713193791277,-0.5026456117741834,-79.19840495482825,-1.2566140294354586,-197.9960123870706 A198.0,198.0,0,0,0,-7.794581146194192,-197.84651754518043 C-3.117832458477677,-79.13860701807218,5.132511737473028,-79.03352025099667,12.831279343682569,-197.58380062749168 Z" fill="#1f77b4" fill-opacity="0.6" />
<path d="M14.109509685913208,-197.49663727877274 A198.0,198.0,0,0,0,12.831279343682569,-197.58380062749168 C5.132511737473028,-79.03352025099667,-4.08799826544232,-79.09442629023704,-10.2199956636058,-197.7360657255926 A198.0,198.0,0,0,0,-15.55763266998054,-197.3878417372913 C-6.2230530679922165,-78.95513669491652,5.643803874365283,-78.9986549115091,14.109509685913208,-197.49663727877274 Z" fill="#1f77b4" fill-opacity="0.6" />
<path d="M14.259315117679122,-197.48587780490718 A198.0,198.0,0,0,0,14.109509685913208,-197.49663727877274 C5.643803874365283,-78.9986549115091,-26.559972609736832,-74.6137243070605,-66.39993152434208,-186.53431076765122 A198.0,198.0,0,0,0,-71.686063591003,-184.5673543366396 C-28.674425436401204,-73.82694173465585,5.703726047071649,-78.99435112196288,14.259315117679122,-197.48587780490718 Z" fill="#1f77b4" fill-opacity="0.6" />
<path d="M16.14071929704674,-197.34101748134862 A198.0,198.0,0,0,0,14.259315117679122,-197.48587780490718 C5.703726047071649,-78.99435112196288,-52.47753537441944,-59.319038099302965,-131.1938384360486,-148.2975952482574 A198.0,198.0,0,0,0,-135.2831322769197,-144.57687962238447 C-54.11325291076788,-57.83075184895379,6.456287718818697,-78.93640699253945,16.14071929704674,-197.34101748134862 Z" fill="#1f77b4" fill-opacity="0.6" />
<path d="M17.05640743308354,-197.2639829403144 A198.0,198.0,0,0,0,16.14071929704674,-197.34101748134862 C6.456287718818697,-78.93640699253945,-59.54311817488083,-52.223146956231744,-148.85779543720207,-130.55786739057936 A198.0,198.0,0,0,0,-162.88855639266208,-112.56694984014868 C-65.15542255706484,-45.02677993605948,6.822562973233416,-78.90559317612576,17.05640743308354,-197.2639829403144 Z" fill="#1f77b4" fill-opacity="0.6" />
<path d="M17.084293417639735,-197.26156979609584 A198.0,198.0,0,0,0,17.05640743308354,-197.2639829403144 C6.822562973233416,-78.90559317612576,-77.64657547901962,-15.609270206544284,-194.11643869754903,-39.02317551636071 A198.0,198.0,0,0,0,-194.39119348215536,-37.63062445114673 C-77.75647739286215,-15.052249780458693,6.833717367055894,-78.90462791843834,17.084293417639735,-197.26156979609584 Z" fill="#1f77b4" fill-opacity="0.6" />
<path d="M17.113140628589402,-197.259069291696 A198.0,198.0,0,0,0,17.084293417639735,-197.26156979609584 C6.833717367055894,-78.90462791843834,-79.12080978705416,3.5408273949452855,-197.8020244676354,8.852068487363214 A198.0,198.0,0,0,0,-197.75145179903515,9.917827956457035 C-79.10058071961407,3.9671311825828144,6.845256251435761,-78.9036277166784,17.113140628589402,-197.259069291696 Z" fill="#1f77b4" fill-opacity="0.6" />
<path d="M17.739692785786286,-197.20371015745602 A198.0,198.0,0,0,0,17.113140628589402,-197.259069291696 C6.845256251435761,-78.9036277166784,-71.25263579745145,34.57892265406402,-178.1315894936286,86.44730663516006 A198.0,198.0,0,0,0,-176.54511172866245,89.64275500403859 C-70.61804469146499,35.85710200161544,7.095877114314515,-78.88148406298241,17.739692785786286,-197.20371015745602 Z" fill="#1f77b4" fill-opacity="0.6" />
<path d="M17.79942975945202,-197.1983273261676 A198.0,198.0,0,0,0,17.739692785786286,-197.20371015745602 C7.095877114314515,-78.88148406298241,-49.68647472770405,61.67571831063848,-124.21618681926013,154.1892957765962 A198.0,198.0,0,0,0,-121.94501539732408,155.9917088173163 C-48.778006158929635,62.39668352692652,7.1197719037808085,-78.87933093046705,17.79942975945202,-197.1983273261676 Z" fill="#1f77b4" fill-opacity="0.6" />
<path d="M17.882367641612014,-197.19082363926123 A198.0,198.0,0,0,0,17.79942975945202,-197.1983273261676 C7.1197719037808085,-78.87933093046705,-26.21869219511502,74.73433066253965,-65.54673048778754,186.83582665634913 A198.0,198.0,0,0,0,-62.29953919423459,187.94352187874426 C-24.919815677693837,75.17740875149771,7.1529470566448055,-78.8763294557045,17.882367641612014,-197.19082363926123 Z" fill="#1f77b4" fill-opacity="0.6" />
<path d="M19.134843814501508,-197.07322941534864 A198.0,198.0,0,0,0,17.882367641612014,-197.19082363926123 C7.1529470566448055,-78.8763294557045,-21.091891652658788,76.33984612581102,-52.72972913164697,190.84961531452754 A198.0,198.0,0,0,0,-52.40420482039432,190.93925556873359 C-20.96168192815773,76.37570222749343,7.653937525800604,-78.82929176613946,19.134843814501508,-197.07322941534864 Z" fill="#1f77b4" fill-opacity="0.6" />
<path d="M19.184989735174472,-197.06835405224567 A198.0,198.0,0,0,0,19.134843814501508,-197.07322941534864 C7.653937525800604,-78.82929176613946,-13.251115994884723,78.08359574769922,-33.127789987211806,195.20898936924803 A198.0,198.0,0,0,0,-31.667461937436887,195.45120069838657 C-12.666984774974756,78.18048027935464,7.673995894069789,-78.82734162089827,19.184989735174472,-197.06835405224567 Z" fill="#1f77b4" fill-opacity="0.6" />
<path d="M19.33975324752968,-197.05322617081066 A198.0,198.0,0,0,0,19.184989735174472,-197.06835405224567 C7.673995894069789,-78.82734162089827,12.872297317892839,78.14693827501989,32.180743294732096,195.36734568754972 A198.0,198.0,0,0,0,38.50401497019078,194.22008349080517 C15.401605988076312,77.68803339632207,7.735901299011871,-78.82129046832426,19.33975324752968,-197.05322617081066 Z" fill="#1f77b4" fill-opacity="0.6" />
<path d="M19.36808155082236,-197.05044383873053 A198.0,198.0,0,0,0,19.33975324752968,-197.05322617081066 C7.735901299011871,-78.82129046832426,18.6337286362611,76.97677673889824,46.58432159065275,192.44194184724557 A198.0,198.0,0,0,0,46.697601619263445,192.41448490955293 C18.679040647705378,76.96579396382117,7.747232620328944,-78.82017753549222,19.36808155082236,-197.05044383873053 Z" fill="#1f77b4" fill-opacity="0.6" />
<path d="M19.563425544036296,-197.03114571301398 A198.0,198.0,0,0,0,19.36808155082236,-197.05044383873053 C7.747232620328944,-78.82017753549222,28.366610595008293,73.9457598740534,70.91652648752073,184.86439968513346 A198.0,198.0,0,0,0,74.61289217957514,183.4036976742811 C29.845156871830056,73.36147906971244,7.825370217614519,-78.8124582852056,19.563425544036296,-197.03114571301398 Z" fill="#1f77b4" fill-opacity="0.6" />
<path d="M19.811607145918536,-197.00634563966662 A198.0,198.0,0,0,0,19.563425544036296,-197.03114571301398 C7.825370217614519,-78.8124582852056,44.355975096905,65.61392743315052,110.88993774226249,164.0348185828763 A198.0,198.0,0,0,0,117.74950013715863,159.18245888743294 C47.09980005486346,63.67298355497318,7.924642858367415,-78.80253825586665,19.811607145918536,-197.00634563966662 Z" fill="#1f77b4" fill-opacity="0.6" />
<path d="M19.948772665493294,-196.9925035861529 A198.0,198.0,0,0,0,19.811607145918536,-197.00634563966662 C7.924642858367415,-78.80253825586665,69.28065521791535,38.37747793402191,173.20163804478838,95.94369483505477 A198.0,198.0,0,0,0,176.72171386691238,89.29409749776939 C70.68868554676496,35.717638999107756,7.979509066197318,-78.79700143446117,19.948772665493294,-196.9925035861529 Z" fill="#1f77b4" fill-opacity="0.6" />
<path d="M20.014813703252546,-196.98580464699504 A198.0,198.0,0,0,0,19.948772665493294,-196.9925035861529 C7.979509066197318,-78.79700143446117,78.63435383210144,9.448724644515575,196.58588458025358,23.621811611288937 A198.0,198.0,0,0,0,196.89167567865488,20.920517404007704 C78.75667027146196,8.368206961603082,8.005925481301018,-78.79432185879801,20.014813703252546,-196.98580464699504 Z" fill="#1f77b4" fill-opacity="0.6" />
<path d="M20.10049436255383,-196.97708020574615 A198.0,198.0,0,0,0,20.014813703252546,-196.98580464699504 C8.005925481301018,-78.79432185879801,79.18982447262141,1.269527469341622,197.9745611815535,3.173818673354055 A198.0,198.0,0,0,0,197.98754712516984,2.2206267940929165 C79.19501885006794,0.8882507176371667,8.040197745021533,-78.79083208229846,20.10049436255383,-196.97708020574615 Z" fill="#1f77b4" fill-opacity="0.6" />
<path d="M0.8118511657049187,-197.9983355932184 A198.0,198.0,0,0,0,0.7233759254427322,-197.99867859980907 C0.2893503701770929,-79.19947143992363,12.868872984244554,78.14750225129004,32.17218246061138,195.36875562822507 A198.0,198.0,0,0,0,32.180743294732096,195.36734568754972 C12.872297317892839,78.14693827501989,0.3247404662819675,-79.19933423728736,0.8118511657049187,-197.9983355932184 Z" fill="#9467bd" fill-opacity="0.6" />
<path d="M0.9888011422485359,-197.99753097526516 A198.0,198.0,0,0,0,0.8118511657049187,-197.9983355932184 C0.3247404662819675,-79.19933423728736,79.18979465380615,1.2713861286074466,197.97448663451536,3.1784653215186163 A198.0,198.0,0,0,0,197.9745611815535,3.173818673354055 C79.18982447262141,1.269527469341622,0.3955204568994144,-79.19901239010608,0.9888011422485359,-197.99753097526516 Z" fill="#e377c2" fill-opacity="0.6" />
<path d="M-7.973616389962712,-197.8393829389531 A198.0,198.0,0,0,0,-8.242156966671184,-197.82837725800803 C-3.2968627866684734,-79.13135090320321,12.858469793780806,78.14921467655596,32.14617448445201,195.37303669138987 A198.0,198.0,0,0,0,32.17218246061138,195.36875562822507 C12.868872984244554,78.14750225129004,-3.189446555985085,-79.13575317558124,-7.973616389962712,-197.8393829389531 Z" fill="#9467bd" fill-opacity="0.6" />
<path d="M-7.794581146194192,-197.84651754518043 A198.0,198.0,0,0,0,-7.973616389962712,-197.8393829389531 C-3.189446555985085,-79.13575317558124,78.63352258411929,9.455639904988116,196.5838064602982,23.639099762470288 A198.0,198.0,0,0,0,196.58588458025358,23.621811611288937 C78.63435383210144,9.448724644515575,-3.117832458477677,-79.13860701807218,-7.794581146194192,-197.84651754518043 Z" fill="#e377c2" fill-opacity="0.6" />
<path d="M-16.854408420240105,-197.28134457369185 A198.0,198.0,0,0,0,-16.998450710638476,-197.26898558424736 C-6.799380284255391,-78.90759423369894,-52.47309541846087,-59.32296568113484,-131.18273854615217,-148.3074142028371 A198.0,198.0,0,0,0,-131.1938384360486,-148.2975952482574 C-52.47753537441944,-59.319038099302965,-6.741763368096042,-78.91253782947675,-16.854408420240105,-197.28134457369185 Z" fill="#2ca02c" fill-opacity="0.6" />
<path d="M-16.782383900628826,-197.28748462741348 A198.0,198.0,0,0,0,-16.854408420240105,-197.28134457369185 C-6.741763368096042,-78.91253782947675,12.85564552060842,78.14967932274874,32.13911380152105,195.37419830687182 A198.0,198.0,0,0,0,32.14617448445201,195.37303669138987 C12.858469793780806,78.14921467655596,-6.712953560251531,-78.9149938509654,-16.782383900628826,-197.28748462741348 Z" fill="#9467bd" fill-opacity="0.6" />
<path d="M-16.63832816058053,-197.29968584876366 A198.0,198.0,0,0,0,-16.782383900628826,-197.28748462741348 C-6.712953560251531,-78.9149938509654,78.63284513900388,9.461271867219278,196.58211284750968,23.653179668048192 A198.0,198.0,0,0,0,196.5838064602982,23.639099762470288 C78.63352258411929,9.455639904988116,-6.655331264232213,-78.91987433950547,-16.63832816058053,-197.29968584876366 Z" fill="#e377c2" fill-opacity="0.6" />
<path d="M-71.69160990744625,-184.5652000483259 A198.0,198.0,0,0,0,-79.74505096596872,-181.2311420436208 C-31.898020386387486,-72.49245681744831,-52.4433256864911,-59.349284670841854,-131.10831421622774,-148.37321167710462 A198.0,198.0,0,0,0,-131.18273854615217,-148.3074142028371 C-52.47309541846087,-59.32296568113484,-28.676643962978503,-73.82608001933036,-71.69160990744625,-184.5652000483259 Z" fill="#2ca02c" fill-opacity="0.6" />
<path d="M-71.686063591003,-184.5673543366396 A198.0,198.0,0,0,0,-71.69160990744625,-184.5652000483259 C-28.676643962978503,-73.82608001933036,-59.43919147934493,-52.34140346113935,-148.5979786983623,-130.85350865284838 A198.0,198.0,0,0,0,-148.85779543720207,-130.55786739057936 C-59.54311817488083,-52.223146956231744,-28.674425436401204,-73.82694173465585,-71.686063591003,-184.5673543366396 Z" fill="#2ca02c" fill-opacity="0.6" />
<path d="M-137.57271629522623,-142.39995692117748 A198.0,198.0,0,0,0,-137.58490725681827,-142.3881782141085 C-55.03396290272731,-56.955271285643406,-59.17834810803198,-52.636138870595246,-147.94587027007995,-131.5903471764881 A198.0,198.0,0,0,0,-148.5979786983623,-130.85350865284838 C-59.43919147934493,-52.34140346113935,-55.029086518090494,-56.959982768470994,-137.57271629522623,-142.39995692117748 Z" fill="#2ca02c" fill-opacity="0.6" />
<path d="M-135.85878019321126,-144.03607827351004 A198.0,198.0,0,0,0,-137.57271629522623,-142.39995692117748 C-55.029086518090494,-56.959982768470994,-79.12117420126773,3.532675050531274,-197.80293550316932,8.831687626328184 A198.0,198.0,0,0,0,-197.8020244676354,8.852068487363214 C-79.12080978705416,3.5408273949452855,-54.34351207728451,-57.61443130940402,-135.85878019321126,-144.03607827351004 Z" fill="#d62728" fill-opacity="0.6" />
<path d="M-135.2831322769197,-144.57687962238447 A198.0,198.0,0,0,0,-135.85878019321126,-144.03607827351004 C-54.34351207728451,-57.61443130940402,-71.25433029416273,34.5754307902355,-178.13582573540683,86.43857697558875 A198.0,198.0,0,0,0,-178.1315894936286,86.44730663516006 C-71.25263579745145,34.57892265406402,-54.11325291076788,-57.83075184895379,-135.2831322769197,-144.57687962238447 Z" fill="#d62728" fill-opacity="0.6" />
<path d="M-163.11199491619772,-112.24293792688381 A198.0,198.0,0,0,0,-163.1181111412437,-112.23404927967654 C-65.24724445649748,-44.89361971187062,-79.14714391746647,2.8930277751608617,-197.86785979366616,7.232569437902154 A198.0,198.0,0,0,0,-197.80293550316932,8.831687626328184 C-79.12117420126773,3.532675050531274,-65.24479796647908,-44.89717517075353,-163.11199491619772,-112.24293792688381 Z" fill="#2ca02c" fill-opacity="0.6" />
<path d="M-194.47095885390493,-37.216208329742734 A198.0,198.0,0,0,0,-194.47371823024343,-37.20178648538107 C-77.78948729209738,-14.88071459415243,-79.16158433006032,2.4664886690900127,-197.9039608251508,6.166221672725031 A198.0,198.0,0,0,0,-197.86785979366616,7.232569437902154 C-79.14714391746647,2.8930277751608617,-77.78838354156198,-14.886483331897095,-194.47095885390493,-37.216208329742734 Z" fill="#d62728" fill-opacity="0.6" />
<path d="M-194.40925097758608,-37.537223316781805 A198.0,198.0,0,0,0,-194.47095885390493,-37.216208329742734 C-77.78838354156198,-14.886483331897095,-76.10256418479547,21.932617821388433,-190.25641046198868,54.831544553471076 A198.0,198.0,0,0,0,-178.13582573540683,86.43857697558875 C-71.25433029416273,34.5754307902355,-77.76370039103443,-15.014889326712723,-194.40925097758608,-37.537223316781805 Z" fill="#d62728" fill-opacity="0.6" />
<path d="M-194.4079165109801,-37.54413400066369 A198.0,198.0,0,0,0,-194.40925097758608,-37.537223316781805 C-77.76370039103443,-15.014889326712723,-26.434416748367063,74.65829901071717,-66.08604187091765,186.64574752679292 A198.0,198.0,0,0,0,-65.54673048778754,186.83582665634913 C-26.21869219511502,74.73433066253965,-77.76316660439204,-15.017653600265476,-194.4079165109801,-37.54413400066369 Z" fill="#d62728" fill-opacity="0.6" />
<path d="M-194.39970074352505,-37.58665123189219 A198.0,198.0,0,0,0,-194.4079165109801,-37.54413400066369 C-77.76316660439204,-15.017653600265476,18.49775391934821,77.00956498993641,46.244384798370525,192.523912474841 A198.0,198.0,0,0,0,46.58432159065275,192.44194184724557 C18.6337286362611,76.97677673889824,-77.75988029741002,-15.034660492756878,-194.39970074352505,-37.58665123189219 Z" fill="#d62728" fill-opacity="0.6" />
<path d="M-194.39760085325472,-37.59751032314052 A198.0,198.0,0,0,0,-194.39970074352505,-37.58665123189219 C-77.75988029741002,-15.034660492756878,28.201611179469918,74.00884492330628,70.50402794867479,185.0221123082657 A198.0,198.0,0,0,0,70.91652648752073,184.86439968513346 C28.366610595008293,73.9457598740534,-77.7590403413019,-15.039004129256208,-194.39760085325472,-37.59751032314052 Z" fill="#d62728" fill-opacity="0.6" />
<path d="M-194.39119348215536,-37.63062445114673 A198.0,198.0,0,0,0,-194.39760085325472,-37.59751032314052 C-77.7590403413019,-15.039004129256208,43.610590723348594,66.11169621754219,109.02647680837147,165.27924054385548 A198.0,198.0,0,0,0,110.88993774226249,164.0348185828763 C44.355975096905,65.61392743315052,-77.75647739286215,-15.052249780458693,-194.39119348215536,-37.63062445114673 Z" fill="#d62728" fill-opacity="0.6" />
<path d="M-197.63161264229583,12.07251773266563 A198.0,198.0,0,0,0,-196.75495237268,22.169544804177253 C-78.70198094907201,8.867817921670902,-76.11856447730776,21.87702315018983,-190.2964111932694,54.69255787547458 A198.0,198.0,0,0,0,-190.25641046198868,54.831544553471076 C-76.10256418479547,21.932617821388433,-79.05264505691834,4.829007093066252,-197.63161264229583,12.07251773266563 Z" fill="#d62728" fill-opacity="0.6" />
<path d="M-197.75024263578229,9.941908141258981 A198.0,198.0,0,0,0,-197.63161264229583,12.07251773266563 C-79.05264505691834,4.829007093066252,-26.649920821400407,74.58164466015141,-66.62480205350101,186.4541116503785 A198.0,198.0,0,0,0,-66.08604187091765,186.64574752679292 C-26.434416748367063,74.65829901071717,-79.10009705431293,3.9767632565035926,-197.75024263578229,9.941908141258981 Z" fill="#d62728" fill-opacity="0.6" />
<path d="M-197.75145179903515,9.917827956457035 A198.0,198.0,0,0,0,-197.75024263578229,9.941908141258981 C-79.10009705431293,3.9767632565035926,27.705774451537863,74.19588979209368,69.26443612884465,185.4897244802342 A198.0,198.0,0,0,0,70.50402794867479,185.0221123082657 C28.201611179469918,74.00884492330628,-79.10058071961407,3.9671311825828144,-197.75145179903515,9.917827956457035 Z" fill="#d62728" fill-opacity="0.6" />
<path d="M-175.78327800610393,91.12759830824459 A198.0,198.0,0,0,0,-169.22942018119957,102.78814788259884 C-67.69176807247983,41.11525915303954,-52.20197032465243,59.561684783290914,-130.50492581163107,148.90421195822728 A198.0,198.0,0,0,0,-124.21618681926013,154.1892957765962 C-49.68647472770405,61.67571831063848,-70.31331120244157,36.451039323297834,-175.78327800610393,91.12759830824459 Z" fill="#d62728" fill-opacity="0.6" />
<path d="M-176.12641973872223,90.46261255358168 A198.0,198.0,0,0,0,-175.78327800610393,91.12759830824459 C-70.31331120244157,36.451039323297834,16.223341492450484,77.5205984936864,40.55835373112621,193.80149623421602 A198.0,198.0,0,0,0,46.244384798370525,192.523912474841 C18.49775391934821,77.00956498993641,-70.4505678954889,36.18504502143267,-176.12641973872223,90.46261255358168 Z" fill="#d62728" fill-opacity="0.6" />
<path d="M-176.13951607392738,90.43711006684522 A198.0,198.0,0,0,0,-176.12641973872223,90.46261255358168 C-70.4505678954889,36.18504502143267,27.29162866982568,74.34922329485595,68.2290716745642,185.87305823713984 A198.0,198.0,0,0,0,69.26443612884465,185.4897244802342 C27.705774451537863,74.19588979209368,-70.45580642957096,36.17484402673809,-176.13951607392738,90.43711006684522 Z" fill="#d62728" fill-opacity="0.6" />
<path d="M-176.54511172866245,89.64275500403859 A198.0,198.0,0,0,0,-176.13951607392738,90.43711006684522 C-70.45580642957096,36.17484402673809,43.23579799848994,66.35740931828016,108.08949499622486,165.8935232957004 A198.0,198.0,0,0,0,109.02647680837147,165.27924054385548 C43.610590723348594,66.11169621754219,-70.61804469146499,35.85710200161544,-176.54511172866245,89.64275500403859 Z" fill="#d62728" fill-opacity="0.6" />
<path d="M-121.30098368557648,156.49303932415495 A198.0,198.0,0,0,0,-121.29010767320312,156.50146894078276 C-48.51604306928125,62.6005875763131,16.177703300216603,77.5301355340629,40.4442582505415,193.82533883515723 A198.0,198.0,0,0,0,40.55835373112621,193.80149623421602 C16.223341492450484,77.5205984936864,-48.520393474230595,62.59721572966198,-121.30098368557648,156.49303932415495 Z" fill="#d62728" fill-opacity="0.6" />
<path d="M-121.52585850715373,156.31847528075258 A198.0,198.0,0,0,0,-121.30098368557648,156.49303932415495 C-48.520393474230595,62.59721572966198,22.767482205157847,75.85698223656027,56.91870551289462,189.64245559140068 A198.0,198.0,0,0,0,68.2290716745642,185.87305823713984 C27.29162866982568,74.34922329485595,-48.610343402861496,62.527390112301035,-121.52585850715373,156.31847528075258 Z" fill="#d62728" fill-opacity="0.6" />
<path d="M-121.56393123924481,156.2888691547167 A198.0,198.0,0,0,0,-121.52585850715373,156.31847528075258 C-48.610343402861496,62.527390112301035,42.103161809889315,67.08176924925488,105.25790452472329,167.7044231231372 A198.0,198.0,0,0,0,108.08949499622486,165.8935232957004 C43.23579799848994,66.35740931828016,-48.625572495697924,62.515547661886686,-121.56393123924481,156.2888691547167 Z" fill="#d62728" fill-opacity="0.6" />
<path d="M-121.94501539732408,155.9917088173163 A198.0,198.0,0,0,0,-121.56393123924481,156.2888691547167 C-48.625572495697924,62.515547661886686,79.18978754765833,1.2718286664246508,197.9744688691458,3.1795716660616264 A198.0,198.0,0,0,0,197.97448663451536,3.1784653215186163 C79.18979465380615,1.2713861286074466,-48.778006158929635,62.39668352692652,-121.94501539732408,155.9917088173163 Z" fill="#e377c2" fill-opacity="0.6" />
<path d="M-62.278215115349134,187.95058904415887 A198.0,198.0,0,0,0,-61.73515120976995,188.12966567000228 C-24.694060483907982,75.25186626800091,12.853381421725203,78.15005173400495,32.13345355431301,195.37512933501236 A198.0,198.0,0,0,0,32.13911380152105,195.37419830687182 C12.85564552060842,78.14967932274874,-24.911286046139654,75.18023561766356,-62.278215115349134,187.95058904415887 Z" fill="#9467bd" fill-opacity="0.6" />
<path d="M-62.29953919423459,187.94352187874426 A198.0,198.0,0,0,0,-62.278215115349134,187.95058904415887 C-24.911286046139654,75.18023561766356,22.34415096938272,75.9827540791819,55.8603774234568,189.95688519795473 A198.0,198.0,0,0,0,56.91870551289462,189.64245559140068 C22.767482205157847,75.85698223656027,-24.919815677693837,75.17740875149771,-62.29953919423459,187.94352187874426 Z" fill="#d62728" fill-opacity="0.6" />
<path d="M-52.39986346468599,190.94044702179332 A198.0,198.0,0,0,0,-52.39607285583371,190.94148723964148 C-20.958429142333486,76.3765948958566,69.08085321094467,38.735974489457675,172.70213302736167,96.83993622364417 A198.0,198.0,0,0,0,173.20163804478838,95.94369483505477 C69.28065521791535,38.37747793402191,-20.9599453858744,76.37617880871733,-52.39986346468599,190.94044702179332 Z" fill="#9467bd" fill-opacity="0.6" />
<path d="M-52.40420482039432,190.93925556873359 A198.0,198.0,0,0,0,-52.39986346468599,190.94044702179332 C-20.9599453858744,76.37617880871733,79.18819936391336,1.3671435554154965,197.97049840978337,3.417858888538741 A198.0,198.0,0,0,0,197.9744688691458,3.1795716660616264 C79.18978754765833,1.2718286664246508,-20.96168192815773,76.37570222749343,-52.40420482039432,190.93925556873359 Z" fill="#9467bd" fill-opacity="0.6" />
<path d="M-30.69292153643707,195.6066066562122 A198.0,198.0,0,0,0,-30.634715661238975,195.6157309532008 C-12.253886264495591,78.24629238128033,66.83531403617562,42.49330297453691,167.08828509043903,106.23325743634227 A198.0,198.0,0,0,0,172.70213302736167,96.83993622364417 C69.08085321094467,38.735974489457675,-12.277168614574828,78.24264266248488,-30.69292153643707,195.6066066562122 Z" fill="#9467bd" fill-opacity="0.6" />
<path d="M-31.667461937436887,195.45120069838657 A198.0,198.0,0,0,0,-30.69292153643707,195.6066066562122 C-12.277168614574828,78.24264266248488,79.18817367943836,1.368630452352683,197.97043419859588,3.4215761308817076 A198.0,198.0,0,0,0,197.97049840978337,3.417858888538741 C79.18819936391336,1.3671435554154965,-12.666984774974756,78.18048027935464,-31.667461937436887,195.45120069838657 Z" fill="#e377c2" fill-opacity="0.6" />
<path d="M74.8173780046387,183.3203751592032 A198.0,198.0,0,0,0,78.68464022460489,181.69404886436013 C31.47385608984196,72.67761954574405,42.07950903000513,67.09660885464866,105.19877257501281,167.74152213662165 A198.0,198.0,0,0,0,105.25790452472329,167.7044231231372 C42.103161809889315,67.08176924925488,29.92695120185548,73.32815006368128,74.8173780046387,183.3203751592032 Z" fill="#8c564b" fill-opacity="0.6" />
<path d="M74.61289217957514,183.4036976742811 A198.0,198.0,0,0,0,74.8173780046387,183.3203751592032 C29.92695120185548,73.32815006368128,66.83403664974719,42.49531203674412,167.08509162436798,106.23828009186029 A198.0,198.0,0,0,0,167.08828509043903,106.23325743634227 C66.83531403617562,42.49330297453691,29.845156871830056,73.36147906971244,74.61289217957514,183.4036976742811 Z" fill="#e377c2" fill-opacity="0.6" />
<path d="M177.33445525164308,88.0709428847165 A198.0,198.0,0,0,0,177.36184179843005,88.01577741444243 C70.94473671937202,35.20631096577697,78.39060817582833,11.293916496227396,195.9765204395708,28.23479124056849 A198.0,198.0,0,0,0,196.58211284750968,23.653179668048192 C78.63284513900388,9.461271867219278,70.93378210065724,35.228377153886605,177.33445525164308,88.0709428847165 Z" fill="#e377c2" fill-opacity="0.6" />
<path d="M177.18206243537935,88.3771279865177 A198.0,198.0,0,0,0,177.33445525164308,88.0709428847165 C70.93378210065724,35.228377153886605,78.85693142333743,7.363719610024487,197.14232855834356,18.409299025061216 A198.0,198.0,0,0,0,197.97043419859588,3.4215761308817076 C79.18817367943836,1.368630452352683,70.87282497415174,35.35085119460708,177.18206243537935,88.3771279865177 Z" fill="#e377c2" fill-opacity="0.6" />
<text x="220.0" y="0" font-size="10" text-anchor="start" dominant-baseline="middle" transform="rotate(-10.364525)" font-family="Arial">Canada</text>
<text x="220.00000000000003" y="0" font-size="10" text-anchor="start" dominant-baseline="middle" transform="rotate(-29.406817)" font-family="Arial">Mexico</text>
<text x="220.00000000000003" y="0" font-size="10" text-anchor="start" dominant-baseline="middle" transform="rotate(-62.639852)" font-family="Arial">United Sta.</text>
<text x="220.0" y="0" font-size="10" text-anchor="start" dominant-baseline="middle" transform="rotate(-88.779375)" font-family="Arial">Costa Rica</text>
<text x="-220.00000000000003" y="0" font-size="10" text-anchor="end" dominant-baseline="middle" transform="rotate(88.625312)" font-family="Arial">Dominican .</text>
<text x="-220.00000000000006" y="0" font-size="10" text-anchor="end" dominant-baseline="middle" transform="rotate(86.058175)" font-family="Arial">Guatemala</text>
<text x="-220.00000000000003" y="0" font-size="10" text-anchor="end" dominant-baseline="middle" transform="rotate(75.375856)" font-family="Arial">Argentina</text>
<text x="-220.00000000000003" y="0" font-size="10" text-anchor="end" dominant-baseline="middle" transform="rotate(55.829771)" font-family="Arial">Brazil</text>
<text x="-220.00000000000003" y="0" font-size="10" text-anchor="end" dominant-baseline="middle" transform="rotate(39.969995)" font-family="Arial">Colombia</text>
<text x="-220.00000000000006" y="0" font-size="10" text-anchor="end" dominant-baseline="middle" transform="rotate(22.393327)" font-family="Arial">Germany</text>
<text x="-220.0" y="0" font-size="10" text-anchor="end" dominant-baseline="middle" transform="rotate(1.913924)" font-family="Arial">Spain</text>
<text x="-220.0" y="0" font-size="10" text-anchor="end" dominant-baseline="middle" transform="rotate(-19.137874)" font-family="Arial">France</text>
<text x="-220.0" y="0" font-size="10" text-anchor="end" dominant-baseline="middle" transform="rotate(-42.035494)" font-family="Arial">United Kin.</text>
<text x="-220.00000000000006" y="0" font-size="10" text-anchor="end" dominant-baseline="middle" transform="rotate(-62.314789)" font-family="Arial">Italy</text>
<text x="-220.00000000000006" y="0" font-size="10" text-anchor="end" dominant-baseline="middle" transform="rotate(-73.530415)" font-family="Arial">Indonesia</text>
<text x="-220.00000000000003" y="0" font-size="10" text-anchor="end" dominant-baseline="middle" transform="rotate(-78.163793)" font-family="Arial">India</text>
<text x="220.0" y="0" font-size="10" text-anchor="start" dominant-baseline="middle" transform="rotate(-271.442905)" font-family="Arial">Japan</text>
<text x="220.00000000000003" y="0" font-size="10" text-anchor="start" dominant-baseline="middle" transform="rotate(-282.713969)" font-family="Arial">Egypt</text>
<text x="220.00000000000003" y="0" font-size="10" text-anchor="start" dominant-baseline="middle" transform="rotate(-288.815023)" font-family="Arial">Nigeria</text>
<text x="220.00000000000003" y="0" font-size="10" text-anchor="start" dominant-baseline="middle" transform="rotate(-300.239687)" font-family="Arial">South Afri.</text>
<text x="220.00000000000003" y="0" font-size="10" text-anchor="start" dominant-baseline="middle" transform="rotate(-320.335457)" font-family="Arial">Australia</text>
<text x="220.00000000000006" y="0" font-size="10" text-anchor="start" dominant-baseline="middle" transform="rotate(-344.136126)" font-family="Arial">New Zealan.</text>
<text x="220.0" y="0" font-size="10" text-anchor="start" dominant-baseline="middle" transform="rotate(-357.046095)" font-family="Arial">Papua New .</text>
<text x="-295.0" y="-285.0" font-size="8" text-anchor="start" dominant-baseline="middle" font-family="Arial" font-weight="bold">Continents</text>
<circle cx="-290.5" cy="-274.5" r="4.5" fill="#8c564b" stroke="#333" stroke-width="0.5" />
<text x="-278.0" y="-271.0" font-size="6" text-anchor="start" dominant-baseline="middle" font-family="Arial">Africa</text>
<circle cx="-290.5" cy="-262.5" r="4.5" fill="#9467bd" stroke="#333" stroke-width="0.5" />
<text x="-278.0" y="-259.0" font-size="6" text-anchor="start" dominant-baseline="middle" font-family="Arial">Asia</text>
<circle cx="-290.5" cy="-250.5" r="4.5" fill="#ff7f0e" stroke="#333" stroke-width="0.5" />
<text x="-278.0" y="-247.0" font-size="6" text-anchor="start" dominant-baseline="middle" font-family="Arial">Central America</text>
<circle cx="-290.5" cy="-238.5" r="4.5" fill="#d62728" stroke="#333" stroke-width="0.5" />
<text x="-278.0" y="-235.0" font-size="6" text-anchor="start" dominant-baseline="middle" font-family="Arial">Europe</text>
<circle cx="-290.5" cy="-226.5" r="4.5" fill="#1f77b4" stroke="#333" stroke-width="0.5" />
<text x="-278.0" y="-223.0" font-size="6" text-anchor="start" dominant-baseline="middle" font-family="Arial">North America</text>
<circle cx="-290.5" cy="-214.5" r="4.5" fill="#e377c2" stroke="#333" stroke-width="0.5" />
<text x="-278.0" y="-211.0" font-size="6" text-anchor="start" dominant-baseline="middle" font-family="Arial">Oceania</text>
<circle cx="-290.5" cy="-202.5" r="4.5" fill="#2ca02c" stroke="#333" stroke-width="0.5" />
<text x="-278.0" y="-199.0" font-size="6" text-anchor="start" dominant-baseline="middle" font-family="Arial">South America</text>
</svg>