<?xml version="1.0" encoding="UTF-8"?>
<svg xmlns="http://www.w3.org/2000/svg" xmlns:xlink="http://www.w3.org/1999/xlink"
     width="600.0" height="600.0" viewBox="-300.0 -300.0 600.0 600.0">
<defs>
</defs>
<rect x="-300.0" y="-300.0" width="600.0" height="600.0" fill="#ffffff" fill-opacity="1.0" />
<path d="M200.0,-0.0 A200,200,0,0,0,192.550702015039,-54.07612369165944 L206.02925115609176,-57.8614523500756 A214.0,214.0,0,0,1,214.0,-0.0 Z" fill="#1f77b4" fill-opacity="0.9" />
<path d="M192.0003223358931,-55.99889483653369 A200,200,0,0,0,170.44519832550267,-104.63476653474247 L182.37636220828787,-111.95920019217445 A214.0,214.0,0,0,1,205.44034489940563,-59.918817475091046 Z" fill="#1f77b4" fill-opacity="0.9" />
<path d="M169.39034591029812,-106.3339584158774 A200,200,0,0,0,33.676543702955044,-197.14433901135217 L36.033901762161896,-210.94444274214683 A214.0,214.0,0,0,1,181.247670124019,-113.77733550498883 Z" fill="#1f77b4" fill-opacity="0.9" />
<path d="M31.703449356913772,-197.47124170084516 A200,200,0,0,0,24.728202154529225,-198.46540257234946 L26.459176305346272,-212.35798075241394 A214.0,214.0,0,0,1,33.92269081189774,-211.29422861990432 Z" fill="#ff7f0e" fill-opacity="0.9" />
<path d="M22.742344806403093,-198.70275728511336 A200,200,0,0,0,16.282947020547685,-199.33606205683415 L17.422753311986025,-213.28958640081257 A214.0,214.0,0,0,1,24.33430894285131,-212.61195029507132 Z" fill="#ff7f0e" fill-opacity="0.9" />
<path d="M14.288805481923747,-199.48892209318228 A200,200,0,0,0,6.638835634572342,-199.88978428478313 L7.103554128992406,-213.88206918471798 A214.0,214.0,0,0,1,15.28902186565841,-213.45314663970507 Z" fill="#ff7f0e" fill-opacity="0.9" />
<path d="M4.639639167506426,-199.9461771287347 A200,200,0,0,0,-54.28572117945832,-192.49171534387165 L-58.085721662020404,-205.96613541794267 A214.0,214.0,0,0,1,4.964413909231877,-213.94240952774612 Z" fill="#2ca02c" fill-opacity="0.9" />
<path d="M-56.207891987664894,-191.93924267408943 A200,200,0,0,0,-117.46356641873061,-161.87127776165994 L-125.68601606804175,-173.20226720497615 A214.0,214.0,0,0,1,-60.14244442680144,-205.3749896612757 Z" fill="#2ca02c" fill-opacity="0.9" />
<path d="M-119.07637908855784,-160.6885681781939 A200,200,0,0,0,-152.8918049327145,-128.93446391255046 L-163.59423127800454,-137.959876386429 A214.0,214.0,0,0,1,-127.4117256247569,-171.93676795066747 Z" fill="#2ca02c" fill-opacity="0.9" />
<path d="M-154.1734835563282,-127.39912467559029 A200,200,0,0,0,-188.02984389219367,-68.1526067430827 L-201.19193296464724,-72.92328921509849 A214.0,214.0,0,0,1,-164.96562740527116,-136.31706340288162 Z" fill="#d62728" fill-opacity="0.9" />
<path d="M-188.70195718706438,-66.2689320403711 A200,200,0,0,0,-199.68521053217768,-11.216804122381841 L-213.66317526943013,-12.00198041094857 A214.0,214.0,0,0,1,-201.9110941901589,-70.90775728319709 Z" fill="#d62728" fill-opacity="0.9" />
<path d="M-199.78739252661876,-9.219424462229659 A200,200,0,0,0,-182.8819425964331,80.95798337505047 L-195.68367857818345,86.625042211304 A214.0,214.0,0,0,1,-213.7725100034821,-9.864784174585736 Z" fill="#d62728" fill-opacity="0.9" />
<path d="M-182.0632322346831,82.78272445540702 A200,200,0,0,0,-135.27290032913552,147.31341567061628 L-144.74200335217503,157.62535476755943 A214.0,214.0,0,0,1,-194.80765849111094,88.57751516728551 Z" fill="#d62728" fill-opacity="0.9" />
<path d="M-133.79302713588964,148.6587565191338 A200,200,0,0,0,-72.16191002065074,186.52790338759374 L-77.2132437220963,199.58485662472532 A214.0,214.0,0,0,1,-143.15853903540193,159.06486947547316 Z" fill="#d62728" fill-opacity="0.9" />
<path d="M-70.29305400916962,187.2401841434257 A200,200,0,0,0,-60.32699417491407,190.6846972722769 L-64.54988376715806,204.0326260813363 A214.0,214.0,0,0,1,-75.2135677898115,200.3469970334655 Z" fill="#9467bd" fill-opacity="0.9" />
<path d="M-58.41716265824274,191.27842300416535 A200,200,0,0,0,-50.628713448736995,193.48574462870818 L-54.17272339014859,207.02974675271776 A214.0,214.0,0,0,1,-62.50636404431973,204.66791261445692 Z" fill="#9467bd" fill-opacity="0.9" />
<path d="M-48.69135683533561,193.9823491185062 A200,200,0,0,0,18.54343647467503,199.13849694047028 L19.841477027902283,213.0781917263032 A214.0,214.0,0,0,1,-52.09975181380911,207.56111355680164 Z" fill="#9467bd" fill-opacity="0.9" />
<path d="M20.533861090398823,198.94310882440791 A200,200,0,0,0,27.58866611429072,198.088024630552 L29.519872742291074,211.95418635469068 A214.0,214.0,0,0,1,21.97123136672674,212.86912644211648 Z" fill="#8c564b" fill-opacity="0.9" />
<path d="M29.568133924280026,197.80223824880204 A200,200,0,0,0,60.07916539867166,190.76292586611018 L64.28470697657868,204.1163306767379 A214.0,214.0,0,0,1,31.63790329897963,211.6483949262182 Z" fill="#8c564b" fill-opacity="0.9" />
<path d="M61.98375893043369,190.15260615845864 A200,200,0,0,0,117.12961961693446,162.11308463042778 L125.32869299011988,173.46100055455773 A214.0,214.0,0,0,1,66.32262205556405,203.46328858955076 Z" fill="#8c564b" fill-opacity="0.9" />
<path d="M118.74486701234936,160.9337023690795 A200,200,0,0,0,179.40272614330317,88.40057608608082 L191.9609169733344,94.58861641210648 A214.0,214.0,0,0,1,127.05700770321383,172.19906153491507 Z" fill="#e377c2" fill-opacity="0.9" />
<path d="M180.277747109252,86.60215873298182 A200,200,0,0,0,198.3235619410513,25.841145079388244 L212.2062112769249,27.650025234945424 A214.0,214.0,0,0,1,192.89718940689966,92.66430984429056 Z" fill="#e377c2" fill-opacity="0.9" />
<path d="M198.57205298954668,23.85665046725263 A200,200,0,0,0,199.99000008333306,1.9999666668340497 L213.9893000891664,2.139964333512433 A214.0,214.0,0,0,1,212.47209669881497,25.526615999960317 Z" fill="#e377c2" fill-opacity="0.9" />
<path d="M193.0,-0.0 A193.0,193.0,0,0,0,190.59621301683697,-30.365829210487597 L195.53393874266177,-31.152508723712664 A198.0,198.0,0,0,1,198.0,-0.0 Z" fill="#1f77b4" fill-opacity="0.6" />
<path d="M185.28031105413683,-54.038933517255 A193.0,193.0,0,0,0,175.41835450427087,-80.48230179992339 L179.96287146034007,-82.56733552531001 A198.0,198.0,0,0,1,190.08031911253414,-55.43890588816835 Z" fill="#1f77b4" fill-opacity="0.6" />
<path d="M163.4616838034377,-102.6122698713217 A193.0,193.0,0,0,0,46.145001028986215,-187.40234491605185 L47.34046737688742,-192.25732794496508 A198.0,198.0,0,0,1,167.69644245119514,-105.27061883171864 Z" fill="#1f77b4" fill-opacity="0.6" />
<path d="M13.788697290056415,-192.5068098199209 A193.0,193.0,0,0,0,13.775482365973119,-192.5077559102094 L14.132360147475014,-197.49500347265007 A198.0,198.0,0,0,1,14.145917427104509,-197.49403287225044 Z" fill="#ff7f0e" fill-opacity="0.6" />
<path d="M4.477251796643701,-192.94806092922897 A193.0,193.0,0,0,0,-44.146745172865145,-187.88311496949936 L-45.29044323433833,-192.75055318114443 A198.0,198.0,0,0,1,4.593242775831362,-197.94671535744735 Z" fill="#2ca02c" fill-opacity="0.6" />
<path d="M-54.240615768096625,-185.2213691804963 A193.0,193.0,0,0,0,-104.74897456105002,-162.10074746406477 L-107.4626785652223,-166.30024869370374 A198.0,198.0,0,0,1,-55.64581306778825,-190.01985024734856 Z" fill="#2ca02c" fill-opacity="0.6" />
<path d="M-114.90870582045831,-155.0644682919571 A193.0,193.0,0,0,0,-130.24759359145796,-142.4238897223159 L-133.62188358087397,-146.11362779802357 A198.0,198.0,0,0,1,-117.88561529767226,-159.08168249641193 Z" fill="#2ca02c" fill-opacity="0.6" />
<path d="M-148.7774116318567,-122.94015531194464 A193.0,193.0,0,0,0,-179.44157738861676,-71.06138405832705 L-184.09032291681928,-72.90235255724744 A198.0,198.0,0,0,1,-152.6317487207649,-126.12513342883439 Z" fill="#d62728" fill-opacity="0.6" />
<path d="M-182.09738868551713,-63.94951941895811 A193.0,193.0,0,0,0,-190.47383985018996,-31.124208146138944 L-195.4083952867234,-31.93053478204928 A198.0,198.0,0,0,1,-186.81493761519374,-65.60624271996738 Z" fill="#d62728" fill-opacity="0.6" />
<path d="M-192.7948337881871,-8.89674460605162 A193.0,193.0,0,0,0,-192.09505874885758,18.66784412493725 L-197.07161467499378,19.151467029728373 A198.0,198.0,0,0,1,-197.78951860135257,-9.127230217607362 Z" fill="#d62728" fill-opacity="0.6" />
<path d="M-175.69101910646918,79.88532909946777 A193.0,193.0,0,0,0,-134.4950642423851,138.4199324318456 L-137.97939233156606,142.00594104406957 A198.0,198.0,0,0,1,-180.24259991233626,81.95489721085295 Z" fill="#d62728" fill-opacity="0.6" />
<path d="M-129.1102711861335,143.4557000409641 A193.0,193.0,0,0,0,-73.79044801178526,178.33667537054743 L-75.70211764939627,182.95679649413674 A198.0,198.0,0,0,1,-132.45509686453073,147.17216895394245 Z" fill="#d62728" fill-opacity="0.6" />
<path d="M-67.83279711884869,180.6867776984058 A193.0,193.0,0,0,0,-62.256674318003284,182.68307667340747 L-63.86954152831425,187.41579886701908 A198.0,198.0,0,0,1,-69.59012346907792,185.36778230199144 Z" fill="#9467bd" fill-opacity="0.6" />
<path d="M-56.37256196520424,184.58367819901957 A193.0,193.0,0,0,0,-49.39761516561741,186.5713686929202 L-50.67734612845724,191.4048238404052 A198.0,198.0,0,0,1,-57.83299103166031,189.3656387741237 Z" fill="#9467bd" fill-opacity="0.6" />
<path d="M-46.98715934609886,187.19296689935845 A193.0,193.0,0,0,0,11.132660687139529,192.6786544120158 L11.421071585770086,197.67032939678305 A198.0,198.0,0,0,1,-48.20444326698225,192.0425256273211 Z" fill="#9467bd" fill-opacity="0.6" />
<path d="M19.815175952234863,191.98010001555363 A193.0,193.0,0,0,0,19.827556729648194,191.97882173336876 L20.341224002437006,196.95236633786018 A198.0,198.0,0,0,1,20.328522479494833,196.95367773616383 Z" fill="#8c564b" fill-opacity="0.6" />
<path d="M28.533249236930224,190.87915991009396 A193.0,193.0,0,0,0,35.85542858943502,189.64015461043033 L36.78432570315095,194.55311198375756 A198.0,198.0,0,0,1,29.272452585037225,195.824215866314 Z" fill="#8c564b" fill-opacity="0.6" />
<path d="M59.81432736786851,183.49726494291258 A193.0,193.0,0,0,0,104.80179040384364,162.06660583892298 L107.51686269409866,166.2652225705013 A198.0,198.0,0,0,1,61.36392134112935,188.25108009687406 Z" fill="#8c564b" fill-opacity="0.6" />
<path d="M114.58879666691713,155.3010227861617 A193.0,193.0,0,0,0,167.2108846466204,96.38215631378355 L171.54277284990073,98.87910336854478 A198.0,198.0,0,0,1,117.55741834222587,159.32436534538869 Z" fill="#e377c2" fill-opacity="0.6" />
<path d="M173.9680259604282,83.57108317732747 A193.0,193.0,0,0,0,188.71746670701972,40.43164304953367 L193.60652024865234,41.479094942008636 A198.0,198.0,0,0,1,178.4749696381595,85.73613714565201 Z" fill="#e377c2" fill-opacity="0.6" />
<path d="M191.62203113491253,23.02166770089879 A193.0,193.0,0,0,0,191.626119759755,22.987610267707957 L196.59052700741705,23.58314421246723 A198.0,198.0,0,0,1,196.5863324596512,23.618083962580105 Z" fill="#e377c2" fill-opacity="0.6" />
<path d="M190.62567931631875,-53.53363788490376 A198.0,198.0,0,0,0,190.62519499488863,-53.53536245474285 C76.25007799795546,-21.41414498189714,71.98514858413603,-33.026934210124004,179.96287146034007,-82.56733552531001 A198.0,198.0,0,0,0,179.88785374121736,-82.73064774542979 C71.95514149648695,-33.092259098171915,76.2502717265275,-21.413455153961507,190.62567931631875,-53.53363788490376 Z" fill="#1f77b4" fill-opacity="0.6" />
<path d="M194.98053058481355,-34.44695476910239 A198.0,198.0,0,0,0,190.62567931631875,-53.53363788490376 C76.2502717265275,-21.413455153961507,18.889703561759426,-76.91436211364464,47.22425890439856,-192.28590528411158 A198.0,198.0,0,0,0,45.013068697791255,-192.8155171307743 C18.005227479116503,-77.12620685230974,77.99221223392543,-13.778781907640957,194.98053058481355,-34.44695476910239 Z" fill="#1f77b4" fill-opacity="0.6" />
<path d="M194.98085949875534,-34.44509296150365 A198.0,198.0,0,0,0,194.98053058481355,-34.44695476910239 C77.99221223392543,-13.778781907640957,7.281840972682518,-78.86453443753132,18.204602431706295,-197.16133609382828 A198.0,198.0,0,0,0,18.18183173994565,-197.16343726609227 C7.27273269597826,-78.86537490643691,77.99234379950214,-13.778037184601459,194.98085949875534,-34.44509296150365 Z" fill="#1f77b4" fill-opacity="0.6" />
<path d="M194.98120985666134,-34.44310965683265 A198.0,198.0,0,0,0,194.98085949875534,-34.44509296150365 C77.99234379950214,-13.778037184601459,2.7159180367918836,-79.153419314755,6.789795091979708,-197.88354828688747 A198.0,198.0,0,0,0,6.762627057823396,-197.88447861132715 C2.7050508231293584,-79.15379144453087,77.99248394266453,-13.777243862733059,194.98120985666134,-34.44310965683265 Z" fill="#1f77b4" fill-opacity="0.6" />
<path d="M194.98135506487986,-34.44228762819411 A198.0,198.0,0,0,0,194.98120985666134,-34.44310965683265 C77.99248394266453,-13.777243862733059,-45.073529240909664,-65.12309084932059,-112.68382310227416,-162.80772712330148 A198.0,198.0,0,0,0,-112.76637596085354,-162.75055899337315 C-45.10655038434142,-65.10022359734926,77.99254202595195,-13.776915051277644,194.98135506487986,-34.44228762819411 Z" fill="#1f77b4" fill-opacity="0.6" />
<path d="M194.98153100783836,-34.441291582043874 A198.0,198.0,0,0,0,194.98135506487986,-34.44228762819411 C77.99254202595195,-13.776915051277644,-60.4104344110614,-51.21737414458935,-151.0260860276535,-128.04343536147337 A198.0,198.0,0,0,0,-151.08138635836508,-127.97818054666355 C-60.432554543346036,-51.191272218665425,77.99261240313535,-13.77651663281755,194.98153100783836,-34.441291582043874 Z" fill="#1f77b4" fill-opacity="0.6" />
<path d="M194.98932180284152,-34.39715661021882 A198.0,198.0,0,0,0,194.98153100783836,-34.441291582043874 C77.99261240313535,-13.77651663281755,-74.05754702415824,-28.073470194555433,-185.1438675603956,-70.18367548638858 A198.0,198.0,0,0,0,-185.14409753027923,-70.18306882502685 C-74.0576390121117,-28.07322753001074,77.99572872113662,-13.758862644087529,194.98932180284152,-34.39715661021882 Z" fill="#d62728" fill-opacity="0.6" />
<path d="M195.18084384873018,-33.2932154424532 A198.0,198.0,0,0,0,194.98932180284152,-34.39715661021882 C77.99572872113662,-13.758862644087529,-53.75005537072166,58.16847554856803,-134.37513842680414,145.42118887142007 A198.0,198.0,0,0,0,-134.3620776031639,145.43325652051308 C-53.74483104126556,58.17330260820523,78.07233753949208,-13.317286176981282,195.18084384873018,-33.2932154424532 Z" fill="#d62728" fill-opacity="0.6" />
<path d="M195.25570301415226,-32.85133848793951 A198.0,198.0,0,0,0,195.18084384873018,-33.2932154424532 C78.07233753949208,-13.317286176981282,-24.36695290414361,75.35842093732623,-60.91738226035902,188.39605234331557 A198.0,198.0,0,0,0,-59.94282279187277,188.70839407864756 C-23.97712911674911,75.48335763145903,78.10228120566092,-13.140535395175803,195.25570301415226,-32.85133848793951 Z" fill="#1f77b4" fill-opacity="0.6" />
<path d="M195.27055481383616,-32.762942827172964 A198.0,198.0,0,0,0,195.25570301415226,-32.85133848793951 C78.10228120566092,-13.140535395175803,7.291198701661674,78.86366984545475,18.227996754154184,197.15917461363685 A198.0,198.0,0,0,0,18.22907832860674,197.15907461562483 C7.291631331442696,78.86362984624994,78.10822192553447,-13.105177130869187,195.27055481383616,-32.762942827172964 Z" fill="#9467bd" fill-opacity="0.6" />
<path d="M195.27117139026225,-32.75926775547385 A198.0,198.0,0,0,0,195.27055481383616,-32.762942827172964 C78.10822192553447,-13.105177130869187,70.80467061430572,35.487161329129584,177.0116765357643,88.71790332282396 A198.0,198.0,0,0,0,177.2954911699211,88.14935513556767 C70.91819646796844,35.25974205422707,78.10846855610491,-13.10370710218954,195.27117139026225,-32.75926775547385 Z" fill="#1f77b4" fill-opacity="0.6" />
<path d="M195.2736004364186,-32.744785426048246 A198.0,198.0,0,0,0,195.27117139026225,-32.75926775547385 C78.10846855610491,-13.10370710218954,78.42070599889881,11.082999171446248,196.051764997247,27.70749792861562 A198.0,198.0,0,0,0,196.27676503071248,26.06590702581592 C78.510706012285,10.426362810326369,78.10944017456745,-13.0979141704193,195.2736004364186,-32.744785426048246 Z" fill="#1f77b4" fill-opacity="0.6" />
<path d="M195.53393874266177,-31.152508723712664 A198.0,198.0,0,0,0,195.2736004364186,-32.744785426048246 C78.10944017456745,-13.0979141704193,79.1960146157399,0.7945243756567628,197.99003653934975,1.986310939141907 A198.0,198.0,0,0,0,197.9901000824997,1.9799670001657093 C79.19604003299989,0.7919868000662837,78.21357549706471,-12.461003489485066,195.53393874266177,-31.152508723712664 Z" fill="#e377c2" fill-opacity="0.6" />
<path d="M176.36605311589446,-89.99452932440671 A198.0,198.0,0,0,0,168.74074634224763,-103.58841886939506 C67.49629853689906,-41.43536754775803,18.93618695075497,-76.90293117798603,47.34046737688742,-192.25732794496508 A198.0,198.0,0,0,0,47.22425890439856,-192.28590528411158 C18.889703561759426,-76.91436211364464,70.54642124635778,-35.99781172976269,176.36605311589446,-89.99452932440671 Z" fill="#1f77b4" fill-opacity="0.6" />
<path d="M176.36694785279707,-89.99277584944673 A198.0,198.0,0,0,0,176.36605311589446,-89.99452932440671 C70.54642124635778,-35.99781172976269,9.903692951185073,-78.57834858234582,24.759232377962682,-196.44587145586453 A198.0,198.0,0,0,0,24.735033277582605,-196.44891989715006 C9.894013311033042,-78.57956795886003,70.54677914111883,-35.99711033977869,176.36694785279707,-89.99277584944673 Z" fill="#1f77b4" fill-opacity="0.6" />
<path d="M176.40045715247416,-89.92707443477816 A198.0,198.0,0,0,0,176.36694785279707,-89.99277584944673 C70.54677914111883,-35.99711033977869,3.112534641376749,-79.13881555915674,7.781336603441873,-197.84703889789185 A198.0,198.0,0,0,0,6.789795091979708,-197.88354828688747 C2.7159180367918836,-79.153419314755,70.56018286098967,-35.97082977391127,176.40045715247416,-89.92707443477816 Z" fill="#1f77b4" fill-opacity="0.6" />
<path d="M176.4412508775993,-89.84700879132298 A198.0,198.0,0,0,0,176.40045715247416,-89.92707443477816 C70.56018286098967,-35.97082977391127,-45.073174880590415,-65.12333611067321,-112.68293720147602,-162.80834027668303 A198.0,198.0,0,0,0,-112.68382310227416,-162.80772712330148 C-45.073529240909664,-65.12309084932059,70.57650035103971,-35.93880351652919,176.4412508775993,-89.84700879132298 Z" fill="#2ca02c" fill-opacity="0.6" />
<path d="M176.48200826207685,-89.76692464256664 A198.0,198.0,0,0,0,176.4412508775993,-89.84700879132298 C70.57650035103971,-35.93880351652919,-60.41023848909594,-51.21760523189806,-151.02559622273984,-128.04401307974516 A198.0,198.0,0,0,0,-151.0260860276535,-128.04343536147337 C-60.4104344110614,-51.21737414458935,70.59280330483074,-35.90676985702665,176.48200826207685,-89.76692464256664 Z" fill="#2ca02c" fill-opacity="0.6" />
<path d="M177.36945962574706,-88.00042495391988 A198.0,198.0,0,0,0,176.48200826207685,-89.76692464256664 C70.59280330483074,-35.90676985702665,-74.05350194274038,-28.084138762236364,-185.13375485685094,-70.21034690559091 A198.0,198.0,0,0,0,-185.1438675603956,-70.18367548638858 C-74.05754702415824,-28.073470194555433,70.94778385029882,-35.20016998156795,177.36945962574706,-88.00042495391988 Z" fill="#d62728" fill-opacity="0.6" />
<path d="M178.0627648866807,-86.58898175236078 A198.0,198.0,0,0,0,177.36945962574706,-88.00042495391988 C70.94778385029882,-35.20016998156795,-78.53179120012064,-10.266341651272633,-196.32947800030158,-25.665854128181582 A198.0,198.0,0,0,0,-196.33156686946268,-25.6498703813821 C-78.53262674778507,-10.259948152552841,71.22510595467229,-34.635592700944315,178.0627648866807,-86.58898175236078 Z" fill="#d62728" fill-opacity="0.6" />
<path d="M179.20603263157895,-84.1973744747986 A198.0,198.0,0,0,0,178.0627648866807,-86.58898175236078 C71.22510595467229,-34.635592700944315,-75.04575184023473,25.313536511793554,-187.61437960058683,63.28384127948388 A198.0,198.0,0,0,0,-187.60050451156945,63.324961168599344 C-75.04020180462778,25.32998446743974,71.68241305263159,-33.678949789919436,179.20603263157895,-84.1973744747986 Z" fill="#d62728" fill-opacity="0.6" />
<path d="M179.3014461783904,-83.9939962041203 A198.0,198.0,0,0,0,179.20603263157895,-84.1973744747986 C71.68241305263159,-33.678949789919436,-24.367493239361977,75.35824621917398,-60.918733098404935,188.39561554793494 A198.0,198.0,0,0,0,-60.91738226035902,188.39605234331557 C-24.36695290414361,75.35842093732623,71.72057847135616,-33.59759848164812,179.3014461783904,-83.9939962041203 Z" fill="#9467bd" fill-opacity="0.6" />
<path d="M179.47260883684822,-83.62764302128613 A198.0,198.0,0,0,0,179.3014461783904,-83.9939962041203 C71.72057847135616,-33.59759848164812,7.289253391864645,78.86384967137472,18.223133479661612,197.1596241784368 A198.0,198.0,0,0,0,18.227996754154184,197.15917461363685 C7.291198701661674,78.86366984545475,71.78904353473929,-33.451057208514456,179.47260883684822,-83.62764302128613 Z" fill="#9467bd" fill-opacity="0.6" />
<path d="M179.52949674905292,-83.50544770870815 A198.0,198.0,0,0,0,179.47260883684822,-83.62764302128613 C71.78904353473929,-33.451057208514456,46.14867862670974,64.36566989481787,115.37169656677433,160.91417473704468 A198.0,198.0,0,0,0,115.37297682559613,160.913256813727 C46.14919073023845,64.3653027254908,71.81179869962118,-33.40217908348326,179.52949674905292,-83.50544770870815 Z" fill="#8c564b" fill-opacity="0.6" />
<path d="M179.60521787560208,-83.34246043798751 A198.0,198.0,0,0,0,179.52949674905292,-83.50544770870815 C71.81179869962118,-33.40217908348326,70.80412313655812,35.48825364628578,177.0103078413953,88.72063411571445 A198.0,198.0,0,0,0,177.0116765357643,88.71790332282396 C70.80467061430572,35.487161329129584,71.84208715024083,-33.336984175195006,179.60521787560208,-83.34246043798751 Z" fill="#e377c2" fill-opacity="0.6" />
<path d="M179.88785374121736,-82.73064774542979 A198.0,198.0,0,0,0,179.60521787560208,-83.34246043798751 C71.84208715024083,-33.336984175195006,79.19600400954833,0.795580869305993,197.9900100238708,1.9889521732649824 A198.0,198.0,0,0,0,197.99003653934975,1.986310939141907 C79.1960146157399,0.7945243756567628,71.95514149648695,-33.092259098171915,179.88785374121736,-82.73064774542979 Z" fill="#e377c2" fill-opacity="0.6" />
<path d="M34.85652442439668,-194.90772869501978 A198.0,198.0,0,0,0,33.33977826592559,-195.17289562123867 C13.335911306370235,-78.06915824849547,12.554565945337854,-78.19861171353469,31.386414863344633,-195.4965292838367 A198.0,198.0,0,0,0,24.759232377962682,-196.44587145586453 C9.903692951185073,-78.57834858234582,13.942609769758674,-77.96309147800793,34.85652442439668,-194.90772869501978 Z" fill="#1f77b4" fill-opacity="0.6" />
<path d="M35.864303726319996,-194.72481022773206 A198.0,198.0,0,0,0,34.85652442439668,-194.90772869501978 C13.942609769758674,-77.96309147800793,9.005968543335625,-78.6862918849049,22.514921358339063,-196.71572971226223 A198.0,198.0,0,0,0,18.204602431706295,-197.16133609382828 C7.281840972682518,-78.86453443753132,14.345721490528,-77.88992409109284,35.864303726319996,-194.72481022773206 Z" fill="#1f77b4" fill-opacity="0.6" />
<path d="M37.18847900513168,-194.47626340837814 A198.0,198.0,0,0,0,35.864303726319996,-194.72481022773206 C14.345721490528,-77.88992409109284,5.6529440589900055,-78.99800138906004,14.132360147475014,-197.49500347265007 A198.0,198.0,0,0,0,7.781336603441873,-197.84703889789185 C3.112534641376749,-79.13881555915674,14.875391602052673,-77.79050536335126,37.18847900513168,-194.47626340837814 Z" fill="#1f77b4" fill-opacity="0.6" />
<path d="M37.3012576318804,-194.45466355703607 A198.0,198.0,0,0,0,37.18847900513168,-194.47626340837814 C14.875391602052673,-77.79050536335126,-18.116177293735333,-77.10022127245777,-45.29044323433833,-192.75055318114443 A198.0,198.0,0,0,0,-49.75407233219836,-191.6468947996872 C-19.901628932879348,-76.65875791987489,14.92050305275216,-77.78186542281443,37.3012576318804,-194.45466355703607 Z" fill="#1f77b4" fill-opacity="0.6" />
<path d="M37.357504509619034,-194.44386556745314 A198.0,198.0,0,0,0,37.3012576318804,-194.45466355703607 C14.92050305275216,-77.78186542281443,-44.27720621829496,-65.66710751588334,-110.69301554573738,-164.16776878970836 A198.0,198.0,0,0,0,-112.68293720147602,-162.80834027668303 C-45.073174880590415,-65.12333611067321,14.943001803847615,-77.77754622698126,37.357504509619034,-194.44386556745314 Z" fill="#1f77b4" fill-opacity="0.6" />
<path d="M38.132434386549946,-194.29337983512323 A198.0,198.0,0,0,0,37.357504509619034,-194.44386556745314 C14.943001803847615,-77.77754622698126,-53.964240487605565,-57.96982619083718,-134.9106012190139,-144.92456547709295 A198.0,198.0,0,0,0,-151.02559622273984,-128.04401307974516 C-60.41023848909594,-51.21760523189806,15.25297375461998,-77.7173519340493,38.132434386549946,-194.29337983512323 Z" fill="#1f77b4" fill-opacity="0.6" />
<path d="M38.18785206382508,-194.28249523503501 A198.0,198.0,0,0,0,38.132434386549946,-194.29337983512323 C15.25297375461998,-77.7173519340493,-73.64015935143114,-29.150762094597635,-184.10039837857784,-72.87690523649408 A198.0,198.0,0,0,0,-185.13375485685094,-70.21034690559091 C-74.05350194274038,-28.084138762236364,15.275140825530034,-77.71299809401401,38.18785206382508,-194.28249523503501 Z" fill="#1f77b4" fill-opacity="0.6" />
<path d="M38.31809904780026,-194.25684874763868 A198.0,198.0,0,0,0,38.18785206382508,-194.28249523503501 C15.275140825530034,-77.71299809401401,-78.26136089892302,-12.157277254736115,-195.65340224730753,-30.393193136840285 A198.0,198.0,0,0,0,-196.32947800030158,-25.665854128181582 C-78.53179120012064,-10.266341651272633,15.327239619120105,-77.70273949905548,38.31809904780026,-194.25684874763868 Z" fill="#1f77b4" fill-opacity="0.6" />
<path d="M38.357928466953574,-194.24898796061737 A198.0,198.0,0,0,0,38.31809904780026,-194.25684874763868 C15.327239619120105,-77.70273949905548,-75.33874088422674,24.42773264098291,-188.34685221056685,61.069331602457275 A198.0,198.0,0,0,0,-187.61437960058683,63.28384127948388 C-75.04575184023473,25.313536511793554,15.34317138678143,-77.69959518424696,38.357928466953574,-194.24898796061737 Z" fill="#1f77b4" fill-opacity="0.6" />
<path d="M38.5927075599411,-194.2024791891001 A198.0,198.0,0,0,0,38.357928466953574,-194.24898796061737 C15.34317138678143,-77.69959518424696,-54.94496249672736,57.041135123989456,-137.3624062418184,142.60283780997364 A198.0,198.0,0,0,0,-134.37513842680414,145.42118887142007 C-53.75005537072166,58.16847554856803,15.43708302397644,-77.68099167564004,38.5927075599411,-194.2024791891001 Z" fill="#1f77b4" fill-opacity="0.6" />
<path d="M38.6466883729788,-194.19174410309483 A198.0,198.0,0,0,0,38.5927075599411,-194.2024791891001 C15.43708302397644,-77.68099167564004,-29.525489617146384,73.49071684823724,-73.81372404286596,183.7267921205931 A198.0,198.0,0,0,0,-71.48640428468326,184.6447778910815 C-28.594561713873304,73.8579111564326,15.458675349191521,-77.67669764123794,38.6466883729788,-194.19174410309483 Z" fill="#1f77b4" fill-opacity="0.6" />
<path d="M42.97931600446394,-193.27901695680373 A198.0,198.0,0,0,0,38.6466883729788,-194.19174410309483 C15.458675349191521,-77.67669764123794,-24.963144400130158,75.16303228089092,-62.40786100032539,187.90758070222728 A198.0,198.0,0,0,0,-60.918733098404935,188.39561554793494 C-24.367493239361977,75.35824621917398,17.191726401785576,-77.3116067827215,42.97931600446394,-193.27901695680373 Z" fill="#1f77b4" fill-opacity="0.6" />
<path d="M43.000848014811396,-193.27422764043604 A198.0,198.0,0,0,0,42.97931600446394,-193.27901695680373 C17.191726401785576,-77.3116067827215,-20.270822704503246,76.56196018182003,-50.67705676125811,191.40490045455007 A198.0,198.0,0,0,0,-50.23426793987748,191.52158709802035 C-20.093707175950996,76.60863483920814,17.20033920592456,-77.30969105617442,43.000848014811396,-193.27422764043604 Z" fill="#1f77b4" fill-opacity="0.6" />
<path d="M43.1556417172136,-193.23972311089534 A198.0,198.0,0,0,0,43.000848014811396,-193.27422764043604 C17.20033920592456,-77.30969105617442,4.608014078801225,79.06583463323187,11.520035197003061,197.66458658307968 A198.0,198.0,0,0,0,18.223133479661612,197.1596241784368 C7.289253391864645,78.86384967137472,17.26225668688544,-77.29588924435814,43.1556417172136,-193.23972311089534 Z" fill="#1f77b4" fill-opacity="0.6" />
<path d="M43.19621117075383,-193.23065838652943 A198.0,198.0,0,0,0,43.1556417172136,-193.23972311089534 C17.26225668688544,-77.29588924435814,10.844165357629457,78.45408898009326,27.11041339407364,196.13522245023313 A198.0,198.0,0,0,0,27.30013242416889,196.10890538071658 C10.920052969667557,78.44356215228663,17.27848446830153,-77.29226335461178,43.19621117075383,-193.23065838652943 Z" fill="#1f77b4" fill-opacity="0.6" />
<path d="M43.27355048597921,-193.21335313155095 A198.0,198.0,0,0,0,43.19621117075383,-193.23065838652943 C17.27848446830153,-77.29226335461178,21.767225930295744,76.15003529414456,54.41806482573936,190.37508823536137 A198.0,198.0,0,0,0,56.01599378064373,189.91105402468514 C22.406397512257495,75.96442160987407,17.309420194391684,-77.28534125262038,43.27355048597921,-193.21335313155095 Z" fill="#1f77b4" fill-opacity="0.6" />
<path d="M43.5070741179188,-193.16090313957926 A198.0,198.0,0,0,0,43.27355048597921,-193.21335313155095 C17.309420194391684,-77.28534125262038,45.24549738435004,65.00373040405277,113.11374346087509,162.50932601013193 A198.0,198.0,0,0,0,115.37169656677433,160.91417473704468 C46.14867862670974,64.36566989481787,17.40282964716752,-77.26436125583172,43.5070741179188,-193.16090313957926 Z" fill="#1f77b4" fill-opacity="0.6" />
<path d="M43.61215088330021,-193.13720588051453 A198.0,198.0,0,0,0,43.5070741179188,-193.16090313957926 C17.40282964716752,-77.26436125583172,69.61545297946024,37.766767222845,174.03863244865062,94.4169180571125 A198.0,198.0,0,0,0,177.0103078413953,88.72063411571445 C70.80412313655812,35.48825364628578,17.444860353320085,-77.25488235220581,43.61215088330021,-193.13720588051453 Z" fill="#1f77b4" fill-opacity="0.6" />
<path d="M43.730174125955486,-193.1105172457306 A198.0,198.0,0,0,0,43.61215088330021,-193.13720588051453 C17.444860353320085,-77.25488235220581,78.13059059897014,12.97115309662638,195.32647649742535,32.42788274156595 A198.0,198.0,0,0,0,196.051764997247,27.70749792861562 C78.42070599889881,11.082999171446248,17.492069650382195,-77.24420689829225,43.730174125955486,-193.1105172457306 Z" fill="#1f77b4" fill-opacity="0.6" />
<path d="M45.013068697791255,-192.8155171307743 A198.0,198.0,0,0,0,43.730174125955486,-193.1105172457306 C17.492069650382195,-77.24420689829225,79.19209015674237,1.119310772927086,197.9802253918559,2.7982769323177146 A198.0,198.0,0,0,0,197.9900100238708,1.9889521732649824 C79.19600400954833,0.795580869305993,18.005227479116503,-77.12620685230974,45.013068697791255,-192.8155171307743 Z" fill="#1f77b4" fill-opacity="0.6" />
<path d="M24.493021690979788,-196.47924034982728 A198.0,198.0,0,0,0,24.480920132983933,-196.48074854662596 C9.792368053193574,-78.59229941865038,-44.27681482333767,-65.66737141914443,-110.69203705834418,-164.16842854786105 A198.0,198.0,0,0,0,-110.69301554573738,-164.16776878970836 C-44.27720621829496,-65.66710751588334,9.797208676391916,-78.59169613993092,24.493021690979788,-196.47924034982728 Z" fill="#2ca02c" fill-opacity="0.6" />
<path d="M24.517224528179035,-196.4762217201737 A198.0,198.0,0,0,0,24.493021690979788,-196.47924034982728 C9.797208676391916,-78.59169613993092,-78.26123699345071,-12.15807485809097,-195.65309248362675,-30.39518714522742 A198.0,198.0,0,0,0,-195.65340224730753,-30.393193136840285 C-78.26136089892302,-12.157277254736115,9.806889811271615,-78.59048868806948,24.517224528179035,-196.4762217201737 Z" fill="#d62728" fill-opacity="0.6" />
<path d="M24.529325807290608,-196.47471128733028 A198.0,198.0,0,0,0,24.517224528179035,-196.4762217201737 C9.806889811271615,-78.59048868806948,-54.945411053898276,57.040703047193894,-137.36352763474568,142.60175761798473 A198.0,198.0,0,0,0,-137.3624062418184,142.60283780997364 C-54.94496249672736,57.041135123989456,9.811730322916244,-78.58988451493212,24.529325807290608,-196.47471128733028 Z" fill="#d62728" fill-opacity="0.6" />
<path d="M24.541426993348896,-196.47320010915007 A198.0,198.0,0,0,0,24.529325807290608,-196.47471128733028 C9.811730322916244,-78.58988451493212,-24.96338053126296,75.16295385661317,-62.4084513281574,187.90738464153293 A198.0,198.0,0,0,0,-62.40786100032539,187.90758070222728 C-24.963144400130158,75.16303228089092,9.816570797339558,-78.58928004366004,24.541426993348896,-196.47320010915007 Z" fill="#9467bd" fill-opacity="0.6" />
<path d="M24.62613268641033,-196.46260099294042 A198.0,198.0,0,0,0,24.541426993348896,-196.47320010915007 C9.816570797339558,-78.58928004366004,4.604690978740186,79.06602823583785,11.511727446850465,197.66507058959462 A198.0,198.0,0,0,0,11.520035197003061,197.66458658307968 C4.608014078801225,79.06583463323187,9.850453074564133,-78.58504039717617,24.62613268641033,-196.46260099294042 Z" fill="#9467bd" fill-opacity="0.6" />
<path d="M24.638233126390077,-196.46108385227254 A198.0,198.0,0,0,0,24.62613268641033,-196.46260099294042 C9.850453074564133,-78.58504039717617,45.245119716672576,65.00399327598242,113.11279929168144,162.50998318995605 A198.0,198.0,0,0,0,113.11374346087509,162.50932601013193 C45.24549738435004,65.00373040405277,9.85529325055603,-78.58443354090902,24.638233126390077,-196.46108385227254 Z" fill="#8c564b" fill-opacity="0.6" />
<path d="M24.650333472903476,-196.45956596631953 A198.0,198.0,0,0,0,24.638233126390077,-196.46108385227254 C9.85529325055603,-78.58443354090902,69.61513387789884,37.7673554165793,174.0378346947471,94.41838854144825 A198.0,198.0,0,0,0,174.03863244865062,94.4169180571125 C69.61545297946024,37.766767222845,9.86013338916139,-78.58382638652782,24.650333472903476,-196.45956596631953 Z" fill="#e377c2" fill-opacity="0.6" />
<path d="M24.674533885347504,-196.45652795858132 A198.0,198.0,0,0,0,24.650333472903476,-196.45956596631953 C9.86013338916139,-78.58382638652782,78.13044555647372,12.972026717012932,195.32611389118426,32.43006679253233 A198.0,198.0,0,0,0,195.32647649742535,32.42788274156595 C78.13059059897014,12.97115309662638,9.869813554139002,-78.58261118343253,24.674533885347504,-196.45652795858132 Z" fill="#e377c2" fill-opacity="0.6" />
<path d="M24.735033277582605,-196.44891989715006 A198.0,198.0,0,0,0,24.674533885347504,-196.45652795858132 C9.869813554139002,-78.58261118343253,79.19207924912588,1.1200822291985002,197.9801981228147,2.8002055729962505 A198.0,198.0,0,0,0,197.9802253918559,2.7982769323177146 C79.19209015674237,1.119310772927086,9.894013311033042,-78.57956795886003,24.735033277582605,-196.44891989715006 Z" fill="#e377c2" fill-opacity="0.6" />
<path d="M16.348021915427317,-197.32395237135484 A198.0,198.0,0,0,0,16.120117550342208,-197.34270143626583 C6.448047020136883,-78.93708057450634,-73.63612916672771,-29.160941022898978,-184.09032291681928,-72.90235255724744 A198.0,198.0,0,0,0,-184.10039837857784,-72.87690523649408 C-73.64015935143114,-29.150762094597635,6.539208766170927,-78.92958094854194,16.348021915427317,-197.32395237135484 Z" fill="#d62728" fill-opacity="0.6" />
<path d="M16.37081115763941,-197.3220629885085 A198.0,198.0,0,0,0,16.348021915427317,-197.32395237135484 C6.539208766170927,-78.92958094854194,-78.26111759340155,-12.158843408473329,-195.65279398350387,-30.39710852118332 A198.0,198.0,0,0,0,-195.65309248362675,-30.39518714522742 C-78.26123699345071,-12.15807485809097,6.5483244630557635,-78.9288251954034,16.37081115763941,-197.3220629885085 Z" fill="#d62728" fill-opacity="0.6" />
<path d="M17.03160296084245,-197.2661260850028 A198.0,198.0,0,0,0,16.37081115763941,-197.3220629885085 C6.5483244630557635,-78.9288251954034,-75.3498436078142,24.393463638400007,-188.37460901953548,60.98365909600001 A198.0,198.0,0,0,0,-188.34685221056685,61.069331602457275 C-75.33874088422674,24.42773264098291,6.81264118433698,-78.90645043400113,17.03160296084245,-197.2661260850028 Z" fill="#d62728" fill-opacity="0.6" />
<path d="M17.464432391907646,-197.22827789449587 A198.0,198.0,0,0,0,17.03160296084245,-197.2661260850028 C6.81264118433698,-78.90645043400113,-54.961833035570365,57.02487974007562,-137.4045825889259,142.56219935018905 A198.0,198.0,0,0,0,-137.36352763474568,142.60175761798473 C-54.945411053898276,57.040703047193894,6.985772956763059,-78.89131115779836,17.464432391907646,-197.22827789449587 Z" fill="#d62728" fill-opacity="0.6" />
<path d="M18.033816345725786,-197.17703078200725 A198.0,198.0,0,0,0,17.464432391907646,-197.22827789449587 C6.985772956763059,-78.89131115779836,-29.548286368701838,73.48155396201955,-73.8707159217546,183.70388490504885 A198.0,198.0,0,0,0,-73.81372404286596,183.7267921205931 C-29.525489617146384,73.49071684823724,7.213526538290314,-78.87081231280291,18.033816345725786,-197.17703078200725 Z" fill="#d62728" fill-opacity="0.6" />
<path d="M18.124903950197133,-197.16867869110482 A198.0,198.0,0,0,0,18.033816345725786,-197.17703078200725 C7.213526538290314,-78.87081231280291,4.601031472195101,79.06624127522359,11.502578680487751,197.66560318805895 A198.0,198.0,0,0,0,11.511727446850465,197.66507058959462 C4.604690978740186,79.06602823583785,7.249961580078853,-78.86747147644193,18.124903950197133,-197.16867869110482 Z" fill="#9467bd" fill-opacity="0.6" />
<path d="M18.136289629177444,-197.16763172104743 A198.0,198.0,0,0,0,18.124903950197133,-197.16867869110482 C7.249961580078853,-78.86747147644193,45.24475580365776,65.00424657103086,113.11188950914439,162.51061642757716 A198.0,198.0,0,0,0,113.11279929168144,162.50998318995605 C45.245119716672576,65.00399327598242,7.254515851670978,-78.86705268841898,18.136289629177444,-197.16763172104743 Z" fill="#8c564b" fill-opacity="0.6" />
<path d="M18.18183173994565,-197.16343726609227 A198.0,198.0,0,0,0,18.136289629177444,-197.16763172104743 C7.254515851670978,-78.86705268841898,79.19207083574108,1.1206769146225772,197.98017708935268,2.801692286556443 A198.0,198.0,0,0,0,197.9801981228147,2.8002055729962505 C79.19207924912588,1.1200822291985002,7.27273269597826,-78.86537490643691,18.18183173994565,-197.16343726609227 Z" fill="#e377c2" fill-opacity="0.6" />
<path d="M6.613200605155144,-197.8895287218502 A198.0,198.0,0,0,0,6.572447278226618,-197.8908864419353 C2.6289789112906474,-79.15635457677412,-44.275609565494555,-65.66818405897858,-110.68902391373638,-164.17046014744645 A198.0,198.0,0,0,0,-110.69203705834418,-164.16842854786105 C-44.27681482333767,-65.66737141914443,2.6452802420620576,-79.15581148874008,6.613200605155144,-197.8895287218502 Z" fill="#2ca02c" fill-opacity="0.6" />
<path d="M6.626784985222919,-197.88907428344706 A198.0,198.0,0,0,0,6.613200605155144,-197.8895287218502 C2.6452802420620576,-79.15581148874008,-54.962293328075944,57.02443609645376,-137.40573332018985,142.5610902411344 A198.0,198.0,0,0,0,-137.4045825889259,142.56219935018905 C-54.961833035570365,57.02487974007562,2.650713994089168,-79.15562971337883,6.626784985222919,-197.88907428344706 Z" fill="#d62728" fill-opacity="0.6" />
<path d="M6.7354588961963175,-197.88540520578482 A198.0,198.0,0,0,0,6.626784985222919,-197.88907428344706 C2.650713994089168,-79.15562971337883,4.597133151030034,79.0664680303332,11.492832877575085,197.66617007583298 A198.0,198.0,0,0,0,11.502578680487751,197.66560318805895 C4.601031472195101,79.06624127522359,2.694183558478527,-79.15416208231393,6.7354588961963175,-197.88540520578482 Z" fill="#9467bd" fill-opacity="0.6" />
<path d="M6.762627057823396,-197.88447861132715 A198.0,198.0,0,0,0,6.7354588961963175,-197.88540520578482 C2.694183558478527,-79.15416208231393,79.19206635271516,1.120993660625098,197.98016588178788,2.802484151562745 A198.0,198.0,0,0,0,197.98017708935268,2.801692286556443 C79.19207083574108,1.1206769146225772,2.7050508231293584,-79.15379144453087,6.762627057823396,-197.88447861132715 Z" fill="#e377c2" fill-opacity="0.6" />
<path d="M-50.71117400729731,-191.39586419461006 A198.0,198.0,0,0,0,-53.74286396766374,-190.56679819043293 C-21.497145587065496,-76.22671927617317,-42.98507142608892,-66.5200994774815,-107.4626785652223,-166.30024869370374 A198.0,198.0,0,0,0,-110.68902391373638,-164.17046014744645 C-44.275609565494555,-65.66818405897858,-20.284469602918925,-76.55834567784403,-50.71117400729731,-191.39586419461006 Z" fill="#2ca02c" fill-opacity="0.6" />
<path d="M-50.3172253304044,-191.49980896870187 A198.0,198.0,0,0,0,-50.71117400729731,-191.39586419461006 C-20.284469602918925,-76.55834567784403,-53.863988725028165,-58.06298923264318,-134.6599718125704,-145.15747308160795 A198.0,198.0,0,0,0,-134.9106012190139,-144.92456547709295 C-53.964240487605565,-57.96982619083718,-20.126890132161762,-76.59992358748075,-50.3172253304044,-191.49980896870187 Z" fill="#2ca02c" fill-opacity="0.6" />
<path d="M-49.92306359710823,-191.6029428820943 A198.0,198.0,0,0,0,-50.3172253304044,-191.49980896870187 C-20.126890132161762,-76.59992358748075,-24.964237161639304,75.16266934414601,-62.41059290409825,187.90667336036503 A198.0,198.0,0,0,0,-62.4084513281574,187.90738464153293 C-24.96338053126296,75.16295385661317,-19.969225438843296,-76.64117715283773,-49.92306359710823,-191.6029428820943 Z" fill="#9467bd" fill-opacity="0.6" />
<path d="M-49.866737483012145,-191.6176100800768 A198.0,198.0,0,0,0,-49.92306359710823,-191.6029428820943 C-19.969225438843296,-76.64117715283773,4.59688711903202,79.0664823348989,11.49221779758005,197.66620583724722 A198.0,198.0,0,0,0,11.492832877575085,197.66617007583298 C4.597133151030034,79.0664680303332,-19.946694993204858,-76.64704403203072,-49.866737483012145,-191.6176100800768 Z" fill="#9467bd" fill-opacity="0.6" />
<path d="M-49.75407233219836,-191.6468947996872 A198.0,198.0,0,0,0,-49.866737483012145,-191.6176100800768 C-19.946694993204858,-76.64704403203072,79.19206408876484,1.1211535849134857,197.9801602219121,2.802883962283714 A198.0,198.0,0,0,0,197.98016588178788,2.802484151562745 C79.19206635271516,1.120993660625098,-19.901628932879348,-76.65875791987489,-49.75407233219836,-191.6468947996872 Z" fill="#e377c2" fill-opacity="0.6" />
<path d="M-116.1669898506877,-160.34098187621973 A198.0,198.0,0,0,0,-116.28893075454324,-160.25256498404337 C-46.5155723018173,-64.10102599361736,-53.44875343234959,-58.44545111920943,-133.62188358087397,-146.11362779802357 A198.0,198.0,0,0,0,-134.6599718125704,-145.15747308160795 C-53.863988725028165,-58.06298923264318,-46.466795940275084,-64.1363927504879,-116.1669898506877,-160.34098187621973 Z" fill="#2ca02c" fill-opacity="0.6" />
<path d="M-115.67855468977919,-160.6937210499644 A198.0,198.0,0,0,0,-116.1669898506877,-160.34098187621973 C-46.466795940275084,-64.1363927504879,-78.26080125152788,-12.160879387151734,-195.6520031288197,-30.402198467879334 A198.0,198.0,0,0,0,-195.65279398350387,-30.39710852118332 C-78.26111759340155,-12.158843408473329,-46.27142187591168,-64.27748841998577,-115.67855468977919,-160.6937210499644 Z" fill="#d62728" fill-opacity="0.6" />
<path d="M-113.46740738190374,-162.2625879925163 A198.0,198.0,0,0,0,-115.67855468977919,-160.6937210499644 C-46.27142187591168,-64.27748841998577,-75.35440309234598,24.37937518879927,-188.38600773086492,60.94843797199817 A198.0,198.0,0,0,0,-188.37460901953548,60.98365909600001 C-75.3498436078142,24.393463638400007,-45.3869629527615,-64.90503519700653,-113.46740738190374,-162.2625879925163 Z" fill="#d62728" fill-opacity="0.6" />
<path d="M-113.42625829052008,-162.29135506924646 A198.0,198.0,0,0,0,-113.46740738190374,-162.2625879925163 C-45.3869629527615,-64.90503519700653,-54.96248410615686,57.024252216758214,-137.40621026539213,142.56063054189553 A198.0,198.0,0,0,0,-137.40573332018985,142.5610902411344 C-54.962293328075944,57.02443609645376,-45.37050331620804,-64.91654202769858,-113.42625829052008,-162.29135506924646 Z" fill="#d62728" fill-opacity="0.6" />
<path d="M-112.766882748804,-162.7502078496906 A198.0,198.0,0,0,0,-113.42625829052008,-162.29135506924646 C-45.37050331620804,-64.91654202769858,-24.965844497772057,75.16213547068142,-62.41461124443014,187.90533867670354 A198.0,198.0,0,0,0,-62.41059290409825,187.90667336036503 C-24.964237161639304,75.16266934414601,-45.1067530995216,-65.10008313987625,-112.766882748804,-162.7502078496906 Z" fill="#9467bd" fill-opacity="0.6" />
<path d="M-112.76637596085354,-162.75055899337315 A198.0,198.0,0,0,0,-112.766882748804,-162.7502078496906 C-45.1067530995216,-65.10008313987625,45.225022670384924,65.01797693302346,113.0625566759623,162.54494233255866 A198.0,198.0,0,0,0,113.11188950914439,162.51061642757716 C45.24475580365776,65.00424657103086,-45.10655038434142,-65.10022359734926,-112.76637596085354,-162.75055899337315 Z" fill="#2ca02c" fill-opacity="0.6" />
<path d="M-151.35773003633386,-127.65123406472918 A198.0,198.0,0,0,0,-151.36288688338735,-127.64511927342495 C-60.54515475335494,-51.05804770936999,-78.20010905484264,-12.545235900959247,-195.5002726371066,-31.363089752398114 A198.0,198.0,0,0,0,-195.6520031288197,-30.402198467879334 C-78.26080125152788,-12.160879387151734,-60.54309201453355,-51.060493625891674,-151.35773003633386,-127.65123406472918 Z" fill="#2ca02c" fill-opacity="0.6" />
<path d="M-151.3301540082764,-127.68392415582844 A198.0,198.0,0,0,0,-151.35773003633386,-127.65123406472918 C-60.54309201453355,-51.060493625891674,-75.35450537120096,24.379059052015247,-188.3862634280024,60.94764763003811 A198.0,198.0,0,0,0,-188.38600773086492,60.94843797199817 C-75.35440309234598,24.37937518879927,-60.53206160331056,-51.07356966233138,-151.3301540082764,-127.68392415582844 Z" fill="#d62728" fill-opacity="0.6" />
<path d="M-151.19216798813656,-127.84728522361003 A198.0,198.0,0,0,0,-151.3301540082764,-127.68392415582844 C-60.53206160331056,-51.07356966233138,4.595663495989608,79.06655346625165,11.48915873997402,197.6663836656291 A198.0,198.0,0,0,0,11.49221779758005,197.66620583724722 C4.59688711903202,79.0664823348989,-60.47686719525463,-51.138914089444015,-151.19216798813656,-127.84728522361003 Z" fill="#9467bd" fill-opacity="0.6" />
<path d="M-151.19190242427428,-127.84759927870654 A198.0,198.0,0,0,0,-151.19216798813656,-127.84728522361003 C-60.47686719525463,-51.138914089444015,21.75599854028502,76.15324370974041,54.38999635071254,190.383109274351 A198.0,198.0,0,0,0,54.41806482573936,190.37508823536137 C21.767225930295744,76.15003529414456,-60.476760969709716,-51.13903971148262,-151.19190242427428,-127.84759927870654 Z" fill="#2ca02c" fill-opacity="0.6" />
<path d="M-151.1366584940104,-127.9129018483471 A198.0,198.0,0,0,0,-151.19190242427428,-127.84759927870654 C-60.476760969709716,-51.13903971148262,69.61480487870314,37.767961842017506,174.03701219675784,94.41990460504375 A198.0,198.0,0,0,0,174.0378346947471,94.41838854144825 C69.61513387789884,37.7673554165793,-60.45466339760416,-51.165160739338845,-151.1366584940104,-127.9129018483471 Z" fill="#e377c2" fill-opacity="0.6" />
<path d="M-151.08138635836508,-127.97818054666355 A198.0,198.0,0,0,0,-151.1366584940104,-127.9129018483471 C-60.45466339760416,-51.165160739338845,78.13037078318683,12.97247706807557,195.32592695796706,32.43119267018892 A198.0,198.0,0,0,0,195.32611389118426,32.43006679253233 C78.13044555647372,12.972026717012932,-60.432554543346036,-51.191272218665425,-151.08138635836508,-127.97818054666355 Z" fill="#e377c2" fill-opacity="0.6" />
<path d="M-186.14678809253593,-67.47868761937002 A198.0,198.0,0,0,0,-186.1495454532717,-67.47108067565188 C-74.45981818130869,-26.988432270260752,-78.16335811468936,-12.772213912819712,-195.4083952867234,-31.93053478204928 A198.0,198.0,0,0,0,-195.5002726371066,-31.363089752398114 C-78.20010905484264,-12.545235900959247,-74.45871523701437,-26.99147504774801,-186.14678809253593,-67.47868761937002 Z" fill="#d62728" fill-opacity="0.6" />
<path d="M-186.09919912953325,-67.6098223880697 A198.0,198.0,0,0,0,-186.14678809253593,-67.47868761937002 C-74.45871523701437,-26.99147504774801,-78.81993418363965,7.74970807751576,-197.0498354590991,19.3742701937894 A198.0,198.0,0,0,0,-188.3862634280024,60.94764763003811 C-75.35450537120096,24.379059052015247,-74.43967965181331,-27.043928955227884,-186.09919912953325,-67.6098223880697 Z" fill="#d62728" fill-opacity="0.6" />
<path d="M-185.69096547973425,-68.72310629769396 A198.0,198.0,0,0,0,-186.09919912953325,-67.6098223880697 C-74.43967965181331,-27.043928955227884,-55.133934694694176,56.858501959524034,-137.83483673673544,142.14625489881007 A198.0,198.0,0,0,0,-137.40621026539213,142.56063054189553 C-54.96248410615686,57.024252216758214,-74.2763861918937,-27.489242519077585,-185.69096547973425,-68.72310629769396 Z" fill="#d62728" fill-opacity="0.6" />
<path d="M-185.34977177682836,-69.63807939825476 A198.0,198.0,0,0,0,-185.69096547973425,-68.72310629769396 C-74.2763861918937,-27.489242519077585,-29.816858608134716,73.37298510175597,-74.54214652033679,183.43246275438992 A198.0,198.0,0,0,0,-73.8707159217546,183.70388490504885 C-29.548286368701838,73.48155396201955,-74.13990871073135,-27.855231759301905,-185.34977177682836,-69.63807939825476 Z" fill="#d62728" fill-opacity="0.6" />
<path d="M-185.34951496876755,-69.6387629186692 A198.0,198.0,0,0,0,-185.34977177682836,-69.63807939825476 C-74.13990871073135,-27.855231759301905,-24.977984344431114,75.1581020122871,-62.44496086107778,187.89525503071775 A198.0,198.0,0,0,0,-62.41461124443014,187.90533867670354 C-24.965844497772057,75.16213547068142,-74.13980598750702,-27.855505167467683,-185.34951496876755,-69.6387629186692 Z" fill="#d62728" fill-opacity="0.6" />
<path d="M-185.34408522099287,-69.65321294522836 A198.0,198.0,0,0,0,-185.34951496876755,-69.6387629186692 C-74.13980598750702,-27.855505167467683,10.788507988735777,78.46176199510808,26.97126997183944,196.15440498777016 A198.0,198.0,0,0,0,27.11041339407364,196.13522245023313 C10.844165357629457,78.45408898009326,-74.13763408839715,-27.861285178091347,-185.34408522099287,-69.65321294522836 Z" fill="#d62728" fill-opacity="0.6" />
<path d="M-185.34309450897976,-69.65584912866541 A198.0,198.0,0,0,0,-185.34408522099287,-69.65321294522836 C-74.13763408839715,-27.861285178091347,21.711084253586858,76.16606081801562,54.27771063396714,190.41515204503904 A198.0,198.0,0,0,0,54.38999635071254,190.383109274351 C21.75599854028502,76.15324370974041,-74.1372378035919,-27.862339651466165,-185.34309450897976,-69.65584912866541 Z" fill="#d62728" fill-opacity="0.6" />
<path d="M-185.34205039667467,-69.65862728159743 A198.0,198.0,0,0,0,-185.34309450897976,-69.65584912866541 C-74.1372378035919,-27.862339651466165,45.14604848814807,65.07283846510605,112.86512122037016,162.6820961627651 A198.0,198.0,0,0,0,113.0625566759623,162.54494233255866 C45.225022670384924,65.01797693302346,-74.13682015866986,-27.863450912638974,-185.34205039667467,-69.65862728159743 Z" fill="#d62728" fill-opacity="0.6" />
<path d="M-185.1449999699186,-70.18068812813715 A198.0,198.0,0,0,0,-185.34205039667467,-69.65862728159743 C-74.13682015866986,-27.863450912638974,69.54735505360263,37.89202297381512,173.86838763400658,94.73005743453781 A198.0,198.0,0,0,0,174.03701219675784,94.41990460504375 C69.61480487870314,37.767961842017506,-74.05799998796743,-28.07227525125486,-185.1449999699186,-70.18068812813715 Z" fill="#e377c2" fill-opacity="0.6" />
<path d="M-185.14455674318972,-70.18185740180864 A198.0,198.0,0,0,0,-185.1449999699186,-70.18068812813715 C-74.05799998796743,-28.07227525125486,78.12397549979704,13.01093586592112,195.30993874949257,32.527339664802795 A198.0,198.0,0,0,0,195.32592695796706,32.43119267018892 C78.13037078318683,12.97247706807557,-74.0578226972759,-28.07274296072346,-185.14455674318972,-70.18185740180864 Z" fill="#d62728" fill-opacity="0.6" />
<path d="M-185.14409753027923,-70.18306882502685 A198.0,198.0,0,0,0,-185.14455674318972,-70.18185740180864 C-74.0578226972759,-28.07274296072346,79.19186357487115,1.1352284082943345,197.97965893717785,2.838071020735836 A198.0,198.0,0,0,0,197.9801602219121,2.802883962283714 C79.19206408876484,1.1211535849134857,-74.0576390121117,-28.07322753001074,-185.14409753027923,-70.18306882502685 Z" fill="#d62728" fill-opacity="0.6" />
<path d="M-196.40770349047116,-25.060207692658146 A198.0,198.0,0,0,0,-197.6883584268559,-11.104636081158022 C-79.07534337074236,-4.4418544324632085,-78.82864586999752,7.660586811891349,-197.07161467499378,19.151467029728373 A198.0,198.0,0,0,0,-197.0498354590991,19.3742701937894 C-78.81993418363965,7.74970807751576,-78.56308139618847,-10.02408307706326,-196.40770349047116,-25.060207692658146 Z" fill="#d62728" fill-opacity="0.6" />
<path d="M-196.38523897494244,-25.235647658713845 A198.0,198.0,0,0,0,-196.40770349047116,-25.060207692658146 C-78.56308139618847,-10.02408307706326,-55.13471850090574,56.857741916346654,-137.83679625226435,142.14435479086663 A198.0,198.0,0,0,0,-137.83483673673544,142.14625489881007 C-55.133934694694176,56.858501959524034,-78.55409558997698,-10.094259063485538,-196.38523897494244,-25.235647658713845 Z" fill="#d62728" fill-opacity="0.6" />
<path d="M-196.35693795831716,-25.45491928161605 A198.0,198.0,0,0,0,-196.38523897494244,-25.235647658713845 C-78.55409558997698,-10.094259063485538,-29.817893848889742,73.37256439852939,-74.54473462222435,183.43141099632348 A198.0,198.0,0,0,0,-74.54214652033679,183.43246275438992 C-29.816858608134716,73.37298510175597,-78.54277518332687,-10.18196771264642,-196.35693795831716,-25.45491928161605 Z" fill="#d62728" fill-opacity="0.6" />
<path d="M-196.3549439388848,-25.47029624400576 A198.0,198.0,0,0,0,-196.35693795831716,-25.45491928161605 C-78.54277518332687,-10.18196771264642,21.36274370005752,76.26449489510603,53.4068592501438,190.66123723776505 A198.0,198.0,0,0,0,54.27771063396714,190.41515204503904 C21.711084253586858,76.16606081801562,-78.54197757555391,-10.188118497602304,-196.3549439388848,-25.47029624400576 Z" fill="#d62728" fill-opacity="0.6" />
<path d="M-196.35440142937756,-25.4744781950651 A198.0,198.0,0,0,0,-196.3549439388848,-25.47029624400576 C-78.54197757555391,-10.188118497602304,44.98790058627469,65.18227367037349,112.46975146568671,162.95568417593373 A198.0,198.0,0,0,0,112.86512122037016,162.6820961627651 C45.14604848814807,65.07283846510605,-78.54176057175103,-10.189791278026041,-196.35440142937756,-25.4744781950651 Z" fill="#d62728" fill-opacity="0.6" />
<path d="M-196.34300373403735,-25.562176837972963 A198.0,198.0,0,0,0,-196.35440142937756,-25.4744781950651 C-78.54176057175103,-10.189791278026041,69.54707443181641,37.892538024991,173.86768607954102,94.73134506247749 A198.0,198.0,0,0,0,173.86838763400658,94.73005743453781 C69.54735505360263,37.89202297381512,-78.53720149361494,-10.224870735189185,-196.34300373403735,-25.562176837972963 Z" fill="#e377c2" fill-opacity="0.6" />
<path d="M-196.33156686946268,-25.6498703813821 A198.0,198.0,0,0,0,-196.34300373403735,-25.562176837972963 C-78.53720149361494,-10.224870735189185,79.19186163611334,1.1353636451289237,197.97965409028336,2.8384091128223092 A198.0,198.0,0,0,0,197.97965893717785,2.838071020735836 C79.19186357487115,1.1352284082943345,-78.53262674778507,-10.259948152552841,-196.33156686946268,-25.6498703813821 Z" fill="#e377c2" fill-opacity="0.6" />
<path d="M-186.7475003317775,65.79795680591279 A198.0,198.0,0,0,0,-181.05312317046878,80.14840354129997 C-72.42124926818751,32.05936141651999,-55.191756932626426,56.80237641762783,-137.97939233156606,142.00594104406957 A198.0,198.0,0,0,0,-137.83679625226435,142.14435479086663 C-55.13471850090574,56.857741916346654,-74.699000132711,26.319182722365117,-186.7475003317775,65.79795680591279 Z" fill="#d62728" fill-opacity="0.6" />
<path d="M-186.75081850228094,65.78853842979127 A198.0,198.0,0,0,0,-186.7475003317775,65.79795680591279 C-74.699000132711,26.319182722365117,-30.11042498763427,73.25300203448354,-75.27606246908567,183.13250508620885 A198.0,198.0,0,0,0,-74.54473462222435,183.43141099632348 C-29.817893848889742,73.37256439852939,-74.70032740091237,26.31541537191651,-186.75081850228094,65.78853842979127 Z" fill="#d62728" fill-opacity="0.6" />
<path d="M-186.76375272910002,65.75181112747836 A198.0,198.0,0,0,0,-186.75081850228094,65.78853842979127 C-74.70032740091237,26.31541537191651,-25.5478166113257,74.96631954680764,-63.86954152831425,187.41579886701908 A198.0,198.0,0,0,0,-62.44496086107778,187.89525503071775 C-24.977984344431114,75.1581020122871,-74.70550109164002,26.300724450991346,-186.76375272910002,65.75181112747836 Z" fill="#d62728" fill-opacity="0.6" />
<path d="M-187.03759281721716,64.96875305207016 A198.0,198.0,0,0,0,-186.76375272910002,65.75181112747836 C-74.70550109164002,26.300724450991346,8.146650717789043,78.77989643355943,20.36662679447261,196.94974108389854 A198.0,198.0,0,0,0,26.97126997183944,196.15440498777016 C10.788507988735777,78.46176199510808,-74.81503712688686,25.987501220828065,-187.03759281721716,64.96875305207016 Z" fill="#d62728" fill-opacity="0.6" />
<path d="M-187.05017096327128,64.9325306961848 A198.0,198.0,0,0,0,-187.03759281721716,64.96875305207016 C-74.81503712688686,25.987501220828065,20.822499881214437,76.4137651126865,52.05624970303609,191.03441278171624 A198.0,198.0,0,0,0,53.4068592501438,190.66123723776505 C21.36274370005752,76.26449489510603,-74.82006838530852,25.97301227847392,-187.05017096327128,64.9325306961848 Z" fill="#d62728" fill-opacity="0.6" />
<path d="M-187.05348369686405,64.92298696815344 A198.0,198.0,0,0,0,-187.05017096327128,64.9325306961848 C-74.82006838530852,25.97301227847392,44.750181639182735,65.34570562217651,111.87545409795683,163.36426405544128 A198.0,198.0,0,0,0,112.46975146568671,162.95568417593373 C44.98790058627469,65.18227367037349,-74.82139347874562,25.969194787261376,-187.05348369686405,64.92298696815344 Z" fill="#d62728" fill-opacity="0.6" />
<path d="M-187.60050451156945,63.324961168599344 A198.0,198.0,0,0,0,-187.05348369686405,64.92298696815344 C-74.82139347874562,25.969194787261376,69.5437182270099,37.89869727526595,173.85929556752475,94.74674318816487 A198.0,198.0,0,0,0,173.86768607954102,94.73134506247749 C69.54707443181641,37.892538024991,-75.04020180462778,25.32998446743974,-187.60050451156945,63.324961168599344 Z" fill="#e377c2" fill-opacity="0.6" />
<path d="M-133.9243170482964,145.8364745293419 A198.0,198.0,0,0,0,-133.92017132584417,145.8402815139101 C-53.56806853033767,58.33611260556404,-30.28084705975851,73.1827185976547,-75.70211764939627,182.95679649413674 A198.0,198.0,0,0,0,-75.27606246908567,183.13250508620885 C-30.11042498763427,73.25300203448354,-53.56972681931856,58.33458981173676,-133.9243170482964,145.8364745293419 Z" fill="#d62728" fill-opacity="0.6" />
<path d="M-134.21570422139442,145.56835075096222 A198.0,198.0,0,0,0,-133.9243170482964,145.8364745293419 C-53.56972681931856,58.33458981173676,14.989002738848384,77.76869419563889,37.47250684712096,194.4217354890972 A198.0,198.0,0,0,0,52.05624970303609,191.03441278171624 C20.822499881214437,76.4137651126865,-53.68628168855777,58.227340300384895,-134.21570422139442,145.56835075096222 Z" fill="#d62728" fill-opacity="0.6" />
<path d="M-134.26473654052748,145.52312710254253 A198.0,198.0,0,0,0,-134.21570422139442,145.56835075096222 C-53.68628168855777,58.227340300384895,43.110043899529074,66.43917605585334,107.77510974882267,166.09794013963335 A198.0,198.0,0,0,0,111.87545409795683,163.36426405544128 C44.750181639182735,65.34570562217651,-53.705894616211,58.20925084101702,-134.26473654052748,145.52312710254253 Z" fill="#d62728" fill-opacity="0.6" />
<path d="M-134.3620776031639,145.43325652051308 A198.0,198.0,0,0,0,-134.26473654052748,145.52312710254253 C-53.705894616211,58.20925084101702,79.19185975382345,1.135494927666884,197.97964938455863,2.8387373191672096 A198.0,198.0,0,0,0,197.97965409028336,2.8384091128223092 C79.19186163611334,1.1353636451289237,-53.74483104126556,58.17330260820523,-134.3620776031639,145.43325652051308 Z" fill="#e377c2" fill-opacity="0.6" />
<path d="M-71.44092521130302,184.66237896483682 A198.0,198.0,0,0,0,-71.44029092044423,184.6626243537178 C-28.576116368177694,73.86504974148713,4.570338402091688,79.06802139228202,11.42584600522922,197.67005348070504 A198.0,198.0,0,0,0,11.48915873997402,197.6663836656291 C4.595663495989608,79.06655346625165,-28.576370084521212,73.86495158593473,-71.44092521130302,184.66237896483682 Z" fill="#d62728" fill-opacity="0.6" />
<path d="M-71.44327498775034,184.66146988211887 A198.0,198.0,0,0,0,-71.44092521130302,184.66237896483682 C-28.576370084521212,73.86495158593473,8.136489600974803,78.78094653514408,20.341224002437006,196.95236633786018 A198.0,198.0,0,0,0,20.36662679447261,196.94974108389854 C8.146650717789043,78.77989643355943,-28.577309995100137,73.86458795284754,-71.44327498775034,184.66146988211887 Z" fill="#d62728" fill-opacity="0.6" />
<path d="M-71.45565315488625,184.65668044294688 A198.0,198.0,0,0,0,-71.44327498775034,184.66146988211887 C-28.577309995100137,73.86458795284754,14.748149483859336,77.814729240689,36.87037370964834,194.5368231017225 A198.0,198.0,0,0,0,37.47250684712096,194.4217354890972 C14.989002738848384,77.76869419563889,-28.5822612619545,73.86267217717875,-71.45565315488625,184.65668044294688 Z" fill="#d62728" fill-opacity="0.6" />
<path d="M-71.45689550427839,184.65619969253845 A198.0,198.0,0,0,0,-71.45565315488625,184.65668044294688 C-28.5822612619545,73.86267217717875,43.06970275766595,66.46533460659249,107.67425689416487,166.16333651648122 A198.0,198.0,0,0,0,107.77510974882267,166.09794013963335 C43.110043899529074,66.43917605585334,-28.582758201711357,73.86247987701539,-71.45689550427839,184.65619969253845 Z" fill="#d62728" fill-opacity="0.6" />
<path d="M-71.48098148811708,184.64687726981862 A198.0,198.0,0,0,0,-71.45689550427839,184.65619969253845 C-28.582758201711357,73.86247987701539,68.88486870758742,39.083434638455785,172.21217176896852,97.70858659613945 A198.0,198.0,0,0,0,173.85929556752475,94.74674318816487 C69.5437182270099,37.89869727526595,-28.592392595246835,73.85875090792744,-71.48098148811708,184.64687726981862 Z" fill="#d62728" fill-opacity="0.6" />
<path d="M-71.48640428468326,184.6447778910815 A198.0,198.0,0,0,0,-71.48098148811708,184.64687726981862 C-28.592392595246835,73.85875090792744,79.1908194248203,1.2058684942828466,197.97704856205075,3.0146712357071164 A198.0,198.0,0,0,0,197.97964938455863,2.8387373191672096 C79.19185975382345,1.135494927666884,-28.594561713873304,73.8579111564326,-71.48640428468326,184.6447778910815 Z" fill="#d62728" fill-opacity="0.6" />
<path d="M-59.75421481280729,188.76820127369146 A198.0,198.0,0,0,0,-59.72372423316493,188.77785029955413 C-23.889489693265972,75.51114011982166,-20.270938451382897,76.56192953616208,-50.67734612845724,191.4048238404052 A198.0,198.0,0,0,0,-50.67705676125811,191.40490045455007 C-20.270822704503246,76.56196018182003,-23.90168592512292,75.50728050947659,-59.75421481280729,188.76820127369146 Z" fill="#9467bd" fill-opacity="0.6" />
<path d="M-59.87616153435933,188.72955592569838 A198.0,198.0,0,0,0,-59.75421481280729,188.76820127369146 C-23.90168592512292,75.50728050947659,4.569362078998219,79.06807782026203,11.423405197495546,197.67019455065508 A198.0,198.0,0,0,0,11.42584600522922,197.67005348070504 C4.570338402091688,79.06802139228202,-23.950464613743733,75.49182237027935,-59.87616153435933,188.72955592569838 Z" fill="#9467bd" fill-opacity="0.6" />
<path d="M-59.87674939417157,188.72936942083913 A198.0,198.0,0,0,0,-59.87616153435933,188.72955592569838 C-23.950464613743733,75.49182237027935,14.725203668957853,77.81907463410055,36.81300917239463,194.54768658525134 A198.0,198.0,0,0,0,36.87037370964834,194.5368231017225 C14.748149483859336,77.814729240689,-23.95069975766863,75.49174776833566,-59.87674939417157,188.72936942083913 Z" fill="#9467bd" fill-opacity="0.6" />
<path d="M-59.93771332532319,188.71001701375414 A198.0,198.0,0,0,0,-59.87674939417157,188.72936942083913 C-23.95069975766863,75.49174776833566,68.6466765923907,39.500301173784976,171.61669148097675,98.75075293446244 A198.0,198.0,0,0,0,172.21217176896852,97.70858659613945 C68.88486870758742,39.083434638455785,-23.975085330129275,75.48400680550166,-59.93771332532319,188.71001701375414 Z" fill="#9467bd" fill-opacity="0.6" />
<path d="M-59.938496316082464,188.7097683199441 A198.0,198.0,0,0,0,-59.93771332532319,188.71001701375414 C-23.975085330129275,75.48400680550166,78.11434707974114,13.068618148287122,195.28586769935282,32.6715453707178 A198.0,198.0,0,0,0,195.30993874949257,32.527339664802795 C78.12397549979704,13.01093586592112,-23.975398526432986,75.48390732797763,-59.938496316082464,188.7097683199441 Z" fill="#9467bd" fill-opacity="0.6" />
<path d="M-59.94282279187277,188.70839407864756 A198.0,198.0,0,0,0,-59.938496316082464,188.7097683199441 C-23.975398526432986,75.48390732797763,79.18902482138037,1.3184641970121842,197.97256205345093,3.2961604925304604 A198.0,198.0,0,0,0,197.97704856205075,3.0146712357071164 C79.1908194248203,1.2058684942828466,-23.97712911674911,75.48335763145903,-59.94282279187277,188.70839407864756 Z" fill="#9467bd" fill-opacity="0.6" />
<path d="M-50.23316575904786,191.52187618604833 A198.0,198.0,0,0,0,-50.12242631424962,191.5508871824211 C-20.04897052569985,76.62035487296843,4.5684286343080345,79.06813175871322,11.421071585770086,197.67032939678305 A198.0,198.0,0,0,0,11.423405197495546,197.67019455065508 C4.569362078998219,79.06807782026203,-20.093266303619146,76.60875047441934,-50.23316575904786,191.52187618604833 Z" fill="#9467bd" fill-opacity="0.6" />
<path d="M-50.233754203915396,191.5217218452795 A198.0,198.0,0,0,0,-50.23316575904786,191.52187618604833 C-20.093266303619146,76.60875047441934,43.029345743177764,66.49146866263423,107.5733643579444,166.2286716565856 A198.0,198.0,0,0,0,107.67425689416487,166.16333651648122 C43.06970275766595,66.46533460659249,-20.09350168156616,76.60868873811181,-50.233754203915396,191.5217218452795 Z" fill="#9467bd" fill-opacity="0.6" />
<path d="M-50.23426793987748,191.52158709802035 A198.0,198.0,0,0,0,-50.233754203915396,191.5217218452795 C-20.09350168156616,76.60868873811181,79.18878923943106,1.3325384771063422,197.97197309857762,3.331346192765855 A198.0,198.0,0,0,0,197.97256205345093,3.2961604925304604 C79.18902482138037,1.3184641970121842,-20.093707175950996,76.60863483920814,-50.23426793987748,191.52158709802035 Z" fill="#9467bd" fill-opacity="0.6" />
<path d="M18.357415294728984,197.14716661341305 A198.0,198.0,0,0,0,18.35800210992828,197.14711197106558 C7.343200843971312,78.85884478842624,14.71373028126038,77.82124479350303,36.78432570315095,194.55311198375756 A198.0,198.0,0,0,0,36.81300917239463,194.54768658525134 C14.725203668957853,77.81907463410055,7.342966117891594,78.85886664536523,18.357415294728984,197.14716661341305 Z" fill="#9467bd" fill-opacity="0.6" />
<path d="M18.356416134029676,197.14725964799595 A198.0,198.0,0,0,0,18.357415294728984,197.14716661341305 C7.342966117891594,78.85886664536523,68.61848796840084,39.54924915760639,171.5462199210021,98.87312289401596 A198.0,198.0,0,0,0,171.61669148097675,98.75075293446244 C68.6466765923907,39.500301173784976,7.34256645361187,78.85890385919839,18.356416134029676,197.14725964799595 Z" fill="#9467bd" fill-opacity="0.6" />
<path d="M18.355373892525645,197.14735668850747 A198.0,198.0,0,0,0,18.356416134029676,197.14725964799595 C7.34256645361187,78.85890385919839,78.10790447199135,13.107069046673807,195.26976117997836,32.767672616684514 A198.0,198.0,0,0,0,195.28586769935282,32.6715453707178 C78.11434707974114,13.068618148287122,7.342149557010258,78.858942675403,18.355373892525645,197.14735668850747 Z" fill="#9467bd" fill-opacity="0.6" />
<path d="M18.22907832860674,197.15907461562483 A198.0,198.0,0,0,0,18.355373892525645,197.14735668850747 C7.342149557010258,78.858942675403,79.18878646933808,1.3327030853036814,197.9719661733452,3.3317577132592033 A198.0,198.0,0,0,0,197.97197309857762,3.331346192765855 C79.18878923943106,1.3325384771063422,7.291631331442696,78.86362984624994,18.22907832860674,197.15907461562483 Z" fill="#e377c2" fill-opacity="0.6" />
<path d="M27.30013242416889,196.10890538071658 A198.0,198.0,0,0,0,27.312779453147815,196.1071443842465 C10.925111781259126,78.4428577536986,79.18878390352234,1.3328555365237413,197.97195975880584,3.3321388413093533 A198.0,198.0,0,0,0,197.9719661733452,3.3317577132592033 C79.18878646933808,1.3327030853036814,10.920052969667557,78.44356215228663,27.30013242416889,196.10890538071658 Z" fill="#e377c2" fill-opacity="0.6" />
<path d="M56.18396865540836,189.86142753631682 A198.0,198.0,0,0,0,59.478373744684944,188.85529660744908 C23.79134949787398,75.54211864297963,43.006745077639465,66.50608902820052,107.51686269409866,166.2652225705013 A198.0,198.0,0,0,0,107.5733643579444,166.2286716565856 C43.029345743177764,66.49146866263423,22.473587462163344,75.94457101452673,56.18396865540836,189.86142753631682 Z" fill="#8c564b" fill-opacity="0.6" />
<path d="M56.1279819090741,189.87798620907756 A198.0,198.0,0,0,0,56.18396865540836,189.86142753631682 C22.473587462163344,75.94457101452673,68.61815665269928,39.5498239893128,171.5453916317482,98.87455997328199 A198.0,198.0,0,0,0,171.5462199210021,98.87312289401596 C68.61848796840084,39.54924915760639,22.451192763629642,75.95119448363103,56.1279819090741,189.87798620907756 Z" fill="#e377c2" fill-opacity="0.6" />
<path d="M56.01599378064373,189.91105402468514 A198.0,198.0,0,0,0,56.1279819090741,189.87798620907756 C22.451192763629642,75.95119448363103,79.18877875352109,1.3331614777987866,197.97194688380273,3.332903694496966 A198.0,198.0,0,0,0,197.97195975880584,3.3321388413093533 C79.18878390352234,1.3328555365237413,22.406397512257495,75.96442160987407,56.01599378064373,189.91105402468514 Z" fill="#e377c2" fill-opacity="0.6" />
<path d="M115.66584194341361,160.7028718085687 A198.0,198.0,0,0,0,115.95832342076513,160.4919537841235 C46.38332936830605,64.1967815136494,68.61710913996029,39.55164134741791,171.54277284990073,98.87910336854478 A198.0,198.0,0,0,0,171.5453916317482,98.87455997328199 C68.61815665269928,39.5498239893128,46.266336777365446,64.28114872342748,115.66584194341361,160.7028718085687 Z" fill="#e377c2" fill-opacity="0.6" />
<path d="M115.37297682559613,160.913256813727 A198.0,198.0,0,0,0,115.66584194341361,160.7028718085687 C46.266336777365446,64.28114872342748,79.18877061003984,1.333645106649897,197.97192652509958,3.3341127666247425 A198.0,198.0,0,0,0,197.97194688380273,3.332903694496966 C79.18877875352109,1.3331614777987866,46.14919073023845,64.3653027254908,115.37297682559613,160.913256813727 Z" fill="#e377c2" fill-opacity="0.6" />
<path d="M177.51497352607794,87.70652298452976 A198.0,198.0,0,0,0,177.60869888187014,87.51657032522002 C71.04347955274805,35.00662813008801,77.44260809946094,16.591637976803455,193.60652024865234,41.479094942008636 A198.0,198.0,0,0,0,195.26976117997836,32.767672616684514 C78.10790447199135,13.107069046673807,71.00598941043118,35.082609193811905,177.51497352607794,87.70652298452976 Z" fill="#e377c2" fill-opacity="0.6" />
<path d="M177.2954911699211,88.14935513556767 A198.0,198.0,0,0,0,177.51497352607794,87.70652298452976 C71.00598941043118,35.082609193811905,78.71226548333851,8.776061900444688,196.78066370834628,21.94015475111172 A198.0,198.0,0,0,0,197.97192652509958,3.3341127666247425 C79.18877061003984,1.333645106649897,70.91819646796844,35.25974205422707,177.2954911699211,88.14935513556767 Z" fill="#e377c2" fill-opacity="0.6" />
<path d="M196.27676503071248,26.06590702581592 A198.0,198.0,0,0,0,196.3403263216408,25.58273362859436 C78.53613052865632,10.233093451437746,78.63621080296683,9.433257684986891,196.59052700741705,23.58314421246723 A198.0,198.0,0,0,0,196.78066370834628,21.94015475111172 C78.71226548333851,8.776061900444688,78.510706012285,10.426362810326369,196.27676503071248,26.06590702581592 Z" fill="#e377c2" fill-opacity="0.6" />
<text x="220.00000000000003" y="0" font-size="10" text-anchor="start" dominant-baseline="middle" transform="rotate(-7.843459)" font-family="Arial">Canada</text>
<text x="220.00000000000003" y="0" font-size="10" text-anchor="start" dominant-baseline="middle" transform="rotate(-23.902631)" font-family="Arial">Mexico</text>
<text x="220.00000000000003" y="0" font-size="10" text-anchor="start" dominant-baseline="middle" transform="rotate(-56.212273)" font-family="Arial">United Sta.</text>
<text x="220.0" y="0" font-size="10" text-anchor="start" dominant-baseline="middle" transform="rotate(-81.888437)" font-family="Arial">Costa Rica</text>
<text x="220.00000000000003" y="0" font-size="10" text-anchor="start" dominant-baseline="middle" transform="rotate(-84.400393)" font-family="Arial">Dominican .</text>
<text x="220.00000000000006" y="0" font-size="10" text-anchor="start" dominant-baseline="middle" transform="rotate(-87.000416)" font-family="Arial">Guatemala</text>
<text x="-220.00000000000003" y="0" font-size="10" text-anchor="end" dominant-baseline="middle" transform="rotate(82.789992)" font-family="Arial">Argentina</text>
<text x="-220.00000000000003" y="0" font-size="10" text-anchor="end" dominant-baseline="middle" transform="rotate(63.855422)" font-family="Arial">Brazil</text>
<text x="-220.00000000000003" y="0" font-size="10" text-anchor="end" dominant-baseline="middle" transform="rotate(46.800625)" font-family="Arial">Colombia</text>
<text x="-220.00000000000003" y="0" font-size="10" text-anchor="end" dominant-baseline="middle" transform="rotate(29.745761)" font-family="Arial">Germany</text>
<text x="-220.00000000000003" y="0" font-size="10" text-anchor="end" dominant-baseline="middle" transform="rotate(11.282738)" font-family="Arial">Spain</text>
<text x="-220.00000000000003" y="0" font-size="10" text-anchor="end" dominant-baseline="middle" transform="rotate(-10.617928)" font-family="Arial">France</text>
<text x="-220.0" y="0" font-size="10" text-anchor="end" dominant-baseline="middle" transform="rotate(-35.945360)" font-family="Arial">United Kin.</text>
<text x="-220.00000000000003" y="0" font-size="10" text-anchor="end" dominant-baseline="middle" transform="rotate(-58.431417)" font-family="Arial">Italy</text>
<text x="-220.00000000000003" y="0" font-size="10" text-anchor="end" dominant-baseline="middle" transform="rotate(-70.933603)" font-family="Arial">Indonesia</text>
<text x="-220.00000000000003" y="0" font-size="10" text-anchor="end" dominant-baseline="middle" transform="rotate(-74.176759)" font-family="Arial">India</text>
<text x="-220.00000000000006" y="0" font-size="10" text-anchor="end" dominant-baseline="middle" transform="rotate(-85.614646)" font-family="Arial">Japan</text>
<text x="220.0" y="0" font-size="10" text-anchor="start" dominant-baseline="middle" transform="rotate(-276.910877)" font-family="Arial">Egypt</text>
<text x="220.00000000000003" y="0" font-size="10" text-anchor="start" dominant-baseline="middle" transform="rotate(-282.991595)" font-family="Arial">Nigeria</text>
<text x="220.00000000000003" y="0" font-size="10" text-anchor="start" dominant-baseline="middle" transform="rotate(-296.951563)" font-family="Arial">South Afri.</text>
<text x="220.00000000000003" y="0" font-size="10" text-anchor="start" dominant-baseline="middle" transform="rotate(-320.095002)" font-family="Arial">Australia</text>
<text x="220.0" y="0" font-size="10" text-anchor="start" dominant-baseline="middle" transform="rotate(-343.458759)" font-family="Arial">New Zealan.</text>
<text x="220.00000000000003" y="0" font-size="10" text-anchor="start" dominant-baseline="middle" transform="rotate(-356.288152)" font-family="Arial">Papua New .</text>
<text x="-295.0" y="-285.0" font-size="8" text-anchor="start" dominant-baseline="middle" font-family="Arial" font-weight="bold">Continents</text>
<circle cx="-290.5" cy="-274.5" r="4.5" fill="#8c564b" stroke="#333" stroke-width="0.5" />
<text x="-278.0" y="-271.0" font-size="6" text-anchor="start" dominant-baseline="middle" font-family="Arial">Africa</text>
<circle cx="-290.5" cy="-262.5" r="4.5" fill="#9467bd" stroke="#333" stroke-width="0.5" />
<text x="-278.0" y="-259.0" font-size="6" text-anchor="start" dominant-baseline="middle" font-family="Arial">Asia</text>
<circle cx="-290.5" cy="-250.5" r="4.5" fill="#ff7f0e" stroke="#333" stroke-width="0.5" />
<text x="-278.0" y="-247.0" font-size="6" text-anchor="start" dominant-baseline="middle" font-family="Arial">Central America</text>
<circle cx="-290.5" cy="-238.5" r="4.5" fill="#d62728" stroke="#333" stroke-width="0.5" />
<text x="-278.0" y="-235.0" font-size="6" text-anchor="start" dominant-baseline="middle" font-family="Arial">Europe</text>
<circle cx="-290.5" cy="-226.5" r="4.5" fill="#1f77b4" stroke="#333" stroke-width="0.5" />
<text x="-278.0" y="-223.0" font-size="6" text-anchor="start" dominant-baseline="middle" font-family="Arial">North America</text>
<circle cx="-290.5" cy="-214.5" r="4.5" fill="#e377c2" stroke="#333" stroke-width="0.5" />
<text x="-278.0" y="-211.0" font-size="6" text-anchor="start" dominant-baseline="middle" font-family="Arial">Oceania</text>
<circle cx="-290.5" cy="-202.5" r="4.5" fill="#2ca02c" stroke="#333" stroke-width="0.5" />
<text x="-278.0" y="-199.0" font-size="6" text-anchor="start" dominant-baseline="middle" font-family="Arial">South America</text>
</svg>