<?xml version="1.0" encoding="UTF-8"?>
<svg xmlns="http://www.w3.org/2000/svg" xmlns:xlink="http://www.w3.org/1999/xlink"
     width="600.0" height="600.0" viewBox="-300.0 -300.0 600.0 600.0">
<defs>
</defs>
<rect x="-300.0" y="-300.0" width="600.0" height="600.0" fill="#ffffff" fill-opacity="1.0" />
<path d="M200.0,-0.0 A200,200,0,0,0,192.11436914816554,-55.60637703359559 L205.56237498853713,-59.498823425947286 A214.0,214.0,0,0,1,214.0,-0.0 Z" fill="#1f77b4" fill-opacity="0.9" />
<path d="M191.5487090071027,-57.52470841049339 A200,200,0,0,0,167.18726060918095,-109.76529456070261 L178.89036885182364,-117.44886517995181 A214.0,214.0,0,0,1,204.9571186375999,-61.55143799922793 Z" fill="#1f77b4" fill-opacity="0.9" />
<path d="M166.08126666432887,-111.43165108339768 A200,200,0,0,0,28.296272308421162,-197.98818392380812 L30.277011370010644,-211.8473567984747 A214.0,214.0,0,0,1,177.7069553308319,-119.23186665923552 Z" fill="#1f77b4" fill-opacity="0.9" />
<path d="M26.3150086652234,-198.26124260416915 A200,200,0,0,0,19.33973765283782,-199.06274022910318 L20.693519288536468,-212.99713204514043 A214.0,214.0,0,0,1,28.157059271789038,-212.139529586461 Z" fill="#ff7f0e" fill-opacity="0.9" />
<path d="M17.348176448679826,-199.24618132828914 A200,200,0,0,0,10.703393726110539,-199.7133880408218 L11.452631286938278,-213.69332520367934 A214.0,214.0,0,0,1,18.562548800087416,-213.1934140212694 Z" fill="#ff7f0e" fill-opacity="0.9" />
<path d="M8.705757965873993,-199.81043460800444 A200,200,0,0,0,1.7947225432773395,-199.9919472653653 L1.9203531213067533,-213.99138357394088 A214.0,214.0,0,0,1,9.315161023485173,-213.79716503056477 Z" fill="#ff7f0e" fill-opacity="0.9" />
<path d="M-0.2052533329311291,-199.99989467764556 A200,200,0,0,0,-61.40700732598319,-190.33964235352195 L-65.70549783880202,-203.6634173182685 A214.0,214.0,0,0,1,-0.21962106623630814,-213.99988730508076 Z" fill="#2ca02c" fill-opacity="0.9" />
<path d="M-63.30730170162317,-189.71606561190242 A200,200,0,0,0,-119.9347416757474,-160.04892295536305 L-128.33017359304972,-171.25234756223847 A214.0,214.0,0,0,1,-67.7388128207368,-202.9961902047356 Z" fill="#2ca02c" fill-opacity="0.9" />
<path d="M-121.52920754350274,-158.84159314816836 A200,200,0,0,0,-153.7288501090173,-127.93529866365772 L-164.48986961664852,-136.89076957011378 A214.0,214.0,0,0,1,-130.03625207154792,-169.96050466854015 Z" fill="#2ca02c" fill-opacity="0.9" />
<path d="M-155.00049539475867,-126.3916390722875 A200,200,0,0,0,-189.2913230649489,-64.56620642659091 L-202.54171567949533,-69.08584087645228 A214.0,214.0,0,0,1,-165.8505300723918,-135.23905380734763 Z" fill="#d62728" fill-opacity="0.9" />
<path d="M-189.92750988095207,-62.670096460918735 A200,200,0,0,0,-199.83205420700781,-8.194517155238175 L-213.82029800149837,-8.768133356104848 A214.0,214.0,0,0,1,-203.22243557261874,-67.05700321318305 Z" fill="#d62728" fill-opacity="0.9" />
<path d="M-199.9040064933669,-6.19582019590059 A200,200,0,0,0,-182.56175885068276,81.67744000239693 L-195.34108197023056,87.39486080256472 A214.0,214.0,0,0,1,-213.8972869479026,-6.629527609613632 Z" fill="#d62728" fill-opacity="0.9" />
<path d="M-181.73587005162204,83.49894332612809 A200,200,0,0,0,-137.24616370498177,145.47676978908126 L-146.8533951643305,155.66014367431697 A214.0,214.0,0,0,1,-194.4573809552356,89.34386935895705 Z" fill="#d62728" fill-opacity="0.9" />
<path d="M-135.78455800209852,146.84193477401047 A200,200,0,0,0,-75.53000989222944,185.189680073377 L-80.81711058468551,198.1529576785134 A214.0,214.0,0,0,1,-145.28947706224542,157.1208702081912 Z" fill="#d62728" fill-opacity="0.9" />
<path d="M-73.67436748726419,185.9357081771857 A200,200,0,0,0,-61.88313233738939,190.18537780837187 L-66.21495160100665,203.49835425495792 A214.0,214.0,0,0,1,-78.83157321137269,198.9512077495887 Z" fill="#9467bd" fill-opacity="0.9" />
<path d="M-59.97821612587787,190.79468962829517 A200,200,0,0,0,-43.50939690447985,195.2099699836267 L-46.555054687793444,208.8746678824806 A214.0,214.0,0,0,1,-64.17669125468933,204.15031790227584 Z" fill="#9467bd" fill-opacity="0.9" />
<path d="M-41.555154287759585,195.63529628397964 A200,200,0,0,0,23.458828981869566,198.61944351648808 L25.100947010600436,212.52280456264225 A214.0,214.0,0,0,1,-44.46401508790276,209.32976702385824 Z" fill="#9467bd" fill-opacity="0.9" />
<path d="M25.443817382284717,198.37492824703668 A200,200,0,0,0,31.839861360435158,197.44929280336322 L34.06865165566562,211.27074329959865 A214.0,214.0,0,0,1,27.22488459904465,212.26117322432927 Z" fill="#8c564b" fill-opacity="0.9" />
<path d="M33.81272940061636,197.121027114006 A200,200,0,0,0,62.6057719347362,189.94872287134703 L66.98817597016773,203.24513347234134 A214.0,214.0,0,0,1,36.17962045865951,210.91949901198643 Z" fill="#8c564b" fill-opacity="0.9" />
<path d="M64.50209724297635,189.31317822924433 A200,200,0,0,0,116.18089512064213,162.79434759526006 L124.31355777908709,174.18995192692827 A214.0,214.0,0,0,1,69.0172440499847,202.56510070529146 Z" fill="#8c564b" fill-opacity="0.9" />
<path d="M117.8030024679916,161.62441835789033 A200,200,0,0,0,177.9245829171273,91.33916352674949 L190.37930372132624,97.73290497362196 A214.0,214.0,0,0,1,126.04921264075102,172.93812764294267 Z" fill="#e377c2" fill-opacity="0.9" />
<path d="M178.8290631742661,89.55538043140866 A200,200,0,0,0,198.56850859939914,23.886133898359336 L212.46830420135709,25.558163271244492 A214.0,214.0,0,0,1,191.34709759646475,95.82425706160728 Z" fill="#e377c2" fill-opacity="0.9" />
<path d="M198.79743761468694,21.89928761020895 A200,200,0,0,0,199.99000008333306,1.9999666668342273 L213.9893000891664,2.1399643335126233 A214.0,214.0,0,0,1,212.71325824771503,23.43223774292358 Z" fill="#e377c2" fill-opacity="0.9" />
<path d="M193.0,-0.0 A193.0,193.0,0,0,0,189.86369754444047,-34.652220055188884 L194.78244618548814,-35.5499459633544 A198.0,198.0,0,0,1,198.0,-0.0 Z" fill="#1f77b4" fill-opacity="0.6" />
<path d="M184.8445041918541,-55.51134361612612 A193.0,193.0,0,0,0,172.0783556919336,-87.39587806275755 L176.53634418136193,-89.66001998148182 A198.0,198.0,0,0,1,189.63322191703168,-56.94946132638845 Z" fill="#1f77b4" fill-opacity="0.6" />
<path d="M160.26842233107737,-107.53154329547876 A193.0,193.0,0,0,0,36.614628504159825,-189.4950368202354 L37.56319400944894,-194.40423466531922 A198.0,198.0,0,0,1,164.4204539976856,-110.3173345725637 Z" fill="#1f77b4" fill-opacity="0.6" />
<path d="M-0.19806946627853958,-192.99989836392797 A193.0,193.0,0,0,0,-51.591267685587,-185.97672192668122 L-52.927829024591844,-190.79477171752788 A198.0,198.0,0,0,1,-0.2032007996018178,-197.9998957308691 Z" fill="#2ca02c" fill-opacity="0.6" />
<path d="M-61.091546142066356,-183.07600331548582 A193.0,193.0,0,0,0,-104.89945208784852,-162.00341030876226 L-107.61705447354407,-166.20038985044002 A198.0,198.0,0,0,1,-62.67422868460693,-187.81890495578338 Z" fill="#2ca02c" fill-opacity="0.6" />
<path d="M-117.27568527948014,-153.28213738798246 A193.0,193.0,0,0,0,-132.4664997233569,-140.36248234853173 L-135.89827432758895,-143.998816088131 A198.0,198.0,0,0,1,-120.3139154680677,-157.25317721668665 Z" fill="#2ca02c" fill-opacity="0.6" />
<path d="M-149.57547805594214,-121.96793170475743 A193.0,193.0,0,0,0,-180.6062624569477,-68.04688061426565 L-185.28518117344893,-69.80975316903937 A198.0,198.0,0,0,1,-153.4504904408111,-125.12772268156462 Z" fill="#d62728" fill-opacity="0.6" />
<path d="M-183.28004703511874,-60.47664308478658 A193.0,193.0,0,0,0,-191.3822277859014,-24.936777813208955 L-196.34031658864495,-25.582808326504523 A198.0,198.0,0,0,1,-188.02823478214253,-62.04339549630954 Z" fill="#d62728" fill-opacity="0.6" />
<path d="M-192.90736626609905,-5.97896648904407 A193.0,193.0,0,0,0,-191.24037784262012,26.002266874483993 L-196.19479177636677,26.67590073133591 A198.0,198.0,0,0,1,-197.90496642843323,-6.133861993941585 Z" fill="#d62728" fill-opacity="0.6" />
<path d="M-175.37511459981528,80.5764803097136 A193.0,193.0,0,0,0,-136.59096122672,136.35215183912823 L-140.12958716523605,139.88459100594503 A198.0,198.0,0,0,1,-179.91851135110582,82.6639538928668 Z" fill="#d62728" fill-opacity="0.6" />
<path d="M-131.03209847202507,141.70246705692009 A193.0,193.0,0,0,0,-78.69430200401099,176.22771300820287 L-80.73301449116154,180.79319780116148 A198.0,198.0,0,0,1,-134.42671242207754,145.37351542627036 Z" fill="#d62728" fill-opacity="0.6" />
<path d="M-71.09576462520994,179.42795839098417 A193.0,193.0,0,0,0,-60.62029410398044,183.23258428223653 L-62.190768044498064,187.97954242426337 A198.0,198.0,0,0,1,-72.93762381239155,184.07635109541383 Z" fill="#9467bd" fill-opacity="0.6" />
<path d="M-57.878978561472145,184.11687549130485 A193.0,193.0,0,0,0,-42.4791931300255,188.26714570264775 L-43.57969036137331,193.14453289701686 A198.0,198.0,0,0,1,-59.37843396461909,188.88674273201224 Z" fill="#9467bd" fill-opacity="0.6" />
<path d="M-40.100723887688,188.78806091404036 A193.0,193.0,0,0,0,17.320086409184192,192.221264710173 L17.76879331097653,197.20109022079922 A198.0,198.0,0,0,1,-41.139602744881984,193.67894332113985 Z" fill="#9467bd" fill-opacity="0.6" />
<path d="M32.629283871594794,190.2217911650158 A193.0,193.0,0,0,0,38.69029861352333,189.08215355552832 L39.69263795584259,193.98065494297725 A198.0,198.0,0,0,1,33.4746021066102,195.14981684286596 Z" fill="#8c564b" fill-opacity="0.6" />
<path d="M62.24452383947218,182.68721699122077 A193.0,193.0,0,0,0,102.874654384188,163.2966793457046 L105.539800870825,167.52716326657776 A198.0,198.0,0,0,1,63.85707627054659,187.4200464469519 Z" fill="#8c564b" fill-opacity="0.6" />
<path d="M113.6798973816119,155.96756371536418 A193.0,193.0,0,0,0,166.48482074333933,97.6309605712152 L170.79789900093877,100.16026006787881 A198.0,198.0,0,0,1,116.62497244331169,160.00817417431145 Z" fill="#e377c2" fill-opacity="0.6" />
<path d="M172.57004596316682,86.42094211630936 A193.0,193.0,0,0,0,190.0057509612934,33.864651210885874 L194.92817974267405,34.74197378111608 A198.0,198.0,0,0,1,177.04077254252346,88.65982662709457 Z" fill="#e377c2" fill-opacity="0.6" />
<path d="M190.19423342962818,-55.04683070001491 A198.0,198.0,0,0,0,190.19322545668385,-55.050313263259646 C76.07729018267354,-22.02012530530386,70.61453767254477,-35.86400799259273,176.53634418136193,-89.66001998148182 A198.0,198.0,0,0,0,176.3678594192755,-89.99098934817128 C70.54714376771021,-35.996395739268515,76.07769337185128,-22.018732280005963,190.19423342962818,-55.04683070001491 Z" fill="#1f77b4" fill-opacity="0.6" />
<path d="M194.4130110645231,-37.51774418625969 A198.0,198.0,0,0,0,190.19423342962818,-55.04683070001491 C76.07769337185128,-22.018732280005963,14.721444051161178,-77.81978594835977,36.80361012790294,-194.54946487089939 A198.0,198.0,0,0,0,36.310432996217415,-194.64211377712482 C14.524173198486967,-77.85684551084994,77.76520442580924,-15.007097674503877,194.4130110645231,-37.51774418625969 Z" fill="#1f77b4" fill-opacity="0.6" />
<path d="M194.41538922476818,-37.50541870959299 A198.0,198.0,0,0,0,194.4130110645231,-37.51774418625969 C77.76520442580924,-15.007097674503877,0.8310494744439169,-79.19563975858158,2.077623686109792,-197.98909939645392 A198.0,198.0,0,0,0,1.9272000581924968,-197.9906207372857 C0.7708800232769988,-79.19624829491428,77.76615568990728,-15.002167483837196,194.41538922476818,-37.50541870959299 Z" fill="#1f77b4" fill-opacity="0.6" />
<path d="M194.53855423571133,-36.8612386644725 A198.0,198.0,0,0,0,194.41538922476818,-37.50541870959299 C77.76615568990728,-15.002167483837196,-54.474964296971656,57.49015798242047,-136.18741074242914,143.72539495605116 A198.0,198.0,0,0,0,-136.1803498664733,143.73208518018836 C-54.47213994658932,57.49283407207535,77.81542169428454,-14.744495465789,194.53855423571133,-36.8612386644725 Z" fill="#d62728" fill-opacity="0.6" />
<path d="M194.5402720834635,-36.85217141081378 A198.0,198.0,0,0,0,194.53855423571133,-36.8612386644725 C77.81542169428454,-14.744495465789,70.10546548359412,36.84920228890436,175.2636637089853,92.1230057222609 A198.0,198.0,0,0,0,175.94036997755165,90.82392973309535 C70.37614799102066,36.329571893238146,77.8161088333854,-14.740868564325513,194.5402720834635,-36.85217141081378 Z" fill="#1f77b4" fill-opacity="0.6" />
<path d="M194.5426646359965,-36.839539035202364 A198.0,198.0,0,0,0,194.5402720834635,-36.85217141081378 C77.8161088333854,-14.740868564325513,78.5272170069701,10.301271239037668,196.31804251742525,25.75317809759417 A198.0,198.0,0,0,0,196.50947556012193,24.24924772206033 C78.60379022404878,9.699699088824133,77.8170658543986,-14.735815614080947,194.5426646359965,-36.839539035202364 Z" fill="#1f77b4" fill-opacity="0.6" />
<path d="M194.78244618548814,-35.5499459633544 A198.0,198.0,0,0,0,194.5426646359965,-36.839539035202364 C77.8170658543986,-14.735815614080947,79.19602145899199,0.7938419659359834,197.99005364747995,1.9846049148399585 A198.0,198.0,0,0,0,197.9901000824997,1.9799670001658851 C79.19604003299989,0.7919868000663541,77.91297847419526,-14.219978385341761,194.78244618548814,-35.5499459633544 Z" fill="#e377c2" fill-opacity="0.6" />
<path d="M173.0148863997138,-96.28005548447784 A198.0,198.0,0,0,0,165.51538800308913,-108.66764161509558 C66.20615520123566,-43.46705664603823,15.025277603779578,-77.7616938661277,37.56319400944894,-194.40423466531922 A198.0,198.0,0,0,0,36.80361012790294,-194.54946487089939 C14.721444051161178,-77.81978594835977,69.20595455988551,-38.51202219379114,173.0148863997138,-96.28005548447784 Z" fill="#1f77b4" fill-opacity="0.6" />
<path d="M173.01819030037228,-96.27411814804726 A198.0,198.0,0,0,0,173.0148863997138,-96.28005548447784 C69.20595455988551,-38.51202219379114,7.753961339417562,-78.81951587993179,19.384903348543904,-197.04878969982946 A198.0,198.0,0,0,0,19.30538546386559,-197.05659616488754 C7.722154185546237,-78.82263846595502,69.20727612014892,-38.50964725921891,173.01819030037228,-96.27411814804726 Z" fill="#1f77b4" fill-opacity="0.6" />
<path d="M173.04944293019022,-96.21793128908374 A198.0,198.0,0,0,0,173.01819030037228,-96.27411814804726 C69.20727612014892,-38.50964725921891,1.1318888401057563,-79.19191137770098,2.8297221002643904,-197.97977844425242 A198.0,198.0,0,0,0,2.077623686109792,-197.98909939645392 C0.8310494744439169,-79.19563975858158,69.21977717207609,-38.487172515633496,173.04944293019022,-96.21793128908374 Z" fill="#1f77b4" fill-opacity="0.6" />
<path d="M173.76646525544703,-94.91688760503854 A198.0,198.0,0,0,0,173.04944293019022,-96.21793128908374 C69.21977717207609,-38.487172515633496,-74.51947852867599,-26.82326079756522,-186.29869632168996,-67.05815199391304 A198.0,198.0,0,0,0,-186.3055603285555,-67.0390795779817 C-74.52222413142219,-26.81563183119268,69.50658610217882,-37.966755042015414,173.76646525544703,-94.91688760503854 Z" fill="#d62728" fill-opacity="0.6" />
<path d="M174.64898324617445,-93.28307805318967 A198.0,198.0,0,0,0,173.76646525544703,-94.91688760503854 C69.50658610217882,-37.966755042015414,-78.7300335980118,-8.61520804484333,-196.8250839950295,-21.538020112108324 A198.0,198.0,0,0,0,-196.8270772119592,-21.519797308465687 C-78.73083088478369,-8.607918923386276,69.85959329846979,-37.31323122127587,174.64898324617445,-93.28307805318967 Z" fill="#d62728" fill-opacity="0.6" />
<path d="M174.99769361373876,-92.62724885190111 A198.0,198.0,0,0,0,174.64898324617445,-93.28307805318967 C69.85959329846979,-37.31323122127587,-74.6492734087538,26.459893793156528,-186.6231835218845,66.14973448289132 A198.0,198.0,0,0,0,-186.6193671863045,66.16050023226286 C-74.6477468745218,26.464200092905145,69.9990774454955,-37.05089954076045,174.99769361373876,-92.62724885190111 Z" fill="#d62728" fill-opacity="0.6" />
<path d="M175.34394127014247,-91.97011612394991 A198.0,198.0,0,0,0,174.99769361373876,-92.62724885190111 C69.9990774454955,-37.05089954076045,70.10332348181238,36.8532771514878,175.25830870453095,92.1331928787195 A198.0,198.0,0,0,0,175.2636637089853,92.1230057222609 C70.10546548359412,36.84920228890436,70.137576508057,-36.788046449579966,175.34394127014247,-91.97011612394991 Z" fill="#e377c2" fill-opacity="0.6" />
<path d="M176.3678594192755,-89.99098934817128 A198.0,198.0,0,0,0,175.34394127014247,-91.97011612394991 C70.137576508057,-36.788046449579966,79.19599056034083,0.7969185443987581,197.98997640085207,1.992296360996895 A198.0,198.0,0,0,0,197.99005364747995,1.9846049148399585 C79.19602145899199,0.7938419659359834,70.54714376771021,-35.996395739268515,176.3678594192755,-89.99098934817128 Z" fill="#e377c2" fill-opacity="0.6" />
<path d="M29.54704401965655,-195.782972164845 A198.0,198.0,0,0,0,28.01330958533695,-196.00830208457003 C11.20532383413478,-78.40332083382802,10.420743431428468,-78.51145207125099,26.051858578571167,-196.27863017812746 A198.0,198.0,0,0,0,19.384903348543904,-197.04878969982946 C7.753961339417562,-78.81951587993179,11.81881760786262,-78.313188865938,29.54704401965655,-195.782972164845 Z" fill="#1f77b4" fill-opacity="0.6" />
<path d="M30.659697545579657,-195.61181699072674 A198.0,198.0,0,0,0,29.54704401965655,-195.782972164845 C11.81881760786262,-78.313188865938,6.869877873677211,-78.90148780600249,17.174694684193028,-197.25371951500622 A198.0,198.0,0,0,0,12.399047490626787,-197.6113954743632 C4.959618996250715,-79.04455818974529,12.263879018231863,-78.2447267962907,30.659697545579657,-195.61181699072674 Z" fill="#1f77b4" fill-opacity="0.6" />
<path d="M31.9873820988268,-195.39909771148805 A198.0,198.0,0,0,0,30.659697545579657,-195.61181699072674 C12.263879018231863,-78.2447267962907,3.447480154486101,-79.12493210476977,8.618700386215252,-197.81233026192442 A198.0,198.0,0,0,0,2.8297221002643904,-197.97977844425242 C1.1318888401057563,-79.19191137770098,12.79495283953072,-78.15963908459523,31.9873820988268,-195.39909771148805 Z" fill="#1f77b4" fill-opacity="0.6" />
<path d="M32.1279605196738,-195.37603269809296 A198.0,198.0,0,0,0,31.9873820988268,-195.39909771148805 C12.79495283953072,-78.15963908459523,-21.17113160983674,-76.31790868701115,-52.927829024591844,-190.79477171752788 A198.0,198.0,0,0,0,-58.55584358114593,-189.1433667420044 C-23.422337432458374,-75.65734669680175,12.85118420786952,-78.15041307923718,32.1279605196738,-195.37603269809296 Z" fill="#1f77b4" fill-opacity="0.6" />
<path d="M32.232118405702124,-195.35887628434187 A198.0,198.0,0,0,0,32.1279605196738,-195.37603269809296 C12.85118420786952,-78.15041307923718,-45.08622011061623,-65.11430531102259,-112.71555027654057,-162.78576327755647 A198.0,198.0,0,0,0,-116.13806600026021,-160.3619332189507 C-46.45522640010409,-64.14477328758028,12.89284736228085,-78.14355051373676,32.232118405702124,-195.35887628434187 Z" fill="#1f77b4" fill-opacity="0.6" />
<path d="M33.00337105650644,-195.23006299980173 A198.0,198.0,0,0,0,32.232118405702124,-195.35887628434187 C12.89284736228085,-78.14355051373676,-54.50798219750542,-57.45885377168982,-136.26995549376355,-143.64713442922454 A198.0,198.0,0,0,0,-152.18089507178126,-126.66876163897516 C-60.87235802871251,-50.667504655590065,13.201348422602576,-78.0920251999207,33.00337105650644,-195.23006299980173 Z" fill="#1f77b4" fill-opacity="0.6" />
<path d="M33.06055899950978,-195.2203868417434 A198.0,198.0,0,0,0,33.00337105650644,-195.23006299980173 C13.201348422602576,-78.0920251999207,-74.11668717750881,-27.916960469064346,-185.29171794377203,-69.79240117266086 A198.0,198.0,0,0,0,-186.29869632168996,-67.05815199391304 C-74.51947852867599,-26.82326079756522,13.224223599803913,-78.08815473669736,33.06055899950978,-195.2203868417434 Z" fill="#1f77b4" fill-opacity="0.6" />
<path d="M33.09368726904087,-195.2147736800136 A198.0,198.0,0,0,0,33.06055899950978,-195.2203868417434 C13.224223599803913,-78.08815473669736,-78.6753980726555,-9.10064492820136,-196.68849518163873,-22.751612320503398 A198.0,198.0,0,0,0,-196.8250839950295,-21.538020112108324 C-78.7300335980118,-8.61520804484333,13.237474907616349,-78.08590947200544,33.09368726904087,-195.2147736800136 Z" fill="#1f77b4" fill-opacity="0.6" />
<path d="M33.14575687717154,-195.20593946148114 A198.0,198.0,0,0,0,33.09368726904087,-195.2147736800136 C13.237474907616349,-78.08590947200544,-75.04034252950815,25.329567565477518,-187.60085632377036,63.32391891369379 A198.0,198.0,0,0,0,-186.6231835218845,66.14973448289132 C-74.6492734087538,26.459893793156528,13.258302750868618,-78.08237578459246,33.14575687717154,-195.20593946148114 Z" fill="#1f77b4" fill-opacity="0.6" />
<path d="M33.236537548739335,-195.19050328274488 A198.0,198.0,0,0,0,33.14575687717154,-195.20593946148114 C13.258302750868618,-78.08237578459246,-55.883323712837424,56.12213583610502,-139.70830928209355,140.30533959026255 A198.0,198.0,0,0,0,-136.18741074242914,143.72539495605116 C-54.474964296971656,57.49015798242047,13.294615019495735,-78.07620131309795,33.236537548739335,-195.19050328274488 Z" fill="#1f77b4" fill-opacity="0.6" />
<path d="M33.32249285199356,-195.17584755837194 A198.0,198.0,0,0,0,33.236537548739335,-195.19050328274488 C13.294615019495735,-78.07620131309795,-31.378630754901675,72.71878390036194,-78.44657688725418,181.79695975090485 A198.0,198.0,0,0,0,-74.83614263294768,183.3127157504932 C-29.934457053179074,73.32508630019728,13.328997140797425,-78.07033902334878,33.32249285199356,-195.17584755837194 Z" fill="#1f77b4" fill-opacity="0.6" />
<path d="M35.607092162288936,-194.77200771092922 A198.0,198.0,0,0,0,33.32249285199356,-195.17584755837194 C13.328997140797425,-78.07033902334878,-24.69214142138277,75.25249598535875,-61.73035355345692,188.13123996339687 A198.0,198.0,0,0,0,-61.27745266693773,188.27924419502858 C-24.51098106677509,75.31169767801144,14.242836864915574,-77.9088030843717,35.607092162288936,-194.77200771092922 Z" fill="#9467bd" fill-opacity="0.6" />
<path d="M35.62566810551317,-194.76861084896564 A198.0,198.0,0,0,0,35.607092162288936,-194.77200771092922 C14.242836864915574,-77.9088030843717,-17.431876144549324,77.25781315880675,-43.57969036137331,193.14453289701686 A198.0,198.0,0,0,0,-43.08061659851402,193.25646295400276 C-17.23224663940561,77.3025851816011,14.250267242205268,-77.90744433958626,35.62566810551317,-194.76861084896564 Z" fill="#1f77b4" fill-opacity="0.6" />
<path d="M35.753461801684495,-194.74519241612995 A198.0,198.0,0,0,0,35.62566810551317,-194.76861084896564 C14.250267242205268,-77.90744433958626,7.122762980215315,78.87906089405271,17.806907450538286,197.19765223513176 A198.0,198.0,0,0,0,23.22424069205087,196.6332490813232 C9.289696276820349,78.6532996325293,14.301384720673799,-77.89807696645198,35.753461801684495,-194.74519241612995 Z" fill="#1f77b4" fill-opacity="0.6" />
<path d="M35.779224796878005,-194.74046080086816 A198.0,198.0,0,0,0,35.753461801684495,-194.74519241612995 C14.301384720673799,-77.89807696645198,12.565019514978802,78.1969327057539,31.412548787447005,195.49233176438472 A198.0,198.0,0,0,0,31.521462746830807,195.4747998753296 C12.608585098732323,78.18991995013185,14.311689918751203,-77.89618432034727,35.779224796878005,-194.74046080086816 Z" fill="#1f77b4" fill-opacity="0.6" />
<path d="M35.92779913962164,-194.71310497494255 A198.0,198.0,0,0,0,35.779224796878005,-194.74046080086816 C14.311689918751203,-77.89618432034727,22.30450883631834,75.99440035667494,55.76127209079585,189.98600089168735 A198.0,198.0,0,0,0,58.61188215321164,189.12600897406477 C23.444752861284655,75.65040358962591,14.371119655848657,-77.88524198997703,35.92779913962164,-194.71310497494255 Z" fill="#1f77b4" fill-opacity="0.6" />
<path d="M36.05150794336885,-194.69023800645272 A198.0,198.0,0,0,0,35.92779913962164,-194.71310497494255 C14.371119655848657,-77.88524198997703,44.21727349583059,65.70747845256975,110.54318373957646,164.26869613142435 A198.0,198.0,0,0,0,114.64937140970164,161.42961820979534 C45.85974856388066,64.57184728391813,14.42060317734754,-77.8760952025811,36.05150794336885,-194.69023800645272 Z" fill="#1f77b4" fill-opacity="0.6" />
<path d="M36.146180022430514,-194.67268341959547 A198.0,198.0,0,0,0,36.05150794336885,-194.69023800645272 C14.42060317734754,-77.8760952025811,69.05410480653399,38.78363842354428,172.63526201633496,96.9590960588607 A198.0,198.0,0,0,0,175.25830870453095,92.1331928787195 C70.10332348181238,36.8532771514878,14.458472008972207,-77.8690733678382,36.146180022430514,-194.67268341959547 Z" fill="#1f77b4" fill-opacity="0.6" />
<path d="M36.21651820653244,-194.65961011210288 A198.0,198.0,0,0,0,36.146180022430514,-194.67268341959547 C14.458472008972207,-77.8690733678382,78.36026364458723,11.50256847624839,195.90065911146806,28.756421190620973 A198.0,198.0,0,0,0,196.31804251742525,25.75317809759417 C78.5272170069701,10.301271239037668,14.486607282612978,-77.86384404484116,36.21651820653244,-194.65961011210288 Z" fill="#1f77b4" fill-opacity="0.6" />
<path d="M36.310432996217415,-194.64211377712482 A198.0,198.0,0,0,0,36.21651820653244,-194.65961011210288 C14.486607282612978,-77.86384404484116,79.1896151624514,1.2825172212674518,197.9740379061285,3.206293053168629 A198.0,198.0,0,0,0,197.98997640085207,1.992296360996895 C79.19599056034083,0.7969185443987581,14.524173198486967,-77.85684551084994,36.310432996217415,-194.64211377712482 Z" fill="#1f77b4" fill-opacity="0.6" />
<path d="M19.22586443547101,-197.06437054097043 A198.0,198.0,0,0,0,19.14634027630944,-197.07211282681214 C7.658536110523777,-78.82884513072486,7.119680727761079,78.87933916010421,17.799201819402697,197.1983479002605 A198.0,198.0,0,0,0,17.806907450538286,197.19765223513176 C7.122762980215315,78.87906089405271,7.690345774188405,-78.82574821638818,19.22586443547101,-197.06437054097043 Z" fill="#9467bd" fill-opacity="0.6" />
<path d="M19.30538546386559,-197.05659616488754 A198.0,198.0,0,0,0,19.22586443547101,-197.06437054097043 C7.690345774188405,-78.82574821638818,79.18959996472334,1.2834552688310321,197.97399991180833,3.2086381720775803 A198.0,198.0,0,0,0,197.9740379061285,3.206293053168629 C79.1896151624514,1.2825172212674518,7.722154185546237,-78.82263846595502,19.30538546386559,-197.05659616488754 Z" fill="#e377c2" fill-opacity="0.6" />
<path d="M10.753152384523451,-197.70778870291178 A198.0,198.0,0,0,0,10.596359788849433,-197.71625416041357 C4.238543915539774,-79.08650166416544,-74.11407246937958,-27.923901267615747,-185.28518117344893,-69.80975316903937 A198.0,198.0,0,0,0,-185.29171794377203,-69.79240117266086 C-74.11668717750881,-27.916960469064346,4.301260953809381,-79.08311548116473,10.753152384523451,-197.70778870291178 Z" fill="#d62728" fill-opacity="0.6" />
<path d="M11.458633952990052,-197.66815552316814 A198.0,198.0,0,0,0,10.753152384523451,-197.70778870291178 C4.301260953809381,-79.08311548116473,-75.0523640927866,25.293925043057207,-187.6309102319665,63.234812607643015 A198.0,198.0,0,0,0,-187.60085632377036,63.32391891369379 C-75.04034252950815,25.329567565477518,4.583453581196021,-79.06726220926726,11.458633952990052,-197.66815552316814 Z" fill="#d62728" fill-opacity="0.6" />
<path d="M11.693762490720546,-197.65438502297545 A198.0,198.0,0,0,0,11.458633952990052,-197.66815552316814 C4.583453581196021,-79.06726220926726,-55.8916883192665,56.11380558135377,-139.72922079816624,140.28451395338442 A198.0,198.0,0,0,0,-139.70830928209355,140.30533959026255 C-55.883323712837424,56.12213583610502,4.677504996288219,-79.06175400919018,11.693762490720546,-197.65438502297545 Z" fill="#d62728" fill-opacity="0.6" />
<path d="M12.16396959221883,-197.6260049784936 A198.0,198.0,0,0,0,11.693762490720546,-197.65438502297545 C4.677504996288219,-79.06175400919018,-31.39689239877725,72.71090116137746,-78.49223099694312,181.77725290344367 A198.0,198.0,0,0,0,-78.44657688725418,181.79695975090485 C-31.378630754901675,72.71878390036194,4.865587836887532,-79.05040199139745,12.16396959221883,-197.6260049784936 Z" fill="#d62728" fill-opacity="0.6" />
<path d="M12.399047490626787,-197.6113954743632 A198.0,198.0,0,0,0,12.16396959221883,-197.6260049784936 C4.865587836887532,-79.05040199139745,7.1104339051908285,78.88017323561044,17.77608476297707,197.2004330890261 A198.0,198.0,0,0,0,17.799201819402697,197.1983479002605 C7.119680727761079,78.87933916010421,4.959618996250715,-79.04455818974529,12.399047490626787,-197.6113954743632 Z" fill="#9467bd" fill-opacity="0.6" />
<path d="M1.8519878216455605,-197.9913385507267 A198.0,198.0,0,0,0,1.776775317844566,-197.99202779271164 C0.7107101271378264,-79.19681111708466,-45.08393848953978,-65.11588508399002,-112.70984622384945,-162.78971270997505 A198.0,198.0,0,0,0,-112.71555027654057,-162.78576327755647 C-45.08622011061623,-65.11430531102259,0.7407951286582243,-79.19653542029069,1.8519878216455605,-197.9913385507267 Z" fill="#2ca02c" fill-opacity="0.6" />
<path d="M1.9272000581924968,-197.9906207372857 A198.0,198.0,0,0,0,1.8519878216455605,-197.9913385507267 C0.7407951286582243,-79.19653542029069,7.107517324390613,78.8804360883197,17.76879331097653,197.20109022079922 A198.0,198.0,0,0,0,17.77608476297707,197.2004330890261 C7.1104339051908285,78.88017323561044,0.7708800232769988,-79.19624829491428,1.9272000581924968,-197.9906207372857 Z" fill="#9467bd" fill-opacity="0.6" />
<path d="M-58.55584358114593,-189.1433667420044 A198.0,198.0,0,0,0,-60.792937252723355,-188.4362459299867 C-24.317174901089345,-75.37449837199469,-43.046821789417635,-66.480155940176,-107.61705447354407,-166.20038985044002 A198.0,198.0,0,0,0,-112.70984622384945,-162.78971270997505 C-45.08393848953978,-65.11588508399002,-23.422337432458374,-75.65734669680175,-58.55584358114593,-189.1433667420044 Z" fill="#2ca02c" fill-opacity="0.6" />
<path d="M-118.47706856664254,-158.64168501328734 A198.0,198.0,0,0,0,-118.73539425898993,-158.44843372580942 C-47.494157703595974,-63.37937349032377,-54.35930973103558,-57.59952643525241,-135.89827432758895,-143.998816088131 A198.0,198.0,0,0,0,-136.26995549376355,-143.64713442922454 C-54.50798219750542,-57.45885377168982,-47.39082742665702,-63.45667400531494,-118.47706856664254,-158.64168501328734 Z" fill="#2ca02c" fill-opacity="0.6" />
<path d="M-118.21842834305315,-158.83451514106878 A198.0,198.0,0,0,0,-118.47706856664254,-158.64168501328734 C-47.39082742665702,-63.45667400531494,-78.67526241054217,-9.10181765540983,-196.68815602635541,-22.754544138524572 A198.0,198.0,0,0,0,-196.68849518163873,-22.751612320503398 C-78.6753980726555,-9.10064492820136,-47.28737133722126,-63.533806056427515,-118.21842834305315,-158.83451514106878 Z" fill="#d62728" fill-opacity="0.6" />
<path d="M-117.18073588144954,-159.60161383357615 A198.0,198.0,0,0,0,-118.21842834305315,-158.83451514106878 C-47.28737133722126,-63.533806056427515,-75.05471299732902,25.28695428256572,-187.63678249332256,63.2173857064143 A198.0,198.0,0,0,0,-187.6309102319665,63.234812607643015 C-75.0523640927866,25.293925043057207,-46.872294352579814,-63.84064553343046,-117.18073588144954,-159.60161383357615 Z" fill="#d62728" fill-opacity="0.6" />
<path d="M-116.13806600026021,-160.3619332189507 A198.0,198.0,0,0,0,-117.18073588144954,-159.60161383357615 C-46.872294352579814,-63.84064553343046,-24.695292348947785,75.25146201769107,-61.738230872369456,188.12865504422766 A198.0,198.0,0,0,0,-61.73035355345692,188.13123996339687 C-24.69214142138277,75.25249598535875,-46.45522640010409,-64.14477328758028,-116.13806600026021,-160.3619332189507 Z" fill="#9467bd" fill-opacity="0.6" />
<path d="M-152.18089507178126,-126.66876163897516 A198.0,198.0,0,0,0,-152.19156160792713,-126.65594567702114 C-60.87662464317086,-50.66237827080846,-78.57754090275571,-9.910099175878731,-196.44385225688927,-24.775247939696825 A198.0,198.0,0,0,0,-196.68815602635541,-22.754544138524572 C-78.67526241054217,-9.10181765540983,-60.87235802871251,-50.667504655590065,-152.18089507178126,-126.66876163897516 Z" fill="#2ca02c" fill-opacity="0.6" />
<path d="M-187.3947766082772,-63.93119504540714 A198.0,198.0,0,0,0,-187.3984098342994,-63.920544362325 C-74.95936393371976,-25.568217744930003,-78.53612663545799,-10.23312333060181,-196.34031658864495,-25.582808326504523 A198.0,198.0,0,0,0,-196.44385225688927,-24.775247939696825 C-78.57754090275571,-9.910099175878731,-74.95791064331088,-25.572478018162855,-187.3947766082772,-63.93119504540714 Z" fill="#d62728" fill-opacity="0.6" />
<path d="M-187.28742807083492,-64.24499425334112 A198.0,198.0,0,0,0,-187.3947766082772,-63.93119504540714 C-74.95791064331088,-25.572478018162855,-78.46659561214551,10.753295915207906,-196.16648903036378,26.88323978801976 A198.0,198.0,0,0,0,-187.63678249332256,63.2173857064143 C-75.05471299732902,25.28695428256572,-74.91497122833397,-25.697997701336448,-187.28742807083492,-64.24499425334112 Z" fill="#d62728" fill-opacity="0.6" />
<path d="M-186.8096411716311,-65.62132248992256 A198.0,198.0,0,0,0,-187.28742807083492,-64.24499425334112 C-74.91497122833397,-25.697997701336448,-56.01801202750484,55.9876980102444,-140.0450300687621,139.969245025611 A198.0,198.0,0,0,0,-139.72922079816624,140.28451395338442 C-55.8916883192665,56.11380558135377,-74.72385646865244,-26.248528995969025,-186.8096411716311,-65.62132248992256 Z" fill="#d62728" fill-opacity="0.6" />
<path d="M-186.3217401355377,-66.99409789574871 A198.0,198.0,0,0,0,-186.8096411716311,-65.62132248992256 C-74.72385646865244,-26.248528995969025,-31.756001050222473,72.55478204293821,-79.39000262555618,181.38695510734553 A198.0,198.0,0,0,0,-78.49223099694312,181.77725290344367 C-31.39689239877725,72.71090116137746,-74.52869605421509,-26.797639158299486,-186.3217401355377,-66.99409789574871 Z" fill="#d62728" fill-opacity="0.6" />
<path d="M-186.31283359821842,-67.01886328939462 A198.0,198.0,0,0,0,-186.3217401355377,-66.99409789574871 C-74.52869605421509,-26.797639158299486,12.477876659781105,78.21088539367963,31.19469164945276,195.52721348419908 A198.0,198.0,0,0,0,31.412548787447005,195.49233176438472 C12.565019514978802,78.1969327057539,-74.52513343928737,-26.80754531575785,-186.31283359821842,-67.01886328939462 Z" fill="#d62728" fill-opacity="0.6" />
<path d="M-186.30962229506213,-67.02779005958114 A198.0,198.0,0,0,0,-186.31283359821842,-67.01886328939462 C-74.52513343928737,-26.80754531575785,22.16161838151511,76.0361931629411,55.40404595378778,190.09048290735277 A198.0,198.0,0,0,0,55.76127209079585,189.98600089168735 C22.30450883631834,75.99440035667494,-74.52384891802485,-26.811116023832454,-186.30962229506213,-67.02779005958114 Z" fill="#d62728" fill-opacity="0.6" />
<path d="M-186.3055603285555,-67.0390795779817 A198.0,198.0,0,0,0,-186.30962229506213,-67.02779005958114 C-74.52384891802485,-26.811116023832454,79.18753943543075,1.4048480921798037,197.96884858857686,3.5121202304495087 A198.0,198.0,0,0,0,197.97399991180833,3.2086381720775803 C79.18959996472334,1.2834552688310321,-74.52222413142219,-26.81563183119268,-186.3055603285555,-67.0390795779817 Z" fill="#d62728" fill-opacity="0.6" />
<path d="M-196.82856870223182,-21.50615127424742 A198.0,198.0,0,0,0,-197.83373366493774,-8.112571983685793 C-79.1334934659751,-3.2450287934743174,-78.47791671054671,10.670360292534365,-196.19479177636677,26.67590073133591 A198.0,198.0,0,0,0,-196.16648903036378,26.88323978801976 C-78.46659561214551,10.753295915207906,-78.73142748089273,-8.602460509698968,-196.82856870223182,-21.50615127424742 Z" fill="#d62728" fill-opacity="0.6" />
<path d="M-196.8270772119592,-21.519797308465687 A198.0,198.0,0,0,0,-196.82856870223182,-21.50615127424742 C-78.73142748089273,-8.602460509698968,21.875603053410686,76.11897260899946,54.68900763352671,190.29743152249864 A198.0,198.0,0,0,0,55.40404595378778,190.09048290735277 C22.16161838151511,76.0361931629411,-78.73083088478369,-8.607918923386276,-196.8270772119592,-21.519797308465687 Z" fill="#d62728" fill-opacity="0.6" />
<path d="M-185.55034768814951,69.1018702554918 A198.0,198.0,0,0,0,-180.7361412621759,80.86066560237303 C-72.29445650487035,32.34426624094922,-56.051834866094424,55.953836402378016,-140.12958716523605,139.88459100594503 A198.0,198.0,0,0,0,-140.0450300687621,139.969245025611 C-56.01801202750484,55.9876980102444,-74.22013907525981,27.640748102196724,-185.55034768814951,69.1018702554918 Z" fill="#d62728" fill-opacity="0.6" />
<path d="M-185.5525012847283,69.09608720456536 A198.0,198.0,0,0,0,-185.55034768814951,69.1018702554918 C-74.22013907525981,27.640748102196724,-31.935264825268263,72.47605715365582,-79.83816206317066,181.19014288413953 A198.0,198.0,0,0,0,-79.39000262555618,181.38695510734553 C-31.756001050222473,72.55478204293821,-74.22100051389133,27.638434881826146,-185.5525012847283,69.09608720456536 Z" fill="#d62728" fill-opacity="0.6" />
<path d="M-185.55618920961325,69.08618274305081 A198.0,198.0,0,0,0,-185.5525012847283,69.09608720456536 C-74.22100051389133,27.638434881826146,-24.876307217799226,75.19181696970536,-62.190768044498064,187.97954242426337 A198.0,198.0,0,0,0,-61.738230872369456,188.12865504422766 C-24.695292348947785,75.25146201769107,-74.2224756838453,27.634473097220326,-185.55618920961325,69.08618274305081 Z" fill="#d62728" fill-opacity="0.6" />
<path d="M-185.83921802116868,68.32119030930694 A198.0,198.0,0,0,0,-185.55618920961325,69.08618274305081 C-74.2224756838453,27.634473097220326,10.075751683384748,78.55647158582653,25.18937920846187,196.3911789645663 A198.0,198.0,0,0,0,31.19469164945276,195.52721348419908 C12.477876659781105,78.21088539367963,-74.33568720846748,27.32847612372278,-185.83921802116868,68.32119030930694 Z" fill="#d62728" fill-opacity="0.6" />
<path d="M-185.85581407846254,68.27603073723581 A198.0,198.0,0,0,0,-185.83921802116868,68.32119030930694 C-74.33568720846748,27.32847612372278,21.23094425936013,76.30129098420251,53.07736064840032,190.75322746050628 A198.0,198.0,0,0,0,54.68900763352671,190.29743152249864 C21.875603053410686,76.11897260899946,-74.34232563138502,27.310412294894327,-185.85581407846254,68.27603073723581 Z" fill="#d62728" fill-opacity="0.6" />
<path d="M-185.8580468258084,68.26995261530224 A198.0,198.0,0,0,0,-185.85581407846254,68.27603073723581 C-74.34232563138502,27.310412294894327,44.06654796577317,65.80865710816634,110.1663699144329,164.52164277041587 A198.0,198.0,0,0,0,110.54318373957646,164.26869613142435 C44.21727349583059,65.70747845256975,-74.34321873032336,27.3079810461209,-185.8580468258084,68.26995261530224 Z" fill="#d62728" fill-opacity="0.6" />
<path d="M-186.6193671863045,66.16050023226286 A198.0,198.0,0,0,0,-185.8580468258084,68.26995261530224 C-74.34321873032336,27.3079810461209,69.04967818473125,38.7915189517638,172.62419546182812,96.97879737940949 A198.0,198.0,0,0,0,172.63526201633496,96.9590960588607 C69.05410480653399,38.78363842354428,-74.6477468745218,26.464200092905145,-186.6193671863045,66.16050023226286 Z" fill="#e377c2" fill-opacity="0.6" />
<path d="M-135.88215418527344,144.01402769858768 A198.0,198.0,0,0,0,-135.87370206793196,144.02200209119044 C-54.34948082717278,57.60880083647618,-32.29320579646462,72.31727912046459,-80.73301449116154,180.79319780116148 A198.0,198.0,0,0,0,-79.83816206317066,181.19014288413953 C-31.935264825268263,72.47605715365582,-54.35286167410938,57.60561107943508,-135.88215418527344,144.01402769858768 Z" fill="#d62728" fill-opacity="0.6" />
<path d="M-136.12723359295688,143.7823920872391 A198.0,198.0,0,0,0,-135.88215418527344,144.01402769858768 C-54.35286167410938,57.60561107943508,16.38719942301861,77.48612582308022,40.96799855754653,193.71531455770054 A198.0,198.0,0,0,0,53.07736064840032,190.75322746050628 C21.23094425936013,76.30129098420251,-54.450893437182756,57.51295683489564,-136.12723359295688,143.7823920872391 Z" fill="#d62728" fill-opacity="0.6" />
<path d="M-136.1803498664733,143.73208518018836 A198.0,198.0,0,0,0,-136.12723359295688,143.7823920872391 C-54.450893437182756,57.51295683489564,42.24001092039253,66.99568252839224,105.60002730098131,167.4892063209806 A198.0,198.0,0,0,0,110.1663699144329,164.52164277041587 C44.06654796577317,65.80865710816634,-54.47213994658932,57.49283407207535,-136.1803498664733,143.73208518018836 Z" fill="#d62728" fill-opacity="0.6" />
<path d="M-74.80219231072154,183.32657206610784 A198.0,198.0,0,0,0,-74.77470979330715,183.33778327264324 C-29.909883917322862,73.33511330905729,15.877055182337038,77.5922619771909,39.69263795584259,193.98065494297725 A198.0,198.0,0,0,0,40.96799855754653,193.71531455770054 C16.38719942301861,77.48612582308022,-29.920876924288617,73.33062882644315,-74.80219231072154,183.32657206610784 Z" fill="#d62728" fill-opacity="0.6" />
<path d="M-74.82621291983348,183.31676917313305 A198.0,198.0,0,0,0,-74.80219231072154,183.32657206610784 C-29.920876924288617,73.33062882644315,68.39445532659806,39.93542888937067,170.98613831649516,99.83857222342667 A198.0,198.0,0,0,0,172.62419546182812,96.97879737940949 C69.04967818473125,38.7915189517638,-29.930485167933394,73.32670766925322,-74.82621291983348,183.31676917313305 Z" fill="#d62728" fill-opacity="0.6" />
<path d="M-74.83614263294768,183.3127157504932 A198.0,198.0,0,0,0,-74.82621291983348,183.31676917313305 C-29.930485167933394,73.32670766925322,79.18529281845862,1.5262376141893867,197.96323204614654,3.8155940354734668 A198.0,198.0,0,0,0,197.96884858857686,3.5121202304495087 C79.18753943543075,1.4048480921798037,-29.934457053179074,73.32508630019728,-74.83614263294768,183.3127157504932 Z" fill="#d62728" fill-opacity="0.6" />
<path d="M-61.2658590651629,188.2830170594459 A198.0,198.0,0,0,0,-61.264301014015494,188.28352403028816 C-24.505720405606198,75.31340961211527,68.3204797358271,40.06185278624091,170.80119933956775,100.15463196560228 A198.0,198.0,0,0,0,170.98613831649516,99.83857222342667 C68.39445532659806,39.93542888937067,-24.50634362606516,75.31320682377837,-61.2658590651629,188.2830170594459 Z" fill="#9467bd" fill-opacity="0.6" />
<path d="M-61.27745266693773,188.27924419502858 A198.0,198.0,0,0,0,-61.2658590651629,188.2830170594459 C-24.50634362606516,75.31320682377837,79.1802413430309,1.769005613156821,197.95060335757725,4.422514032892052 A198.0,198.0,0,0,0,197.96323204614654,3.8155940354734668 C79.18529281845862,1.5262376141893867,-24.51098106677509,75.31169767801144,-61.27745266693773,188.27924419502858 Z" fill="#9467bd" fill-opacity="0.6" />
<path d="M-43.08061659851402,193.25646295400276 A198.0,198.0,0,0,0,-43.07430293543506,193.25787028379042 C-17.229721174174024,77.30314811351617,79.17743649644609,1.8903835196191885,197.9435912411152,4.725958799047971 A198.0,198.0,0,0,0,197.95060335757725,4.422514032892052 C79.1802413430309,1.769005613156821,-17.23224663940561,77.3025851816011,-43.08061659851402,193.25646295400276 Z" fill="#9467bd" fill-opacity="0.6" />
<path d="M58.61188215321164,189.12600897406477 A198.0,198.0,0,0,0,61.97971421538884,188.04923564263356 C24.79188568615554,75.21969425705343,42.21592034833,67.0108653066311,105.539800870825,167.52716326657776 A198.0,198.0,0,0,0,105.60002730098131,167.4892063209806 C42.24001092039253,66.99568252839224,23.444752861284655,75.65040358962591,58.61188215321164,189.12600897406477 Z" fill="#8c564b" fill-opacity="0.6" />
<path d="M114.64937140970164,161.42961820979534 A198.0,198.0,0,0,0,115.01908616943571,161.16640411930746 C46.00763446777429,64.46656164772298,68.31915960037551,40.06410402715153,170.79789900093877,100.16026006787881 A198.0,198.0,0,0,0,170.80119933956775,100.15463196560228 C68.3204797358271,40.06185278624091,45.85974856388066,64.57184728391813,114.64937140970164,161.42961820979534 Z" fill="#e377c2" fill-opacity="0.6" />
<path d="M176.10804348842584,90.49838130419084 A198.0,198.0,0,0,0,176.14533708795605,90.425771891482 C70.45813483518242,36.1703087565928,77.97127189706963,13.896789512446432,194.92817974267405,34.74197378111608 A198.0,198.0,0,0,0,195.90065911146806,28.756421190620973 C78.36026364458723,11.50256847624839,70.44321739537034,36.19935252167634,176.10804348842584,90.49838130419084 Z" fill="#e377c2" fill-opacity="0.6" />
<path d="M175.94036997755165,90.82392973309535 A198.0,198.0,0,0,0,176.10804348842584,90.49838130419084 C70.44321739537034,36.19935252167634,78.82421475281859,7.706047534342009,197.06053688204645,19.26511883585502 A198.0,198.0,0,0,0,197.9435912411152,4.725958799047971 C79.17743649644609,1.8903835196191885,70.37614799102066,36.329571893238146,175.94036997755165,90.82392973309535 Z" fill="#e377c2" fill-opacity="0.6" />
<path d="M196.50947556012193,24.24924772206033 A198.0,198.0,0,0,0,196.58282351340515,23.647272559375743 C78.63312940536207,9.458909023750298,78.72378529541604,8.672117893642746,196.80946323854008,21.680294734106862 A198.0,198.0,0,0,0,197.06053688204645,19.26511883585502 C78.82421475281859,7.706047534342009,78.60379022404878,9.699699088824133,196.50947556012193,24.24924772206033 Z" fill="#e377c2" fill-opacity="0.6" />
<text x="220.00000000000003" y="0" font-size="10" text-anchor="start" dominant-baseline="middle" transform="rotate(-8.071388)" font-family="Arial">Canada</text>
<text x="220.0" y="0" font-size="10" text-anchor="start" dominant-baseline="middle" transform="rotate(-25.001138)" font-family="Arial">Mexico</text>
<text x="220.00000000000003" y="0" font-size="10" text-anchor="start" dominant-baseline="middle" transform="rotate(-57.862962)" font-family="Arial">United Sta.</text>
<text x="220.00000000000003" y="0" font-size="10" text-anchor="start" dominant-baseline="middle" transform="rotate(-83.445142)" font-family="Arial">Costa Rica</text>
<text x="220.00000000000006" y="0" font-size="10" text-anchor="start" dominant-baseline="middle" transform="rotate(-85.978049)" font-family="Arial">Dominican .</text>
<text x="220.00000000000003" y="0" font-size="10" text-anchor="start" dominant-baseline="middle" transform="rotate(-88.495519)" font-family="Arial">Guatemala</text>
<text x="-220.00000000000003" y="0" font-size="10" text-anchor="end" dominant-baseline="middle" transform="rotate(81.030280)" font-family="Arial">Argentina</text>
<text x="-220.00000000000003" y="0" font-size="10" text-anchor="end" dominant-baseline="middle" transform="rotate(62.349936)" font-family="Arial">Brazil</text>
<text x="-220.00000000000003" y="0" font-size="10" text-anchor="end" dominant-baseline="middle" transform="rotate(46.174105)" font-family="Arial">Colombia</text>
<text x="-220.00000000000003" y="0" font-size="10" text-anchor="end" dominant-baseline="middle" transform="rotate(29.014482)" font-family="Arial">Germany</text>
<text x="-220.00000000000003" y="0" font-size="10" text-anchor="end" dominant-baseline="middle" transform="rotate(10.304738)" font-family="Arial">Spain</text>
<text x="-220.00000000000006" y="0" font-size="10" text-anchor="end" dominant-baseline="middle" transform="rotate(-11.164153)" font-family="Arial">France</text>
<text x="-220.00000000000006" y="0" font-size="10" text-anchor="end" dominant-baseline="middle" transform="rotate(-35.672019)" font-family="Arial">United Kin.</text>
<text x="-220.00000000000003" y="0" font-size="10" text-anchor="end" dominant-baseline="middle" transform="rotate(-57.526140)" font-family="Arial">Italy</text>
<text x="-220.00000000000003" y="0" font-size="10" text-anchor="end" dominant-baseline="middle" transform="rotate(-70.180371)" font-family="Arial">Indonesia</text>
<text x="-220.0" y="0" font-size="10" text-anchor="end" dominant-baseline="middle" transform="rotate(-74.991971)" font-family="Arial">India</text>
<text x="-220.00000000000006" y="0" font-size="10" text-anchor="end" dominant-baseline="middle" transform="rotate(-87.371964)" font-family="Arial">Japan</text>
<text x="220.00000000000003" y="0" font-size="10" text-anchor="start" dominant-baseline="middle" transform="rotate(-278.234674)" font-family="Arial">Egypt</text>
<text x="220.00000000000003" y="0" font-size="10" text-anchor="start" dominant-baseline="middle" transform="rotate(-283.987620)" font-family="Arial">Nigeria</text>
<text x="220.00000000000003" y="0" font-size="10" text-anchor="start" dominant-baseline="middle" transform="rotate(-297.164500)" font-family="Arial">South Afri.</text>
<text x="220.00000000000006" y="0" font-size="10" text-anchor="start" dominant-baseline="middle" transform="rotate(-319.456521)" font-family="Arial">Australia</text>
<text x="220.00000000000003" y="0" font-size="10" text-anchor="start" dominant-baseline="middle" transform="rotate(-343.269806)" font-family="Arial">New Zealan.</text>
<text x="220.00000000000006" y="0" font-size="10" text-anchor="start" dominant-baseline="middle" transform="rotate(-356.570377)" font-family="Arial">Papua New .</text>
<text x="-295.0" y="-285.0" font-size="8" text-anchor="start" dominant-baseline="middle" font-family="Arial" font-weight="bold">Continents</text>
<circle cx="-290.5" cy="-274.5" r="4.5" fill="#8c564b" stroke="#333" stroke-width="0.5" />
<text x="-278.0" y="-271.0" font-size="6" text-anchor="start" dominant-baseline="middle" font-family="Arial">Africa</text>
<circle cx="-290.5" cy="-262.5" r="4.5" fill="#9467bd" stroke="#333" stroke-width="0.5" />
<text x="-278.0" y="-259.0" font-size="6" text-anchor="start" dominant-baseline="middle" font-family="Arial">Asia</text>
<circle cx="-290.5" cy="-250.5" r="4.5" fill="#ff7f0e" stroke="#333" stroke-width="0.5" />
<text x="-278.0" y="-247.0" font-size="6" text-anchor="start" dominant-baseline="middle" font-family="Arial">Central America</text>
<circle cx="-290.5" cy="-238.5" r="4.5" fill="#d62728" stroke="#333" stroke-width="0.5" />
<text x="-278.0" y="-235.0" font-size="6" text-anchor="start" dominant-baseline="middle" font-family="Arial">Europe</text>
<circle cx="-290.5" cy="-226.5" r="4.5" fill="#1f77b4" stroke="#333" stroke-width="0.5" />
<text x="-278.0" y="-223.0" font-size="6" text-anchor="start" dominant-baseline="middle" font-family="Arial">North America</text>
<circle cx="-290.5" cy="-214.5" r="4.5" fill="#e377c2" stroke="#333" stroke-width="0.5" />
<text x="-278.0" y="-211.0" font-size="6" text-anchor="start" dominant-baseline="middle" font-family="Arial">Oceania</text>
<circle cx="-290.5" cy="-202.5" r="4.5" fill="#2ca02c" stroke="#333" stroke-width="0.5" />
<text x="-278.0" y="-199.0" font-size="6" text-anchor="start" dominant-baseline="middle" font-family="Arial">South America</text>
</svg>