<?xml version="1.0" encoding="UTF-8"?>
<svg xmlns="http://www.w3.org/2000/svg" xmlns:xlink="http://www.w3.org/1999/xlink"
     width="600.0" height="600.0" viewBox="-300.0 -300.0 600.0 600.0">
<defs>
</defs>
<rect x="-300.0" y="-300.0" width="600.0" height="600.0" fill="#ffffff" fill-opacity="1.0" />
<path d="M200.0,-0.0 A200,200,0,0,0,192.21968464127085,-55.2412240669085 L205.67506256615982,-59.108109751592096 A214.0,214.0,0,0,1,214.0,-0.0 Z" fill="#1f77b4" fill-opacity="0.9" />
<path d="M191.6576707032856,-57.16062683868105 A200,200,0,0,0,163.31201662243643,-115.4520906121368 L174.743857786007,-123.53373695498638 A214.0,214.0,0,0,1,205.0737076525156,-61.16187071738872 Z" fill="#1f77b4" fill-opacity="0.9" />
<path d="M162.1493494254493,-117.07941100340209 A200,200,0,0,0,27.91467515122854,-198.0423462575653 L29.86870241181454,-211.90531049559488 A214.0,214.0,0,0,1,173.49980388523076,-125.27496977364024 Z" fill="#1f77b4" fill-opacity="0.9" />
<path d="M25.93288897341907,-198.31158632185947 A200,200,0,0,0,19.0877580664302,-199.08706008175778 L20.423901131080317,-213.02315428748085 A214.0,214.0,0,0,1,27.74819120155841,-212.19339736438965 Z" fill="#ff7f0e" fill-opacity="0.9" />
<path d="M17.09596626667328,-199.26798021109354 A200,200,0,0,0,10.645061340512514,-199.71650575016758 L11.39021563434839,-213.69666115267933 A214.0,214.0,0,0,1,18.29268390534041,-213.2167388258701 Z" fill="#ff7f0e" fill-opacity="0.9" />
<path d="M8.647397320297099,-199.81296884733212 A200,200,0,0,0,-0.257278888236323,-199.99983451886573 L-0.2752884104128656,-213.99982293518633 A214.0,214.0,0,0,1,9.252715132717896,-213.7998766666454 Z" fill="#ff7f0e" fill-opacity="0.9" />
<path d="M-2.2572310364486823,-199.98726186447 A200,200,0,0,0,-55.31274678008541,-192.1991156161811 L-59.184639054691395,-205.65305370931378 A214.0,214.0,0,0,1,-2.41523720900009,-213.98637019498292 Z" fill="#2ca02c" fill-opacity="0.9" />
<path d="M-57.23194028892935,-191.63638749142717 A200,200,0,0,0,-116.33202435867808,-162.68638575065808 L-124.47526606378555,-174.07443275320415 A214.0,214.0,0,0,1,-61.23817610915441,-205.0509346158271 Z" fill="#2ca02c" fill-opacity="0.9" />
<path d="M-117.95304454917617,-161.51495064414334 A200,200,0,0,0,-155.5036235480264,-125.77210765282454 L-166.38887719638828,-134.57615518852228 A214.0,214.0,0,0,1,-126.2097576676185,-172.8209971892334 Z" fill="#2ca02c" fill-opacity="0.9" />
<path d="M-156.75354854625706,-124.21080878150754 A200,200,0,0,0,-191.68812751679434,-57.058406647094436 L-205.10629644296995,-61.05249511239105 A214.0,214.0,0,0,1,-167.72629694449506,-132.90556539621306 Z" fill="#d62728" fill-opacity="0.9" />
<path d="M-192.24911774707235,-55.13870442322995 A200,200,0,0,0,-199.99997675578408,0.09642450847073862 L-213.99997512868896,0.10317422406369033 A214.0,214.0,0,0,1,-205.70655598936742,-58.99841373285605 Z" fill="#d62728" fill-opacity="0.9" />
<path d="M-199.98901261126528,2.0963861216804967 A200,200,0,0,0,-183.441000439853,79.6831183979759 L-196.28187047064273,85.26093668583422 A214.0,214.0,0,0,1,-213.98824349405388,2.2431331501981315 Z" fill="#d62728" fill-opacity="0.9" />
<path d="M-182.6350105627381,81.51351370630849 A200,200,0,0,0,-138.9334599120724,143.86623549971887 L-148.6588021059175,153.9368719846992 A214.0,214.0,0,0,1,-195.41946130212978,87.21945966575008 Z" fill="#d62728" fill-opacity="0.9" />
<path d="M-137.48787491955443,145.24835369154775 A200,200,0,0,0,-78.90174530170606,183.77843885598958 L-84.42486747282548,196.64292957590885 A214.0,214.0,0,0,1,-147.11202616392325,155.4157384499561 Z" fill="#d62728" fill-opacity="0.9" />
<path d="M-77.0600464883434,184.5582543134128 A200,200,0,0,0,-60.948992568163575,190.48679824314846 L-65.21542204793504,203.82087412016887 A214.0,214.0,0,0,1,-82.45424974252745,197.4773321153517 Z" fill="#9467bd" fill-opacity="0.9" />
<path d="M-59.041108909140014,191.0867537501725 A200,200,0,0,0,-41.72462744214959,195.59922153427354 L-44.64535136310006,209.2911670416727 A214.0,214.0,0,0,1,-63.17398653277982,204.4628265126846 Z" fill="#9467bd" fill-opacity="0.9" />
<path d="M-39.76658161252725,196.0066809750479 A200,200,0,0,0,22.218471549971483,198.76201730205676 L23.773764558469487,212.67535851320073 A214.0,214.0,0,0,1,-42.550242325404156,209.7271486433013 Z" fill="#9467bd" fill-opacity="0.9" />
<path d="M24.204947681834927,198.52989827156924 A200,200,0,0,0,31.750539528664273,197.46367574730985 L33.97307729567078,211.28613304962155 A214.0,214.0,0,0,1,25.899294019563374,212.42699115057908 Z" fill="#8c564b" fill-opacity="0.9" />
<path d="M33.723555861942174,197.13630254224225 A200,200,0,0,0,66.05605833767389,188.77658000104202 L70.67998242131107,201.99094060111497 A214.0,214.0,0,0,1,36.08420477227813,210.93584372019922 Z" fill="#8c564b" fill-opacity="0.9" />
<path d="M67.94048989968464,188.10659167660992 A200,200,0,0,0,120.41878164462223,159.6850557416842 L128.8480963597458,170.8630096436021 A214.0,214.0,0,0,1,72.69632419266256,201.27405309397264 Z" fill="#8c564b" fill-opacity="0.9" />
<path d="M122.00958469908825,158.47290380868273 A200,200,0,0,0,180.58657300580984,85.95632408390502 L193.22763311621654,91.97326676977838 A214.0,214.0,0,0,1,130.55025562802444,169.56600707529054 Z" fill="#e377c2" fill-opacity="0.9" />
<path d="M181.43709266726034,84.14619067106945 A200,200,0,0,0,198.6349132732355,23.327477980574947 L212.539357202362,24.960401439215197 A214.0,214.0,0,0,1,194.13768915396858,90.03642401804431 Z" fill="#e377c2" fill-opacity="0.9" />
<path d="M198.85825250224832,21.339995589316707 A200,200,0,0,0,199.99000008333306,1.999966666834405 L213.9893000891664,2.1399643335128133 A214.0,214.0,0,0,1,212.7783301774057,22.83379528056888 Z" fill="#e377c2" fill-opacity="0.9" />
<path d="M193.0,-0.0 A193.0,193.0,0,0,0,190.4028620092717,-31.555508848349028 L195.33557864163626,-32.37300907758087 A198.0,198.0,0,0,1,198.0,-0.0 Z" fill="#1f77b4" fill-opacity="0.6" />
<path d="M184.9496522286706,-55.16000489932721 A193.0,193.0,0,0,0,167.63143876972094,-95.64884074568438 L171.97422215753755,-98.12678998780056 A198.0,198.0,0,0,1,189.74109399625274,-56.58902057029424 Z" fill="#1f77b4" fill-opacity="0.6" />
<path d="M156.47412219555855,-112.98163161828302 A193.0,193.0,0,0,0,41.51290514024251,-188.48256870813603 L42.58836900397936,-193.3655368093831 A198.0,198.0,0,0,1,160.52785593119478,-115.90861689336806 Z" fill="#1f77b4" fill-opacity="0.6" />
<path d="M8.3447384140867,-192.8195149376755 A193.0,193.0,0,0,0,8.286319143864855,-192.8220343089607 L8.500990624275861,-197.81742379883016 A198.0,198.0,0,0,1,8.560923347094128,-197.8148391588588 Z" fill="#ff7f0e" fill-opacity="0.6" />
<path d="M-2.178227950172978,-192.98770769921356 A193.0,193.0,0,0,0,-43.428760470278654,-188.05037294303662 L-44.55385789178846,-192.9221442628044 A198.0,198.0,0,0,1,-2.2346587260841955,-197.9873892458253 Z" fill="#2ca02c" fill-opacity="0.6" />
<path d="M-55.22882237881682,-184.9291139292272 A193.0,193.0,0,0,0,-102.89503583600349,-163.28383753546325 L-105.56071033952689,-167.51398876695194 A198.0,198.0,0,0,1,-56.65962088604006,-189.7200236165129 Z" fill="#2ca02c" fill-opacity="0.6" />
<path d="M-113.824687989955,-155.8619273715983 A193.0,193.0,0,0,0,-135.63056171672036,-137.3075042683644 L-139.14430683891518,-140.86469349811478 A198.0,198.0,0,0,1,-116.7735141036844,-159.8998011377019 Z" fill="#2ca02c" fill-opacity="0.6" />
<path d="M-151.26717434713808,-119.86343047415478 A193.0,193.0,0,0,0,-183.37307602058635,-60.19397802727662 L-188.12367384495386,-61.75340750984856 A198.0,198.0,0,0,1,-155.1860130607945,-122.96870069369247 Z" fill="#d62728" fill-opacity="0.6" />
<path d="M-185.5203986259248,-53.208849768416904 A193.0,193.0,0,0,0,-192.2871087868195,-16.57310454941538 L-197.2686401025402,-17.002459589555677 A198.0,198.0,0,0,1,-190.32662656960161,-54.58731737899765 Z" fill="#d62728" fill-opacity="0.6" />
<path d="M-192.989397169871,2.023012607421679 A193.0,193.0,0,0,0,-191.64575289306927,22.823352033578058 L-196.61066877112805,23.414630583670753 A198.0,198.0,0,0,1,-197.98912248515265,2.0754222604636916 Z" fill="#d62728" fill-opacity="0.6" />
<path d="M-176.24278519304227,78.66054072658768 A193.0,193.0,0,0,0,-138.49776903102563,134.41490978841847 L-142.08579413545633,137.89716133734123 A198.0,198.0,0,0,1,-180.8086604571107,80.69837856924539 Z" fill="#d62728" fill-opacity="0.6" />
<path d="M-132.67579929737002,140.16466131234358 A193.0,193.0,0,0,0,-80.07431679631456,175.60496516216008 L-82.1487809620222,180.15431659123158 A198.0,198.0,0,0,1,-136.11299617035888,143.79587015463227 Z" fill="#d62728" fill-opacity="0.6" />
<path d="M-74.36294486125138,178.09871541244334 A193.0,193.0,0,0,0,-62.69921631120943,182.5316637571689 L-64.32354833999725,187.26046333637018 A198.0,198.0,0,0,1,-76.28944602345997,182.71267177027866 Z" fill="#9467bd" fill-opacity="0.6" />
<path d="M-56.974670097320114,184.39871736891646 A193.0,193.0,0,0,0,-40.26426548167435,188.75324878057395 L-41.30738116772809,193.6432293189308 A198.0,198.0,0,0,1,-58.45069782004862,189.17588621267078 Z" fill="#9467bd" fill-opacity="0.6" />
<path d="M-38.37475125608879,189.14644714092125 A193.0,193.0,0,0,0,12.137019061827637,192.61799700000213 L12.45144960747084,197.608100549225 A198.0,198.0,0,0,1,-39.36891579640197,194.04661416529743 Z" fill="#9467bd" fill-opacity="0.6" />
<path d="M23.357774512970703,191.5813518320643 A193.0,193.0,0,0,0,23.45916315776358,191.56896320630185 L24.066913498638286,196.5318897142371 A198.0,198.0,0,0,1,23.962898205016575,196.54459928885353 Z" fill="#8c564b" fill-opacity="0.6" />
<path d="M32.5432314067742,190.23653195326375 A193.0,193.0,0,0,0,43.73893755038104,187.97847042138594 L44.87207064754117,192.84837898152546 A198.0,198.0,0,0,1,33.38632030332275,195.16493951681983 Z" fill="#8c564b" fill-opacity="0.6" />
<path d="M65.56257275319567,181.52286096792858 A193.0,193.0,0,0,0,109.73309451688301,158.7691656706327 L112.57592079970381,162.88235649111542 A198.0,198.0,0,0,1,67.26108500068779,186.22552575984383 Z" fill="#8c564b" fill-opacity="0.6" />
<path d="M117.73924923462016,152.92635217537884 A193.0,193.0,0,0,0,167.69282859844378,95.54117037514749 L172.0372023963309,98.01633022942592 A198.0,198.0,0,0,1,120.78948885209736,156.8881747705959 Z" fill="#e377c2" fill-opacity="0.6" />
<path d="M175.08679442390624,81.20107399758203 A193.0,193.0,0,0,0,188.05771831019854,43.39694210381671 L192.9296799244524,44.521215215314555 A198.0,198.0,0,0,1,179.62272174058776,83.30472876435876 Z" fill="#e377c2" fill-opacity="0.6" />
<path d="M190.29875478981887,-54.68440294493844 A198.0,198.0,0,0,0,190.29748779485814,-54.6888118262394 C76.11899511794326,-21.875524730495762,68.78968886301503,-39.25071599512023,171.97422215753755,-98.12678998780056 A198.0,198.0,0,0,0,171.7137127249767,-98.58194998174959 C68.68548508999068,-39.432779992699835,76.11950191592756,-21.87376117797538,190.29875478981887,-54.68440294493844 Z" fill="#1f77b4" fill-opacity="0.6" />
<path d="M194.94970143999618,-34.621003862631596 A198.0,198.0,0,0,0,190.29875478981887,-54.68440294493844 C76.11950191592756,-21.87376117797538,16.90174732749977,-77.37551897905018,42.25436831874942,-193.43879744762546 A198.0,198.0,0,0,0,39.395244069209426,-194.04127072539856 C15.758097627683771,-77.61650829015943,77.97988057599848,-13.848401545052639,194.94970143999618,-34.621003862631596 Z" fill="#1f77b4" fill-opacity="0.6" />
<path d="M194.95047059414992,-34.61667250212653 A198.0,198.0,0,0,0,194.94970143999618,-34.621003862631596 C77.97988057599848,-13.848401545052639,4.651974207242022,-79.06326034243183,11.629935518105054,-197.65815085607957 A198.0,198.0,0,0,0,11.577975444335056,-197.66120126269183 C4.631190177734022,-79.06448050507674,77.98018823765997,-13.84666900085061,194.95047059414992,-34.61667250212653 Z" fill="#1f77b4" fill-opacity="0.6" />
<path d="M194.95110537905035,-34.61309739804298 A198.0,198.0,0,0,0,194.95047059414992,-34.61667250212653 C77.98018823765997,-13.84666900085061,-61.360063312629876,-50.07576889344839,-153.40015828157468,-125.18942223362097 A198.0,198.0,0,0,0,-153.61607941077116,-124.92437771093216 C-61.44643176430847,-49.96975108437287,77.98044215162014,-13.845238959217193,194.95110537905035,-34.61309739804298 Z" fill="#1f77b4" fill-opacity="0.6" />
<path d="M194.9755598258083,-34.47507897906334 A198.0,198.0,0,0,0,194.95110537905035,-34.61309739804298 C77.98044215162014,-13.845238959217193,-75.68112000593,-23.345407999176697,-189.202800014825,-58.36351999794174 A198.0,198.0,0,0,0,-189.20339429795112,-58.36159341668146 C-75.68135771918045,-23.344637366672586,77.99022393032332,-13.790031591625336,194.9755598258083,-34.47507897906334 Z" fill="#d62728" fill-opacity="0.6" />
<path d="M195.09636613473472,-33.784729109784806 A198.0,198.0,0,0,0,194.9755598258083,-34.47507897906334 C77.99022393032332,-13.790031591625336,-55.11273463623077,56.87905133629086,-137.78183659057692,142.19762834072714 A198.0,198.0,0,0,0,-137.77444328370927,142.20479168390906 C-55.10977731348371,56.88191667356363,78.0385464538939,-13.513891643913922,195.09636613473472,-33.784729109784806 Z" fill="#d62728" fill-opacity="0.6" />
<path d="M195.21472813010726,-33.09395596008894 A198.0,198.0,0,0,0,195.09636613473472,-33.784729109784806 C78.0385464538939,-13.513891643913922,-24.36577276028669,75.35880252362077,-60.914431900716714,188.3970063090519 A198.0,198.0,0,0,0,-60.347540691167765,188.57935818251119 C-24.139016276467107,75.43174327300447,78.08589125204291,-13.237582384035576,195.21472813010726,-33.09395596008894 Z" fill="#1f77b4" fill-opacity="0.6" />
<path d="M195.21562305593633,-33.088676535675695 A198.0,198.0,0,0,0,195.21472813010726,-33.09395596008894 C78.08589125204291,-13.237582384035576,71.19528686435505,34.696846085807174,177.98821716088761,86.74211521451794 A198.0,198.0,0,0,0,178.37404682865298,85.94590983851131 C71.34961873146119,34.37836393540453,78.08624922237453,-13.235470614270278,195.21562305593633,-33.088676535675695 Z" fill="#1f77b4" fill-opacity="0.6" />
<path d="M195.21976774692763,-33.06421450504516 A198.0,198.0,0,0,0,195.21562305593633,-33.088676535675695 C78.08624922237453,-13.235470614270278,78.51726883855763,10.376824858002967,196.29317209639404,25.942062145007416 A198.0,198.0,0,0,0,196.63533316605287,23.206588518681198 C78.65413326642116,9.28263540747248,78.08790709877105,-13.225685802018063,195.21976774692763,-33.06421450504516 Z" fill="#1f77b4" fill-opacity="0.6" />
<path d="M195.33557864163626,-32.37300907758087 A198.0,198.0,0,0,0,195.21976774692763,-33.06421450504516 C78.08790709877105,-13.225685802018063,79.1960302261388,0.7929668470436018,197.99007556534698,1.9824171176090042 A198.0,198.0,0,0,0,197.9901000824997,1.979967000166061 C79.19604003299989,0.7919868000664244,78.1342314566545,-12.949203631032347,195.33557864163626,-32.37300907758087 Z" fill="#e377c2" fill-opacity="0.6" />
<path d="M169.52297687959546,-102.3032761444136 A198.0,198.0,0,0,0,161.67889645621207,-114.29756970601542 C64.67155858248483,-45.71902788240617,17.035347601591745,-77.34621472375323,42.58836900397936,-193.3655368093831 A198.0,198.0,0,0,0,42.25436831874942,-193.43879744762546 C16.90174732749977,-77.37551897905018,67.80919075183819,-40.92131045776544,169.52297687959546,-102.3032761444136 Z" fill="#1f77b4" fill-opacity="0.6" />
<path d="M169.58642486361734,-102.19806505984674 A198.0,198.0,0,0,0,169.52297687959546,-102.3032761444136 C67.80919075183819,-40.92131045776544,0.6659615798087634,-79.19720004630352,1.6649039495219082,-197.9930001157588 A198.0,198.0,0,0,0,-0.014752452194056149,-197.99999945041705 C-0.00590098087762246,-79.19999978016682,67.83456994544694,-40.8792260239387,169.58642486361734,-102.19806505984674 Z" fill="#1f77b4" fill-opacity="0.6" />
<path d="M169.76662038413764,-101.8984524089944 A198.0,198.0,0,0,0,169.58642486361734,-102.19806505984674 C67.83456994544694,-40.8792260239387,-45.825172967298315,-64.59638939226551,-114.56293241824578,-161.49097348066377 A198.0,198.0,0,0,0,-114.56585074221675,-161.4889031596664 C-45.826340296886706,-64.59556126386656,67.90664815365506,-40.75938096359776,169.76662038413764,-101.8984524089944 Z" fill="#2ca02c" fill-opacity="0.6" />
<path d="M169.94628657192783,-101.59852203852269 A198.0,198.0,0,0,0,169.76662038413764,-101.8984524089944 C67.90664815365506,-40.75938096359776,-61.35933510064298,-50.07666119068846,-153.39833775160744,-125.19165297672114 A198.0,198.0,0,0,0,-153.40015828157468,-125.18942223362097 C-61.360063312629876,-50.07576889344839,67.97851462877114,-40.63940881540908,169.94628657192783,-101.59852203852269 Z" fill="#2ca02c" fill-opacity="0.6" />
<path d="M170.48210354518437,-100.6968339661632 A198.0,198.0,0,0,0,169.94628657192783,-101.59852203852269 C67.97851462877114,-40.63940881540908,-75.67956387087897,-23.350452079425608,-189.1989096771974,-58.37613019856402 A198.0,198.0,0,0,0,-189.202800014825,-58.36351999794174 C-75.68112000593,-23.345407999176697,68.19284141807375,-40.27873358646528,170.48210354518437,-100.6968339661632 Z" fill="#d62728" fill-opacity="0.6" />
<path d="M170.57094166097525,-100.5462772104874 A198.0,198.0,0,0,0,170.48210354518437,-100.6968339661632 C68.19284141807375,-40.27873358646528,-79.01403705827933,-5.424200194762427,-197.5350926456983,-13.560500486906069 A198.0,198.0,0,0,0,-197.53520004466003,-13.558935921234797 C-79.01408001786402,-5.423574368493919,68.2283766643901,-40.21851088419496,170.57094166097525,-100.5462772104874 Z" fill="#d62728" fill-opacity="0.6" />
<path d="M171.01313645591026,-99.79232014294594 A198.0,198.0,0,0,0,170.57094166097525,-100.5462772104874 C68.2283766643901,-40.21851088419496,-75.14080115289369,25.02998206354315,-187.85200288223422,62.574955158857875 A198.0,198.0,0,0,0,-187.8485727918746,62.585251457957675 C-75.13942911674984,25.034100583183072,68.40525458236411,-39.91692805717838,171.01313645591026,-99.79232014294594 Z" fill="#d62728" fill-opacity="0.6" />
<path d="M171.36449321941342,-99.18775359717355 A198.0,198.0,0,0,0,171.01313645591026,-99.79232014294594 C68.40525458236411,-39.91692805717838,-24.36757865421245,75.35821859977032,-60.91894663553112,188.39554649942582 A198.0,198.0,0,0,0,-60.914431900716714,188.3970063090519 C-24.36577276028669,75.35880252362077,68.54579728776537,-39.675101438869426,171.36449321941342,-99.18775359717355 Z" fill="#9467bd" fill-opacity="0.6" />
<path d="M171.7137127249767,-98.58194998174959 A198.0,198.0,0,0,0,171.36449321941342,-99.18775359717355 C68.54579728776537,-39.675101438869426,79.19602165751276,0.7938221606698738,197.9900541437819,1.9845554016746842 A198.0,198.0,0,0,0,197.99007556534698,1.9824171176090042 C79.1960302261388,0.7929668470436018,68.68548508999068,-39.432779992699835,171.7137127249767,-98.58194998174959 Z" fill="#e377c2" fill-opacity="0.6" />
<path d="M29.068066410702347,-195.85465916118258 A198.0,198.0,0,0,0,27.63552839971617,-196.06192279498964 C11.054211359886468,-78.42476911799587,10.269424033473953,-78.53138818345636,25.67356008368488,-196.32847045864088 A198.0,198.0,0,0,0,19.30149658948982,-197.05697711424966 C7.720598635795928,-78.82279084569987,11.627226564280939,-78.34186366447304,29.068066410702347,-195.85465916118258 Z" fill="#1f77b4" fill-opacity="0.6" />
<path d="M30.277918847088234,-195.67127441269741 A198.0,198.0,0,0,0,29.068066410702347,-195.85465916118258 C11.627226564280939,-78.34186366447304,6.77000264160262,-78.91012016359305,16.925006604006548,-197.27530040898262 A198.0,198.0,0,0,0,11.629935518105054,-197.65815085607957 C4.651974207242022,-79.06326034243183,12.111167538835295,-78.26850976507897,30.277918847088234,-195.67127441269741 Z" fill="#1f77b4" fill-opacity="0.6" />
<path d="M31.456566912827007,-195.48525365883444 A198.0,198.0,0,0,0,30.277918847088234,-195.67127441269741 C12.111167538835295,-78.26850976507897,3.4003962497103446,-79.12696951953207,8.500990624275861,-197.81742379883016 A198.0,198.0,0,0,0,1.6649039495219082,-197.9930001157588 C0.6659615798087634,-79.19720004630352,12.582626765130804,-78.19410146353378,31.456566912827007,-195.48525365883444 Z" fill="#1f77b4" fill-opacity="0.6" />
<path d="M31.55320175282548,-195.46967912989854 A198.0,198.0,0,0,0,31.456566912827007,-195.48525365883444 C12.582626765130804,-78.19410146353378,-17.821543156715386,-77.16885770512177,-44.55385789178846,-192.9221442628044 A198.0,198.0,0,0,0,-48.39738463042215,-191.99399251261738 C-19.358953852168863,-76.79759700504695,12.621280701130193,-78.18787165195943,31.55320175282548,-195.46967912989854 Z" fill="#1f77b4" fill-opacity="0.6" />
<path d="M31.60414510609958,-195.46144891541297 A198.0,198.0,0,0,0,31.55320175282548,-195.46967912989854 C12.621280701130193,-78.18787165195943,-45.10003352578667,-65.10473850629398,-112.75008381446666,-162.76184626573496 A198.0,198.0,0,0,0,-114.56293241824578,-161.49097348066377 C-45.825172967298315,-64.59638939226551,12.641658042439833,-78.1845795661652,31.60414510609958,-195.46144891541297 Z" fill="#1f77b4" fill-opacity="0.6" />
<path d="M32.117231890772324,-195.3777966291829 A198.0,198.0,0,0,0,31.60414510609958,-195.46144891541297 C12.641658042439833,-78.1845795661652,-56.574409540474996,-55.42541100566249,-141.43602385118749,-138.56352751415622 A198.0,198.0,0,0,0,-153.39833775160744,-125.19165297672114 C-61.35933510064298,-50.07666119068846,12.84689275630893,-78.15111865167317,32.117231890772324,-195.3777966291829 Z" fill="#1f77b4" fill-opacity="0.6" />
<path d="M32.18342058482378,-195.36690466775673 A198.0,198.0,0,0,0,32.117231890772324,-195.3777966291829 C12.84689275630893,-78.15111865167317,-75.25025889900472,-24.698958189218487,-188.12564724751178,-61.74739547304622 A198.0,198.0,0,0,0,-189.1989096771974,-58.37613019856402 C-75.67956387087897,-23.350452079425608,12.873368233929511,-78.1467618671027,32.18342058482378,-195.36690466775673 Z" fill="#1f77b4" fill-opacity="0.6" />
<path d="M32.213593617054684,-195.36193177350407 A198.0,198.0,0,0,0,32.18342058482378,-195.36690466775673 C12.873368233929511,-78.1467618671027,-78.98119889260639,-5.883045256204706,-197.45299723151595,-14.707613140511766 A198.0,198.0,0,0,0,-197.5350926456983,-13.560500486906069 C-79.01403705827933,-5.424200194762427,12.885437446821875,-78.14477270940164,32.213593617054684,-195.36193177350407 Z" fill="#1f77b4" fill-opacity="0.6" />
<path d="M32.255284645782254,-195.35505269232112 A198.0,198.0,0,0,0,32.213593617054684,-195.36193177350407 C12.885437446821875,-78.14477270940164,-75.41419382908659,24.19378782061541,-188.53548457271646,60.48446955153852 A198.0,198.0,0,0,0,-187.85200288223422,62.574955158857875 C-75.14080115289369,25.02998206354315,12.902113858312902,-78.14202107692846,32.255284645782254,-195.35505269232112 Z" fill="#1f77b4" fill-opacity="0.6" />
<path d="M32.61559276462312,-195.29522039367032 A198.0,198.0,0,0,0,32.255284645782254,-195.35505269232112 C12.902113858312902,-78.14202107692846,-56.506806702099254,55.49433120897657,-141.26701675524814,138.7358280224414 A198.0,198.0,0,0,0,-137.78183659057692,142.19762834072714 C-55.11273463623077,56.87905133629086,13.04623710584925,-78.11808815746814,32.61559276462312,-195.29522039367032 Z" fill="#1f77b4" fill-opacity="0.6" />
<path d="M32.68094268462545,-195.2842952857301 A198.0,198.0,0,0,0,32.61559276462312,-195.29522039367032 C13.04623710584925,-78.11808815746814,-32.4063259819791,72.26665923058646,-81.01581495494776,180.66664807646615 A198.0,198.0,0,0,0,-78.1865343503329,181.9089493298343 C-31.274613740133162,72.76357973193372,13.07237707385018,-78.11371811429206,32.68094268462545,-195.2842952857301 Z" fill="#1f77b4" fill-opacity="0.6" />
<path d="M38.78782668082806,-194.163602411415 A198.0,198.0,0,0,0,32.68094268462545,-195.2842952857301 C13.07237707385018,-78.11371811429206,-24.820424829513072,75.210281951888,-62.051062073782674,188.02570487972002 A198.0,198.0,0,0,0,-60.91894663553112,188.39554649942582 C-24.36757865421245,75.35821859977032,15.515130672331225,-77.66544096456602,38.78782668082806,-194.163602411415 Z" fill="#9467bd" fill-opacity="0.6" />
<path d="M39.014848871340284,-194.11811241495852 A198.0,198.0,0,0,0,38.78782668082806,-194.163602411415 C15.515130672331225,-77.66544096456602,4.992067988785135,79.04251550397007,12.480169971962837,197.60628875992515 A198.0,198.0,0,0,0,21.996286834471768,196.7743971290362 C8.798514733788707,78.70975885161448,15.605939548536114,-77.64724496598342,39.014848871340284,-194.11811241495852 Z" fill="#1f77b4" fill-opacity="0.6" />
<path d="M39.098856636803305,-194.10120919173764 A198.0,198.0,0,0,0,39.014848871340284,-194.11811241495852 C15.605939548536114,-77.64724496598342,12.366249848359628,78.22861282604944,30.915624620899067,195.5715320651236 A198.0,198.0,0,0,0,31.43303413337763,195.48903898983676 C12.573213653351054,78.19561559593471,15.639542654721323,-77.64048367669506,39.098856636803305,-194.10120919173764 Z" fill="#1f77b4" fill-opacity="0.6" />
<path d="M39.15578114147873,-194.08973389440413 A198.0,198.0,0,0,0,39.098856636803305,-194.10120919173764 C15.639542654721323,-77.64048367669506,24.52204952510311,75.3080944327261,61.30512381275777,188.27023608181523 A198.0,198.0,0,0,0,62.671916728631224,187.81967642810886 C25.068766691452492,75.12787057124355,15.662312456591492,-77.63589355776166,39.15578114147873,-194.08973389440413 Z" fill="#1f77b4" fill-opacity="0.6" />
<path d="M39.20493693815751,-194.07981069569058 A198.0,198.0,0,0,0,39.15578114147873,-194.08973389440413 C15.662312456591492,-77.63589355776166,46.94969900815224,63.783742153027596,117.37424752038059,159.459355382569 A198.0,198.0,0,0,0,119.04794774024984,158.21373561999837 C47.61917909609994,63.28549424799935,15.681974775263004,-77.63192427827624,39.20493693815751,-194.07981069569058 Z" fill="#1f77b4" fill-opacity="0.6" />
<path d="M39.32230233404878,-194.0560654531305 A198.0,198.0,0,0,0,39.20493693815751,-194.07981069569058 C15.681974775263004,-77.63192427827624,69.87642850250194,37.28169443218395,174.69107125625484,93.20423608045986 A198.0,198.0,0,0,0,177.98821716088761,86.74211521451794 C71.19528686435505,34.696846085807174,15.728920933619513,-77.6224261812522,39.32230233404878,-194.0560654531305 Z" fill="#1f77b4" fill-opacity="0.6" />
<path d="M39.395244069209426,-194.04127072539856 A198.0,198.0,0,0,0,39.32230233404878,-194.0560654531305 C15.728920933619513,-77.6224261812522,78.34913886562437,11.578101701708716,195.87284716406091,28.945254254271788 A198.0,198.0,0,0,0,196.29317209639404,25.942062145007416 C78.51726883855763,10.376824858002967,15.758097627683771,-77.61650829015943,39.395244069209426,-194.04127072539856 Z" fill="#1f77b4" fill-opacity="0.6" />
<path d="M18.941841795336877,-197.09187357524516 A198.0,198.0,0,0,0,18.896880485765898,-197.0961894809402 C7.55875219430636,-78.83847579237609,-45.098595541531935,-65.10573461824478,-112.74648885382983,-162.76433654561194 A198.0,198.0,0,0,0,-112.75008381446666,-162.76184626573496 C-45.10003352578667,-65.10473850629398,7.576736718134751,-78.83674943009807,18.941841795336877,-197.09187357524516 Z" fill="#2ca02c" fill-opacity="0.6" />
<path d="M18.98680211918879,-197.08754741303866 A198.0,198.0,0,0,0,18.941841795336877,-197.09187357524516 C7.576736718134751,-78.83674943009807,-24.821526257933236,75.2099184564558,-62.05381564483309,188.0247961411395 A198.0,198.0,0,0,0,-62.051062073782674,188.02570487972002 C-24.820424829513072,75.210281951888,7.594720847675517,-78.83501896521547,18.98680211918879,-197.08754741303866 Z" fill="#9467bd" fill-opacity="0.6" />
<path d="M19.076719800376658,-197.07886431999225 A198.0,198.0,0,0,0,18.98680211918879,-197.08754741303866 C7.594720847675517,-78.83501896521547,4.988709977839292,79.04272751339624,12.471774944598229,197.6068187834906 A198.0,198.0,0,0,0,12.480169971962837,197.60628875992515 C4.992067988785135,79.04251550397007,7.630687920150663,-78.83154572799691,19.076719800376658,-197.07886431999225 Z" fill="#9467bd" fill-opacity="0.6" />
<path d="M19.12167715303332,-197.0745073896042 A198.0,198.0,0,0,0,19.076719800376658,-197.07886431999225 C7.630687920150663,-78.83154572799691,46.94833283546444,63.784747737766054,117.3708320886611,159.46186934441513 A198.0,198.0,0,0,0,117.37424752038059,159.459355382569 C46.94969900815224,63.783742153027596,7.648670861213329,-78.82980295584169,19.12167715303332,-197.0745073896042 Z" fill="#8c564b" fill-opacity="0.6" />
<path d="M19.166633510612463,-197.0701402036084 A198.0,198.0,0,0,0,19.12167715303332,-197.0745073896042 C7.648670861213329,-78.82980295584169,78.34889598679774,11.579745146157215,195.87223996699433,28.949362865393034 A198.0,198.0,0,0,0,195.87284716406091,28.945254254271788 C78.34913886562437,11.578101701708716,7.666653404244986,-78.82805608144336,19.166633510612463,-197.0701402036084 Z" fill="#e377c2" fill-opacity="0.6" />
<path d="M19.30149658948982,-197.05697711424966 A198.0,198.0,0,0,0,19.166633510612463,-197.0701402036084 C7.666653404244986,-78.82805608144336,79.19600592437358,0.7953902354107871,197.99001481093393,1.9884755885269676 A198.0,198.0,0,0,0,197.9900541437819,1.9845554016746842 C79.19602165751276,0.7938221606698738,7.720598635795928,-78.82279084569987,19.30149658948982,-197.05697711424966 Z" fill="#e377c2" fill-opacity="0.6" />
<path d="M10.590586120276127,-197.71656350854627 A198.0,198.0,0,0,0,10.53861072710739,-197.71934069266592 C4.215444290842956,-79.08773627706637,-75.24946953798154,-24.701363003939424,-188.12367384495386,-61.75340750984856 A198.0,198.0,0,0,0,-188.12564724751178,-61.74739547304622 C-75.25025889900472,-24.698958189218487,4.236234448110451,-79.08662540341851,10.590586120276127,-197.71656350854627 Z" fill="#d62728" fill-opacity="0.6" />
<path d="M10.798480338513423,-197.705318143895 A198.0,198.0,0,0,0,10.590586120276127,-197.71656350854627 C4.236234448110451,-79.08662540341851,-75.41724527722418,24.184274121730546,-188.54311319306046,60.46068530432636 A198.0,198.0,0,0,0,-188.53548457271646,60.48446955153852 C-75.41419382908659,24.19378782061541,4.319392135405369,-79.082127257558,10.798480338513423,-197.705318143895 Z" fill="#d62728" fill-opacity="0.6" />
<path d="M11.006362617256201,-197.69385418352658 A198.0,198.0,0,0,0,10.798480338513423,-197.705318143895 C4.319392135405369,-79.082127257558,-56.51405042776616,55.48695436089373,-141.28512606941538,138.71738590223433 A198.0,198.0,0,0,0,-141.26701675524814,138.7358280224414 C-56.506806702099254,55.49433120897657,4.402545046902481,-79.07754167341064,11.006362617256201,-197.69385418352658 Z" fill="#d62728" fill-opacity="0.6" />
<path d="M11.422090436879703,-197.67027052658108 A198.0,198.0,0,0,0,11.006362617256201,-197.69385418352658 C4.402545046902481,-79.07754167341064,-32.422661740416046,72.25933161652246,-81.05665435104011,180.64832904130614 A198.0,198.0,0,0,0,-81.01581495494776,180.66664807646615 C-32.4063259819791,72.26665923058646,4.5688361747518815,-79.06810821063243,11.422090436879703,-197.67027052658108 Z" fill="#d62728" fill-opacity="0.6" />
<path d="M11.47405290013169,-197.66726109815195 A198.0,198.0,0,0,0,11.422090436879703,-197.67027052658108 C4.5688361747518815,-79.06810821063243,4.986733913343334,79.04285220611357,12.466834783358335,197.6071305152839 A198.0,198.0,0,0,0,12.471774944598229,197.6068187834906 C4.988709977839292,79.04272751339624,4.589621160052676,-79.06690443926078,11.47405290013169,-197.66726109815195 Z" fill="#9467bd" fill-opacity="0.6" />
<path d="M11.577975444335056,-197.66120126269183 A198.0,198.0,0,0,0,11.47405290013169,-197.66726109815195 C4.589621160052676,-79.06690443926078,79.19599355817343,0.796620570758509,197.98998389543354,1.9915514268962724 A198.0,198.0,0,0,0,197.99001481093393,1.9884755885269676 C79.19600592437358,0.7953902354107871,4.631190177734022,-79.06448050507674,11.577975444335056,-197.66120126269183 Z" fill="#e377c2" fill-opacity="0.6" />
<path d="M-0.19471770886781903,-197.99990425506232 A198.0,198.0,0,0,0,-0.25470609935395977,-197.99983617367707 C-0.10188243974158391,-79.19993446947083,-45.0971189307783,-65.10675743840449,-112.74279732694575,-162.76689359601122 A198.0,198.0,0,0,0,-112.74648885382983,-162.76433654561194 C-45.098595541531935,-65.10573461824478,-0.07788708354712762,-79.19996170202494,-0.19471770886781903,-197.99990425506232 Z" fill="#2ca02c" fill-opacity="0.6" />
<path d="M-0.07474087978139164,-197.9999858934361 A198.0,198.0,0,0,0,-0.19471770886781903,-197.99990425506232 C-0.07788708354712762,-79.19996170202494,4.983285739645175,79.0430696724074,12.458214349112936,197.6076741810185 A198.0,198.0,0,0,0,12.466834783358335,197.6071305152839 C4.986733913343334,79.04285220611357,-0.029896351912556657,-79.19999435737445,-0.07474087978139164,-197.9999858934361 Z" fill="#9467bd" fill-opacity="0.6" />
<path d="M-0.014752452194056149,-197.99999945041705 A198.0,198.0,0,0,0,-0.07474087978139164,-197.9999858934361 C-0.029896351912556657,-79.19999435737445,79.19598815753453,0.7971572941721283,197.9899703938363,1.9928932354303206 A198.0,198.0,0,0,0,197.98998389543354,1.9915514268962724 C79.19599355817343,0.796620570758509,-0.00590098087762246,-79.19999978016682,-0.014752452194056149,-197.99999945041705 Z" fill="#e377c2" fill-opacity="0.6" />
<path d="M-51.71288417239754,-191.12764742593416 A198.0,198.0,0,0,0,-54.759619312284556,-190.27712446001928 C-21.903847724913824,-76.11084978400771,-42.22428413581076,-67.00559550678078,-105.56071033952689,-167.51398876695194 A198.0,198.0,0,0,0,-112.74279732694575,-162.76689359601122 C-45.0971189307783,-65.10675743840449,-20.685153668959018,-76.45105897037367,-51.71288417239754,-191.12764742593416 Z" fill="#2ca02c" fill-opacity="0.6" />
<path d="M-50.94910765350454,-191.33266430307086 A198.0,198.0,0,0,0,-51.71288417239754,-191.12764742593416 C-20.685153668959018,-76.45105897037367,-56.3826795070106,-55.62044095123417,-140.9566987675265,-139.05110237808543 A198.0,198.0,0,0,0,-141.43602385118749,-138.56352751415622 C-56.574409540474996,-55.42541100566249,-20.37964306140182,-76.53306572122834,-50.94910765350454,-191.33266430307086 Z" fill="#2ca02c" fill-opacity="0.6" />
<path d="M-49.16382284766309,-191.79916194551947 A198.0,198.0,0,0,0,-50.94910765350454,-191.33266430307086 C-20.37964306140182,-76.53306572122834,-24.826461882251653,75.20828937297475,-62.06615470562913,188.02072343243685 A198.0,198.0,0,0,0,-62.05381564483309,188.0247961411395 C-24.821526257933236,75.2099184564558,-19.66552913906524,-76.71966477820779,-49.16382284766309,-191.79916194551947 Z" fill="#9467bd" fill-opacity="0.6" />
<path d="M-48.90842997914488,-191.8644455780567 A198.0,198.0,0,0,0,-49.16382284766309,-191.79916194551947 C-19.66552913906524,-76.71966477820779,4.9822108885826175,79.0431374292651,12.455527221456542,197.60784357316274 A198.0,198.0,0,0,0,12.458214349112936,197.6076741810185 C4.983285739645175,79.0430696724074,-19.563371991657952,-76.74577823122267,-48.90842997914488,-191.8644455780567 Z" fill="#9467bd" fill-opacity="0.6" />
<path d="M-48.39738463042215,-191.99399251261738 A198.0,198.0,0,0,0,-48.90842997914488,-191.8644455780567 C-19.563371991657952,-76.74577823122267,79.1959814185883,0.7978265141093387,197.98995354647076,1.9945662852733466 A198.0,198.0,0,0,0,197.9899703938363,1.9928932354303206 C79.19598815753453,0.7971572941721283,-19.358953852168863,-76.79759700504695,-48.39738463042215,-191.99399251261738 Z" fill="#e377c2" fill-opacity="0.6" />
<path d="M-114.96851525759897,-161.20248291965987 A198.0,198.0,0,0,0,-115.1687041150913,-161.0595218931515 C-46.067481646036526,-64.4238087572606,-55.657722735566075,-56.345877399245914,-139.14430683891518,-140.86469349811478 A198.0,198.0,0,0,0,-140.9566987675265,-139.05110237808543 C-56.3826795070106,-55.62044095123417,-45.98740610303959,-64.48099316786396,-114.96851525759897,-161.20248291965987 Z" fill="#2ca02c" fill-opacity="0.6" />
<path d="M-114.76814894016292,-161.34519512166634 A198.0,198.0,0,0,0,-114.96851525759897,-161.20248291965987 C-45.98740610303959,-64.48099316786396,-78.98113481798426,-5.883905409113508,-197.45283704496063,-14.709763522783769 A198.0,198.0,0,0,0,-197.45299723151595,-14.707613140511766 C-78.98119889260639,-5.883045256204706,-45.90725957606517,-64.53807804866653,-114.76814894016292,-161.34519512166634 Z" fill="#d62728" fill-opacity="0.6" />
<path d="M-114.56760547205913,-161.4876582788871 A198.0,198.0,0,0,0,-114.76814894016292,-161.34519512166634 C-45.90725957606517,-64.53807804866653,-75.41760980013423,24.183137348878006,-188.54402450033558,60.45784337219501 A198.0,198.0,0,0,0,-188.54311319306046,60.46068530432636 C-75.41724527722418,24.184274121730546,-45.827042188823654,-64.59506331155484,-114.56760547205913,-161.4876582788871 Z" fill="#d62728" fill-opacity="0.6" />
<path d="M-114.56585074221675,-161.4889031596664 A198.0,198.0,0,0,0,-114.56760547205913,-161.4876582788871 C-45.827042188823654,-64.59506331155484,46.88109582954139,63.83418248729561,117.20273957385346,159.58545621823902 A198.0,198.0,0,0,0,117.3708320886611,159.46186934441513 C46.94833283546444,63.784747737766054,-45.826340296886706,-64.59556126386656,-114.56585074221675,-161.4889031596664 Z" fill="#2ca02c" fill-opacity="0.6" />
<path d="M-153.9391022608694,-124.52611290455346 A198.0,198.0,0,0,0,-153.94858731254615,-124.51438657629629 C-61.57943492501846,-49.80575463051852,-78.92959412951535,-6.53904966718985,-197.32398532378838,-16.347624167974626 A198.0,198.0,0,0,0,-197.45283704496063,-14.709763522783769 C-78.98113481798426,-5.883905409113508,-61.57564090434776,-49.810445161821384,-153.9391022608694,-124.52611290455346 Z" fill="#2ca02c" fill-opacity="0.6" />
<path d="M-153.83154259707706,-124.65896077781039 A198.0,198.0,0,0,0,-153.9391022608694,-124.52611290455346 C-61.57564090434776,-49.810445161821384,-75.41792454898818,24.182155750121357,-188.54481137247043,60.45538937530339 A198.0,198.0,0,0,0,-188.54402450033558,60.45784337219501 C-75.41760980013423,24.183137348878006,-61.53261703883083,-49.86358431112416,-153.83154259707706,-124.65896077781039 Z" fill="#d62728" fill-opacity="0.6" />
<path d="M-153.61607941077116,-124.92437771093216 A198.0,198.0,0,0,0,-153.83154259707706,-124.65896077781039 C-61.53261703883083,-49.86358431112416,4.980579842988337,79.04324021969,12.45144960747084,197.608100549225 A198.0,198.0,0,0,0,12.455527221456542,197.60784357316274 C4.9822108885826175,79.0431374292651,-61.44643176430847,-49.96975108437287,-153.61607941077116,-124.92437771093216 Z" fill="#9467bd" fill-opacity="0.6" />
<path d="M-189.76861658029938,-56.496656194852086 A198.0,198.0,0,0,0,-189.7712462416264,-56.487822580623494 C-75.90849849665055,-22.5951290322494,-78.90745604101608,-6.800983835822271,-197.2686401025402,-17.002459589555677 A198.0,198.0,0,0,0,-197.32398532378838,-16.347624167974626 C-78.92959412951535,-6.53904966718985,-75.90744663211976,-22.598662477940834,-189.76861658029938,-56.496656194852086 Z" fill="#d62728" fill-opacity="0.6" />
<path d="M-189.6589975804498,-56.863561590696484 A198.0,198.0,0,0,0,-189.76861658029938,-56.496656194852086 C-75.90744663211976,-22.598662477940834,-78.63584629317317,9.436295764570145,-196.5896157329329,23.59073941142536 A198.0,198.0,0,0,0,-188.54481137247043,60.45538937530339 C-75.41792454898818,24.182155750121357,-75.86359903217992,-22.745424636278596,-189.6589975804498,-56.863561590696484 Z" fill="#d62728" fill-opacity="0.6" />
<path d="M-189.53151386606316,-57.287042615571565 A198.0,198.0,0,0,0,-189.6589975804498,-56.863561590696484 C-75.86359903217992,-22.745424636278596,-56.74300661925245,55.25279359279016,-141.85751654813112,138.1319839819754 A198.0,198.0,0,0,0,-141.28512606941538,138.71738590223433 C-56.51405042776616,55.48695436089373,-75.81260554642527,-22.914817046228627,-189.53151386606316,-57.287042615571565 Z" fill="#d62728" fill-opacity="0.6" />
<path d="M-189.33851555002502,-57.92172760987826 A198.0,198.0,0,0,0,-189.53151386606316,-57.287042615571565 C-75.81260554642527,-22.914817046228627,-32.596060026595005,72.18127784088209,-81.4901500664875,180.45319460220523 A198.0,198.0,0,0,0,-81.05665435104011,180.64832904130614 C-32.422661740416046,72.25933161652246,-75.73540622001,-23.168691043951306,-189.33851555002502,-57.92172760987826 Z" fill="#d62728" fill-opacity="0.6" />
<path d="M-189.33587100008342,-57.93037159072748 A198.0,198.0,0,0,0,-189.33851555002502,-57.92172760987826 C-75.73540622001,-23.168691043951306,12.32484664992997,78.2351465458825,30.812116624824924,195.58786636470623 A198.0,198.0,0,0,0,30.915624620899067,195.5715320651236 C12.366249848359628,78.22861282604944,-75.73434840003337,-23.172148636290995,-189.33587100008342,-57.93037159072748 Z" fill="#d62728" fill-opacity="0.6" />
<path d="M-189.33432320260354,-57.93543007013985 A198.0,198.0,0,0,0,-189.33587100008342,-57.93037159072748 C-75.73434840003337,-23.172148636290995,46.74646573398512,63.93283930329824,116.86616433496279,159.8320982582456 A198.0,198.0,0,0,0,117.20273957385346,159.58545621823902 C46.88109582954139,63.83418248729561,-75.73372928104142,-23.174172028055942,-189.33432320260354,-57.93543007013985 Z" fill="#d62728" fill-opacity="0.6" />
<path d="M-189.2044461696633,-58.358183227641604 A198.0,198.0,0,0,0,-189.33432320260354,-57.93543007013985 C-75.73372928104142,-23.174172028055942,69.74270742312316,37.531250462683,174.3567685578079,93.8281261567075 A198.0,198.0,0,0,0,174.69107125625484,93.20423608045986 C69.87642850250194,37.28169443218395,-75.68177846786533,-23.343273291056644,-189.2044461696633,-58.358183227641604 Z" fill="#d62728" fill-opacity="0.6" />
<path d="M-189.20339429795112,-58.36159341668146 A198.0,198.0,0,0,0,-189.2044461696633,-58.358183227641604 C-75.68177846786533,-23.343273291056644,78.33269723024418,11.68882135353672,195.83174307561043,29.2220533838418 A198.0,198.0,0,0,0,195.87223996699433,28.949362865393034 C78.34889598679774,11.579745146157215,-75.68135771918045,-23.344637366672586,-189.20339429795112,-58.36159341668146 Z" fill="#d62728" fill-opacity="0.6" />
<path d="M-197.59159962143656,-12.710615997736367 A198.0,198.0,0,0,0,-197.99997698822622,0.09546026338603124 C-79.19999079529049,0.038184105354412495,-78.64426750845122,9.365852233468301,-196.61066877112805,23.414630583670753 A198.0,198.0,0,0,0,-196.5896157329329,23.59073941142536 C-78.63584629317317,9.436295764570145,-79.03663984857462,-5.084246399094547,-197.59159962143656,-12.710615997736367 Z" fill="#d62728" fill-opacity="0.6" />
<path d="M-197.53716540470006,-13.530272867764674 A198.0,198.0,0,0,0,-197.59159962143656,-12.710615997736367 C-79.03663984857462,-5.084246399094547,-32.59977365132667,72.17960070464693,-81.49943412831668,180.44900176161732 A198.0,198.0,0,0,0,-81.4901500664875,180.45319460220523 C-32.596060026595005,72.18127784088209,-79.01486616188004,-5.41210914710587,-197.53716540470006,-13.530272867764674 Z" fill="#d62728" fill-opacity="0.6" />
<path d="M-197.53545830395825,-13.555172910928329 A198.0,198.0,0,0,0,-197.53716540470006,-13.530272867764674 C-79.01486616188004,-5.41210914710587,23.895645282971696,75.50919239741869,59.739113207429234,188.77298099354672 A198.0,198.0,0,0,0,61.30512381275777,188.27023608181523 C24.52204952510311,75.3080944327261,-79.0141833215833,-5.422069164371332,-197.53545830395825,-13.555172910928329 Z" fill="#d62728" fill-opacity="0.6" />
<path d="M-197.53520004466003,-13.558935921234797 A198.0,198.0,0,0,0,-197.53545830395825,-13.555172910928329 C-79.0141833215833,-5.422069164371332,46.6116280251843,64.03121217688958,116.52907006296076,160.07803044222396 A198.0,198.0,0,0,0,116.86616433496279,159.8320982582456 C46.74646573398512,63.93283930329824,-79.01408001786402,-5.423574368493919,-197.53520004466003,-13.558935921234797 Z" fill="#d62728" fill-opacity="0.6" />
<path d="M-187.4447653554295,63.784480407446914 A198.0,198.0,0,0,0,-181.60659043545445,78.88628721399624 C-72.64263617418179,31.554514885598497,-56.834317654182534,55.1588645349365,-142.08579413545633,137.89716133734123 A198.0,198.0,0,0,0,-141.85751654813112,138.1319839819754 C-56.74300661925245,55.25279359279016,-74.9779061421718,25.513792162978767,-187.4447653554295,63.784480407446914 Z" fill="#d62728" fill-opacity="0.6" />
<path d="M-187.4456199417338,63.781968961918075 A198.0,198.0,0,0,0,-187.4447653554295,63.784480407446914 C-74.9779061421718,25.513792162978767,-32.68640037689482,72.1404132951935,-81.71600094223705,180.35103323798373 A198.0,198.0,0,0,0,-81.49943412831668,180.44900176161732 C-32.59977365132667,72.17960070464693,-74.97824797669352,25.51278758476723,-187.4456199417338,63.781968961918075 Z" fill="#d62728" fill-opacity="0.6" />
<path d="M-187.45965557524787,63.74070545271238 A198.0,198.0,0,0,0,-187.4456199417338,63.781968961918075 C-74.97824797669352,25.51278758476723,-25.729419335998898,74.90418533454807,-64.32354833999725,187.26046333637018 A198.0,198.0,0,0,0,-62.06615470562913,188.02072343243685 C-24.826461882251653,75.20828937297475,-74.98386223009915,25.496282181084954,-187.45965557524787,63.74070545271238 Z" fill="#d62728" fill-opacity="0.6" />
<path d="M-187.6426679196259,63.19991436707016 A198.0,198.0,0,0,0,-187.45965557524787,63.74070545271238 C-74.98386223009915,25.496282181084954,9.668368820527084,78.60765003706865,24.170922051317707,196.51912509267163 A198.0,198.0,0,0,0,30.812116624824924,195.58786636470623 C12.32484664992997,78.2351465458825,-75.05706716785036,25.279965746828065,-187.6426679196259,63.19991436707016 Z" fill="#d62728" fill-opacity="0.6" />
<path d="M-187.65644600584793,63.158992015818974 A198.0,198.0,0,0,0,-187.6426679196259,63.19991436707016 C-75.05706716785036,25.279965746828065,23.110326375758433,75.75323633222494,57.77581593939608,189.38309083056234 A198.0,198.0,0,0,0,59.739113207429234,188.77298099354672 C23.895645282971696,75.50919239741869,-75.06257840233917,25.26359680632759,-187.65644600584793,63.158992015818974 Z" fill="#d62728" fill-opacity="0.6" />
<path d="M-187.65811117619586,63.154044286827066 A198.0,198.0,0,0,0,-187.65644600584793,63.158992015818974 C-75.06257840233917,25.26359680632759,46.4765833019884,64.12930067117007,116.19145825497098,160.32325167792519 A198.0,198.0,0,0,0,116.52907006296076,160.07803044222396 C46.6116280251843,64.03121217688958,-75.06324447047835,25.26161771473083,-187.65811117619586,63.154044286827066 Z" fill="#d62728" fill-opacity="0.6" />
<path d="M-187.8485727918746,62.585251457957675 A198.0,198.0,0,0,0,-187.65811117619586,63.154044286827066 C-75.06324447047835,25.26161771473083,69.74138388514788,37.53370983242179,174.3534597128697,93.83427458105447 A198.0,198.0,0,0,0,174.3567685578079,93.8281261567075 C69.74270742312316,37.531250462683,-75.13942911674984,25.034100583183072,-187.8485727918746,62.585251457957675 Z" fill="#e377c2" fill-opacity="0.6" />
<path d="M-137.54807463389045,142.4237591292608 A198.0,198.0,0,0,0,-137.5441253129517,142.42757314472166 C-55.01765012518069,56.97102925788867,-32.85951238480888,72.06172663649264,-82.1487809620222,180.15431659123158 A198.0,198.0,0,0,0,-81.71600094223705,180.35103323798373 C-32.68640037689482,72.1404132951935,-55.01922985355618,56.969503651704315,-137.54807463389045,142.4237591292608 Z" fill="#d62728" fill-opacity="0.6" />
<path d="M-137.73758054801723,142.24049671165545 A198.0,198.0,0,0,0,-137.54807463389045,142.4237591292608 C-55.01922985355618,56.969503651704315,18.42905971977268,77.02603298784803,46.0726492994317,192.56508246962005 A198.0,198.0,0,0,0,57.77581593939608,189.38309083056234 C23.110326375758433,75.75323633222494,-55.0950322192069,56.89619868466218,-137.73758054801723,142.24049671165545 Z" fill="#d62728" fill-opacity="0.6" />
<path d="M-137.77444328370927,142.20479168390906 A198.0,198.0,0,0,0,-137.73758054801723,142.24049671165545 C-55.0950322192069,56.89619868466218,45.18344862779414,65.04687517551854,112.95862156948535,162.61718793879632 A198.0,198.0,0,0,0,116.19145825497098,160.32325167792519 C46.4765833019884,64.12930067117007,-55.10977731348371,56.88191667356363,-137.77444328370927,142.20479168390906 Z" fill="#d62728" fill-opacity="0.6" />
<path d="M-78.1200723329259,181.93750107852537 A198.0,198.0,0,0,0,-78.112727848689,181.94065446742968 C-31.245091139475605,72.77626178697187,9.626765399455316,78.61275588569485,24.066913498638286,196.5318897142371 A198.0,198.0,0,0,0,24.170922051317707,196.51912509267163 C9.668368820527084,78.60765003706865,-31.24802893317036,72.77500043141015,-78.1200723329259,181.93750107852537 Z" fill="#d62728" fill-opacity="0.6" />
<path d="M-78.14140186856174,181.92834115116847 A198.0,198.0,0,0,0,-78.1200723329259,181.93750107852537 C-31.24802893317036,72.77500043141015,17.94882825901647,77.13935159261018,44.87207064754117,192.84837898152546 A198.0,198.0,0,0,0,46.0726492994317,192.56508246962005 C18.42905971977268,77.02603298784803,-31.2565607474247,72.7713364604674,-78.14140186856174,181.92834115116847 Z" fill="#d62728" fill-opacity="0.6" />
<path d="M-78.14569965141806,181.92649511819425 A198.0,198.0,0,0,0,-78.14140186856174,181.92834115116847 C-31.2565607474247,72.7713364604674,45.04626663867603,65.1419516280968,112.61566659669008,162.854879070242 A198.0,198.0,0,0,0,112.95862156948535,162.61718793879632 C45.18344862779414,65.04687517551854,-31.258279860567225,72.7705980472777,-78.14569965141806,181.92649511819425 Z" fill="#d62728" fill-opacity="0.6" />
<path d="M-78.16822608070262,181.916817340773 A198.0,198.0,0,0,0,-78.14569965141806,181.92649511819425 C-31.258279860567225,72.7705980472777,69.12859525331231,38.65070915654364,172.82148813328078,96.6267728913591 A198.0,198.0,0,0,0,174.3534597128697,93.83427458105447 C69.74138388514788,37.53370983242179,-31.26729043228105,72.76672693630921,-78.16822608070262,181.916817340773 Z" fill="#d62728" fill-opacity="0.6" />
<path d="M-78.1865343503329,181.9089493298343 A198.0,198.0,0,0,0,-78.16822608070262,181.916817340773 C-31.26729043228105,72.76672693630921,79.19347110518639,1.0169239460299897,197.98367776296595,2.5423098650749743 A198.0,198.0,0,0,0,197.98995354647076,1.9945662852733466 C79.1959814185883,0.7978265141093387,-31.274613740133162,72.76357973193372,-78.1865343503329,181.9089493298343 Z" fill="#d62728" fill-opacity="0.6" />
<path d="M-60.346624122288,188.57965149252792 A198.0,198.0,0,0,0,-60.33950264248194,188.58193026071697 C-24.135801056992776,75.4327721042868,68.81548258386378,39.205476106660655,172.03870645965947,98.01369026665164 A198.0,198.0,0,0,0,172.82148813328078,96.6267728913591 C69.12859525331231,38.65070915654364,-24.1386496489152,75.43186059701117,-60.346624122288,188.57965149252792 Z" fill="#9467bd" fill-opacity="0.6" />
<path d="M-60.347540691167765,188.57935818251119 A198.0,198.0,0,0,0,-60.346624122288,188.57965149252792 C-24.1386496489152,75.43186059701117,78.32454090464813,11.743350973044386,195.8113522616203,29.35837743261096 A198.0,198.0,0,0,0,195.83174307561043,29.2220533838418 C78.33269723024418,11.68882135353672,-24.139016276467107,75.43174327300447,-60.347540691167765,188.57935818251119 Z" fill="#9467bd" fill-opacity="0.6" />
<path d="M62.671916728631224,187.81967642810886 A198.0,198.0,0,0,0,65.39549775429715,186.8888142010316 C26.158199101718864,74.75552568041265,45.030368319881525,65.15294259644617,112.57592079970381,162.88235649111542 A198.0,198.0,0,0,0,112.61566659669008,162.854879070242 C45.04626663867603,65.1419516280968,25.068766691452492,75.12787057124355,62.671916728631224,187.81967642810886 Z" fill="#8c564b" fill-opacity="0.6" />
<path d="M119.04794774024984,158.21373561999837 A198.0,198.0,0,0,0,119.214593828176,158.08820518426737 C47.68583753127041,63.23528207370695,68.81488095853237,39.20653209177037,172.0372023963309,98.01633022942592 A198.0,198.0,0,0,0,172.03870645965947,98.01369026665164 C68.81548258386378,39.205476106660655,47.61917909609994,63.28549424799935,119.04794774024984,158.21373561999837 Z" fill="#e377c2" fill-opacity="0.6" />
<path d="M178.68192191791536,85.30399040912444 A198.0,198.0,0,0,0,178.78070727575175,85.09676084306597 C71.5122829103007,34.038704337226385,77.17187196978097,17.80848608612582,192.9296799244524,44.521215215314555 A198.0,198.0,0,0,0,195.8113522616203,29.35837743261096 C78.32454090464813,11.743350973044386,71.47276876716614,34.12159616364978,178.68192191791536,85.30399040912444 Z" fill="#e377c2" fill-opacity="0.6" />
<path d="M178.37404682865298,85.94590983851131 A198.0,198.0,0,0,0,178.68192191791536,85.30399040912444 C71.47276876716614,34.12159616364978,78.88709256065466,7.033251547236434,197.21773140163666,17.583128868091084 A198.0,198.0,0,0,0,197.98367776296595,2.5423098650749743 C79.19347110518639,1.0169239460299897,71.34961873146119,34.37836393540453,178.37404682865298,85.94590983851131 Z" fill="#e377c2" fill-opacity="0.6" />
<path d="M196.63533316605287,23.206588518681198 A198.0,198.0,0,0,0,196.64856414050314,23.094203200769197 C78.65942565620126,9.23768128030768,78.74786799089034,8.450638253369418,196.86966997722584,21.12659563342354 A198.0,198.0,0,0,0,197.21773140163666,17.583128868091084 C78.88709256065466,7.033251547236434,78.65413326642116,9.28263540747248,196.63533316605287,23.206588518681198 Z" fill="#e377c2" fill-opacity="0.6" />
<text x="220.00000000000006" y="0" font-size="10" text-anchor="start" dominant-baseline="middle" transform="rotate(-8.016952)" font-family="Arial">Canada</text>
<text x="220.00000000000006" y="0" font-size="10" text-anchor="start" dominant-baseline="middle" transform="rotate(-25.932475)" font-family="Arial">Mexico</text>
<text x="220.00000000000003" y="0" font-size="10" text-anchor="start" dominant-baseline="middle" transform="rotate(-58.903942)" font-family="Arial">United Sta.</text>
<text x="220.00000000000003" y="0" font-size="10" text-anchor="start" dominant-baseline="middle" transform="rotate(-83.536611)" font-family="Arial">Costa Rica</text>
<text x="220.0" y="0" font-size="10" text-anchor="start" dominant-baseline="middle" transform="rotate(-86.022678)" font-family="Arial">Dominican .</text>
<text x="220.0" y="0" font-size="10" text-anchor="start" dominant-baseline="middle" transform="rotate(-88.797818)" font-family="Arial">Guatemala</text>
<text x="-220.00000000000006" y="0" font-size="10" text-anchor="end" dominant-baseline="middle" transform="rotate(81.649057)" font-family="Arial">Argentina</text>
<text x="-220.00000000000003" y="0" font-size="10" text-anchor="end" dominant-baseline="middle" transform="rotate(63.902213)" font-family="Arial">Brazil</text>
<text x="-220.00000000000006" y="0" font-size="10" text-anchor="end" dominant-baseline="middle" transform="rotate(46.412878)" font-family="Arial">Colombia</text>
<text x="-220.00000000000003" y="0" font-size="10" text-anchor="end" dominant-baseline="middle" transform="rotate(27.484726)" font-family="Arial">Germany</text>
<text x="-220.00000000000003" y="0" font-size="10" text-anchor="end" dominant-baseline="middle" transform="rotate(7.987862)" font-family="Arial">Spain</text>
<text x="-220.0" y="0" font-size="10" text-anchor="end" dominant-baseline="middle" transform="rotate(-12.039874)" font-family="Arial">France</text>
<text x="-220.00000000000003" y="0" font-size="10" text-anchor="end" dominant-baseline="middle" transform="rotate(-35.025707)" font-family="Arial">United Kin.</text>
<text x="-220.00000000000006" y="0" font-size="10" text-anchor="end" dominant-baseline="middle" transform="rotate(-56.668454)" font-family="Arial">Italy</text>
<text x="-220.00000000000006" y="0" font-size="10" text-anchor="end" dominant-baseline="middle" transform="rotate(-69.797399)" font-family="Arial">Indonesia</text>
<text x="-220.0" y="0" font-size="10" text-anchor="end" dominant-baseline="middle" transform="rotate(-75.394230)" font-family="Arial">India</text>
<text x="-220.00000000000003" y="0" font-size="10" text-anchor="end" dominant-baseline="middle" transform="rotate(-87.454785)" font-family="Arial">Japan</text>
<text x="220.0" y="0" font-size="10" text-anchor="start" dominant-baseline="middle" transform="rotate(-278.042876)" font-family="Arial">Egypt</text>
<text x="220.00000000000003" y="0" font-size="10" text-anchor="start" dominant-baseline="middle" transform="rotate(-284.496626)" font-family="Arial">Nigeria</text>
<text x="220.00000000000003" y="0" font-size="10" text-anchor="start" dominant-baseline="middle" transform="rotate(-298.439379)" font-family="Arial">South Afri.</text>
<text x="220.00000000000003" y="0" font-size="10" text-anchor="start" dominant-baseline="middle" transform="rotate(-321.069633)" font-family="Arial">Australia</text>
<text x="220.00000000000003" y="0" font-size="10" text-anchor="start" dominant-baseline="middle" transform="rotate(-344.210590)" font-family="Arial">New Zealan.</text>
<text x="220.00000000000006" y="0" font-size="10" text-anchor="start" dominant-baseline="middle" transform="rotate(-356.650962)" font-family="Arial">Papua New .</text>
<text x="-295.0" y="-285.0" font-size="8" text-anchor="start" dominant-baseline="middle" font-family="Arial" font-weight="bold">Continents</text>
<circle cx="-290.5" cy="-274.5" r="4.5" fill="#8c564b" stroke="#333" stroke-width="0.5" />
<text x="-278.0" y="-271.0" font-size="6" text-anchor="start" dominant-baseline="middle" font-family="Arial">Africa</text>
<circle cx="-290.5" cy="-262.5" r="4.5" fill="#9467bd" stroke="#333" stroke-width="0.5" />
<text x="-278.0" y="-259.0" font-size="6" text-anchor="start" dominant-baseline="middle" font-family="Arial">Asia</text>
<circle cx="-290.5" cy="-250.5" r="4.5" fill="#ff7f0e" stroke="#333" stroke-width="0.5" />
<text x="-278.0" y="-247.0" font-size="6" text-anchor="start" dominant-baseline="middle" font-family="Arial">Central America</text>
<circle cx="-290.5" cy="-238.5" r="4.5" fill="#d62728" stroke="#333" stroke-width="0.5" />
<text x="-278.0" y="-235.0" font-size="6" text-anchor="start" dominant-baseline="middle" font-family="Arial">Europe</text>
<circle cx="-290.5" cy="-226.5" r="4.5" fill="#1f77b4" stroke="#333" stroke-width="0.5" />
<text x="-278.0" y="-223.0" font-size="6" text-anchor="start" dominant-baseline="middle" font-family="Arial">North America</text>
<circle cx="-290.5" cy="-214.5" r="4.5" fill="#e377c2" stroke="#333" stroke-width="0.5" />
<text x="-278.0" y="-211.0" font-size="6" text-anchor="start" dominant-baseline="middle" font-family="Arial">Oceania</text>
<circle cx="-290.5" cy="-202.5" r="4.5" fill="#2ca02c" stroke="#333" stroke-width="0.5" />
<text x="-278.0" y="-199.0" font-size="6" text-anchor="start" dominant-baseline="middle" font-family="Arial">South America</text>
</svg>