<?xml version="1.0" encoding="UTF-8"?>
<svg xmlns="http://www.w3.org/2000/svg" xmlns:xlink="http://www.w3.org/1999/xlink"
     width="600.0" height="600.0" viewBox="-300.0 -300.0 600.0 600.0">
<defs>
</defs>
<rect x="-300.0" y="-300.0" width="600.0" height="600.0" fill="#ffffff" fill-opacity="1.0" />
<path d="M200.0,-0.0 A200,200,0,0,0,193.47731550230276,-50.66091576375611 L207.02072758746397,-54.20717986721904 A214.0,214.0,0,0,1,214.0,-0.0 Z" fill="#1f77b4" fill-opacity="0.9" />
<path d="M192.96104100294912,-52.593123648041576 A200,200,0,0,0,167.93853497441884,-108.61237715217314 L179.69423242262818,-116.21524355282527 A214.0,214.0,0,0,1,206.46831387315558,-56.27464230340449 Z" fill="#1f77b4" fill-opacity="0.9" />
<path d="M166.84403244809488,-110.28630393869885 A200,200,0,0,0,28.835097483910445,-197.9104270954246 L30.85355430778418,-211.76415699210435 A214.0,214.0,0,0,1,178.52311471946152,-118.00634521440777 Z" fill="#1f77b4" fill-opacity="0.9" />
<path d="M26.854584455002843,-198.1888778255458 A200,200,0,0,0,20.029675343759145,-198.9945027020184 L21.431752617822287,-212.92411789115968 A214.0,214.0,0,0,1,28.734405366853043,-212.062099273334 Z" fill="#ff7f0e" fill-opacity="0.9" />
<path d="M18.03876200690206,-199.18484647497246 A200,200,0,0,0,11.745683607534314,-199.654799382814 L12.567881460061717,-213.630635339611 A214.0,214.0,0,0,1,19.301475347385207,-213.12778572822054 Z" fill="#ff7f0e" fill-opacity="0.9" />
<path d="M9.748581610053332,-199.76227160450526 A200,200,0,0,0,3.2898797622063207,-199.97293989725267 L3.5201713455607635,-213.97104569006038 A214.0,214.0,0,0,1,10.430982322757066,-213.74563061682065 Z" fill="#ff7f0e" fill-opacity="0.9" />
<path d="M1.2900191992731331,-199.99583958289108 A200,200,0,0,0,-56.36001479527704,-191.8946292429159 L-60.30521583094644,-205.32725328992 A214.0,214.0,0,0,1,1.3803205432222525,-213.99554835369347 Z" fill="#2ca02c" fill-opacity="0.9" />
<path d="M-58.276111128171394,-191.32144383674566 A200,200,0,0,0,-118.54597422139096,-161.0802656935396 L-126.84419241688833,-172.35588429208738 A214.0,214.0,0,0,1,-62.355438907143395,-204.71394490531787 Z" fill="#2ca02c" fill-opacity="0.9" />
<path d="M-120.15082278243254,-159.88677176272117 A200,200,0,0,0,-154.57332265007742,-126.91370266805339 L-165.39345523558285,-135.79766185481714 A214.0,214.0,0,0,1,-128.56138037720282,-171.07884578611166 Z" fill="#2ca02c" fill-opacity="0.9" />
<path d="M-155.83470992285277,-125.36164957139142 A200,200,0,0,0,-190.77208785236493,-60.05006658155807 L-204.12613400203048,-64.25357124226714 A214.0,214.0,0,0,1,-166.74313961745247,-134.13696504138883 Z" fill="#d62728" fill-opacity="0.9" />
<path d="M-191.36303998498158,-58.139375019915164 A200,200,0,0,0,-199.96773710494688,-3.5922301049414704 L-213.96547870229318,-3.8436862122873734 A214.0,214.0,0,0,1,-204.7584527839303,-62.20913127130923 Z" fill="#d62728" fill-opacity="0.9" />
<path d="M-199.99366050375863,-1.5924064516730994 A200,200,0,0,0,-182.95036596079336,80.80324000194408 L-195.7568915780489,86.45946680208017 A214.0,214.0,0,0,1,-213.99321673902176,-1.7038749032902165 Z" fill="#d62728" fill-opacity="0.9" />
<path d="M-182.1331995858443,82.62867304164457 A200,200,0,0,0,-144.1927915901135,138.59451234969623 L-154.28628700142144,148.29612821417498 A214.0,214.0,0,0,1,-194.8825235568534,88.4126801545597 Z" fill="#d62728" fill-opacity="0.9" />
<path d="M-142.79965998608708,140.0294865657156 A200,200,0,0,0,-83.97181937135407,181.51786014457278 L-89.84984672734886,194.2241103546929 A214.0,214.0,0,0,1,-152.79563618511318,149.83155062531569 Z" fill="#d62728" fill-opacity="0.9" />
<path d="M-82.1524724667534,182.34848852567802 A200,200,0,0,0,-74.91095574447985,185.44095747554957 L-80.15472264659344,198.42182449883805 A214.0,214.0,0,0,1,-87.90314553942613,195.1128827224755 Z" fill="#9467bd" fill-opacity="0.9" />
<path d="M-73.05283155982167,186.18078257729053 A200,200,0,0,0,-50.87448735187608,193.42126702274442 L-54.4357014665074,206.96075571433653 A214.0,214.0,0,0,1,-78.16652976900919,199.21343735770088 Z" fill="#9467bd" fill-opacity="0.9" />
<path d="M-48.93776321519536,193.92033243446514 A200,200,0,0,0,18.122745772206148,199.17722280842253 L19.39133797626058,213.11962840501212 A214.0,214.0,0,0,1,-52.363406640259036,207.49475570487772 Z" fill="#9467bd" fill-opacity="0.9" />
<path d="M20.11357867451502,198.9860395929928 A200,200,0,0,0,26.24359061598569,198.27070875845615 L28.08064195910469,212.1496583715481 A214.0,214.0,0,0,1,21.521529181731072,212.9150623645023 Z" fill="#8c564b" fill-opacity="0.9" />
<path d="M28.224952490021305,197.99836377338082 A200,200,0,0,0,60.16630507871719,190.73546008326488 L64.3779464342274,204.08694228909343 A214.0,214.0,0,0,1,30.2006991643228,211.8582492375175 Z" fill="#8c564b" fill-opacity="0.9" />
<path d="M62.07061960028067,190.12427036661376 A200,200,0,0,0,113.57096337202506,164.62574609929683 L121.52093080806682,176.1495483262476 A214.0,214.0,0,0,1,66.41556297230032,203.43296929227674 Z" fill="#8c564b" fill-opacity="0.9" />
<path d="M115.2115148946833,163.4818241752647 A200,200,0,0,0,173.12406819961672,100.14018678839412 L185.2427529735899,107.14999986358171 A214.0,214.0,0,0,1,123.27632093731114,174.92555186753324 Z" fill="#e377c2" fill-opacity="0.9" />
<path d="M174.11679724627774,98.40396799265059 A200,200,0,0,0,194.74166369826307,45.55967976218231 L208.3735801571415,48.74885734553508 A214.0,214.0,0,0,1,186.3049730535172,105.29224575213614 Z" fill="#e377c2" fill-opacity="0.9" />
<path d="M195.18751590060006,43.61001761697642 A200,200,0,0,0,199.99000008333306,1.999966666834405 L213.9893000891664,2.1399643335128133 A214.0,214.0,0,0,1,208.85064201364207,46.66271885016477 Z" fill="#e377c2" fill-opacity="0.9" />
<path d="M193.0,-0.0 A193.0,193.0,0,0,0,191.36378153852158,-25.07794081014191 L196.32139245920868,-25.727628395896883 A198.0,198.0,0,0,1,198.0,-0.0 Z" fill="#1f77b4" fill-opacity="0.6" />
<path d="M186.20740456784588,-50.752364320360115 A193.0,193.0,0,0,0,172.2352229586988,-87.0863248298337 L176.69727536695527,-89.34244723475167 A198.0,198.0,0,0,1,191.0314305929196,-52.06719241156116 Z" fill="#1f77b4" fill-opacity="0.6" />
<path d="M161.00449131241157,-106.42628330084439 A193.0,193.0,0,0,0,57.55976115804873,-184.21692076307318 L59.05094668027797,-188.98937985019944 A198.0,198.0,0,0,1,165.17559212361394,-109.18344089931186 Z" fill="#1f77b4" fill-opacity="0.6" />
<path d="M1.2448685272985736,-192.9959851974899 A193.0,193.0,0,0,0,-45.08800878734951,-187.65945609958453 L-46.256091916555455,-192.52110003998828 A198.0,198.0,0,0,1,1.2771190072804017,-197.99588118706217 Z" fill="#2ca02c" fill-opacity="0.6" />
<path d="M-56.23644723868539,-184.62519330245956 A193.0,193.0,0,0,0,-106.2947198832884,-161.0913794246398 L-109.0484691030627,-165.2647312232056 A198.0,198.0,0,0,1,-57.69335001688968,-189.40822939837818 Z" fill="#2ca02c" fill-opacity="0.6" />
<path d="M-115.94554398504741,-154.29073475102592 A193.0,193.0,0,0,0,-133.2688692967805,-139.60088995546423 L-136.72143067752612,-143.2174933221861 A198.0,198.0,0,0,1,-118.94931455460822,-158.28790404509397 Z" fill="#2ca02c" fill-opacity="0.6" />
<path d="M-150.38049507555291,-120.97399183639273 A193.0,193.0,0,0,0,-180.97679713835515,-67.05519292003149 L-185.6653151989343,-68.79237408376288 A198.0,198.0,0,0,1,-154.27636282362423,-124.10803307567751 Z" fill="#d62728" fill-opacity="0.6" />
<path d="M-184.66533358550723,-56.10449689421813 A193.0,193.0,0,0,0,-191.36339263189566,-25.08090828520635 L-196.32099347728158,-25.730672748553662 A198.0,198.0,0,0,1,-189.44940958513178,-57.55798126971601 Z" fill="#d62728" fill-opacity="0.6" />
<path d="M-192.9938823861271,-1.5366722258645409 A193.0,193.0,0,0,0,-192.15275255382616,18.06432080062957 L-197.13080313812216,18.53230838613811 A198.0,198.0,0,0,1,-197.99372389872104,-1.5764823871563682 Z" fill="#d62728" fill-opacity="0.6" />
<path d="M-175.75853760033976,79.73666948518701 A193.0,193.0,0,0,0,-142.05139349418442,130.65374700467024 L-145.73148140854155,134.03855910323682 A198.0,198.0,0,0,1,-180.31186758998587,81.80238631122813 Z" fill="#d62728" fill-opacity="0.6" />
<path d="M-137.80167188657404,135.12845453591555 A193.0,193.0,0,0,0,-83.4792169823402,174.0121269682529 L-85.64189099742674,178.52021315914027 A198.0,198.0,0,0,1,-141.3716633862262,138.62919170005844 Z" fill="#d62728" fill-opacity="0.6" />
<path d="M-79.27713593041702,175.9662914272793 A193.0,193.0,0,0,0,-73.13166120486564,178.60783893608016 L-75.02626382675335,183.2349850225071 A198.0,198.0,0,0,1,-81.33094774208585,180.52500364042123 Z" fill="#9467bd" fill-opacity="0.6" />
<path d="M-70.49598245522792,179.66445518708534 A193.0,193.0,0,0,0,-51.38333391224823,186.0342790887271 L-52.714508365933426,190.85381999776146 A198.0,198.0,0,0,1,-72.32230324422346,184.3189747515176 Z" fill="#9467bd" fill-opacity="0.6" />
<path d="M-47.224941502663526,187.13312079925885 A193.0,193.0,0,0,0,12.255408514336295,192.61050065390188 L12.572906144241381,197.6004099972672 A198.0,198.0,0,0,1,-48.44838558304341,191.9811291101205 Z" fill="#9467bd" fill-opacity="0.6" />
<path d="M27.23707915287056,191.0684210413125 A193.0,193.0,0,0,0,36.8061389381691,189.45793236616984 L37.75966585366571,194.366168955967 A198.0,198.0,0,0,1,27.942702965121093,196.01838013564702 Z" fill="#8c564b" fill-opacity="0.6" />
<path d="M59.89814791427085,183.46992090378228 A193.0,193.0,0,0,0,94.46393667693434,168.30200434782748 L96.91118892245078,172.66215990088 A198.0,198.0,0,0,1,61.449913404277865,188.22302766294763 Z" fill="#8c564b" fill-opacity="0.6" />
<path d="M111.1791118733694,157.75996032913045 A193.0,193.0,0,0,0,155.41222379481525,114.43793381195879 L159.4384472091887,117.40264712314942 A198.0,198.0,0,0,1,114.05939974573647,161.84700593351207 Z" fill="#e377c2" fill-opacity="0.6" />
<path d="M168.02270934265803,94.95982911290783 A193.0,193.0,0,0,0,181.03349456209213,66.90197191889762 L185.7234814678458,68.63518362664107 A198.0,198.0,0,0,1,172.37562927381498,97.4199283127241 Z" fill="#e377c2" fill-opacity="0.6" />
<path d="M188.35595284407907,42.08366700038225 A193.0,193.0,0,0,0,188.52704842940915,41.310434644230185 L193.41116885504152,42.38065315832941 A198.0,198.0,0,0,1,193.23564074159407,43.173917440806655 Z" fill="#e377c2" fill-opacity="0.6" />
<path d="M195.23544600551918,-32.97151229510117 A198.0,198.0,0,0,0,191.54254234727972,-50.154306606118546 C76.61701693891189,-20.06172264244742,23.459774528225335,-75.6457466027326,58.64943632056333,-189.1143665068315 A198.0,198.0,0,0,0,53.26976121478922,-190.6995871524617 C21.30790448591569,-76.27983486098468,78.09417840220767,-13.188604918040468,195.23544600551918,-32.97151229510117 Z" fill="#1f77b4" fill-opacity="0.6" />
<path d="M195.3483408191363,-32.295909016631875 A198.0,198.0,0,0,0,195.23544600551918,-32.97151229510117 C78.09417840220767,-13.188604918040468,-57.4185923590579,54.55039185472768,-143.54648089764473,136.37597963681918 A198.0,198.0,0,0,0,-143.53874896693438,136.38411764207515 C-57.415499586773755,54.553647056830066,78.13933632765452,-12.91836360665275,195.3483408191363,-32.295909016631875 Z" fill="#d62728" fill-opacity="0.6" />
<path d="M195.49523029488702,-31.39450480496684 A198.0,198.0,0,0,0,195.3483408191363,-32.295909016631875 C78.13933632765452,-12.91836360665275,-29.679993122859305,73.42845503091444,-74.19998280714826,183.5711375772861 A198.0,198.0,0,0,0,-74.1933209898784,183.5738301623978 C-29.677328395951363,73.42953206495912,78.19809211795481,-12.557801921986737,195.49523029488702,-31.39450480496684 Z" fill="#9467bd" fill-opacity="0.6" />
<path d="M195.56711546263406,-30.94355101834243 A198.0,198.0,0,0,0,195.49523029488702,-31.39450480496684 C78.19809211795481,-12.557801921986737,6.8156331369360235,78.90619205704138,17.039082842340058,197.26548014260345 A198.0,198.0,0,0,0,17.04511355204399,197.26495913871253 C6.8180454208175965,78.90598365548502,78.22684618505363,-12.377420407336972,195.56711546263406,-30.94355101834243 Z" fill="#9467bd" fill-opacity="0.6" />
<path d="M195.57006649355208,-30.9248943685765 A198.0,198.0,0,0,0,195.56711546263406,-30.94355101834243 C78.22684618505363,-12.377420407336972,76.68830432621878,19.787470267046615,191.72076081554695,49.46867566761653 A198.0,198.0,0,0,0,192.23405037166643,47.434901472477144 C76.89362014866657,18.97396058899086,78.22802659742084,-12.3699577474306,195.57006649355208,-30.9248943685765 Z" fill="#1f77b4" fill-opacity="0.6" />
<path d="M196.32139245920868,-25.727628395896883 A198.0,198.0,0,0,0,195.57006649355208,-30.9248943685765 C78.22802659742084,-12.3699577474306,79.19586240328282,0.8095543220174799,197.98965600820702,2.0238858050436996 A198.0,198.0,0,0,0,197.9901000824997,1.9799670001658851 C79.19604003299989,0.7919868000663541,78.52855698368347,-10.291051358358754,196.32139245920868,-25.727628395896883 Z" fill="#e377c2" fill-opacity="0.6" />
<path d="M174.71168989705964,-93.16558062564559 A198.0,198.0,0,0,0,166.25914962467465,-107.52625338065143 C66.50365984986986,-43.010501352260576,23.620378672111187,-75.59575194007978,59.05094668027797,-188.98937985019944 A198.0,198.0,0,0,0,58.64943632056333,-189.1143665068315 C23.459774528225335,-75.6457466027326,69.88467595882386,-37.266232250258234,174.71168989705964,-93.16558062564559 Z" fill="#1f77b4" fill-opacity="0.6" />
<path d="M174.71531142091183,-93.15878893101711 A198.0,198.0,0,0,0,174.71168989705964,-93.16558062564559 C69.88467595882386,-37.266232250258234,8.195889728692281,-78.77478906068309,20.4897243217307,-196.93697265170772 A198.0,198.0,0,0,0,20.407193547080137,-196.9455418422362 C8.162877418832055,-78.77821673689448,69.88612456836474,-37.263515572406845,174.71531142091183,-93.15878893101711 Z" fill="#1f77b4" fill-opacity="0.6" />
<path d="M174.77797556858476,-93.04116968389417 A198.0,198.0,0,0,0,174.71531142091183,-93.15878893101711 C69.88612456836474,-37.263515572406845,1.968019099821972,-79.17554484070658,4.9200477495549295,-197.93886210176643 A198.0,198.0,0,0,0,3.5128552939067754,-197.96883554661846 C1.4051421175627103,-79.18753421864739,69.9111902274339,-37.21646787355767,174.77797556858476,-93.04116968389417 Z" fill="#1f77b4" fill-opacity="0.6" />
<path d="M174.97340341953839,-92.67312499200337 A198.0,198.0,0,0,0,174.77797556858476,-93.04116968389417 C69.9111902274339,-37.21646787355767,-74.84708206411268,-25.89506336134325,-187.1177051602817,-64.73765840335813 A198.0,198.0,0,0,0,-187.11941118693974,-64.73272709420611 C-74.8477644747759,-25.893090837682447,69.98936136781536,-37.06924999680135,174.97340341953839,-92.67312499200337 Z" fill="#d62728" fill-opacity="0.6" />
<path d="M175.16805624891103,-92.30466981674515 A198.0,198.0,0,0,0,174.97340341953839,-92.67312499200337 C69.98936136781536,-37.06924999680135,-79.01419988539273,-5.421827779559545,-197.5354997134818,-13.554569448898862 A198.0,198.0,0,0,0,-197.53575669130942,-13.550823900848625 C-79.01430267652377,-5.42032956033945,70.06722249956441,-36.92186792669806,175.16805624891103,-92.30466981674515 Z" fill="#d62728" fill-opacity="0.6" />
<path d="M176.12966501580848,-90.45629387399798 A198.0,198.0,0,0,0,175.16805624891103,-92.30466981674515 C70.06722249956441,-36.92186792669806,-75.83692713815242,22.83419545862215,-189.59231784538105,57.085488646555376 A198.0,198.0,0,0,0,-189.58435168966642,57.11193915819073 C-75.83374067586657,22.844775663276295,70.4518660063234,-36.18251754959919,176.12966501580848,-90.45629387399798 Z" fill="#d62728" fill-opacity="0.6" />
<path d="M176.31964973014288,-90.08541013415945 A198.0,198.0,0,0,0,176.12966501580848,-90.45629387399798 C70.4518660063234,-36.18251754959919,-29.680986020660875,73.42805369095203,-74.20246505165218,183.57013422738007 A198.0,198.0,0,0,0,-74.19998280714826,183.5711375772861 C-29.679993122859305,73.42845503091444,70.52785989205715,-36.03416405366378,176.31964973014288,-90.08541013415945 Z" fill="#9467bd" fill-opacity="0.6" />
<path d="M176.50885345987612,-89.7141273728947 A198.0,198.0,0,0,0,176.31964973014288,-90.08541013415945 C70.52785989205715,-36.03416405366378,43.8393097698535,65.96025256851908,109.59827442463374,164.9006314212977 A198.0,198.0,0,0,0,109.60152207202432,164.8984728840615 C43.840608828809735,65.9593891536246,70.60354138395046,-35.88565094915788,176.50885345987612,-89.7141273728947 Z" fill="#8c564b" fill-opacity="0.6" />
<path d="M176.69727536695527,-89.34244723475167 A198.0,198.0,0,0,0,176.50885345987612,-89.7141273728947 C70.60354138395046,-35.88565094915788,79.19585075807784,0.8106927311029042,197.9896268951946,2.0267318277572604 A198.0,198.0,0,0,0,197.98965600820702,2.0238858050436996 C79.19586240328282,0.8095543220174799,70.67891014678212,-35.73697889390067,176.69727536695527,-89.34244723475167 Z" fill="#e377c2" fill-opacity="0.6" />
<path d="M29.96789172501214,-195.71899617961958 A198.0,198.0,0,0,0,28.54674650907134,-195.93132282447036 C11.418698603628537,-78.37252912978815,10.634415444181128,-78.48279561891614,26.586038610452817,-196.20698904729034 A198.0,198.0,0,0,0,20.4897243217307,-196.93697265170772 C8.195889728692281,-78.77478906068309,11.987156690004857,-78.28759847184784,29.96789172501214,-195.71899617961958 Z" fill="#1f77b4" fill-opacity="0.6" />
<path d="M31.123871251808865,-195.5384991205078 A198.0,198.0,0,0,0,29.96789172501214,-195.71899617961958 C11.987156690004857,-78.28759847184784,7.143349754733217,-78.8771992040891,17.85837438683304,-197.19299801022274 A198.0,198.0,0,0,0,13.013923106305594,-197.57185479056264 C5.2055692425222375,-79.02874191622506,12.449548500723546,-78.21539964820312,31.123871251808865,-195.5384991205078 Z" fill="#1f77b4" fill-opacity="0.6" />
<path d="M32.24020920165215,-195.35754121772138 A198.0,198.0,0,0,0,31.123871251808865,-195.5384991205078 C12.449548500723546,-78.21539964820312,3.8604383175811194,-79.10585955538409,9.651095793952798,-197.76464888846021 A198.0,198.0,0,0,0,4.9200477495549295,-197.93886210176643 C1.968019099821972,-79.17554484070658,12.89608368066086,-78.14301648708856,32.24020920165215,-195.35754121772138 Z" fill="#1f77b4" fill-opacity="0.6" />
<path d="M32.45829058077777,-195.32142578983442 A198.0,198.0,0,0,0,32.24020920165215,-195.35754121772138 C12.89608368066086,-78.14301648708856,-18.502436766622182,-77.00844001599532,-46.256091916555455,-192.52110003998828 A198.0,198.0,0,0,0,-54.441457048280974,-190.36840009429133 C-21.77658281931239,-76.14736003771654,12.98331623231111,-78.12857031593377,32.45829058077777,-195.32142578983442 Z" fill="#1f77b4" fill-opacity="0.6" />
<path d="M32.51685711590095,-195.31168424675488 A198.0,198.0,0,0,0,32.45829058077777,-195.32142578983442 C12.98331623231111,-78.12857031593377,-43.941098133507154,-65.89248739288489,-109.85274533376787,-164.73121848221223 A198.0,198.0,0,0,0,-111.8519749566531,-163.38034061139746 C-44.74078998266124,-65.35213624455899,13.00674284636038,-78.12467369870195,32.51685711590095,-195.31168424675488 Z" fill="#1f77b4" fill-opacity="0.6" />
<path d="M33.243852082214275,-195.1892576417459 A198.0,198.0,0,0,0,32.51685711590095,-195.31168424675488 C13.00674284636038,-78.12467369870195,-54.68857227101045,-57.28699732887444,-136.72143067752612,-143.2174933221861 A198.0,198.0,0,0,0,-151.96135804464976,-126.93205135514731 C-60.784543217859905,-50.77282054205892,13.29754083288571,-78.07570305669837,33.243852082214275,-195.1892576417459 Z" fill="#1f77b4" fill-opacity="0.6" />
<path d="M33.329185712762175,-195.1747047640247 A198.0,198.0,0,0,0,33.243852082214275,-195.1892576417459 C13.29754083288571,-78.07570305669837,-74.26756715768512,-27.51305996211127,-185.6689178942128,-68.78264990527818 A198.0,198.0,0,0,0,-187.1177051602817,-64.73765840335813 C-74.84708206411268,-25.89506336134325,13.33167428510487,-78.06988190560989,33.329185712762175,-195.1747047640247 Z" fill="#1f77b4" fill-opacity="0.6" />
<path d="M33.63728177617122,-195.12184212617115 A198.0,198.0,0,0,0,33.329185712762175,-195.1747047640247 C13.33167428510487,-78.06988190560989,-78.58311745709157,-9.865781810122897,-196.45779364272892,-24.66445452530724 A198.0,198.0,0,0,0,-197.5354997134818,-13.554569448898862 C-79.01419988539273,-5.421827779559545,13.45491271046849,-78.04873685046846,33.63728177617122,-195.12184212617115 Z" fill="#1f77b4" fill-opacity="0.6" />
<path d="M33.6518042414425,-195.11933802495238 A198.0,198.0,0,0,0,33.63728177617122,-195.12184212617115 C13.45491271046849,-78.04873685046846,-75.92566084400909,22.53739171688919,-189.81415211002272,56.34347929222297 A198.0,198.0,0,0,0,-189.59231784538105,57.085488646555376 C-75.83692713815242,22.83419545862215,13.460721696577,-78.04773520998096,33.6518042414425,-195.11933802495238 Z" fill="#1f77b4" fill-opacity="0.6" />
<path d="M33.70647537927328,-195.1099011262792 A198.0,198.0,0,0,0,33.6518042414425,-195.11933802495238 C13.460721696577,-78.04773520998096,-58.22307328185142,53.6909092641963,-145.55768320462855,134.22727316049074 A198.0,198.0,0,0,0,-143.54648089764473,136.37597963681918 C-57.4185923590579,54.55039185472768,13.482590151709312,-78.04396045051169,33.70647537927328,-195.1099011262792 Z" fill="#1f77b4" fill-opacity="0.6" />
<path d="M33.7382410848753,-195.10441073563362 A198.0,198.0,0,0,0,33.70647537927328,-195.1099011262792 C13.482590151709312,-78.04396045051169,-33.81770024714363,71.6170590711064,-84.54425061785906,179.04264767776598 A198.0,198.0,0,0,0,-83.21100478807124,179.66615897870022 C-33.28440191522849,71.8664635914801,13.49529643395012,-78.04176429425345,33.7382410848753,-195.10441073563362 Z" fill="#1f77b4" fill-opacity="0.6" />
<path d="M42.386515390411084,-193.40988421758192 A198.0,198.0,0,0,0,33.7382410848753,-195.10441073563362 C13.49529643395012,-78.04176429425345,-29.689309761080295,73.42468853124691,-74.22327440270074,183.56172132811727 A198.0,198.0,0,0,0,-74.20246505165218,183.57013422738007 C-29.680986020660875,73.42805369095203,16.954606156164434,-77.36395368703278,42.386515390411084,-193.40988421758192 Z" fill="#9467bd" fill-opacity="0.6" />
<path d="M42.46919129679609,-193.3917469557482 A198.0,198.0,0,0,0,42.386515390411084,-193.40988421758192 C16.954606156164434,-77.36395368703278,-21.08580334637337,76.34152799910458,-52.714508365933426,190.85381999776146 A198.0,198.0,0,0,0,-50.36574247835731,191.487054352517 C-20.146296991342926,76.5948217410068,16.987676518718438,-77.35669878229929,42.46919129679609,-193.3917469557482 Z" fill="#1f77b4" fill-opacity="0.6" />
<path d="M42.56994206300494,-193.36959438534385 A198.0,198.0,0,0,0,42.46919129679609,-193.3917469557482 C16.987676518718438,-77.35669878229929,5.050092102527859,79.03882950648995,12.625230256319648,197.59707376622487 A198.0,198.0,0,0,0,17.039082842340058,197.26548014260345 C6.8156331369360235,78.90619205704138,17.027976825201975,-77.34783775413754,42.56994206300494,-193.36959438534385 Z" fill="#1f77b4" fill-opacity="0.6" />
<path d="M42.68174441272237,-193.34494742270107 A198.0,198.0,0,0,0,42.56994206300494,-193.36959438534385 C17.027976825201975,-77.34783775413754,21.41992548594996,76.24845435926129,53.5498137148749,190.62113589815323 A198.0,198.0,0,0,0,56.04558100468923,189.90232449827153 C22.418232401875695,75.96092979930862,17.072697765088947,-77.33797896908044,42.68174441272237,-193.34494742270107 Z" fill="#1f77b4" fill-opacity="0.6" />
<path d="M44.24510082483021,-192.99318913630245 A198.0,198.0,0,0,0,42.68174441272237,-193.34494742270107 C17.072697765088947,-77.33797896908044,42.17898767793608,67.03411816727746,105.4474691948402,167.58529541819362 A198.0,198.0,0,0,0,109.59827442463374,164.9006314212977 C43.8393097698535,65.96025256851908,17.698040329932084,-77.19727565452098,44.24510082483021,-192.99318913630245 Z" fill="#1f77b4" fill-opacity="0.6" />
<path d="M44.398304217284824,-192.95800212126323 A198.0,198.0,0,0,0,44.24510082483021,-192.99318913630245 C17.698040329932084,-77.19727565452098,65.96608088349197,43.83053927198019,164.9152022087299,109.57634817995047 A198.0,198.0,0,0,0,169.4688693185339,102.39288223259307 C67.78754772741357,40.95715289303723,17.759321686913932,-77.1832008485053,44.398304217284824,-192.95800212126323 Z" fill="#1f77b4" fill-opacity="0.6" />
<path d="M44.73130883805172,-192.8810773757624 A198.0,198.0,0,0,0,44.398304217284824,-192.95800212126323 C17.759321686913932,-77.1832008485053,75.31372010935694,24.504766134151264,188.28430027339232,61.261915335378156 A198.0,198.0,0,0,0,191.72076081554695,49.46867566761653 C76.68830432621878,19.787470267046615,17.892523535220686,-77.15243095030496,44.73130883805172,-192.8810773757624 Z" fill="#1f77b4" fill-opacity="0.6" />
<path d="M53.26976121478922,-190.6995871524617 A198.0,198.0,0,0,0,44.73130883805172,-192.8810773757624 C17.892523535220686,-77.15243095030496,79.13990174121501,3.0847937355411323,197.84975435303753,7.71198433885283 A198.0,198.0,0,0,0,197.9896268951946,2.0267318277572604 C79.19585075807784,0.8106927311029042,21.30790448591569,-76.27983486098468,53.26976121478922,-190.6995871524617 Z" fill="#1f77b4" fill-opacity="0.6" />
<path d="M19.99448620697631,-196.98786896994199 A198.0,198.0,0,0,0,19.829378590321554,-197.0045576749982 C7.931751436128621,-78.80182306999929,-78.58242621002847,-9.871286184962436,-196.45606552507118,-24.678215462406087 A198.0,198.0,0,0,0,-196.45779364272892,-24.66445452530724 C-78.58311745709157,-9.865781810122897,7.997794482790524,-78.7951475879768,19.99448620697631,-196.98786896994199 Z" fill="#d62728" fill-opacity="0.6" />
<path d="M20.15957977840827,-196.9710418898118 A198.0,198.0,0,0,0,19.99448620697631,-196.98786896994199 C7.997794482790524,-78.7951475879768,5.043440037252497,79.03925425123037,12.60860009313124,197.59813562807594 A198.0,198.0,0,0,0,12.625230256319648,197.59707376622487 C5.050092102527859,79.03882950648995,8.063831911363307,-78.78841675592473,20.15957977840827,-196.9710418898118 Z" fill="#9467bd" fill-opacity="0.6" />
<path d="M20.242121260924467,-196.96257646278397 A198.0,198.0,0,0,0,20.15957977840827,-196.9710418898118 C8.063831911363307,-78.78841675592473,65.96375484881604,43.834039812060446,164.90938712204007,109.58509953015111 A198.0,198.0,0,0,0,164.9152022087299,109.57634817995047 C65.96608088349197,43.83053927198019,8.096848504369786,-78.78503058511359,20.242121260924467,-196.96257646278397 Z" fill="#e377c2" fill-opacity="0.6" />
<path d="M20.324659188646702,-196.95407644642788 A198.0,198.0,0,0,0,20.242121260924467,-196.96257646278397 C8.096848504369786,-78.78503058511359,75.31285619465251,24.507421157755278,188.28214048663128,61.26855289438819 A198.0,198.0,0,0,0,188.28430027339232,61.261915335378156 C75.31372010935694,24.504766134151264,8.129863675458681,-78.78163057857115,20.324659188646702,-196.95407644642788 Z" fill="#e377c2" fill-opacity="0.6" />
<path d="M20.407193547080137,-196.9455418422362 A198.0,198.0,0,0,0,20.324659188646702,-196.95407644642788 C8.129863675458681,-78.78163057857115,79.13981980976608,3.0868949573572686,197.84954952441518,7.717237393393171 A198.0,198.0,0,0,0,197.84975435303753,7.71198433885283 C79.13990174121501,3.0847937355411323,8.162877418832055,-78.77821673689448,20.407193547080137,-196.9455418422362 Z" fill="#e377c2" fill-opacity="0.6" />
<path d="M11.714850249897562,-197.6531362858239 A198.0,198.0,0,0,0,11.628226771458971,-197.65825138898583 C4.651290708583589,-79.06330055559434,-74.26612607957372,-27.516949633505153,-185.6653151989343,-68.79237408376288 A198.0,198.0,0,0,0,-185.6689178942128,-68.78264990527818 C-74.26756715768512,-27.51305996211127,4.6859400999590255,-79.06125451432956,11.714850249897562,-197.6531362858239 Z" fill="#d62728" fill-opacity="0.6" />
<path d="M11.88809044003218,-197.64279219260595 A198.0,198.0,0,0,0,11.714850249897562,-197.6531362858239 C4.6859400999590255,-79.06125451432956,-78.58168203259714,-9.877208559496935,-196.45420508149286,-24.69302139874234 A198.0,198.0,0,0,0,-196.45606552507118,-24.678215462406087 C-78.58242621002847,-9.871286184962436,4.755236176012872,-79.05711687704239,11.88809044003218,-197.64279219260595 Z" fill="#d62728" fill-opacity="0.6" />
<path d="M12.234543287508828,-197.6216484865615 A198.0,198.0,0,0,0,11.88809044003218,-197.64279219260595 C4.755236176012872,-79.05711687704239,-75.93065803981646,22.52054994089741,-189.82664509954117,56.30137485224353 A198.0,198.0,0,0,0,-189.81415211002272,56.34347929222297 C-75.92566084400909,22.53739171688919,4.893817315003531,-79.04865939462461,12.234543287508828,-197.6216484865615 Z" fill="#d62728" fill-opacity="0.6" />
<path d="M12.407755678682356,-197.61084888997902 A198.0,198.0,0,0,0,12.234543287508828,-197.6216484865615 C4.893817315003531,-79.04865939462461,-58.229083759884716,53.68439069677824,-145.57270939971178,134.2109767419456 A198.0,198.0,0,0,0,-145.55768320462855,134.22727316049074 C-58.22307328185142,53.6909092641963,4.963102271472943,-79.04433955599161,12.407755678682356,-197.61084888997902 Z" fill="#d62728" fill-opacity="0.6" />
<path d="M12.754151730532476,-197.5887942511785 A198.0,198.0,0,0,0,12.407755678682356,-197.61084888997902 C4.963102271472943,-79.04433955599161,-33.831500777338405,71.61054081036501,-84.578751943346,179.0263520259125 A198.0,198.0,0,0,0,-84.54425061785906,179.04264767776598 C-33.81770024714363,71.6170590711064,5.101660692212991,-79.03551770047142,12.754151730532476,-197.5887942511785 Z" fill="#d62728" fill-opacity="0.6" />
<path d="M12.927335125084198,-197.57753922590433 A198.0,198.0,0,0,0,12.754151730532476,-197.5887942511785 C5.101660692212991,-79.03551770047142,5.0362827119343825,79.03971062981867,12.590706779835955,197.59927657454668 A198.0,198.0,0,0,0,12.60860009313124,197.59813562807594 C5.043440037252497,79.03925425123037,5.170934050033679,-79.03101569036174,12.927335125084198,-197.57753922590433 Z" fill="#9467bd" fill-opacity="0.6" />
<path d="M13.013923106305594,-197.57185479056264 A198.0,198.0,0,0,0,12.927335125084198,-197.57753922590433 C5.170934050033679,-79.03101569036174,79.13973159336989,3.0891557632100235,197.8493289834247,7.7228894080250585 A198.0,198.0,0,0,0,197.84954952441518,7.717237393393171 C79.13981980976608,3.0868949573572686,5.2055692425222375,-79.02874191622506,13.013923106305594,-197.57185479056264 Z" fill="#e377c2" fill-opacity="0.6" />
<path d="M3.3849188360647036,-197.97106436162144 A198.0,198.0,0,0,0,3.2569809645842573,-197.97321049828014 C1.302792385833703,-79.18928419931206,5.031047234851352,79.0400440518646,12.577618087128378,197.6001101296615 A198.0,198.0,0,0,0,12.590706779835955,197.59927657454668 C5.0362827119343825,79.03971062981867,1.3539675344258815,-79.18842574464858,3.3849188360647036,-197.97106436162144 Z" fill="#9467bd" fill-opacity="0.6" />
<path d="M3.5128552939067754,-197.96883554661846 A198.0,198.0,0,0,0,3.3849188360647036,-197.97106436162144 C1.3539675344258815,-79.18842574464858,79.1396024196925,3.0924632338967495,197.8490060492312,7.731158084741873 A198.0,198.0,0,0,0,197.8493289834247,7.7228894080250585 C79.13973159336989,3.0891557632100235,1.4051421175627103,-79.18753421864739,3.5128552939067754,-197.96883554661846 Z" fill="#e377c2" fill-opacity="0.6" />
<path d="M-54.441457048280974,-190.36840009429133 A198.0,198.0,0,0,0,-55.79641464732426,-189.97568295048674 C-22.318565858929706,-75.9902731801947,-43.61938764122508,-66.10589248928224,-109.0484691030627,-165.2647312232056 A198.0,198.0,0,0,0,-109.85274533376787,-164.73121848221223 C-43.941098133507154,-65.89248739288489,-21.77658281931239,-76.14736003771654,-54.441457048280974,-190.36840009429133 Z" fill="#2ca02c" fill-opacity="0.6" />
<path d="M-116.97150321177438,-159.7550231960731 A198.0,198.0,0,0,0,-117.36051447917706,-159.4694630366042 C-46.944205791670825,-63.78778521464168,-78.5814704762746,-9.87889152619789,-196.45367619068648,-24.69722881549472 A198.0,198.0,0,0,0,-196.45420508149286,-24.69302139874234 C-78.58168203259714,-9.877208559496935,-46.788601284709756,-63.90200927842924,-116.97150321177438,-159.7550231960731 Z" fill="#d62728" fill-opacity="0.6" />
<path d="M-113.04355882550762,-162.5581551570514 A198.0,198.0,0,0,0,-116.97150321177438,-159.7550231960731 C-46.788601284709756,-63.90200927842924,-75.93775194683151,22.496618173883128,-189.84437986707877,56.24154543470782 A198.0,198.0,0,0,0,-189.82664509954117,56.30137485224353 C-75.93065803981646,22.52054994089741,-45.21742353020305,-65.02326206282056,-113.04355882550762,-162.5581551570514 Z" fill="#d62728" fill-opacity="0.6" />
<path d="M-111.8519749566531,-163.38034061139746 A198.0,198.0,0,0,0,-113.04355882550762,-162.5581551570514 C-45.21742353020305,-65.02326206282056,-29.692673990016523,73.42332811390803,-74.2316849750413,183.55832028477008 A198.0,198.0,0,0,0,-74.22327440270074,183.56172132811727 C-29.689309761080295,73.42468853124691,-44.74078998266124,-65.35213624455899,-111.8519749566531,-163.38034061139746 Z" fill="#9467bd" fill-opacity="0.6" />
<path d="M-153.02358636454406,-125.64944097023643 A198.0,198.0,0,0,0,-153.02758942357664,-125.64456564137286 C-61.21103576943066,-50.25782625654915,-78.54378308846654,-10.17418980321869,-196.35945772116634,-25.435474508046724 A198.0,198.0,0,0,0,-196.45367619068648,-24.69722881549472 C-78.5814704762746,-9.87889152619789,-61.20943454581763,-50.25977638809457,-153.02358636454406,-125.64944097023643 Z" fill="#2ca02c" fill-opacity="0.6" />
<path d="M-152.8120043377795,-125.90667706786029 A198.0,198.0,0,0,0,-153.02358636454406,-125.64944097023643 C-61.20943454581763,-50.25977638809457,5.029162457696553,79.04016399890689,12.572906144241381,197.6004099972672 A198.0,198.0,0,0,0,12.577618087128378,197.6001101296615 C5.031047234851352,79.0400440518646,-61.12480173511181,-50.362670827144115,-152.8120043377795,-125.90667706786029 Z" fill="#9467bd" fill-opacity="0.6" />
<path d="M-152.38754362670247,-126.4200796844388 A198.0,198.0,0,0,0,-152.8120043377795,-125.90667706786029 C-61.12480173511181,-50.362670827144115,65.9611184516219,43.838006941592425,164.90279612905474,109.59501735398105 A198.0,198.0,0,0,0,164.90938712204007,109.58509953015111 C65.96375484881604,43.834039812060446,-60.95501745068099,-50.568031873775524,-152.38754362670247,-126.4200796844388 Z" fill="#e377c2" fill-opacity="0.6" />
<path d="M-151.96135804464976,-126.93205135514731 A198.0,198.0,0,0,0,-152.38754362670247,-126.4200796844388 C-60.95501745068099,-50.568031873775524,75.31187697817235,24.51043014768682,188.27969244543087,61.27607536921704 A198.0,198.0,0,0,0,188.28214048663128,61.26855289438819 C75.31285619465251,24.507421157755278,-60.784543217859905,-50.77282054205892,-151.96135804464976,-126.93205135514731 Z" fill="#e377c2" fill-opacity="0.6" />
<path d="M-188.86312462679135,-59.45351256406195 A198.0,198.0,0,0,0,-188.86436697384127,-59.44956591574249 C-75.54574678953651,-23.779826366296998,-78.52839739091263,-10.292269099421466,-196.32099347728158,-25.730672748553662 A198.0,198.0,0,0,0,-196.35945772116634,-25.435474508046724 C-78.54378308846654,-10.17418980321869,-75.54524985071654,-23.78140502562478,-188.86312462679135,-59.45351256406195 Z" fill="#d62728" fill-opacity="0.6" />
<path d="M-188.75408884191074,-59.7987787957251 A198.0,198.0,0,0,0,-188.86312462679135,-59.45351256406195 C-75.54524985071654,-23.78140502562478,-78.84738351642224,7.465260384891294,-197.1184587910556,18.663150962228233 A198.0,198.0,0,0,0,-189.84437986707877,56.24154543470782 C-75.93775194683151,22.496618173883128,-75.5016355367643,-23.91951151829004,-188.75408884191074,-59.7987787957251 Z" fill="#d62728" fill-opacity="0.6" />
<path d="M-188.0493748156462,-61.979291956625445 A198.0,198.0,0,0,0,-188.75408884191074,-59.7987787957251 C-75.5016355367643,-23.91951151829004,-58.23572385898464,53.677187581132536,-145.5893096474616,134.19296895283134 A198.0,198.0,0,0,0,-145.57270939971178,134.2109767419456 C-58.229083759884716,53.68439069677824,-75.21974992625847,-24.79171678265018,-188.0493748156462,-61.979291956625445 Z" fill="#d62728" fill-opacity="0.6" />
<path d="M-187.50430395133554,-63.60924460898096 A198.0,198.0,0,0,0,-188.0493748156462,-61.979291956625445 C-75.21974992625847,-24.79171678265018,-33.937927437552936,71.56016406663271,-84.84481859388234,178.90041016658176 A198.0,198.0,0,0,0,-84.578751943346,179.0263520259125 C-33.831500777338405,71.61054081036501,-75.00172158053422,-25.443697843592386,-187.50430395133554,-63.60924460898096 Z" fill="#d62728" fill-opacity="0.6" />
<path d="M-187.5016181974889,-63.61716099703832 A198.0,198.0,0,0,0,-187.50430395133554,-63.60924460898096 C-75.00172158053422,-25.443697843592386,-29.851659803911055,73.35883318968182,-74.62914950977763,183.39708297420452 A198.0,198.0,0,0,0,-74.2316849750413,183.55832028477008 C-29.692673990016523,73.42332811390803,-75.00064727899557,-25.44686439881533,-187.5016181974889,-63.61716099703832 Z" fill="#d62728" fill-opacity="0.6" />
<path d="M-187.49087183986964,-63.648825415129046 A198.0,198.0,0,0,0,-187.5016181974889,-63.61716099703832 C-75.00064727899557,-25.44686439881533,10.227239821383812,78.5368930225528,25.568099553459525,196.342232556382 A198.0,198.0,0,0,0,25.843482347213858,196.30617519622058 C10.337392938885543,78.52247007848824,-74.99634873594786,-25.45953016605162,-187.49087183986964,-63.648825415129046 Z" fill="#d62728" fill-opacity="0.6" />
<path d="M-187.11941118693974,-64.73272709420611 A198.0,198.0,0,0,0,-187.49087183986964,-63.648825415129046 C-74.99634873594786,-25.45953016605162,65.95835274362797,43.84216809587712,164.89588185906993,109.60542023969279 A198.0,198.0,0,0,0,164.90279612905474,109.59501735398105 C65.9611184516219,43.838006941592425,-74.8477644747759,-25.893090837682447,-187.11941118693974,-64.73272709420611 Z" fill="#e377c2" fill-opacity="0.6" />
<path d="M-197.6063605933124,-12.479032537252172 A198.0,198.0,0,0,0,-197.9680597338974,-3.556307803892056 C-79.18722389355896,-1.4225231215568224,-78.85232125524887,7.412923354455244,-197.13080313812216,18.53230838613811 A198.0,198.0,0,0,0,-197.1184587910556,18.663150962228233 C-78.84738351642224,7.465260384891294,-79.04254423732496,-4.991613014900869,-197.6063605933124,-12.479032537252172 Z" fill="#d62728" fill-opacity="0.6" />
<path d="M-197.57771468645802,-12.924653158850754 A198.0,198.0,0,0,0,-197.6063605933124,-12.479032537252172 C-79.04254423732496,-4.991613014900869,-58.23752206581963,53.67523659596827,-145.59380516454908,134.18809148992068 A198.0,198.0,0,0,0,-145.5893096474616,134.19296895283134 C-58.23572385898464,53.677187581132536,-79.03108587458321,-5.169861263540302,-197.57771468645802,-12.924653158850754 Z" fill="#d62728" fill-opacity="0.6" />
<path d="M-197.57704721151683,-12.93485273120834 A198.0,198.0,0,0,0,-197.57771468645802,-12.924653158850754 C-79.03108587458321,-5.169861263540302,21.16976616280525,76.31828745859112,52.92441540701312,190.79571864647778 A198.0,198.0,0,0,0,53.5498137148749,190.62113589815323 C21.41992548594996,76.24845435926129,-79.03081888460673,-5.173941092483336,-197.57704721151683,-12.93485273120834 Z" fill="#d62728" fill-opacity="0.6" />
<path d="M-197.5756109805925,-12.95677219239315 A198.0,198.0,0,0,0,-197.57704721151683,-12.93485273120834 C-79.03081888460673,-5.173941092483336,41.40375453638033,67.51569528851174,103.50938634095083,168.78923822127933 A198.0,198.0,0,0,0,105.4474691948402,167.58529541819362 C42.17898767793608,67.03411816727746,-79.03024439223701,-5.1827088769572605,-197.5756109805925,-12.95677219239315 Z" fill="#d62728" fill-opacity="0.6" />
<path d="M-197.55590712567493,-13.253813026887924 A198.0,198.0,0,0,0,-197.5756109805925,-12.95677219239315 C-79.03024439223701,-5.1827088769572605,65.95735395122817,43.84367069204409,164.8933848780704,109.60917673011022 A198.0,198.0,0,0,0,164.89588185906993,109.60542023969279 C65.95835274362797,43.84216809587712,-79.02236285026999,-5.30152521075517,-197.55590712567493,-13.253813026887924 Z" fill="#e377c2" fill-opacity="0.6" />
<path d="M-197.53575669130942,-13.550823900848625 A198.0,198.0,0,0,0,-197.55590712567493,-13.253813026887924 C-79.02236285026999,-5.30152521075517,79.13956716651768,3.093365270419527,197.8489179162942,7.733413176048817 A198.0,198.0,0,0,0,197.8490060492312,7.731158084741873 C79.1396024196925,3.0924632338967495,-79.01430267652377,-5.42032956033945,-197.53575669130942,-13.550823900848625 Z" fill="#e377c2" fill-opacity="0.6" />
<path d="M-188.30631483252816,61.194213731306256 A198.0,198.0,0,0,0,-181.12086230118544,79.99520760192463 C-72.44834492047418,31.998083040769856,-58.292592563416626,53.61542364129473,-145.73148140854155,134.03855910323682 A198.0,198.0,0,0,0,-145.59380516454908,134.18809148992068 C-58.23752206581963,53.67523659596827,-75.32252593301126,24.477685492522504,-188.30631483252816,61.194213731306256 Z" fill="#d62728" fill-opacity="0.6" />
<path d="M-188.30840908787016,61.18776893134231 A198.0,198.0,0,0,0,-188.30631483252816,61.194213731306256 C-75.32252593301126,24.477685492522504,-34.15055548335555,71.458936181406,-85.37638870838886,178.647340453515 A198.0,198.0,0,0,0,-84.84481859388234,178.90041016658176 C-33.937927437552936,71.56016406663271,-75.32336363514807,24.475107572536928,-188.30840908787016,61.18776893134231 Z" fill="#d62728" fill-opacity="0.6" />
<path d="M-188.31114410959304,61.17935112549073 A198.0,198.0,0,0,0,-188.30840908787016,61.18776893134231 C-75.32336363514807,24.475107572536928,-30.01050553070134,73.29399400900284,-75.02626382675335,183.2349850225071 A198.0,198.0,0,0,0,-74.62914950977763,183.39708297420452 C-29.851659803911055,73.35883318968182,-75.32445764383722,24.471740450196293,-188.31114410959304,61.17935112549073 Z" fill="#d62728" fill-opacity="0.6" />
<path d="M-188.5341348593195,60.48867656717187 A198.0,198.0,0,0,0,-188.31114410959304,61.17935112549073 C-75.32445764383722,24.471740450196293,7.964977155107949,78.79847167882515,19.91244288776987,196.99617919706287 A198.0,198.0,0,0,0,25.568099553459525,196.342232556382 C10.227239821383812,78.5368930225528,-75.4136539437278,24.19547062686875,-188.5341348593195,60.48867656717187 Z" fill="#d62728" fill-opacity="0.6" />
<path d="M-188.54485395488072,60.455256571556234 A198.0,198.0,0,0,0,-188.5341348593195,60.48867656717187 C-75.4136539437278,24.19547062686875,20.585180381719677,76.47803834207612,51.46295095429919,191.1950958551903 A198.0,198.0,0,0,0,52.92441540701312,190.79571864647778 C21.16976616280525,76.31828745859112,-75.41794158195229,24.182102628622495,-188.54485395488072,60.455256571556234 Z" fill="#d62728" fill-opacity="0.6" />
<path d="M-188.5497882630992,60.439865535426655 A198.0,198.0,0,0,0,-188.54485395488072,60.455256571556234 C-75.41794158195229,24.182102628622495,41.01406985286229,67.75312593603732,102.53517463215573,169.3828148400933 A198.0,198.0,0,0,0,103.50938634095083,168.78923822127933 C41.40375453638033,67.51569528851174,-75.41991530523968,24.175946214170665,-188.5497882630992,60.439865535426655 Z" fill="#d62728" fill-opacity="0.6" />
<path d="M-189.58435168966642,57.11193915819073 A198.0,198.0,0,0,0,-188.5497882630992,60.439865535426655 C-75.41991530523968,24.175946214170665,65.94940698167196,43.85562357059582,164.87351745417988,109.63905892648954 A198.0,198.0,0,0,0,164.8933848780704,109.60917673011022 C65.95735395122817,43.84367069204409,-75.83374067586657,22.844775663276295,-189.58435168966642,57.11193915819073 Z" fill="#e377c2" fill-opacity="0.6" />
<path d="M-142.7532337873439,137.20610133392734 A198.0,198.0,0,0,0,-142.75086367421235,137.20856722619925 C-57.100345469684946,54.883426890479704,-34.2567563989707,71.4080852636561,-85.64189099742674,178.52021315914027 A198.0,198.0,0,0,0,-85.37638870838886,178.647340453515 C-34.15055548335555,71.458936181406,-57.101293514937566,54.882440533570936,-142.7532337873439,137.20610133392734 Z" fill="#d62728" fill-opacity="0.6" />
<path d="M-142.96699862863423,136.98334680945746 A198.0,198.0,0,0,0,-142.7532337873439,137.20610133392734 C-57.101293514937566,54.882440533570936,15.443663664965555,77.67968365411528,38.60915916241389,194.19920913528819 A198.0,198.0,0,0,0,51.46295095429919,191.1950958551903 C20.585180381719677,76.47803834207612,-57.186799451453695,54.79333872378299,-142.96699862863423,136.98334680945746 Z" fill="#d62728" fill-opacity="0.6" />
<path d="M-143.03094511436444,136.91657583978525 A198.0,198.0,0,0,0,-142.96699862863423,136.98334680945746 C-57.186799451453695,54.79333872378299,38.780521877293005,69.0558550951677,96.9513046932325,172.63963773791926 A198.0,198.0,0,0,0,102.53517463215573,169.3828148400933 C41.01406985286229,67.75312593603732,-57.21237804574578,54.7666303359141,-143.03094511436444,136.91657583978525 Z" fill="#d62728" fill-opacity="0.6" />
<path d="M-143.53874896693438,136.38411764207515 A198.0,198.0,0,0,0,-143.03094511436444,136.91657583978525 C-57.21237804574578,54.7666303359141,79.1395084871894,3.094866137020594,197.8487712179735,7.737165342551485 A198.0,198.0,0,0,0,197.8489179162942,7.733413176048817 C79.13956716651768,3.093365270419527,-57.415499586773755,54.553647056830066,-143.53874896693438,136.38411764207515 Z" fill="#e377c2" fill-opacity="0.6" />
<path d="M-83.14791459586048,179.69536526677444 A198.0,198.0,0,0,0,-83.13210117764054,179.70268154312706 C-33.25284047105622,71.88107261725082,15.103866341466285,77.7464675823868,37.75966585366571,194.366168955967 A198.0,198.0,0,0,0,38.60915916241389,194.19920913528819 C15.443663664965555,77.67968365411528,-33.259165838344195,71.87814610670978,-83.14791459586048,179.69536526677444 Z" fill="#d62728" fill-opacity="0.6" />
<path d="M-83.19857176600765,179.6719167151519 A198.0,198.0,0,0,0,-83.14791459586048,179.69536526677444 C-33.259165838344195,71.87814610670978,64.44755054219883,46.03426147024331,161.11887635549706,115.08565367560826 A198.0,198.0,0,0,0,164.87351745417988,109.63905892648954 C65.94940698167196,43.85562357059582,-33.27942870640306,71.86876668606077,-83.19857176600765,179.6719167151519 Z" fill="#d62728" fill-opacity="0.6" />
<path d="M-83.21100478807124,179.66615897870022 A198.0,198.0,0,0,0,-83.19857176600765,179.6719167151519 C-33.27942870640306,71.86876668606077,79.126143134181,3.4195720067139073,197.8153578354525,8.548930016784768 A198.0,198.0,0,0,0,197.8487712179735,7.737165342551485 C79.1395084871894,3.094866137020594,-33.28440191522849,71.8664635914801,-83.21100478807124,179.66615897870022 Z" fill="#d62728" fill-opacity="0.6" />
<path d="M-74.17009470831488,183.58321560251525 A198.0,198.0,0,0,0,-74.16184618703505,183.58654790079407 C-29.664738474814023,73.43461916031764,64.0051595908003,46.64739591613002,160.01289897700076,116.61848979032504 A198.0,198.0,0,0,0,161.11887635549706,115.08565367560826 C64.44755054219883,46.03426147024331,-29.66803788332595,73.4332862410061,-74.17009470831488,183.58321560251525 Z" fill="#9467bd" fill-opacity="0.6" />
<path d="M-74.1720630833102,183.58242034019884 A198.0,198.0,0,0,0,-74.17009470831488,183.58321560251525 C-29.66803788332595,73.4332862410061,75.27469693701362,24.62437818587005,188.18674234253405,61.56094546467512 A198.0,198.0,0,0,0,188.27969244543087,61.27607536921704 C75.31187697817235,24.51043014768682,-29.668825233324085,73.43296813607954,-74.1720630833102,183.58242034019884 Z" fill="#9467bd" fill-opacity="0.6" />
<path d="M-74.1933209898784,183.5738301623978 A198.0,198.0,0,0,0,-74.1720630833102,183.58242034019884 C-29.668825233324085,73.43296813607954,79.07805459903125,4.393322300108926,197.6951364975781,10.983305750272313 A198.0,198.0,0,0,0,197.8153578354525,8.548930016784768 C79.126143134181,3.4195720067139073,-29.677328395951363,73.42953206495912,-74.1933209898784,183.5738301623978 Z" fill="#9467bd" fill-opacity="0.6" />
<path d="M17.93405472796885,197.18612953505178 A198.0,198.0,0,0,0,17.941518314484085,197.18545058033828 C7.1766073257936345,78.87418023213532,63.781774209630754,46.95237244987396,159.45443552407687,117.38093112468489 A198.0,198.0,0,0,0,160.01289897700076,116.61848979032504 C64.0051595908003,46.64739591613002,7.1736218911875405,78.87445181402072,17.93405472796885,197.18612953505178 Z" fill="#9467bd" fill-opacity="0.6" />
<path d="M17.92693037141797,197.1867773646558 A198.0,198.0,0,0,0,17.93405472796885,197.18612953505178 C7.1736218911875405,78.87445181402072,75.1998197251255,24.852104806406786,187.9995493128137,62.13026201601696 A198.0,198.0,0,0,0,188.18674234253405,61.56094546467512 C75.27469693701362,24.62437818587005,7.170772148567188,78.87471094586232,17.92693037141797,197.1867773646558 Z" fill="#9467bd" fill-opacity="0.6" />
<path d="M17.04511355204399,197.26495913871253 A198.0,198.0,0,0,0,17.92693037141797,197.1867773646558 C7.170772148567188,78.87471094586232,79.07793063123809,4.395553102977753,197.69482657809522,10.988882757444383 A198.0,198.0,0,0,0,197.6951364975781,10.983305750272313 C79.07805459903125,4.393322300108926,6.8180454208175965,78.90598365548502,17.04511355204399,197.26495913871253 Z" fill="#e377c2" fill-opacity="0.6" />
<path d="M25.843482347213858,196.30617519622058 A198.0,198.0,0,0,0,25.981154709825834,196.2880016708716 C10.392461883930334,78.51520066834865,79.07772809959529,4.399195222592147,197.69432024898822,10.997988056480368 A198.0,198.0,0,0,0,197.69482657809522,10.988882757444383 C79.07793063123809,4.395553102977753,10.337392938885543,78.52247007848824,25.843482347213858,196.30617519622058 Z" fill="#e377c2" fill-opacity="0.6" />
<path d="M56.875381626924565,189.65545329568482 A198.0,198.0,0,0,0,59.56464202793001,188.82810548243222 C23.825856811172006,75.5312421929729,38.764475568980316,69.064863960352,96.91118892245078,172.66215990088 A198.0,198.0,0,0,0,96.9513046932325,172.63963773791926 C38.780521877293005,69.0558550951677,22.750152650769827,75.86218131827393,56.875381626924565,189.65545329568482 Z" fill="#8c564b" fill-opacity="0.6" />
<path d="M56.460616244956505,189.7793424302017 A198.0,198.0,0,0,0,56.875381626924565,189.65545329568482 C22.750152650769827,75.86218131827393,63.77932572281419,46.95569837988967,159.44831430703547,117.38924594972417 A198.0,198.0,0,0,0,159.45443552407687,117.38093112468489 C63.781774209630754,46.95237244987396,22.584246497982605,75.91173697208067,56.460616244956505,189.7793424302017 Z" fill="#e377c2" fill-opacity="0.6" />
<path d="M56.04558100468923,189.90232449827153 A198.0,198.0,0,0,0,56.460616244956505,189.7793424302017 C22.584246497982605,75.91173697208067,79.07761329626152,4.401258384476528,197.6940332406538,11.00314596119132 A198.0,198.0,0,0,0,197.69432024898822,10.997988056480368 C79.07772809959529,4.399195222592147,22.418232401875695,75.96092979930862,56.04558100468923,189.90232449827153 Z" fill="#e377c2" fill-opacity="0.6" />
<path d="M111.49436724713425,163.62458883725623 A198.0,198.0,0,0,0,112.43525373830481,162.97948863830388 C44.974101495321925,65.19179545532155,63.77537888367548,46.96105884925977,159.4384472091887,117.40264712314942 A198.0,198.0,0,0,0,159.44831430703547,117.38924594972417 C63.77932572281419,46.95569837988967,44.5977468988537,65.44983553490249,111.49436724713425,163.62458883725623 Z" fill="#e377c2" fill-opacity="0.6" />
<path d="M109.60152207202432,164.8984728840615 A198.0,198.0,0,0,0,111.49436724713425,163.62458883725623 C44.5977468988537,65.44983553490249,79.07724284950646,4.407909177850526,197.69310712376614,11.019772944626315 A198.0,198.0,0,0,0,197.6940332406538,11.00314596119132 C79.07761329626152,4.401258384476528,43.840608828809735,65.9593891536246,109.60152207202432,164.8984728840615 Z" fill="#e377c2" fill-opacity="0.6" />
<path d="M170.9176681453247,99.95574378576077 A198.0,198.0,0,0,0,171.39282751762056,99.13878492051018 C68.55713100704823,39.655513968204076,74.28939258713832,27.454073450656427,185.7234814678458,68.63518362664107 A198.0,198.0,0,0,0,187.9995493128137,62.13026201601696 C75.1998197251255,24.852104806406786,68.3670672581299,39.982297514304314,170.9176681453247,99.95574378576077 Z" fill="#e377c2" fill-opacity="0.6" />
<path d="M169.4688693185339,102.39288223259307 A198.0,198.0,0,0,0,170.9176681453247,99.95574378576077 C68.3670672581299,39.982297514304314,77.75834085452567,15.042620368519716,194.39585213631418,37.60655092129929 A198.0,198.0,0,0,0,197.69310712376614,11.019772944626315 C79.07724284950646,4.407909177850526,67.78754772741357,40.95715289303723,169.4688693185339,102.39288223259307 Z" fill="#e377c2" fill-opacity="0.6" />
<path d="M192.23405037166643,47.434901472477144 A198.0,198.0,0,0,0,192.79424706128043,45.10408296456049 C77.11769882451217,18.041633185824196,77.36446754201661,16.952261263331764,193.41116885504152,42.38065315832941 A198.0,198.0,0,0,0,194.39585213631418,37.60655092129929 C77.75834085452567,15.042620368519716,76.89362014866657,18.97396058899086,192.23405037166643,47.434901472477144 Z" fill="#e377c2" fill-opacity="0.6" />
<text x="220.00000000000003" y="0" font-size="10" text-anchor="start" dominant-baseline="middle" transform="rotate(-7.336573)" font-family="Arial">Canada</text>
<text x="220.0" y="0" font-size="10" text-anchor="start" dominant-baseline="middle" transform="rotate(-24.069212)" font-family="Arial">Mexico</text>
<text x="220.00000000000003" y="0" font-size="10" text-anchor="start" dominant-baseline="middle" transform="rotate(-57.587870)" font-family="Arial">United Sta.</text>
<text x="220.0" y="0" font-size="10" text-anchor="start" dominant-baseline="middle" transform="rotate(-83.267853)" font-family="Arial">Costa Rica</text>
<text x="220.00000000000003" y="0" font-size="10" text-anchor="start" dominant-baseline="middle" transform="rotate(-85.729208)" font-family="Arial">Dominican .</text>
<text x="220.00000000000006" y="0" font-size="10" text-anchor="start" dominant-baseline="middle" transform="rotate(-88.131803)" font-family="Arial">Guatemala</text>
<text x="-220.00000000000003" y="0" font-size="10" text-anchor="end" dominant-baseline="middle" transform="rotate(82.000949)" font-family="Arial">Argentina</text>
<text x="-220.00000000000003" y="0" font-size="10" text-anchor="end" dominant-baseline="middle" transform="rotate(63.354203)" font-family="Arial">Brazil</text>
<text x="-220.00000000000003" y="0" font-size="10" text-anchor="end" dominant-baseline="middle" transform="rotate(46.232032)" font-family="Arial">Colombia</text>
<text x="-220.00000000000003" y="0" font-size="10" text-anchor="end" dominant-baseline="middle" transform="rotate(28.143835)" font-family="Arial">Germany</text>
<text x="-220.00000000000006" y="0" font-size="10" text-anchor="end" dominant-baseline="middle" transform="rotate(8.964417)" font-family="Arial">Spain</text>
<text x="-220.00000000000003" y="0" font-size="10" text-anchor="end" dominant-baseline="middle" transform="rotate(-11.686648)" font-family="Arial">France</text>
<text x="-220.00000000000006" y="0" font-size="10" text-anchor="end" dominant-baseline="middle" transform="rotate(-34.134163)" font-family="Arial">United Kin.</text>
<text x="-220.00000000000003" y="0" font-size="10" text-anchor="end" dominant-baseline="middle" transform="rotate(-54.806571)" font-family="Arial">Italy</text>
<text x="-220.00000000000003" y="0" font-size="10" text-anchor="end" dominant-baseline="middle" transform="rotate(-66.875234)" font-family="Arial">Indonesia</text>
<text x="-220.00000000000006" y="0" font-size="10" text-anchor="end" dominant-baseline="middle" transform="rotate(-71.919879)" font-family="Arial">India</text>
<text x="-220.00000000000003" y="0" font-size="10" text-anchor="end" dominant-baseline="middle" transform="rotate(-85.517735)" font-family="Arial">Japan</text>
<text x="220.00000000000003" y="0" font-size="10" text-anchor="start" dominant-baseline="middle" transform="rotate(-276.655926)" font-family="Arial">Egypt</text>
<text x="220.00000000000003" y="0" font-size="10" text-anchor="start" dominant-baseline="middle" transform="rotate(-282.810245)" font-family="Arial">Nigeria</text>
<text x="220.00000000000003" y="0" font-size="10" text-anchor="start" dominant-baseline="middle" transform="rotate(-296.340641)" font-family="Arial">South Afri.</text>
<text x="220.00000000000006" y="0" font-size="10" text-anchor="start" dominant-baseline="middle" transform="rotate(-317.563672)" font-family="Arial">Australia</text>
<text x="220.00000000000003" y="0" font-size="10" text-anchor="start" dominant-baseline="middle" transform="rotate(-338.679542)" font-family="Arial">New Zealan.</text>
<text x="220.0" y="0" font-size="10" text-anchor="start" dominant-baseline="middle" transform="rotate(-353.416256)" font-family="Arial">Papua New .</text>
<text x="-295.0" y="-285.0" font-size="8" text-anchor="start" dominant-baseline="middle" font-family="Arial" font-weight="bold">Continents</text>
<circle cx="-290.5" cy="-274.5" r="4.5" fill="#8c564b" stroke="#333" stroke-width="0.5" />
<text x="-278.0" y="-271.0" font-size="6" text-anchor="start" dominant-baseline="middle" font-family="Arial">Africa</text>
<circle cx="-290.5" cy="-262.5" r="4.5" fill="#9467bd" stroke="#333" stroke-width="0.5" />
<text x="-278.0" y="-259.0" font-size="6" text-anchor="start" dominant-baseline="middle" font-family="Arial">Asia</text>
<circle cx="-290.5" cy="-250.5" r="4.5" fill="#ff7f0e" stroke="#333" stroke-width="0.5" />
<text x="-278.0" y="-247.0" font-size="6" text-anchor="start" dominant-baseline="middle" font-family="Arial">Central America</text>
<circle cx="-290.5" cy="-238.5" r="4.5" fill="#d62728" stroke="#333" stroke-width="0.5" />
<text x="-278.0" y="-235.0" font-size="6" text-anchor="start" dominant-baseline="middle" font-family="Arial">Europe</text>
<circle cx="-290.5" cy="-226.5" r="4.5" fill="#1f77b4" stroke="#333" stroke-width="0.5" />
<text x="-278.0" y="-223.0" font-size="6" text-anchor="start" dominant-baseline="middle" font-family="Arial">North America</text>
<circle cx="-290.5" cy="-214.5" r="4.5" fill="#e377c2" stroke="#333" stroke-width="0.5" />
<text x="-278.0" y="-211.0" font-size="6" text-anchor="start" dominant-baseline="middle" font-family="Arial">Oceania</text>
<circle cx="-290.5" cy="-202.5" r="4.5" fill="#2ca02c" stroke="#333" stroke-width="0.5" />
<text x="-278.0" y="-199.0" font-size="6" text-anchor="start" dominant-baseline="middle" font-family="Arial">South America</text>
</svg>