<?xml version="1.0" encoding="UTF-8"?>
<svg xmlns="http://www.w3.org/2000/svg" xmlns:xlink="http://www.w3.org/1999/xlink"
     width="600.0" height="600.0" viewBox="-300.0 -300.0 600.0 600.0">
<defs>
</defs>
<rect x="-300.0" y="-300.0" width="600.0" height="600.0" fill="#ffffff" fill-opacity="1.0" />
<path d="M200.0,-0.0 A200,200,0,0,0,193.3910064628343,-50.989397126186795 L206.92837691523272,-54.55865492501987 A214.0,214.0,0,0,1,214.0,-0.0 Z" fill="#1f77b4" fill-opacity="0.9" />
<path d="M192.87145152001898,-52.9207255105311 A200,200,0,0,0,177.32861452777692,-92.49087776456176 L189.74161754472132,-98.96523920808109 A214.0,214.0,0,0,1,206.3724531264203,-56.62517629626828 Z" fill="#1f77b4" fill-opacity="0.9" />
<path d="M176.3948548083608,-94.25950984986771 A200,200,0,0,0,44.271971715966394,-195.03843857142795 L47.37100973608405,-208.6911292714279 A214.0,214.0,0,0,1,188.74249464494608,-100.85767553935845 Z" fill="#1f77b4" fill-opacity="0.9" />
<path d="M42.31940625635681,-195.47139906929974 A200,200,0,0,0,35.37077731771952,-196.84742343231292 L37.84673172995989,-210.62674307257484 A214.0,214.0,0,0,1,45.281764694301785,-209.15439700415072 Z" fill="#ff7f0e" fill-opacity="0.9" />
<path d="M33.40056736700814,-197.19128302123792 A200,200,0,0,0,26.918621483189796,-198.1801902750241 L28.802924987013082,-212.05280359427582 A214.0,214.0,0,0,1,35.738607082698714,-210.99467283272458 Z" fill="#ff7f0e" fill-opacity="0.9" />
<path d="M24.935506690448012,-198.43946307650256 A200,200,0,0,0,17.724054352881367,-199.21309670123625 L18.964738157583064,-213.1580134703228 A214.0,214.0,0,0,1,26.680992158779375,-212.33022549185776 Z" fill="#ff7f0e" fill-opacity="0.9" />
<path d="M15.731070392553129,-199.38037371894092 A200,200,0,0,0,-46.801497793245936,-194.44695884561628 L-50.07760263877316,-208.05824596480943 A214.0,214.0,0,0,1,16.83224532003185,-213.33699987926678 Z" fill="#2ca02c" fill-opacity="0.9" />
<path d="M-48.74359491864856,-193.96922940097147 A200,200,0,0,0,-111.30024603049502,-166.1693570835227 L-119.09126325262967,-177.8012120793693 A214.0,214.0,0,0,1,-52.15564656295396,-207.5470754590395 Z" fill="#2ca02c" fill-opacity="0.9" />
<path d="M-112.95634694064927,-165.04806477454886 A200,200,0,0,0,-147.05588542848324,-135.55281834342216 L-157.34979740847706,-145.0415156274617 A214.0,214.0,0,0,1,-120.86329122649472,-176.60142930876728 Z" fill="#2ca02c" fill-opacity="0.9" />
<path d="M-148.40403828689568,-134.07550641389204 A200,200,0,0,0,-180.2193753044292,-86.72356522238518 L-192.83473157573926,-92.79421478795214 A214.0,214.0,0,0,1,-158.7923209669784,-143.46079186286448 Z" fill="#d62728" fill-opacity="0.9" />
<path d="M-181.0775856091237,-84.91706536362686 A200,200,0,0,0,-198.03505236577817,-27.966373280843904 L-211.89750603138265,-29.92401941050298 A214.0,214.0,0,0,1,-193.75301660176237,-90.86125993908075 Z" fill="#d62728" fill-opacity="0.9" />
<path d="M-198.30480976744374,-25.984657455851774 A200,200,0,0,0,-185.39621032037044,75.02163153947646 L-198.37394504279638,80.27314574723981 A214.0,214.0,0,0,1,-212.18614645116483,-27.8035834777614 Z" fill="#d62728" fill-opacity="0.9" />
<path d="M-184.6367367752506,76.87181169314816 A200,200,0,0,0,-134.89780501136556,147.65697478654909 L-144.34065136216117,157.99296302160752 A214.0,214.0,0,0,1,-197.56130834951816,82.25283851166854 Z" fill="#d62728" fill-opacity="0.9" />
<path d="M-133.41451503882953,148.99854756659184 A200,200,0,0,0,-68.60860848221965,187.86393704522828 L-73.41121107597503,201.01441263839428 A214.0,214.0,0,0,1,-142.75353109154761,159.42844589625327 Z" fill="#d62728" fill-opacity="0.9" />
<path d="M-66.72657002042975,188.54061857676368 A200,200,0,0,0,-58.853683848545856,191.14456282472545 L-62.97344171794407,204.52468222245625 A214.0,214.0,0,0,1,-71.39742992185984,201.73846187713715 Z" fill="#9467bd" fill-opacity="0.9" />
<path d="M-56.93932741789636,191.7235327058147 A200,200,0,0,0,-55.843106793484054,192.04569097913011 L-59.75212426902794,205.48888934766924 A214.0,214.0,0,0,1,-60.925080337149105,205.14417999522175 Z" fill="#9467bd" fill-opacity="0.9" />
<path d="M-53.919889759076135,192.59451053539684 A200,200,0,0,0,17.40303150424775,199.24139754193192 L18.621243709545094,213.18829536986718 A214.0,214.0,0,0,1,-57.69428204221147,206.07612627287463 Z" fill="#9467bd" fill-opacity="0.9" />
<path d="M19.394542128609498,199.0574081405201 A200,200,0,0,0,26.355661616098537,198.25584253882081 L28.200557929225436,212.1337515165383 A214.0,214.0,0,0,1,20.752160077612164,212.9914267103565 Z" fill="#8c564b" fill-opacity="0.9" />
<path d="M28.336869226912174,197.98237760572752 A200,200,0,0,0,57.427833392506,191.57777520329066 L61.44778172998143,204.98821946752102 A214.0,214.0,0,0,1,30.320450072796028,211.84114403812845 Z" fill="#8c564b" fill-opacity="0.9" />
<path d="M59.34070784732787,190.99392763168697 A200,200,0,0,0,118.83036026245036,160.87058612405272 L127.14848548082189,172.13152715273642 A214.0,214.0,0,0,1,63.49455739664082,204.36350256590507 Z" fill="#8c564b" fill-opacity="0.9" />
<path d="M120.4330978435599,159.67425886411223 A200,200,0,0,0,180.6664734958559,85.78825883867323 L193.31312664056583,91.79343695738037 A214.0,214.0,0,0,1,128.8634146926091,170.8514569846001 Z" fill="#e377c2" fill-opacity="0.9" />
<path d="M181.51530853787364,83.97733483744612 A200,200,0,0,0,199.20761559742812,17.785552788353627 L213.1521486892481,19.030541483538382 A214.0,214.0,0,0,1,194.2213801355248,89.85574827606736 Z" fill="#e377c2" fill-opacity="0.9" />
<path d="M199.3755078632907,15.79262056325385 A200,200,0,0,0,199.99000008333306,1.9999666668340497 L213.9893000891664,2.139964333512433 A214.0,214.0,0,0,1,213.33179341372104,16.89810400268162 Z" fill="#e377c2" fill-opacity="0.9" />
<path d="M193.0,-0.0 A193.0,193.0,0,0,0,190.80553682617523,-29.021494042779597 L195.748685448615,-29.773346220053682 A198.0,198.0,0,0,1,198.0,-0.0 Z" fill="#1f77b4" fill-opacity="0.6" />
<path d="M186.1209507168183,-51.06850011766251 A193.0,193.0,0,0,0,181.3454482890194,-66.05170993134534 L186.0435168975432,-67.76289412645792 A198.0,198.0,0,0,1,190.94273700481878,-52.39151825542579 Z" fill="#1f77b4" fill-opacity="0.6" />
<path d="M170.22103489006818,-90.96042700512234 A193.0,193.0,0,0,0,52.63852326657322,-185.68302525625336 L54.002215579178745,-190.49346632506823 A198.0,198.0,0,0,1,174.63090626027721,-93.31691475136904 Z" fill="#1f77b4" fill-opacity="0.6" />
<path d="M15.180482928813769,-192.40206063877798 A193.0,193.0,0,0,0,-40.15854300073917,-188.7757702250418 L-41.19891976241635,-193.6663342205092 A198.0,198.0,0,0,1,15.573759688627597,-197.3865699817515 Z" fill="#2ca02c" fill-opacity="0.6" />
<path d="M-47.03756909649586,-187.18030637193746 A193.0,193.0,0,0,0,-98.12298866984307,-166.19530406873068 L-100.66503500844003,-170.50088189434547 A198.0,198.0,0,0,1,-48.25615896946207,-192.02953710696175 Z" fill="#2ca02c" fill-opacity="0.6" />
<path d="M-109.00287479772655,-159.27138250743965 A193.0,193.0,0,0,0,-122.43715659422826,-149.19163074757387 L-125.6091036562549,-153.0566989016561 A198.0,198.0,0,0,1,-111.82678347124278,-163.39758412680337 Z" fill="#2ca02c" fill-opacity="0.6" />
<path d="M-143.20989694685434,-129.3828636894058 A193.0,193.0,0,0,0,-172.05295558780492,-87.44587167786042 L-176.5102860434475,-89.71130876796043 A198.0,198.0,0,0,1,-146.91999790402673,-132.7347513497531 Z" fill="#d62728" fill-opacity="0.6" />
<path d="M-174.73987011280437,-81.94496807589992 A193.0,193.0,0,0,0,-186.4469504750325,-49.86516478024293 L-191.277182352624,-51.15700842739948 A198.0,198.0,0,0,1,-179.26680975303248,-84.0678947099906 Z" fill="#d62728" fill-opacity="0.6" />
<path d="M-191.3641414255832,-25.07519444489696 A193.0,193.0,0,0,0,-192.65181601292826,11.587829258357074 L-197.6427957023824,11.888032088884458 A198.0,198.0,0,0,1,-196.3217616697693,-25.724810881293255 Z" fill="#d62728" fill-opacity="0.6" />
<path d="M-178.1744509881168,74.18129828388798 A193.0,193.0,0,0,0,-133.2271934267745,139.64066360349628 L-136.67867512176866,143.25829737560758 A198.0,198.0,0,0,1,-182.79036940749808,76.10309357621668 Z" fill="#d62728" fill-opacity="0.6" />
<path d="M-128.7450070124705,143.7835984017611 A193.0,193.0,0,0,0,-70.6188186357361,179.61620877441158 L-72.44832170920077,184.26947843177976 A198.0,198.0,0,0,1,-132.08036988844123,147.50856209092592 Z" fill="#d62728" fill-opacity="0.6" />
<path d="M-64.39114006971471,181.94169692657695 A193.0,193.0,0,0,0,-59.23035675367425,183.68659406399934 L-60.76482195454664,188.44531411747082 A198.0,198.0,0,0,1,-66.05930432022545,186.65521239099604 Z" fill="#9467bd" fill-opacity="0.6" />
<path d="M-54.946450958269985,185.01320906111118 A193.0,193.0,0,0,0,-54.11641967403072,185.25769382582786 L-55.518399458332034,190.05711594566796 A198.0,198.0,0,0,1,-56.369934143717394,189.80629737875657 Z" fill="#9467bd" fill-opacity="0.6" />
<path d="M-52.03269361750847,185.85370266665794 A193.0,193.0,0,0,0,11.40536476229787,192.6627043686425 L11.700840533341855,197.65396613985084 A198.0,198.0,0,0,1,-53.38069086148537,190.66856543004286 Z" fill="#9467bd" fill-opacity="0.6" />
<path d="M27.34507880397025,191.05299438952707 A193.0,193.0,0,0,0,32.99660937128085,190.15841756282865 L33.85144381095133,195.08480143751333 A198.0,198.0,0,0,1,28.053500534643053,196.00255382967023 Z" fill="#8c564b" fill-opacity="0.6" />
<path d="M57.263783072671394,184.3091401645779 A193.0,193.0,0,0,0,106.8375727074259,160.73186696478544 L109.60538547186698,164.8959049690545 A198.0,198.0,0,0,1,58.747300768854586,189.0839883553701 Z" fill="#8c564b" fill-opacity="0.6" />
<path d="M116.21793941903532,154.0856598038683 A193.0,193.0,0,0,0,171.1652113039538,89.17101793336693 L175.59954320301995,91.48114793164069 A198.0,198.0,0,0,1,119.22876686512431,158.0775162754711 Z" fill="#e377c2" fill-opacity="0.6" />
<path d="M175.16227273904806,81.03812811813552 A193.0,193.0,0,0,0,191.37188991860097,25.015989866141148 L196.32971090094813,25.664072505160348 A198.0,198.0,0,0,1,179.7001554524949,83.13756148907167 Z" fill="#e377c2" fill-opacity="0.6" />
<path d="M195.41362897423872,-31.898489166707794 A198.0,198.0,0,0,0,191.45709639820595,-50.47950315492493 C76.58283855928238,-20.19180126196997,21.405201314239626,-76.2525891802821,53.51300328559906,-190.63147295070524 A198.0,198.0,0,0,0,52.00911270724422,-191.04725121133035 C20.803645082897688,-76.41890048453214,78.1654515896955,-12.759395666683119,195.41362897423872,-31.898489166707794 Z" fill="#1f77b4" fill-opacity="0.6" />
<path d="M195.41401963477858,-31.896095845391006 A198.0,198.0,0,0,0,195.41362897423872,-31.898489166707794 C78.1654515896955,-12.759395666683119,-41.67226376648193,-67.35029645500276,-104.18065941620483,-168.3757411375069 A198.0,198.0,0,0,0,-104.4390778094637,-168.21557307903686 C-41.77563112378548,-67.28622923161474,78.16560785391144,-12.758438338156402,195.41401963477858,-31.896095845391006 Z" fill="#1f77b4" fill-opacity="0.6" />
<path d="M195.6314830739329,-30.53396191609431 A198.0,198.0,0,0,0,195.41401963477858,-31.896095845391006 C78.16560785391144,-12.758438338156402,-53.592240107473515,58.3139074343583,-133.9806002686838,145.78476858589573 A198.0,198.0,0,0,0,-133.96291812075387,145.8010170354521 C-53.58516724830155,58.32040681418084,78.25259322957316,-12.213584766437725,195.6314830739329,-30.53396191609431 Z" fill="#d62728" fill-opacity="0.6" />
<path d="M195.6550597779875,-30.382521015744118 A198.0,198.0,0,0,0,195.6314830739329,-30.53396191609431 C78.25259322957316,-12.213584766437725,-23.39433752948982,75.66600935397813,-58.48584382372455,189.1650233849453 A198.0,198.0,0,0,0,-58.48493787192933,189.16530348379578 C-23.393975148771734,75.66612139351831,78.262023911195,-12.153008406297648,195.6550597779875,-30.382521015744118 Z" fill="#9467bd" fill-opacity="0.6" />
<path d="M195.65556109507014,-30.379292496259335 A198.0,198.0,0,0,0,195.6550597779875,-30.382521015744118 C78.262023911195,-12.153008406297648,78.87027696808056,7.219377464730667,197.1756924202014,18.048443661826667 A198.0,198.0,0,0,0,197.21301805366573,17.635915348076306 C78.8852072214663,7.054366139230523,78.26222443802806,-12.151716998503735,195.65556109507014,-30.379292496259335 Z" fill="#1f77b4" fill-opacity="0.6" />
<path d="M195.748685448615,-29.773346220053682 A198.0,198.0,0,0,0,195.65556109507014,-30.379292496259335 C78.26222443802806,-12.151716998503735,79.19603369344016,0.7926204813727482,197.99008423360038,1.9815512034318705 A198.0,198.0,0,0,0,197.9901000824997,1.9799670001658851 C79.19604003299989,0.7919868000663541,78.29947417944601,-11.909338488021474,195.748685448615,-29.773346220053682 Z" fill="#e377c2" fill-opacity="0.6" />
<path d="M181.93416387286192,-78.12784404988165 A198.0,198.0,0,0,0,175.55532838249917,-91.56596898691615 C70.22213135299967,-36.62638759476646,21.6008862316715,-76.19738653002729,54.002215579178745,-190.49346632506823 A198.0,198.0,0,0,0,53.51300328559906,-190.63147295070524 C21.405201314239626,-76.2525891802821,72.77366554914477,-31.251137619952658,181.93416387286192,-78.12784404988165 Z" fill="#1f77b4" fill-opacity="0.6" />
<path d="M181.95368482555483,-78.08237047120598 A198.0,198.0,0,0,0,181.93416387286192,-78.12784404988165 C72.77366554914477,-31.251137619952658,7.391816564131263,-78.85430265928572,18.479541410328157,-197.13575664821428 A198.0,198.0,0,0,0,17.741165131527783,-197.20357770531413 C7.096466052611113,-78.88143108212566,72.78147393022194,-31.232948188482393,181.95368482555483,-78.08237047120598 Z" fill="#1f77b4" fill-opacity="0.6" />
<path d="M182.97567208242876,-75.65648304001122 A198.0,198.0,0,0,0,181.95368482555483,-78.08237047120598 C72.78147393022194,-31.232948188482393,-70.87608691668339,-35.34431076395099,-177.19021729170848,-88.36077690987749 A198.0,198.0,0,0,0,-177.2100795780541,-88.32093577368695 C-70.88403183122163,-35.32837430947478,73.19026883297151,-30.26259321600449,182.97567208242876,-75.65648304001122 Z" fill="#d62728" fill-opacity="0.6" />
<path d="M184.00760973142343,-73.11087170132885 A198.0,198.0,0,0,0,182.97567208242876,-75.65648304001122 C73.19026883297151,-30.26259321600449,-76.94393866310796,-18.7688652562663,-192.35984665776988,-46.922163140665745 A198.0,198.0,0,0,0,-192.36793097721778,-46.8890086432244 C-76.94717239088712,-18.755603457289762,73.60304389256937,-29.24434868053154,184.00760973142343,-73.11087170132885 Z" fill="#d62728" fill-opacity="0.6" />
<path d="M185.56900932251807,-69.05173986989172 A198.0,198.0,0,0,0,184.00760973142343,-73.11087170132885 C73.60304389256937,-29.24434868053154,-75.28066648958044,24.606122264277253,-188.2016662239511,61.51530566069313 A198.0,198.0,0,0,0,-188.17306066267003,61.60275351673091 C-75.26922426506802,24.641101406692364,74.22760372900723,-27.62069594795669,185.56900932251807,-69.05173986989172 Z" fill="#d62728" fill-opacity="0.6" />
<path d="M185.80738061700222,-68.40772842485319 A198.0,198.0,0,0,0,185.56900932251807,-69.05173986989172 C74.22760372900723,-27.62069594795669,6.886784845766425,78.90001390676761,17.216962114416063,197.25003476691901 A198.0,198.0,0,0,0,17.227141211566234,197.24914602014567 C6.890856484626494,78.89965840805827,74.3229522468009,-27.363091369941277,185.80738061700222,-68.40772842485319 Z" fill="#9467bd" fill-opacity="0.6" />
<path d="M185.88634118621877,-68.19287470403825 A198.0,198.0,0,0,0,185.80738061700222,-68.40772842485319 C74.3229522468009,-27.363091369941277,46.994312185337066,63.7508793839511,117.48578046334265,159.37719845987775 A198.0,198.0,0,0,0,117.48844500217402,159.37523424601181 C46.99537800086961,63.750093698404726,74.35453647448752,-27.2771498816153,185.88634118621877,-68.19287470403825 Z" fill="#8c564b" fill-opacity="0.6" />
<path d="M185.92572831217132,-68.08541364777523 A198.0,198.0,0,0,0,185.88634118621877,-68.19287470403825 C74.35453647448752,-27.2771498816153,71.33903183497885,34.400327568903684,178.34757958744711,86.0008189222592 A198.0,198.0,0,0,0,178.3485974957425,85.99870796297833 C71.339438998297,34.399483185191336,74.37029132486853,-27.23416545911009,185.92572831217132,-68.08541364777523 Z" fill="#e377c2" fill-opacity="0.6" />
<path d="M186.0435168975432,-67.76289412645792 A198.0,198.0,0,0,0,185.92572831217132,-68.08541364777523 C74.37029132486853,-27.23416545911009,79.19602967023677,0.7930223647403863,197.9900741755919,1.9825559118509657 A198.0,198.0,0,0,0,197.99008423360038,1.9815512034318705 C79.19603369344016,0.7926204813727482,74.41740675901728,-27.10515765058317,186.0435168975432,-67.76289412645792 Z" fill="#e377c2" fill-opacity="0.6" />
<path d="M45.38267763252846,-192.72885764955387 A198.0,198.0,0,0,0,43.82925199880669,-193.08805418571367 C17.531700799522678,-77.23522167428547,16.758484877517297,-77.4066740314427,41.89621219379324,-193.51668507860674 A198.0,198.0,0,0,0,35.09089108286648,-194.8656700473698 C14.036356433146592,-77.94626801894793,18.153071053011384,-77.09154305982156,45.38267763252846,-192.72885764955387 Z" fill="#1f77b4" fill-opacity="0.6" />
<path d="M46.27319096891017,-192.5169909321117 A198.0,198.0,0,0,0,45.38267763252846,-192.72885764955387 C18.153071053011384,-77.09154305982156,13.226624677335224,-78.08774807641022,33.06656169333806,-195.21937019102555 A198.0,198.0,0,0,0,29.233015767036388,-195.8301069528488 C11.693206306814556,-78.33204278113953,18.509276387564068,-77.00679637284469,46.27319096891017,-192.5169909321117 Z" fill="#1f77b4" fill-opacity="0.6" />
<path d="M47.65623696106255,-192.17929929810614 A198.0,198.0,0,0,0,46.27319096891017,-192.5169909321117 C18.509276387564068,-77.00679637284469,9.874460649417413,-78.58202737829502,24.68615162354353,-196.45506844573754 A198.0,198.0,0,0,0,18.479541410328157,-197.13575664821428 C7.391816564131263,-78.85430265928572,19.06249478442502,-76.87171971924246,47.65623696106255,-192.17929929810614 Z" fill="#1f77b4" fill-opacity="0.6" />
<path d="M47.71426395077601,-192.1649005818588 A198.0,198.0,0,0,0,47.65623696106255,-192.17929929810614 C19.06249478442502,-76.87171971924246,-16.47956790496654,-77.4665336882037,-41.19891976241635,-193.6663342205092 A198.0,198.0,0,0,0,-43.60959486978465,-193.13778303401241 C-17.44383794791386,-77.25511321360497,19.085705580310403,-76.86596023274353,47.71426395077601,-192.1649005818588 Z" fill="#1f77b4" fill-opacity="0.6" />
<path d="M47.76041594213208,-192.15343522569285 A198.0,198.0,0,0,0,47.71426395077601,-192.1649005818588 C19.085705580310403,-76.86596023274353,-40.99799192887861,-67.76285603337277,-102.49497982219653,-169.40714008343193 A198.0,198.0,0,0,0,-104.18065941620483,-168.3757411375069 C-41.67226376648193,-67.35029645500276,19.10416637685283,-76.86137409027714,47.76041594213208,-192.15343522569285 Z" fill="#1f77b4" fill-opacity="0.6" />
<path d="M48.668468853952106,-191.92545464167043 A198.0,198.0,0,0,0,47.76041594213208,-192.15343522569285 C19.10416637685283,-76.86137409027714,-50.63898809321418,-60.89608267282316,-126.59747023303544,-152.2402066820579 A198.0,198.0,0,0,0,-145.39038000097182,-134.40847221500962 C-58.15615200038873,-53.76338888600385,19.467387541580845,-76.77018185666817,48.668468853952106,-191.92545464167043 Z" fill="#1f77b4" fill-opacity="0.6" />
<path d="M48.697181371371286,-191.9181714337748 A198.0,198.0,0,0,0,48.668468853952106,-191.92545464167043 C19.467387541580845,-76.77018185666817,-70.61239379966092,-35.86822886457609,-176.53098449915228,-89.67057216144022 A198.0,198.0,0,0,0,-177.19021729170848,-88.36077690987749 C-70.87608691668339,-35.34431076395099,19.478872548548516,-76.76726857350992,48.697181371371286,-191.9181714337748 Z" fill="#1f77b4" fill-opacity="0.6" />
<path d="M48.79486273213701,-191.89335937168826 A198.0,198.0,0,0,0,48.697181371371286,-191.9181714337748 C19.478872548548516,-76.76726857350992,-76.58335858858041,-20.189828807914854,-191.458396471451,-50.47457201978713 A198.0,198.0,0,0,0,-192.35984665776988,-46.922163140665745 C-76.94393866310796,-18.7688652562663,19.517945092854806,-76.75734374867531,48.79486273213701,-191.89335937168826 Z" fill="#1f77b4" fill-opacity="0.6" />
<path d="M48.835899790918006,-191.88291974954785 A198.0,198.0,0,0,0,48.79486273213701,-191.89335937168826 C19.517945092854806,-76.75734374867531,-75.59991498959434,23.607050929036205,-188.99978747398583,59.017627322590506 A198.0,198.0,0,0,0,-188.2016662239511,61.51530566069313 C-75.28066648958044,24.606122264277253,19.534359916367205,-76.75316789981915,48.835899790918006,-191.88291974954785 Z" fill="#1f77b4" fill-opacity="0.6" />
<path d="M49.21383137548643,-191.78633632598851 A198.0,198.0,0,0,0,48.835899790918006,-191.88291974954785 C19.534359916367205,-76.75316789981915,-54.31782058000538,57.638653414512945,-135.79455145001344,144.09663353628235 A198.0,198.0,0,0,0,-133.9806002686838,145.78476858589573 C-53.592240107473515,58.3139074343583,19.685532550194573,-76.71453453039541,49.21383137548643,-191.78633632598851 Z" fill="#1f77b4" fill-opacity="0.6" />
<path d="M49.26412839797891,-191.77342269769147 A198.0,198.0,0,0,0,49.21383137548643,-191.78633632598851 C19.685532550194573,-76.71453453039541,-28.06831130118439,74.05950243351494,-70.17077825296097,185.14875608378733 A198.0,198.0,0,0,0,-67.94855269335893,185.97578924924025 C-27.179421077343576,74.3903156996961,19.705651359191563,-76.7093690790766,49.26412839797891,-191.77342269769147 Z" fill="#1f77b4" fill-opacity="0.6" />
<path d="M51.52749922370151,-191.17771005991113 A198.0,198.0,0,0,0,49.26412839797891,-191.77342269769147 C19.705651359191563,-76.7093690790766,-24.13364566941644,75.43346171761613,-60.33411417354109,188.58365429404031 A198.0,198.0,0,0,0,-58.48584382372455,189.1650233849453 C-23.39433752948982,75.66600935397813,20.610999689480607,-76.47108402396445,51.52749922370151,-191.17771005991113 Z" fill="#1f77b4" fill-opacity="0.6" />
<path d="M51.53482365270265,-191.17573578015813 A198.0,198.0,0,0,0,51.52749922370151,-191.17771005991113 C20.610999689480607,-76.47108402396445,-22.207211354852415,76.02288973619007,-55.51802838713103,190.05722434047516 A198.0,198.0,0,0,0,-55.44056050515138,190.07983651843415 C-22.176224202060553,76.03193460737366,20.61392946108106,-76.47029431206326,51.53482365270265,-191.17573578015813 Z" fill="#1f77b4" fill-opacity="0.6" />
<path d="M51.65182451178649,-191.14415770460684 A198.0,198.0,0,0,0,51.53482365270265,-191.17573578015813 C20.61392946108106,-76.47029431206326,4.781318660728801,79.05554371367367,11.953296651822003,197.63885928418415 A198.0,198.0,0,0,0,17.216962114416063,197.25003476691901 C6.886784845766425,78.90001390676761,20.660729804714595,-76.45766308184274,51.65182451178649,-191.14415770460684 Z" fill="#1f77b4" fill-opacity="0.6" />
<path d="M51.689962611812035,-191.13384777477137 A198.0,198.0,0,0,0,51.65182451178649,-191.14415770460684 C20.660729804714595,-76.45766308184274,10.368918089851029,78.51831339022738,25.922295224627568,196.29578347556844 A198.0,198.0,0,0,0,26.09210499993755,196.2732841134326 C10.436841999975021,78.50931364537304,20.675985044724815,-76.45353910990855,51.689962611812035,-191.13384777477137 Z" fill="#1f77b4" fill-opacity="0.6" />
<path d="M51.7644451522131,-191.11368924826792 A198.0,198.0,0,0,0,51.689962611812035,-191.13384777477137 C20.675985044724815,-76.45353910990855,20.769882074706274,76.42808383443088,51.92470518676568,191.0702095860772 A198.0,198.0,0,0,0,53.35939373538436,190.674526615886 C21.343757494153746,76.2698106463544,20.70577806088524,-76.44547569930717,51.7644451522131,-191.11368924826792 Z" fill="#1f77b4" fill-opacity="0.6" />
<path d="M51.816680271458594,-191.09953334753445 A198.0,198.0,0,0,0,51.7644451522131,-191.11368924826792 C20.70577806088524,-76.44547569930717,46.25357585622203,64.29033146992411,115.63393964055506,160.7258286748103 A198.0,198.0,0,0,0,117.48578046334265,159.37719845987775 C46.994312185337066,63.7508793839511,20.72667210858344,-76.43981333901378,51.816680271458594,-191.09953334753445 Z" fill="#1f77b4" fill-opacity="0.6" />
<path d="M51.86586615062418,-191.08618978996242 A198.0,198.0,0,0,0,51.816680271458594,-191.09953334753445 C20.72667210858344,-76.43981333901378,70.79985816123455,35.49676160368816,176.99964540308636,88.74190400922039 A198.0,198.0,0,0,0,178.34757958744711,86.0008189222592 C71.33903183497885,34.400327568903684,20.746346460249672,-76.43447591598498,51.86586615062418,-191.08618978996242 Z" fill="#1f77b4" fill-opacity="0.6" />
<path d="M51.965744140523455,-191.0590522218763 A198.0,198.0,0,0,0,51.86586615062418,-191.08618978996242 C20.746346460249672,-76.43447591598498,78.69268313949551,8.94995085500244,196.73170784873878,22.3748771375061 A198.0,198.0,0,0,0,197.1756924202014,18.048443661826667 C78.87027696808056,7.219377464730667,20.786297656209385,-76.42362088875052,51.965744140523455,-191.0590522218763 Z" fill="#1f77b4" fill-opacity="0.6" />
<path d="M52.00911270724422,-191.04725121133035 A198.0,198.0,0,0,0,51.965744140523455,-191.0590522218763 C20.786297656209385,-76.42362088875052,79.19433803525676,0.947007474883622,197.9858450881419,2.367518687209055 A198.0,198.0,0,0,0,197.9900741755919,1.9825559118509657 C79.19602967023677,0.7930223647403863,20.803645082897688,-76.41890048453214,52.00911270724422,-191.04725121133035 Z" fill="#1f77b4" fill-opacity="0.6" />
<path d="M35.05398094250548,-194.87231311831462 A198.0,198.0,0,0,0,35.01706954454232,-194.87894919798978 C14.00682781781693,-77.95157967919592,-54.319268289668095,57.63728907985748,-135.79817072417023,144.0932226996437 A198.0,198.0,0,0,0,-135.79455145001344,144.09663353628235 C-54.31782058000538,57.638653414512945,14.021592377002193,-77.94892524732586,35.05398094250548,-194.87231311831462 Z" fill="#d62728" fill-opacity="0.6" />
<path d="M35.09089108286648,-194.8656700473698 A198.0,198.0,0,0,0,35.05398094250548,-194.87231311831462 C14.021592377002193,-77.94892524732586,4.77981993139953,79.05563434331165,11.949549828498824,197.63908585827912 A198.0,198.0,0,0,0,11.953296651822003,197.63885928418415 C4.781318660728801,79.05554371367367,14.036356433146592,-77.94626801894793,35.09089108286648,-194.8656700473698 Z" fill="#9467bd" fill-opacity="0.6" />
<path d="M27.037278453849392,-196.1453174914176 A198.0,198.0,0,0,0,26.649435268357898,-196.19838837227385 C10.65977410734316,-78.47935534890955,-70.60411441737901,-35.88452350718418,-176.5102860434475,-89.71130876796043 A198.0,198.0,0,0,0,-176.53098449915228,-89.67057216144022 C-70.61239379966092,-35.86822886457609,10.814911381539758,-78.45812699656705,27.037278453849392,-196.1453174914176 Z" fill="#d62728" fill-opacity="0.6" />
<path d="M27.780347868776932,-196.0414554942136 A198.0,198.0,0,0,0,27.037278453849392,-196.1453174914176 C10.814911381539758,-78.45812699656705,-75.61296551611176,23.565216864253454,-189.03241379027938,58.91304216063363 A198.0,198.0,0,0,0,-188.99978747398583,59.017627322590506 C-75.59991498959434,23.607050929036205,11.112139147510774,-78.41658219768544,27.780347868776932,-196.0414554942136 Z" fill="#d62728" fill-opacity="0.6" />
<path d="M28.52301837914617,-195.93477849157586 A198.0,198.0,0,0,0,27.780347868776932,-196.0414554942136 C11.112139147510774,-78.41658219768544,-54.348979354243525,57.60927393356049,-135.8724483856088,144.0231848339012 A198.0,198.0,0,0,0,-135.79817072417023,144.0932226996437 C-54.319268289668095,57.63728907985748,11.409207351658468,-78.37391139663035,28.52301837914617,-195.93477849157586 Z" fill="#d62728" fill-opacity="0.6" />
<path d="M29.168486279916475,-195.83972888088445 A198.0,198.0,0,0,0,28.52301837914617,-195.93477849157586 C11.409207351658468,-78.37391139663035,-28.094584946407053,74.04953947654988,-70.23646236601763,185.1238486913747 A198.0,198.0,0,0,0,-70.17077825296097,185.14875608378733 C-28.06831130118439,74.05950243351494,11.667394511966592,-78.33589155235379,29.168486279916475,-195.83972888088445 Z" fill="#d62728" fill-opacity="0.6" />
<path d="M29.200751419791146,-195.83492057475237 A198.0,198.0,0,0,0,29.168486279916475,-195.83972888088445 C11.667394511966592,-78.33589155235379,4.778482279005206,79.05571520838474,11.946205697513014,197.63928802096183 A198.0,198.0,0,0,0,11.949549828498824,197.63908585827912 C4.77981993139953,79.05563434331165,11.68030056791646,-78.33396822990096,29.200751419791146,-195.83492057475237 Z" fill="#9467bd" fill-opacity="0.6" />
<path d="M29.233015767036388,-195.8301069528488 A198.0,198.0,0,0,0,29.200751419791146,-195.83492057475237 C11.68030056791646,-78.33396822990096,79.19433488346505,0.9472710095815652,197.9858372086626,2.368177523953913 A198.0,198.0,0,0,0,197.9858450881419,2.367518687209055 C79.19433803525676,0.947007474883622,11.693206306814556,-78.33204278113953,29.233015767036388,-195.8301069528488 Z" fill="#e377c2" fill-opacity="0.6" />
<path d="M17.585685443140004,-197.2175034511261 A198.0,198.0,0,0,0,17.546813809352553,-197.2209657342239 C7.018725523741022,-78.88838629368956,-40.99672644862528,-67.7636216601252,-102.4918161215632,-169.40905415031298 A198.0,198.0,0,0,0,-102.49497982219653,-169.40714008343193 C-40.99799192887861,-67.76285603337277,7.034274177256002,-78.88700138045044,17.585685443140004,-197.2175034511261 Z" fill="#2ca02c" fill-opacity="0.6" />
<path d="M17.624556393761292,-197.2140335065513 A198.0,198.0,0,0,0,17.585685443140004,-197.2175034511261 C7.034274177256002,-78.88700138045044,-54.350473254201944,57.60786454160821,-135.87618313550485,144.0196613540205 A198.0,198.0,0,0,0,-135.8724483856088,144.0231848339012 C-54.348979354243525,57.60927393356049,7.049822557504517,-78.88561340262052,17.624556393761292,-197.2140335065513 Z" fill="#d62728" fill-opacity="0.6" />
<path d="M17.741165131527783,-197.20357770531413 A198.0,198.0,0,0,0,17.624556393761292,-197.2140335065513 C7.049822557504517,-78.88561340262052,4.773840253060381,79.05599565648555,11.934600632650954,197.63998914121385 A198.0,198.0,0,0,0,11.946205697513014,197.63928802096183 C4.778482279005206,79.05571520838474,7.096466052611113,-78.88143108212566,17.741165131527783,-197.20357770531413 Z" fill="#9467bd" fill-opacity="0.6" />
<path d="M-43.930514478246174,-193.06504058911494 A198.0,198.0,0,0,0,-46.33348281531351,-192.50248925716014 C-18.533393126125404,-77.00099570286406,-40.266014003376014,-68.20035275773819,-100.66503500844003,-170.50088189434547 A198.0,198.0,0,0,0,-102.4918161215632,-169.40905415031298 C-40.99672644862528,-67.7636216601252,-17.57220579129847,-77.22601623564599,-43.930514478246174,-193.06504058911494 Z" fill="#2ca02c" fill-opacity="0.6" />
<path d="M-43.60959486978465,-193.13778303401241 A198.0,198.0,0,0,0,-43.930514478246174,-193.06504058911494 C-17.57220579129847,-77.22601623564599,-50.5074409453193,-61.005232637496626,-126.26860236329824,-152.51308159374156 A198.0,198.0,0,0,0,-126.59747023303544,-152.2402066820579 C-50.63898809321418,-60.89608267282316,-17.44383794791386,-77.25511321360497,-43.60959486978465,-193.13778303401241 Z" fill="#2ca02c" fill-opacity="0.6" />
<path d="M-110.0609101730243,-164.59221139496694 A198.0,198.0,0,0,0,-110.18724357019008,-164.50766351268746 C-44.074897428076035,-65.80306540507499,-50.24364146250196,-61.22267956066244,-125.6091036562549,-153.0566989016561 A198.0,198.0,0,0,0,-126.26860236329824,-152.51308159374156 C-50.5074409453193,-61.005232637496626,-44.024364069209724,-65.83688455798678,-110.0609101730243,-164.59221139496694 Z" fill="#2ca02c" fill-opacity="0.6" />
<path d="M-109.30155003477503,-165.09745958068396 A198.0,198.0,0,0,0,-110.0609101730243,-164.59221139496694 C-44.024364069209724,-65.83688455798678,-76.58254464494904,-20.192915978243118,-191.4563616123726,-50.48228994560779 A198.0,198.0,0,0,0,-191.458396471451,-50.47457201978713 C-76.58335858858041,-20.189828807914854,-43.720620013910015,-66.03898383227359,-109.30155003477503,-165.09745958068396 Z" fill="#d62728" fill-opacity="0.6" />
<path d="M-105.47028286885629,-167.57093850534895 A198.0,198.0,0,0,0,-109.30155003477503,-165.09745958068396 C-43.720620013910015,-66.03898383227359,-75.62104899244842,23.53926399192879,-189.05262248112106,58.84815997982197 A198.0,198.0,0,0,0,-189.03241379027938,58.91304216063363 C-75.61296551611176,23.565216864253454,-42.188113147542516,-67.02837540213959,-105.47028286885629,-167.57093850534895 Z" fill="#d62728" fill-opacity="0.6" />
<path d="M-105.34159902944712,-167.65186403353582 A198.0,198.0,0,0,0,-105.47028286885629,-167.57093850534895 C-42.188113147542516,-67.02837540213959,-54.35108740247242,57.60728511367987,-135.87771850618105,144.01821278419968 A198.0,198.0,0,0,0,-135.87618313550485,144.0196613540205 C-54.350473254201944,57.60786454160821,-42.136639611778854,-67.06074561341433,-105.34159902944712,-167.65186403353582 Z" fill="#d62728" fill-opacity="0.6" />
<path d="M-104.4390778094637,-168.21557307903686 A198.0,198.0,0,0,0,-105.34159902944712,-167.65186403353582 C-42.136639611778854,-67.06074561341433,-24.13564627579859,75.4328216285824,-60.33911568949647,188.582054071456 A198.0,198.0,0,0,0,-60.33411417354109,188.58365429404031 C-24.13364566941644,75.43346171761613,-41.77563112378548,-67.28622923161474,-104.4390778094637,-168.21557307903686 Z" fill="#9467bd" fill-opacity="0.6" />
<path d="M-145.58442586872312,-134.19826729311472 A198.0,198.0,0,0,0,-145.5853265741984,-134.19729015998794 C-58.23413062967936,-53.67891606399518,-76.56471593512234,-20.260411490737926,-191.41178983780583,-50.651028726844814 A198.0,198.0,0,0,0,-191.4563616123726,-50.48228994560779 C-76.58254464494904,-20.192915978243118,-58.23377034748925,-53.679306917245896,-145.58442586872312,-134.19826729311472 Z" fill="#2ca02c" fill-opacity="0.6" />
<path d="M-145.3911857979001,-134.40760057482052 A198.0,198.0,0,0,0,-145.58442586872312,-134.19826729311472 C-58.23377034748925,-53.679306917245896,4.772051134498848,79.05610367308604,11.930127836247118,197.64025918271508 A198.0,198.0,0,0,0,11.934600632650954,197.63998914121385 C4.773840253060381,79.05599565648555,-58.15647431916005,-53.76304022992821,-145.3911857979001,-134.40760057482052 Z" fill="#9467bd" fill-opacity="0.6" />
<path d="M-145.39038000097182,-134.40847221500962 A198.0,198.0,0,0,0,-145.3911857979001,-134.40760057482052 C-58.15647431916005,-53.76304022992821,20.737965401249028,76.43675026462466,51.84491350312256,191.09187566156166 A198.0,198.0,0,0,0,51.92470518676568,191.0702095860772 C20.769882074706274,76.42808383443088,-58.15615200038873,-53.76338888600385,-145.39038000097182,-134.40847221500962 Z" fill="#2ca02c" fill-opacity="0.6" />
<path d="M-178.41409098848268,-85.86275174226262 A198.0,198.0,0,0,0,-178.4171815513849,-85.85632957016132 C-71.36687262055396,-34.34253182806453,-76.51087294104961,-20.462803370959794,-191.277182352624,-51.15700842739948 A198.0,198.0,0,0,0,-191.41178983780583,-50.651028726844814 C-76.56471593512234,-20.260411490737926,-71.36563639539308,-34.34510069690505,-178.41409098848268,-85.86275174226262 Z" fill="#d62728" fill-opacity="0.6" />
<path d="M-178.2320117417308,-86.24007183725867 A198.0,198.0,0,0,0,-178.41409098848268,-85.86275174226262 C-71.36563639539308,-34.34510069690505,-79.04908617895626,4.886918688902951,-197.62271544739062,12.217296722257377 A198.0,198.0,0,0,0,-189.05262248112106,58.84815997982197 C-75.62104899244842,23.53926399192879,-71.29280469669231,-34.49602873490347,-178.2320117417308,-86.24007183725867 Z" fill="#d62728" fill-opacity="0.6" />
<path d="M-177.7733242695667,-87.18167914273897 A198.0,198.0,0,0,0,-178.2320117417308,-86.24007183725867 C-71.29280469669231,-34.49602873490347,-54.59093145815641,57.38005056228923,-136.47732864539103,143.45012640572307 A198.0,198.0,0,0,0,-135.87771850618105,144.01821278419968 C-54.35108740247242,57.60728511367987,-71.10932970782669,-34.87267165709559,-177.7733242695667,-87.18167914273897 Z" fill="#d62728" fill-opacity="0.6" />
<path d="M-177.40279202500523,-87.93320977726643 A198.0,198.0,0,0,0,-177.7733242695667,-87.18167914273897 C-71.10932970782669,-34.87267165709559,-28.36043690355993,73.9481278913753,-70.90109225889982,184.87031972843823 A198.0,198.0,0,0,0,-70.23646236601763,185.1238486913747 C-28.094584946407053,74.04953947654988,-70.9611168100021,-35.17328391090657,-177.40279202500523,-87.93320977726643 Z" fill="#d62728" fill-opacity="0.6" />
<path d="M-177.3984491463108,-87.94197086990818 A198.0,198.0,0,0,0,-177.40279202500523,-87.93320977726643 C-70.9611168100021,-35.17328391090657,10.334953221445014,78.52279122592716,25.837383053612534,196.3069780648179 A198.0,198.0,0,0,0,25.922295224627568,196.29578347556844 C10.368918089851029,78.51831339022738,-70.95937965852433,-35.176788347963274,-177.3984491463108,-87.94197086990818 Z" fill="#d62728" fill-opacity="0.6" />
<path d="M-177.39656408167295,-87.9457733607301 A198.0,198.0,0,0,0,-177.3984491463108,-87.94197086990818 C-70.95937965852433,-35.176788347963274,20.674121211456868,76.45404313791384,51.68530302864217,191.13510784478459 A198.0,198.0,0,0,0,51.84491350312256,191.09187566156166 C20.737965401249028,76.43675026462466,-70.95862563266918,-35.17830934429204,-177.39656408167295,-87.9457733607301 Z" fill="#d62728" fill-opacity="0.6" />
<path d="M-177.2100795780541,-88.32093577368695 A198.0,198.0,0,0,0,-177.39656408167295,-87.9457733607301 C-70.95862563266918,-35.17830934429204,70.74501187930348,35.60594464688743,176.86252969825867,89.01486161721857 A198.0,198.0,0,0,0,176.99964540308636,88.74190400922039 C70.79985816123455,35.49676160368816,-70.88403183122163,-35.32837430947478,-177.2100795780541,-88.32093577368695 Z" fill="#e377c2" fill-opacity="0.6" />
<path d="M-192.41249641863095,-46.70579430809765 A198.0,198.0,0,0,0,-196.05470184212038,-27.686709548035466 C-78.42188073684815,-11.074683819214187,-79.05711828095296,4.755212835553784,-197.6427957023824,11.888032088884458 A198.0,198.0,0,0,0,-197.62271544739062,12.217296722257377 C-79.04908617895626,4.886918688902951,-76.96499856745238,-18.682317723239063,-192.41249641863095,-46.70579430809765 Z" fill="#d62728" fill-opacity="0.6" />
<path d="M-192.37125304858213,-46.87537733734402 A198.0,198.0,0,0,0,-192.41249641863095,-46.70579430809765 C-76.96499856745238,-18.682317723239063,-54.59173400440922,57.379287015366714,-136.47933501102304,143.44821753841677 A198.0,198.0,0,0,0,-136.47732864539103,143.45012640572307 C-54.59093145815641,57.38005056228923,-76.94850121943286,-18.750150934937608,-192.37125304858213,-46.87537733734402 Z" fill="#d62728" fill-opacity="0.6" />
<path d="M-192.36793097721778,-46.8890086432244 A198.0,198.0,0,0,0,-192.37125304858213,-46.87537733734402 C-76.94850121943286,-18.750150934937608,20.386644552301206,76.53120098298555,50.966611380753015,191.32800245746387 A198.0,198.0,0,0,0,51.68530302864217,191.13510784478459 C20.674121211456868,76.45404313791384,-76.94717239088712,-18.755603457289762,-192.36793097721778,-46.8890086432244 Z" fill="#d62728" fill-opacity="0.6" />
<path d="M-187.2172646380929,64.4491723874736 A198.0,198.0,0,0,0,-183.54224821716673,74.2714152240817 C-73.4168992868667,29.70856608963268,-54.67147004870747,57.30331895024304,-136.67867512176866,143.25829737560758 A198.0,198.0,0,0,0,-136.47933501102304,143.44821753841677 C-54.59173400440922,57.379287015366714,-74.88690585523716,25.77966895498944,-187.2172646380929,64.4491723874736 Z" fill="#d62728" fill-opacity="0.6" />
<path d="M-187.2224974372013,64.43396971611442 A198.0,198.0,0,0,0,-187.2172646380929,64.4491723874736 C-74.88690585523716,25.77966895498944,-28.802708359980233,73.77698822214096,-72.00677089995058,184.44247055535237 A198.0,198.0,0,0,0,-70.90109225889982,184.87031972843823 C-28.36043690355993,73.9481278913753,-74.88899897488052,25.773587886445767,-187.2224974372013,64.43396971611442 Z" fill="#d62728" fill-opacity="0.6" />
<path d="M-187.22689064869223,64.42120317118152 A198.0,198.0,0,0,0,-187.2224974372013,64.43396971611442 C-74.88899897488052,25.773587886445767,-24.305928781818658,75.37812564698832,-60.76482195454664,188.44531411747082 A198.0,198.0,0,0,0,-60.33911568949647,188.582054071456 C-24.13564627579859,75.4328216285824,-74.8907562594769,25.76848126847261,-187.22689064869223,64.42120317118152 Z" fill="#d62728" fill-opacity="0.6" />
<path d="M-187.53383637410002,63.52212382164401 A198.0,198.0,0,0,0,-187.22689064869223,64.42120317118152 C-74.8907562594769,25.76848126847261,7.691604372966437,78.82562541565886,19.22901093241609,197.06406353914716 A198.0,198.0,0,0,0,25.837383053612534,196.3069780648179 C10.334953221445014,78.52279122592716,-75.01353454964001,25.408849528657605,-187.53383637410002,63.52212382164401 Z" fill="#d62728" fill-opacity="0.6" />
<path d="M-187.54745814045015,63.48189462402725 A198.0,198.0,0,0,0,-187.53383637410002,63.52212382164401 C-75.01353454964001,25.408849528657605,19.87486656117578,76.66570080013263,49.68716640293944,191.66425200033157 A198.0,198.0,0,0,0,50.966611380753015,191.32800245746387 C20.386644552301206,76.53120098298555,-75.01898325618006,25.392757849610902,-187.54745814045015,63.48189462402725 Z" fill="#d62728" fill-opacity="0.6" />
<path d="M-187.55193464442212,63.46866794832245 A198.0,198.0,0,0,0,-187.54745814045015,63.48189462402725 C-75.01898325618006,25.392757849610902,45.94310255191016,64.51256720906918,114.85775637977538,161.28141802267294 A198.0,198.0,0,0,0,115.63393964055506,160.7258286748103 C46.25357585622203,64.29033146992411,-75.02077385776884,25.38746717932898,-187.55193464442212,63.46866794832245 Z" fill="#d62728" fill-opacity="0.6" />
<path d="M-188.17306066267003,61.60275351673091 A198.0,198.0,0,0,0,-187.55193464442212,63.46866794832245 C-75.02077385776884,25.38746717932898,70.74158855265084,35.61274559827508,176.85397138162708,89.0318639956877 A198.0,198.0,0,0,0,176.86252969825867,89.01486161721857 C70.74501187930348,35.60594464688743,-75.26922426506802,24.641101406692364,-188.17306066267003,61.60275351673091 Z" fill="#e377c2" fill-opacity="0.6" />
<path d="M-133.55325141891709,146.17636277947102 A198.0,198.0,0,0,0,-133.5488269612519,146.1804050386836 C-53.419530784500765,58.472162015473444,-28.979328683680308,73.70779137271191,-72.44832170920077,184.26947843177976 A198.0,198.0,0,0,0,-72.00677089995058,184.44247055535237 C-28.802708359980233,73.77698822214096,-53.42130056756684,58.47054511178841,-133.55325141891709,146.17636277947102 Z" fill="#d62728" fill-opacity="0.6" />
<path d="M-133.90350028752087,145.8555882054229 A198.0,198.0,0,0,0,-133.55325141891709,146.17636277947102 C-53.42130056756684,58.47054511178841,13.670900292230627,78.01119461461855,34.17725073057657,195.02798653654636 A198.0,198.0,0,0,0,49.68716640293944,191.66425200033157 C19.87486656117578,76.66570080013263,-53.561400115008354,58.342235282169156,-133.90350028752087,145.8555882054229 Z" fill="#d62728" fill-opacity="0.6" />
<path d="M-133.96291812075387,145.8010170354521 A198.0,198.0,0,0,0,-133.90350028752087,145.8555882054229 C-53.561400115008354,58.342235282169156,43.99461670372036,65.85676655509842,109.98654175930089,164.64191638774605 A198.0,198.0,0,0,0,114.85775637977538,161.28141802267294 C45.94310255191016,64.51256720906918,-53.58516724830155,58.32040681418084,-133.96291812075387,145.8010170354521 Z" fill="#d62728" fill-opacity="0.6" />
<path d="M-67.92468816881599,185.98450671270743 A198.0,198.0,0,0,0,-67.92252239739746,185.985297674776 C-27.169008958958983,74.3941190699104,4.684238648957487,79.06135534051775,11.710596622393718,197.65338835129435 A198.0,198.0,0,0,0,11.930127836247118,197.64025918271508 C4.772051134498848,79.05610367308604,-27.169875267526397,74.39380268508297,-67.92468816881599,185.98450671270743 Z" fill="#d62728" fill-opacity="0.6" />
<path d="M-67.92751232090927,185.98347526028414 A198.0,198.0,0,0,0,-67.92468816881599,185.98450671270743 C-27.169875267526397,74.39380268508297,7.680238682929361,78.82673362364596,19.200596707323403,197.06683405911488 A198.0,198.0,0,0,0,19.22901093241609,197.06406353914716 C7.691604372966437,78.82562541565886,-27.17100492836371,74.39339010411366,-67.92751232090927,185.98347526028414 Z" fill="#d62728" fill-opacity="0.6" />
<path d="M-67.93302819779555,185.98146058109532 A198.0,198.0,0,0,0,-67.92751232090927,185.98347526028414 C-27.17100492836371,74.39339010411366,13.573161772220287,78.02825949298843,33.932904430550714,195.07064873247106 A198.0,198.0,0,0,0,34.17725073057657,195.02798653654636 C13.670900292230627,78.01119461461855,-27.17321127911822,74.39258423243813,-67.93302819779555,185.98146058109532 Z" fill="#d62728" fill-opacity="0.6" />
<path d="M-67.94614310783457,185.97666960339316 A198.0,198.0,0,0,0,-67.93302819779555,185.98146058109532 C-27.17321127911822,74.39258423243813,70.4089167774882,36.26602319280045,176.0222919437205,90.66505798200113 A198.0,198.0,0,0,0,176.85397138162708,89.0318639956877 C70.74158855265084,35.61274559827508,-27.17845724313383,74.39066784135727,-67.94614310783457,185.97666960339316 Z" fill="#d62728" fill-opacity="0.6" />
<path d="M-67.94855269335893,185.97578924924025 A198.0,198.0,0,0,0,-67.94614310783457,185.97666960339316 C-27.17845724313383,74.39066784135727,79.1941023132462,0.9665189077781495,197.9852557831155,2.4162972694453737 A198.0,198.0,0,0,0,197.9858372086626,2.368177523953913 C79.19433488346505,0.9472710095815652,-27.179421077343576,74.3903156996961,-67.94855269335893,185.97578924924025 Z" fill="#d62728" fill-opacity="0.6" />
<path d="M-58.33636466912162,189.21117450402144 A198.0,198.0,0,0,0,-58.265147010060396,189.2331171964782 C-23.30605880402416,75.69324687859128,-22.207359783332816,76.02284637826719,-55.518399458332034,190.05711594566796 A198.0,198.0,0,0,0,-55.51802838713103,190.05722434047516 C-22.207211354852415,76.02288973619007,-23.33454586764865,75.68446980160859,-58.33636466912162,189.21117450402144 Z" fill="#9467bd" fill-opacity="0.6" />
<path d="M-58.47877518627025,189.16720871417874 A198.0,198.0,0,0,0,-58.33636466912162,189.21117450402144 C-23.33454586764865,75.68446980160859,4.682974727027907,79.0614302154092,11.707436817569766,197.653575538523 A198.0,198.0,0,0,0,11.710596622393718,197.65338835129435 C4.684238648957487,79.06135534051775,-23.3915100745081,75.6668834856715,-58.47877518627025,189.16720871417874 Z" fill="#9467bd" fill-opacity="0.6" />
<path d="M-58.48177074233906,189.16628264794045 A198.0,198.0,0,0,0,-58.47877518627025,189.16720871417874 C-23.3915100745081,75.6668834856715,70.24031683991724,36.591500245658665,175.6007920997931,91.47875061414666 A198.0,198.0,0,0,0,176.0222919437205,90.66505798200113 C70.4089167774882,36.26602319280045,-23.392708296935623,75.66651305917618,-58.48177074233906,189.16628264794045 Z" fill="#9467bd" fill-opacity="0.6" />
<path d="M-58.482736372556985,189.16598411547992 A198.0,198.0,0,0,0,-58.48177074233906,189.16628264794045 C-23.392708296935623,75.66651305917618,78.68327849875291,9.03225800604079,196.70819624688227,22.580645015101975 A198.0,198.0,0,0,0,196.73170784873878,22.3748771375061 C78.69268313949551,8.94995085500244,-23.393094549022795,75.66639364619196,-58.482736372556985,189.16598411547992 Z" fill="#9467bd" fill-opacity="0.6" />
<path d="M-58.48493787192933,189.16530348379578 A198.0,198.0,0,0,0,-58.482736372556985,189.16598411547992 C-23.393094549022795,75.66639364619196,79.19362313842552,1.0050145317525638,197.9840578460638,2.5125363293814096 A198.0,198.0,0,0,0,197.9852557831155,2.4162972694453737 C79.1941023132462,0.9665189077781495,-23.393975148771734,75.66612139351831,-58.48493787192933,189.16530348379578 Z" fill="#9467bd" fill-opacity="0.6" />
<path d="M-55.43963932476779,190.08010519657142 A198.0,198.0,0,0,0,-55.284675725549214,190.1252340693388 C-22.113870290219687,76.05009362773552,4.6803362133367425,79.06158645594034,11.700840533341855,197.65396613985084 A198.0,198.0,0,0,0,11.707436817569766,197.653575538523 C4.682974727027907,79.0614302154092,-22.175855729907116,76.03204207862858,-55.43963932476779,190.08010519657142 Z" fill="#9467bd" fill-opacity="0.6" />
<path d="M-55.44056050515138,190.07983651843415 A198.0,198.0,0,0,0,-55.43963932476779,190.08010519657142 C-22.175855729907116,76.03204207862858,43.86753952950003,65.94148144853702,109.66884882375007,164.85370362134253 A198.0,198.0,0,0,0,109.98654175930089,164.64191638774605 C43.99461670372036,65.85676655509842,-22.176224202060553,76.03193460737366,-55.44056050515138,190.07983651843415 Z" fill="#9467bd" fill-opacity="0.6" />
<path d="M17.227141211566234,197.24914602014567 A198.0,198.0,0,0,0,17.22900118920527,197.2489835665126 C6.891600475682108,78.89959342660505,13.540577524380533,78.03392057500534,33.85144381095133,195.08480143751333 A198.0,198.0,0,0,0,33.932904430550714,195.07064873247106 C13.573161772220287,78.02825949298843,6.890856484626494,78.89965840805827,17.227141211566234,197.24914602014567 Z" fill="#9467bd" fill-opacity="0.6" />
<path d="M53.518618966764045,190.62989645879347 A198.0,198.0,0,0,0,56.85355505858094,189.66199745125775 C22.741422023432378,75.8647989805031,43.8421541887468,65.9583619876218,109.60538547186698,164.8959049690545 A198.0,198.0,0,0,0,109.66884882375007,164.85370362134253 C43.86753952950003,65.94148144853702,21.40744758670562,76.25195858351739,53.518618966764045,190.62989645879347 Z" fill="#8c564b" fill-opacity="0.6" />
<path d="M53.35939373538436,190.674526615886 A198.0,198.0,0,0,0,53.518618966764045,190.62989645879347 C21.40744758670562,76.25195858351739,79.19361941028714,1.005308260482078,197.98404852571784,2.513270651205195 A198.0,198.0,0,0,0,197.9840578460638,2.5125363293814096 C79.19362313842552,1.0050145317525638,21.343757494153746,76.2698106463544,53.35939373538436,190.674526615886 Z" fill="#e377c2" fill-opacity="0.6" />
<path d="M117.48844500217402,159.37523424601181 A198.0,198.0,0,0,0,117.64205665982585,159.26188026281218 C47.05682266393035,63.704752105124875,70.23981728120798,36.59245917265628,175.59954320301995,91.48114793164069 A198.0,198.0,0,0,0,175.6007920997931,91.47875061414666 C70.24031683991724,36.591500245658665,46.99537800086961,63.750093698404726,117.48844500217402,159.37523424601181 Z" fill="#e377c2" fill-opacity="0.6" />
<path d="M178.72857101249423,85.20620812964161 A198.0,198.0,0,0,0,178.85980876089735,84.9303762502865 C71.54392350435894,33.9721505001146,78.53188436037925,10.26562900206414,196.32971090094813,25.664072505160348 A198.0,198.0,0,0,0,196.70819624688227,22.580645015101975 C78.68327849875291,9.03225800604079,71.49142840499769,34.082483251856644,178.72857101249423,85.20620812964161 Z" fill="#e377c2" fill-opacity="0.6" />
<path d="M178.3485974957425,85.99870796297833 A198.0,198.0,0,0,0,178.72857101249423,85.20620812964161 C71.49142840499769,34.082483251856644,78.97060510597339,6.023581094034632,197.42651276493345,15.058952735086578 A198.0,198.0,0,0,0,197.98404852571784,2.513270651205195 C79.19361941028714,1.005308260482078,71.339438998297,34.399483185191336,178.3485974957425,85.99870796297833 Z" fill="#e377c2" fill-opacity="0.6" />
<path d="M197.21301805366573,17.635915348076306 A198.0,198.0,0,0,0,197.21553944145384,17.60769726047009 C78.88621577658154,7.043078904188036,78.95270111386313,6.253877743048525,197.3817527846578,15.634694357621312 A198.0,198.0,0,0,0,197.42651276493345,15.058952735086578 C78.97060510597339,6.023581094034632,78.8852072214663,7.054366139230523,197.21301805366573,17.635915348076306 Z" fill="#e377c2" fill-opacity="0.6" />
<text x="220.00000000000003" y="0" font-size="10" text-anchor="start" dominant-baseline="middle" transform="rotate(-7.385222)" font-family="Arial">Canada</text>
<text x="220.00000000000003" y="0" font-size="10" text-anchor="start" dominant-baseline="middle" transform="rotate(-21.444500)" font-family="Arial">Mexico</text>
<text x="220.00000000000003" y="0" font-size="10" text-anchor="start" dominant-baseline="middle" transform="rotate(-52.664820)" font-family="Arial">United Sta.</text>
<text x="220.00000000000003" y="0" font-size="10" text-anchor="start" dominant-baseline="middle" transform="rotate(-78.798740)" font-family="Arial">Costa Rica</text>
<text x="220.00000000000003" y="0" font-size="10" text-anchor="start" dominant-baseline="middle" transform="rotate(-81.325652)" font-family="Arial">Dominican .</text>
<text x="220.00000000000003" y="0" font-size="10" text-anchor="start" dominant-baseline="middle" transform="rotate(-83.876814)" font-family="Arial">Guatemala</text>
<text x="-220.00000000000006" y="0" font-size="10" text-anchor="end" dominant-baseline="middle" transform="rotate(85.489077)" font-family="Arial">Argentina</text>
<text x="-220.00000000000006" y="0" font-size="10" text-anchor="end" dominant-baseline="middle" transform="rotate(66.039870)" font-family="Arial">Brazil</text>
<text x="-220.00000000000003" y="0" font-size="10" text-anchor="end" dominant-baseline="middle" transform="rotate(49.141016)" font-family="Arial">Colombia</text>
<text x="-220.00000000000003" y="0" font-size="10" text-anchor="end" dominant-baseline="middle" transform="rotate(33.896793)" font-family="Arial">Germany</text>
<text x="-220.00000000000003" y="0" font-size="10" text-anchor="end" dominant-baseline="middle" transform="rotate(16.581268)" font-family="Arial">Spain</text>
<text x="-220.00000000000003" y="0" font-size="10" text-anchor="end" dominant-baseline="middle" transform="rotate(-7.282919)" font-family="Arial">France</text>
<text x="-220.00000000000003" y="0" font-size="10" text-anchor="end" dominant-baseline="middle" transform="rotate(-35.094736)" font-family="Arial">United Kin.</text>
<text x="-220.00000000000003" y="0" font-size="10" text-anchor="end" dominant-baseline="middle" transform="rotate(-59.048047)" font-family="Arial">Italy</text>
<text x="-220.00000000000003" y="0" font-size="10" text-anchor="end" dominant-baseline="middle" transform="rotate(-71.698451)" font-family="Arial">Indonesia</text>
<text x="-220.00000000000006" y="0" font-size="10" text-anchor="end" dominant-baseline="middle" transform="rotate(-73.622947)" font-family="Arial">India</text>
<text x="-220.00000000000003" y="0" font-size="10" text-anchor="end" dominant-baseline="middle" transform="rotate(-84.675741)" font-family="Arial">Japan</text>
<text x="220.0" y="0" font-size="10" text-anchor="start" dominant-baseline="middle" transform="rotate(-276.568619)" font-family="Arial">Egypt</text>
<text x="220.00000000000003" y="0" font-size="10" text-anchor="start" dominant-baseline="middle" transform="rotate(-282.416042)" font-family="Arial">Nigeria</text>
<text x="220.00000000000003" y="0" font-size="10" text-anchor="start" dominant-baseline="middle" transform="rotate(-296.855953)" font-family="Arial">South Afri.</text>
<text x="220.00000000000003" y="0" font-size="10" text-anchor="start" dominant-baseline="middle" transform="rotate(-320.812378)" font-family="Arial">Australia</text>
<text x="220.00000000000003" y="0" font-size="10" text-anchor="start" dominant-baseline="middle" transform="rotate(-345.035321)" font-family="Arial">New Zealan.</text>
<text x="220.00000000000003" y="0" font-size="10" text-anchor="start" dominant-baseline="middle" transform="rotate(-357.449037)" font-family="Arial">Papua New .</text>
<text x="-295.0" y="-285.0" font-size="8" text-anchor="start" dominant-baseline="middle" font-family="Arial" font-weight="bold">Continents</text>
<circle cx="-290.5" cy="-274.5" r="4.5" fill="#8c564b" stroke="#333" stroke-width="0.5" />
<text x="-278.0" y="-271.0" font-size="6" text-anchor="start" dominant-baseline="middle" font-family="Arial">Africa</text>
<circle cx="-290.5" cy="-262.5" r="4.5" fill="#9467bd" stroke="#333" stroke-width="0.5" />
<text x="-278.0" y="-259.0" font-size="6" text-anchor="start" dominant-baseline="middle" font-family="Arial">Asia</text>
<circle cx="-290.5" cy="-250.5" r="4.5" fill="#ff7f0e" stroke="#333" stroke-width="0.5" />
<text x="-278.0" y="-247.0" font-size="6" text-anchor="start" dominant-baseline="middle" font-family="Arial">Central America</text>
<circle cx="-290.5" cy="-238.5" r="4.5" fill="#d62728" stroke="#333" stroke-width="0.5" />
<text x="-278.0" y="-235.0" font-size="6" text-anchor="start" dominant-baseline="middle" font-family="Arial">Europe</text>
<circle cx="-290.5" cy="-226.5" r="4.5" fill="#1f77b4" stroke="#333" stroke-width="0.5" />
<text x="-278.0" y="-223.0" font-size="6" text-anchor="start" dominant-baseline="middle" font-family="Arial">North America</text>
<circle cx="-290.5" cy="-214.5" r="4.5" fill="#e377c2" stroke="#333" stroke-width="0.5" />
<text x="-278.0" y="-211.0" font-size="6" text-anchor="start" dominant-baseline="middle" font-family="Arial">Oceania</text>
<circle cx="-290.5" cy="-202.5" r="4.5" fill="#2ca02c" stroke="#333" stroke-width="0.5" />
<text x="-278.0" y="-199.0" font-size="6" text-anchor="start" dominant-baseline="middle" font-family="Arial">South America</text>
</svg>