<?xml version="1.0" encoding="UTF-8"?>
<svg xmlns="http://www.w3.org/2000/svg" xmlns:xlink="http://www.w3.org/1999/xlink"
     width="600.0" height="600.0" viewBox="-300.0 -300.0 600.0 600.0">
<defs>
</defs>
<rect x="-300.0" y="-300.0" width="600.0" height="600.0" fill="#ffffff" fill-opacity="1.0" />
<path d="M200.0,-0.0 A200,200,0,0,0,193.84428611195804,-49.23812284952945 L207.4133861397951,-52.68479144899651 A214.0,214.0,0,0,1,214.0,-0.0 Z" fill="#1f77b4" fill-opacity="0.9" />
<path d="M193.3422209562381,-51.174071517802886 A200,200,0,0,0,172.6898015406057,-100.88722636620659 L184.77808764844812,-107.94933221184105 A214.0,214.0,0,0,1,206.87617642317477,-54.75625652404909 Z" fill="#1f77b4" fill-opacity="0.9" />
<path d="M171.67231167327412,-102.60905128084087 A200,200,0,0,0,30.5846175115524,-197.64761868454687 L32.725540737361065,-211.48295199246516 A214.0,214.0,0,0,1,183.6893734904033,-109.79168487049974 Z" fill="#1f77b4" fill-opacity="0.9" />
<path d="M28.606645047679972,-197.9435774636703 A200,200,0,0,0,21.804791369328978,-198.8078244771569 L23.331126765182006,-212.72437219055792 A214.0,214.0,0,0,1,30.60911020101757,-211.79962788612724 Z" fill="#ff7f0e" fill-opacity="0.9" />
<path d="M19.815656028545977,-199.01592844834894 A200,200,0,0,0,13.772183926101288,-199.52525391515138 L14.73623680092838,-213.49202168921198 A214.0,214.0,0,0,1,21.202751950544197,-212.9470434397334 Z" fill="#ff7f0e" fill-opacity="0.9" />
<path d="M11.776276037534576,-199.6529972794994 A200,200,0,0,0,4.823863921208675,-199.94181737913073 L5.161534395693282,-213.9377445956699 A214.0,214.0,0,0,1,12.600615360161997,-213.62870708906436 Z" fill="#ff7f0e" fill-opacity="0.9" />
<path d="M2.824237879700854,-199.98005820680936 A200,200,0,0,0,-58.61129815659003,-191.21902553982255 L-62.71408902755134,-204.60435732761013 A214.0,214.0,0,0,1,3.021934531279914,-213.97866228128603 Z" fill="#2ca02c" fill-opacity="0.9" />
<path d="M-60.52052600182347,-190.62336145515485 A200,200,0,0,0,-123.84270770726751,-157.04452791400377 L-132.51169724677624,-168.03764486798403 A214.0,214.0,0,0,1,-64.75696282195112,-203.9669967570157 Z" fill="#2ca02c" fill-opacity="0.9" />
<path d="M-125.40693472866597,-155.7982693163185 A200,200,0,0,0,-155.71953569991794,-125.504685973879 L-166.6199031989122,-134.29001399205055 A214.0,214.0,0,0,1,-134.1854201596726,-166.70414816846082 Z" fill="#2ca02c" fill-opacity="0.9" />
<path d="M-156.96677573041157,-123.9412413880008 A200,200,0,0,0,-195.07890639133242,-44.093313338438925 L-208.7344298387257,-47.179845272129654 A214.0,214.0,0,0,1,-167.95445003154038,-132.61712828516087 Z" fill="#d62728" fill-opacity="0.9" />
<path d="M-195.51007831183105,-42.14035214021937 A200,200,0,0,0,-199.8378973613025,8.050762585837644 L-213.82655017659368,8.614315966846279 A214.0,214.0,0,0,1,-209.19578379365925,-45.09017679003473 Z" fill="#d62728" fill-opacity="0.9" />
<path d="M-199.74739926562864,10.048705718526113 A200,200,0,0,0,-178.00497852350261,91.18238657135146 L-190.4653270201478,97.56515363134606 A214.0,214.0,0,0,1,-213.72971721422266,10.752115118822942 Z" fill="#d62728" fill-opacity="0.9" />
<path d="M-177.08426968001987,92.95784760790234 A200,200,0,0,0,-132.52359253135683,149.79151318610445 L-141.8002440085518,160.27691910913177 A214.0,214.0,0,0,1,-189.48016855762128,99.4648969404555 Z" fill="#d62728" fill-opacity="0.9" />
<path d="M-131.0190762402146,151.10923751101663 A200,200,0,0,0,-76.18368331890883,184.9217304590356 L-81.51654115123246,197.8662515911681 A214.0,214.0,0,0,1,-140.1904115770296,161.6868841367878 Z" fill="#d62728" fill-opacity="0.9" />
<path d="M-74.33068768202997,185.6743085855351 A200,200,0,0,0,-71.12911687787256,186.92417909990655 L-76.10815505932365,200.0088716369 A214.0,214.0,0,0,1,-79.53383581977208,198.67151018652257 Z" fill="#9467bd" fill-opacity="0.9" />
<path d="M-69.25634981454077,187.62611228282157 A200,200,0,0,0,-43.320270600064504,195.2520272753581 L-46.35268954206902,208.9196691846332 A214.0,214.0,0,0,1,-74.10429430155862,200.7599401426191 Z" fill="#9467bd" fill-opacity="0.9" />
<path d="M-41.36561687367284,195.67546024134072 A200,200,0,0,0,32.451829538746004,197.34963582329758 L34.723457606458226,211.16411033092842 A214.0,214.0,0,0,1,-44.261210054829945,209.37274245823457 Z" fill="#9467bd" fill-opacity="0.9" />
<path d="M34.42367042758204,197.01525553695888 A200,200,0,0,0,40.701362086637985,195.81470609811817 L43.55045743270264,209.52173552498644 A214.0,214.0,0,0,1,36.833327357512786,210.806323424546 Z" fill="#8c564b" fill-opacity="0.9" />
<path d="M42.65744146085247,195.3979086070625 A200,200,0,0,0,74.68861177668377,185.5306208443011 L79.91681460105164,198.51776430340217 A214.0,214.0,0,0,1,45.64346236311214,209.0757622095569 Z" fill="#8c564b" fill-opacity="0.9" />
<path d="M76.54015266404252,184.77447072083595 A200,200,0,0,0,117.27529586807151,162.00773123235908 L125.48456657883652,173.34827241862422 A214.0,214.0,0,0,1,81.8979633505255,197.70868367129447 Z" fill="#8c564b" fill-opacity="0.9" />
<path d="M118.88948246331267,160.82689750040467 A200,200,0,0,0,180.42045150584116,86.30446499705803 L193.04988311125004,92.3457775468521 A214.0,214.0,0,0,1,127.21174623574457,172.084780325433 Z" fill="#e377c2" fill-opacity="0.9" />
<path d="M181.2744608244058,84.49597536463477 A200,200,0,0,0,196.5710828647851,36.87559330188177 L210.33105866532006,39.4568848330135 A214.0,214.0,0,0,1,193.9636730821142,90.41069364015921 Z" fill="#e377c2" fill-opacity="0.9" />
<path d="M196.93000417966354,34.90807147061698 A200,200,0,0,0,199.99000008333306,1.999966666834405 L213.9893000891664,2.1399643335128133 A214.0,214.0,0,0,1,210.71510447224,37.35163647356017 Z" fill="#e377c2" fill-opacity="0.9" />
<path d="M193.0,-0.0 A193.0,193.0,0,0,0,191.72789651342518,-22.12269645719809 L196.6949404645502,-22.695823308420835 A198.0,198.0,0,0,1,198.0,-0.0 Z" fill="#1f77b4" fill-opacity="0.6" />
<path d="M186.57524322276976,-49.38297901467979 A193.0,193.0,0,0,0,179.91670717264506,-69.8496848965884 L184.57776176260995,-71.65926222551556 A198.0,198.0,0,0,1,191.40879874667573,-50.66233080262486 Z" fill="#1f77b4" fill-opacity="0.6" />
<path d="M165.66378076470954,-99.01773448601145 A193.0,193.0,0,0,0,59.490086653300565,-183.60264047660857 L61.031280608049286,-188.35918556667616 A198.0,198.0,0,0,1,169.9555885565414,-101.58296076803246 Z" fill="#1f77b4" fill-opacity="0.6" />
<path d="M2.725389553911324,-192.98075616957104 A193.0,193.0,0,0,0,-46.17263172344984,-187.39553911374378 L-47.368813892451136,-192.25034582653507 A198.0,198.0,0,0,1,2.7959955009038455,-197.98025762474128 Z" fill="#2ca02c" fill-opacity="0.6" />
<path d="M-58.40230759175965,-183.95154380422443 A193.0,193.0,0,0,0,-114.46949210445662,-155.38898087492478 L-117.43502298799177,-159.41460214111453 A198.0,198.0,0,0,1,-59.91532074180524,-188.7171278406033 Z" fill="#2ca02c" fill-opacity="0.6" />
<path d="M-121.01769201316267,-150.34532989024737 A193.0,193.0,0,0,0,-135.6536733229964,-137.2846710815806 L-139.1680171914678,-140.8412687779946 A198.0,198.0,0,0,1,-124.15286538137931,-154.24028662315533 Z" fill="#2ca02c" fill-opacity="0.6" />
<path d="M-151.47293857984715,-119.60329793942077 A193.0,193.0,0,0,0,-186.37933799096467,-50.11728614011092 L-191.20781824979795,-51.415661428714834 A198.0,198.0,0,0,1,-155.39710797310744,-122.70182897412079 Z" fill="#d62728" fill-opacity="0.6" />
<path d="M-188.66722557091697,-40.66543981531169 A193.0,193.0,0,0,0,-192.59001058817762,-12.573297962174859 L-197.5793891008247,-12.899031070003224 A198.0,198.0,0,0,1,-193.55497752871273,-41.71894861881718 Z" fill="#d62728" fill-opacity="0.6" />
<path d="M-192.75624029133164,9.6970010183777 A193.0,193.0,0,0,0,-191.01838900895163,27.585776415117127 L-195.96705193664468,28.30043383519788 A198.0,198.0,0,0,1,-197.74992527297235,9.948218661340851 Z" fill="#d62728" fill-opacity="0.6" />
<path d="M-170.88632024121918,89.70432294162575 A193.0,193.0,0,0,0,-132.12900253298045,140.6802284958325 L-135.5520336866846,144.32479400090585 A198.0,198.0,0,0,1,-175.31342698321967,92.02826913182331 Z" fill="#d62728" fill-opacity="0.6" />
<path d="M-126.43340857180708,145.82041419813106 A193.0,193.0,0,0,0,-82.37824178716598,174.53602860170508 L-84.5123931288024,179.05768737377 A198.0,198.0,0,0,1,-129.70888547781243,149.59814513590646 Z" fill="#d62728" fill-opacity="0.6" />
<path d="M-71.72911361315893,179.17570778504137 A193.0,193.0,0,0,0,-71.05161121176747,179.4454472652116 L-72.8923265281345,184.09429304928446 A198.0,198.0,0,0,1,-73.58738080520968,183.81756549967974 Z" fill="#9467bd" fill-opacity="0.6" />
<path d="M-66.83237757103184,181.0591983529228 A193.0,193.0,0,0,0,-41.80406112906225,188.41820632072057 L-42.88706789406386,193.2995070026045 A198.0,198.0,0,0,1,-68.56378631639535,185.74985115999334 Z" fill="#9467bd" fill-opacity="0.6" />
<path d="M-39.917820283094294,188.8268191328938 A193.0,193.0,0,0,0,26.906453923894453,191.11526034631916 L27.603512315705192,196.06643289415126 A198.0,198.0,0,0,1,-40.95196070493611,193.71870563892733 Z" fill="#9467bd" fill-opacity="0.6" />
<path d="M41.164431009722634,188.5589818058153 A193.0,193.0,0,0,0,50.33873261134153,186.3196500616182 L51.642844855158664,191.14658400103835 A198.0,198.0,0,0,1,42.230867046243944,193.44392952099187 Z" fill="#8c564b" fill-opacity="0.6" />
<path d="M73.86124732080104,178.3073642456067 A193.0,193.0,0,0,0,100.78138228532103,164.59681948525002 L103.39229892483712,168.86098579315805 A198.0,198.0,0,0,1,75.7747511374021,182.9267260136276 Z" fill="#8c564b" fill-opacity="0.6" />
<path d="M114.72835057709673,155.1979560878905 A193.0,193.0,0,0,0,164.63381301236694,100.72093929769018 L168.89893770180652,103.3302900566977 A198.0,198.0,0,0,1,117.70058763867955,159.21862852540062 Z" fill="#e377c2" fill-opacity="0.6" />
<path d="M174.9298546955516,81.53861622687256 A193.0,193.0,0,0,0,184.18129015978607,57.67367124673692 L188.9528261742883,59.167807807533215 A198.0,198.0,0,0,1,179.46171621616173,83.65101561098844 Z" fill="#e377c2" fill-opacity="0.6" />
<path d="M196.12695875362922,-27.17013157958966 A198.0,198.0,0,0,0,191.90584325083844,-48.74574162103416 C76.76233730033537,-19.498296648413667,24.075874426579844,-75.45192025784074,60.1896860664496,-188.62980064460186 A198.0,198.0,0,0,0,57.71964950364512,-189.40021663444938 C23.087859801458052,-75.76008665377975,78.4507835014517,-10.868052631835866,196.12695875362922,-27.17013157958966 Z" fill="#1f77b4" fill-opacity="0.6" />
<path d="M196.19493240519017,-26.674866419962783 A198.0,198.0,0,0,0,196.12695875362922,-27.17013157958966 C78.4507835014517,-10.868052631835866,-28.17695865855559,74.01823424504295,-70.44239664638897,185.04558561260737 A198.0,198.0,0,0,0,-70.43946353171587,185.04670215208935 C-28.175785412686352,74.01868086083574,78.47797296207608,-10.669946567985114,196.19493240519017,-26.674866419962783 Z" fill="#9467bd" fill-opacity="0.6" />
<path d="M196.2616554016569,-26.17943121997265 A198.0,198.0,0,0,0,196.19493240519017,-26.674866419962783 C78.47797296207608,-10.669946567985114,12.483615137100763,78.20996965290774,31.209037842751904,195.52492413226935 A198.0,198.0,0,0,0,31.216244291036343,195.52377372678328 C12.486497716414538,78.20950949071332,78.50466216066276,-10.47177248798906,196.2616554016569,-26.17943121997265 Z" fill="#9467bd" fill-opacity="0.6" />
<path d="M196.3271273177001,-25.683829137797446 A198.0,198.0,0,0,0,196.2616554016569,-26.17943121997265 C78.50466216066276,-10.47177248798906,46.04403297518961,64.44056973196042,115.11008243797401,161.10142432990105 A198.0,198.0,0,0,0,115.11481472911036,161.0980429113979 C46.045925891644146,64.43921716455917,78.53085092708005,-10.27353165511898,196.3271273177001,-25.683829137797446 Z" fill="#8c564b" fill-opacity="0.6" />
<path d="M196.32857195030894,-25.672783954070187 A198.0,198.0,0,0,0,196.3271273177001,-25.683829137797446 C78.53085092708005,-10.27353165511898,70.50013447097001,36.08837817878696,176.25033617742503,90.22094544696739 A198.0,198.0,0,0,0,177.2121424694266,88.31679659835748 C70.88485698777065,35.32671863934299,78.53142878012358,-10.269113581628076,196.32857195030894,-25.672783954070187 Z" fill="#1f77b4" fill-opacity="0.6" />
<path d="M196.6949404645502,-22.695823308420835 A198.0,198.0,0,0,0,196.32857195030894,-25.672783954070187 C78.53142878012358,-10.269113581628076,79.1959541210056,0.8005316131032745,197.98988530251398,2.001329032758186 A198.0,198.0,0,0,0,197.9901000824997,1.979967000166061 C79.19604003299989,0.7919868000664244,78.67797618582009,-9.078329323368335,196.6949404645502,-22.695823308420835 Z" fill="#e377c2" fill-opacity="0.6" />
<path d="M183.68931101089547,-73.90694839013796 A198.0,198.0,0,0,0,170.96290352519964,-99.87835410254455 C68.38516141007986,-39.95134164101782,24.412512243219716,-75.34367422667047,61.031280608049286,-188.35918556667616 A198.0,198.0,0,0,0,60.1896860664496,-188.62980064460186 C24.075874426579844,-75.45192025784074,73.47572440435819,-29.562779356055184,183.68931101089547,-73.90694839013796 Z" fill="#1f77b4" fill-opacity="0.6" />
<path d="M183.7383850713725,-73.78486193904567 A198.0,198.0,0,0,0,183.68931101089547,-73.90694839013796 C73.47572440435819,-29.562779356055184,3.025089105172553,-79.14220641292336,7.562722762931382,-197.85551603230837 A198.0,198.0,0,0,0,5.923399874137328,-197.91137747469466 C2.3693599496549314,-79.16455098987787,73.495354028549,-29.51394477561827,183.7383850713725,-73.78486193904567 Z" fill="#1f77b4" fill-opacity="0.6" />
<path d="M183.8799840725333,-73.43127029736651 A198.0,198.0,0,0,0,183.7383850713725,-73.78486193904567 C73.495354028549,-29.51394477561827,-76.96469312492393,-18.68357600103066,-192.4117328123098,-46.70894000257665 A198.0,198.0,0,0,0,-192.41313520124191,-46.70316265552692 C-76.96525408049678,-18.681265062210766,73.55199362901332,-29.372508118946605,183.8799840725333,-73.43127029736651 Z" fill="#d62728" fill-opacity="0.6" />
<path d="M184.16114016858572,-72.72327310982726 A198.0,198.0,0,0,0,183.8799840725333,-73.43127029736651 C73.55199362901332,-29.372508118946605,-79.19770548734664,-0.6028644453801207,-197.9942637183666,-1.5071611134503018 A198.0,198.0,0,0,0,-197.99431999762012,-1.4997495390903641 C-79.19772799904806,-0.5998998156361457,73.66445606743429,-29.089309243930906,184.16114016858572,-72.72327310982726 Z" fill="#d62728" fill-opacity="0.6" />
<path d="M184.4395702590176,-72.01419945169785 A198.0,198.0,0,0,0,184.16114016858572,-72.72327310982726 C73.66445606743429,-29.089309243930906,-74.65828243564435,26.43446356103257,-186.64570608911086,66.08615890258142 A198.0,198.0,0,0,0,-186.6419312512174,66.0968191278207 C-74.65677250048695,26.43872765112828,73.77582810360704,-28.805679780679142,184.4395702590176,-72.01419945169785 Z" fill="#d62728" fill-opacity="0.6" />
<path d="M184.57776176260995,-71.65926222551556 A198.0,198.0,0,0,0,184.4395702590176,-72.01419945169785 C73.77582810360704,-28.805679780679142,77.694559461313,15.368650887846307,194.2363986532825,38.421627219615765 A198.0,198.0,0,0,0,194.23708199038893,38.41817252107294 C77.69483279615558,15.367269008429176,73.83110470504398,-28.663704890206226,184.57776176260995,-71.65926222551556 Z" fill="#e377c2" fill-opacity="0.6" />
<path d="M31.88139628105074,-195.4164183766825 A198.0,198.0,0,0,0,30.278771336436872,-195.6711424977014 C12.11150853457475,-78.26845699908057,11.32823143888127,-78.38565667561345,28.320578597203173,-195.9641416890336 A198.0,198.0,0,0,0,21.782322401484297,-196.79819722446086 C8.71292896059372,-78.71927888978435,12.752558512420297,-78.166567350673,31.88139628105074,-195.4164183766825 Z" fill="#1f77b4" fill-opacity="0.6" />
<path d="M33.315923680530894,-195.17696900329466 A198.0,198.0,0,0,0,31.88139628105074,-195.4164183766825 C12.752558512420297,-78.166567350673,7.846999787304208,-78.81030766554619,19.61749946826052,-197.02576916386545 A198.0,198.0,0,0,0,13.967232825720485,-197.50675028259695 C5.586893130288194,-79.00270011303878,13.326369472212358,-78.07078760131787,33.315923680530894,-195.17696900329466 Z" fill="#1f77b4" fill-opacity="0.6" />
<path d="M34.305751039941164,-195.00542414401087 A198.0,198.0,0,0,0,33.315923680530894,-195.17696900329466 C13.326369472212358,-78.07078760131787,4.663405310863692,-79.06258692268176,11.65851327715923,-197.6564673067044 A198.0,198.0,0,0,0,7.562722762931382,-197.85551603230837 C3.025089105172553,-79.14220641292336,13.722300415976466,-78.00216965760436,34.305751039941164,-195.00542414401087 Z" fill="#1f77b4" fill-opacity="0.6" />
<path d="M34.56225598852632,-194.96012531023766 A198.0,198.0,0,0,0,34.305751039941164,-195.00542414401087 C13.722300415976466,-78.00216965760436,-18.947525556980455,-76.90013833061403,-47.368813892451136,-192.25034582653507 A198.0,198.0,0,0,0,-56.6326556721337,-189.72807465296626 C-22.653062268853482,-75.8912298611865,13.824902395410527,-77.98405012409506,34.56225598852632,-194.96012531023766 Z" fill="#1f77b4" fill-opacity="0.6" />
<path d="M34.66776134605716,-194.94139202142992 A198.0,198.0,0,0,0,34.56225598852632,-194.96012531023766 C13.824902395410527,-77.98405012409506,-46.97913647441557,-63.762063455617856,-117.44784118603891,-159.40515863904463 A198.0,198.0,0,0,0,-120.89980618450765,-156.80317874503848 C-48.35992247380307,-62.7212714980154,13.867104538422865,-77.97655680857197,34.66776134605716,-194.94139202142992 Z" fill="#1f77b4" fill-opacity="0.6" />
<path d="M35.47088989792494,-194.79685821349707 A198.0,198.0,0,0,0,34.66776134605716,-194.94139202142992 C13.867104538422865,-77.97655680857197,-55.66720687658713,-56.336507511197844,-139.1680171914678,-140.8412687779946 A198.0,198.0,0,0,0,-154.15914711502936,-124.25360099718131 C-61.66365884601174,-49.70144039887253,14.188355959169977,-77.91874328539883,35.47088989792494,-194.79685821349707 Z" fill="#1f77b4" fill-opacity="0.6" />
<path d="M35.56440538092108,-194.77980662764173 A198.0,198.0,0,0,0,35.47088989792494,-194.79685821349707 C14.188355959169977,-77.91874328539883,-76.48312729991919,-20.566264571485934,-191.20781824979795,-51.415661428714834 A198.0,198.0,0,0,0,-192.4117328123098,-46.70894000257665 C-76.96469312492393,-18.68357600103066,14.225762152368432,-77.9119226510567,35.56440538092108,-194.77980662764173 Z" fill="#1f77b4" fill-opacity="0.6" />
<path d="M35.89760713543893,-194.71867348035647 A198.0,198.0,0,0,0,35.56440538092108,-194.77980662764173 C14.225762152368432,-77.9119226510567,-79.04723135179849,-4.916829833871233,-197.6180783794962,-12.292074584678081 A198.0,198.0,0,0,0,-197.9942637183666,-1.5071611134503018 C-79.19770548734664,-0.6028644453801207,14.359042854175573,-77.88746939214259,35.89760713543893,-194.71867348035647 Z" fill="#1f77b4" fill-opacity="0.6" />
<path d="M35.9531826654026,-194.7084195822774 A198.0,198.0,0,0,0,35.89760713543893,-194.71867348035647 C14.359042854175573,-77.88746939214259,-75.0178522134572,25.39609909572517,-187.54463053364302,63.49024773931292 A198.0,198.0,0,0,0,-186.64570608911086,66.08615890258142 C-74.65828243564435,26.43446356103257,14.381273066161041,-77.88336783291096,35.9531826654026,-194.7084195822774 Z" fill="#1f77b4" fill-opacity="0.6" />
<path d="M36.03669646433293,-194.69298011982235 A198.0,198.0,0,0,0,35.9531826654026,-194.7084195822774 C14.381273066161041,-77.88336783291096,-54.11837375042309,57.82595976384238,-135.29593437605772,144.56489940960594 A198.0,198.0,0,0,0,-132.06995948987975,147.51788298488265 C-52.8279837959519,59.00715319395306,14.41467858573317,-77.87719204792894,36.03669646433293,-194.69298011982235 Z" fill="#1f77b4" fill-opacity="0.6" />
<path d="M36.06962277626355,-194.6868827445189 A198.0,198.0,0,0,0,36.03669646433293,-194.69298011982235 C14.41467858573317,-77.87719204792894,-30.66696523367007,73.02175869805431,-76.66741308417517,182.5543967451358 A198.0,198.0,0,0,0,-75.46633166664652,183.054179916165 C-30.18653266665861,73.221671966466,14.42784911050542,-77.87475309780757,36.06962277626355,-194.6868827445189 Z" fill="#1f77b4" fill-opacity="0.6" />
<path d="M45.353096540059006,-192.7358208383384 A198.0,198.0,0,0,0,36.06962277626355,-194.6868827445189 C14.42784911050542,-77.87475309780757,-28.31674240821045,73.96487071162267,-70.79185602052613,184.91217677905667 A198.0,198.0,0,0,0,-70.44239664638897,185.04558561260737 C-28.17695865855559,74.01823424504295,18.141238616023603,-77.09432833533538,45.353096540059006,-192.7358208383384 Z" fill="#9467bd" fill-opacity="0.6" />
<path d="M47.0304369620564,-192.3334032329227 A198.0,198.0,0,0,0,45.353096540059006,-192.7358208383384 C18.141238616023603,-77.09432833533538,11.057695938510314,78.42427787701621,27.644239846275784,196.0606946925405 A198.0,198.0,0,0,0,31.209037842751904,195.52492413226935 C12.483615137100763,78.20996965290774,18.81217478482256,-76.93336129316909,47.0304369620564,-192.3334032329227 Z" fill="#1f77b4" fill-opacity="0.6" />
<path d="M47.15609518276262,-192.30263307379397 A198.0,198.0,0,0,0,47.0304369620564,-192.3334032329227 C18.81217478482256,-76.93336129316909,26.55683894051441,74.6148397136091,66.39209735128603,186.53709928402273 A198.0,198.0,0,0,0,68.99361459428377,185.59062784854044 C27.597445837713508,74.23625113941618,18.86243807310505,-76.9210532295176,47.15609518276262,-192.30263307379397 Z" fill="#1f77b4" fill-opacity="0.6" />
<path d="M48.82959337224919,-191.88452467851803 A198.0,198.0,0,0,0,47.15609518276262,-192.30263307379397 C18.86243807310505,-76.9210532295176,44.24478736227558,65.68895486508383,110.61196840568894,164.22238716270957 A198.0,198.0,0,0,0,115.11008243797401,161.10142432990105 C46.04403297518961,64.44056973196042,19.53183734889968,-76.75380987140721,48.82959337224919,-191.88452467851803 Z" fill="#1f77b4" fill-opacity="0.6" />
<path d="M49.04374516141154,-191.8299013723943 A198.0,198.0,0,0,0,48.82959337224919,-191.88452467851803 C19.53183734889968,-76.75380987140721,68.13059259057233,40.383936822175365,170.3264814764308,100.9598420554384 A198.0,198.0,0,0,0,176.25033617742503,90.22094544696739 C70.50013447097001,36.08837817878696,19.617498064564618,-76.73196054895772,49.04374516141154,-191.8299013723943 Z" fill="#1f77b4" fill-opacity="0.6" />
<path d="M49.41739080886772,-191.7339862560721 A198.0,198.0,0,0,0,49.04374516141154,-191.8299013723943 C19.617498064564618,-76.73196054895772,76.65344751100092,19.92207280074608,191.6336187775023,49.8051820018652 A198.0,198.0,0,0,0,194.2363986532825,38.421627219615765 C77.694559461313,15.368650887846307,19.76695632354709,-76.69359450242884,49.41739080886772,-191.7339862560721 Z" fill="#1f77b4" fill-opacity="0.6" />
<path d="M57.71964950364512,-189.40021663444938 A198.0,198.0,0,0,0,49.41739080886772,-191.7339862560721 C19.76695632354709,-76.69359450242884,79.16598796120567,2.3208511641722156,197.91496990301417,5.8021279104305385 A198.0,198.0,0,0,0,197.98988530251398,2.001329032758186 C79.1959541210056,0.8005316131032745,23.087859801458052,-75.76008665377975,57.71964950364512,-189.40021663444938 Z" fill="#1f77b4" fill-opacity="0.6" />
<path d="M21.68453560535109,-196.80899602299755 A198.0,198.0,0,0,0,21.586743455635688,-196.81974623238534 C8.634697382254275,-78.72789849295414,-79.04703967491433,-4.919910429318863,-197.6175991872858,-12.299776073297156 A198.0,198.0,0,0,0,-197.6180783794962,-12.292074584678081 C-79.04723135179849,-4.916829833871233,8.673814242140436,-78.72359840919903,21.68453560535109,-196.80899602299755 Z" fill="#d62728" fill-opacity="0.6" />
<path d="M21.782322401484297,-196.79819722446086 A198.0,198.0,0,0,0,21.68453560535109,-196.80899602299755 C8.673814242140436,-78.72359840919903,76.65270966629207,19.924911563546146,191.63177416573015,49.81227890886536 A198.0,198.0,0,0,0,191.6336187775023,49.8051820018652 C76.65344751100092,19.92207280074608,8.71292896059372,-78.71927888978435,21.782322401484297,-196.79819722446086 Z" fill="#e377c2" fill-opacity="0.6" />
<path d="M13.745390013132868,-197.5223133050716 A198.0,198.0,0,0,0,13.634462086840276,-197.5300013759999 C5.453784834736111,-79.01200055039996,-79.04681383694556,-4.923537572444435,-197.6170345923639,-12.308843931111086 A198.0,198.0,0,0,0,-197.6175991872858,-12.299776073297156 C-79.04703967491433,-4.919910429318863,5.498156005253147,-79.00892532202865,13.745390013132868,-197.5223133050716 Z" fill="#d62728" fill-opacity="0.6" />
<path d="M13.967232825720485,-197.50675028259695 A198.0,198.0,0,0,0,13.745390013132868,-197.5223133050716 C5.498156005253147,-79.00892532202865,11.048138602475364,78.42562485196082,27.620346506188408,196.06406212990203 A198.0,198.0,0,0,0,27.644239846275784,196.0606946925405 C11.057695938510314,78.42427787701621,5.586893130288194,-79.00270011303878,13.967232825720485,-197.50675028259695 Z" fill="#9467bd" fill-opacity="0.6" />
<path d="M5.759443370502788,-197.9162166475046 A198.0,198.0,0,0,0,4.7756252819965885,-197.94239920533943 C1.9102501127986355,-79.17695968213577,-54.15462342416055,57.79201295843018,-135.38655856040137,144.48003239607544 A198.0,198.0,0,0,0,-135.29593437605772,144.56489940960594 C-54.11837375042309,57.82595976384238,2.3037773482011152,-79.16648665900185,5.759443370502788,-197.9162166475046 Z" fill="#d62728" fill-opacity="0.6" />
<path d="M5.923399874137328,-197.91137747469466 A198.0,198.0,0,0,0,5.759443370502788,-197.9162166475046 C2.3037773482011152,-79.16648665900185,11.041404926282077,78.42657315766051,27.603512315705192,196.06643289415126 A198.0,198.0,0,0,0,27.620346506188408,196.06406212990203 C11.048138602475364,78.42562485196082,2.3693599496549314,-79.16455098987787,5.923399874137328,-197.91137747469466 Z" fill="#9467bd" fill-opacity="0.6" />
<path d="M-56.6326556721337,-189.72807465296626 A198.0,198.0,0,0,0,-58.02518517502413,-189.30683528442432 C-23.210074070009654,-75.72273411376973,-46.974009195196714,-63.76584085644581,-117.43502298799177,-159.41460214111453 A198.0,198.0,0,0,0,-117.44784118603891,-159.40515863904463 C-46.97913647441557,-63.762063455617856,-22.653062268853482,-75.8912298611865,-56.6326556721337,-189.72807465296626 Z" fill="#2ca02c" fill-opacity="0.6" />
<path d="M-120.89980618450765,-156.80317874503848 A198.0,198.0,0,0,0,-122.60428063019484,-155.47408263486372 C-49.041712252077936,-62.18963305394549,-28.320383908408857,73.9634764953645,-70.80095977102214,184.90869123841125 A198.0,198.0,0,0,0,-70.79185602052613,184.91217677905667 C-28.31674240821045,73.96487071162267,-48.35992247380307,-62.7212714980154,-120.89980618450765,-156.80317874503848 Z" fill="#9467bd" fill-opacity="0.6" />
<path d="M-154.15914711502936,-124.25360099718131 A198.0,198.0,0,0,0,-154.16234034291875,-124.24963911414021 C-61.6649361371675,-49.699855645656086,-79.03175564032989,-5.15961242800129,-197.5793891008247,-12.899031070003224 A198.0,198.0,0,0,0,-197.6170345923639,-12.308843931111086 C-79.04681383694556,-4.923537572444435,-61.66365884601174,-49.70144039887253,-154.15914711502936,-124.25360099718131 Z" fill="#2ca02c" fill-opacity="0.6" />
<path d="M-193.0440691445667,-44.02257793573374 A198.0,198.0,0,0,0,-193.12811732741912,-43.652380205054534 C-77.25124693096765,-17.460952082021816,-78.37945285853363,11.371076008755919,-195.94863214633406,28.427690021889795 A198.0,198.0,0,0,0,-187.54463053364302,63.49024773931292 C-75.0178522134572,25.39609909572517,-77.21762765782668,-17.6090311742935,-193.0440691445667,-44.02257793573374 Z" fill="#d62728" fill-opacity="0.6" />
<path d="M-193.0204490225722,-44.12602700362463 A198.0,198.0,0,0,0,-193.0440691445667,-44.02257793573374 C-77.21762765782668,-17.6090311742935,-33.615301072266504,71.71228300522078,-84.03825268066626,179.28070751305196 A198.0,198.0,0,0,0,-76.66741308417517,182.5543967451358 C-30.66696523367007,73.02175869805431,-77.20817960902889,-17.65041080144985,-193.0204490225722,-44.12602700362463 Z" fill="#d62728" fill-opacity="0.6" />
<path d="M-193.01810702903813,-44.136270333216636 A198.0,198.0,0,0,0,-193.0204490225722,-44.12602700362463 C-77.20817960902889,-17.65041080144985,-28.460063954679313,73.90984210303499,-71.15015988669828,184.77460525758747 A198.0,198.0,0,0,0,-70.80095977102214,184.90869123841125 C-28.320383908408857,73.9634764953645,-77.20724281161526,-17.654508133286654,-193.01810702903813,-44.136270333216636 Z" fill="#d62728" fill-opacity="0.6" />
<path d="M-193.00782450966244,-44.1812140852574 A198.0,198.0,0,0,0,-193.01810702903813,-44.136270333216636 C-77.20724281161526,-17.654508133286654,43.23050056928511,66.3608606072061,108.07625142321278,165.90215151801527 A198.0,198.0,0,0,0,110.61196840568894,164.22238716270957 C44.24478736227558,65.68895486508383,-77.20312980386498,-17.672485634102962,-193.00782450966244,-44.1812140852574 Z" fill="#d62728" fill-opacity="0.6" />
<path d="M-192.41313520124191,-46.70316265552692 A198.0,198.0,0,0,0,-193.00782450966244,-44.1812140852574 C-77.20312980386498,-17.672485634102962,68.12485291036026,40.393618505177024,170.31213227590064,100.98404626294256 A198.0,198.0,0,0,0,170.3264814764308,100.9598420554384 C68.13059259057233,40.383936822175365,-76.96525408049678,-18.681265062210766,-192.41313520124191,-46.70316265552692 Z" fill="#e377c2" fill-opacity="0.6" />
<path d="M-197.99947754903516,-0.45485196395578786 A198.0,198.0,0,0,0,-197.83951838768948,7.970254959979267 C-79.1358073550758,3.1881019839917073,-78.38682077465788,11.320173534079153,-195.96705193664468,28.30043383519788 A198.0,198.0,0,0,0,-195.94863214633406,28.427690021889795 C-78.37945285853363,11.371076008755919,-79.19979101961407,-0.18194078558231516,-197.99947754903516,-0.45485196395578786 Z" fill="#d62728" fill-opacity="0.6" />
<path d="M-197.99908271245008,-0.602698123730691 A198.0,198.0,0,0,0,-197.99947754903516,-0.45485196395578786 C-79.19979101961407,-0.18194078558231516,-54.15532093433934,57.79135934115676,-135.38830233584835,144.4783983528919 A198.0,198.0,0,0,0,-135.38655856040137,144.48003239607544 C-54.15462342416055,57.79201295843018,-79.19963308498004,-0.2410792494922764,-197.99908271245008,-0.602698123730691 Z" fill="#d62728" fill-opacity="0.6" />
<path d="M-197.99796184953752,-0.8983893527233701 A198.0,198.0,0,0,0,-197.99908271245008,-0.602698123730691 C-79.19963308498004,-0.2410792494922764,-33.61660698796834,71.71167083966513,-84.04151746992085,179.27917709916284 A198.0,198.0,0,0,0,-84.03825268066626,179.28070751305196 C-33.615301072266504,71.71228300522078,-79.19918473981501,-0.35935574108934804,-197.99796184953752,-0.8983893527233701 Z" fill="#d62728" fill-opacity="0.6" />
<path d="M-197.99793202197162,-0.904939237023037 A198.0,198.0,0,0,0,-197.99796184953752,-0.8983893527233701 C-79.19918473981501,-0.35935574108934804,-28.599642426477022,73.85594392516866,-71.49910606619255,184.63985981292163 A198.0,198.0,0,0,0,-71.15015988669828,184.77460525758747 C-28.460063954679313,73.90984210303499,-79.19917280878866,-0.3619756948092148,-197.99793202197162,-0.904939237023037 Z" fill="#d62728" fill-opacity="0.6" />
<path d="M-197.9979162940852,-0.9083739320531364 A198.0,198.0,0,0,0,-197.99793202197162,-0.904939237023037 C-79.19917280878866,-0.3619756948092148,26.469884551982588,74.64573137028476,66.17471137995646,186.6143284257119 A198.0,198.0,0,0,0,66.39209735128603,186.53709928402273 C26.55683894051441,74.6148397136091,-79.19916651763408,-0.3633495728212546,-197.9979162940852,-0.9083739320531364 Z" fill="#d62728" fill-opacity="0.6" />
<path d="M-197.9963389361116,-1.2040630782501063 A198.0,198.0,0,0,0,-197.9979162940852,-0.9083739320531364 C-79.19916651763408,-0.3633495728212546,68.1238019931382,40.39539085093372,170.3095049828455,100.98847712733429 A198.0,198.0,0,0,0,170.31213227590064,100.98404626294256 C68.12485291036026,40.393618505177024,-79.19853557444465,-0.48162523130004253,-197.9963389361116,-1.2040630782501063 Z" fill="#e377c2" fill-opacity="0.6" />
<path d="M-197.99431999762012,-1.4997495390903641 A198.0,198.0,0,0,0,-197.9963389361116,-1.2040630782501063 C-79.19853557444465,-0.48162523130004253,79.165965501921,2.321617140843077,197.91491375480246,5.804042852107693 A198.0,198.0,0,0,0,197.91496990301417,5.8021279104305385 C79.16598796120567,2.3208511641722156,-79.19772799904806,-0.5998998156361457,-197.99431999762012,-1.4997495390903641 Z" fill="#e377c2" fill-opacity="0.6" />
<path d="M-184.85993227379151,70.92817098818503 A198.0,198.0,0,0,0,-176.22492873826758,90.27056270563794 C-70.48997149530703,36.10822508225518,-54.22081347467385,57.72991760036234,-135.5520336866846,144.32479400090585 A198.0,198.0,0,0,0,-135.38830233584835,144.4783983528919 C-54.15532093433934,57.79135934115676,-73.9439729095166,28.371268395274015,-184.85993227379151,70.92817098818503 Z" fill="#d62728" fill-opacity="0.6" />
<path d="M-184.86709139196088,70.90950937833644 A198.0,198.0,0,0,0,-184.85993227379151,70.92817098818503 C-73.9439729095166,28.371268395274015,-28.878492654385987,73.74735698322058,-72.19623163596496,184.36839245805146 A198.0,198.0,0,0,0,-71.49910606619255,184.63985981292163 C-28.599642426477022,73.85594392516866,-73.94683655678436,28.363803751334576,-184.86709139196088,70.90950937833644 Z" fill="#d62728" fill-opacity="0.6" />
<path d="M-185.13732439699362,70.20093386218129 A198.0,198.0,0,0,0,-184.86709139196088,70.90950937833644 C-73.94683655678436,28.363803751334576,13.631773489322487,78.01804119263574,34.07943372330622,195.0451029815893 A198.0,198.0,0,0,0,40.1596562816071,193.8845068780463 C16.06386251264284,77.55380275121853,-74.05492975879746,28.080373544872515,-185.13732439699362,70.20093386218129 Z" fill="#d62728" fill-opacity="0.6" />
<path d="M-185.14104030610176,70.19113330310601 A198.0,198.0,0,0,0,-185.13732439699362,70.20093386218129 C-74.05492975879746,28.080373544872515,26.295868091225103,74.70721063812307,65.73967022806275,186.76802659530767 A198.0,198.0,0,0,0,66.17471137995646,186.6143284257119 C26.469884551982588,74.64573137028476,-74.05641612244071,28.076453321242408,-185.14104030610176,70.19113330310601 Z" fill="#d62728" fill-opacity="0.6" />
<path d="M-185.15658083067692,70.1501288316209 A198.0,198.0,0,0,0,-185.14104030610176,70.19113330310601 C-74.05641612244071,28.076453321242408,42.20601212259237,67.0171063289634,105.51503030648092,167.54276582240848 A198.0,198.0,0,0,0,108.07625142321278,165.90215151801527 C43.23050056928511,66.3608606072061,-74.06263233227077,28.060051532648362,-185.15658083067692,70.1501288316209 Z" fill="#d62728" fill-opacity="0.6" />
<path d="M-186.6419312512174,66.0968191278207 A198.0,198.0,0,0,0,-185.15658083067692,70.1501288316209 C-74.06263233227077,28.060051532648362,68.11374396759356,40.412348146539465,170.2843599189839,101.03087036634865 A198.0,198.0,0,0,0,170.3095049828455,100.98847712733429 C68.1238019931382,40.39539085093372,-74.65677250048695,26.43872765112828,-186.6419312512174,66.0968191278207 Z" fill="#e377c2" fill-opacity="0.6" />
<path d="M-131.203522576738,148.2890274546819 A198.0,198.0,0,0,0,-131.19835660604323,148.29359805424343 C-52.47934264241729,59.31743922169738,-33.80495725152096,71.623074949508,-84.5123931288024,179.05768737377 A198.0,198.0,0,0,0,-84.04151746992085,179.27917709916284 C-33.61660698796834,71.71167083966513,-52.481409030695204,59.315610981872766,-131.203522576738,148.2890274546819 Z" fill="#d62728" fill-opacity="0.6" />
<path d="M-131.44865975636284,148.07177262481852 A198.0,198.0,0,0,0,-131.203522576738,148.2890274546819 C-52.481409030695204,59.315610981872766,21.102208144979578,76.33699503783181,52.75552036244894,190.84248759457952 A198.0,198.0,0,0,0,65.73967022806275,186.76802659530767 C26.295868091225103,74.70721063812307,-52.57946390254514,59.22870904992741,-131.44865975636284,148.07177262481852 Z" fill="#d62728" fill-opacity="0.6" />
<path d="M-131.4764492200611,148.04709825080897 A198.0,198.0,0,0,0,-131.44865975636284,148.07177262481852 C-52.57946390254514,59.22870904992741,41.37923855895383,67.53072349887265,103.44809639738456,168.82680874718162 A198.0,198.0,0,0,0,105.51503030648092,167.54276582240848 C42.20601212259237,67.0171063289634,-52.59057968802445,59.218839300323594,-131.4764492200611,148.04709825080897 Z" fill="#d62728" fill-opacity="0.6" />
<path d="M-132.06995948987975,147.51788298488265 A198.0,198.0,0,0,0,-131.4764492200611,148.04709825080897 C-52.59057968802445,59.218839300323594,79.16592811874074,2.322891538228702,197.91482029685184,5.807228845571754 A198.0,198.0,0,0,0,197.91491375480246,5.804042852107693 C79.165965501921,2.321617140843077,-52.8279837959519,59.00715319395306,-132.06995948987975,147.51788298488265 Z" fill="#e377c2" fill-opacity="0.6" />
<path d="M-75.43661598930436,183.06642774709468 A198.0,198.0,0,0,0,-75.42184648571974,183.07251315444523 C-30.1687385942879,73.2290052617781,-29.156930611253802,73.63771721971379,-72.8923265281345,184.09429304928446 A198.0,198.0,0,0,0,-72.19623163596496,184.36839245805146 C-28.878492654385987,73.74735698322058,-30.174646395721744,73.22657109883788,-75.43661598930436,183.06642774709468 Z" fill="#d62728" fill-opacity="0.6" />
<path d="M-75.45597770448093,183.0584481215245 A198.0,198.0,0,0,0,-75.43661598930436,183.06642774709468 C-30.174646395721744,73.22657109883788,20.657137942063468,76.45863360041534,51.642844855158664,191.14658400103835 A198.0,198.0,0,0,0,52.75552036244894,190.84248759457952 C21.102208144979578,76.33699503783181,-30.182391081792375,73.2233792486098,-75.45597770448093,183.0584481215245 Z" fill="#d62728" fill-opacity="0.6" />
<path d="M-75.46633166664652,183.054179916165 A198.0,198.0,0,0,0,-75.45597770448093,183.0584481215245 C-30.182391081792375,73.2233792486098,67.78496695140579,40.96142399132171,169.46241737851446,102.40355997830427 A198.0,198.0,0,0,0,170.2843599189839,101.03087036634865 C68.11374396759356,40.412348146539465,-30.18653266665861,73.221671966466,-75.46633166664652,183.054179916165 Z" fill="#d62728" fill-opacity="0.6" />
<path d="M-70.42693648861486,185.05147018283483 A198.0,198.0,0,0,0,-70.41782570909385,185.05493730890748 C-28.16713028363754,74.021974923563,76.4869074282899,20.552201635255805,191.21726857072474,51.38050408813951 A198.0,198.0,0,0,0,191.63177416573015,49.81227890886536 C76.65270966629207,19.924911563546146,-28.170774595445945,74.02058807313394,-70.42693648861486,185.05147018283483 Z" fill="#9467bd" fill-opacity="0.6" />
<path d="M-70.43946353171587,185.04670215208935 A198.0,198.0,0,0,0,-70.42693648861486,185.05147018283483 C-28.170774595445945,74.02058807313394,79.14575382696557,2.9308106662430284,197.86438456741394,7.327026665607571 A198.0,198.0,0,0,0,197.91482029685184,5.807228845571754 C79.16592811874074,2.322891538228702,-28.175785412686352,74.01868086083574,-70.43946353171587,185.04670215208935 Z" fill="#9467bd" fill-opacity="0.6" />
<path d="M32.119288378920906,195.37745856170747 A198.0,198.0,0,0,0,32.12731124335854,195.3761394650646 C12.850924497343417,78.15045578602584,67.56332199767803,41.32599086093492,168.90830499419508,103.3149771523373 A198.0,198.0,0,0,0,169.46241737851446,102.40355997830427 C67.78496695140579,40.96142399132171,12.847715351568363,78.15098342468299,32.119288378920906,195.37745856170747 Z" fill="#9467bd" fill-opacity="0.6" />
<path d="M32.10586819370949,195.37966431419662 A198.0,198.0,0,0,0,32.119288378920906,195.37745856170747 C12.847715351568363,78.15098342468299,76.38496134732252,20.927916283472797,190.96240336830627,52.31979070868199 A198.0,198.0,0,0,0,191.21726857072474,51.38050408813951 C76.4869074282899,20.552201635255805,12.842347277483796,78.15186572567865,32.10586819370949,195.37966431419662 Z" fill="#9467bd" fill-opacity="0.6" />
<path d="M31.216244291036343,195.52377372678328 A198.0,198.0,0,0,0,32.10586819370949,195.37966431419662 C12.842347277483796,78.15186572567865,79.1456887223434,2.9325682713152506,197.86422180585848,7.331420678288126 A198.0,198.0,0,0,0,197.86438456741394,7.327026665607571 C79.14575382696557,2.9308106662430284,12.486497716414538,78.20950949071332,31.216244291036343,195.52377372678328 Z" fill="#e377c2" fill-opacity="0.6" />
<path d="M40.1596562816071,193.8845068780463 A198.0,198.0,0,0,0,40.294348465771606,193.85655903713698 C16.117739386308642,77.54262361485479,79.14558268431199,2.93542868432073,197.86395671077997,7.3385717108018245 A198.0,198.0,0,0,0,197.86422180585848,7.331420678288126 C79.1456887223434,2.9325682713152506,16.06386251264284,77.55380275121853,40.1596562816071,193.8845068780463 Z" fill="#e377c2" fill-opacity="0.6" />
<path d="M70.07362865323432,185.18554632413571 A198.0,198.0,0,0,0,73.94172565891694,183.6753146358581 C29.576690263566775,73.47012585434324,41.35691956993485,67.54439431726323,103.39229892483712,168.86098579315805 A198.0,198.0,0,0,0,103.44809639738456,168.82680874718162 C41.37923855895383,67.53072349887265,28.029451461293732,74.07421852965429,70.07362865323432,185.18554632413571 Z" fill="#8c564b" fill-opacity="0.6" />
<path d="M69.4259032563052,185.4293503117728 A198.0,198.0,0,0,0,70.07362865323432,185.18554632413571 C28.029451461293732,74.07421852965429,67.55957508072261,41.33211602267909,168.89893770180652,103.3302900566977 A198.0,198.0,0,0,0,168.90830499419508,103.3149771523373 C67.56332199767803,41.32599086093492,27.770361302522083,74.17174012470912,69.4259032563052,185.4293503117728 Z" fill="#e377c2" fill-opacity="0.6" />
<path d="M68.99361459428377,185.59062784854044 A198.0,198.0,0,0,0,69.4259032563052,185.4293503117728 C27.770361302522083,74.17174012470912,79.14551668168626,2.9372077197441038,197.86379170421563,7.343019299360259 A198.0,198.0,0,0,0,197.86395671077997,7.3385717108018245 C79.14558268431199,2.93542868432073,27.597445837713508,74.23625113941618,68.99361459428377,185.59062784854044 Z" fill="#e377c2" fill-opacity="0.6" />
<path d="M115.11481472911036,161.0980429113979 A198.0,198.0,0,0,0,116.10254290939079,160.3876539200355 C46.44101716375632,64.1550615680142,79.14540613885738,2.940184877744554,197.86351534714345,7.350462194361384 A198.0,198.0,0,0,0,197.86379170421563,7.343019299360259 C79.14551668168626,2.9372077197441038,46.045925891644146,64.43921716455917,115.11481472911036,161.0980429113979 Z" fill="#e377c2" fill-opacity="0.6" />
<path d="M178.1533777324648,86.40239581466312 A198.0,198.0,0,0,0,178.61624699078274,85.44142034708744 C71.4464987963131,34.17656813883498,75.58113046971532,23.667123123013287,188.9528261742883,59.167807807533215 A198.0,198.0,0,0,0,190.96240336830627,52.31979070868199 C76.38496134732252,20.927916283472797,71.26135109298592,34.56095832586525,178.1533777324648,86.40239581466312 Z" fill="#e377c2" fill-opacity="0.6" />
<path d="M177.2121424694266,88.31679659835748 A198.0,198.0,0,0,0,178.1533777324648,86.40239581466312 C71.26135109298592,34.56095832586525,77.98520801170798,13.81836934557177,194.96302002926996,34.545923363929425 A198.0,198.0,0,0,0,197.86351534714345,7.350462194361384 C79.14540613885738,2.940184877744554,70.88485698777065,35.32671863934299,177.2121424694266,88.31679659835748 Z" fill="#e377c2" fill-opacity="0.6" />
<path d="M194.23708199038893,38.41817252107294 A198.0,198.0,0,0,0,194.60537203613725,36.50683736886295 C77.8421488144549,14.602734947545182,77.98428165514676,13.823596302364326,194.96070413786688,34.55899075591081 A198.0,198.0,0,0,0,194.96302002926996,34.545923363929425 C77.98520801170798,13.81836934557177,77.69483279615558,15.367269008429176,194.23708199038893,38.41817252107294 Z" fill="#e377c2" fill-opacity="0.6" />
<text x="220.00000000000003" y="0" font-size="10" text-anchor="start" dominant-baseline="middle" transform="rotate(-7.126103)" font-family="Arial">Canada</text>
<text x="220.00000000000006" y="0" font-size="10" text-anchor="start" dominant-baseline="middle" transform="rotate(-22.559546)" font-family="Arial">Mexico</text>
<text x="220.00000000000003" y="0" font-size="10" text-anchor="start" dominant-baseline="middle" transform="rotate(-56.035262)" font-family="Arial">United Sta.</text>
<text x="220.00000000000006" y="0" font-size="10" text-anchor="start" dominant-baseline="middle" transform="rotate(-82.758771)" font-family="Arial">Costa Rica</text>
<text x="220.0" y="0" font-size="10" text-anchor="start" dominant-baseline="middle" transform="rotate(-85.182669)" font-family="Arial">Dominican .</text>
<text x="220.00000000000003" y="0" font-size="10" text-anchor="start" dominant-baseline="middle" transform="rotate(-87.621162)" font-family="Arial">Guatemala</text>
<text x="-220.00000000000006" y="0" font-size="10" text-anchor="end" dominant-baseline="middle" transform="rotate(81.884039)" font-family="Arial">Argentina</text>
<text x="-220.00000000000003" y="0" font-size="10" text-anchor="end" dominant-baseline="middle" transform="rotate(62.063642)" font-family="Arial">Brazil</text>
<text x="-220.00000000000003" y="0" font-size="10" text-anchor="end" dominant-baseline="middle" transform="rotate(45.017979)" font-family="Arial">Colombia</text>
<text x="-220.00000000000003" y="0" font-size="10" text-anchor="end" dominant-baseline="middle" transform="rotate(25.515561)" font-family="Arial">Germany</text>
<text x="-220.00000000000006" y="0" font-size="10" text-anchor="end" dominant-baseline="middle" transform="rotate(4.928242)" font-family="Arial">Spain</text>
<text x="-220.00000000000006" y="0" font-size="10" text-anchor="end" dominant-baseline="middle" transform="rotate(-15.001790)" font-family="Arial">France</text>
<text x="-220.00000000000003" y="0" font-size="10" text-anchor="end" dominant-baseline="middle" transform="rotate(-38.098371)" font-family="Arial">United Kin.</text>
<text x="-220.00000000000003" y="0" font-size="10" text-anchor="end" dominant-baseline="middle" transform="rotate(-58.341267)" font-family="Arial">Italy</text>
<text x="-220.00000000000006" y="0" font-size="10" text-anchor="end" dominant-baseline="middle" transform="rotate(-68.674679)" font-family="Arial">Indonesia</text>
<text x="-220.00000000000003" y="0" font-size="10" text-anchor="end" dominant-baseline="middle" transform="rotate(-73.615225)" font-family="Arial">India</text>
<text x="-220.00000000000006" y="0" font-size="10" text-anchor="end" dominant-baseline="middle" transform="rotate(-88.700758)" font-family="Arial">Japan</text>
<text x="220.00000000000003" y="0" font-size="10" text-anchor="start" dominant-baseline="middle" transform="rotate(-280.826555)" font-family="Arial">Egypt</text>
<text x="220.00000000000003" y="0" font-size="10" text-anchor="start" dominant-baseline="middle" transform="rotate(-287.121589)" font-family="Arial">Nigeria</text>
<text x="220.00000000000003" y="0" font-size="10" text-anchor="start" dominant-baseline="middle" transform="rotate(-299.200683)" font-family="Arial">South Afri.</text>
<text x="220.00000000000003" y="0" font-size="10" text-anchor="start" dominant-baseline="middle" transform="rotate(-320.454520)" font-family="Arial">Australia</text>
<text x="220.00000000000003" y="0" font-size="10" text-anchor="start" dominant-baseline="middle" transform="rotate(-342.191940)" font-family="Arial">New Zealan.</text>
<text x="220.00000000000006" y="0" font-size="10" text-anchor="start" dominant-baseline="middle" transform="rotate(-354.687566)" font-family="Arial">Papua New .</text>
<text x="-295.0" y="-285.0" font-size="8" text-anchor="start" dominant-baseline="middle" font-family="Arial" font-weight="bold">Continents</text>
<circle cx="-290.5" cy="-274.5" r="4.5" fill="#8c564b" stroke="#333" stroke-width="0.5" />
<text x="-278.0" y="-271.0" font-size="6" text-anchor="start" dominant-baseline="middle" font-family="Arial">Africa</text>
<circle cx="-290.5" cy="-262.5" r="4.5" fill="#9467bd" stroke="#333" stroke-width="0.5" />
<text x="-278.0" y="-259.0" font-size="6" text-anchor="start" dominant-baseline="middle" font-family="Arial">Asia</text>
<circle cx="-290.5" cy="-250.5" r="4.5" fill="#ff7f0e" stroke="#333" stroke-width="0.5" />
<text x="-278.0" y="-247.0" font-size="6" text-anchor="start" dominant-baseline="middle" font-family="Arial">Central America</text>
<circle cx="-290.5" cy="-238.5" r="4.5" fill="#d62728" stroke="#333" stroke-width="0.5" />
<text x="-278.0" y="-235.0" font-size="6" text-anchor="start" dominant-baseline="middle" font-family="Arial">Europe</text>
<circle cx="-290.5" cy="-226.5" r="4.5" fill="#1f77b4" stroke="#333" stroke-width="0.5" />
<text x="-278.0" y="-223.0" font-size="6" text-anchor="start" dominant-baseline="middle" font-family="Arial">North America</text>
<circle cx="-290.5" cy="-214.5" r="4.5" fill="#e377c2" stroke="#333" stroke-width="0.5" />
<text x="-278.0" y="-211.0" font-size="6" text-anchor="start" dominant-baseline="middle" font-family="Arial">Oceania</text>
<circle cx="-290.5" cy="-202.5" r="4.5" fill="#2ca02c" stroke="#333" stroke-width="0.5" />
<text x="-278.0" y="-199.0" font-size="6" text-anchor="start" dominant-baseline="middle" font-family="Arial">South America</text>
</svg>