<?xml version="1.0" encoding="UTF-8"?>
<svg xmlns="http://www.w3.org/2000/svg" xmlns:xlink="http://www.w3.org/1999/xlink"
     width="600.0" height="600.0" viewBox="-300.0 -300.0 600.0 600.0">
<defs>
</defs>
<rect x="-300.0" y="-300.0" width="600.0" height="600.0" fill="#ffffff" fill-opacity="1.0" />
<path d="M200.0,-0.0 A200,200,0,0,0,193.0472644874072,-52.27574651718561 L206.5605730015257,-55.93504877338861 A214.0,214.0,0,0,1,214.0,-0.0 Z" fill="#1f77b4" fill-opacity="0.9" />
<path d="M192.51486345202795,-54.20357322213209 A200,200,0,0,0,171.6276928689169,-102.68366491556837 L183.6416313697411,-109.87152145965817 A214.0,214.0,0,0,1,205.99090389366992,-57.99782334768134 Z" fill="#1f77b4" fill-opacity="0.9" />
<path d="M170.59229202048766,-104.39477909932404 A200,200,0,0,0,30.916619311717884,-197.59595808197673 L33.08078266353814,-211.42767514771512 A214.0,214.0,0,0,1,182.5337524619218,-111.70241363627673 Z" fill="#1f77b4" fill-opacity="0.9" />
<path d="M28.939146845309427,-197.89523940677708 A200,200,0,0,0,21.929902228666577,-198.7940627590299 L23.46499538467324,-212.709647152162 A214.0,214.0,0,0,1,30.964887124481088,-211.7479061652515 Z" fill="#ff7f0e" fill-opacity="0.9" />
<path d="M19.940898247280405,-199.00341850604377 A200,200,0,0,0,12.901932800159516,-199.5834164704577 L13.805068096170682,-213.55425562338976 A214.0,214.0,0,0,1,21.336761124590033,-212.93365780146684 Z" fill="#ff7f0e" fill-opacity="0.9" />
<path d="M10.905486807927144,-199.7024545604839 A200,200,0,0,0,4.030278735839974,-199.95938800994423 L4.3123982473487725,-213.95654517064034 A214.0,214.0,0,0,1,11.668870884482045,-213.68162637971778 Z" fill="#ff7f0e" fill-opacity="0.9" />
<path d="M2.0305166698810506,-199.98969223950854 A200,200,0,0,0,-61.74185719714625,-190.23128835669277 L-66.06378720094649,-203.5474785416613 A214.0,214.0,0,0,1,2.1726528367727242,-213.98897069627415 Z" fill="#2ca02c" fill-opacity="0.9" />
<path d="M-63.64105130852281,-189.60436858982433 A200,200,0,0,0,-123.77039642429477,-157.10152440053827 L-132.4343241739954,-168.09863110857594 A214.0,214.0,0,0,1,-68.09592490011941,-202.87667439111206 Z" fill="#2ca02c" fill-opacity="0.9" />
<path d="M-125.33519701659326,-155.85598605383032 A200,200,0,0,0,-153.77529391931208,-127.87947051825472 L-164.53956449366393,-136.83103345453256 A214.0,214.0,0,0,1,-134.1086608077548,-166.76590507759846 Z" fill="#2ca02c" fill-opacity="0.9" />
<path d="M-155.04637861073297,-126.33534928790617 A200,200,0,0,0,-193.7457897009637,-49.62427806175061 L-207.3079949800312,-53.09797752607315 A214.0,214.0,0,0,1,-165.8996251134843,-135.1788237380596 Z" fill="#d62728" fill-opacity="0.9" />
<path d="M-194.23233700215167,-47.68437126231814 A200,200,0,0,0,-199.9026070267631,6.2408095551404 L-213.89578951863652,6.6776662240002285 A214.0,214.0,0,0,1,-207.8286005923023,-51.02227725068041 Z" fill="#d62728" fill-opacity="0.9" />
<path d="M-199.83020492428253,8.239490270595974 A200,200,0,0,0,-179.409038698613,88.38776404706469 L-191.96767140751592,94.57490753035923 A214.0,214.0,0,0,1,-213.81831926898232,8.816254589537692 Z" fill="#d62728" fill-opacity="0.9" />
<path d="M-178.5162054121813,90.1774051813196 A200,200,0,0,0,-131.13094075656525,151.01217294078702 L-140.31010660952484,161.58302504664212 A214.0,214.0,0,0,1,-191.012339791034,96.48982354401198 Z" fill="#d62728" fill-opacity="0.9" />
<path d="M-129.61428770332694,152.31590994757966 A200,200,0,0,0,-70.94554322571469,186.9939301057878 L-75.91173125151472,200.08350521319295 A214.0,214.0,0,0,1,-138.68728784255984,162.97802364391023 Z" fill="#d62728" fill-opacity="0.9" />
<path d="M-69.07208784255529,187.69402409525543 A200,200,0,0,0,-56.57902898339098,191.83016832421484 L-60.53956101222835,205.2582801069099 A214.0,214.0,0,0,1,-73.90713399153417,200.83260578192332 Z" fill="#9467bd" fill-opacity="0.9" />
<path d="M-54.65793034380908,192.3863577557705 A200,200,0,0,0,-35.60639590815848,196.80494041164584 L-38.09884362172958,210.58128624046105 A214.0,214.0,0,0,1,-58.48398546787572,205.85340279867444 Z" fill="#9467bd" fill-opacity="0.9" />
<path d="M-33.636598999742,197.15115827133897 A200,200,0,0,0,37.02648836330418,196.54271586472518 L39.61834254873548,210.30070597525597 A214.0,214.0,0,0,1,-35.99116092972394,210.9517393503327 Z" fill="#9467bd" fill-opacity="0.9" />
<path d="M38.990031456005354,196.162630098242 A200,200,0,0,0,44.77831288214334,194.9228121473443 L47.912794783893375,208.56740899765842 A214.0,214.0,0,0,1,41.71933365792573,209.89401420511896 Z" fill="#8c564b" fill-opacity="0.9" />
<path d="M46.72526961965728,194.46529042214792 A200,200,0,0,0,76.80031015885056,184.6664895412927 L82.17633186997011,197.5931438091832 A214.0,214.0,0,0,1,49.996038493033296,208.0778607516983 Z" fill="#8c564b" fill-opacity="0.9" />
<path d="M78.64310429316116,183.88926599215893 A200,200,0,0,0,117.57913647991707,161.78735013788017 L125.80967603351127,173.1124646475318 A214.0,214.0,0,0,1,84.14812159368245,196.76151461161007 Z" fill="#8c564b" fill-opacity="0.9" />
<path d="M119.19110410903943,160.60348906941007 A200,200,0,0,0,180.63086570459254,85.86320722410416 L193.27502630391402,91.87363172979146 A214.0,214.0,0,0,1,127.53448139667219,171.84573330426878 Z" fill="#e377c2" fill-opacity="0.9" />
<path d="M181.48045199834797,84.05263554746703 A200,200,0,0,0,198.9715482424705,20.25643083058401 L212.89955661944344,21.67438098872489 A214.0,214.0,0,0,1,194.18408363823235,89.93632003578973 Z" fill="#e377c2" fill-opacity="0.9" />
<path d="M199.16416068021383,18.26573569681687 A200,200,0,0,0,199.99000008333306,1.9999666668345826 L213.9893000891664,2.1399643335130034 A214.0,214.0,0,0,1,213.1056519278288,19.54433719559405 Z" fill="#e377c2" fill-opacity="0.9" />
<path d="M193.0,-0.0 A193.0,193.0,0,0,0,191.0319585810902,-27.491649653533514 L195.9809730521029,-28.203868556474795 A198.0,198.0,0,0,1,198.0,-0.0 Z" fill="#1f77b4" fill-opacity="0.6" />
<path d="M185.77684323120698,-52.30644815935747 A193.0,193.0,0,0,0,178.00722700486926,-74.58168095475551 L182.61881319670525,-76.51384885513777 A198.0,198.0,0,0,1,190.58971481750768,-53.66153748991078 Z" fill="#1f77b4" fill-opacity="0.6" />
<path d="M164.6215617997706,-100.7409618308477 A193.0,193.0,0,0,0,42.15562699886969,-188.33986065709024 L43.24774168795958,-193.21913165856927 A198.0,198.0,0,0,1,168.8863691002828,-103.3508313083308 Z" fill="#1f77b4" fill-opacity="0.6" />
<path d="M1.9594485864352138,-192.99005301112572 A193.0,193.0,0,0,0,-51.24830659953843,-186.07152138540627 L-52.575982936314034,-190.8920271207795 A198.0,198.0,0,0,1,2.01021150318224,-197.98979531711345 Z" fill="#2ca02c" fill-opacity="0.6" />
<path d="M-61.413614512724514,-182.96821568918048 A193.0,193.0,0,0,0,-114.2525647447977,-155.5485501354346 L-117.21247574854893,-159.57830532029044 A198.0,198.0,0,0,1,-63.00464079543758,-187.7083249039261 Z" fill="#2ca02c" fill-opacity="0.6" />
<path d="M-120.94846512101249,-150.40102654194627 A193.0,193.0,0,0,0,-133.6103113113873,-139.27413511228195 L-137.07171834017973,-142.88227332762605 A198.0,198.0,0,0,1,-124.08184504642733,-154.29742619329204 Z" fill="#2ca02c" fill-opacity="0.6" />
<path d="M-149.6197553593573,-121.91361206282946 A193.0,193.0,0,0,0,-186.82778592895028,-48.418781530376535 L-191.66788401001116,-49.6731541088837 A198.0,198.0,0,0,1,-153.49591482462563,-125.0719957950271 Z" fill="#d62728" fill-opacity="0.6" />
<path d="M-187.43420520707636,-46.015418268137005 A193.0,193.0,0,0,0,-192.7473689076225,-9.87176677139809 L-197.7408240606697,-10.127512024543119 A198.0,198.0,0,0,1,-192.29001363213013,-47.20752754969496 Z" fill="#d62728" fill-opacity="0.6" />
<path d="M-192.83614775193266,7.951108111125115 A193.0,193.0,0,0,0,-189.2825711962903,37.69758933037088 L-194.18626475059835,38.674210815613655 A198.0,198.0,0,0,1,-197.8319028750397,8.157095367890014 Z" fill="#d62728" fill-opacity="0.6" />
<path d="M-172.26813822275497,87.02119599997341 A193.0,193.0,0,0,0,-132.91294767692725,139.93980255749398 L-136.35628829031916,143.5651860434394 A198.0,198.0,0,0,1,-176.7310433580595,89.27563112950641 Z" fill="#d62728" fill-opacity="0.6" />
<path d="M-125.0777876337105,146.98485309941435 A193.0,193.0,0,0,0,-77.28029158980802,176.8523580046199 L-79.28237168280822,181.43402531043907 A198.0,198.0,0,0,1,-128.3181448262937,150.79275084810385 Z" fill="#d62728" fill-opacity="0.6" />
<path d="M-66.65456476806587,181.12473325192147 A193.0,193.0,0,0,0,-57.93055123686842,184.10065516828712 L-59.43134271968884,188.87010219337228 A198.0,198.0,0,0,1,-68.38136696412974,185.81708385430287 Z" fill="#9467bd" fill-opacity="0.6" />
<path d="M-52.744902781775764,185.65283523431853 A193.0,193.0,0,0,0,-38.07357396937731,189.2073015641795 L-39.05993598930936,194.10904512801832 A198.0,198.0,0,0,1,-54.11135104037099,190.46249417821278 Z" fill="#9467bd" fill-opacity="0.6" />
<path d="M-32.45931803475103,190.2508677318421 A193.0,193.0,0,0,0,27.29251673383643,191.06051012789968 L27.999576752847737,196.01026427629085 A198.0,198.0,0,0,1,-33.30023300974458,195.17964668862558 Z" fill="#9467bd" fill-opacity="0.6" />
<path d="M45.089885182969276,187.65900525737274 A193.0,193.0,0,0,0,52.01081711367713,185.85982595269917 L53.358247608850114,190.6748473504375 A198.0,198.0,0,0,1,46.25801692346071,192.52063751792642 Z" fill="#8c564b" fill-opacity="0.6" />
<path d="M75.89059564290052,177.45314168243337 A193.0,193.0,0,0,0,104.63044268977512,162.17728096913478 L107.34107592008019,166.37876493206574 A198.0,198.0,0,0,1,77.85667325022955,182.05037333223734 Z" fill="#8c564b" fill-opacity="0.6" />
<path d="M115.01941546522306,154.9823669519807 A193.0,193.0,0,0,0,170.5209460997775,90.39694099490747 L174.9385871904453,92.73883065798796 A198.0,198.0,0,0,1,117.99919306794904,158.99745417871597 Z" fill="#e377c2" fill-opacity="0.6" />
<path d="M175.1286361784058,81.11079330330568 A193.0,193.0,0,0,0,190.8000858291147,29.05730971033732 L195.74309323401403,29.81008975464658 A198.0,198.0,0,0,1,179.6656474783645,83.21210919199237 Z" fill="#e377c2" fill-opacity="0.6" />
<path d="M195.84574330529858,-29.12807630440243 A198.0,198.0,0,0,0,191.11679184253313,-51.75298905201376 C76.44671673701326,-20.701195620805507,16.995808031954542,-77.35491263870027,42.489520079886354,-193.38728159675065 A198.0,198.0,0,0,0,41.70243314452487,-193.5585365459928 C16.68097325780995,-77.42341461839713,78.33829732211944,-11.651230521760972,195.84574330529858,-29.12807630440243 Z" fill="#1f77b4" fill-opacity="0.6" />
<path d="M195.84655176562887,-29.122640016194513 A198.0,198.0,0,0,0,195.84574330529858,-29.12807630440243 C78.33829732211944,-11.651230521760972,2.169430665239948,-79.17028211765269,5.423576663099871,-197.92570529413172 A198.0,198.0,0,0,0,5.351902758835562,-197.92765632134376 C2.140761103534225,-79.1710625285375,78.33862070625156,-11.649056006477807,195.84655176562887,-29.122640016194513 Z" fill="#1f77b4" fill-opacity="0.6" />
<path d="M195.89107848586403,-28.82161289111111 A198.0,198.0,0,0,0,195.84655176562887,-29.122640016194513 C78.33862070625156,-11.649056006477807,-22.409676094822427,75.96345448520061,-56.02419023705606,189.90863621300153 A198.0,198.0,0,0,0,-56.02199085356075,189.9092850305207 C-22.408796341424303,75.96371401220829,78.35643139434562,-11.528645156444444,195.89107848586403,-28.82161289111111 Z" fill="#9467bd" fill-opacity="0.6" />
<path d="M195.89265254783828,-28.810912477252515 A198.0,198.0,0,0,0,195.89107848586403,-28.82161289111111 C78.35643139434562,-11.528645156444444,71.04591524674036,35.00168462735737,177.61478811685092,87.50421156839342 A198.0,198.0,0,0,0,178.4637249102392,85.75954110862808 C71.38548996409568,34.30381644345123,78.35706101913532,-11.524364990901006,195.89265254783828,-28.810912477252515 Z" fill="#1f77b4" fill-opacity="0.6" />
<path d="M195.8933553929668,-28.806133251181087 A198.0,198.0,0,0,0,195.89265254783828,-28.810912477252515 C78.35706101913532,-11.524364990901006,78.74307656228706,8.495168833272258,196.85769140571762,21.237922083180646 A198.0,198.0,0,0,0,196.9206520293683,20.645987608454053 C78.76826081174733,8.258395043381622,78.35734215718674,-11.522453300472435,195.8933553929668,-28.806133251181087 Z" fill="#1f77b4" fill-opacity="0.6" />
<path d="M195.9809730521029,-28.203868556474795 A198.0,198.0,0,0,0,195.8933553929668,-28.806133251181087 C78.35734215718674,-11.522453300472435,79.19603186075045,0.7928035765550259,197.99007965187613,1.9820089413875646 A198.0,198.0,0,0,0,197.9901000824997,1.9799670001662368 C79.19604003299989,0.7919868000664948,78.39238922084117,-11.281547422589918,195.9809730521029,-28.203868556474795 Z" fill="#e377c2" fill-opacity="0.6" />
<path d="M181.18876324473538,-79.8412930371448 A198.0,198.0,0,0,0,169.91141594022773,-101.65682826641269 C67.9645663760911,-40.66273130656508,17.299096675183833,-77.2876526634277,43.24774168795958,-193.21913165856927 A198.0,198.0,0,0,0,42.489520079886354,-193.38728159675065 C16.995808031954542,-77.35491263870027,72.47550529789416,-31.93651721485792,181.18876324473538,-79.8412930371448 Z" fill="#1f77b4" fill-opacity="0.6" />
<path d="M181.2130952900121,-79.78605201044225 A198.0,198.0,0,0,0,181.18876324473538,-79.8412930371448 C72.47550529789416,-31.93651721485792,2.4847762409292002,-79.16101241793535,6.211940602323,-197.90253104483836 A198.0,198.0,0,0,0,5.423576663099871,-197.92570529413172 C2.169430665239948,-79.17028211765269,72.48523811600484,-31.9144208041769,181.2130952900121,-79.78605201044225 Z" fill="#1f77b4" fill-opacity="0.6" />
<path d="M181.49894381218633,-79.13364262474484 A198.0,198.0,0,0,0,181.2130952900121,-79.78605201044225 C72.48523811600484,-31.9144208041769,-76.66990680263028,-19.85863517153151,-191.67476700657568,-49.64658792882877 A198.0,198.0,0,0,0,-191.67774393889573,-49.63509321533623 C-76.67109757555829,-19.854037286134492,72.59957752487453,-31.653457049897938,181.49894381218633,-79.13364262474484 Z" fill="#d62728" fill-opacity="0.6" />
<path d="M181.78244351754662,-78.48020915358201 A198.0,198.0,0,0,0,181.49894381218633,-79.13364262474484 C72.59957752487453,-31.653457049897938,-79.16288500854468,-2.4243838648062974,-197.90721252136169,-6.060959662015743 A198.0,198.0,0,0,0,-197.90745255615948,-6.053116778278981 C-79.1629810224638,-2.4212467113115927,72.71297740701866,-31.392083661432807,181.78244351754662,-78.48020915358201 Z" fill="#d62728" fill-opacity="0.6" />
<path d="M182.0635907372624,-77.82576005317667 A198.0,198.0,0,0,0,181.78244351754662,-78.48020915358201 C72.71297740701866,-31.392083661432807,-73.25554147534358,30.1042462645092,-183.13885368835895,75.260615661273 A198.0,198.0,0,0,0,-183.13457718295902,75.27102125000582 C-73.25383087318362,30.108408500002326,72.82543629490496,-31.130304021270668,182.0635907372624,-77.82576005317667 Z" fill="#d62728" fill-opacity="0.6" />
<path d="M182.34238183294707,-77.17030379289517 A198.0,198.0,0,0,0,182.0635907372624,-77.82576005317667 C72.82543629490496,-31.130304021270668,-52.36931590711278,59.414600490292166,-130.92328976778194,148.5365012257304 A198.0,198.0,0,0,0,-130.9145741818367,148.5441828776488 C-52.36582967273469,59.417673151059525,72.93695273317883,-30.86812151715807,182.34238183294707,-77.17030379289517 Z" fill="#d62728" fill-opacity="0.6" />
<path d="M182.61881319670525,-76.51384885513777 A198.0,198.0,0,0,0,182.34238183294707,-77.17030379289517 C72.93695273317883,-30.86812151715807,79.19602227063451,0.7937609899473896,197.99005567658628,1.984402474868474 A198.0,198.0,0,0,0,197.99007965187613,1.9820089413875646 C79.19603186075045,0.7928035765550259,73.0475252786821,-30.60553954205511,182.61881319670525,-76.51384885513777 Z" fill="#e377c2" fill-opacity="0.6" />
<path d="M32.197227094305156,-195.36462977580598 A198.0,198.0,0,0,0,30.607453118600706,-195.61999850115697 C12.242981247440284,-78.24799940046279,11.459902150742534,-78.36651480508374,28.649755376856334,-195.91628701270932 A198.0,198.0,0,0,0,21.988747481487515,-196.77523976403987 C8.795498992595006,-78.71009590561596,12.878890837722063,-78.14585191032239,32.197227094305156,-195.36462977580598 Z" fill="#1f77b4" fill-opacity="0.6" />
<path d="M33.75985846314496,-195.10067133802593 A198.0,198.0,0,0,0,32.197227094305156,-195.36462977580598 C12.878890837722063,-78.14585191032239,7.8965957059230405,-78.80535372839334,19.7414892648076,-197.01338432098333 A198.0,198.0,0,0,0,13.155244971462505,-197.56249525084667 C5.262097988585002,-79.02499810033868,13.503943385257983,-78.04026853521037,33.75985846314496,-195.10067133802593 Z" fill="#1f77b4" fill-opacity="0.6" />
<path d="M34.853019382383046,-194.90835549029504 A198.0,198.0,0,0,0,33.75985846314496,-195.10067133802593 C13.503943385257983,-78.04026853521037,4.318572775939149,-79.08217200595162,10.796431939847873,-197.70543001487903 A198.0,198.0,0,0,0,6.211940602323,-197.90253104483836 C2.4847762409292002,-79.16101241793535,13.941207752953218,-77.96334219611802,34.853019382383046,-194.90835549029504 Z" fill="#1f77b4" fill-opacity="0.6" />
<path d="M34.98061915599575,-194.88549531317918 A198.0,198.0,0,0,0,34.853019382383046,-194.90835549029504 C13.941207752953218,-77.96334219611802,-21.030393174525614,-76.3568108483118,-52.575982936314034,-190.8920271207795 A198.0,198.0,0,0,0,-57.39875045713717,-189.49771356393538 C-22.959500182854867,-75.79908542557415,13.992247662398299,-77.95419812527167,34.98061915599575,-194.88549531317918 Z" fill="#1f77b4" fill-opacity="0.6" />
<path d="M35.08682834503616,-194.86640161065725 A198.0,198.0,0,0,0,34.98061915599575,-194.88549531317918 C13.992247662398299,-77.95419812527167,-47.12740406373419,-63.652555221401215,-117.81851015933547,-159.13138805350303 A198.0,198.0,0,0,0,-121.35109079412156,-156.45418742583038 C-48.54043631764863,-62.58167497033216,14.034731338014465,-77.9465606442629,35.08682834503616,-194.86640161065725 Z" fill="#1f77b4" fill-opacity="0.6" />
<path d="M35.833950736659475,-194.73039817810331 A198.0,198.0,0,0,0,35.08682834503616,-194.86640161065725 C14.034731338014465,-77.9465606442629,-55.25626166519186,-56.739629420607336,-138.14065416297964,-141.84907355151833 A198.0,198.0,0,0,0,-152.22620243488473,-126.61430919234009 C-60.89048097395389,-50.645723676936036,14.33358029466379,-77.89215927124133,35.833950736659475,-194.73039817810331 Z" fill="#1f77b4" fill-opacity="0.6" />
<path d="M35.85947020440604,-194.7257004009982 A198.0,198.0,0,0,0,35.833950736659475,-194.73039817810331 C14.33358029466379,-77.89215927124133,-79.15098472391408,-2.7859679170301623,-197.8774618097852,-6.964919792575405 A198.0,198.0,0,0,0,-197.90721252136169,-6.060959662015743 C-79.16288500854468,-2.4243838648062974,14.343788081762415,-77.89028016039929,35.85947020440604,-194.7257004009982 Z" fill="#1f77b4" fill-opacity="0.6" />
<path d="M36.65135372991811,-194.57820605032933 A198.0,198.0,0,0,0,35.85947020440604,-194.7257004009982 C14.343788081762415,-77.89028016039929,-73.45724080440097,29.608677332907828,-183.6431020110024,74.02169333226956 A198.0,198.0,0,0,0,-183.13885368835895,75.260615661273 C-73.25554147534358,30.1042462645092,14.660541491967244,-77.83128242013174,36.65135372991811,-194.57820605032933 Z" fill="#1f77b4" fill-opacity="0.6" />
<path d="M36.76994375931381,-194.55583063978548 A198.0,198.0,0,0,0,36.65135372991811,-194.57820605032933 C14.660541491967244,-77.83128242013174,-54.21200520299854,57.738189198052105,-135.53001300749634,144.34547299513025 A198.0,198.0,0,0,0,-130.92328976778194,148.5365012257304 C-52.36931590711278,59.414600490292166,14.707977503725525,-77.8223322559142,36.76994375931381,-194.55583063978548 Z" fill="#1f77b4" fill-opacity="0.6" />
<path d="M36.854652791371215,-194.53980201395157 A198.0,198.0,0,0,0,36.76994375931381,-194.55583063978548 C14.707977503725525,-77.8223322559142,-29.642228887739623,73.44370814826043,-74.10557221934906,183.60927037065107 A198.0,198.0,0,0,0,-70.78950889369608,184.91307533700618 C-28.315803557478432,73.96523013480247,14.741861116548487,-77.81592080558063,36.854652791371215,-194.53980201395157 Z" fill="#1f77b4" fill-opacity="0.6" />
<path d="M40.80388667022966,-193.7499492454206 A198.0,198.0,0,0,0,36.854652791371215,-194.53980201395157 C14.741861116548487,-77.81592080558063,-23.01368229114945,75.78265254926113,-57.534205727873626,189.45663137315282 A198.0,198.0,0,0,0,-56.02419023705606,189.90863621300153 C-22.409676094822427,75.96345448520061,16.321554668091864,-77.49997969816825,40.80388667022966,-193.7499492454206 Z" fill="#1f77b4" fill-opacity="0.6" />
<path d="M40.82035314885265,-193.74648066172185 A198.0,198.0,0,0,0,40.80388667022966,-193.7499492454206 C16.321554668091864,-77.49997969816825,-14.610249311605527,77.84073878794271,-36.525623279013814,194.60184696985678 A198.0,198.0,0,0,0,-36.10262240448054,194.6807660132852 C-14.441048961792218,77.87230640531408,16.32814125954106,-77.49859226468874,40.82035314885265,-193.74648066172185 Z" fill="#1f77b4" fill-opacity="0.6" />
<path d="M41.023975393401706,-193.70346781336045 A198.0,198.0,0,0,0,40.82035314885265,-193.74648066172185 C16.32814125954106,-77.49859226468874,11.227319014099663,78.4001741564114,28.068297535249155,196.00043539102847 A198.0,198.0,0,0,0,36.64058654065873,194.58023388298332 C14.656234616263493,77.83209355319333,16.409590157360682,-77.48138712534418,41.023975393401706,-193.70346781336045 Z" fill="#1f77b4" fill-opacity="0.6" />
<path d="M41.075134892217875,-193.69262581106724 A198.0,198.0,0,0,0,41.023975393401706,-193.70346781336045 C16.409590157360682,-77.48138712534418,17.652036527119435,77.20780793705545,44.13009131779859,193.0195198426386 A198.0,198.0,0,0,0,44.330529753321905,192.97358402587085 C17.732211901328764,77.18943361034835,16.43005395688715,-77.4770503244269,41.075134892217875,-193.69262581106724 Z" fill="#1f77b4" fill-opacity="0.6" />
<path d="M41.27200488047823,-193.65077230196056 A198.0,198.0,0,0,0,41.075134892217875,-193.69262581106724 C16.43005395688715,-77.4770503244269,27.516292490421264,74.26636955972458,68.79073122605315,185.66592389931145 A198.0,198.0,0,0,0,72.52894718019708,184.23775894460988 C29.011578872078832,73.69510357784395,16.50880195219129,-77.46030892078423,41.27200488047823,-193.65077230196056 Z" fill="#1f77b4" fill-opacity="0.6" />
<path d="M41.47291731833632,-193.60784366627928 A198.0,198.0,0,0,0,41.27200488047823,-193.65077230196056 C16.50880195219129,-77.46030892078423,44.24387960931131,65.6895662728623,110.60969902327825,164.22391568215573 A198.0,198.0,0,0,0,116.4033451151179,160.16947663650137 C46.56133804604716,64.06779065460056,16.589166927334528,-77.44313746651171,41.47291731833632,-193.60784366627928 Z" fill="#1f77b4" fill-opacity="0.6" />
<path d="M41.55300578700885,-193.59067051401215 A198.0,198.0,0,0,0,41.47291731833632,-193.60784366627928 C16.589166927334528,-77.44313746651171,70.20316483694124,36.662728306513905,175.5079120923531,91.65682076628477 A198.0,198.0,0,0,0,177.61478811685092,87.50421156839342 C71.04591524674036,35.00168462735737,16.62120231480354,-77.43626820560486,41.55300578700885,-193.59067051401215 Z" fill="#1f77b4" fill-opacity="0.6" />
<path d="M41.61261859595057,-193.57786540198222 A198.0,198.0,0,0,0,41.55300578700885,-193.59067051401215 C16.62120231480354,-77.43626820560486,78.63522464165857,9.441474755349049,196.58806160414642,23.60368688837262 A198.0,198.0,0,0,0,196.85769140571762,21.237922083180646 C78.74307656228706,8.495168833272258,16.645047438380228,-77.43114616079289,41.61261859595057,-193.57786540198222 Z" fill="#1f77b4" fill-opacity="0.6" />
<path d="M41.70243314452487,-193.5585365459928 A198.0,198.0,0,0,0,41.61261859595057,-193.57786540198222 C16.645047438380228,-77.43114616079289,79.19114225802537,1.1844778888565657,197.97785564506339,2.961194722141414 A198.0,198.0,0,0,0,197.99005567658628,1.984402474868474 C79.19602227063451,0.7937609899473896,16.68097325780995,-77.42341461839713,41.70243314452487,-193.5585365459928 Z" fill="#1f77b4" fill-opacity="0.6" />
<path d="M21.89603757645755,-196.78557756718442 A198.0,198.0,0,0,0,21.71060320637991,-196.80612213143962 C8.684241282551964,-78.72244885257585,11.219924195418265,78.40123277761052,28.049810488545663,196.00308194402626 A198.0,198.0,0,0,0,28.068297535249155,196.00043539102847 C11.227319014099663,78.4001741564114,8.758415030583022,-78.71423102687378,21.89603757645755,-196.78557756718442 Z" fill="#9467bd" fill-opacity="0.6" />
<path d="M21.988747481487515,-196.77523976403987 A198.0,198.0,0,0,0,21.89603757645755,-196.78557756718442 C8.758415030583022,-78.71423102687378,79.19112802717869,1.1854289447264639,197.9778200679467,2.96357236181616 A198.0,198.0,0,0,0,197.97785564506339,2.961194722141414 C79.19114225802537,1.1844778888565657,8.795498992595006,-78.71009590561596,21.988747481487515,-196.77523976403987 Z" fill="#e377c2" fill-opacity="0.6" />
<path d="M13.155244971462505,-197.56249525084667 A198.0,198.0,0,0,0,12.77291347215792,-197.58758230575313 C5.109165388863168,-79.03503292230126,11.204734525113338,78.40340505502127,28.01183631278334,196.00851263755317 A198.0,198.0,0,0,0,28.049810488545663,196.00308194402626 C11.219924195418265,78.40123277761052,5.262097988585002,-79.02499810033868,13.155244971462505,-197.56249525084667 Z" fill="#9467bd" fill-opacity="0.6" />
<path d="M4.133346678695943,-197.95685248365038 A198.0,198.0,0,0,0,3.9899759484815744,-197.9597941298448 C1.5959903793926298,-79.18391765193792,-47.122823713520226,-63.65594618937414,-117.80705928380056,-159.13986547343535 A198.0,198.0,0,0,0,-117.81851015933547,-159.13138805350303 C-47.12740406373419,-63.652555221401215,1.6533386714783775,-79.18274099346016,4.133346678695943,-197.95685248365038 Z" fill="#2ca02c" fill-opacity="0.6" />
<path d="M4.348398685367517,-197.9522453241516 A198.0,198.0,0,0,0,4.133346678695943,-197.95685248365038 C1.6533386714783775,-79.18274099346016,-76.66715360400447,-19.869261643553482,-191.66788401001116,-49.6731541088837 A198.0,198.0,0,0,0,-191.67476700657568,-49.64658792882877 C-76.66990680263028,-19.85863517153151,1.7393594741470069,-79.18089812966065,4.348398685367517,-197.9522453241516 Z" fill="#d62728" fill-opacity="0.6" />
<path d="M5.136876872758222,-197.93335367237663 A198.0,198.0,0,0,0,4.348398685367517,-197.9522453241516 C1.7393594741470069,-79.18089812966065,-54.24070821553741,57.71122570416378,-135.6017705388435,144.27806426040945 A198.0,198.0,0,0,0,-135.53001300749634,144.34547299513025 C-54.21200520299854,57.738189198052105,2.054750749103289,-79.17334146895065,5.136876872758222,-197.93335367237663 Z" fill="#d62728" fill-opacity="0.6" />
<path d="M5.208552854265755,-197.93148051071694 A198.0,198.0,0,0,0,5.136876872758222,-197.93335367237663 C2.054750749103289,-79.17334146895065,11.201867040143735,78.40381479759095,28.004667600359337,196.00953699397738 A198.0,198.0,0,0,0,28.01183631278334,196.00851263755317 C11.204734525113338,78.40340505502127,2.083421141706302,-79.17259220428679,5.208552854265755,-197.93148051071694 Z" fill="#9467bd" fill-opacity="0.6" />
<path d="M5.351902758835562,-197.92765632134376 A198.0,198.0,0,0,0,5.208552854265755,-197.93148051071694 C2.083421141706302,-79.17259220428679,78.63457855048632,9.446854301162716,196.5864463762158,23.61713575290679 A198.0,198.0,0,0,0,196.58806160414642,23.60368688837262 C78.63522464165857,9.441474755349049,2.140761103534225,-79.1710625285375,5.351902758835562,-197.92765632134376 Z" fill="#e377c2" fill-opacity="0.6" />
<path d="M-59.530541664894855,-188.8388588428881 A198.0,198.0,0,0,0,-61.12443862517479,-188.32897547312587 C-24.449775450069918,-75.33159018925035,-46.88499029941957,-63.83132212811618,-117.21247574854893,-159.57830532029044 A198.0,198.0,0,0,0,-117.80705928380056,-159.13986547343535 C-47.122823713520226,-63.65594618937414,-23.812216665957944,-75.53554353715525,-59.530541664894855,-188.8388588428881 Z" fill="#2ca02c" fill-opacity="0.6" />
<path d="M-58.99829204900252,-189.0058240777268 A198.0,198.0,0,0,0,-59.530541664894855,-188.8388588428881 C-23.812216665957944,-75.53554353715525,-55.255133408512876,-56.74072815894633,-138.13783352128218,-141.85182039736583 A198.0,198.0,0,0,0,-138.14065416297964,-141.84907355151833 C-55.25626166519186,-56.739629420607336,-23.59931681960101,-75.60232963109073,-58.99829204900252,-189.0058240777268 Z" fill="#2ca02c" fill-opacity="0.6" />
<path d="M-57.932392215033666,-189.33525274560864 A198.0,198.0,0,0,0,-58.99829204900252,-189.0058240777268 C-23.59931681960101,-75.60232963109073,-23.016315251206173,75.78185292177207,-57.54078812801543,189.45463230443016 A198.0,198.0,0,0,0,-57.534205727873626,189.45663137315282 C-23.01368229114945,75.78265254926113,-23.172956886013466,-75.73410109824346,-57.932392215033666,-189.33525274560864 Z" fill="#9467bd" fill-opacity="0.6" />
<path d="M-57.39875045713717,-189.49771356393538 A198.0,198.0,0,0,0,-57.932392215033666,-189.33525274560864 C-23.172956886013466,-75.73410109824346,79.19111885550137,1.1860414890945659,197.97779713875343,2.9651037227364143 A198.0,198.0,0,0,0,197.9778200679467,2.96357236181616 C79.19112802717869,1.1854289447264639,-22.959500182854867,-75.79908542557415,-57.39875045713717,-189.49771356393538 Z" fill="#e377c2" fill-opacity="0.6" />
<path d="M-122.5151901408761,-155.54429653556883 A198.0,198.0,0,0,0,-122.53269246005182,-155.53050915653287 C-49.01307698402073,-62.21220366261315,-54.828687336071894,-57.152909331050424,-137.07171834017973,-142.88227332762605 A198.0,198.0,0,0,0,-138.13783352128218,-141.85182039736583 C-55.255133408512876,-56.74072815894633,-49.006076056350445,-62.217718614227536,-122.5151901408761,-155.54429653556883 Z" fill="#2ca02c" fill-opacity="0.6" />
<path d="M-121.35109079412156,-156.45418742583038 A198.0,198.0,0,0,0,-122.5151901408761,-155.54429653556883 C-49.006076056350445,-62.217718614227536,-23.019602929518864,75.7808543166893,-57.549007323797156,189.45213579172324 A198.0,198.0,0,0,0,-57.54078812801543,189.45463230443016 C-23.016315251206173,75.78185292177207,-48.54043631764863,-62.58167497033216,-121.35109079412156,-156.45418742583038 Z" fill="#9467bd" fill-opacity="0.6" />
<path d="M-152.22620243488473,-126.61430919234009 A198.0,198.0,0,0,0,-152.23754098011895,-126.60067581307217 C-60.89501639204758,-50.64027032522887,-79.11400906036614,-3.68965721935044,-197.78502265091535,-9.2241430483761 A198.0,198.0,0,0,0,-197.8774618097852,-6.964919792575405 C-79.15098472391408,-2.7859679170301623,-60.89048097395389,-50.645723676936036,-152.22620243488473,-126.61430919234009 Z" fill="#2ca02c" fill-opacity="0.6" />
<path d="M-191.80493536759107,-49.14129392511162 A198.0,198.0,0,0,0,-191.80833180395408,-49.1280352811331 C-76.72333272158163,-19.651214112453243,-79.09632962426788,-4.051004809817248,-197.7408240606697,-10.127512024543119 A198.0,198.0,0,0,0,-197.78502265091535,-9.2241430483761 C-79.11400906036614,-3.68965721935044,-76.72197414703643,-19.65651757004465,-191.80493536759107,-49.14129392511162 Z" fill="#d62728" fill-opacity="0.6" />
<path d="M-191.70820991148506,-49.51729245964468 A198.0,198.0,0,0,0,-191.80493536759107,-49.14129392511162 C-76.72197414703643,-19.65651757004465,-77.66232398439065,15.53072546095447,-194.15580996097663,38.82681365238617 A198.0,198.0,0,0,0,-183.6431020110024,74.02169333226956 C-73.45724080440097,29.608677332907828,-76.68328396459403,-19.806916983857874,-191.70820991148506,-49.51729245964468 Z" fill="#d62728" fill-opacity="0.6" />
<path d="M-191.70688322136874,-49.52242851020616 A198.0,198.0,0,0,0,-191.70820991148506,-49.51729245964468 C-76.68328396459403,-19.806916983857874,-54.39179863085189,57.56884784065823,-135.9794965771297,143.92211960164556 A198.0,198.0,0,0,0,-135.6017705388435,144.27806426040945 C-54.24070821553741,57.71122570416378,-76.6827532885475,-19.808971404082467,-191.70688322136874,-49.52242851020616 Z" fill="#d62728" fill-opacity="0.6" />
<path d="M-191.695504572821,-49.5664556587574 A198.0,198.0,0,0,0,-191.70688322136874,-49.52242851020616 C-76.6827532885475,-19.808971404082467,-30.959054606393508,72.8984014768386,-77.39763651598376,182.2460036920965 A198.0,198.0,0,0,0,-74.10557221934906,183.60927037065107 C-29.642228887739623,73.44370814826043,-76.6782018291284,-19.82658226350296,-191.695504572821,-49.5664556587574 Z" fill="#d62728" fill-opacity="0.6" />
<path d="M-191.6911461310566,-49.58330863266285 A198.0,198.0,0,0,0,-191.695504572821,-49.5664556587574 C-76.6782018291284,-19.82658226350296,-23.321054299060176,75.68862811796953,-58.302635747650434,189.22157029492382 A198.0,198.0,0,0,0,-57.549007323797156,189.45213579172324 C-23.019602929518864,75.7808543166893,-76.67645845242264,-19.83332345306514,-191.6911461310566,-49.58330863266285 Z" fill="#d62728" fill-opacity="0.6" />
<path d="M-191.68078050400064,-49.62336531692633 A198.0,198.0,0,0,0,-191.6911461310566,-49.58330863266285 C-76.67645845242264,-19.83332345306514,17.53173779360268,77.23521327695266,43.8293444840067,193.08803319238163 A198.0,198.0,0,0,0,44.13009131779859,193.0195198426386 C17.652036527119435,77.20780793705545,-76.67231220160026,-19.849346126770534,-191.68078050400064,-49.62336531692633 Z" fill="#d62728" fill-opacity="0.6" />
<path d="M-191.67774393889573,-49.63509321533623 A198.0,198.0,0,0,0,-191.68078050400064,-49.62336531692633 C-76.67231220160026,-19.849346126770534,79.18959572960601,1.283716550320744,197.973989324015,3.2092913758018597 A198.0,198.0,0,0,0,197.97779713875343,2.9651037227364143 C79.19111885550137,1.1860414890945659,-76.67109757555829,-19.854037286134492,-191.67774393889573,-49.63509321533623 Z" fill="#d62728" fill-opacity="0.6" />
<path d="M-197.94483520477806,-4.673565635920494 A198.0,198.0,0,0,0,-197.90358095649546,6.178401459588996 C-79.16143238259819,2.4713605838355988,-77.67450590023935,15.469684326245464,-194.18626475059835,38.674210815613655 A198.0,198.0,0,0,0,-194.15580996097663,38.82681365238617 C-77.66232398439065,15.53072546095447,-79.17793408191123,-1.8694262543681976,-197.94483520477806,-4.673565635920494 Z" fill="#d62728" fill-opacity="0.6" />
<path d="M-197.90816607959385,-6.029742864492754 A198.0,198.0,0,0,0,-197.94483520477806,-4.673565635920494 C-79.17793408191123,-1.8694262543681976,-30.96497729337942,72.89588590051223,-77.41244323344854,182.23971475128056 A198.0,198.0,0,0,0,-77.39763651598376,182.2460036920965 C-30.959054606393508,72.8984014768386,-79.16326643183754,-2.411897145797102,-197.90816607959385,-6.029742864492754 Z" fill="#d62728" fill-opacity="0.6" />
<path d="M-197.90745255615948,-6.053116778278981 A198.0,198.0,0,0,0,-197.90816607959385,-6.029742864492754 C-79.16326643183754,-2.411897145797102,27.01533567509749,74.45006137245157,67.53833918774372,186.12515343112892 A198.0,198.0,0,0,0,68.79073122605315,185.66592389931145 C27.516292490421264,74.26636955972458,-79.1629810224638,-2.4212467113115927,-197.90745255615948,-6.053116778278981 Z" fill="#d62728" fill-opacity="0.6" />
<path d="M-182.34414421289128,77.1661394088645 A198.0,198.0,0,0,0,-177.61494831162688,87.50388640659405 C-71.04597932465076,35.00155456263762,-54.54251531612766,57.426074417375766,-136.35628829031916,143.5651860434394 A198.0,198.0,0,0,0,-135.9794965771297,143.92211960164556 C-54.39179863085189,57.56884784065823,-72.93765768515651,30.8664557635458,-182.34414421289128,77.1661394088645 Z" fill="#d62728" fill-opacity="0.6" />
<path d="M-182.34894137028024,77.15480270947555 A198.0,198.0,0,0,0,-182.34414421289128,77.1661394088645 C-72.93765768515651,30.8664557635458,-31.339377247874662,72.73570948107538,-78.34844311968665,181.83927370268842 A198.0,198.0,0,0,0,-77.41244323344854,182.23971475128056 C-30.96497729337942,72.89588590051223,-72.9395765481121,30.86192108379022,-182.34894137028024,77.15480270947555 Z" fill="#d62728" fill-opacity="0.6" />
<path d="M-182.35536752491814,77.1396132661555 A198.0,198.0,0,0,0,-182.34894137028024,77.15480270947555 C-72.9395765481121,30.86192108379022,-23.622136188809066,75.59520277026418,-59.05534047202266,188.98800692566044 A198.0,198.0,0,0,0,-58.302635747650434,189.22157029492382 C-23.321054299060176,75.68862811796953,-72.94214700996726,30.8558453064622,-182.35536752491814,77.1396132661555 Z" fill="#d62728" fill-opacity="0.6" />
<path d="M-182.61397460385882,76.52539630332672 A198.0,198.0,0,0,0,-182.35536752491814,77.1396132661555 C-72.94214700996726,30.8558453064622,15.48038823555377,77.67237333876524,38.700970588884424,194.1809333469131 A198.0,198.0,0,0,0,43.8293444840067,193.08803319238163 C17.53173779360268,77.23521327695266,-73.04558984154353,30.61015852133069,-182.61397460385882,76.52539630332672 Z" fill="#d62728" fill-opacity="0.6" />
<path d="M-182.61829378017222,76.51508855656317 A198.0,198.0,0,0,0,-182.61397460385882,76.52539630332672 C-73.04558984154353,30.61015852133069,26.848076464948278,74.51054146986378,67.12019116237069,186.27635367465945 A198.0,198.0,0,0,0,67.53833918774372,186.12515343112892 C27.01533567509749,74.45006137245157,-73.04731751206889,30.60603542262527,-182.61829378017222,76.51508855656317 Z" fill="#d62728" fill-opacity="0.6" />
<path d="M-182.6219005584741,76.50647970211936 A198.0,198.0,0,0,0,-182.61829378017222,76.51508855656317 C-73.04731751206889,30.60603542262527,44.0303582361002,65.83287593293099,110.0758955902505,164.58218983232746 A198.0,198.0,0,0,0,110.60969902327825,164.22391568215573 C44.24387960931131,65.6895662728623,-73.04876022338964,30.602591880847747,-182.6219005584741,76.50647970211936 Z" fill="#d62728" fill-opacity="0.6" />
<path d="M-183.13457718295902,75.27102125000582 A198.0,198.0,0,0,0,-182.6219005584741,76.50647970211936 C-73.04876022338964,30.602591880847747,70.20034706064412,36.66812338482997,175.5008676516103,91.67030846207491 A198.0,198.0,0,0,0,175.5079120923531,91.65682076628477 C70.20316483694124,36.662728306513905,-73.25383087318362,30.108408500002326,-183.13457718295902,75.27102125000582 Z" fill="#e377c2" fill-opacity="0.6" />
<path d="M-129.82922944470167,149.49371619501272 A198.0,198.0,0,0,0,-129.81963134899962,149.50205121137915 C-51.927852539599854,59.800820484551664,-31.71294867312329,72.57361012417563,-79.28237168280822,181.43402531043907 A198.0,198.0,0,0,0,-78.34844311968665,181.83927370268842 C-31.339377247874662,72.73570948107538,-51.93169177788067,59.79748647800509,-129.82922944470167,149.49371619501272 Z" fill="#d62728" fill-opacity="0.6" />
<path d="M-129.83941760688828,149.4848675803142 A198.0,198.0,0,0,0,-129.82922944470167,149.49371619501272 C-51.93169177788067,59.79748647800509,15.440052456578123,77.68040151890384,38.6001311414453,194.20100379725957 A198.0,198.0,0,0,0,38.700970588884424,194.1809333469131 C15.48038823555377,77.67237333876524,-51.935767042755316,59.79394703212568,-129.83941760688828,149.4848675803142 Z" fill="#d62728" fill-opacity="0.6" />
<path d="M-130.10496798829953,149.25380164258314 A198.0,198.0,0,0,0,-129.83941760688828,149.4848675803142 C-51.935767042755316,59.79394703212568,21.685638816267897,76.17330942745218,54.21409704066974,190.43327356863045 A198.0,198.0,0,0,0,67.12019116237069,186.27635367465945 C26.848076464948278,74.51054146986378,-52.04198719531982,59.70152065703326,-130.10496798829953,149.25380164258314 Z" fill="#d62728" fill-opacity="0.6" />
<path d="M-130.13402870090368,149.22846435607508 A198.0,198.0,0,0,0,-130.10496798829953,149.25380164258314 C-52.04198719531982,59.70152065703326,43.1716534454724,66.39915917226686,107.929133613681,165.99789793066716 A198.0,198.0,0,0,0,110.0758955902505,164.58218983232746 C44.0303582361002,65.83287593293099,-52.053611480361475,59.691385742430036,-130.13402870090368,149.22846435607508 Z" fill="#d62728" fill-opacity="0.6" />
<path d="M-130.9145741818367,148.5441828776488 A198.0,198.0,0,0,0,-130.13402870090368,149.22846435607508 C-52.053611480361475,59.691385742430036,70.19822928725794,36.672177531932306,175.49557321814487,91.68044382983076 A198.0,198.0,0,0,0,175.5008676516103,91.67030846207491 C70.20034706064412,36.66812338482997,-52.36582967273469,59.417673151059525,-130.9145741818367,148.5441828776488 Z" fill="#e377c2" fill-opacity="0.6" />
<path d="M-70.24246427271297,185.1215714413008 A198.0,198.0,0,0,0,-70.23608779345753,185.1239908047299 C-28.094435117383014,74.04959632189197,-23.772537087875538,75.54804087734891,-59.43134271968884,188.87010219337228 A198.0,198.0,0,0,0,-59.05534047202266,188.98800692566044 C-23.622136188809066,75.59520277026418,-28.09698570908519,74.04862857652033,-70.24246427271297,185.1215714413008 Z" fill="#d62728" fill-opacity="0.6" />
<path d="M-70.28147893441904,185.1067630282341 A198.0,198.0,0,0,0,-70.24246427271297,185.1215714413008 C-28.09698570908519,74.04862857652033,-15.623974395723744,77.64361805120734,-39.05993598930936,194.10904512801832 A198.0,198.0,0,0,0,-36.525623279013814,194.60184696985678 C-14.610249311605527,77.84073878794271,-28.112591573767617,74.04270521129364,-70.28147893441904,185.1067630282341 Z" fill="#d62728" fill-opacity="0.6" />
<path d="M-70.75713059823605,184.9254673361789 A198.0,198.0,0,0,0,-70.28147893441904,185.1067630282341 C-28.112591573767617,74.04270521129364,11.199830701139096,78.40410571051635,27.999576752847737,196.01026427629085 A198.0,198.0,0,0,0,28.004667600359337,196.00953699397738 C11.201867040143735,78.40381479759095,-28.30285223929442,73.97018693447157,-70.75713059823605,184.9254673361789 Z" fill="#9467bd" fill-opacity="0.6" />
<path d="M-70.77439548284741,184.91886043353585 A198.0,198.0,0,0,0,-70.75713059823605,184.9254673361789 C-28.30285223929442,73.97018693447157,21.343299043540046,76.269938940175,53.358247608850114,190.6748473504375 A198.0,198.0,0,0,0,54.21409704066974,190.43327356863045 C21.685638816267897,76.17330942745218,-28.309758193138965,73.96754417341434,-70.77439548284741,184.91886043353585 Z" fill="#d62728" fill-opacity="0.6" />
<path d="M-70.78160481251749,184.9161010300742 A198.0,198.0,0,0,0,-70.77439548284741,184.91886043353585 C-28.309758193138965,73.96754417341434,42.955833739454086,66.53898366933763,107.38958434863521,166.34745917334405 A198.0,198.0,0,0,0,107.929133613681,165.99789793066716 C43.1716534454724,66.39915917226686,-28.312641925006997,73.96644041202968,-70.78160481251749,184.9161010300742 Z" fill="#d62728" fill-opacity="0.6" />
<path d="M-70.78950889369608,184.91307533700618 A198.0,198.0,0,0,0,-70.78160481251749,184.9161010300742 C-28.312641925006997,73.96644041202968,69.98140062237768,37.08427654586617,174.95350155594417,92.71069136466541 A198.0,198.0,0,0,0,175.49557321814487,91.68044382983076 C70.19822928725794,36.672177531932306,-28.315803557478432,73.96523013480247,-70.78950889369608,184.91307533700618 Z" fill="#d62728" fill-opacity="0.6" />
<path d="M-56.01673013553143,189.91083682855765 A198.0,198.0,0,0,0,-56.01323869355707,189.9118666409727 C-22.40529547742283,75.96474665638908,78.60582188787774,9.683220813925566,196.51455471969433,24.20805203481391 A198.0,198.0,0,0,0,196.5864463762158,23.61713575290679 C78.63457855048632,9.446854301162716,-22.406692054212574,75.96433473142307,-56.01673013553143,189.91083682855765 Z" fill="#9467bd" fill-opacity="0.6" />
<path d="M-56.02199085356075,189.9092850305207 A198.0,198.0,0,0,0,-56.01673013553143,189.91083682855765 C-22.406692054212574,75.96433473142307,79.1879521304291,1.3813896585941592,197.9698803260727,3.4534741464853975 A198.0,198.0,0,0,0,197.973989324015,3.2092913758018597 C79.18959572960601,1.283716550320744,-22.408796341424303,75.96371401220829,-56.02199085356075,189.9092850305207 Z" fill="#9467bd" fill-opacity="0.6" />
<path d="M-36.09684783012172,194.6818367920568 A198.0,198.0,0,0,0,-35.2503319490769,194.83689100752937 C-14.100132779630762,77.93475640301176,69.97781667576058,37.09103898913651,174.94454168940143,92.72759747284127 A198.0,198.0,0,0,0,174.95350155594417,92.71069136466541 C69.98140062237768,37.08427654586617,-14.438739132048688,77.87273471682272,-36.09684783012172,194.6818367920568 Z" fill="#e377c2" fill-opacity="0.6" />
<path d="M-36.10262240448054,194.6807660132852 A198.0,198.0,0,0,0,-36.09684783012172,194.6818367920568 C-14.438739132048688,77.87273471682272,79.18618806047111,1.4790606653219196,197.96547015117775,3.6976516633047987 A198.0,198.0,0,0,0,197.9698803260727,3.4534741464853975 C79.1879521304291,1.3813896585941592,-14.441048961792218,77.87230640531408,-36.10262240448054,194.6807660132852 Z" fill="#9467bd" fill-opacity="0.6" />
<path d="M36.64058654065873,194.58023388298332 A198.0,198.0,0,0,0,36.65622347967114,194.57728870607792 C14.662489391868457,77.83091548243118,78.53082242651918,10.273749510987335,196.32705606629793,25.684373777468334 A198.0,198.0,0,0,0,196.51455471969433,24.20805203481391 C78.60582188787774,9.683220813925566,14.656234616263493,77.83209355319333,36.64058654065873,194.58023388298332 Z" fill="#9467bd" fill-opacity="0.6" />
<path d="M72.94250353365635,184.07441750075571 A198.0,198.0,0,0,0,76.03230705726206,182.81982464587975 C30.412922822904825,73.1279298583519,42.93643036803208,66.55150597282629,107.34107592008019,166.37876493206574 A198.0,198.0,0,0,0,107.38958434863521,166.34745917334405 C42.955833739454086,66.53898366933763,29.17700141346254,73.6297670003023,72.94250353365635,184.07441750075571 Z" fill="#8c564b" fill-opacity="0.6" />
<path d="M72.52894718019708,184.23775894460988 A198.0,198.0,0,0,0,72.94250353365635,184.07441750075571 C29.17700141346254,73.6297670003023,69.97543487617813,37.09553226319519,174.9385871904453,92.73883065798796 A198.0,198.0,0,0,0,174.94454168940143,92.72759747284127 C69.97781667576058,37.09103898913651,29.011578872078832,73.69510357784395,72.52894718019708,184.23775894460988 Z" fill="#e377c2" fill-opacity="0.6" />
<path d="M178.79850577743932,85.05935769658149 A198.0,198.0,0,0,0,178.82455704754662,85.00457515186311 C71.52982281901865,34.00183006074524,78.29723729360562,11.924035901858632,195.74309323401403,29.81008975464658 A198.0,198.0,0,0,0,196.32705606629793,25.684373777468334 C78.53082242651918,10.273749510987335,71.51940231097574,34.0237430786326,178.79850577743932,85.05935769658149 Z" fill="#e377c2" fill-opacity="0.6" />
<path d="M178.4637249102392,85.75954110862808 A198.0,198.0,0,0,0,178.79850577743932,85.05935769658149 C71.51940231097574,34.0237430786326,78.86906683746946,7.232585719283026,197.17266709367362,18.081464298207564 A198.0,198.0,0,0,0,197.96547015117775,3.6976516633047987 C79.18618806047111,1.4790606653219196,71.38548996409568,34.30381644345123,178.4637249102392,85.75954110862808 Z" fill="#e377c2" fill-opacity="0.6" />
<path d="M196.9206520293683,20.645987608454053 A198.0,198.0,0,0,0,196.9818327600458,20.05386652227817 C78.79273310401832,8.021546608911269,78.86900762936469,7.233231335939481,197.1725190734117,18.0830783398487 A198.0,198.0,0,0,0,197.17266709367362,18.081464298207564 C78.86906683746946,7.232585719283026,78.76826081174733,8.258395043381622,196.9206520293683,20.645987608454053 Z" fill="#e377c2" fill-opacity="0.6" />
<text x="220.00000000000003" y="0" font-size="10" text-anchor="start" dominant-baseline="middle" transform="rotate(-7.575943)" font-family="Arial">Canada</text>
<text x="220.00000000000006" y="0" font-size="10" text-anchor="start" dominant-baseline="middle" transform="rotate(-23.308318)" font-family="Arial">Mexico</text>
<text x="220.00000000000003" y="0" font-size="10" text-anchor="start" dominant-baseline="middle" transform="rotate(-56.286066)" font-family="Arial">United Sta.</text>
<text x="220.0" y="0" font-size="10" text-anchor="start" dominant-baseline="middle" transform="rotate(-82.692614)" font-family="Arial">Costa Rica</text>
<text x="220.00000000000006" y="0" font-size="10" text-anchor="start" dominant-baseline="middle" transform="rotate(-85.289573)" font-family="Arial">Dominican .</text>
<text x="220.0" y="0" font-size="10" text-anchor="start" dominant-baseline="middle" transform="rotate(-87.859795)" font-family="Arial">Guatemala</text>
<text x="-220.00000000000003" y="0" font-size="10" text-anchor="end" dominant-baseline="middle" transform="rotate(81.300123)" font-family="Arial">Argentina</text>
<text x="-220.00000000000003" y="0" font-size="10" text-anchor="end" dominant-baseline="middle" transform="rotate(61.606615)" font-family="Arial">Brazil</text>
<text x="-220.00000000000003" y="0" font-size="10" text-anchor="end" dominant-baseline="middle" transform="rotate(45.470795)" font-family="Arial">Colombia</text>
<text x="-220.00000000000003" y="0" font-size="10" text-anchor="end" dominant-baseline="middle" transform="rotate(26.770156)" font-family="Arial">Germany</text>
<text x="-220.00000000000003" y="0" font-size="10" text-anchor="end" dominant-baseline="middle" transform="rotate(6.002633)" font-family="Arial">Spain</text>
<text x="-220.00000000000006" y="0" font-size="10" text-anchor="end" dominant-baseline="middle" transform="rotate(-14.294380)" font-family="Arial">France</text>
<text x="-220.00000000000006" y="0" font-size="10" text-anchor="end" dominant-baseline="middle" transform="rotate(-37.915649)" font-family="Arial">United Kin.</text>
<text x="-220.00000000000003" y="0" font-size="10" text-anchor="end" dominant-baseline="middle" transform="rotate(-59.413444)" font-family="Arial">Italy</text>
<text x="-220.00000000000003" y="0" font-size="10" text-anchor="end" dominant-baseline="middle" transform="rotate(-71.681564)" font-family="Arial">Indonesia</text>
<text x="-220.00000000000003" y="0" font-size="10" text-anchor="end" dominant-baseline="middle" transform="rotate(-76.942368)" font-family="Arial">India</text>
<text x="220.00000000000003" y="0" font-size="10" text-anchor="start" dominant-baseline="middle" transform="rotate(-270.493331)" font-family="Arial">Japan</text>
<text x="220.00000000000003" y="0" font-size="10" text-anchor="start" dominant-baseline="middle" transform="rotate(-282.089759)" font-family="Arial">Egypt</text>
<text x="220.00000000000006" y="0" font-size="10" text-anchor="start" dominant-baseline="middle" transform="rotate(-288.046217)" font-family="Arial">Nigeria</text>
<text x="220.00000000000003" y="0" font-size="10" text-anchor="start" dominant-baseline="middle" transform="rotate(-299.581274)" font-family="Arial">South Afri.</text>
<text x="220.00000000000003" y="0" font-size="10" text-anchor="start" dominant-baseline="middle" transform="rotate(-320.578309)" font-family="Arial">Australia</text>
<text x="220.00000000000003" y="0" font-size="10" text-anchor="start" dominant-baseline="middle" transform="rotate(-344.667894)" font-family="Arial">New Zealan.</text>
<text x="220.00000000000003" y="0" font-size="10" text-anchor="start" dominant-baseline="middle" transform="rotate(-357.093496)" font-family="Arial">Papua New .</text>
<text x="-295.0" y="-285.0" font-size="8" text-anchor="start" dominant-baseline="middle" font-family="Arial" font-weight="bold">Continents</text>
<circle cx="-290.5" cy="-274.5" r="4.5" fill="#8c564b" stroke="#333" stroke-width="0.5" />
<text x="-278.0" y="-271.0" font-size="6" text-anchor="start" dominant-baseline="middle" font-family="Arial">Africa</text>
<circle cx="-290.5" cy="-262.5" r="4.5" fill="#9467bd" stroke="#333" stroke-width="0.5" />
<text x="-278.0" y="-259.0" font-size="6" text-anchor="start" dominant-baseline="middle" font-family="Arial">Asia</text>
<circle cx="-290.5" cy="-250.5" r="4.5" fill="#ff7f0e" stroke="#333" stroke-width="0.5" />
<text x="-278.0" y="-247.0" font-size="6" text-anchor="start" dominant-baseline="middle" font-family="Arial">Central America</text>
<circle cx="-290.5" cy="-238.5" r="4.5" fill="#d62728" stroke="#333" stroke-width="0.5" />
<text x="-278.0" y="-235.0" font-size="6" text-anchor="start" dominant-baseline="middle" font-family="Arial">Europe</text>
<circle cx="-290.5" cy="-226.5" r="4.5" fill="#1f77b4" stroke="#333" stroke-width="0.5" />
<text x="-278.0" y="-223.0" font-size="6" text-anchor="start" dominant-baseline="middle" font-family="Arial">North America</text>
<circle cx="-290.5" cy="-214.5" r="4.5" fill="#e377c2" stroke="#333" stroke-width="0.5" />
<text x="-278.0" y="-211.0" font-size="6" text-anchor="start" dominant-baseline="middle" font-family="Arial">Oceania</text>
<circle cx="-290.5" cy="-202.5" r="4.5" fill="#2ca02c" stroke="#333" stroke-width="0.5" />
<text x="-278.0" y="-199.0" font-size="6" text-anchor="start" dominant-baseline="middle" font-family="Arial">South America</text>
</svg>