<?xml version="1.0" encoding="UTF-8"?>
<svg xmlns="http://www.w3.org/2000/svg" xmlns:xlink="http://www.w3.org/1999/xlink"
     width="600.0" height="600.0" viewBox="-300.0 -300.0 600.0 600.0">
<defs>
</defs>
<rect x="-300.0" y="-300.0" width="600.0" height="600.0" fill="#ffffff" fill-opacity="1.0" />
<path d="M200.0,-0.0 A200,200,0,0,0,193.02541189918335,-52.35637841897203 L206.5371907321262,-56.02132490830007 A214.0,214.0,0,0,1,214.0,-0.0 Z" fill="#1f77b4" fill-opacity="0.9" />
<path d="M192.4922056508451,-54.28398257011686 A200,200,0,0,0,168.84149000269716,-107.20331736317266 L180.66039430288598,-114.70754957859475 A214.0,214.0,0,0,1,205.9666600464043,-58.083861350025046 Z" fill="#1f77b4" fill-opacity="0.9" />
<path d="M167.7610326920459,-108.88634400189174 A200,200,0,0,0,30.355617012601023,-197.68291913006618 L32.4805102034831,-211.52072346917083 A214.0,214.0,0,0,1,179.5043049804891,-116.50838808202417 Z" fill="#1f77b4" fill-opacity="0.9" />
<path d="M28.37730300008631,-197.97658617735908 A200,200,0,0,0,19.53682119912396,-199.0434942856296 L20.904398683062638,-212.97653888562368 A214.0,214.0,0,0,1,30.363714210092354,-211.83494720977424 Z" fill="#ff7f0e" fill-opacity="0.9" />
<path d="M17.545442597097864,-199.22890714972047 A200,200,0,0,0,10.790591914360034,-199.70869566981239 L11.545933348365237,-213.68830436669927 A214.0,214.0,0,0,1,18.773623578894714,-213.1749306502009 Z" fill="#ff7f0e" fill-opacity="0.9" />
<path d="M8.792998717178444,-199.8066144389612 A200,200,0,0,0,1.7609408297426108,-199.99224756823486 L1.8842066878245936,-213.9917048980113 A214.0,214.0,0,0,1,9.408508627380936,-213.7930774496885 Z" fill="#ff7f0e" fill-opacity="0.9" />
<path d="M-0.23903636037290224,-199.99985715399504 A200,200,0,0,0,-60.06052484839673,-190.76879554826337 L-64.2647615877845,-204.12261123664183 A214.0,214.0,0,0,1,-0.2557689055990054,-213.9998471547747 Z" fill="#2ca02c" fill-opacity="0.9" />
<path d="M-61.9651780080218,-190.15866194952616 A200,200,0,0,0,-123.26389134068165,-157.49924790789518 L-131.89236373452937,-168.52419526144786 A214.0,214.0,0,0,1,-66.30274046858334,-203.469768285993 Z" fill="#2ca02c" fill-opacity="0.9" />
<path d="M-124.83269442680994,-156.25875464159665 A200,200,0,0,0,-154.2278841361596,-127.33326256278575 L-165.02383602569077,-136.24659094218075 A214.0,214.0,0,0,1,-133.57098303668664,-167.19686746650842 Z" fill="#2ca02c" fill-opacity="0.9" />
<path d="M-155.4934842097377,-125.78464281587023 A200,200,0,0,0,-194.15546797217397,-47.996398370149876 L-207.74635073022617,-51.35614625606037 A214.0,214.0,0,0,1,-166.37802810441934,-134.58956781298116 Z" fill="#d62728" fill-opacity="0.9" />
<path d="M-194.62571626401498,-46.05247624959096 A200,200,0,0,0,-199.95298153267106,4.3364935368688275 L-213.94969023995804,4.640048084449646 A214.0,214.0,0,0,1,-208.24951640249606,-49.27614958706233 Z" fill="#d62728" fill-opacity="0.9" />
<path d="M-199.89961975428452,6.335773203995224 A200,200,0,0,0,-182.30044801508396,82.25902171494425 L-195.06147937613986,88.01715323499036 A214.0,214.0,0,0,1,-213.89259313708445,6.77927732827489 Z" fill="#d62728" fill-opacity="0.9" />
<path d="M-181.46875656126045,84.0778828950277 A200,200,0,0,0,-134.8508020146761,147.69990249150004 L-144.29035815570344,158.03889566590505 A214.0,214.0,0,0,1,-194.1715695205487,89.96333469767964 Z" fill="#d62728" fill-opacity="0.9" />
<path d="M-133.36708512237539,149.04100310304233 A200,200,0,0,0,-75.64792562754994,185.14154409059213 L-80.94328042147843,198.1014521769336 A214.0,214.0,0,0,1,-142.70278108094166,159.4738733202553 Z" fill="#d62728" fill-opacity="0.9" />
<path d="M-73.79275867865228,185.88875373888058 A200,200,0,0,0,-61.371602035103145,190.35106110459412 L-65.66761417756037,203.67563538191573 A214.0,214.0,0,0,1,-78.95825178615794,198.90096650060224 Z" fill="#9467bd" fill-opacity="0.9" />
<path d="M-59.46505459454513,190.9552494226534 A200,200,0,0,0,-40.664135092248024,195.8224402799623 L-43.51062454870539,209.5300110995597 A214.0,214.0,0,0,1,-63.62760841616329,204.32211688223916 Z" fill="#9467bd" fill-opacity="0.9" />
<path d="M-38.70391013654736,196.21928381314123 A200,200,0,0,0,26.410115145177652,198.2485960051633 L28.25882320534009,212.12599772552474 A214.0,214.0,0,0,1,-41.413183846105674,209.95463368006114 Z" fill="#9467bd" fill-opacity="0.9" />
<path d="M28.3912475692087,197.97458690817845 A200,200,0,0,0,34.37997676312666,197.02288495950634 L36.78657513654553,210.8144869066718 A214.0,214.0,0,0,1,30.378634899053313,211.83280799175097 Z" fill="#8c564b" fill-opacity="0.9" />
<path d="M36.34845379122516,196.6692398596872 A200,200,0,0,0,69.66546124496237,187.47459430420605 L74.54204353210974,200.59781590550048 A214.0,214.0,0,0,1,38.89284555661092,210.4360866498653 Z" fill="#8c564b" fill-opacity="0.9" />
<path d="M71.53669269835984,186.76857765100755 A200,200,0,0,0,117.70344246348188,161.6969376093617 L125.94268343592562,173.01572324201703 A214.0,214.0,0,0,1,76.54426118724504,199.8423780865781 Z" fill="#8c564b" fill-opacity="0.9" />
<path d="M119.31449976714038,160.51183802236227 A200,200,0,0,0,182.2345762424689,82.40484950370207 L194.99099657944174,88.17318896896121 A214.0,214.0,0,0,1,127.66651475084021,171.74766668392763 Z" fill="#e377c2" fill-opacity="0.9" />
<path d="M183.04949935055168,80.57841390541499 A200,200,0,0,0,198.5505424991549,24.0350176469934 L212.44908047409575,25.71746888228294 A214.0,214.0,0,0,1,195.86296430509032,86.21890287879404 Z" fill="#e377c2" fill-opacity="0.9" />
<path d="M198.78096122541274,22.048343572725724 A200,200,0,0,0,199.99000008333306,1.9999666668340497 L213.9893000891664,2.139964333512433 A214.0,214.0,0,0,1,212.69562851119164,23.591727622816524 Z" fill="#e377c2" fill-opacity="0.9" />
<path d="M193.0,-0.0 A193.0,193.0,0,0,0,190.45102003095747,-31.263540573131518 L195.38498428046412,-32.07347685740954 A198.0,198.0,0,0,1,198.0,-0.0 Z" fill="#1f77b4" fill-opacity="0.6" />
<path d="M185.75497845306552,-52.38404318016277 A193.0,193.0,0,0,0,176.5835196872527,-77.89262208233609 L181.15822226982402,-79.91056565959869 A198.0,198.0,0,0,1,190.56728359433666,-53.7411427444157 Z" fill="#1f77b4" fill-opacity="0.6" />
<path d="M161.8893965478243,-105.07532196182554 A193.0,193.0,0,0,0,45.7460023760509,-187.50014204424045 L46.93113197128538,-192.35765867751093 A198.0,198.0,0,0,1,166.08342236512544,-107.79748056187283 Z" fill="#1f77b4" fill-opacity="0.6" />
<path d="M27.38409739508329,-191.04740566115152 A193.0,193.0,0,0,0,27.33285102663316,-191.0547441304609 L28.040955975509668,-196.0043489006801 A198.0,198.0,0,0,1,28.09352997008545,-195.9968203155855 Z" fill="#ff7f0e" fill-opacity="0.6" />
<path d="M-0.23067008775985068,-192.99986215360522 A193.0,193.0,0,0,0,-47.825117828734456,-186.98063564088037 L-49.06411051859804,-191.8246935590379 A198.0,198.0,0,0,1,-0.23664599676917322,-197.9998585824551 Z" fill="#2ca02c" fill-opacity="0.6" />
<path d="M-59.79639677774104,-183.50310878129275 A193.0,193.0,0,0,0,-115.69374607995816,-154.47963334364232 L-118.6909933877291,-158.48169638363305 A198.0,198.0,0,0,1,-61.34552622794158,-188.25707533003091 Z" fill="#2ca02c" fill-opacity="0.6" />
<path d="M-120.46355012187158,-150.78969822914075 A193.0,193.0,0,0,0,-135.6990306906807,-137.2398377644396 L-139.21454962049108,-140.7952739759536 A198.0,198.0,0,0,1,-123.58436748254184,-154.69616709518067 Z" fill="#2ca02c" fill-opacity="0.6" />
<path d="M-150.0512122623969,-121.38218031731478 A193.0,193.0,0,0,0,-186.24589179117817,-50.610945366676866 L-191.07091489457656,-51.92210975441461 A198.0,198.0,0,0,1,-153.93854936764032,-124.52679638771153 Z" fill="#d62728" fill-opacity="0.6" />
<path d="M-187.81381619477443,-44.440639580855276 A193.0,193.0,0,0,0,-192.4179946954816,-14.977159856581915 L-197.40291683785162,-15.365169179291291 A198.0,198.0,0,0,1,-192.67945910137482,-45.59195148709505 Z" fill="#d62728" fill-opacity="0.6" />
<path d="M-192.90313306288456,6.114021141855391 A193.0,193.0,0,0,0,-190.88265487705974,28.509859120755056 L-195.82780137646543,29.248456507303114 A198.0,198.0,0,0,1,-197.90062355674166,6.272415471955271 Z" fill="#d62728" fill-opacity="0.6" />
<path d="M-175.11735008161634,81.13515699370173 A193.0,193.0,0,0,0,-133.62584781979697,139.25922875860132 L-137.08765734880728,142.8669807989796 A198.0,198.0,0,0,1,-179.65406899564783,83.23710406607742 Z" fill="#d62728" fill-opacity="0.6" />
<path d="M-128.69923714309223,143.82456799443585 A193.0,193.0,0,0,0,-80.45011727833854,175.43311725527076 L-82.53431720782918,179.97801666602905 A198.0,198.0,0,0,1,-132.03341427115163,147.5505930720119 Z" fill="#d62728" fill-opacity="0.6" />
<path d="M-71.21001212489944,179.38264735801977 A193.0,193.0,0,0,0,-66.1852989487148,181.29673522451873 L-67.89994399919964,185.99354183655288 A198.0,198.0,0,0,1,-73.05483109186575,184.02986620149179 Z" fill="#9467bd" fill-opacity="0.6" />
<path d="M-57.38377768373605,184.2718156928605 A193.0,193.0,0,0,0,-41.11206937992648,188.57040529017303 L-42.17714889754115,193.4556489505402 A198.0,198.0,0,0,1,-58.87040404859968,189.04569692842685 Z" fill="#9467bd" fill-opacity="0.6" />
<path d="M-37.3492732817682,189.35160887968127 A193.0,193.0,0,0,0,13.704851073767207,192.51279712540116 L14.05989902904615,197.50017528927165 A198.0,198.0,0,0,1,-38.31687103518188,194.25709097500982 Z" fill="#9467bd" fill-opacity="0.6" />
<path d="M27.397553904286394,191.0454763663922 A193.0,193.0,0,0,0,27.486667904899605,191.0326754445055 L28.198757746995447,195.98170848710924 A198.0,198.0,0,0,1,28.107335093516614,195.99484103909666 Z" fill="#8c564b" fill-opacity="0.6" />
<path d="M35.07625790853228,189.78581646459813 A193.0,193.0,0,0,0,44.99206230684918,187.68248274513155 L46.157659775938534,192.54472323075672 A198.0,198.0,0,0,1,35.98496925331291,194.70254746109032 Z" fill="#8c564b" fill-opacity="0.6" />
<path d="M69.03290845391724,180.23167743322227 A193.0,193.0,0,0,0,106.21599954785373,161.14329474120336 L108.96770938069969,165.3179914961568 A198.0,198.0,0,0,1,70.82132577137624,184.90089187449746 Z" fill="#8c564b" fill-opacity="0.6" />
<path d="M115.13849227529046,154.89392369157957 A193.0,193.0,0,0,0,170.28487870824407,90.84085030050414 L174.69640406337993,93.1942402046623 A198.0,198.0,0,0,1,118.12135476946897,158.90671964213865 Z" fill="#e377c2" fill-opacity="0.6" />
<path d="M176.64276687328237,77.75816941872547 A193.0,193.0,0,0,0,188.99049585322646,39.13556537411451 L193.88662268880228,40.14944012473924 A198.0,198.0,0,0,1,181.21900435704617,79.77262976636084 Z" fill="#e377c2" fill-opacity="0.6" />
<path d="M191.09593514445868,-51.829948594078765 A198.0,198.0,0,0,0,191.09515778019153,-51.832814634782316 C76.43806311207662,-20.733125853912927,72.46328890792961,-31.96422626383948,181.15822226982402,-79.91056565959869 A198.0,198.0,0,0,0,181.03591463923703,-80.18726588888589 C72.41436585569481,-32.074906355554354,76.43837405778348,-20.73197943763151,191.09593514445868,-51.829948594078765 Z" fill="#1f77b4" fill-opacity="0.6" />
<path d="M195.16929811960424,-33.360831397029806 A198.0,198.0,0,0,0,191.09593514445868,-51.829948594078765 C76.43837405778348,-20.73197943763151,18.4712719800476,-77.01592115555789,46.178179950118995,-192.5398028888947 A198.0,198.0,0,0,0,44.05623128759161,-193.03639160721542 C17.622492515036644,-77.21455664288618,78.0677192478417,-13.344332558811923,195.16929811960424,-33.360831397029806 Z" fill="#1f77b4" fill-opacity="0.6" />
<path d="M195.17002584618263,-33.356573732930116 A198.0,198.0,0,0,0,195.16929811960424,-33.360831397029806 C78.0677192478417,-13.344332558811923,4.357414692564638,-79.08004133279789,10.893536731411594,-197.7001033319947 A198.0,198.0,0,0,0,10.840825199580712,-197.70300075869395 C4.336330079832285,-79.08120030347759,78.06801033847306,-13.342629493172048,195.17002584618263,-33.356573732930116 Z" fill="#1f77b4" fill-opacity="0.6" />
<path d="M195.17086468208655,-33.35166531444359 A198.0,198.0,0,0,0,195.17002584618263,-33.356573732930116 C78.06801033847306,-13.342629493172048,-20.80496748887697,-76.41854047145085,-52.012418722192415,-191.04635117862713 A198.0,198.0,0,0,0,-52.54716982435239,-190.89996056429837 C-21.018867929740956,-76.35998422571934,78.06834587283463,-13.340666125777439,195.17086468208655,-33.35166531444359 Z" fill="#1f77b4" fill-opacity="0.6" />
<path d="M195.1923575529882,-33.22564601187482 A198.0,198.0,0,0,0,195.17086468208655,-33.35166531444359 C78.06834587283463,-13.340666125777439,-76.76718399728976,-19.47920586487704,-191.9179599932244,-48.6980146621926 A198.0,198.0,0,0,0,-191.918445565294,-48.696100991776376 C-76.7673782261176,-19.478440396710553,78.07694302119529,-13.29025840474993,195.1923575529882,-33.22564601187482 Z" fill="#d62728" fill-opacity="0.6" />
<path d="M195.25634791587572,-32.84750521051029 A198.0,198.0,0,0,0,195.1923575529882,-33.22564601187482 C78.07694302119529,-13.29025840474993,-24.49738724349683,75.31612057350112,-61.24346810874208,188.2903014337528 A198.0,198.0,0,0,0,-60.76637239500028,188.4448141657184 C-24.306548958000114,75.37792566628737,78.1025391663503,-13.139002084204117,195.25634791587572,-32.84750521051029 Z" fill="#1f77b4" fill-opacity="0.6" />
<path d="M195.27751525725975,-32.72143082065158 A198.0,198.0,0,0,0,195.25634791587572,-32.84750521051029 C78.1025391663503,-13.139002084204117,46.52322391291573,64.09547282568954,116.30805978228932,160.23868206422384 A198.0,198.0,0,0,0,116.3092048056766,160.23785095123802 C46.52368192227064,64.09514038049521,78.1110061029039,-13.088572328260632,195.27751525725975,-32.72143082065158 Z" fill="#8c564b" fill-opacity="0.6" />
<path d="M195.28042490386773,-32.704061664644705 A198.0,198.0,0,0,0,195.27751525725975,-32.72143082065158 C78.1110061029039,-13.088572328260632,71.45870477766987,34.15103968399531,178.64676194417467,85.37759920998826 A198.0,198.0,0,0,0,179.96210115106913,82.56901446240208 C71.98484046042766,33.02760578496083,78.1121699615471,-13.081624665857882,195.28042490386773,-32.704061664644705 Z" fill="#1f77b4" fill-opacity="0.6" />
<path d="M195.38498428046412,-32.07347685740954 A198.0,198.0,0,0,0,195.28042490386773,-32.704061664644705 C78.1121699615471,-13.081624665857882,79.19603075264655,0.7929142613559921,197.99007688161637,1.98228565338998 A198.0,198.0,0,0,0,197.9901000824997,1.9799670001657093 C79.19604003299989,0.7919868000662837,78.15399371218565,-12.829390742963817,195.38498428046412,-32.07347685740954 Z" fill="#e377c2" fill-opacity="0.6" />
<path d="M180.1235405049401,-82.21624022031904 A198.0,198.0,0,0,0,167.1530751026702,-106.13128418954093 C66.86123004106808,-42.45251367581638,18.772452788514155,-76.94306347100438,46.93113197128538,-192.35765867751093 A198.0,198.0,0,0,0,46.178179950118995,-192.5398028888947 C18.4712719800476,-77.01592115555789,72.04941620197604,-32.886496088127615,180.1235405049401,-82.21624022031904 Z" fill="#1f77b4" fill-opacity="0.6" />
<path d="M180.1679436890657,-82.11888982964669 A198.0,198.0,0,0,0,180.1235405049401,-82.21624022031904 C72.04941620197604,-32.886496088127615,1.6072620587309812,-79.18368966317853,4.018155146827453,-197.9592241579463 A198.0,198.0,0,0,0,2.7183015718393038,-197.9813396170572 C1.0873206287357216,-79.19253584682288,72.06717747562628,-32.84755593185868,180.1679436890657,-82.11888982964669 Z" fill="#1f77b4" fill-opacity="0.6" />
<path d="M180.29320368082188,-81.84351352737535 A198.0,198.0,0,0,0,180.1679436890657,-82.11888982964669 C72.06717747562628,-32.84755593185868,-48.317211430747,-62.754179777577306,-120.7930285768675,-156.88544944394326 A198.0,198.0,0,0,0,-120.795974925815,-156.8831808758411 C-48.318389970326,-62.753272350336445,72.11728147232876,-32.73740541095014,180.29320368082188,-81.84351352737535 Z" fill="#2ca02c" fill-opacity="0.6" />
<path d="M180.35567585875557,-81.7057536868212 A198.0,198.0,0,0,0,180.29320368082188,-81.84351352737535 C72.11728147232876,-32.73740541095014,-76.76695839901835,-19.480094921826897,-191.91739599754587,-48.70023730456724 A198.0,198.0,0,0,0,-191.9179599932244,-48.6980146621926 C-76.76718399728976,-19.47920586487704,72.14227034350223,-32.68230147472848,180.35567585875557,-81.7057536868212 Z" fill="#d62728" fill-opacity="0.6" />
<path d="M180.72829718199557,-80.87819605861827 A198.0,198.0,0,0,0,180.35567585875557,-81.7057536868212 C72.14227034350223,-32.68230147472848,-74.56219075942606,26.704301323100722,-186.40547689856515,66.7607533077518 A198.0,198.0,0,0,0,-186.40125730319792,66.7725338427935 C-74.56050292127917,26.7090135371174,72.29131887279823,-32.35127842344731,180.72829718199557,-80.87819605861827 Z" fill="#d62728" fill-opacity="0.6" />
<path d="M180.91318437829676,-80.46377892011037 A198.0,198.0,0,0,0,180.72829718199557,-80.87819605861827 C72.29131887279823,-32.35127842344731,-24.498504974669125,75.3157570101112,-61.24626243667281,188.28939252527798 A198.0,198.0,0,0,0,-61.24346810874208,188.2903014337528 C-24.49738724349683,75.31612057350112,72.36527375131871,-32.18551156804415,180.91318437829676,-80.46377892011037 Z" fill="#9467bd" fill-opacity="0.6" />
<path d="M181.03591463923703,-80.18726588888589 A198.0,198.0,0,0,0,180.91318437829676,-80.46377892011037 C72.36527375131871,-32.18551156804415,79.1960264374539,0.7933451443765237,197.9900660936347,1.9833628609413092 A198.0,198.0,0,0,0,197.99007688161637,1.98228565338998 C79.19603075264655,0.7929142613559921,72.41436585569481,-32.074906355554354,181.03591463923703,-80.18726588888589 Z" fill="#e377c2" fill-opacity="0.6" />
<path d="M31.54852652668924,-195.4704337591616 A198.0,198.0,0,0,0,30.05206084247497,-195.70608993876553 C12.020824336989989,-78.28243597550622,11.216382390203869,-78.40173956027205,28.040955975509668,-196.0043489006801 A198.0,198.0,0,0,0,19.922787291285665,-196.99513330675504 C7.9691149165142665,-78.79805332270202,12.619410610675697,-78.18817350366464,31.54852652668924,-195.4704337591616 Z" fill="#1f77b4" fill-opacity="0.6" />
<path d="M33.06783384243134,-195.21915470816216 A198.0,198.0,0,0,0,31.54852652668924,-195.4704337591616 C12.619410610675697,-78.18817350366464,6.9479952684507555,-78.89464723128931,17.369988171126888,-197.23661807822327 A198.0,198.0,0,0,0,10.893536731411594,-197.7001033319947 C4.357414692564638,-79.08004133279789,13.227133536972538,-78.08766188326487,33.06783384243134,-195.21915470816216 Z" fill="#1f77b4" fill-opacity="0.6" />
<path d="M34.150025940302434,-195.03275552654398 A198.0,198.0,0,0,0,33.06783384243134,-195.21915470816216 C13.227133536972538,-78.08766188326487,3.4820274920026635,-79.12341931782863,8.705068730006658,-197.80854829457158 A198.0,198.0,0,0,0,4.018155146827453,-197.9592241579463 C1.6072620587309812,-79.18368966317853,13.660010376120974,-78.0131022106176,34.150025940302434,-195.03275552654398 Z" fill="#1f77b4" fill-opacity="0.6" />
<path d="M34.22821750805572,-195.01904811125817 A198.0,198.0,0,0,0,34.150025940302434,-195.03275552654398 C13.660010376120974,-78.0131022106176,-19.62564420743922,-76.72987742361516,-49.06411051859804,-191.8246935590379 A198.0,198.0,0,0,0,-52.012418722192415,-191.04635117862713 C-20.80496748887697,-76.41854047145085,13.691287003222289,-78.00761924450327,34.22821750805572,-195.01904811125817 Z" fill="#1f77b4" fill-opacity="0.6" />
<path d="M34.28740680502854,-195.00865040963305 A198.0,198.0,0,0,0,34.22821750805572,-195.01904811125817 C13.691287003222289,-78.00761924450327,-47.490240674551075,-63.38230857797162,-118.72560168637769,-158.45577144492904 A198.0,198.0,0,0,0,-120.7930285768675,-156.88544944394326 C-48.317211430747,-62.754179777577306,13.714962722011416,-78.00346016385322,34.28740680502854,-195.00865040963305 Z" fill="#1f77b4" fill-opacity="0.6" />
<path d="M34.85109342167838,-194.90869987589946 A198.0,198.0,0,0,0,34.28740680502854,-195.00865040963305 C13.714962722011416,-78.00346016385322,-56.32322730509516,-55.680643548171965,-140.8080682627379,-139.2016088704299 A198.0,198.0,0,0,0,-152.26706726360337,-126.56516197967467 C-60.90682690544135,-50.62606479186987,13.940437368671352,-77.96347995035978,34.85109342167838,-194.90869987589946 Z" fill="#1f77b4" fill-opacity="0.6" />
<path d="M34.912316411426914,-194.89774283656652 A198.0,198.0,0,0,0,34.85109342167838,-194.90869987589946 C13.940437368671352,-77.96347995035978,-76.43018861789263,-20.76213543529076,-191.07547154473156,-51.90533858822689 A198.0,198.0,0,0,0,-191.91739599754587,-48.70023730456724 C-76.76695839901835,-19.480094921826897,13.964926564570767,-77.95909713462662,34.912316411426914,-194.89774283656652 Z" fill="#1f77b4" fill-opacity="0.6" />
<path d="M34.96051494503776,-194.88910281177291 A198.0,198.0,0,0,0,34.912316411426914,-194.89774283656652 C13.964926564570767,-77.95909713462662,-79.01783360893101,-5.368609852773199,-197.5445840223275,-13.421524631932996 A198.0,198.0,0,0,0,-197.6507821688372,-11.754501607761288 C-79.06031286753489,-4.701800643104515,13.984205978015105,-77.95564112470917,34.96051494503776,-194.88910281177291 Z" fill="#1f77b4" fill-opacity="0.6" />
<path d="M34.98497578905046,-194.88471327695137 A198.0,198.0,0,0,0,34.96051494503776,-194.88910281177291 C13.984205978015105,-77.95564112470917,-74.7232347881459,26.25029871821695,-186.80808697036474,65.62574679554237 A198.0,198.0,0,0,0,-186.40547689856515,66.7607533077518 C-74.56219075942606,26.704301323100722,13.993990315620184,-77.95388531078055,34.98497578905046,-194.88471327695137 Z" fill="#1f77b4" fill-opacity="0.6" />
<path d="M35.04966928424127,-194.87308865788862 A198.0,198.0,0,0,0,34.98497578905046,-194.88471327695137 C13.993990315620184,-77.95388531078055,-54.52582700239543,57.441920142913446,-136.31456750598858,143.6048003572836 A198.0,198.0,0,0,0,-133.76579453370917,145.9818900164178 C-53.50631781348367,58.39275600656712,14.019867713696508,-77.94923546315545,35.04966928424127,-194.87308865788862 Z" fill="#1f77b4" fill-opacity="0.6" />
<path d="M35.155220706981694,-194.85407477659635 A198.0,198.0,0,0,0,35.04966928424127,-194.87308865788862 C14.019867713696508,-77.94923546315545,-31.649993581410797,72.60108750078511,-79.12498395352699,181.50271875196276 A198.0,198.0,0,0,0,-74.94530249982512,183.2681140657308 C-29.97812099993005,73.30724562629233,14.06208828279268,-77.94162991063854,35.155220706981694,-194.85407477659635 Z" fill="#1f77b4" fill-opacity="0.6" />
<path d="M42.63361482267956,-193.35556595855056 A198.0,198.0,0,0,0,35.155220706981694,-194.85407477659635 C14.06208828279268,-77.94162991063854,-25.640186080116845,74.93477735856018,-64.1004652002921,187.33694339640044 A198.0,198.0,0,0,0,-61.24626243667281,188.28939252527798 C-24.498504974669125,75.3157570101112,17.053445929071824,-77.34222638342023,42.63361482267956,-193.35556595855056 Z" fill="#1f77b4" fill-opacity="0.6" />
<path d="M42.647896693982865,-193.3524163479199 A198.0,198.0,0,0,0,42.63361482267956,-193.35556595855056 C17.053445929071824,-77.34222638342023,-16.410336414778076,77.48122907358794,-41.02584103694519,193.70307268396985 A198.0,198.0,0,0,0,-40.64174725514756,193.78402508991473 C-16.256698902059025,77.5136100359659,17.059158677593146,-77.34096653916797,42.647896693982865,-193.3524163479199 Z" fill="#1f77b4" fill-opacity="0.6" />
<path d="M42.94289769637169,-193.2871116692444 A198.0,198.0,0,0,0,42.647896693982865,-193.3524163479199 C17.059158677593146,-77.34096653916797,5.634876271294499,78.9992922082673,14.087190678236247,197.49823052066824 A198.0,198.0,0,0,0,26.126190957764337,196.26874979486274 C10.450476383105736,78.5074999179451,17.177159078548677,-77.31484466769777,42.94289769637169,-193.2871116692444 Z" fill="#1f77b4" fill-opacity="0.6" />
<path d="M43.008078818433745,-193.27261874447552 A198.0,198.0,0,0,0,42.94289769637169,-193.2871116692444 C17.177159078548677,-77.31484466769777,13.432461505250373,78.0526039149878,33.58115376312593,195.13150978746947 A198.0,198.0,0,0,0,33.94518708197489,195.06851174387353 C13.578074832789959,78.02740469754941,17.2032315273735,-77.30904749779022,43.008078818433745,-193.27261874447552 Z" fill="#1f77b4" fill-opacity="0.6" />
<path d="M43.07783481646929,-193.25708304619778 A198.0,198.0,0,0,0,43.008078818433745,-193.27261874447552 C17.2032315273735,-77.30904749779022,25.58986060471168,74.95197818757971,63.9746515117792,187.37994546894927 A198.0,198.0,0,0,0,65.5163672758794,186.8464760678458 C26.20654691035176,74.73859042713832,17.231133926587717,-77.30283321847912,43.07783481646929,-193.25708304619778 Z" fill="#1f77b4" fill-opacity="0.6" />
<path d="M43.16706236529403,-193.23717221784946 A198.0,198.0,0,0,0,43.07783481646929,-193.25708304619778 C17.231133926587717,-77.30283321847912,45.386033129216926,64.90568539653229,113.46508282304231,162.2642134913307 A198.0,198.0,0,0,0,116.30805978228932,160.23868206422384 C46.52322391291573,64.09547282568954,17.266824946117612,-77.29486888713978,43.16706236529403,-193.23717221784946 Z" fill="#1f77b4" fill-opacity="0.6" />
<path d="M43.257353819082546,-193.21697994889243 A198.0,198.0,0,0,0,43.16706236529403,-193.23717221784946 C17.266824946117612,-77.29486888713978,70.46049075753783,36.16571915788386,176.15122689384455,90.41429789470965 A198.0,198.0,0,0,0,178.64676194417467,85.37759920998826 C71.45870477766987,34.15103968399531,17.30294152763302,-77.28679197955698,43.257353819082546,-193.21697994889243 Z" fill="#1f77b4" fill-opacity="0.6" />
<path d="M43.34771633640448,-193.1967274267828 A198.0,198.0,0,0,0,43.257353819082546,-193.21697994889243 C17.30294152763302,-77.28679197955698,78.45290575896844,10.852722145822067,196.1322643974211,27.131805364555166 A198.0,198.0,0,0,0,196.56503707416334,23.794667470523464 C78.62601482966534,9.517866988209386,17.339086534561794,-77.27869097071311,43.34771633640448,-193.1967274267828 Z" fill="#1f77b4" fill-opacity="0.6" />
<path d="M44.05623128759161,-193.03639160721542 A198.0,198.0,0,0,0,43.34771633640448,-193.1967274267828 C17.339086534561794,-77.27869097071311,79.19055523334612,1.2230951861396124,197.9763880833653,3.057737965349031 A198.0,198.0,0,0,0,197.9900660936347,1.9833628609413092 C79.1960264374539,0.7933451443765237,17.622492515036644,-77.21455664288618,44.05623128759161,-193.03639160721542 Z" fill="#1f77b4" fill-opacity="0.6" />
<path d="M19.394308594321824,-197.0478642212298 A198.0,198.0,0,0,0,19.341452987132723,-197.0530593427733 C7.736581194853089,-78.82122373710934,-47.48888026977815,-63.38332786090264,-118.72220067444538,-158.4583196522566 A198.0,198.0,0,0,0,-118.72560168637769,-158.45577144492904 C-47.490240674551075,-63.38230857797162,7.75772343772873,-78.81914568849191,19.394308594321824,-197.0478642212298 Z" fill="#2ca02c" fill-opacity="0.6" />
<path d="M19.447162806101954,-197.04265492220958 A198.0,198.0,0,0,0,19.394308594321824,-197.0478642212298 C7.75772343772873,-78.81914568849191,-25.641033373350776,74.9344874376726,-64.10258343337694,187.3362185941815 A198.0,198.0,0,0,0,-64.1004652002921,187.33694339640044 C-25.640186080116845,74.93477735856018,7.778865122440782,-78.81706196888383,19.447162806101954,-197.04265492220958 Z" fill="#9467bd" fill-opacity="0.6" />
<path d="M19.552867028224064,-197.03219379323926 A198.0,198.0,0,0,0,19.447162806101954,-197.04265492220958 C7.778865122440782,-78.81706196888383,5.6317317564031635,78.99951643791195,14.079329391007908,197.49879109477985 A198.0,198.0,0,0,0,14.087190678236247,197.49823052066824 C5.634876271294499,78.9992922082673,7.821146811289626,-78.8128775172957,19.552867028224064,-197.03219379323926 Z" fill="#9467bd" fill-opacity="0.6" />
<path d="M19.60571703096069,-197.0269419640418 A198.0,198.0,0,0,0,19.552867028224064,-197.03219379323926 C7.821146811289626,-78.8128775172957,45.384801842151916,64.9065463705211,113.46200460537979,162.26636592630274 A198.0,198.0,0,0,0,113.46508282304231,162.2642134913307 C45.386033129216926,64.90568539653229,7.842286812384277,-78.81077678561672,19.60571703096069,-197.0269419640418 Z" fill="#8c564b" fill-opacity="0.6" />
<path d="M19.764258560242805,-197.0111014221378 A198.0,198.0,0,0,0,19.60571703096069,-197.0269419640418 C7.842286812384277,-78.81077678561672,78.45231784188789,10.856971273582731,196.1307946047197,27.142428183956827 A198.0,198.0,0,0,0,196.1322643974211,27.131805364555166 C78.45290575896844,10.852722145822067,7.905703424097123,-78.80444056885513,19.764258560242805,-197.0111014221378 Z" fill="#e377c2" fill-opacity="0.6" />
<path d="M19.922787291285665,-196.99513330675504 A198.0,198.0,0,0,0,19.764258560242805,-197.0111014221378 C7.905703424097123,-78.80444056885513,79.19053240409744,1.2245723970405336,197.9763310102436,3.0614309926013337 A198.0,198.0,0,0,0,197.9763880833653,3.057737965349031 C79.19055523334612,1.2230951861396124,7.9691149165142665,-78.79805332270202,19.922787291285665,-196.99513330675504 Z" fill="#e377c2" fill-opacity="0.6" />
<path d="M10.735399827735938,-197.7087534494582 A198.0,198.0,0,0,0,10.682685995216435,-197.71160871311426 C4.273074398086574,-79.0846434852457,5.629730696826258,78.99965906433529,14.074326742065645,197.49914766083822 A198.0,198.0,0,0,0,14.079329391007908,197.49879109477985 C5.6317317564031635,78.99951643791195,4.294159931094375,-79.08350137978329,10.735399827735938,-197.7087534494582 Z" fill="#9467bd" fill-opacity="0.6" />
<path d="M10.840825199580712,-197.70300075869395 A198.0,198.0,0,0,0,10.735399827735938,-197.7087534494582 C4.294159931094375,-79.08350137978329,79.1905130122165,1.2258257877738137,197.97628253054123,3.064564469434534 A198.0,198.0,0,0,0,197.9763310102436,3.0614309926013337 C79.19053240409744,1.2245723970405336,4.336330079832285,-79.08120030347759,10.840825199580712,-197.70300075869395 Z" fill="#e377c2" fill-opacity="0.6" />
<path d="M1.7897597173095623,-197.99191084525222 A198.0,198.0,0,0,0,1.7433314214451847,-197.9923250925525 C0.6973325685780739,-79.196930037021,-47.4873766390505,-63.38445440280259,-118.71844159762625,-158.46113600700647 A198.0,198.0,0,0,0,-118.72220067444538,-158.4583196522566 C-47.48888026977815,-63.38332786090264,0.715903886923825,-79.19676433810089,1.7897597173095623,-197.99191084525222 Z" fill="#2ca02c" fill-opacity="0.6" />
<path d="M1.9290440041963668,-197.9906027801064 A198.0,198.0,0,0,0,1.7897597173095623,-197.99191084525222 C0.715903886923825,-79.19676433810089,-76.42836595783062,-20.768843901765848,-191.07091489457656,-51.92210975441461 A198.0,198.0,0,0,0,-191.07547154473156,-51.90533858822689 C-76.43018861789263,-20.76213543529076,0.7716176016785468,-79.19624111204257,1.9290440041963668,-197.9906027801064 Z" fill="#d62728" fill-opacity="0.6" />
<path d="M2.5790236061676097,-197.98320291691118 A198.0,198.0,0,0,0,1.9290440041963668,-197.9906027801064 C0.7716176016785468,-79.19624111204257,-54.54923775194045,57.419688789493414,-136.37309437985112,143.54922197373352 A198.0,198.0,0,0,0,-136.31456750598858,143.6048003572836 C-54.52582700239543,57.441920142913446,1.031609442467044,-79.19328116676448,2.5790236061676097,-197.98320291691118 Z" fill="#d62728" fill-opacity="0.6" />
<path d="M2.625449739944645,-197.98259270365924 A198.0,198.0,0,0,0,2.5790236061676097,-197.98320291691118 C1.031609442467044,-79.19328116676448,5.627992931631584,78.99978288300231,14.06998232907896,197.49945720750577 A198.0,198.0,0,0,0,14.074326742065645,197.49914766083822 C5.629730696826258,78.99965906433529,1.0501798959778579,-79.1930370814637,2.625449739944645,-197.98259270365924 Z" fill="#9467bd" fill-opacity="0.6" />
<path d="M2.671875729352822,-197.9819716036965 A198.0,198.0,0,0,0,2.625449739944645,-197.98259270365924 C1.0501798959778579,-79.1930370814637,45.383440926920194,64.90749794617527,113.45860231730047,162.26874486543815 A198.0,198.0,0,0,0,113.46200460537979,162.26636592630274 C45.384801842151916,64.9065463705211,1.068750291741129,-79.19278864147861,2.671875729352822,-197.9819716036965 Z" fill="#8c564b" fill-opacity="0.6" />
<path d="M2.7183015718393038,-197.9813396170572 A198.0,198.0,0,0,0,2.671875729352822,-197.9819716036965 C1.068750291741129,-79.19278864147861,79.19050458588057,1.2263700231282264,197.97626146470142,3.0659250578205657 A198.0,198.0,0,0,0,197.97628253054123,3.064564469434534 C79.1905130122165,1.2258257877738137,1.0873206287357216,-79.19253584682288,2.7183015718393038,-197.9813396170572 Z" fill="#e377c2" fill-opacity="0.6" />
<path d="M-56.54438125541383,-189.7544016576227 A198.0,198.0,0,0,0,-59.459919599912766,-188.86110759278074 C-23.783967839965108,-75.5444430371123,-47.47639735509164,-63.39267855345322,-118.6909933877291,-158.48169638363305 A198.0,198.0,0,0,0,-118.71844159762625,-158.46113600700647 C-47.4873766390505,-63.38445440280259,-22.617752502165533,-75.90176066304909,-56.54438125541383,-189.7544016576227 Z" fill="#2ca02c" fill-opacity="0.6" />
<path d="M-55.74687771644111,-189.99022507715537 A198.0,198.0,0,0,0,-56.54438125541383,-189.7544016576227 C-22.617752502165533,-75.90176066304909,-56.050941391191955,-55.95473142783517,-140.12735347797988,-139.88682856958792 A198.0,198.0,0,0,0,-140.8080682627379,-139.2016088704299 C-56.32322730509516,-55.680643548171965,-22.298751086576445,-75.99609003086215,-55.74687771644111,-189.99022507715537 Z" fill="#2ca02c" fill-opacity="0.6" />
<path d="M-53.61543181062021,-190.60269009581353 A198.0,198.0,0,0,0,-55.74687771644111,-189.99022507715537 C-22.298751086576445,-75.99609003086215,-25.646006067557984,74.93278570013783,-64.11501516889496,187.33196425034456 A198.0,198.0,0,0,0,-64.10258343337694,187.3362185941815 C-25.641033373350776,74.9344874376726,-21.446172724248086,-76.24107603832542,-53.61543181062021,-190.60269009581353 Z" fill="#9467bd" fill-opacity="0.6" />
<path d="M-53.08150891703557,-190.7520731501775 A198.0,198.0,0,0,0,-53.61543181062021,-190.60269009581353 C-21.446172724248086,-76.24107603832542,5.625686025157481,78.99994719457949,14.064215062893702,197.49986798644872 A198.0,198.0,0,0,0,14.06998232907896,197.49945720750577 C5.627992931631584,78.99978288300231,-21.23260356681423,-76.300829260071,-53.08150891703557,-190.7520731501775 Z" fill="#9467bd" fill-opacity="0.6" />
<path d="M-52.54716982435239,-190.89996056429837 A198.0,198.0,0,0,0,-53.08150891703557,-190.7520731501775 C-21.23260356681423,-76.300829260071,79.19049339404937,1.227092501413079,197.9762334851234,3.067731253532697 A198.0,198.0,0,0,0,197.97626146470142,3.0659250578205657 C79.19050458588057,1.2263700231282264,-21.018867929740956,-76.35998422571934,-52.54716982435239,-190.89996056429837 Z" fill="#e377c2" fill-opacity="0.6" />
<path d="M-121.21177819879446,-156.56214365511943 A198.0,198.0,0,0,0,-122.03125242727484,-155.92425542881622 C-48.81250097090994,-62.36970217152649,-55.68581984819644,-56.31810959038144,-139.21454962049108,-140.7952739759536 A198.0,198.0,0,0,0,-140.12735347797988,-139.88682856958792 C-56.050941391191955,-55.95473142783517,-48.48471127951779,-62.62485746204777,-121.21177819879446,-156.56214365511943 Z" fill="#2ca02c" fill-opacity="0.6" />
<path d="M-120.80078929368206,-156.879473819947 A198.0,198.0,0,0,0,-121.21177819879446,-156.56214365511943 C-48.48471127951779,-62.62485746204777,-25.647041277876607,74.93243138782361,-64.11760319469151,187.33107846955903 A198.0,198.0,0,0,0,-64.11501516889496,187.33196425034456 C-25.646006067557984,74.93278570013783,-48.32031571747282,-62.75178952797881,-120.80078929368206,-156.879473819947 Z" fill="#9467bd" fill-opacity="0.6" />
<path d="M-120.795974925815,-156.8831808758411 A198.0,198.0,0,0,0,-120.80078929368206,-156.879473819947 C-48.32031571747282,-62.75178952797881,45.207222602621755,65.03035463963737,113.01805650655437,162.57588659909342 A198.0,198.0,0,0,0,113.45860231730047,162.26874486543815 C45.383440926920194,64.90749794617527,-48.318389970326,-62.753272350336445,-120.795974925815,-156.8831808758411 Z" fill="#2ca02c" fill-opacity="0.6" />
<path d="M-152.67786137504856,-126.06930889769106 A198.0,198.0,0,0,0,-152.685605294798,-126.05992993715789 C-61.0742421179192,-50.42397197486316,-78.97813805860739,-5.923994327778373,-197.44534514651846,-14.80998581944593 A198.0,198.0,0,0,0,-197.5445840223275,-13.421524631932996 C-79.01783360893101,-5.368609852773199,-61.071144550019426,-50.427723559076426,-152.67786137504856,-126.06930889769106 Z" fill="#2ca02c" fill-opacity="0.6" />
<path d="M-152.47266588860398,-126.31740243063163 A198.0,198.0,0,0,0,-152.67786137504856,-126.06930889769106 C-61.071144550019426,-50.427723559076426,5.62395961161846,79.00007011570867,14.05989902904615,197.50017528927165 A198.0,198.0,0,0,0,14.064215062893702,197.49986798644872 C5.625686025157481,78.99994719457949,-60.989066355441594,-50.52696097225265,-152.47266588860398,-126.31740243063163 Z" fill="#9467bd" fill-opacity="0.6" />
<path d="M-152.26706726360337,-126.56516197967467 A198.0,198.0,0,0,0,-152.47266588860398,-126.31740243063163 C-60.989066355441594,-50.52696097225265,79.19048501415114,1.2276331795398732,197.9762125353778,3.0690829488496827 A198.0,198.0,0,0,0,197.9762334851234,3.067731253532697 C79.19049339404937,1.227092501413079,-60.90682690544135,-50.62606479186987,-152.26706726360337,-126.56516197967467 Z" fill="#e377c2" fill-opacity="0.6" />
<path d="M-192.21182604842926,-47.52487692912389 A198.0,198.0,0,0,0,-192.21391329245225,-47.516434386448374 C-76.8855653169809,-19.00657375457935,-78.96116673514065,-6.146067671716517,-197.40291683785162,-15.365169179291291 A198.0,198.0,0,0,0,-197.44534514651846,-14.80998581944593 C-78.97813805860739,-5.923994327778373,-76.8847304193717,-19.009950771649557,-192.21182604842926,-47.52487692912389 Z" fill="#d62728" fill-opacity="0.6" />
<path d="M-192.11288797012426,-47.92325401909265 A198.0,198.0,0,0,0,-192.21182604842926,-47.52487692912389 C-76.8847304193717,-19.009950771649557,-78.31916202166538,11.779170608499014,-195.79790505416344,29.44792652124753 A198.0,198.0,0,0,0,-186.80808697036474,65.62574679554237 C-74.7232347881459,26.25029871821695,-76.84515518804972,-19.169301607637063,-192.11288797012426,-47.92325401909265 Z" fill="#d62728" fill-opacity="0.6" />
<path d="M-192.110869581115,-47.93134453348688 A198.0,198.0,0,0,0,-192.11288797012426,-47.92325401909265 C-76.84515518804972,-19.169301607637063,-54.789406320142604,57.19056701140774,-136.9735158003565,142.97641752851933 A198.0,198.0,0,0,0,-136.37309437985112,143.54922197373352 C-54.54923775194045,57.419688789493414,-76.844347832446,-19.17253781339475,-192.110869581115,-47.93134453348688 Z" fill="#d62728" fill-opacity="0.6" />
<path d="M-192.10143400911548,-47.96914687214541 A198.0,198.0,0,0,0,-192.110869581115,-47.93134453348688 C-76.844347832446,-19.17253781339475,-32.78043089215917,72.09773471146217,-81.95107723039791,180.24433677865542 A198.0,198.0,0,0,0,-79.12498395352699,181.50271875196276 C-31.649993581410797,72.60108750078511,-76.84057360364619,-19.187658748858166,-192.10143400911548,-47.96914687214541 Z" fill="#d62728" fill-opacity="0.6" />
<path d="M-192.09765769751505,-47.98426728760523 A198.0,198.0,0,0,0,-192.10143400911548,-47.96914687214541 C-76.84057360364619,-19.187658748858166,-16.71741734670848,77.41555371665291,-41.793543366771196,193.53888429163226 A198.0,198.0,0,0,0,-41.02584103694519,193.70307268396985 C-16.410336414778076,77.48122907358794,-76.83906307900602,-19.193706915042092,-192.09765769751505,-47.98426728760523 Z" fill="#d62728" fill-opacity="0.6" />
<path d="M-192.0955019963546,-47.99289648238084 A198.0,198.0,0,0,0,-192.09765769751505,-47.98426728760523 C-76.83906307900602,-19.193706915042092,13.396050846494598,78.05886126326807,33.49012711623649,195.14715315817017 A198.0,198.0,0,0,0,33.58115376312593,195.13150978746947 C13.432461505250373,78.0526039149878,-76.83820079854185,-19.197158592952338,-192.0955019963546,-47.99289648238084 Z" fill="#d62728" fill-opacity="0.6" />
<path d="M-192.0927770024916,-48.003802177234164 A198.0,198.0,0,0,0,-192.0955019963546,-47.99289648238084 C-76.83820079854185,-19.197158592952338,44.94227193209588,65.21374236755277,112.35567983023968,163.03435591888191 A198.0,198.0,0,0,0,113.01805650655437,162.57588659909342 C45.207222602621755,65.03035463963737,-76.83711080099664,-19.201520870893667,-192.0927770024916,-48.003802177234164 Z" fill="#d62728" fill-opacity="0.6" />
<path d="M-191.91937898213664,-48.69242211177226 A198.0,198.0,0,0,0,-192.0927770024916,-48.003802177234164 C-76.83711080099664,-19.201520870893667,70.38954572256846,36.30360661105788,175.97386430642115,90.75901652764469 A198.0,198.0,0,0,0,176.15122689384455,90.41429789470965 C70.46049075753783,36.16571915788386,-76.76775159285465,-19.476968844708907,-191.91937898213664,-48.69242211177226 Z" fill="#e377c2" fill-opacity="0.6" />
<path d="M-191.918445565294,-48.696100991776376 A198.0,198.0,0,0,0,-191.91937898213664,-48.69242211177226 C-76.76775159285465,-19.476968844708907,78.438056922337,10.959526734682548,196.09514230584247,27.398816836706366 A198.0,198.0,0,0,0,196.1307946047197,27.142428183956827 C78.45231784188789,10.856971273582731,-76.7673782261176,-19.478440396710553,-191.918445565294,-48.696100991776376 Z" fill="#d62728" fill-opacity="0.6" />
<path d="M-197.75230177391407,-9.90086577622479 A198.0,198.0,0,0,0,-197.95345171734436,4.293128601500139 C-79.18138068693776,1.7172514406000556,-78.33112055058618,11.699382602921247,-195.82780137646543,29.248456507303114 A198.0,198.0,0,0,0,-195.79790505416344,29.44792652124753 C-78.31916202166538,11.779170608499014,-79.10092070956563,-3.9603463104899164,-197.75230177391407,-9.90086577622479 Z" fill="#d62728" fill-opacity="0.6" />
<path d="M-197.65355573575232,-11.707771137746422 A198.0,198.0,0,0,0,-197.75230177391407,-9.90086577622479 C-79.10092070956563,-3.9603463104899164,-32.78860254379141,72.09401877566042,-81.97150635947852,180.23504693915103 A198.0,198.0,0,0,0,-81.95107723039791,180.24433677865542 C-32.78043089215917,72.09773471146217,-79.06142229430094,-4.683108455098568,-197.65355573575232,-11.707771137746422 Z" fill="#d62728" fill-opacity="0.6" />
<path d="M-197.65120929465596,-11.747317326101044 A198.0,198.0,0,0,0,-197.65355573575232,-11.707771137746422 C-79.06142229430094,-4.683108455098568,24.58405879693514,75.28787454211226,61.46014699233784,188.21968635528066 A198.0,198.0,0,0,0,63.9746515117792,187.37994546894927 C25.58986060471168,74.95197818757971,-79.06048371786238,-4.698926930440417,-197.65120929465596,-11.747317326101044 Z" fill="#d62728" fill-opacity="0.6" />
<path d="M-197.6507821688372,-11.754501607761288 A198.0,198.0,0,0,0,-197.65120929465596,-11.747317326101044 C-79.06048371786238,-4.698926930440417,44.67657733997635,65.39605062375794,111.69144334994087,163.49012655939487 A198.0,198.0,0,0,0,112.35567983023968,163.03435591888191 C44.94227193209588,65.21374236755277,-79.06031286753489,-4.701800643104515,-197.6507821688372,-11.754501607761288 Z" fill="#d62728" fill-opacity="0.6" />
<path d="M-185.93553192645294,68.05863624277961 A198.0,198.0,0,0,0,-180.47744353493317,81.43643149779474 C-72.19097741397327,32.5745725991179,-54.83506293952291,57.14679231959184,-137.08765734880728,142.8669807989796 A198.0,198.0,0,0,0,-136.9735158003565,142.97641752851933 C-54.789406320142604,57.19056701140774,-74.37421277058118,27.223454497111845,-185.93553192645294,68.05863624277961 Z" fill="#d62728" fill-opacity="0.6" />
<path d="M-186.00442883067376,67.87011459674144 A198.0,198.0,0,0,0,-185.93553192645294,68.05863624277961 C-74.37421277058118,27.223454497111845,-32.8636796738954,72.05982624383432,-82.15919918473848,180.1495656095858 A198.0,198.0,0,0,0,-81.97150635947852,180.23504693915103 C-32.78860254379141,72.09401877566042,-74.4017715322695,27.14804583869658,-186.00442883067376,67.87011459674144 Z" fill="#d62728" fill-opacity="0.6" />
<path d="M-186.03186535111502,67.79487498317712 A198.0,198.0,0,0,0,-186.00442883067376,67.87011459674144 C-74.4017715322695,27.14804583869658,-27.065739330893724,74.43175232702849,-67.66434832723431,186.07938081757123 A198.0,198.0,0,0,0,-64.11760319469151,187.33107846955903 C-25.647041277876607,74.93243138782361,-74.412746140446,27.11794999327085,-186.03186535111502,67.79487498317712 Z" fill="#d62728" fill-opacity="0.6" />
<path d="M-186.18648871500156,67.3690687183562 A198.0,198.0,0,0,0,-186.03186535111502,67.79487498317712 C-74.412746140446,27.11794999327085,11.35263385055907,78.38212618100597,28.38158462639767,195.95531545251492 A198.0,198.0,0,0,0,33.49012711623649,195.14715315817017 C13.396050846494598,78.05886126326807,-74.47459548600062,26.947627487342483,-186.18648871500156,67.3690687183562 Z" fill="#d62728" fill-opacity="0.6" />
<path d="M-186.19385221762926,67.34871488276251 A198.0,198.0,0,0,0,-186.18648871500156,67.3690687183562 C-74.47459548600062,26.947627487342483,24.196028596846052,75.41347492418453,60.49007149211513,188.53368731046132 A198.0,198.0,0,0,0,61.46014699233784,188.21968635528066 C24.58405879693514,75.28787454211226,-74.4775408870517,26.939485953105006,-186.19385221762926,67.34871488276251 Z" fill="#d62728" fill-opacity="0.6" />
<path d="M-186.1973295238901,67.33910066352152 A198.0,198.0,0,0,0,-186.19385221762926,67.34871488276251 C-74.4775408870517,26.939485953105006,44.41014322425957,65.57727639053603,111.02535806064891,163.94319097634005 A198.0,198.0,0,0,0,111.69144334994087,163.49012655939487 C44.67657733997635,65.39605062375794,-74.47893180955604,26.93564026540861,-186.1973295238901,67.33910066352152 Z" fill="#d62728" fill-opacity="0.6" />
<path d="M-186.40125730319792,66.7725338427935 A198.0,198.0,0,0,0,-186.1973295238901,67.33910066352152 C-74.47893180955604,26.93564026540861,70.38816148194127,36.30629040802929,175.97040370485317,90.76572602007322 A198.0,198.0,0,0,0,175.97386430642115,90.75901652764469 C70.38954572256846,36.30360661105788,-74.56050292127917,26.7090135371174,-186.40125730319792,66.7725338427935 Z" fill="#e377c2" fill-opacity="0.6" />
<path d="M-133.50611191158663,146.21941759647007 A198.0,198.0,0,0,0,-133.50229399452937,146.22290346658505 C-53.40091759781175,58.489161386634024,-33.013726883131675,71.99120666641163,-82.53431720782918,179.97801666602905 A198.0,198.0,0,0,0,-82.15919918473848,180.1495656095858 C-32.8636796738954,72.05982624383432,-53.40244476463465,58.48776703858803,-133.50611191158663,146.21941759647007 Z" fill="#d62728" fill-opacity="0.6" />
<path d="M-133.74379887117883,146.00204198402727 A198.0,198.0,0,0,0,-133.50611191158663,146.21941759647007 C-53.40244476463465,58.48776703858803,18.859432256546338,76.92179024802232,47.14858064136584,192.30447562005577 A198.0,198.0,0,0,0,60.49007149211513,188.53368731046132 C24.196028596846052,75.41347492418453,-53.49751954847153,58.400816793610915,-133.74379887117883,146.00204198402727 Z" fill="#d62728" fill-opacity="0.6" />
<path d="M-133.76579453370917,145.9818900164178 A198.0,198.0,0,0,0,-133.74379887117883,146.00204198402727 C-53.49751954847153,58.400816793610915,43.69607037842724,66.05523017508555,109.24017594606809,165.1380754377139 A198.0,198.0,0,0,0,111.02535806064891,163.94319097634005 C44.41014322425957,65.57727639053603,-53.50631781348367,58.39275600656712,-133.76579453370917,145.9818900164178 Z" fill="#d62728" fill-opacity="0.6" />
<path d="M-74.8957611329739,183.28836559998157 A198.0,198.0,0,0,0,-74.89144637127461,183.29012864968615 C-29.956578548509846,73.31605145987446,-27.159977599679856,74.39741673462116,-67.89994399919964,185.99354183655288 A198.0,198.0,0,0,0,-67.66434832723431,186.07938081757123 C-27.065739330893724,74.43175232702849,-29.958304453189562,73.31534623999264,-74.8957611329739,183.28836559998157 Z" fill="#d62728" fill-opacity="0.6" />
<path d="M-74.9014886286369,183.28602511161122 A198.0,198.0,0,0,0,-74.8957611329739,183.28836559998157 C-29.958304453189562,73.31534623999264,-16.870859559016463,77.38225958021609,-42.17714889754115,193.4556489505402 A198.0,198.0,0,0,0,-41.793543366771196,193.53888429163226 C-16.71741734670848,77.41555371665291,-29.96059545145476,73.31441004464449,-74.9014886286369,183.28602511161122 Z" fill="#d62728" fill-opacity="0.6" />
<path d="M-74.91456324365609,183.28068150793268 A198.0,198.0,0,0,0,-74.9014886286369,183.28602511161122 C-29.96059545145476,73.31441004464449,11.27950309879818,78.3926833948437,28.198757746995447,195.98170848710924 A198.0,198.0,0,0,0,28.38158462639767,195.95531545251492 C11.35263385055907,78.38212618100597,-29.965825297462438,73.31227260317307,-74.91456324365609,183.28068150793268 Z" fill="#d62728" fill-opacity="0.6" />
<path d="M-74.92505799665126,183.27639150801298 A198.0,198.0,0,0,0,-74.91456324365609,183.28068150793268 C-29.965825297462438,73.31227260317307,18.621670591963756,76.97969462374083,46.55417647990939,192.44923655935204 A198.0,198.0,0,0,0,47.14858064136584,192.30447562005577 C18.859432256546338,76.92179024802232,-29.970023198660506,73.3105566032052,-74.92505799665126,183.27639150801298 Z" fill="#d62728" fill-opacity="0.6" />
<path d="M-74.92781189823665,183.27526566381636 A198.0,198.0,0,0,0,-74.92505799665126,183.27639150801298 C-29.970023198660506,73.3105566032052,43.606447898667824,66.11442884621155,109.01611974666955,165.28607211552887 A198.0,198.0,0,0,0,109.24017594606809,165.1380754377139 C43.69607037842724,66.05523017508555,-29.971124759294664,73.31010626552654,-74.92781189823665,183.27526566381636 Z" fill="#d62728" fill-opacity="0.6" />
<path d="M-74.94530249982512,183.2681140657308 A198.0,198.0,0,0,0,-74.92781189823665,183.27526566381636 C-29.971124759294664,73.31010626552654,69.88396947836333,37.26755706975148,174.70992369590832,93.1688926743787 A198.0,198.0,0,0,0,175.97040370485317,90.76572602007322 C70.38816148194127,36.30629040802929,-29.97812099993005,73.30724562629233,-74.94530249982512,183.2681140657308 Z" fill="#d62728" fill-opacity="0.6" />
<path d="M-60.76637239500028,188.4448141657184 A198.0,198.0,0,0,0,-60.75788601475212,188.4475504935482 C-24.303154405900848,75.37902019741928,78.35722613894151,11.523242243864452,195.89306534735377,28.808105609661126 A198.0,198.0,0,0,0,196.09514230584247,27.398816836706366 C78.438056922337,10.959526734682548,-24.306548958000114,75.37792566628737,-60.76637239500028,188.4448141657184 Z" fill="#9467bd" fill-opacity="0.6" />
<path d="M-40.64174725514756,193.78402508991473 A198.0,198.0,0,0,0,-40.25749374132554,193.86421587716268 C-16.102997496530218,77.54568635086508,69.88229697052455,37.27069318007673,174.70574242631136,93.1767329501918 A198.0,198.0,0,0,0,174.70992369590832,93.1688926743787 C69.88396947836333,37.26755706975148,-16.256698902059025,77.5136100359659,-40.64174725514756,193.78402508991473 Z" fill="#e377c2" fill-opacity="0.6" />
<path d="M26.1389196250664,196.26705500627025 A198.0,198.0,0,0,0,26.146013993725877,196.26611004511167 C10.458405597490351,78.50644401804468,18.463063910375414,77.0178892923027,46.157659775938534,192.54472323075672 A198.0,198.0,0,0,0,46.55417647990939,192.44923655935204 C18.621670591963756,76.97969462374083,10.455567850026561,78.5068220025081,26.1389196250664,196.26705500627025 Z" fill="#9467bd" fill-opacity="0.6" />
<path d="M26.126190957764337,196.26874979486274 A198.0,198.0,0,0,0,26.1389196250664,196.26705500627025 C10.455567850026561,78.5068220025081,78.28807835145608,11.98402219775457,195.7201958786402,29.960055494386424 A198.0,198.0,0,0,0,195.89306534735377,28.808105609661126 C78.35722613894151,11.523242243864452,10.450476383105736,78.5074999179451,26.126190957764337,196.26874979486274 Z" fill="#9467bd" fill-opacity="0.6" />
<path d="M33.94518708197489,195.06851174387353 A198.0,198.0,0,0,0,34.036176995495396,195.05265610991128 C13.614470798198159,78.02106244396452,69.88038777442964,37.27427268901898,174.70096943607408,93.18568172254744 A198.0,198.0,0,0,0,174.70574242631136,93.1767329501918 C69.88229697052455,37.27069318007673,13.578074832789959,78.02740469754941,33.94518708197489,195.06851174387353 Z" fill="#e377c2" fill-opacity="0.6" />
<path d="M65.7087711558442,186.778899753663 A198.0,198.0,0,0,0,68.96880663251274,185.599848361164 C27.587522653005095,74.2399393444656,43.58708375227988,66.12719659846272,108.96770938069969,165.3179914961568 A198.0,198.0,0,0,0,109.01611974666955,165.28607211552887 C43.606447898667824,66.11442884621155,26.283508462337682,74.71155990146521,65.7087711558442,186.778899753663 Z" fill="#8c564b" fill-opacity="0.6" />
<path d="M65.5163672758794,186.8464760678458 A198.0,198.0,0,0,0,65.7087711558442,186.778899753663 C26.283508462337682,74.71155990146521,69.8793660212078,37.27618816985005,174.6984150530195,93.19047042462512 A198.0,198.0,0,0,0,174.70096943607408,93.18568172254744 C69.88038777442964,37.27427268901898,26.20654691035176,74.73859042713832,65.5163672758794,186.8464760678458 Z" fill="#e377c2" fill-opacity="0.6" />
<path d="M116.3092048056766,160.23785095123802 A198.0,198.0,0,0,0,116.52640803884705,160.0799682332681 C46.610563215538825,64.03198729330724,69.87856162535198,37.27769608186492,174.69640406337993,93.1942402046623 A198.0,198.0,0,0,0,174.6984150530195,93.19047042462512 C69.8793660212078,37.27618816985005,46.52368192227064,64.09514038049521,116.3092048056766,160.23785095123802 Z" fill="#e377c2" fill-opacity="0.6" />
<path d="M180.34083397086906,81.73850746552348 A198.0,198.0,0,0,0,180.41223048004423,81.58080100866505 C72.16489219201769,32.63232040346602,77.55464907552091,16.0597760498957,193.88662268880228,40.14944012473924 A198.0,198.0,0,0,0,195.7201958786402,29.960055494386424 C78.28807835145608,11.98402219775457,72.13633358834763,32.695402986209395,180.34083397086906,81.73850746552348 Z" fill="#e377c2" fill-opacity="0.6" />
<path d="M179.96210115106913,82.56901446240208 A198.0,198.0,0,0,0,180.34083397086906,81.73850746552348 C72.13633358834763,32.695402986209395,78.71726064526345,8.731144054799387,196.7931516131586,21.827860136998467 A198.0,198.0,0,0,0,197.9762125353778,3.0690829488496827 C79.19048501415114,1.2276331795398732,71.98484046042766,33.02760578496083,179.96210115106913,82.56901446240208 Z" fill="#e377c2" fill-opacity="0.6" />
<text x="220.00000000000003" y="0" font-size="10" text-anchor="start" dominant-baseline="middle" transform="rotate(-7.587910)" font-family="Arial">Canada</text>
<text x="220.00000000000003" y="0" font-size="10" text-anchor="start" dominant-baseline="middle" transform="rotate(-24.080829)" font-family="Arial">Mexico</text>
<text x="220.00000000000003" y="0" font-size="10" text-anchor="start" dominant-baseline="middle" transform="rotate(-57.127927)" font-family="Arial">United Sta.</text>
<text x="220.00000000000003" y="0" font-size="10" text-anchor="start" dominant-baseline="middle" transform="rotate(-83.118574)" font-family="Arial">Costa Rica</text>
<text x="220.00000000000003" y="0" font-size="10" text-anchor="start" dominant-baseline="middle" transform="rotate(-85.937176)" font-family="Arial">Dominican .</text>
<text x="220.00000000000006" y="0" font-size="10" text-anchor="start" dominant-baseline="middle" transform="rotate(-88.487850)" font-family="Arial">Guatemala</text>
<text x="-220.00000000000003" y="0" font-size="10" text-anchor="end" dominant-baseline="middle" transform="rotate(81.227870)" font-family="Arial">Argentina</text>
<text x="-220.00000000000006" y="0" font-size="10" text-anchor="end" dominant-baseline="middle" transform="rotate(61.951702)" font-family="Arial">Brazil</text>
<text x="-220.00000000000003" y="0" font-size="10" text-anchor="end" dominant-baseline="middle" transform="rotate(45.461433)" font-family="Arial">Colombia</text>
<text x="-220.00000000000003" y="0" font-size="10" text-anchor="end" dominant-baseline="middle" transform="rotate(26.428101)" font-family="Arial">Germany</text>
<text x="-220.00000000000006" y="0" font-size="10" text-anchor="end" dominant-baseline="middle" transform="rotate(6.035054)" font-family="Arial">Spain</text>
<text x="-220.00000000000003" y="0" font-size="10" text-anchor="end" dominant-baseline="middle" transform="rotate(-13.050793)" font-family="Arial">France</text>
<text x="-220.00000000000003" y="0" font-size="10" text-anchor="end" dominant-baseline="middle" transform="rotate(-36.231464)" font-family="Arial">United Kin.</text>
<text x="-220.00000000000003" y="0" font-size="10" text-anchor="end" dominant-baseline="middle" transform="rotate(-57.976014)" font-family="Arial">Italy</text>
<text x="-220.00000000000006" y="0" font-size="10" text-anchor="end" dominant-baseline="middle" transform="rotate(-70.239146)" font-family="Arial">Indonesia</text>
<text x="-220.00000000000003" y="0" font-size="10" text-anchor="end" dominant-baseline="middle" transform="rotate(-75.485883)" font-family="Arial">India</text>
<text x="-220.0" y="0" font-size="10" text-anchor="end" dominant-baseline="middle" transform="rotate(-88.214925)" font-family="Arial">Japan</text>
<text x="220.00000000000006" y="0" font-size="10" text-anchor="start" dominant-baseline="middle" transform="rotate(-279.029681)" font-family="Arial">Egypt</text>
<text x="220.00000000000006" y="0" font-size="10" text-anchor="start" dominant-baseline="middle" transform="rotate(-285.428149)" font-family="Arial">Nigeria</text>
<text x="220.00000000000003" y="0" font-size="10" text-anchor="start" dominant-baseline="middle" transform="rotate(-298.504927)" font-family="Arial">South Afri.</text>
<text x="220.00000000000003" y="0" font-size="10" text-anchor="start" dominant-baseline="middle" transform="rotate(-321.146377)" font-family="Arial">Australia</text>
<text x="220.00000000000003" y="0" font-size="10" text-anchor="start" dominant-baseline="middle" transform="rotate(-344.669346)" font-family="Arial">New Zealan.</text>
<text x="220.0" y="0" font-size="10" text-anchor="start" dominant-baseline="middle" transform="rotate(-356.548896)" font-family="Arial">Papua New .</text>
<text x="-295.0" y="-285.0" font-size="8" text-anchor="start" dominant-baseline="middle" font-family="Arial" font-weight="bold">Continents</text>
<circle cx="-290.5" cy="-274.5" r="4.5" fill="#8c564b" stroke="#333" stroke-width="0.5" />
<text x="-278.0" y="-271.0" font-size="6" text-anchor="start" dominant-baseline="middle" font-family="Arial">Africa</text>
<circle cx="-290.5" cy="-262.5" r="4.5" fill="#9467bd" stroke="#333" stroke-width="0.5" />
<text x="-278.0" y="-259.0" font-size="6" text-anchor="start" dominant-baseline="middle" font-family="Arial">Asia</text>
<circle cx="-290.5" cy="-250.5" r="4.5" fill="#ff7f0e" stroke="#333" stroke-width="0.5" />
<text x="-278.0" y="-247.0" font-size="6" text-anchor="start" dominant-baseline="middle" font-family="Arial">Central America</text>
<circle cx="-290.5" cy="-238.5" r="4.5" fill="#d62728" stroke="#333" stroke-width="0.5" />
<text x="-278.0" y="-235.0" font-size="6" text-anchor="start" dominant-baseline="middle" font-family="Arial">Europe</text>
<circle cx="-290.5" cy="-226.5" r="4.5" fill="#1f77b4" stroke="#333" stroke-width="0.5" />
<text x="-278.0" y="-223.0" font-size="6" text-anchor="start" dominant-baseline="middle" font-family="Arial">North America</text>
<circle cx="-290.5" cy="-214.5" r="4.5" fill="#e377c2" stroke="#333" stroke-width="0.5" />
<text x="-278.0" y="-211.0" font-size="6" text-anchor="start" dominant-baseline="middle" font-family="Arial">Oceania</text>
<circle cx="-290.5" cy="-202.5" r="4.5" fill="#2ca02c" stroke="#333" stroke-width="0.5" />
<text x="-278.0" y="-199.0" font-size="6" text-anchor="start" dominant-baseline="middle" font-family="Arial">South America</text>
</svg>