<?xml version="1.0" encoding="UTF-8"?>
<svg xmlns="http://www.w3.org/2000/svg" xmlns:xlink="http://www.w3.org/1999/xlink"
     width="600.0" height="600.0" viewBox="-300.0 -300.0 600.0 600.0">
<defs>
</defs>
<rect x="-300.0" y="-300.0" width="600.0" height="600.0" fill="#ffffff" fill-opacity="1.0" />
<path d="M200.0,-0.0 A200,200,0,0,0,192.30370583698152,-54.948018357022434 L205.76496524557024,-58.79437964201401 A214.0,214.0,0,0,1,214.0,-0.0 Z" fill="#1f77b4" fill-opacity="0.9" />
<path d="M191.744619706203,-56.86827598691194 A200,200,0,0,0,180.13945209697505,-86.88945734783724 L192.7492137437633,-92.97171936218585 A214.0,214.0,0,0,1,205.16674308563722,-60.849055305995776 Z" fill="#1f77b4" fill-opacity="0.9" />
<path d="M179.2615651074535,-88.68647740905152 A200,200,0,0,0,46.26114584393605,-194.57622255868284 L49.499426053011575,-208.19655813779065 A214.0,214.0,0,0,1,191.80987466497524,-94.89453082768513 Z" fill="#1f77b4" fill-opacity="0.9" />
<path d="M44.31310300954071,-195.029097576915 A200,200,0,0,0,37.44299326456707,-196.46379375190125 L40.06400279308677,-210.21625931453434 A214.0,214.0,0,0,1,47.41502022020856,-208.68113440729906 Z" fill="#ff7f0e" fill-opacity="0.9" />
<path d="M35.476515936787926,-196.82839433625128 A200,200,0,0,0,28.84945964538253,-197.90833402908893 L30.86892182055931,-211.76191741112518 A214.0,214.0,0,0,1,37.95987205236308,-210.6063819397889 Z" fill="#ff7f0e" fill-opacity="0.9" />
<path d="M26.868966828687356,-198.18692848308362 A200,200,0,0,0,19.789140629299606,-199.0185667548478 L21.17438047335058,-212.94986642768714 A214.0,214.0,0,0,1,28.749794506695473,-212.06001347689948 Z" fill="#ff7f0e" fill-opacity="0.9" />
<path d="M17.797998682560387,-199.20650401755356 A200,200,0,0,0,-46.74883064487153,-194.45962777228883 L-50.02124879001254,-208.07180171634906 A214.0,214.0,0,0,1,19.043858590339614,-213.1509592987823 Z" fill="#2ca02c" fill-opacity="0.9" />
<path d="M-48.69105709076488,-193.9824243569089 A200,200,0,0,0,-112.87055974457421,-165.1067434811386 L-120.7714989266944,-176.66421552481833 A214.0,214.0,0,0,1,-52.099431087118425,-207.56119406189254 Z" fill="#2ca02c" fill-opacity="0.9" />
<path d="M-114.5159561807746,-163.96980142697896 A200,200,0,0,0,-146.62254707703332,-136.0214273143873 L-156.88612537242565,-145.54292722639443 A214.0,214.0,0,0,1,-122.53207311342882,-175.4476875268675 Z" fill="#2ca02c" fill-opacity="0.9" />
<path d="M-147.97540761379133,-134.54842526589567 A200,200,0,0,0,-191.82344329288907,-56.601825087710466 L-205.25108432339132,-60.5639528438502 A214.0,214.0,0,0,1,-158.33368614675675,-143.9668150345084 Z" fill="#d62728" fill-opacity="0.9" />
<path d="M-192.37986101793734,-54.68079255752527 A200,200,0,0,0,-199.99988684325814,-0.2127502854108501 L-213.99987892228623,-0.2276428053896096 A214.0,214.0,0,0,1,-205.84645128919297,-58.508448036552046 Z" fill="#d62728" fill-opacity="0.9" />
<path d="M-199.9920143996449,1.7872258872995057 A200,200,0,0,0,-176.1911822396129,94.6396708627387 L-188.52456499638583,101.26444782313041 A214.0,214.0,0,0,1,-213.99145540762004,1.9123316994104713 Z" fill="#d62728" fill-opacity="0.9" />
<path d="M-175.23599181848593,96.39682137597451 A200,200,0,0,0,-119.53452647828769,160.34804950360805 L-127.90194333176784,171.57241296886062 A214.0,214.0,0,0,1,-187.50251124577994,103.14459887229273 Z" fill="#d62728" fill-opacity="0.9" />
<path d="M-117.9250960312749,161.53535751040573 A200,200,0,0,0,-52.04727642707493,193.1089874048426 L-55.690585776970174,206.62661652318158 A214.0,214.0,0,0,1,-126.17985275346416,172.84283253613415 Z" fill="#d62728" fill-opacity="0.9" />
<path d="M-50.11361639556179,193.61979612570218 A200,200,0,0,0,-38.551430858888395,196.2492985432874 L-41.250031019010585,209.98674944131753 A214.0,214.0,0,0,1,-53.62156954325112,207.17318185450134 Z" fill="#9467bd" fill-opacity="0.9" />
<path d="M-36.587043026028546,196.62499404351303 A200,200,0,0,0,-32.35096594210988,197.36619518704933 L-34.61553355805757,211.1818288501428 A214.0,214.0,0,0,1,-39.14813603785055,210.38874362655895 Z" fill="#9467bd" fill-opacity="0.9" />
<path d="M-30.375719349623242,197.679831227146 A200,200,0,0,0,40.41665544518714,195.873668374861 L43.24582132635024,209.5848251611013 A214.0,214.0,0,0,1,-32.502019704096874,211.51741941304624 Z" fill="#9467bd" fill-opacity="0.9" />
<path d="M42.3733386675555,195.4597149546797 A200,200,0,0,0,48.68280701924598,193.98449500082953 L52.0906035105932,207.5634096508876 A214.0,214.0,0,0,1,45.33947237428439,209.1418950015073 Z" fill="#8c564b" fill-opacity="0.9" />
<path d="M50.620185518600195,193.48797590047425 A200,200,0,0,0,77.57808784774404,184.34109765835643 L83.00855399708612,197.2449744944414 A214.0,214.0,0,0,1,54.16359850490221,207.03213421350748 Z" fill="#8c564b" fill-opacity="0.9" />
<path d="M79.41758922889662,183.5561127314213 A200,200,0,0,0,127.99952392290722,153.6753782344755 L136.95949059751072,164.43265471088878 A214.0,214.0,0,0,1,84.97682047491938,196.40504062262082 Z" fill="#8c564b" fill-opacity="0.9" />
<path d="M129.52985216995376,152.38772062351325 A200,200,0,0,0,184.7694332144883,76.55231250325983 L197.70329353950248,81.91097437848802 A214.0,214.0,0,0,1,138.59694182185052,163.05486106715918 Z" fill="#e377c2" fill-opacity="0.9" />
<path d="M185.5257051861922,74.70082138213807 A200,200,0,0,0,199.54087923649908,13.54391056987925 L213.50874078305404,14.491984309770798 A214.0,214.0,0,0,1,198.51250454922567,79.92987887888775 Z" fill="#e377c2" fill-opacity="0.9" />
<path d="M199.66633912407065,11.547857844276008 A200,200,0,0,0,199.99000008333306,1.999966666834405 L213.9893000891664,2.1399643335128133 A214.0,214.0,0,0,1,213.64298286275562,12.356207893375329 Z" fill="#e377c2" fill-opacity="0.9" />
<path d="M193.0,-0.0 A193.0,193.0,0,0,0,190.00561737322687,-33.86540073022773 L194.9280426937768,-34.74274271805746 A198.0,198.0,0,0,1,198.0,-0.0 Z" fill="#1f77b4" fill-opacity="0.6" />
<path d="M185.0335580164859,-54.87788632737002 A193.0,193.0,0,0,0,183.58109353646833,-59.55654536618514 L188.33708041565146,-61.09946104924693 A198.0,198.0,0,0,1,189.82717350914098,-56.29959322704282 Z" fill="#1f77b4" fill-opacity="0.6" />
<path d="M172.98741032869262,-85.58245069973472 A193.0,193.0,0,0,0,53.569420949793304,-185.41660427023209 L54.9572297826895,-190.2201432409635 A198.0,198.0,0,0,1,177.46894945637897,-87.79961263496101 Z" fill="#1f77b4" fill-opacity="0.6" />
<path d="M17.175068728670773,-192.2342763769392 A193.0,193.0,0,0,0,-39.28977971402495,-188.95849599852184 L-40.3076496548028,-193.85379382231775 A198.0,198.0,0,0,1,17.62001869573478,-197.21443897737802 Z" fill="#2ca02c" fill-opacity="0.6" />
<path d="M-46.986870092588106,-187.19303950441707 A193.0,193.0,0,0,0,-105.45578214964146,-161.64182011845625 L-108.18779723123839,-165.8294320386235 A198.0,198.0,0,0,1,-48.204146519857225,-192.0426001133398 Z" fill="#2ca02c" fill-opacity="0.6" />
<path d="M-110.50789771444748,-158.2308583770347 A193.0,193.0,0,0,0,-125.20270687020688,-146.87846061411813 L-128.44630031244023,-150.68360208080512 A198.0,198.0,0,0,1,-113.37079661896685,-162.33010341270918 Z" fill="#2ca02c" fill-opacity="0.6" />
<path d="M-142.79626834730863,-129.83923038158932 A193.0,193.0,0,0,0,-184.57134115302074,-56.41294199893521 L-189.35298211553425,-57.874417180254774 A198.0,198.0,0,0,1,-146.49565353765342,-133.2029410132367 Z" fill="#d62728" fill-opacity="0.6" />
<path d="M-185.64656588230952,-52.766964818011886 A193.0,193.0,0,0,0,-191.85645431058236,-20.9785828732883 L-196.82682877458709,-21.52206947622323 A198.0,198.0,0,0,1,-190.45606240775797,-54.13398463195002 Z" fill="#d62728" fill-opacity="0.6" />
<path d="M-192.99229389565733,1.724672981244023 A193.0,193.0,0,0,0,-189.28735936121927,37.6735396008476 L-194.19117696125087,38.64953803610272 A198.0,198.0,0,0,1,-197.99209425564845,1.7693536284265106 Z" fill="#d62728" fill-opacity="0.6" />
<path d="M-169.1027321048389,93.0229326278154 A193.0,193.0,0,0,0,-118.00326565832974,152.72272029390277 L-121.06034507953,156.6792674517759 A198.0,198.0,0,0,1,-173.48363190030108,95.43285316221476 Z" fill="#d62728" fill-opacity="0.6" />
<path d="M-113.79771767018028,155.88161999754152 A193.0,193.0,0,0,0,-56.55607889361453,184.52753165904338 L-58.02126228464081,189.30803766057298 A198.0,198.0,0,0,1,-116.74584507096215,159.92000393530168 Z" fill="#d62728" fill-opacity="0.6" />
<path d="M-48.359639821717124,186.84310326130262 A193.0,193.0,0,0,0,-44.680067342506284,187.75700142010444 L-45.837582040498674,192.62117244135067 A198.0,198.0,0,0,1,-49.61248023160617,191.68359816444516 Z" fill="#9467bd" fill-opacity="0.6" />
<path d="M-35.30649652011754,189.74311925199007 A193.0,193.0,0,0,0,-34.32720029213335,189.92272986692183 L-35.21650599918343,194.84300784274882 A198.0,198.0,0,0,1,-36.22117259576826,194.6587441030779 Z" fill="#9467bd" fill-opacity="0.6" />
<path d="M-29.31256917238643,190.76103713419587 A193.0,193.0,0,0,0,34.43964229552491,189.9023723879096 L35.33186100784421,194.82212296790726 A198.0,198.0,0,0,1,-30.07196215612701,195.7030329148745 Z" fill="#9467bd" fill-opacity="0.6" />
<path d="M48.84847902544919,186.71589674395764 A193.0,193.0,0,0,0,53.55622336917923,185.42041672488654 L54.943690295841904,190.22405446387324 A198.0,198.0,0,0,1,50.11398366341419,191.5530961414695 Z" fill="#8c564b" fill-opacity="0.6" />
<path d="M76.63797360588524,177.13164878582154 A193.0,193.0,0,0,0,114.36986589581386,155.462322686153 L117.33281578948778,159.48984399926576 A198.0,198.0,0,0,1,78.62341333660764,181.72055160410707 Z" fill="#8c564b" fill-opacity="0.6" />
<path d="M124.99630734400539,147.0541504016903 A193.0,193.0,0,0,0,175.48459087973688,80.33777669173679 L180.0308238040824,82.41906624333619 A198.0,198.0,0,0,1,128.23455364825423,150.8638434172781 Z" fill="#e377c2" fill-opacity="0.6" />
<path d="M179.03230550467546,72.08629263376324 A193.0,193.0,0,0,0,191.7492346004199,21.936978601282515 L196.7168313517261,22.505294109087764 A198.0,198.0,0,0,1,183.6704481343303,73.95381316831669 Z" fill="#e377c2" fill-opacity="0.6" />
<path d="M194.7893553998952,-35.51206869352059 A198.0,198.0,0,0,0,190.38066877861172,-54.398538173452195 C76.15226751144469,-21.75941526938088,21.55756828115064,-76.20965325864913,53.8939207028766,-190.5241331466228 A198.0,198.0,0,0,0,53.509000234259666,-190.63259661959702 C21.40360009370387,-76.2530386478388,77.91574215995809,-14.204827477408237,194.7893553998952,-35.51206869352059 Z" fill="#1f77b4" fill-opacity="0.6" />
<path d="M194.7897776040795,-35.509752758267005 A198.0,198.0,0,0,0,194.7893553998952,-35.51206869352059 C77.91574215995809,-14.204827477408237,-44.11199683314492,-65.7782010653424,-110.2799920828623,-164.445502663356 A198.0,198.0,0,0,0,-110.52424776057377,-164.28143734749614 C-44.209699104229514,-65.71257493899846,77.9159110416318,-14.203901103306803,194.7897776040795,-35.509752758267005 Z" fill="#1f77b4" fill-opacity="0.6" />
<path d="M194.84521163560666,-35.204310853582335 A198.0,198.0,0,0,0,194.7897776040795,-35.509752758267005 C77.9159110416318,-14.203901103306803,-47.50907090832603,63.36819534614861,-118.77267727081507,158.4204883653715 A198.0,198.0,0,0,0,-118.76851524865312,158.42360867506602 C-47.50740609946125,63.36944347002641,77.93808465424267,-14.081724341432935,194.84521163560666,-35.204310853582335 Z" fill="#d62728" fill-opacity="0.6" />
<path d="M194.8457973470242,-35.20106896391618 A198.0,198.0,0,0,0,194.84521163560666,-35.204310853582335 C77.93808465424267,-14.081724341432935,72.94597732962812,30.846788996999017,182.3649433240703,77.11697249249754 A198.0,198.0,0,0,0,182.58882394488896,76.58538614136735 C73.03552957795559,30.63415445654694,77.93831893880969,-14.080427585566472,194.8457973470242,-35.20106896391618 Z" fill="#1f77b4" fill-opacity="0.6" />
<path d="M194.9280426937768,-34.74274271805746 A198.0,198.0,0,0,0,194.8457973470242,-35.20106896391618 C77.93831893880969,-14.080427585566472,79.1960368222627,0.79230779802607,197.99009205565673,1.9807694950651749 A198.0,198.0,0,0,0,197.9901000824997,1.979967000166061 C79.19604003299989,0.7919868000664244,77.97121707751073,-13.897097087222983,194.9280426937768,-34.74274271805746 Z" fill="#e377c2" fill-opacity="0.6" />
<path d="M186.61973666730503,-66.15945802548366 A198.0,198.0,0,0,0,178.3380575760053,-86.02056277435885 C71.33522303040212,-34.40822510974354,21.982891913075804,-76.0880572963854,54.9572297826895,-190.2201432409635 A198.0,198.0,0,0,0,53.8939207028766,-190.5241331466228 C21.55756828115064,-76.20965325864913,74.64789466692201,-26.463783210193466,186.61973666730503,-66.15945802548366 Z" fill="#1f77b4" fill-opacity="0.6" />
<path d="M186.62562023895302,-66.14285955737088 A198.0,198.0,0,0,0,186.61973666730503,-66.15945802548366 C74.64789466692201,-26.463783210193466,8.89298257138592,-78.6991414247006,22.232456428464797,-196.7478535617515 A198.0,198.0,0,0,0,21.85537497517717,-196.79009778109872 C8.74214999007087,-78.71603911243949,74.6502480955812,-26.457143822948353,186.62562023895302,-66.14285955737088 Z" fill="#1f77b4" fill-opacity="0.6" />
<path d="M187.04774941824704,-64.93950598494466 A198.0,198.0,0,0,0,186.62562023895302,-66.14285955737088 C74.6502480955812,-26.457143822948353,-75.89305936652704,-22.646932242332596,-189.7326484163176,-56.617330605831484 A198.0,198.0,0,0,0,-189.7427798035165,-56.58336780745957 C-75.8971119214066,-22.633347122983828,74.81909976729882,-25.975802393977865,187.04774941824704,-64.93950598494466 Z" fill="#d62728" fill-opacity="0.6" />
<path d="M187.14594695600385,-64.65597062870984 A198.0,198.0,0,0,0,187.04774941824704,-64.93950598494466 C74.81909976729882,-25.975802393977865,-78.85303645017444,-7.4053117819212195,-197.1325911254361,-18.513279454803047 A198.0,198.0,0,0,0,-197.13307382495742,-18.508138867100623 C-78.85322952998297,-7.403255546840249,74.85837878240154,-25.862388251483935,187.14594695600385,-64.65597062870984 Z" fill="#d62728" fill-opacity="0.6" />
<path d="M188.01035727036827,-62.097548736391204 A198.0,198.0,0,0,0,187.14594695600385,-64.65597062870984 C74.85837878240154,-25.862388251483935,-71.8738763880172,33.26839180002579,-179.684690970043,83.17097950006448 A198.0,198.0,0,0,0,-179.6515251722052,83.24259428502049 C-71.86061006888208,33.2970377140082,75.20414290814732,-24.83901949455648,188.01035727036827,-62.097548736391204 Z" fill="#d62728" fill-opacity="0.6" />
<path d="M188.22100134908206,-61.45611972089395 A198.0,198.0,0,0,0,188.01035727036827,-62.097548736391204 C75.20414290814732,-24.83901949455648,-47.5152823658572,63.363537951197614,-118.788205914643,158.40884487799403 A198.0,198.0,0,0,0,-118.77267727081507,158.4204883653715 C-47.50907090832603,63.36819534614861,75.28840053963283,-24.58244788835758,188.22100134908206,-61.45611972089395 Z" fill="#d62728" fill-opacity="0.6" />
<path d="M188.24427120878707,-61.38480558796795 A198.0,198.0,0,0,0,188.22100134908206,-61.45611972089395 C75.28840053963283,-24.58244788835758,-15.34365647755497,77.69949939284542,-38.359141193887424,194.24874848211354 A198.0,198.0,0,0,0,-38.35847767455748,194.24887950897033 C-15.343391069822992,77.69955180358814,75.29770848351482,-24.553922235187184,188.24427120878707,-61.38480558796795 Z" fill="#9467bd" fill-opacity="0.6" />
<path d="M188.26751404863074,-61.31348264410221 A198.0,198.0,0,0,0,188.24427120878707,-61.38480558796795 C75.29770848351482,-24.553922235187184,15.999491523291056,77.56710817734626,39.99872880822764,193.91777044336564 A198.0,198.0,0,0,0,40.000309306604095,193.917444432872 C16.00012372264164,77.5669777731488,75.3070056194523,-24.525393057640883,188.26751404863074,-61.31348264410221 Z" fill="#9467bd" fill-opacity="0.6" />
<path d="M188.3139186553933,-61.17081036450237 A198.0,198.0,0,0,0,188.26751404863074,-61.31348264410221 C75.3070056194523,-24.525393057640883,50.68689356827244,60.856214312086664,126.7172339206811,152.14053578021665 A198.0,198.0,0,0,0,126.71952868367813,152.13862445213076 C50.68781147347126,60.855449780852304,75.32556746215732,-24.46832414580095,188.3139186553933,-61.17081036450237 Z" fill="#8c564b" fill-opacity="0.6" />
<path d="M188.33708041565146,-61.09946104924693 A198.0,198.0,0,0,0,188.3139186553933,-61.17081036450237 C75.32556746215732,-24.46832414580095,72.94562626985332,30.84761916418971,182.3640656746333,77.11904791047426 A198.0,198.0,0,0,0,182.3649433240703,77.11697249249754 C72.94597732962812,30.846788996999017,75.33483216626058,-24.439784419698775,188.33708041565146,-61.09946104924693 Z" fill="#e377c2" fill-opacity="0.6" />
<path d="M47.35704473859469,-192.25324526162552 A198.0,198.0,0,0,0,45.79853438549669,-192.63046033309604 C18.319413754198674,-77.05218413323843,17.54798879177812,-77.23152264045835,43.8699719794453,-193.07880660114586 A198.0,198.0,0,0,0,37.32133317336975,-194.45081149268145 C14.928533269347902,-77.78032459707259,18.942817895437877,-76.90129810465021,47.35704473859469,-192.25324526162552 Z" fill="#1f77b4" fill-opacity="0.6" />
<path d="M48.910786956019514,-191.8638447424185 A198.0,198.0,0,0,0,47.35704473859469,-192.25324526162552 C18.942817895437877,-76.90129810465021,14.04870031096802,-77.94404415715552,35.12175077742005,-194.86011039288877 A198.0,198.0,0,0,0,28.621872159193607,-195.9203624795105 C11.448748863677444,-78.3681449918042,19.564314782407806,-76.7455378969674,48.910786956019514,-191.8638447424185 Z" fill="#1f77b4" fill-opacity="0.6" />
<path d="M49.92692251428652,-191.6019373812604 A198.0,198.0,0,0,0,48.910786956019514,-191.8638447424185 C19.564314782407806,-76.7455378969674,10.640110864160194,-78.48202367930111,26.600277160400484,-196.20505919825277 A198.0,198.0,0,0,0,22.232456428464797,-196.7478535617515 C8.89298257138592,-78.6991414247006,19.970769005714608,-76.64077495250416,49.92692251428652,-191.6019373812604 Z" fill="#1f77b4" fill-opacity="0.6" />
<path d="M50.03264270445981,-191.5743580545368 A198.0,198.0,0,0,0,49.92692251428652,-191.6019373812604 C19.970769005714608,-76.64077495250416,-16.12305986192112,-77.5415175289271,-40.3076496548028,-193.85379382231775 A198.0,198.0,0,0,0,-44.53727011107762,-192.9259743296711 C-17.814908044431046,-77.17038973186845,20.013057081783927,-76.62974322181472,50.03264270445981,-191.5743580545368 Z" fill="#1f77b4" fill-opacity="0.6" />
<path d="M50.070149965360876,-191.56455852387276 A198.0,198.0,0,0,0,50.03264270445981,-191.5743580545368 C20.013057081783927,-76.62974322181472,-43.572898807490446,-66.13654428160122,-108.9322470187261,-165.34136070400302 A198.0,198.0,0,0,0,-110.2799920828623,-164.445502663356 C-44.11199683314492,-65.7782010653424,20.028059986144353,-76.62582340954911,50.070149965360876,-191.56455852387276 Z" fill="#1f77b4" fill-opacity="0.6" />
<path d="M50.821175543187096,-191.3666849700035 A198.0,198.0,0,0,0,50.070149965360876,-191.56455852387276 C20.028059986144353,-76.62582340954911,-51.82336545136246,-59.891391645999775,-129.55841362840616,-149.72847911499943 A198.0,198.0,0,0,0,-144.95586729586327,-134.87696814691557 C-57.982346918345314,-53.95078725876623,20.32847021727484,-76.5466739880014,50.821175543187096,-191.3666849700035 Z" fill="#1f77b4" fill-opacity="0.6" />
<path d="M50.84297452099513,-191.3608944948195 A198.0,198.0,0,0,0,50.821175543187096,-191.3666849700035 C20.32847021727484,-76.5466739880014,-75.75204197842734,-23.11424098036929,-189.38010494606834,-57.78560245092322 A198.0,198.0,0,0,0,-189.7326484163176,-56.617330605831484 C-75.89305936652704,-22.646932242332596,20.33718980839805,-76.5443577979278,50.84297452099513,-191.3608944948195 Z" fill="#1f77b4" fill-opacity="0.6" />
<path d="M50.92563318695258,-191.33891367024106 A198.0,198.0,0,0,0,50.84297452099513,-191.3608944948195 C20.33718980839805,-76.5443577979278,-78.73762680554225,-8.545532460365278,-196.8440670138556,-21.363831150913196 A198.0,198.0,0,0,0,-197.1325911254361,-18.513279454803047 C-78.85303645017444,-7.4053117819212195,20.370253274781035,-76.53556546809642,50.92563318695258,-191.33891367024106 Z" fill="#1f77b4" fill-opacity="0.6" />
<path d="M50.95085976284388,-191.3321977332279 A198.0,198.0,0,0,0,50.92563318695258,-191.33891367024106 C20.370253274781035,-76.53556546809642,-72.12139801233637,32.728335563333566,-180.3034950308409,81.82083890833391 A198.0,198.0,0,0,0,-179.684690970043,83.17097950006448 C-71.8738763880172,33.26839180002579,20.380343905137554,-76.53287909329116,50.95085976284388,-191.3321977332279 Z" fill="#1f77b4" fill-opacity="0.6" />
<path d="M51.33719846651017,-191.22889962976345 A198.0,198.0,0,0,0,50.95085976284388,-191.3321977332279 C20.380343905137554,-76.53287909329116,-48.189585054977094,62.85223856179769,-120.47396263744272,157.1305964044942 A198.0,198.0,0,0,0,-118.788205914643,158.40884487799403 C-47.5152823658572,63.363537951197614,20.53487938660407,-76.49155985190538,51.33719846651017,-191.22889962976345 Z" fill="#1f77b4" fill-opacity="0.6" />
<path d="M51.4035673156296,-191.21106993902717 A198.0,198.0,0,0,0,51.33719846651017,-191.22889962976345 C20.53487938660407,-76.49155985190538,-21.798955695120668,76.14095829842285,-54.49738923780167,190.3523957460571 A198.0,198.0,0,0,0,-51.628435178042196,191.15047653894743 C-20.65137407121688,76.46019061557898,20.56142692625184,-76.48442797561087,51.4035673156296,-191.21106993902717 Z" fill="#1f77b4" fill-opacity="0.6" />
<path d="M52.94666593215358,-190.78954522370697 A198.0,198.0,0,0,0,51.4035673156296,-191.21106993902717 C20.56142692625184,-76.48442797561087,-16.917650074508174,77.37204350381664,-42.294125186270435,193.43010875954158 A198.0,198.0,0,0,0,-38.359141193887424,194.24874848211354 C-15.34365647755497,77.69949939284542,21.178666372861432,-76.31581808948279,52.94666593215358,-190.78954522370697 Z" fill="#1f77b4" fill-opacity="0.6" />
<path d="M52.96182871613959,-190.7853366981915 A198.0,198.0,0,0,0,52.94666593215358,-190.78954522370697 C21.178666372861432,-76.31581808948279,-13.080319136402943,78.11238859035006,-32.70079784100736,195.28097147587516 A198.0,198.0,0,0,0,-32.532885944885095,195.3090149790764 C-13.013154377954038,78.12360599163057,21.18473148645584,-76.31413467927659,52.96182871613959,-190.7853366981915 Z" fill="#1f77b4" fill-opacity="0.6" />
<path d="M53.07048553960682,-190.7551403359563 A198.0,198.0,0,0,0,52.96182871613959,-190.7853366981915 C21.18473148645584,-76.31413467927659,14.144877143872549,77.92664788494852,35.36219285968137,194.8166197123713 A198.0,198.0,0,0,0,39.99872880822764,193.91777044336564 C15.999491523291056,77.56710817734626,21.22819421584273,-76.30205613438252,53.07048553960682,-190.7551403359563 Z" fill="#1f77b4" fill-opacity="0.6" />
<path d="M53.12161220728798,-190.74090886985547 A198.0,198.0,0,0,0,53.07048553960682,-190.7551403359563 C21.22819421584273,-76.30205613438252,19.194720762376317,76.83880982195392,47.986801905940794,192.09702455488477 A198.0,198.0,0,0,0,48.19597894905352,192.04465005082122 C19.27839157962141,76.8178600203285,21.248644882915194,-76.29636354794219,53.12161220728798,-190.74090886985547 Z" fill="#1f77b4" fill-opacity="0.6" />
<path d="M53.23529590770158,-190.70921128676363 A198.0,198.0,0,0,0,53.12161220728798,-190.74090886985547 C21.248644882915194,-76.29636354794219,28.11658466138149,74.04118898950345,70.29146165345372,185.10297247375863 A198.0,198.0,0,0,0,72.23282128863828,184.35406024463808 C28.893128515455313,73.74162409785524,21.29411836308063,-76.28368451470546,53.23529590770158,-190.70921128676363 Z" fill="#1f77b4" fill-opacity="0.6" />
<path d="M53.33318860093351,-190.68185806116233 A198.0,198.0,0,0,0,53.23529590770158,-190.70921128676363 C21.29411836308063,-76.28368451470546,49.46632625934497,61.852425711559924,123.66581564836241,154.6310642788998 A198.0,198.0,0,0,0,126.7172339206811,152.14053578021665 C50.68689356827244,60.856214312086664,21.333275440373406,-76.27274322446493,53.33318860093351,-190.68185806116233 Z" fill="#1f77b4" fill-opacity="0.6" />
<path d="M53.409177237054756,-190.66058792225746 A198.0,198.0,0,0,0,53.33318860093351,-190.68185806116233 C21.333275440373406,-76.27274322446493,72.20696783347181,32.539111793286075,180.5174195836795,81.34777948321518 A198.0,198.0,0,0,0,182.3640656746333,77.11904791047426 C72.94562626985332,30.84761916418971,21.363670894821905,-76.26423516890299,53.409177237054756,-190.66058792225746 Z" fill="#1f77b4" fill-opacity="0.6" />
<path d="M53.47257518580225,-190.64281707685376 A198.0,198.0,0,0,0,53.409177237054756,-190.66058792225746 C21.363670894821905,-76.26423516890299,78.9433408101161,6.3709451212405925,197.35835202529023,15.927362803101481 A198.0,198.0,0,0,0,197.54547044413408,13.408471464180458 C79.01818817765364,5.363388585672183,21.3890300743209,-76.25712683074151,53.47257518580225,-190.64281707685376 Z" fill="#1f77b4" fill-opacity="0.6" />
<path d="M53.509000234259666,-190.63259661959702 A198.0,198.0,0,0,0,53.47257518580225,-190.64281707685376 C21.3890300743209,-76.25712683074151,79.1951175039875,0.8794108991892755,197.98779375996875,2.1985272479731885 A198.0,198.0,0,0,0,197.99009205565673,1.9807694950651749 C79.1960368222627,0.79230779802607,21.40360009370387,-76.2530386478388,53.509000234259666,-190.63259661959702 Z" fill="#1f77b4" fill-opacity="0.6" />
<path d="M37.10467715324666,-194.49226959792858 A198.0,198.0,0,0,0,37.068563331921396,-194.49915581438222 C14.82742533276856,-77.79966232575289,-43.57167025573853,-66.13735367494824,-108.92917563934633,-165.34338418737062 A198.0,198.0,0,0,0,-108.9322470187261,-165.34136070400302 C-43.572898807490446,-66.13654428160122,14.841870861298666,-77.79690783917144,37.10467715324666,-194.49226959792858 Z" fill="#2ca02c" fill-opacity="0.6" />
<path d="M37.14078969532172,-194.48537667600584 A198.0,198.0,0,0,0,37.10467715324666,-194.49226959792858 C14.841870861298666,-77.79690783917144,-75.75148548384442,-23.116064695161874,-189.37871370961105,-57.79016173790468 A198.0,198.0,0,0,0,-189.38010494606834,-57.78560245092322 C-75.75204197842734,-23.11424098036929,14.85631587812869,-77.79415067040235,37.14078969532172,-194.48537667600584 Z" fill="#d62728" fill-opacity="0.6" />
<path d="M37.17690095690159,-194.4784770488517 A198.0,198.0,0,0,0,37.14078969532172,-194.48537667600584 C14.85631587812869,-77.79415067040235,-48.19115027547578,62.851038457025595,-120.47787568868944,157.127596142564 A198.0,198.0,0,0,0,-120.47396263744272,157.1305964044942 C-48.189585054977094,62.85223856179769,14.870760382760636,-77.79139081954068,37.17690095690159,-194.4784770488517 Z" fill="#d62728" fill-opacity="0.6" />
<path d="M37.2852270462202,-194.45773793838035 A198.0,198.0,0,0,0,37.17690095690159,-194.4784770488517 C14.870760382760636,-77.79139081954068,14.140520525141326,77.9274385520149,35.351301312853316,194.81859638003723 A198.0,198.0,0,0,0,35.36219285968137,194.8166197123713 C14.144877143872549,77.92664788494852,14.91409081848808,-77.78309517535214,37.2852270462202,-194.45773793838035 Z" fill="#9467bd" fill-opacity="0.6" />
<path d="M37.32133317336975,-194.45081149268145 A198.0,198.0,0,0,0,37.2852270462202,-194.45773793838035 C14.91409081848808,-77.78309517535214,78.94323204393493,6.372292715926202,197.35808010983732,15.930731789815503 A198.0,198.0,0,0,0,197.35835202529023,15.927362803101481 C78.9433408101161,6.3709451212405925,14.928533269347902,-77.78032459707259,37.32133317336975,-194.45081149268145 Z" fill="#e377c2" fill-opacity="0.6" />
<path d="M28.59141894944566,-195.9248089509271 A198.0,198.0,0,0,0,28.560965048928704,-195.92925068879805 C11.424386019571482,-78.37170027551923,-48.19247999684333,62.85001886836516,-120.48119999210832,157.1250471709129 A198.0,198.0,0,0,0,-120.47787568868944,157.127596142564 C-48.19115027547578,62.851038457025595,11.436567579778265,-78.36992358037084,28.59141894944566,-195.9248089509271 Z" fill="#d62728" fill-opacity="0.6" />
<path d="M28.621872159193607,-195.9203624795105 A198.0,198.0,0,0,0,28.59141894944566,-195.9248089509271 C11.436567579778265,-78.36992358037084,14.139286784372594,77.92766241347977,35.34821696093148,194.81915603369941 A198.0,198.0,0,0,0,35.351301312853316,194.81859638003723 C14.140520525141326,77.9274385520149,11.448748863677444,-78.3681449918042,28.621872159193607,-195.9203624795105 Z" fill="#9467bd" fill-opacity="0.6" />
<path d="M19.629006708390982,-197.02462306940708 A198.0,198.0,0,0,0,19.59124922300661,-197.02838108729932 C7.836499689202644,-78.81135243491974,-43.570408839365946,-66.13818468608359,-108.92602209841486,-165.34546171520898 A198.0,198.0,0,0,0,-108.92917563934633,-165.34338418737062 C-43.57167025573853,-66.13735367494824,7.851602683356393,-78.80984922776284,19.629006708390982,-197.02462306940708 Z" fill="#2ca02c" fill-opacity="0.6" />
<path d="M20.30851683353783,-196.95574158683954 A198.0,198.0,0,0,0,19.629006708390982,-197.02462306940708 C7.851602683356393,-78.80984922776284,-75.7411928462137,-23.14976687210191,-189.35298211553425,-57.874417180254774 A198.0,198.0,0,0,0,-189.37871370961105,-57.79016173790468 C-75.75148548384442,-23.116064695161874,8.123406733415132,-78.78229663473581,20.30851683353783,-196.95574158683954 Z" fill="#d62728" fill-opacity="0.6" />
<path d="M20.34626038536608,-196.95184611556928 A198.0,198.0,0,0,0,20.30851683353783,-196.95574158683954 C8.123406733415132,-78.78229663473581,-72.12224868717213,32.7264609193493,-180.30562171793034,81.81615229837325 A198.0,198.0,0,0,0,-180.3034950308409,81.82083890833391 C-72.12139801233637,32.728335563333566,8.138504154146432,-78.78073844622772,20.34626038536608,-196.95184611556928 Z" fill="#d62728" fill-opacity="0.6" />
<path d="M21.817662392535766,-196.79428245689795 A198.0,198.0,0,0,0,20.34626038536608,-196.95184611556928 C8.138504154146432,-78.78073844622772,-48.2551301910103,62.80192998824674,-120.63782547752575,157.00482497061685 A198.0,198.0,0,0,0,-120.48119999210832,157.1250471709129 C-48.19247999684333,62.85001886836516,8.727064957014306,-78.71771298275918,21.817662392535766,-196.79428245689795 Z" fill="#d62728" fill-opacity="0.6" />
<path d="M21.85537497517717,-196.79009778109872 A198.0,198.0,0,0,0,21.817662392535766,-196.79428245689795 C8.727064957014306,-78.71771298275918,14.137795734649709,77.92793293656212,35.34448933662427,194.81983234140526 A198.0,198.0,0,0,0,35.34821696093148,194.81915603369941 C14.139286784372594,77.92766241347977,8.74214999007087,-78.71603911243949,21.85537497517717,-196.79009778109872 Z" fill="#9467bd" fill-opacity="0.6" />
<path d="M-45.11903985070754,-192.79074729600035 A198.0,198.0,0,0,0,-46.28134233842282,-192.51503149456593 C-18.512536935369127,-77.00601259782638,-43.27511889249536,-66.33177281544941,-108.18779723123839,-165.8294320386235 A198.0,198.0,0,0,0,-108.92602209841486,-165.34546171520898 C-43.570408839365946,-66.13818468608359,-18.047615940283016,-77.11629891840015,-45.11903985070754,-192.79074729600035 Z" fill="#2ca02c" fill-opacity="0.6" />
<path d="M-44.53727011107762,-192.9259743296711 A198.0,198.0,0,0,0,-45.11903985070754,-192.79074729600035 C-18.047615940283016,-77.11629891840015,-51.73462287318947,-59.96806480260024,-129.33655718297368,-149.9201620065006 A198.0,198.0,0,0,0,-129.55841362840616,-149.72847911499943 C-51.82336545136246,-59.891391645999775,-17.814908044431046,-77.17038973186845,-44.53727011107762,-192.9259743296711 Z" fill="#2ca02c" fill-opacity="0.6" />
<path d="M-111.49882426363364,-163.62155172173178 A198.0,198.0,0,0,0,-111.74185414712846,-163.45567604632723 C-44.69674165885139,-65.3822704185309,-51.37852012497609,-60.27344083232205,-128.44630031244023,-150.68360208080512 A198.0,198.0,0,0,0,-129.33655718297368,-149.9201620065006 C-51.73462287318947,-59.96806480260024,-44.599529705453456,-65.44862068869271,-111.49882426363364,-163.62155172173178 Z" fill="#2ca02c" fill-opacity="0.6" />
<path d="M-111.37721695040901,-163.70435407887453 A198.0,198.0,0,0,0,-111.49882426363364,-163.62155172173178 C-44.599529705453456,-65.44862068869271,-48.255755781650784,62.80144929809882,-120.63938945412696,157.00362324524704 A198.0,198.0,0,0,0,-120.63782547752575,157.00482497061685 C-48.2551301910103,62.80192998824674,-44.55088678016361,-65.48174163154981,-111.37721695040901,-163.70435407887453 Z" fill="#d62728" fill-opacity="0.6" />
<path d="M-110.52424776057377,-164.28143734749614 A198.0,198.0,0,0,0,-111.37721695040901,-163.70435407887453 C-44.55088678016361,-65.48174163154981,-16.919342071378733,77.37167352378825,-42.298355178446826,193.4291838094706 A198.0,198.0,0,0,0,-42.294125186270435,193.43010875954158 C-16.917650074508174,77.37204350381664,-44.209699104229514,-65.71257493899846,-110.52424776057377,-164.28143734749614 Z" fill="#9467bd" fill-opacity="0.6" />
<path d="M-145.15543101003598,-134.66217304161808 A198.0,198.0,0,0,0,-145.156321606263,-134.66121304124343 C-58.0625286425052,-53.86448521649737,-78.73073150983484,-8.608827790489292,-196.82682877458709,-21.52206947622323 A198.0,198.0,0,0,0,-196.8440670138556,-21.363831150913196 C-78.73762680554225,-8.545532460365278,-58.0621724040144,-53.864869216647236,-145.15543101003598,-134.66217304161808 Z" fill="#2ca02c" fill-opacity="0.6" />
<path d="M-144.95586729586327,-134.87696814691557 A198.0,198.0,0,0,0,-145.15543101003598,-134.66217304161808 C-58.0621724040144,-53.864869216647236,14.136042103509494,77.92825106242157,35.34010525877373,194.8206276560539 A198.0,198.0,0,0,0,35.34448933662427,194.81983234140526 C14.137795734649709,77.92793293656212,-57.982346918345314,-53.95078725876623,-144.95586729586327,-134.87696814691557 Z" fill="#9467bd" fill-opacity="0.6" />
<path d="M-189.83599296863622,-56.26984781934192 A198.0,198.0,0,0,0,-189.90520885996017,-56.03580683683336 C-75.96208354398406,-22.414322734733346,-77.65337700383654,15.575398547068708,-194.13344250959133,38.93849636767177 A198.0,198.0,0,0,0,-180.30562171793034,81.81615229837325 C-72.12224868717213,32.7264609193493,-75.9343971874545,-22.50793912773677,-189.83599296863622,-56.26984781934192 Z" fill="#d62728" fill-opacity="0.6" />
<path d="M-189.76648864310238,-56.50380330621383 A198.0,198.0,0,0,0,-189.83599296863622,-56.26984781934192 C-75.9343971874545,-22.50793912773677,-48.25655653068344,62.80083400561615,-120.64139132670859,157.00208501404038 A198.0,198.0,0,0,0,-120.63938945412696,157.00362324524704 C-48.255755781650784,62.80144929809882,-75.90659545724095,-22.601521322485535,-189.76648864310238,-56.50380330621383 Z" fill="#d62728" fill-opacity="0.6" />
<path d="M-189.7575081196708,-56.533955391543856 A198.0,198.0,0,0,0,-189.76648864310238,-56.50380330621383 C-75.90659545724095,-22.601521322485535,-22.76614534321032,75.85738346536759,-56.91536335802579,189.64345866341895 A198.0,198.0,0,0,0,-54.49738923780167,190.3523957460571 C-21.798955695120668,76.14095829842285,-75.90300324786833,-22.613582156617543,-189.7575081196708,-56.533955391543856 Z" fill="#d62728" fill-opacity="0.6" />
<path d="M-189.756937539532,-56.53587052144991 A198.0,198.0,0,0,0,-189.7575081196708,-56.533955391543856 C-75.90300324786833,-22.613582156617543,-16.94467355819906,77.36612978562435,-42.36168389549765,193.41532446406086 A198.0,198.0,0,0,0,-42.298355178446826,193.4291838094706 C-16.919342071378733,77.37167352378825,-75.90277501581281,-22.614348208579965,-189.756937539532,-56.53587052144991 Z" fill="#d62728" fill-opacity="0.6" />
<path d="M-189.74842696782645,-56.56442754271836 A198.0,198.0,0,0,0,-189.756937539532,-56.53587052144991 C-75.90277501581281,-22.614348208579965,-13.315319318780618,78.07267301328237,-33.288298296951545,195.1816825332059 A198.0,198.0,0,0,0,-32.70079784100736,195.28097147587516 C-13.080319136402943,78.11238859035006,-75.89937078713058,-22.625771017087345,-189.74842696782645,-56.56442754271836 Z" fill="#d62728" fill-opacity="0.6" />
<path d="M-189.74637615974774,-56.571306633694746 A198.0,198.0,0,0,0,-189.74842696782645,-56.56442754271836 C-75.89937078713058,-22.625771017087345,19.17379949699953,76.84403303346892,47.93449874249882,192.11008258367227 A198.0,198.0,0,0,0,47.986801905940794,192.09702455488477 C19.194720762376317,76.83880982195392,-75.8985504638991,-22.6285226534779,-189.74637615974774,-56.571306633694746 Z" fill="#d62728" fill-opacity="0.6" />
<path d="M-189.74502471579527,-56.575839327421775 A198.0,198.0,0,0,0,-189.74637615974774,-56.571306633694746 C-75.8985504638991,-22.6285226534779,28.058938311291918,74.06305408800743,70.14734577822979,185.1576352200186 A198.0,198.0,0,0,0,70.29146165345372,185.10297247375863 C28.11658466138149,74.04118898950345,-75.8980098863181,-22.63033573096871,-189.74502471579527,-56.575839327421775 Z" fill="#d62728" fill-opacity="0.6" />
<path d="M-189.7427798035165,-56.58336780745957 A198.0,198.0,0,0,0,-189.74502471579527,-56.575839327421775 C-75.8980098863181,-22.63033573096871,49.29035018564659,61.99275262945121,123.22587546411647,154.98188157362802 A198.0,198.0,0,0,0,123.66581564836241,154.6310642788998 C49.46632625934497,61.852425711559924,-75.8971119214066,-22.633347122983828,-189.7427798035165,-56.58336780745957 Z" fill="#d62728" fill-opacity="0.6" />
<path d="M-197.22178242221617,-17.537632058063874 A198.0,198.0,0,0,0,-197.99988797482555,-0.21062278255674158 C-79.19995518993022,-0.08424911302269664,-77.67647078450035,15.459815214441088,-194.19117696125087,38.64953803610272 A198.0,198.0,0,0,0,-194.13344250959133,38.93849636767177 C-77.65337700383654,15.575398547068708,-78.88871296888647,-7.01505282322555,-197.22178242221617,-17.537632058063874 Z" fill="#d62728" fill-opacity="0.6" />
<path d="M-197.14969583602746,-18.330232725250873 A198.0,198.0,0,0,0,-197.22178242221617,-17.537632058063874 C-78.88871296888647,-7.01505282322555,-22.77008963189016,75.85619960264084,-56.92522407972539,189.64049900660208 A198.0,198.0,0,0,0,-56.91536335802579,189.64345866341895 C-22.76614534321032,75.85738346536759,-78.859878334411,-7.33209309010035,-197.14969583602746,-18.330232725250873 Z" fill="#d62728" fill-opacity="0.6" />
<path d="M-197.1348962429614,-18.488717729384014 A198.0,198.0,0,0,0,-197.14969583602746,-18.330232725250873 C-78.859878334411,-7.33209309010035,14.135258878300059,77.9283931339755,35.338147195750146,194.82098283493875 A198.0,198.0,0,0,0,35.34010525877373,194.8206276560539 C14.136042103509494,77.92825106242157,-78.85395849718456,-7.395487091753606,-197.1348962429614,-18.488717729384014 Z" fill="#9467bd" fill-opacity="0.6" />
<path d="M-197.13352843428513,-18.50329611309551 A198.0,198.0,0,0,0,-197.1348962429614,-18.488717729384014 C-78.85395849718456,-7.395487091753606,27.77045220651292,74.17170608962546,69.4261305162823,185.42926522406364 A198.0,198.0,0,0,0,70.14734577822979,185.1576352200186 C28.058938311291918,74.06305408800743,-78.85341137371405,-7.4013184452382035,-197.13352843428513,-18.50329611309551 Z" fill="#d62728" fill-opacity="0.6" />
<path d="M-197.13307382495742,-18.508138867100623 A198.0,198.0,0,0,0,-197.13352843428513,-18.50329611309551 C-78.85341137371405,-7.4013184452382035,49.11397603222231,62.13257888021624,122.78494008055577,155.3314472005406 A198.0,198.0,0,0,0,123.22587546411647,154.98188157362802 C49.29035018564659,61.99275262945121,-78.85322952998297,-7.403255546840249,-197.13307382495742,-18.508138867100623 Z" fill="#d62728" fill-opacity="0.6" />
<path d="M-178.5964176937362,85.48286136392788 A198.0,198.0,0,0,0,-174.4292704172168,93.69327415411131 C-69.77170816688673,37.477309661644526,-48.424138031812,62.67170698071036,-121.06034507953,156.6792674517759 A198.0,198.0,0,0,0,-120.64139132670859,157.00208501404038 C-48.25655653068344,62.80083400561615,-71.43856707749448,34.19314454557115,-178.5964176937362,85.48286136392788 Z" fill="#d62728" fill-opacity="0.6" />
<path d="M-178.72445792430366,85.21483520880506 A198.0,198.0,0,0,0,-178.5964176937362,85.48286136392788 C-71.43856707749448,34.19314454557115,-23.033231171488964,75.77671318948025,-57.58307792872241,189.4417829737006 A198.0,198.0,0,0,0,-56.92522407972539,189.64049900660208 C-22.77008963189016,75.85619960264084,-71.48978316972146,34.08593408352203,-178.72445792430366,85.21483520880506 Z" fill="#d62728" fill-opacity="0.6" />
<path d="M-178.76332698064,85.13326568864132 A198.0,198.0,0,0,0,-178.72445792430366,85.21483520880506 C-71.48978316972146,34.08593408352203,-18.032173202052004,77.11991136931628,-45.080433005130004,192.7997784232907 A198.0,198.0,0,0,0,-42.36168389549765,193.41532446406086 C-16.94467355819906,77.36612978562435,-71.505330792256,34.05330627545653,-178.76332698064,85.13326568864132 Z" fill="#d62728" fill-opacity="0.6" />
<path d="M-178.76910055645035,85.12114124139633 A198.0,198.0,0,0,0,-178.76332698064,85.13326568864132 C-71.505330792256,34.05330627545653,-13.415996895076947,78.0554356038789,-33.53999223769237,195.13858900969726 A198.0,198.0,0,0,0,-33.288298296951545,195.1816825332059 C-13.315319318780618,78.07267301328237,-71.50764022258015,34.048456496558536,-178.76910055645035,85.12114124139633 Z" fill="#d62728" fill-opacity="0.6" />
<path d="M-179.1357387385103,84.34682629837464 A198.0,198.0,0,0,0,-178.76910055645035,85.12114124139633 C-71.50764022258015,34.048456496558536,16.790378908967536,77.3997621191002,41.97594727241884,193.49940529775049 A198.0,198.0,0,0,0,47.93449874249882,192.11008258367227 C19.17379949699953,76.84403303346892,-71.65429549540413,33.73873051934986,-179.1357387385103,84.34682629837464 Z" fill="#d62728" fill-opacity="0.6" />
<path d="M-179.1399760297355,84.33782655526399 A198.0,198.0,0,0,0,-179.1357387385103,84.34682629837464 C-71.65429549540413,33.73873051934986,27.65493971862608,74.2148523488335,69.13734929656519,185.53713087208374 A198.0,198.0,0,0,0,69.4261305162823,185.42926522406364 C27.77045220651292,74.17170608962546,-71.6559904118942,33.73513062210559,-179.1399760297355,84.33782655526399 Z" fill="#d62728" fill-opacity="0.6" />
<path d="M-179.1487719662512,84.31914078656243 A198.0,198.0,0,0,0,-179.1399760297355,84.33782655526399 C-71.6559904118942,33.73513062210559,48.67130840560579,62.47994668760856,121.67827101401447,156.1998667190214 A198.0,198.0,0,0,0,122.78494008055577,155.3314472005406 C49.11397603222231,62.13257888021624,-71.65950878650048,33.72765631462497,-179.1487719662512,84.31914078656243 Z" fill="#d62728" fill-opacity="0.6" />
<path d="M-179.6515251722052,83.24259428502049 A198.0,198.0,0,0,0,-179.1487719662512,84.31914078656243 C-71.65950878650048,33.72765631462497,72.15949528810005,32.64425278309595,180.3987382202501,81.61063195773987 A198.0,198.0,0,0,0,180.5174195836795,81.34777948321518 C72.20696783347181,32.539111793286075,-71.86061006888208,33.2970377140082,-179.6515251722052,83.24259428502049 Z" fill="#e377c2" fill-opacity="0.6" />
<path d="M-118.34392509910543,158.741032477861 A198.0,198.0,0,0,0,-118.33918121350496,158.74456900857186 C-47.335672485401986,63.497827603428746,-23.208504913856327,75.7232150642292,-58.02126228464081,189.30803766057298 A198.0,198.0,0,0,0,-57.58307792872241,189.4417829737006 C-23.033231171488964,75.77671318948025,-47.33757003964217,63.49641299114441,-118.34392509910543,158.741032477861 Z" fill="#d62728" fill-opacity="0.6" />
<path d="M-118.71428299291982,158.46425153162133 A198.0,198.0,0,0,0,-118.34392509910543,158.741032477861 C-47.33757003964217,63.49641299114441,22.12551553607829,76.04670645243459,55.31378884019572,190.11676613108648 A198.0,198.0,0,0,0,69.13734929656519,185.53713087208374 C27.65493971862608,74.2148523488335,-47.48571319716793,63.385700612648535,-118.71428299291982,158.46425153162133 Z" fill="#d62728" fill-opacity="0.6" />
<path d="M-118.76630679544206,158.4252643051951 A198.0,198.0,0,0,0,-118.71428299291982,158.46425153162133 C-47.48571319716793,63.385700612648535,47.23837359483157,63.57024508459221,118.09593398707892,158.9256127114805 A198.0,198.0,0,0,0,121.67827101401447,156.1998667190214 C48.67130840560579,62.47994668760856,-47.506522718176825,63.370105722078044,-118.76630679544206,158.4252643051951 Z" fill="#d62728" fill-opacity="0.6" />
<path d="M-118.76851524865312,158.42360867506602 A198.0,198.0,0,0,0,-118.76630679544206,158.4252643051951 C-47.506522718176825,63.370105722078044,72.11186964641347,32.74932451362427,180.27967411603368,81.87331128406068 A198.0,198.0,0,0,0,180.3987382202501,81.61063195773987 C72.15949528810005,32.64425278309595,-47.50740609946125,63.36944347002641,-118.76851524865312,158.42360867506602 Z" fill="#d62728" fill-opacity="0.6" />
<path d="M-51.545347601739095,191.17289855158836 A198.0,198.0,0,0,0,-51.52680366280418,191.17789753079416 C-20.61072146512167,76.47115901231767,-18.33503281619947,77.04846897654028,-45.837582040498674,192.62117244135067 A198.0,198.0,0,0,0,-45.080433005130004,192.7997784232907 C-18.032173202052004,77.11991136931628,-20.618139040695638,76.46915942063535,-51.545347601739095,191.17289855158836 Z" fill="#d62728" fill-opacity="0.6" />
<path d="M-51.611181853701204,191.15513570831462 A198.0,198.0,0,0,0,-51.545347601739095,191.17289855158836 C-20.618139040695638,76.46915942063535,-14.086602399673374,77.93720313709953,-35.21650599918343,194.84300784274882 A198.0,198.0,0,0,0,-33.53999223769237,195.13858900969726 C-13.415996895076947,78.0554356038789,-20.644472741480485,76.46205428332586,-51.611181853701204,191.15513570831462 Z" fill="#d62728" fill-opacity="0.6" />
<path d="M-51.61395708481566,191.15438638453162 A198.0,198.0,0,0,0,-51.611181853701204,191.15513570831462 C-20.644472741480485,76.46205428332586,16.77984211235198,77.40204712205316,41.94960528087994,193.5051178051329 A198.0,198.0,0,0,0,41.97594727241884,193.49940529775049 C16.790378908967536,77.3997621191002,-20.645582833926266,76.46175455381265,-51.61395708481566,191.15438638453162 Z" fill="#d62728" fill-opacity="0.6" />
<path d="M-51.62127159531746,191.15241122958003 A198.0,198.0,0,0,0,-51.61395708481566,191.15438638453162 C-20.645582833926266,76.46175455381265,22.00709067894292,76.08106176867396,55.0177266973573,190.2026544216849 A198.0,198.0,0,0,0,55.31378884019572,190.11676613108648 C22.12551553607829,76.04670645243459,-20.648508638126984,76.46096449183202,-51.62127159531746,191.15241122958003 Z" fill="#d62728" fill-opacity="0.6" />
<path d="M-51.62430882156847,191.1515909917972 A198.0,198.0,0,0,0,-51.62127159531746,191.15241122958003 C-20.648508638126984,76.46096449183202,47.14799674708722,63.63730354702856,117.86999186771804,159.0932588675714 A198.0,198.0,0,0,0,118.09593398707892,158.9256127114805 C47.23837359483157,63.57024508459221,-20.64972352862739,76.46063639671888,-51.62430882156847,191.1515909917972 Z" fill="#d62728" fill-opacity="0.6" />
<path d="M-51.628435178042196,191.15047653894743 A198.0,198.0,0,0,0,-51.62430882156847,191.1515909917972 C-20.64972352862739,76.46063639671888,72.01615947859796,32.959259305286984,180.0403986964949,82.39814826321745 A198.0,198.0,0,0,0,180.27967411603368,81.87331128406068 C72.11186964641347,32.74932451362427,-20.65137407121688,76.46019061557898,-51.628435178042196,191.15047653894743 Z" fill="#d62728" fill-opacity="0.6" />
<path d="M-38.29313192009167,194.26177196697876 A198.0,198.0,0,0,0,-38.16591655029951,194.28680555785454 C-15.266366620119804,77.71472222314182,14.134041285182859,77.92861398067303,35.335103212957144,194.82153495168257 A198.0,198.0,0,0,0,35.338147195750146,194.82098283493875 C14.135258878300059,77.9283931339755,-15.317252768036667,77.70470878679151,-38.29313192009167,194.26177196697876 Z" fill="#9467bd" fill-opacity="0.6" />
<path d="M-38.29487625637373,194.2614281130174 A198.0,198.0,0,0,0,-38.29313192009167,194.26177196697876 C-15.317252768036667,77.70470878679151,78.93057384060891,6.527213279201637,197.32643460152227,16.31803319800409 A198.0,198.0,0,0,0,197.35808010983732,15.930731789815503 C78.94323204393493,6.372292715926202,-15.317950502549493,77.70457124520696,-38.29487625637373,194.2614281130174 Z" fill="#9467bd" fill-opacity="0.6" />
<path d="M-38.35847767455748,194.24887950897033 A198.0,198.0,0,0,0,-38.29487625637373,194.2614281130174 C-15.317950502549493,77.70457124520696,79.19469418396665,0.9167404801807045,197.9867354599166,2.2918512004517613 A198.0,198.0,0,0,0,197.98779375996875,2.1985272479731885 C79.1951175039875,0.8794108991892755,-15.343391069822992,77.69955180358814,-38.35847767455748,194.24887950897033 Z" fill="#9467bd" fill-opacity="0.6" />
<path d="M-32.11145119528921,195.3787468025439 A198.0,198.0,0,0,0,-32.02745628268878,195.39253323517883 C-12.810982513075514,78.15701329407153,14.132744403137686,77.92884918716291,35.33186100784421,194.82212296790726 A198.0,198.0,0,0,0,35.335103212957144,194.82153495168257 C14.134041285182859,77.92861398067303,-12.844580478115686,78.15149872101756,-32.11145119528921,195.3787468025439 Z" fill="#9467bd" fill-opacity="0.6" />
<path d="M-32.11300126027104,195.37849203547927 A198.0,198.0,0,0,0,-32.11145119528921,195.3787468025439 C-12.844580478115686,78.15149872101756,46.96695765091675,63.77103487491005,117.41739412729186,159.42758718727512 A198.0,198.0,0,0,0,117.86999186771804,159.0932588675714 C47.14799674708722,63.63730354702856,-12.845200504108417,78.15139681419171,-32.11300126027104,195.37849203547927 Z" fill="#9467bd" fill-opacity="0.6" />
<path d="M-32.532885944885095,195.3090149790764 A198.0,198.0,0,0,0,-32.11300126027104,195.37849203547927 C-12.845200504108417,78.15139681419171,72.01232952163296,32.96762649733448,180.0308238040824,82.41906624333619 A198.0,198.0,0,0,0,180.0403986964949,82.39814826321745 C72.01615947859796,32.959259305286984,-13.013154377954038,78.12360599163057,-32.532885944885095,195.3090149790764 Z" fill="#e377c2" fill-opacity="0.6" />
<path d="M40.010696048680565,193.9153016182583 A198.0,198.0,0,0,0,40.01248889073527,193.9149316911124 C16.00499555629411,77.56597267644497,21.977476118336764,76.0896217855493,54.943690295841904,190.22405446387324 A198.0,198.0,0,0,0,55.0177266973573,190.2026544216849 C22.00709067894292,76.08106176867396,16.004278419472225,77.56612064730332,40.010696048680565,193.9153016182583 Z" fill="#9467bd" fill-opacity="0.6" />
<path d="M40.000309306604095,193.917444432872 A198.0,198.0,0,0,0,40.010696048680565,193.9153016182583 C16.004278419472225,77.56612064730332,78.89759835232051,6.914403389730258,197.24399588080126,17.286008474325644 A198.0,198.0,0,0,0,197.32643460152227,16.31803319800409 C78.93057384060891,6.527213279201637,16.00012372264164,77.5669777731488,40.000309306604095,193.917444432872 Z" fill="#9467bd" fill-opacity="0.6" />
<path d="M72.37631098395808,184.29777429028653 A198.0,198.0,0,0,0,76.8023069692666,182.49768668177288 C30.72092278770664,72.99907467270916,46.933126315795114,63.795937599706306,117.33281578948778,159.48984399926576 A198.0,198.0,0,0,0,117.41739412729186,159.42758718727512 C46.96695765091675,63.77103487491005,28.950524393583233,73.71910971611462,72.37631098395808,184.29777429028653 Z" fill="#8c564b" fill-opacity="0.6" />
<path d="M72.23282128863828,184.35406024463808 A198.0,198.0,0,0,0,72.37631098395808,184.29777429028653 C28.950524393583233,73.71910971611462,79.19469185377277,0.916941757135642,197.9867296344319,2.292354392839105 A198.0,198.0,0,0,0,197.9867354599166,2.2918512004517613 C79.19469418396665,0.9167404801807045,28.893128515455313,73.74162409785524,72.23282128863828,184.35406024463808 Z" fill="#e377c2" fill-opacity="0.6" />
<path d="M182.7001832928077,76.31934895407893 A198.0,198.0,0,0,0,182.9217388823434,75.78678937822724 C73.16869555293736,30.314715751290898,78.68673254069046,9.002117643635106,196.7168313517261,22.505294109087764 A198.0,198.0,0,0,0,197.24399588080126,17.286008474325644 C78.89759835232051,6.914403389730258,73.08007331712308,30.527739581631575,182.7001832928077,76.31934895407893 Z" fill="#e377c2" fill-opacity="0.6" />
<path d="M182.58882394488896,76.58538614136735 A198.0,198.0,0,0,0,182.7001832928077,76.31934895407893 C73.08007331712308,30.527739581631575,79.06787029313199,4.572951706333299,197.66967573282994,11.432379265833248 A198.0,198.0,0,0,0,197.9867296344319,2.292354392839105 C79.19469185377277,0.916941757135642,73.03552957795559,30.63415445654694,182.58882394488896,76.58538614136735 Z" fill="#e377c2" fill-opacity="0.6" />
<text x="220.00000000000003" y="0" font-size="10" text-anchor="start" dominant-baseline="middle" transform="rotate(-7.973263)" font-family="Arial">Canada</text>
<text x="220.00000000000003" y="0" font-size="10" text-anchor="start" dominant-baseline="middle" transform="rotate(-21.134806)" font-family="Arial">Mexico</text>
<text x="220.00000000000003" y="0" font-size="10" text-anchor="start" dominant-baseline="middle" transform="rotate(-51.474565)" font-family="Arial">United Sta.</text>
<text x="220.00000000000003" y="0" font-size="10" text-anchor="start" dominant-baseline="middle" transform="rotate(-78.204351)" font-family="Arial">Costa Rica</text>
<text x="220.00000000000003" y="0" font-size="10" text-anchor="start" dominant-baseline="middle" transform="rotate(-80.744483)" font-family="Arial">Dominican .</text>
<text x="220.00000000000003" y="0" font-size="10" text-anchor="start" dominant-baseline="middle" transform="rotate(-83.300400)" font-family="Arial">Guatemala</text>
<text x="-220.00000000000006" y="0" font-size="10" text-anchor="end" dominant-baseline="middle" transform="rotate(85.793949)" font-family="Arial">Argentina</text>
<text x="-220.00000000000003" y="0" font-size="10" text-anchor="end" dominant-baseline="middle" transform="rotate(65.776038)" font-family="Arial">Brazil</text>
<text x="-220.00000000000003" y="0" font-size="10" text-anchor="end" dominant-baseline="middle" transform="rotate(48.960849)" font-family="Arial">Colombia</text>
<text x="-220.00000000000003" y="0" font-size="10" text-anchor="end" dominant-baseline="middle" transform="rotate(29.359469)" font-family="Arial">Germany</text>
<text x="-220.00000000000006" y="0" font-size="10" text-anchor="end" dominant-baseline="middle" transform="rotate(7.963936)" font-family="Arial">Spain</text>
<text x="-220.00000000000003" y="0" font-size="10" text-anchor="end" dominant-baseline="middle" transform="rotate(-14.377060)" font-family="Arial">France</text>
<text x="-220.00000000000003" y="0" font-size="10" text-anchor="end" dominant-baseline="middle" transform="rotate(-41.055837)" font-family="Arial">United Kin.</text>
<text x="-220.00000000000003" y="0" font-size="10" text-anchor="end" dominant-baseline="middle" transform="rotate(-64.392738)" font-family="Arial">Italy</text>
<text x="-220.00000000000006" y="0" font-size="10" text-anchor="end" dominant-baseline="middle" transform="rotate(-77.187568)" font-family="Arial">Indonesia</text>
<text x="-220.00000000000003" y="0" font-size="10" text-anchor="end" dominant-baseline="middle" transform="rotate(-80.075229)" font-family="Arial">India</text>
<text x="220.00000000000003" y="0" font-size="10" text-anchor="start" dominant-baseline="middle" transform="rotate(-271.461500)" font-family="Arial">Japan</text>
<text x="220.00000000000006" y="0" font-size="10" text-anchor="start" dominant-baseline="middle" transform="rotate(-283.159948)" font-family="Arial">Egypt</text>
<text x="220.0" y="0" font-size="10" text-anchor="start" dominant-baseline="middle" transform="rotate(-288.742193)" font-family="Arial">Nigeria</text>
<text x="220.00000000000003" y="0" font-size="10" text-anchor="start" dominant-baseline="middle" transform="rotate(-301.593950)" font-family="Arial">South Afri.</text>
<text x="220.00000000000003" y="0" font-size="10" text-anchor="start" dominant-baseline="middle" transform="rotate(-323.929877)" font-family="Arial">Australia</text>
<text x="220.00000000000003" y="0" font-size="10" text-anchor="start" dominant-baseline="middle" transform="rotate(-347.092548)" font-family="Arial">New Zealan.</text>
<text x="220.00000000000006" y="0" font-size="10" text-anchor="start" dominant-baseline="middle" transform="rotate(-358.058492)" font-family="Arial">Papua New .</text>
<text x="-295.0" y="-285.0" font-size="8" text-anchor="start" dominant-baseline="middle" font-family="Arial" font-weight="bold">Continents</text>
<circle cx="-290.5" cy="-274.5" r="4.5" fill="#8c564b" stroke="#333" stroke-width="0.5" />
<text x="-278.0" y="-271.0" font-size="6" text-anchor="start" dominant-baseline="middle" font-family="Arial">Africa</text>
<circle cx="-290.5" cy="-262.5" r="4.5" fill="#9467bd" stroke="#333" stroke-width="0.5" />
<text x="-278.0" y="-259.0" font-size="6" text-anchor="start" dominant-baseline="middle" font-family="Arial">Asia</text>
<circle cx="-290.5" cy="-250.5" r="4.5" fill="#ff7f0e" stroke="#333" stroke-width="0.5" />
<text x="-278.0" y="-247.0" font-size="6" text-anchor="start" dominant-baseline="middle" font-family="Arial">Central America</text>
<circle cx="-290.5" cy="-238.5" r="4.5" fill="#d62728" stroke="#333" stroke-width="0.5" />
<text x="-278.0" y="-235.0" font-size="6" text-anchor="start" dominant-baseline="middle" font-family="Arial">Europe</text>
<circle cx="-290.5" cy="-226.5" r="4.5" fill="#1f77b4" stroke="#333" stroke-width="0.5" />
<text x="-278.0" y="-223.0" font-size="6" text-anchor="start" dominant-baseline="middle" font-family="Arial">North America</text>
<circle cx="-290.5" cy="-214.5" r="4.5" fill="#e377c2" stroke="#333" stroke-width="0.5" />
<text x="-278.0" y="-211.0" font-size="6" text-anchor="start" dominant-baseline="middle" font-family="Arial">Oceania</text>
<circle cx="-290.5" cy="-202.5" r="4.5" fill="#2ca02c" stroke="#333" stroke-width="0.5" />
<text x="-278.0" y="-199.0" font-size="6" text-anchor="start" dominant-baseline="middle" font-family="Arial">South America</text>
</svg>