<?xml version="1.0" encoding="UTF-8"?>
<svg xmlns="http://www.w3.org/2000/svg" xmlns:xlink="http://www.w3.org/1999/xlink"
     width="600.0" height="600.0" viewBox="-300.0 -300.0 600.0 600.0">
<defs>
</defs>
<rect x="-300.0" y="-300.0" width="600.0" height="600.0" fill="#ffffff" fill-opacity="1.0" />
<path d="M200.0,-0.0 A200,200,0,0,0,192.5595048733231,-54.04476924680741 L206.03867021445575,-57.827903094083936 A214.0,214.0,0,0,1,214.0,-0.0 Z" fill="#1f77b4" fill-opacity="0.9" />
<path d="M192.0094382932607,-55.96762998650654 A200,200,0,0,0,173.81760715275615,-98.93148863577326 L185.9848396534491,-105.8566928402774 A214.0,214.0,0,0,1,205.45009897378895,-59.885364085561996 Z" fill="#1f77b4" fill-opacity="0.9" />
<path d="M172.81961794696355,-100.664689204634 A200,200,0,0,0,34.67374145810004,-196.97139805894875 L37.100903360167045,-210.75939592307518 A214.0,214.0,0,0,1,184.916991203251,-107.7112174489584 Z" fill="#1f77b4" fill-opacity="0.9" />
<path d="M32.702326633287186,-197.30828120676992 A200,200,0,0,0,25.150704264763924,-198.41230323492135 L26.9112535632974,-212.30116446136586 A214.0,214.0,0,0,1,34.99148949761729,-211.11986089124383 Z" fill="#ff7f0e" fill-opacity="0.9" />
<path d="M23.165356776232755,-198.6538855533157 A200,200,0,0,0,16.47642766759617,-199.32016288201874 L17.629777604327902,-213.27257428376006 A214.0,214.0,0,0,1,24.78693175056905,-212.5596575420478 Z" fill="#ff7f0e" fill-opacity="0.9" />
<path d="M14.482435444118803,-199.4749584875428 A200,200,0,0,0,7.471324954993575,-199.86039953781963 L7.9943177018431255,-213.85062750546703 A214.0,214.0,0,0,1,15.49620592520712,-213.43820558167081 Z" fill="#ff7f0e" fill-opacity="0.9" />
<path d="M5.472380706380708,-199.92511860545298 A200,200,0,0,0,-57.22224453069028,-191.63928284897617 L-61.227801647838604,-205.0540326484045 A214.0,214.0,0,0,1,5.855447355827358,-213.9198769078347 Z" fill="#2ca02c" fill-opacity="0.9" />
<path d="M-59.13574433107526,-191.0574880563693 A200,200,0,0,0,-122.1731845538336,-158.34681233285033 L-130.72530747260194,-169.43108919614986 A214.0,214.0,0,0,1,-63.27524643425053,-204.43151222031517 Z" fill="#2ca02c" fill-opacity="0.9" />
<path d="M-123.75051767783624,-157.1171835747686 A200,200,0,0,0,-152.62727950075464,-129.24748953924993 L-163.31118906580747,-138.29481380699744 A214.0,214.0,0,0,1,-132.4130539152848,-168.1153864250024 Z" fill="#2ca02c" fill-opacity="0.9" />
<path d="M-153.912101554626,-127.71477986137114 A200,200,0,0,0,-193.84960942671972,-49.21716088020739 L-207.41908208659012,-52.66236214182191 A214.0,214.0,0,0,1,-164.6859486634498,-136.65481445166714 Z" fill="#d62728" fill-opacity="0.9" />
<path d="M-194.33208043300172,-47.27623625651 A200,200,0,0,0,-199.94986163275163,4.478038972974076 L-213.94635194704426,4.791501701082262 A214.0,214.0,0,0,1,-207.93532606331186,-50.585572794465705 Z" fill="#d62728" fill-opacity="0.9" />
<path d="M-199.8950845795885,6.47728036440843 A200,200,0,0,0,-178.04048588467336,91.1130363117673 L-190.50331989660052,97.49094885359102 A214.0,214.0,0,0,1,-213.8877405001597,6.9306899899170205 Z" fill="#d62728" fill-opacity="0.9" />
<path d="M-177.12046875687489,92.8888558834961 A200,200,0,0,0,-126.40374078627876,154.9906265399145 L-135.25200264131828,165.83997039770853 A214.0,214.0,0,0,1,-189.51890156985613,99.39107579534084 Z" fill="#d62728" fill-opacity="0.9" />
<path d="M-124.84754021815033,156.24689341384467 A200,200,0,0,0,-64.42919726175838,189.33800078221336 L-68.93924107008147,202.59166083696832 A214.0,214.0,0,0,1,-133.58686803342087,167.1841759528138 Z" fill="#d62728" fill-opacity="0.9" />
<path d="M-62.532627377094286,189.97281519553655 A200,200,0,0,0,-51.49203615179327,193.2577817655538 L-55.096478682418805,206.78582648914258 A214.0,214.0,0,0,1,-66.9099112934909,203.27091225922413 Z" fill="#9467bd" fill-opacity="0.9" />
<path d="M-49.556915963254376,193.76303073654412 A200,200,0,0,0,-37.68414649643226,196.41768021956534 L-40.32203675118252,210.16691783493494 A214.0,214.0,0,0,1,-53.025900080682185,207.32644288810224 Z" fill="#9467bd" fill-opacity="0.9" />
<path d="M-35.718118238729865,196.7846946016994 A200,200,0,0,0,33.79305929863096,197.12440017217355 L36.158573449535126,210.92310818422573 A214.0,214.0,0,0,1,-38.218386515440955,210.5596232238184 Z" fill="#9467bd" fill-opacity="0.9" />
<path d="M35.76258080756568,196.77661907346192 A200,200,0,0,0,42.154453377705345,195.5070383910177 L45.10526511414472,209.19253107838892 A214.0,214.0,0,0,1,38.265961464095284,210.55098240860426 Z" fill="#8c564b" fill-opacity="0.9" />
<path d="M44.10738347216742,195.0757256124892 A200,200,0,0,0,73.64406683809513,185.94771152005654 L78.7991515167618,198.96405132646052 A214.0,214.0,0,0,1,47.194900315219144,208.73102640536345 Z" fill="#8c564b" fill-opacity="0.9" />
<path d="M75.49983078950838,185.20198581752737 A200,200,0,0,0,120.28948223769476,159.78247858569262 L128.7097459943334,170.9672520866911 A214.0,214.0,0,0,1,80.78481894477397,198.1661248247543 Z" fill="#8c564b" fill-opacity="0.9" />
<path d="M121.88126596928026,158.57161475410902 A200,200,0,0,0,182.55959299314222,81.68228085807999 L195.33876450266217,87.4000405181456 A214.0,214.0,0,0,1,130.4129545871299,169.67162778689666 Z" fill="#e377c2" fill-opacity="0.9" />
<path d="M183.3672742844942,79.85263127458657 A200,200,0,0,0,198.75631800912646,22.26939719559097 L212.66926026976532,23.82825499928234 A214.0,214.0,0,0,1,196.2029834844088,85.44231546380763 Z" fill="#e377c2" fill-opacity="0.9" />
<path d="M198.96907053644912,20.280753680806225 A200,200,0,0,0,199.99000008333306,1.9999666668340497 L213.9893000891664,2.139964333512433 A214.0,214.0,0,0,1,212.89690547400056,21.70040643846266 Z" fill="#e377c2" fill-opacity="0.9" />
<path d="M193.0,-0.0 A193.0,193.0,0,0,0,190.50092501811818,-30.95799682216731 L195.43618214293988,-31.76001746522864 A198.0,198.0,0,0,1,198.0,-0.0 Z" fill="#1f77b4" fill-opacity="0.6" />
<path d="M185.2891079529966,-54.00876293697881 A193.0,193.0,0,0,0,180.54058967421628,-68.2209313926911 L185.21780702328925,-69.98831303498879 A198.0,198.0,0,0,1,190.0893439103281,-55.40795368664148 Z" fill="#1f77b4" fill-opacity="0.6" />
<path d="M166.77093131881983,-97.14142508247181 A193.0,193.0,0,0,0,48.01640977429696,-186.93160351419124 L49.26035821404558,-191.77439116999932 A198.0,198.0,0,0,1,171.0914217674939,-99.65804231258767 Z" fill="#1f77b4" fill-opacity="0.6" />
<path d="M31.557745201122135,-190.40249136453295 A193.0,193.0,0,0,0,31.54501990694368,-190.40460004703283 L32.36224840194222,-195.33736170628237 A198.0,198.0,0,0,1,32.37530336695431,-195.33519839470222 Z" fill="#ff7f0e" fill-opacity="0.6" />
<path d="M5.280847381657383,-192.9277394542621 A193.0,193.0,0,0,0,-46.882896453025715,-187.21910698477032 L-48.097479262689596,-192.06934291701825 A198.0,198.0,0,0,1,5.417656899316901,-197.92586741939843 Z" fill="#2ca02c" fill-opacity="0.6" />
<path d="M-57.06599327948762,-184.37047597439638 A193.0,193.0,0,0,0,-114.57907906075731,-155.3081924483983 L-117.54744898461112,-159.3317207501703 A198.0,198.0,0,0,1,-58.5443868877645,-189.14691317580562 Z" fill="#2ca02c" fill-opacity="0.6" />
<path d="M-119.41924955911198,-151.6180821496517 A193.0,193.0,0,0,0,-131.97677667109014,-140.8230464785832 L-135.3958641496158,-144.47131193139623 A198.0,198.0,0,0,1,-122.51301250105789,-155.5460117390209 Z" fill="#2ca02c" fill-opacity="0.6" />
<path d="M-148.52517800021408,-123.24476256622316 A193.0,193.0,0,0,0,-186.0958960348367,-51.15972516532173 L-190.91703323781172,-52.48510664628862 A198.0,198.0,0,0,1,-152.37298053907975,-126.43763206275743 Z" fill="#d62728" fill-opacity="0.6" />
<path d="M-187.53045761784665,-45.62156798753215 A193.0,193.0,0,0,0,-192.4247787305091,-14.889745817662938 L-197.4098766250819,-15.275490527965086 A198.0,198.0,0,0,1,-192.3887596286717,-46.803473893944904 Z" fill="#d62728" fill-opacity="0.6" />
<path d="M-192.8987566193029,6.250575551654135 A193.0,193.0,0,0,0,-190.04408463621303,33.64886171602095 L-194.96750651798018,34.520593884829786 A198.0,198.0,0,0,1,-197.89613373379262,6.412507560764346 Z" fill="#d62728" fill-opacity="0.6" />
<path d="M-170.92125235038426,89.63774592757373 A193.0,193.0,0,0,0,-125.97130839356228,146.2197984597641 L-129.23481379235923,150.00787614006884 A198.0,198.0,0,0,1,-175.34926406930614,91.95996732466114 Z" fill="#d62728" fill-opacity="0.6" />
<path d="M-120.47787631051506,150.77825214436012 A193.0,193.0,0,0,0,-69.99342241416497,179.86083736809485 L-71.80672351297753,184.5204445537968 A198.0,198.0,0,0,1,-123.59906481596882,154.68442447970622 Z" fill="#d62728" fill-opacity="0.6" />
<path d="M-60.34398541889598,183.32376666369277 A193.0,193.0,0,0,0,-56.963196927981265,184.40226190517302 L-58.438927418343475,189.1795225762915 A198.0,198.0,0,0,1,-61.90730110332334,188.07308704358118 Z" fill="#9467bd" fill-opacity="0.6" />
<path d="M-47.82242390454047,186.9813246607651 A193.0,193.0,0,0,0,-40.408378829872554,188.72244943392798 L-41.455228022356295,193.61163206174996 A198.0,198.0,0,0,1,-49.06134680362183,191.8254004291787 Z" fill="#9467bd" fill-opacity="0.6" />
<path d="M-34.467984100374316,189.89723029063995 A193.0,193.0,0,0,0,25.2670094391922,191.3389093571921 L25.92159517595884,196.29587592084994 A198.0,198.0,0,0,1,-35.360937056342564,194.81684765568244 Z" fill="#9467bd" fill-opacity="0.6" />
<path d="M34.51089047930089,189.88943740589073 A193.0,193.0,0,0,0,34.52269875609014,189.88729096650005 L35.41706919018574,194.8066508360985 A198.0,198.0,0,0,1,35.40495499949003,194.80885288272728 Z" fill="#8c564b" fill-opacity="0.6" />
<path d="M42.56362505064156,188.2480752160521 A193.0,193.0,0,0,0,49.08882792448561,186.6528514997835 L50.36055921786606,191.4884176008142 A198.0,198.0,0,0,1,43.66630963744575,193.12496835636432 Z" fill="#8c564b" fill-opacity="0.6" />
<path d="M72.85733671187559,178.7199163139139 A193.0,193.0,0,0,0,107.6440518157615,160.19287783383396 L110.43275782135117,164.34295238911466 A198.0,198.0,0,0,1,74.7448324816133,183.3499659593521 Z" fill="#8c564b" fill-opacity="0.6" />
<path d="M117.61542166035545,153.02160823771518 A193.0,193.0,0,0,0,171.52874299176403,88.46971418324667 L175.97249281020353,90.76167569058467 A198.0,198.0,0,0,1,120.66245330958746,156.98589860656793 Z" fill="#e377c2" fill-opacity="0.6" />
<path d="M176.94941968453688,77.05778917997604 A193.0,193.0,0,0,0,189.680637346192,35.64064836590931 L194.59464349505708,36.56398122512975 A198.0,198.0,0,0,1,181.53360154164923,79.05410496184071 Z" fill="#e377c2" fill-opacity="0.6" />
<path d="M190.63415021223227,-53.50346505470526 A198.0,198.0,0,0,0,190.63390982458986,-53.50432155433933 C76.25356392983595,-21.40172862173573,74.0871228093157,-27.995325213995518,185.21780702328925,-69.98831303498879 A198.0,198.0,0,0,0,185.19140921199184,-70.05813267620391 C74.07656368479674,-28.023253070481566,76.25366008489291,-21.401386021882104,190.63415021223227,-53.50346505470526 Z" fill="#1f77b4" fill-opacity="0.6" />
<path d="M195.173061990687,-33.3388043153839 A198.0,198.0,0,0,0,190.63415021223227,-53.50346505470526 C76.25366008489291,-21.401386021882104,19.342854079109205,-76.80165360247322,48.35713519777301,-192.00413400618305 A198.0,198.0,0,0,0,47.06348187156363,-192.32531989866806 C18.825392748625454,-76.93012795946723,78.0692247962748,-13.335521726153562,195.173061990687,-33.3388043153839 Z" fill="#1f77b4" fill-opacity="0.6" />
<path d="M195.17338647953738,-33.3369046269917 A198.0,198.0,0,0,0,195.173061990687,-33.3388043153839 C78.0692247962748,-13.335521726153562,6.605055918841995,-78.92409794422088,16.512639797104985,-197.3102448605522 A198.0,198.0,0,0,0,16.488996399120232,-197.31222211953775 C6.595598559648093,-78.92488884781511,78.06935459181496,-13.334761850796681,195.17338647953738,-33.3369046269917 Z" fill="#1f77b4" fill-opacity="0.6" />
<path d="M195.17355530962053,-33.33591618363739 A198.0,198.0,0,0,0,195.17338647953738,-33.3369046269917 C78.06935459181496,-13.334761850796681,3.609425990448339,-79.11771005292985,9.023564976120847,-197.7942751323246 A198.0,198.0,0,0,0,9.011052139182178,-197.79484558335926 C3.6044208556728714,-79.11793823334371,78.06942212384821,-13.334366473454956,195.17355530962053,-33.33591618363739 Z" fill="#1f77b4" fill-opacity="0.6" />
<path d="M195.1737187912947,-33.33495902467276 A198.0,198.0,0,0,0,195.17355530962053,-33.33591618363739 C78.06942212384821,-13.334366473454956,-21.236112575708564,-76.29985270412935,-53.09028143927141,-190.74963176032335 A198.0,198.0,0,0,0,-53.198431771776704,-190.7194978417876 C-21.27937270871068,-76.28779913671504,78.06948751651788,-13.333983609869106,195.1737187912947,-33.33495902467276 Z" fill="#1f77b4" fill-opacity="0.6" />
<path d="M195.1738552948965,-33.334159796323085 A198.0,198.0,0,0,0,195.1737187912947,-33.33495902467276 C78.06948751651788,-13.333983609869106,-47.92423978956531,-63.05479554000826,-119.81059947391327,-157.63698885002063 A198.0,198.0,0,0,0,-119.89218753391316,-157.5749452429954 C-47.956875013565266,-63.02997809719816,78.0695421179586,-13.333663918529234,195.1738552948965,-33.334159796323085 Z" fill="#1f77b4" fill-opacity="0.6" />
<path d="M195.18125755978122,-33.29078997834622 A198.0,198.0,0,0,0,195.1738552948965,-33.334159796323085 C78.0695421179586,-13.333663918529234,-76.65352807628341,-19.921762810013384,-191.63382019070852,-49.804407025033456 A198.0,198.0,0,0,0,-191.63399637499944,-49.80372911084773 C-76.65359854999978,-19.921491644339095,78.07250302391249,-13.316315991338488,195.18125755978122,-33.29078997834622 Z" fill="#d62728" fill-opacity="0.6" />
<path d="M195.19603317740712,-33.20404541324113 A198.0,198.0,0,0,0,195.18125755978122,-33.29078997834622 C78.07250302391249,-13.316315991338488,-50.27991063542163,61.192896536232176,-125.69977658855407,152.98224134058043 A198.0,198.0,0,0,0,-125.69868091217356,152.9831416102427 C-50.27947236486943,61.19325664409709,78.07841327096286,-13.281618165296454,195.19603317740712,-33.20404541324113 Z" fill="#d62728" fill-opacity="0.6" />
<path d="M195.24012870691587,-32.94377243891364 A198.0,198.0,0,0,0,195.19603317740712,-33.20404541324113 C78.07841327096286,-13.281618165296454,-20.787356366871443,76.42333292441968,-51.9683909171786,191.0583323110492 A198.0,198.0,0,0,0,-51.116242620653686,191.28808049731293 C-20.446497048261477,76.51523219892518,78.09605148276636,-13.177508975565457,195.24012870691587,-32.94377243891364 Z" fill="#1f77b4" fill-opacity="0.6" />
<path d="M195.25475009928573,-32.857001744916964 A198.0,198.0,0,0,0,195.24012870691587,-32.94377243891364 C78.09605148276636,-13.177508975565457,13.322631612713051,78.0714255468154,33.306579031782626,195.1785638670385 A198.0,198.0,0,0,0,33.30765119365404,195.1783809031161 C13.323060477461617,78.07135236124645,78.1019000397143,-13.142800697966786,195.25475009928573,-32.857001744916964 Z" fill="#9467bd" fill-opacity="0.6" />
<path d="M195.27660988027924,-32.72683354168603 A198.0,198.0,0,0,0,195.25475009928573,-32.857001744916964 C78.1019000397143,-13.142800697966786,47.55132780810424,63.336492038051915,118.87831952026059,158.3412300951298 A198.0,198.0,0,0,0,118.8794952291507,158.34034739782007 C47.55179809166029,63.33613895912803,78.1106439521117,-13.09073341667441,195.27660988027924,-32.72683354168603 Z" fill="#8c564b" fill-opacity="0.6" />
<path d="M195.278442340572,-32.7158976193515 A198.0,198.0,0,0,0,195.27660988027924,-32.72683354168603 C78.1106439521117,-13.09073341667441,71.83625895423513,33.34954121813484,179.59064738558783,83.37385304533709 A198.0,198.0,0,0,0,180.4066205662728,81.59320594177481 C72.16264822650912,32.637282376709926,78.11137693622881,-13.0863590477406,195.278442340572,-32.7158976193515 Z" fill="#1f77b4" fill-opacity="0.6" />
<path d="M195.2785869479869,-32.71503445814361 A198.0,198.0,0,0,0,195.278442340572,-32.7158976193515 C78.11137693622881,-13.0863590477406,78.68612384147364,9.007436638926347,196.7153096036841,22.518591597315865 A198.0,198.0,0,0,0,196.72608919270002,22.424224199419683 C78.69043567708002,8.969689679767873,78.11143477919477,-13.086013783257446,195.2785869479869,-32.71503445814361 Z" fill="#1f77b4" fill-opacity="0.6" />
<path d="M195.43618214293988,-31.76001746522864 A198.0,198.0,0,0,0,195.2785869479869,-32.71503445814361 C78.11143477919477,-13.086013783257446,79.19602710208028,0.7932787949811928,197.9900677552007,1.983196987452982 A198.0,198.0,0,0,0,197.9901000824997,1.9799670001657093 C79.19604003299989,0.7919868000662837,78.17447285717596,-12.704006986091457,195.43618214293988,-31.76001746522864 Z" fill="#e377c2" fill-opacity="0.6" />
<path d="M183.45519574436625,-74.48618096262061 A198.0,198.0,0,0,0,172.0794310812286,-97.9421737494155 C68.83177243249143,-39.176869499766205,19.704143285618233,-76.70975646799972,49.26035821404558,-191.77439116999932 A198.0,198.0,0,0,0,48.35713519777301,-192.00413400618305 C19.342854079109205,-76.80165360247322,73.3820782977465,-29.794472385048245,183.45519574436625,-74.48618096262061 Z" fill="#1f77b4" fill-opacity="0.6" />
<path d="M183.47544645496802,-74.43628515818183 A198.0,198.0,0,0,0,183.45519574436625,-74.48618096262061 C73.3820782977465,-29.794472385048245,3.9297236953346024,-79.10244794997388,9.824309238336506,-197.75611987493468 A198.0,198.0,0,0,0,9.023564976120847,-197.7942751323246 C3.609425990448339,-79.11771005292985,73.39017858198721,-29.774514063272733,183.47544645496802,-74.43628515818183 Z" fill="#1f77b4" fill-opacity="0.6" />
<path d="M183.50349489262246,-74.36711210066775 A198.0,198.0,0,0,0,183.47544645496802,-74.43628515818183 C73.39017858198721,-29.774514063272733,-47.923881651600524,-63.05506773799698,-119.8097041290013,-157.63766934499245 A198.0,198.0,0,0,0,-119.81059947391327,-157.63698885002063 C-47.92423978956531,-63.05479554000826,73.40139795704899,-29.7468448402671,183.50349489262246,-74.36711210066775 Z" fill="#2ca02c" fill-opacity="0.6" />
<path d="M183.85189863720268,-73.50156030653875 A198.0,198.0,0,0,0,183.50349489262246,-74.36711210066775 C73.40139795704899,-29.7468448402671,-76.6517465843061,-19.92861624838311,-191.62936646076523,-49.82154062095778 A198.0,198.0,0,0,0,-191.63382019070852,-49.804407025033456 C-76.65352807628341,-19.921762810013384,73.54075945488107,-29.4006241226155,183.85189863720268,-73.50156030653875 Z" fill="#d62728" fill-opacity="0.6" />
<path d="M183.97632496107394,-73.18956109867938 A198.0,198.0,0,0,0,183.85189863720268,-73.50156030653875 C73.54075945488107,-29.4006241226155,-79.10502093137062,-3.8775847440666866,-197.76255232842652,-9.693961860166716 A198.0,198.0,0,0,0,-197.76274751769455,-9.689979063579095 C-79.10509900707783,-3.875991625431638,73.59052998442958,-29.27582443947175,183.97632496107394,-73.18956109867938 Z" fill="#d62728" fill-opacity="0.6" />
<path d="M184.81907805298653,-71.03455770006649 A198.0,198.0,0,0,0,183.97632496107394,-73.18956109867938 C73.59052998442958,-29.27582443947175,-73.24767742359487,30.123375508880002,-183.11919355898715,75.3084387722 A198.0,198.0,0,0,0,-183.10265514936566,75.34864084542255 C-73.24106205974627,30.139456338169023,73.92763122119462,-28.413823080026596,184.81907805298653,-71.03455770006649 Z" fill="#d62728" fill-opacity="0.6" />
<path d="M185.01918207638104,-70.51171720917714 A198.0,198.0,0,0,0,184.81907805298653,-71.03455770006649 C73.92763122119462,-28.413823080026596,-50.283233645228165,61.19016599241577,-125.7080841130704,152.97541498103942 A198.0,198.0,0,0,0,-125.69977658855407,152.98224134058043 C-50.27991063542163,61.192896536232176,74.00767283055242,-28.204686883670856,185.01918207638104,-70.51171720917714 Z" fill="#d62728" fill-opacity="0.6" />
<path d="M185.07229341546596,-70.37219770576785 A198.0,198.0,0,0,0,185.01918207638104,-70.51171720917714 C74.00767283055242,-28.204686883670856,-20.787746143047737,76.42322690316213,-51.96936535761934,191.05806725790532 A198.0,198.0,0,0,0,-51.9683909171786,191.0583323110492 C-20.787356366871443,76.42333292441968,74.02891736618639,-28.14887908230714,185.07229341546596,-70.37219770576785 Z" fill="#9467bd" fill-opacity="0.6" />
<path d="M185.08555481250434,-70.33731157605791 A198.0,198.0,0,0,0,185.07229341546596,-70.37219770576785 C74.02891736618639,-28.14887908230714,13.322414827479541,78.07146254019169,33.30603706869885,195.1786563504792 A198.0,198.0,0,0,0,33.306579031782626,195.1785638670385 C13.322631612713051,78.0714255468154,74.03422192500175,-28.134924630423168,185.08555481250434,-70.33731157605791 Z" fill="#9467bd" fill-opacity="0.6" />
<path d="M185.11205787800267,-70.2675318206851 A198.0,198.0,0,0,0,185.08555481250434,-70.33731157605791 C74.03422192500175,-28.134924630423168,47.551010844354074,63.33673000463571,118.87752711088518,158.34182501158926 A198.0,198.0,0,0,0,118.87831952026059,158.3412300951298 C47.55132780810424,63.336492038051915,74.04482315120107,-28.10701272827404,185.11205787800267,-70.2675318206851 Z" fill="#8c564b" fill-opacity="0.6" />
<path d="M185.12529954552096,-70.23263819750143 A198.0,198.0,0,0,0,185.11205787800267,-70.2675318206851 C74.04482315120107,-28.10701272827404,71.83612661444818,33.34982628190093,179.59031653612044,83.37456570475233 A198.0,198.0,0,0,0,179.59064738558783,83.37385304533709 C71.83625895423513,33.34954121813484,74.05011981820839,-28.093055279000573,185.12529954552096,-70.23263819750143 Z" fill="#e377c2" fill-opacity="0.6" />
<path d="M185.1385346355913,-70.19774207897262 A198.0,198.0,0,0,0,185.12529954552096,-70.23263819750143 C74.05011981820839,-28.093055279000573,78.68610188123486,9.00762847457249,196.71525470308714,22.519071186431223 A198.0,198.0,0,0,0,196.7153096036841,22.518591597315865 C78.68612384147364,9.007436638926347,74.05541385423652,-28.07909683158905,185.1385346355913,-70.19774207897262 Z" fill="#e377c2" fill-opacity="0.6" />
<path d="M185.19140921199184,-70.05813267620391 A198.0,198.0,0,0,0,185.1385346355913,-70.19774207897262 C74.05541385423652,-28.07909683158905,79.19602472291524,0.7935162804868425,197.9900618072881,1.9837907012171063 A198.0,198.0,0,0,0,197.9900677552007,1.983196987452982 C79.19602710208028,0.7932787949811928,74.07656368479674,-28.023253070481566,185.19140921199184,-70.05813267620391 Z" fill="#e377c2" fill-opacity="0.6" />
<path d="M35.90047378846892,-194.71814497309555 A198.0,198.0,0,0,0,34.32700404351912,-195.00168407835923 C13.730801617407648,-78.0006736313437,12.944899360776887,-78.13494468251295,32.36224840194222,-195.33736170628237 A198.0,198.0,0,0,0,25.2142356232566,-196.3879892507047 C10.085694249302641,-78.55519570028189,14.36018951538757,-77.88725798923822,35.90047378846892,-194.71814497309555 Z" fill="#1f77b4" fill-opacity="0.6" />
<path d="M37.44460658626336,-194.42711086059978 A198.0,198.0,0,0,0,35.90047378846892,-194.71814497309555 C14.36018951538757,-77.88725798923822,9.173481283388172,-78.66693867911302,22.93370320847043,-196.66734669778253 A198.0,198.0,0,0,0,16.512639797104985,-197.3102448605522 C6.605055918841995,-78.92409794422088,14.977842634505345,-77.77084434423992,37.44460658626336,-194.42711086059978 Z" fill="#1f77b4" fill-opacity="0.6" />
<path d="M38.509566321089395,-194.21898285636658 A198.0,198.0,0,0,0,37.44460658626336,-194.42711086059978 C14.977842634505345,-77.77084434423992,5.735044435871046,-78.99208356106696,14.337611089677614,-197.48020890266739 A198.0,198.0,0,0,0,9.824309238336506,-197.75611987493468 C3.9297236953346024,-79.10244794997388,15.403826528435758,-77.68759314254663,38.509566321089395,-194.21898285636658 Z" fill="#1f77b4" fill-opacity="0.6" />
<path d="M38.64089296955132,-194.19289737401746 A198.0,198.0,0,0,0,38.509566321089395,-194.21898285636658 C15.403826528435758,-77.68759314254663,-19.23899170507584,-76.82773716680731,-48.097479262689596,-192.06934291701825 A198.0,198.0,0,0,0,-53.09028143927141,-190.74963176032335 C-21.236112575708564,-76.29985270412935,15.456357187820528,-77.67715894960699,38.64089296955132,-194.19289737401746 Z" fill="#1f77b4" fill-opacity="0.6" />
<path d="M38.6945248345186,-194.18221789811452 A198.0,198.0,0,0,0,38.64089296955132,-194.19289737401746 C15.456357187820528,-77.67715894960699,-47.18620723399254,-63.60897615015282,-117.96551808498134,-159.02244037538205 A198.0,198.0,0,0,0,-119.8097041290013,-157.63766934499245 C-47.923881651600524,-63.05506773799698,15.477809933807443,-77.67288715924582,38.6945248345186,-194.18221789811452 Z" fill="#1f77b4" fill-opacity="0.6" />
<path d="M39.45566858316669,-194.02899323723582 A198.0,198.0,0,0,0,38.6945248345186,-194.18221789811452 C15.477809933807443,-77.67288715924582,-54.66433042003561,-57.31012981776581,-136.660826050089,-143.27532454441453 A198.0,198.0,0,0,0,-150.93560030247502,-128.15008607617673 C-60.37424012099001,-51.2600344304707,15.782267433266677,-77.61159729489434,39.45566858316669,-194.02899323723582 Z" fill="#1f77b4" fill-opacity="0.6" />
<path d="M39.50554031810445,-194.0188451779224 A198.0,198.0,0,0,0,39.45566858316669,-194.02899323723582 C15.782267433266677,-77.61159729489434,-76.37256113034704,-20.97312342955631,-190.9314028258676,-52.432808573890775 A198.0,198.0,0,0,0,-191.62936646076523,-49.82154062095778 C-76.6517465843061,-19.92861624838311,15.802216127241781,-77.60753807116896,39.50554031810445,-194.0188451779224 Z" fill="#1f77b4" fill-opacity="0.6" />
<path d="M39.634716208871595,-193.99249797619032 A198.0,198.0,0,0,0,39.50554031810445,-194.0188451779224 C15.802216127241781,-77.60753807116896,-78.99987021320781,-5.626766948819025,-197.4996755330195,-14.066917372047563 A198.0,198.0,0,0,0,-197.76255232842652,-9.693961860166716 C-79.10502093137062,-3.8775847440666866,15.853886483548639,-77.59699919047614,39.634716208871595,-193.99249797619032 Z" fill="#1f77b4" fill-opacity="0.6" />
<path d="M39.753431774701546,-193.96820528667618 A198.0,198.0,0,0,0,39.634716208871595,-193.99249797619032 C15.853886483548639,-77.59699919047614,-73.49821330522927,29.50682363350926,-183.74553326307316,73.76705908377315 A198.0,198.0,0,0,0,-183.11919355898715,75.3084387722 C-73.24767742359487,30.123375508880002,15.901372709880619,-77.58728211467047,39.753431774701546,-193.96820528667618 Z" fill="#1f77b4" fill-opacity="0.6" />
<path d="M39.872132451226236,-193.94383994804235 A198.0,198.0,0,0,0,39.753431774701546,-193.96820528667618 C15.901372709880619,-77.58728211467047,-51.47025097665475,60.19512658347161,-128.67562744163686,150.48781645867902 A198.0,198.0,0,0,0,-125.7080841130704,152.97541498103942 C-50.283233645228165,61.19016599241577,15.948852980490495,-77.57753597921695,39.872132451226236,-193.94383994804235 Z" fill="#1f77b4" fill-opacity="0.6" />
<path d="M39.94383595360908,-193.92908489783363 A198.0,198.0,0,0,0,39.872132451226236,-193.94383994804235 C15.948852980490495,-77.57753597921695,-26.724447105932025,74.554972516139,-66.81111776483006,186.3874312903475 A198.0,198.0,0,0,0,-63.924475065889325,187.39706904738532 C-25.569790026355733,74.95882761895413,15.977534381443633,-77.57163395913346,39.94383595360908,-193.92908489783363 Z" fill="#1f77b4" fill-opacity="0.6" />
<path d="M44.79680328069008,-192.86587675333124 A198.0,198.0,0,0,0,39.94383595360908,-193.92908489783363 C15.977534381443633,-77.57163395913346,-21.998652187158893,76.08350216668795,-54.996630467897226,190.20875541671987 A198.0,198.0,0,0,0,-51.96936535761934,191.05806725790532 C-20.787746143047737,76.42322690316213,17.91872131227603,-77.1463507013325,44.79680328069008,-192.86587675333124 Z" fill="#1f77b4" fill-opacity="0.6" />
<path d="M44.8136558936047,-192.86196163435025 A198.0,198.0,0,0,0,44.79680328069008,-192.86587675333124 C17.91872131227603,-77.1463507013325,-15.33870160817487,77.70047768820585,-38.346754020437174,194.2511942205146 A198.0,198.0,0,0,0,-38.00087622720592,194.31915347171665 C-15.20035049088237,77.72766138868667,17.92546235744188,-77.1447846537401,44.8136558936047,-192.86196163435025 Z" fill="#1f77b4" fill-opacity="0.6" />
<path d="M45.04968448518326,-192.80696545453287 A198.0,198.0,0,0,0,44.8136558936047,-192.86196163435025 C17.92546235744188,-77.1447846537401,10.383006055577852,78.51645168529863,25.95751513894463,196.29112921324656 A198.0,198.0,0,0,0,33.30603706869885,195.1786563504792 C13.322414827479541,78.07146254019169,18.019873794073305,-77.12278618181315,45.04968448518326,-192.80696545453287 Z" fill="#1f77b4" fill-opacity="0.6" />
<path d="M45.0998011410343,-192.79524874083168 A198.0,198.0,0,0,0,45.04968448518326,-192.80696545453287 C18.019873794073305,-77.12278618181315,16.59686185729806,77.44148872852178,41.492154643245144,193.60372182130442 A198.0,198.0,0,0,0,41.70883632259128,193.55715686229556 C16.683534529036514,77.42286274491823,18.03992045641372,-77.11809949633268,45.0998011410343,-192.79524874083168 Z" fill="#1f77b4" fill-opacity="0.6" />
<path d="M45.20098240192765,-192.77155181691262 A198.0,198.0,0,0,0,45.0998011410343,-192.79524874083168 C18.03992045641372,-77.11809949633268,26.69197761208909,74.56660332317502,66.72994403022273,186.41650830793753 A198.0,198.0,0,0,0,68.63481267414608,185.72361855505852 C27.453925069658432,74.28944742202341,18.08039296077106,-77.10862072676505,45.20098240192765,-192.77155181691262 Z" fill="#1f77b4" fill-opacity="0.6" />
<path d="M45.43690004216277,-192.71608161894147 A198.0,198.0,0,0,0,45.20098240192765,-192.77155181691262 C18.08039296077106,-77.10862072676505,46.214632227270414,64.31833150897293,115.53658056817602,160.79582877243232 A198.0,198.0,0,0,0,118.87752711088518,158.34182501158926 C47.551010844354074,63.33673000463571,18.174760016865108,-77.0864326475766,45.43690004216277,-192.71608161894147 Z" fill="#1f77b4" fill-opacity="0.6" />
<path d="M45.53874013362084,-192.69204225147067 A198.0,198.0,0,0,0,45.43690004216277,-192.71608161894147 C18.174760016865108,-77.0864326475766,70.76284768149173,35.57048478733456,176.90711920372934,88.92621196833639 A198.0,198.0,0,0,0,179.59031653612044,83.37456570475233 C71.83612661444818,33.34982628190093,18.215496053448337,-77.07681690058827,45.53874013362084,-192.69204225147067 Z" fill="#1f77b4" fill-opacity="0.6" />
<path d="M45.64979317884545,-192.66576339020028 A198.0,198.0,0,0,0,45.53874013362084,-192.69204225147067 C18.215496053448337,-77.07681690058827,78.48102215911919,10.647495520536374,196.20255539779797,26.618738801340932 A198.0,198.0,0,0,0,196.71525470308714,22.519071186431223 C78.68610188123486,9.00762847457249,18.259917271538182,-77.06630535608012,45.64979317884545,-192.66576339020028 Z" fill="#1f77b4" fill-opacity="0.6" />
<path d="M47.06348187156363,-192.32531989866806 A198.0,198.0,0,0,0,45.64979317884545,-192.66576339020028 C18.259917271538182,-77.06630535608012,79.19302999283855,1.0507143062583528,197.98257498209634,2.6267857656458817 A198.0,198.0,0,0,0,197.9900618072881,1.9837907012171063 C79.19602472291524,0.7935162804868425,18.825392748625454,-76.93012795946723,47.06348187156363,-192.32531989866806 Z" fill="#1f77b4" fill-opacity="0.6" />
<path d="M24.9254528801638,-196.4248502575953 A198.0,198.0,0,0,0,24.899197222116285,-196.42818020257215 C9.959678888846515,-78.57127208102887,-47.18541377176225,-63.60956474609451,-117.96353442940561,-159.02391186523627 A198.0,198.0,0,0,0,-117.96551808498134,-159.02244037538205 C-47.18620723399254,-63.60897615015282,9.970181152065521,-78.56994010303812,24.9254528801638,-196.4248502575953 Z" fill="#2ca02c" fill-opacity="0.6" />
<path d="M24.938580542215558,-196.42318396905043 A198.0,198.0,0,0,0,24.9254528801638,-196.4248502575953 C9.970181152065521,-78.56994010303812,-76.37239639557994,-20.97372329359786,-190.93099098894984,-52.43430823399465 A198.0,198.0,0,0,0,-190.9314028258676,-52.432808573890775 C-76.37256113034704,-20.97312342955631,9.975432216886224,-78.56927358762017,24.938580542215558,-196.42318396905043 Z" fill="#d62728" fill-opacity="0.6" />
<path d="M24.951708092874455,-196.42151680314453 A198.0,198.0,0,0,0,24.938580542215558,-196.42318396905043 C9.975432216886224,-78.56927358762017,-78.99984255972753,-5.627155190526132,-197.4996063993188,-14.06788797631533 A198.0,198.0,0,0,0,-197.4996755330195,-14.066917372047563 C-78.99987021320781,-5.626766948819025,9.980683237149783,-78.56860672125782,24.951708092874455,-196.42151680314453 Z" fill="#d62728" fill-opacity="0.6" />
<path d="M24.964835532081914,-196.419848759885 A198.0,198.0,0,0,0,24.951708092874455,-196.42151680314453 C9.980683237149783,-78.56860672125782,-51.47072958849724,60.19471733987788,-128.6768239712431,150.4867933496947 A198.0,198.0,0,0,0,-128.67562744163686,150.48781645867902 C-51.47025097665475,60.19512658347161,9.985934212832767,-78.56793950395401,24.964835532081914,-196.419848759885 Z" fill="#d62728" fill-opacity="0.6" />
<path d="M24.977962859779193,-196.41817983927936 A198.0,198.0,0,0,0,24.964835532081914,-196.419848759885 C9.985934212832767,-78.56793950395401,-21.99886524351163,76.08344056361948,-54.99716310877908,190.20860140904867 A198.0,198.0,0,0,0,-54.996630467897226,190.20875541671987 C-21.998652187158893,76.08350216668795,9.991185143911679,-78.56727193571174,24.977962859779193,-196.41817983927936 Z" fill="#9467bd" fill-opacity="0.6" />
<path d="M25.082977459956787,-196.40479689086848 A198.0,198.0,0,0,0,24.977962859779193,-196.41817983927936 C9.991185143911679,-78.56727193571174,10.379175479617484,78.51695814512499,25.947938699043707,196.29239536281244 A198.0,198.0,0,0,0,25.95751513894463,196.29112921324656 C10.383006055577852,78.51645168529863,10.033190983982715,-78.5619187563474,25.082977459956787,-196.40479689086848 Z" fill="#9467bd" fill-opacity="0.6" />
<path d="M25.096103781424393,-196.4031200744835 A198.0,198.0,0,0,0,25.082977459956787,-196.40479689086848 C10.033190983982715,-78.5619187563474,46.2142787716039,64.31858547589864,115.53569692900975,160.79646368974662 A198.0,198.0,0,0,0,115.53658056817602,160.79582877243232 C46.214632227270414,64.31833150897293,10.038441512569758,-78.5612480297934,25.096103781424393,-196.4031200744835 Z" fill="#8c564b" fill-opacity="0.6" />
<path d="M25.161733706142932,-196.39472283363713 A198.0,198.0,0,0,0,25.096103781424393,-196.4031200744835 C10.038441512569758,-78.5612480297934,78.4807370795606,10.649596586203742,196.2018426989015,26.623991465509352 A198.0,198.0,0,0,0,196.20255539779797,26.618738801340932 C78.48102215911919,10.647495520536374,10.064693482457173,-78.55788913345486,25.161733706142932,-196.39472283363713 Z" fill="#e377c2" fill-opacity="0.6" />
<path d="M25.2142356232566,-196.3879892507047 A198.0,198.0,0,0,0,25.161733706142932,-196.39472283363713 C10.064693482457173,-78.55788913345486,79.19302307133125,1.0512358553609549,197.98255767832813,2.628089638402387 A198.0,198.0,0,0,0,197.98257498209634,2.6267857656458817 C79.19302999283855,1.0507143062583528,10.085694249302641,-78.55519570028189,25.2142356232566,-196.3879892507047 Z" fill="#e377c2" fill-opacity="0.6" />
<path d="M16.323486002927236,-197.32598360254596 A198.0,198.0,0,0,0,16.311663390920206,-197.32696125319853 C6.524665356368082,-78.93078450127942,-78.99981527997699,-5.627538158868081,-197.49953819994244,-14.068845397170202 A198.0,198.0,0,0,0,-197.4996063993188,-14.06788797631533 C-78.99984255972753,-5.627155190526132,6.529394401170895,-78.9303934410184,16.323486002927236,-197.32598360254596 Z" fill="#d62728" fill-opacity="0.6" />
<path d="M16.33530855633811,-197.32500524355555 A198.0,198.0,0,0,0,16.323486002927236,-197.32598360254596 C6.529394401170895,-78.9303934410184,-51.47120169648165,60.194313651042705,-128.67800424120412,150.48578412760676 A198.0,198.0,0,0,0,-128.6768239712431,150.4867933496947 C-51.47072958849724,60.19471733987788,6.534123422535244,-78.93000209742223,16.33530855633811,-197.32500524355555 Z" fill="#d62728" fill-opacity="0.6" />
<path d="M16.3471310511104,-197.32402617623083 A198.0,198.0,0,0,0,16.33530855633811,-197.32500524355555 C6.534123422535244,-78.93000209742223,-15.338932544330689,77.70043209918767,-38.34733136082672,194.25108024796916 A198.0,198.0,0,0,0,-38.346754020437174,194.2511942205146 C-15.33870160817487,77.70047768820585,6.53885242044416,-78.92961047049234,16.3471310511104,-197.32402617623083 Z" fill="#9467bd" fill-opacity="0.6" />
<path d="M16.465352764374316,-197.3141965453695 A198.0,198.0,0,0,0,16.3471310511104,-197.32402617623083 C6.53885242044416,-78.92961047049234,10.374452260903896,78.51758236399174,25.936130652259738,196.29395590997933 A198.0,198.0,0,0,0,25.947938699043707,196.29239536281244 C10.379175479617484,78.51695814512499,6.586141105749727,-78.9256786181478,16.465352764374316,-197.3141965453695 Z" fill="#9467bd" fill-opacity="0.6" />
<path d="M16.488996399120232,-197.31222211953775 A198.0,198.0,0,0,0,16.465352764374316,-197.3141965453695 C6.586141105749727,-78.9256786181478,79.19301965631794,1.051493087966032,197.98254914079484,2.62873271991508 A198.0,198.0,0,0,0,197.98255767832813,2.628089638402387 C79.19302307133125,1.0512358553609549,6.595598559648093,-78.92488884781511,16.488996399120232,-197.31222211953775 Z" fill="#e377c2" fill-opacity="0.6" />
<path d="M7.446679829505439,-197.8599175161984 A198.0,198.0,0,0,0,7.396611705443639,-197.86179554244143 C2.9586446821774555,-79.14471821697657,-47.183784767990346,-63.61077310462405,-117.95946191997587,-159.02693276156012 A198.0,198.0,0,0,0,-117.96353442940561,-159.02391186523627 C-47.18541377176225,-63.60956474609451,2.9786719318021757,-79.14396700647937,7.446679829505439,-197.8599175161984 Z" fill="#2ca02c" fill-opacity="0.6" />
<path d="M7.8597233632665695,-197.84394038901704 A198.0,198.0,0,0,0,7.446679829505439,-197.8599175161984 C2.9786719318021757,-79.14396700647937,-76.36681329512469,-20.99404265851545,-190.91703323781172,-52.48510664628862 A198.0,198.0,0,0,0,-190.93099098894984,-52.43430823399465 C-76.37239639557994,-20.97372329359786,3.143889345306628,-79.13757615560682,7.8597233632665695,-197.84394038901704 Z" fill="#d62728" fill-opacity="0.6" />
<path d="M7.872239308334112,-197.84344277299746 A198.0,198.0,0,0,0,7.8597233632665695,-197.84394038901704 C3.143889345306628,-79.13757615560682,-73.49844886161931,29.506236881987043,-183.74612215404827,73.7655922049676 A198.0,198.0,0,0,0,-183.74553326307316,73.76705908377315 C-73.49821330522927,29.50682363350926,3.148895723333645,-79.137377109199,7.872239308334112,-197.84344277299746 Z" fill="#d62728" fill-opacity="0.6" />
<path d="M8.885921794608842,-197.80050655612615 A198.0,198.0,0,0,0,7.872239308334112,-197.84344277299746 C3.148895723333645,-79.137377109199,-51.51098501159768,60.160272798043074,-128.7774625289942,150.40068199510767 A198.0,198.0,0,0,0,-128.67800424120412,150.48578412760676 C-51.47120169648165,60.194313651042705,3.5543687178435373,-79.12020262245046,8.885921794608842,-197.80050655612615 Z" fill="#d62728" fill-opacity="0.6" />
<path d="M8.898434989921187,-197.79994402104907 A198.0,198.0,0,0,0,8.885921794608842,-197.80050655612615 C3.5543687178435373,-79.12020262245046,-15.339172864674135,77.70038465688343,-38.347932161685335,194.25096164220855 A198.0,198.0,0,0,0,-38.34733136082672,194.25108024796916 C-15.338932544330689,77.70043209918767,3.5593739959684747,-79.11997760841963,8.898434989921187,-197.79994402104907 Z" fill="#9467bd" fill-opacity="0.6" />
<path d="M8.961000431301022,-197.79711947161977 A198.0,198.0,0,0,0,8.898434989921187,-197.79994402104907 C3.5593739959684747,-79.11997760841963,10.371994670239548,78.51790704393822,25.92998667559887,196.29476760984554 A198.0,198.0,0,0,0,25.936130652259738,196.29395590997933 C10.374452260903896,78.51758236399174,3.584400172520409,-79.11884778864791,8.961000431301022,-197.79711947161977 Z" fill="#9467bd" fill-opacity="0.6" />
<path d="M8.973513412190119,-197.79655218694091 A198.0,198.0,0,0,0,8.961000431301022,-197.79711947161977 C3.584400172520409,-79.11884778864791,46.213915947286154,64.31884617137632,115.53478986821537,160.7971154284408 A198.0,198.0,0,0,0,115.53569692900975,160.79646368974662 C46.2142787716039,64.31858547589864,3.5894053648760478,-79.11862087477637,8.973513412190119,-197.79655218694091 Z" fill="#8c564b" fill-opacity="0.6" />
<path d="M8.998539266180753,-197.79541524280842 A198.0,198.0,0,0,0,8.973513412190119,-197.79655218694091 C3.5894053648760478,-79.11862087477637,78.48062000940284,10.650459283041213,196.20155002350708,26.62614820760303 A198.0,198.0,0,0,0,196.2018426989015,26.623991465509352 C78.4807370795606,10.649596586203742,3.5994157064723016,-79.11816609712338,8.998539266180753,-197.79541524280842 Z" fill="#e377c2" fill-opacity="0.6" />
<path d="M9.011052139182178,-197.79484558335926 A198.0,198.0,0,0,0,8.998539266180753,-197.79541524280842 C3.5994157064723016,-79.11816609712338,79.1930178790945,1.0516269307217607,197.98254469773624,2.629067326804402 A198.0,198.0,0,0,0,197.98254914079484,2.62873271991508 C79.19301965631794,1.051493087966032,3.6044208556728714,-79.11793823334371,9.011052139182178,-197.79484558335926 Z" fill="#e377c2" fill-opacity="0.6" />
<path d="M-54.49489171677148,-190.35311076201867 A198.0,198.0,0,0,0,-56.650022085383334,-189.7228900204864 C-22.660008834153334,-75.88915600819456,-47.01897959384445,-63.73268830006812,-117.54744898461112,-159.3317207501703 A198.0,198.0,0,0,0,-117.95946191997587,-159.02693276156012 C-47.183784767990346,-63.61077310462405,-21.79795668670859,-76.14124430480747,-54.49489171677148,-190.35311076201867 Z" fill="#2ca02c" fill-opacity="0.6" />
<path d="M-54.009011677542404,-190.4915395958967 A198.0,198.0,0,0,0,-54.49489171677148,-190.35311076201867 C-21.79795668670859,-76.14124430480747,-54.544239675137675,-57.42443659506934,-136.36059918784417,-143.56109148767334 A198.0,198.0,0,0,0,-136.660826050089,-143.27532454441453 C-54.66433042003561,-57.31012981776581,-21.603604671016964,-76.19661583835868,-54.009011677542404,-190.4915395958967 Z" fill="#2ca02c" fill-opacity="0.6" />
<path d="M-53.46873269733177,-190.6438947979748 A198.0,198.0,0,0,0,-54.009011677542404,-190.4915395958967 C-21.603604671016964,-76.19661583835868,-21.99992414378344,76.08313438382895,-54.99981035945859,190.20783595957238 A198.0,198.0,0,0,0,-54.99716310877908,190.20860140904867 C-21.99886524351163,76.08344056361948,-21.387493078932707,-76.25755791918992,-53.46873269733177,-190.6438947979748 Z" fill="#9467bd" fill-opacity="0.6" />
<path d="M-53.36062518981622,-190.6741819947104 A198.0,198.0,0,0,0,-53.46873269733177,-190.6438947979748 C-21.387493078932707,-76.25755791918992,10.371518707964501,78.51796991574822,25.92879676991125,196.29492478937055 A198.0,198.0,0,0,0,25.92998667559887,196.29476760984554 C10.371994670239548,78.51790704393822,-21.34425007592649,-76.26967279788417,-53.36062518981622,-190.6741819947104 Z" fill="#9467bd" fill-opacity="0.6" />
<path d="M-53.198431771776704,-190.7194978417876 A198.0,198.0,0,0,0,-53.36062518981622,-190.6741819947104 C-21.34425007592649,-76.26967279788417,79.19301529723273,1.0518213404676284,197.98253824308182,2.629553351169071 A198.0,198.0,0,0,0,197.98254469773624,2.629067326804402 C79.1930178790945,1.0516269307217607,-21.27937270871068,-76.28779913671504,-53.198431771776704,-190.7194978417876 Z" fill="#e377c2" fill-opacity="0.6" />
<path d="M-120.66722283591355,-156.98223253944371 A198.0,198.0,0,0,0,-120.95145270829525,-156.76334420952182 C-48.380581083318106,-62.70533768380873,-54.15834565984632,-57.788524772558496,-135.3958641496158,-144.47131193139623 A198.0,198.0,0,0,0,-136.36059918784417,-143.56109148767334 C-54.544239675137675,-57.42443659506934,-48.26688913436542,-62.79289301577749,-120.66722283591355,-156.98223253944371 Z" fill="#2ca02c" fill-opacity="0.6" />
<path d="M-120.62658620984877,-157.01346024897967 A198.0,198.0,0,0,0,-120.66722283591355,-156.98223253944371 C-48.26688913436542,-62.79289301577749,-51.51118352090081,60.16010282800451,-128.77795880225202,150.40025707001126 A198.0,198.0,0,0,0,-128.7774625289942,150.40068199510767 C-51.51098501159768,60.160272798043074,-48.25063448393951,-62.80538409959187,-120.62658620984877,-157.01346024897967 Z" fill="#d62728" fill-opacity="0.6" />
<path d="M-119.8937476482379,-157.57375820504075 A198.0,198.0,0,0,0,-120.62658620984877,-157.01346024897967 C-48.25063448393951,-62.80538409959187,-22.001515662876212,76.08267416788276,-55.003789157190525,190.20668541970687 A198.0,198.0,0,0,0,-54.99981035945859,190.20783595957238 C-21.99992414378344,76.08313438382895,-47.957499059295166,-63.0295032820163,-119.8937476482379,-157.57375820504075 Z" fill="#9467bd" fill-opacity="0.6" />
<path d="M-119.89218753391316,-157.5749452429954 A198.0,198.0,0,0,0,-119.8937476482379,-157.57375820504075 C-47.957499059295166,-63.0295032820163,46.15778935890983,64.3591367367409,115.39447339727457,160.89784184185223 A198.0,198.0,0,0,0,115.53478986821537,160.7971154284408 C46.213915947286154,64.31884617137632,-47.956875013565266,-63.02997809719816,-119.89218753391316,-157.5749452429954 Z" fill="#2ca02c" fill-opacity="0.6" />
<path d="M-151.09644019752852,-127.96040700011346 A198.0,198.0,0,0,0,-151.1010067057471,-127.95501464385744 C-60.44040268229884,-51.182005857542975,-78.97413893180003,-5.977071187525588,-197.43534732950005,-14.94267796881397 A198.0,198.0,0,0,0,-197.49953819994244,-14.068845397170202 C-78.99981527997699,-5.627538158868081,-60.43857607901141,-51.184162800045385,-151.09644019752852,-127.96040700011346 Z" fill="#2ca02c" fill-opacity="0.6" />
<path d="M-150.98924007043834,-128.0868821657844 A198.0,198.0,0,0,0,-151.09644019752852,-127.96040700011346 C-60.43857607901141,-51.184162800045385,10.370507070517718,78.51810353733936,25.926267676294295,196.29525884334836 A198.0,198.0,0,0,0,25.92879676991125,196.29492478937055 C10.371518707964501,78.51796991574822,-60.39569602817534,-51.23475286631376,-150.98924007043834,-128.0868821657844 Z" fill="#9467bd" fill-opacity="0.6" />
<path d="M-150.93560030247502,-128.15008607617673 A198.0,198.0,0,0,0,-150.98924007043834,-128.0868821657844 C-60.39569602817534,-51.23475286631376,79.19301346773395,1.0519590768231504,197.98253366933486,2.6298976920578756 A198.0,198.0,0,0,0,197.98253824308182,2.629553351169071 C79.19301529723273,1.0518213404676284,-60.37424012099001,-51.2600344304707,-150.93560030247502,-128.15008607617673 Z" fill="#e377c2" fill-opacity="0.6" />
<path d="M-191.90980047503618,-48.730159876936625 A198.0,198.0,0,0,0,-191.91111333245252,-48.72498927140531 C-76.76444533298101,-19.489995708562127,-78.96395065003276,-6.110196211186035,-197.4098766250819,-15.275490527965086 A198.0,198.0,0,0,0,-197.43534732950005,-14.94267796881397 C-78.97413893180003,-5.977071187525588,-76.76392019001447,-19.49206395077465,-191.90980047503618,-48.730159876936625 Z" fill="#d62728" fill-opacity="0.6" />
<path d="M-191.8907792948405,-48.80500816124108 A198.0,198.0,0,0,0,-191.90980047503618,-48.730159876936625 C-76.76392019001447,-19.49206395077465,-77.97277930032863,13.88832920772855,-194.93194825082153,34.72082301932137 A198.0,198.0,0,0,0,-183.74612215404827,73.7655922049676 C-73.49844886161931,29.506236881987043,-76.75631171793621,-19.522003264496433,-191.8907792948405,-48.80500816124108 Z" fill="#d62728" fill-opacity="0.6" />
<path d="M-191.87172892246485,-48.87984902088143 A198.0,198.0,0,0,0,-191.8907792948405,-48.80500816124108 C-76.75631171793621,-19.522003264496433,-51.63279157698961,60.055764369185674,-129.08197894247402,150.13941092296417 A198.0,198.0,0,0,0,-128.77795880225202,150.40025707001126 C-51.51118352090081,60.16010282800451,-76.74869156898595,-19.551939608352573,-191.87172892246485,-48.87984902088143 Z" fill="#d62728" fill-opacity="0.6" />
<path d="M-191.85828431583974,-48.93259383460478 A198.0,198.0,0,0,0,-191.87172892246485,-48.87984902088143 C-76.74869156898595,-19.551939608352573,-28.330195455505987,73.95971893843857,-70.82548863876497,184.89929734609643 A198.0,198.0,0,0,0,-66.81111776483006,186.3874312903475 C-26.724447105932025,74.554972516139,-76.7433137263359,-19.573037533841912,-191.85828431583974,-48.93259383460478 Z" fill="#d62728" fill-opacity="0.6" />
<path d="M-191.85751956358325,-48.93559223008612 A198.0,198.0,0,0,0,-191.85828431583974,-48.93259383460478 C-76.7433137263359,-19.573037533841912,-22.04390417832884,76.07040349949943,-55.1097604458221,190.1760087487486 A198.0,198.0,0,0,0,-55.003789157190525,190.20668541970687 C-22.001515662876212,76.08267416788276,-76.74300782543331,-19.57423689203445,-191.85751956358325,-48.93559223008612 Z" fill="#d62728" fill-opacity="0.6" />
<path d="M-191.85297674734932,-48.95339940372925 A198.0,198.0,0,0,0,-191.85751956358325,-48.93559223008612 C-76.74300782543331,-19.57423689203445,-15.615728487080753,77.64527689317475,-39.03932121770188,194.11319223293685 A198.0,198.0,0,0,0,-38.347932161685335,194.25096164220855 C-15.339172864674135,77.70038465688343,-76.74119069893973,-19.5813597614917,-191.85297674734932,-48.95339940372925 Z" fill="#d62728" fill-opacity="0.6" />
<path d="M-191.8503482854183,-48.96369943911194 A198.0,198.0,0,0,0,-191.85297674734932,-48.95339940372925 C-76.74119069893973,-19.5813597614917,16.563150196530724,77.4487059644457,41.40787549132681,193.6217649111142 A198.0,198.0,0,0,0,41.492154643245144,193.60372182130442 C16.59686185729806,77.44148872852178,-76.74013931416732,-19.585479775644778,-191.8503482854183,-48.96369943911194 Z" fill="#d62728" fill-opacity="0.6" />
<path d="M-191.8499583268631,-48.96522735555197 A198.0,198.0,0,0,0,-191.8503482854183,-48.96369943911194 C-76.74013931416732,-19.585479775644778,26.670166200190693,74.57440737179348,66.67541550047673,186.4360184294837 A198.0,198.0,0,0,0,66.72994403022273,186.41650830793753 C26.69197761208909,74.56660332317502,-76.73998333074523,-19.58609094222079,-191.8499583268631,-48.96522735555197 Z" fill="#d62728" fill-opacity="0.6" />
<path d="M-191.8466000244989,-48.97838358949734 A198.0,198.0,0,0,0,-191.8499583268631,-48.96522735555197 C-76.73998333074523,-19.58609094222079,45.84846638492026,64.57985854855086,114.62116596230064,161.44964637137713 A198.0,198.0,0,0,0,115.39447339727457,160.89784184185223 C46.15778935890983,64.3591367367409,-76.73864000979957,-19.591353435798936,-191.8466000244989,-48.97838358949734 Z" fill="#d62728" fill-opacity="0.6" />
<path d="M-191.63469755530352,-49.80103104241262 A198.0,198.0,0,0,0,-191.8466000244989,-48.97838358949734 C-76.73864000979957,-19.591353435798936,70.73676348173997,35.62232856128835,176.84190870434992,89.05582140322086 A198.0,198.0,0,0,0,176.90711920372934,88.92621196833639 C70.76284768149173,35.57048478733456,-76.65387902212142,-19.92041241696505,-191.63469755530352,-49.80103104241262 Z" fill="#e377c2" fill-opacity="0.6" />
<path d="M-191.6343471051062,-49.802379557604176 A198.0,198.0,0,0,0,-191.63469755530352,-49.80103104241262 C-76.65387902212142,-19.92041241696505,78.47550192871762,10.688105399734797,196.18875482179402,26.72026349933699 A198.0,198.0,0,0,0,196.20155002350708,26.62614820760303 C78.48062000940284,10.650459283041213,-76.65373884204249,-19.920951823041673,-191.6343471051062,-49.802379557604176 Z" fill="#d62728" fill-opacity="0.6" />
<path d="M-191.63399637499944,-49.80372911084773 A198.0,198.0,0,0,0,-191.6343471051062,-49.802379557604176 C-76.65373884204249,-19.920951823041673,79.19285731314481,1.0636496509134712,197.982143282862,2.659124127283678 A198.0,198.0,0,0,0,197.98253366933486,2.6298976920578756 C79.19301346773395,1.0519590768231504,-76.65359854999978,-19.921491644339095,-191.63399637499944,-49.80372911084773 Z" fill="#d62728" fill-opacity="0.6" />
<path d="M-197.82111784586957,-8.414590555136126 A198.0,198.0,0,0,0,-197.95036301642412,4.433258583244248 C-79.18014520656965,1.7733034332976993,-77.98700260719208,13.808237553931916,-194.96750651798018,34.520593884829786 A198.0,198.0,0,0,0,-194.93194825082153,34.72082301932137 C-77.97277930032863,13.88832920772855,-79.12844713834784,-3.3658362220544507,-197.82111784586957,-8.414590555136126 Z" fill="#d62728" fill-opacity="0.6" />
<path d="M-197.8175539758188,-8.497960874469692 A198.0,198.0,0,0,0,-197.82111784586957,-8.414590555136126 C-79.12844713834784,-3.3658362220544507,-51.633201067501446,60.05541230832545,-129.0830026687536,150.13853077081362 A198.0,198.0,0,0,0,-129.08197894247402,150.13941092296417 C-51.63279157698961,60.055764369185674,-79.12702159032753,-3.399184349787877,-197.8175539758188,-8.497960874469692 Z" fill="#d62728" fill-opacity="0.6" />
<path d="M-197.77404424674913,-9.456607334817113 A198.0,198.0,0,0,0,-197.8175539758188,-8.497960874469692 C-79.12702159032753,-3.399184349787877,-28.334701629462224,73.95799269564684,-70.83675407365556,184.8949817391171 A198.0,198.0,0,0,0,-70.82548863876497,184.89929734609643 C-28.330195455505987,73.95971893843857,-79.10961769869965,-3.7826429339268453,-197.77404424674913,-9.456607334817113 Z" fill="#d62728" fill-opacity="0.6" />
<path d="M-197.77402112846306,-9.457090814740685 A198.0,198.0,0,0,0,-197.77404424674913,-9.456607334817113 C-79.10961769869965,-3.7826429339268453,-22.05450023839647,76.06733214221839,-55.13625059599118,190.16833035554598 A198.0,198.0,0,0,0,-55.1097604458221,190.1760087487486 C-22.04390417832884,76.07040349949943,-79.10960845138523,-3.782836325896274,-197.77402112846306,-9.457090814740685 Z" fill="#d62728" fill-opacity="0.6" />
<path d="M-197.7720239073257,-9.49876621462999 A198.0,198.0,0,0,0,-197.77402112846306,-9.457090814740685 C-79.10960845138523,-3.782836325896274,10.370301756434628,78.51813065452137,25.925754391086567,196.29532663630343 A198.0,198.0,0,0,0,25.926267676294295,196.29525884334836 C10.370507070517718,78.51810353733936,-79.10880956293028,-3.799506485851996,-197.7720239073257,-9.49876621462999 Z" fill="#9467bd" fill-opacity="0.6" />
<path d="M-197.77197832211698,-9.499715288159418 A198.0,198.0,0,0,0,-197.7720239073257,-9.49876621462999 C-79.10880956293028,-3.799506485851996,16.558333988643408,77.44973580019843,41.395834971608515,193.62433950049606 A198.0,198.0,0,0,0,41.40787549132681,193.6217649111142 C16.563150196530724,77.4487059644457,-79.10879132884679,-3.7998861152637673,-197.77197832211698,-9.499715288159418 Z" fill="#d62728" fill-opacity="0.6" />
<path d="M-197.77103058412618,-9.519425491731697 A198.0,198.0,0,0,0,-197.77197832211698,-9.499715288159418 C-79.10879132884679,-3.7998861152637673,26.233461287844484,74.72914765243323,65.58365321961121,186.82286913108305 A198.0,198.0,0,0,0,66.67541550047673,186.4360184294837 C26.670166200190693,74.57440737179348,-79.10841223365048,-3.807770196692679,-197.77103058412618,-9.519425491731697 Z" fill="#d62728" fill-opacity="0.6" />
<path d="M-197.77084488508618,-9.523282702891082 A198.0,198.0,0,0,0,-197.77103058412618,-9.519425491731697 C-79.10841223365048,-3.807770196692679,45.707515694777506,64.67969549257069,114.26878923694376,161.6992387314267 A198.0,198.0,0,0,0,114.62116596230064,161.44964637137713 C45.84846638492026,64.57985854855086,-79.10833795403448,-3.809313081156433,-197.77084488508618,-9.523282702891082 Z" fill="#d62728" fill-opacity="0.6" />
<path d="M-197.76681376480087,-9.606631736387456 A198.0,198.0,0,0,0,-197.77084488508618,-9.523282702891082 C-79.10833795403448,-3.809313081156433,70.73649724645477,35.62285723102929,176.84124311613692,89.05714307757323 A198.0,198.0,0,0,0,176.84190870434992,89.05582140322086 C70.73676348173997,35.62232856128835,-79.10672550592035,-3.8426526945549826,-197.76681376480087,-9.606631736387456 Z" fill="#e377c2" fill-opacity="0.6" />
<path d="M-197.76274751769455,-9.689979063579095 A198.0,198.0,0,0,0,-197.76681376480087,-9.606631736387456 C-79.10672550592035,-3.8426526945549826,79.19285581126032,1.063761466182237,197.98213952815078,2.6594036654555926 A198.0,198.0,0,0,0,197.982143282862,2.659124127283678 C79.19285731314481,1.0636496509134712,-79.10509900707783,-3.875991625431638,-197.76274751769455,-9.689979063579095 Z" fill="#e377c2" fill-opacity="0.6" />
<path d="M-182.12941140109442,77.67160036133477 A198.0,198.0,0,0,0,-176.26008102582662,90.20190594864962 C-70.50403241033065,36.08076237945985,-51.69392551694369,60.00315045602754,-129.23481379235923,150.00787614006884 A198.0,198.0,0,0,0,-129.0830026687536,150.13853077081362 C-51.633201067501446,60.05541230832545,-72.85176456043777,31.06864014453391,-182.12941140109442,77.67160036133477 Z" fill="#d62728" fill-opacity="0.6" />
<path d="M-182.18869185241334,77.53244844003302 A198.0,198.0,0,0,0,-182.12941140109442,77.67160036133477 C-72.85176456043777,31.06864014453391,-28.540204936867617,73.87893273566964,-71.35051234216904,184.69733183917407 A198.0,198.0,0,0,0,-70.83675407365556,184.8949817391171 C-28.334701629462224,73.95799269564684,-72.87547674096534,31.01297937601321,-182.18869185241334,77.53244844003302 Z" fill="#d62728" fill-opacity="0.6" />
<path d="M-182.22076978222347,77.45702718265085 A198.0,198.0,0,0,0,-182.18869185241334,77.53244844003302 C-72.87547674096534,31.01297937601321,-23.185764162040943,75.73018117119632,-57.964410405102356,189.3254529279908 A198.0,198.0,0,0,0,-55.13625059599118,190.16833035554598 C-22.05450023839647,76.06733214221839,-72.88830791288939,30.98281087306034,-182.22076978222347,77.45702718265085 Z" fill="#d62728" fill-opacity="0.6" />
<path d="M-182.2225493376083,77.45284057349286 A198.0,198.0,0,0,0,-182.22076978222347,77.45702718265085 C-72.88830791288939,30.98281087306034,-15.684836597606925,77.63134612324052,-39.21209149401731,194.0783653081013 A198.0,198.0,0,0,0,-39.03932121770188,194.11319223293685 C-15.615728487080753,77.64527689317475,-72.88901973504333,30.981136229397148,-182.2225493376083,77.45284057349286 Z" fill="#d62728" fill-opacity="0.6" />
<path d="M-182.51008051064773,76.77285009687273 A198.0,198.0,0,0,0,-182.2225493376083,77.45284057349286 C-72.88901973504333,30.981136229397148,14.186209833166224,77.91913404658305,35.465524582915556,194.79783511645763 A198.0,198.0,0,0,0,41.395834971608515,193.62433950049606 C16.558333988643408,77.44973580019843,-73.00403220425909,30.709140038749094,-182.51008051064773,76.77285009687273 Z" fill="#d62728" fill-opacity="0.6" />
<path d="M-182.51462073121377,76.76205585666132 A198.0,198.0,0,0,0,-182.51008051064773,76.77285009687273 C-73.00403220425909,30.709140038749094,26.069464694972442,74.7865162346635,65.1736617374311,186.96629058665872 A198.0,198.0,0,0,0,65.58365321961121,186.82286913108305 C26.233461287844484,74.72914765243323,-73.00584829248551,30.704822342664528,-182.51462073121377,76.76205585666132 Z" fill="#d62728" fill-opacity="0.6" />
<path d="M-182.52172749932797,76.74515613809814 A198.0,198.0,0,0,0,-182.51462073121377,76.76205585666132 C-73.00584829248551,30.704822342664528,45.283361921161564,64.97735861911512,113.2084048029039,162.4433965477878 A198.0,198.0,0,0,0,114.26878923694376,161.6992387314267 C45.707515694777506,64.67969549257069,-73.00869099973119,30.698062455239256,-182.52172749932797,76.74515613809814 Z" fill="#d62728" fill-opacity="0.6" />
<path d="M-183.10265514936566,75.34864084542255 A198.0,198.0,0,0,0,-182.52172749932797,76.74515613809814 C-73.00869099973119,30.698062455239256,70.72344070844393,35.64877184924071,176.8086017711098,89.12192962310176 A198.0,198.0,0,0,0,176.84124311613692,89.05714307757323 C70.73649724645477,35.62285723102929,-73.24106205974627,30.139456338169023,-183.10265514936566,75.34864084542255 Z" fill="#e377c2" fill-opacity="0.6" />
<path d="M-125.14458336436898,153.43674023700615 A198.0,198.0,0,0,0,-125.13970337841585,153.44072027451546 C-50.05588135136634,61.37628810980618,-28.722689405191012,73.80817782151873,-71.80672351297753,184.5204445537968 A198.0,198.0,0,0,0,-71.35051234216904,184.69733183917407 C-28.540204936867617,73.87893273566964,-50.057833345747596,61.37469609480246,-125.14458336436898,153.43674023700615 Z" fill="#d62728" fill-opacity="0.6" />
<path d="M-125.14577463583517,153.43576861604583 A198.0,198.0,0,0,0,-125.14458336436898,153.43674023700615 C-50.057833345747596,61.37469609480246,14.181364376133955,77.92001607052786,35.453410940334884,194.80004017631964 A198.0,198.0,0,0,0,35.465524582915556,194.79783511645763 C14.186209833166224,77.91913404658305,-50.05830985433407,61.374307446418335,-125.14577463583517,153.43576861604583 Z" fill="#d62728" fill-opacity="0.6" />
<path d="M-125.46032894910223,153.1786729932828 A198.0,198.0,0,0,0,-125.14577463583517,153.43576861604583 C-50.05830985433407,61.374307446418335,20.43532508540943,76.51821671114426,51.08831271352357,191.29554177786065 A198.0,198.0,0,0,0,65.1736617374311,186.96629058665872 C26.069464694972442,74.7865162346635,-50.1841315796409,61.27146919731312,-125.46032894910223,153.1786729932828 Z" fill="#d62728" fill-opacity="0.6" />
<path d="M-125.49222697706601,153.1525415013951 A198.0,198.0,0,0,0,-125.46032894910223,153.1786729932828 C-50.1841315796409,61.27146919731312,44.34342606007359,65.62240901745979,110.85856515018396,164.05602254364948 A198.0,198.0,0,0,0,113.2084048029039,162.4433965477878 C45.283361921161564,64.97735861911512,-50.19689079082641,61.26101660055804,-125.49222697706601,153.1525415013951 Z" fill="#d62728" fill-opacity="0.6" />
<path d="M-125.59548250488903,153.06787636327914 A198.0,198.0,0,0,0,-125.49222697706601,153.1525415013951 C-50.19689079082641,61.26101660055804,70.7103746765023,35.674681681952876,176.77593669125574,89.18670420488219 A198.0,198.0,0,0,0,176.8086017711098,89.12192962310176 C70.72344070844393,35.64877184924071,-50.238193001955615,61.22715054531166,-125.59548250488903,153.06787636327914 Z" fill="#e377c2" fill-opacity="0.6" />
<path d="M-125.69868091217356,152.9831416102427 A198.0,198.0,0,0,0,-125.59548250488903,153.06787636327914 C-50.238193001955615,61.22715054531166,79.19285432566453,1.0638720571940736,197.9821358141613,2.659680142985184 A198.0,198.0,0,0,0,197.98213952815078,2.6594036654555926 C79.19285581126032,1.063761466182237,-50.27947236486943,61.19325664409709,-125.69868091217356,152.9831416102427 Z" fill="#e377c2" fill-opacity="0.6" />
<path d="M-63.79527407212156,187.44109209579125 A198.0,198.0,0,0,0,-63.784905289140625,187.44462077439127 C-25.513962115656252,74.97784830975651,-23.375570967337392,75.6718090305166,-58.438927418343475,189.1795225762915 A198.0,198.0,0,0,0,-57.964410405102356,189.3254529279908 C-23.185764162040943,75.73018117119632,-25.518109628848624,74.9764368383165,-63.79527407212156,187.44109209579125 Z" fill="#d62728" fill-opacity="0.6" />
<path d="M-63.8397463208323,187.42595015016406 A198.0,198.0,0,0,0,-63.79527407212156,187.44109209579125 C-25.518109628848624,74.9764368383165,-16.58209120894252,77.44465282469999,-41.455228022356295,193.61163206174996 A198.0,198.0,0,0,0,-39.21209149401731,194.0783653081013 C-15.684836597606925,77.63134612324052,-25.535898528332922,74.97038006006562,-63.8397463208323,187.42595015016406 Z" fill="#d62728" fill-opacity="0.6" />
<path d="M-63.897639842240224,187.40622087484545 A198.0,198.0,0,0,0,-63.8397463208323,187.42595015016406 C-25.535898528332922,74.97038006006562,10.370062341041569,78.51816227499796,25.925155852603922,196.29540568749488 A198.0,198.0,0,0,0,25.925754391086567,196.29532663630343 C10.370301756434628,78.51813065452137,-25.55905593689609,74.96248834993818,-63.897639842240224,187.40622087484545 Z" fill="#9467bd" fill-opacity="0.6" />
<path d="M-63.901031532471215,187.40506441685648 A198.0,198.0,0,0,0,-63.897639842240224,187.40622087484545 C-25.55905593689609,74.96248834993818,14.166827676074298,77.9226603344394,35.41706919018574,194.8066508360985 A198.0,198.0,0,0,0,35.453410940334884,194.80004017631964 C14.181364376133955,77.92001607052786,-25.560412612988486,74.9620257667426,-63.901031532471215,187.40506441685648 Z" fill="#d62728" fill-opacity="0.6" />
<path d="M-63.911010162308656,187.40166162559305 A198.0,198.0,0,0,0,-63.901031532471215,187.40506441685648 C-25.560412612988486,74.9620257667426,20.245022729408657,76.56878642557767,50.612556823521636,191.42196606394415 A198.0,198.0,0,0,0,51.08831271352357,191.29554177786065 C20.43532508540943,76.51821671114426,-25.564404064923465,74.96066465023722,-63.911010162308656,187.40166162559305 Z" fill="#d62728" fill-opacity="0.6" />
<path d="M-63.913767003505455,187.40072141649193 A198.0,198.0,0,0,0,-63.911010162308656,187.40166162559305 C-25.564404064923465,74.96066465023722,44.25751884558714,65.68037778235217,110.64379711396785,164.2009444558804 A198.0,198.0,0,0,0,110.85856515018396,164.05602254364948 C44.34342606007359,65.62240901745979,-25.565506801402183,74.96028856659677,-63.913767003505455,187.40072141649193 Z" fill="#d62728" fill-opacity="0.6" />
<path d="M-63.924475065889325,187.39706904738532 A198.0,198.0,0,0,0,-63.913767003505455,187.40072141649193 C-25.565506801402183,74.96028856659677,70.42052357289761,36.24348023740233,176.051308932244,90.60870059350583 A198.0,198.0,0,0,0,176.77593669125574,89.18670420488219 C70.7103746765023,35.674681681952876,-25.569790026355733,74.95882761895413,-63.924475065889325,187.39706904738532 Z" fill="#d62728" fill-opacity="0.6" />
<path d="M-51.083710922843885,191.29677069504157 A198.0,198.0,0,0,0,-50.97711579027534,191.32520394789825 C-20.39084631611014,76.5300815791593,10.369109598008691,78.51828809993559,25.922773995021725,196.29572024983895 A198.0,198.0,0,0,0,25.925155852603922,196.29540568749488 C10.370062341041569,78.51816227499796,-20.433484369137556,76.51870827801663,-51.083710922843885,191.29677069504157 Z" fill="#9467bd" fill-opacity="0.6" />
<path d="M-51.084797255873596,191.29648059837976 A198.0,198.0,0,0,0,-51.083710922843885,191.29677069504157 C-20.433484369137556,76.51870827801663,20.2002274747279,76.58061641152575,50.50056868681975,191.45154102881438 A198.0,198.0,0,0,0,50.612556823521636,191.42196606394415 C20.245022729408657,76.56878642557767,-20.43391890234944,76.5185922393519,-51.084797255873596,191.29648059837976 Z" fill="#9467bd" fill-opacity="0.6" />
<path d="M-51.08959653319634,191.29519891015354 A198.0,198.0,0,0,0,-51.084797255873596,191.29648059837976 C-20.43391890234944,76.5185922393519,78.42332810933989,11.064429865782488,196.05832027334972,27.66107466445622 A198.0,198.0,0,0,0,196.18875482179402,26.72026349933699 C78.47550192871762,10.688105399734797,-20.435838613278538,76.51807956406142,-51.08959653319634,191.29519891015354 Z" fill="#9467bd" fill-opacity="0.6" />
<path d="M-51.116242620653686,191.28808049731293 A198.0,198.0,0,0,0,-51.08959653319634,191.29519891015354 C-20.435838613278538,76.51807956406142,79.19188095993324,1.1340150033242142,197.9797023998331,2.8350375083105357 A198.0,198.0,0,0,0,197.9821358141613,2.659680142985184 C79.19285432566453,1.0638720571940736,-20.446497048261477,76.51523219892518,-51.116242620653686,191.28808049731293 Z" fill="#9467bd" fill-opacity="0.6" />
<path d="M-37.36499961707024,194.44242542103905 A198.0,198.0,0,0,0,-37.30730503146811,194.45350341736966 C-14.922922012587245,77.78140136694788,10.368638070383536,78.51835036833998,25.92159517595884,196.29587592084994 A198.0,198.0,0,0,0,25.922773995021725,196.29572024983895 C10.369109598008691,78.51828809993559,-14.945999846828096,77.77697016841563,-37.36499961707024,194.44242542103905 Z" fill="#9467bd" fill-opacity="0.6" />
<path d="M-37.36592963947358,194.44224670111666 A198.0,198.0,0,0,0,-37.36499961707024,194.44242542103905 C-14.945999846828096,77.77697016841563,44.200205259823264,65.71896115269544,110.50051314955815,164.2974028817386 A198.0,198.0,0,0,0,110.64379711396785,164.2009444558804 C44.25751884558714,65.68037778235217,-14.946371855789431,77.77689868044666,-37.36592963947358,194.44224670111666 Z" fill="#9467bd" fill-opacity="0.6" />
<path d="M-38.0003512694162,194.3192561312465 A198.0,198.0,0,0,0,-37.36592963947358,194.44224670111666 C-14.946371855789431,77.77689868044666,70.41710173225327,36.25012804983584,176.04275433063316,90.62532012458959 A198.0,198.0,0,0,0,176.051308932244,90.60870059350583 C70.42052357289761,36.24348023740233,-15.20014050776648,77.7277024524986,-38.0003512694162,194.3192561312465 Z" fill="#e377c2" fill-opacity="0.6" />
<path d="M-38.00087622720592,194.31915347171665 A198.0,198.0,0,0,0,-38.0003512694162,194.3192561312465 C-15.20014050776648,77.7277024524986,79.19171269214358,1.1457054093381047,197.97928173035893,2.8642635233452616 A198.0,198.0,0,0,0,197.9797023998331,2.8350375083105357 C79.19188095993324,1.1340150033242142,-15.20035049088237,77.72766138868667,-38.00087622720592,194.31915347171665 Z" fill="#9467bd" fill-opacity="0.6" />
<path d="M33.45211188354862,195.15367332061814 A198.0,198.0,0,0,0,33.45512870564465,195.1531561704518 C13.38205148225786,78.06126246818073,20.144223687146425,76.59536704032568,50.36055921786606,191.4884176008142 A198.0,198.0,0,0,0,50.50056868681975,191.45154102881438 C20.2002274747279,76.58061641152575,13.380844753419447,78.06146932824726,33.45211188354862,195.15367332061814 Z" fill="#9467bd" fill-opacity="0.6" />
<path d="M33.45111122241342,195.15384484551086 A198.0,198.0,0,0,0,33.45211188354862,195.15367332061814 C13.380844753419447,78.06146932824726,70.39051959898454,36.30171828694855,175.97629899746133,90.75429571737136 A198.0,198.0,0,0,0,176.04275433063316,90.62532012458959 C70.41710173225327,36.25012804983584,13.380444488965367,78.06153793820435,33.45111122241342,195.15384484551086 Z" fill="#9467bd" fill-opacity="0.6" />
<path d="M33.436183753597334,195.15640295925644 A198.0,198.0,0,0,0,33.45111122241342,195.15384484551086 C13.380444488965367,78.06153793820435,78.34725326004491,11.590854438150032,195.86813315011227,28.97713609537508 A198.0,198.0,0,0,0,196.05832027334972,27.66107466445622 C78.42332810933989,11.064429865782488,13.374473501438935,78.06256118370258,33.436183753597334,195.15640295925644 Z" fill="#9467bd" fill-opacity="0.6" />
<path d="M33.30765119365404,195.1783809031161 A198.0,198.0,0,0,0,33.436183753597334,195.15640295925644 C13.374473501438935,78.06256118370258,79.19171065490553,1.145846215563724,197.9792766372638,2.8646155389093098 A198.0,198.0,0,0,0,197.97928173035893,2.8642635233452616 C79.19171269214358,1.1457054093381047,13.323060477461617,78.07135236124645,33.30765119365404,195.1783809031161 Z" fill="#e377c2" fill-opacity="0.6" />
<path d="M41.7208726639275,193.55456280894117 A198.0,198.0,0,0,0,41.73290884392829,193.55196800710752 C16.69316353757132,77.42078720284302,70.39021066677884,36.302317312900215,175.9755266669471,90.75579328225054 A198.0,198.0,0,0,0,175.97629899746133,90.75429571737136 C70.39051959898454,36.30171828694855,16.688349065571,77.42182512357647,41.7208726639275,193.55456280894117 Z" fill="#e377c2" fill-opacity="0.6" />
<path d="M41.70883632259128,193.55715686229556 A198.0,198.0,0,0,0,41.7208726639275,193.55456280894117 C16.688349065571,77.42182512357647,79.19170881261596,1.1459735327864067,197.97927203153986,2.8649338319660167 A198.0,198.0,0,0,0,197.9792766372638,2.8646155389093098 C79.19171065490553,1.145846215563724,16.683534529036514,77.42286274491823,41.70883632259128,193.55715686229556 Z" fill="#e377c2" fill-opacity="0.6" />
<path d="M68.90635422919325,185.62304368488557 A198.0,198.0,0,0,0,72.90762616971418,184.088234404856 C29.16305046788567,73.6352937619424,44.173103128540475,65.73718095564587,110.43275782135117,164.34295238911466 A198.0,198.0,0,0,0,110.50051314955815,164.2974028817386 C44.200205259823264,65.71896115269544,27.562541691677303,74.24921747395423,68.90635422919325,185.62304368488557 Z" fill="#8c564b" fill-opacity="0.6" />
<path d="M68.74344694435916,185.6834362623874 A198.0,198.0,0,0,0,68.90635422919325,185.62304368488557 C27.562541691677303,74.24921747395423,70.38924825367218,36.30418337165716,175.97312063418045,90.7604584291429 A198.0,198.0,0,0,0,175.9755266669471,90.75579328225054 C70.39021066677884,36.302317312900215,27.497378777743666,74.27337450495496,68.74344694435916,185.6834362623874 Z" fill="#e377c2" fill-opacity="0.6" />
<path d="M68.63481267414608,185.72361855505852 A198.0,198.0,0,0,0,68.74344694435916,185.6834362623874 C27.497378777743666,74.27337450495496,79.19170498591552,1.1462379437630905,197.9792624647888,2.865594859407726 A198.0,198.0,0,0,0,197.97927203153986,2.8649338319660167 C79.19170881261596,1.1459735327864067,27.453925069658432,74.28944742202341,68.63481267414608,185.72361855505852 Z" fill="#e377c2" fill-opacity="0.6" />
<path d="M119.01757932552442,158.23658177391377 A198.0,198.0,0,0,0,119.08658741531781,158.18465379983567 C47.63463496612712,63.27386151993427,70.38899712408141,36.30467027623387,175.97249281020353,90.76167569058467 A198.0,198.0,0,0,0,175.97312063418045,90.7604584291429 C70.38924825367218,36.30418337165716,47.60703173020977,63.29463270956551,119.01757932552442,158.23658177391377 Z" fill="#e377c2" fill-opacity="0.6" />
<path d="M118.8794952291507,158.34034739782007 A198.0,198.0,0,0,0,119.01757932552442,158.23658177391377 C47.60703173020977,63.29463270956551,79.19170198980862,1.1464449211989522,197.97925497452152,2.8661123029973807 A198.0,198.0,0,0,0,197.9792624647888,2.865594859407726 C79.19170498591552,1.1462379437630905,47.55179809166029,63.33613895912803,118.8794952291507,158.34034739782007 Z" fill="#e377c2" fill-opacity="0.6" />
<path d="M180.61529045005128,81.13024624419441 A198.0,198.0,0,0,0,180.7339970632108,80.8654580494992 C72.29359882528432,32.34618321979968,77.83785739802283,14.6255924900519,194.59464349505708,36.56398122512975 A198.0,198.0,0,0,0,195.86813315011227,28.97713609537508 C78.34725326004491,11.590854438150032,72.24611618002051,32.45209849767777,180.61529045005128,81.13024624419441 Z" fill="#e377c2" fill-opacity="0.6" />
<path d="M180.4066205662728,81.59320594177481 A198.0,198.0,0,0,0,180.61529045005128,81.13024624419441 C72.24611618002051,32.45209849767777,78.79179931745949,8.03071356214322,196.9794982936487,20.07678390535805 A198.0,198.0,0,0,0,197.97925497452152,2.8661123029973807 C79.19170198980862,1.1464449211989522,72.16264822650912,32.637282376709926,180.4066205662728,81.59320594177481 Z" fill="#e377c2" fill-opacity="0.6" />
<path d="M196.72608919270002,22.424224199419683 A198.0,198.0,0,0,0,196.7687548290352,22.046703223635056 C78.70750193161409,8.818681289454023,78.79175193243385,8.031178457599266,196.97937983108463,20.07794614399816 A198.0,198.0,0,0,0,196.9794982936487,20.07678390535805 C78.79179931745949,8.03071356214322,78.69043567708002,8.969689679767873,196.72608919270002,22.424224199419683 Z" fill="#e377c2" fill-opacity="0.6" />
<text x="220.00000000000003" y="0" font-size="10" text-anchor="start" dominant-baseline="middle" transform="rotate(-7.838794)" font-family="Arial">Canada</text>
<text x="220.00000000000003" y="0" font-size="10" text-anchor="start" dominant-baseline="middle" transform="rotate(-22.948855)" font-family="Arial">Mexico</text>
<text x="220.00000000000006" y="0" font-size="10" text-anchor="start" dominant-baseline="middle" transform="rotate(-55.118191)" font-family="Arial">United Sta.</text>
<text x="220.0" y="0" font-size="10" text-anchor="start" dominant-baseline="middle" transform="rotate(-81.682472)" font-family="Arial">Costa Rica</text>
<text x="220.0" y="0" font-size="10" text-anchor="start" dominant-baseline="middle" transform="rotate(-84.311590)" font-family="Arial">Dominican .</text>
<text x="220.00000000000003" y="0" font-size="10" text-anchor="start" dominant-baseline="middle" transform="rotate(-86.853289)" font-family="Arial">Guatemala</text>
<text x="-220.00000000000006" y="0" font-size="10" text-anchor="end" dominant-baseline="middle" transform="rotate(82.471317)" font-family="Arial">Argentina</text>
<text x="-220.00000000000003" y="0" font-size="10" text-anchor="end" dominant-baseline="middle" transform="rotate(62.574809)" font-family="Arial">Brazil</text>
<text x="-220.00000000000003" y="0" font-size="10" text-anchor="end" dominant-baseline="middle" transform="rotate(46.016710)" font-family="Arial">Colombia</text>
<text x="-220.00000000000003" y="0" font-size="10" text-anchor="end" dominant-baseline="middle" transform="rotate(26.965786)" font-family="Arial">Germany</text>
<text x="-220.0" y="0" font-size="10" text-anchor="end" dominant-baseline="middle" transform="rotate(6.195041)" font-family="Arial">Spain</text>
<text x="-220.00000000000006" y="0" font-size="10" text-anchor="end" dominant-baseline="middle" transform="rotate(-14.478617)" font-family="Arial">France</text>
<text x="-220.00000000000003" y="0" font-size="10" text-anchor="end" dominant-baseline="middle" transform="rotate(-39.237523)" font-family="Arial">United Kin.</text>
<text x="-220.00000000000003" y="0" font-size="10" text-anchor="end" dominant-baseline="middle" transform="rotate(-61.290493)" font-family="Arial">Italy</text>
<text x="-220.00000000000003" y="0" font-size="10" text-anchor="end" dominant-baseline="middle" transform="rotate(-73.430396)" font-family="Arial">Indonesia</text>
<text x="-220.00000000000003" y="0" font-size="10" text-anchor="end" dominant-baseline="middle" transform="rotate(-77.396456)" font-family="Arial">India</text>
<text x="-220.00000000000003" y="0" font-size="10" text-anchor="end" dominant-baseline="middle" transform="rotate(-89.719994)" font-family="Arial">Japan</text>
<text x="220.0" y="0" font-size="10" text-anchor="start" dominant-baseline="middle" transform="rotate(-281.234118)" font-family="Arial">Egypt</text>
<text x="220.00000000000003" y="0" font-size="10" text-anchor="start" dominant-baseline="middle" transform="rotate(-287.173237)" font-family="Arial">Nigeria</text>
<text x="220.00000000000003" y="0" font-size="10" text-anchor="start" dominant-baseline="middle" transform="rotate(-299.576246)" font-family="Arial">South Afri.</text>
<text x="220.00000000000003" y="0" font-size="10" text-anchor="start" dominant-baseline="middle" transform="rotate(-321.720754)" font-family="Arial">Australia</text>
<text x="220.00000000000003" y="0" font-size="10" text-anchor="start" dominant-baseline="middle" transform="rotate(-345.037454)" font-family="Arial">New Zealan.</text>
<text x="220.00000000000006" y="0" font-size="10" text-anchor="start" dominant-baseline="middle" transform="rotate(-356.803515)" font-family="Arial">Papua New .</text>
<text x="-295.0" y="-285.0" font-size="8" text-anchor="start" dominant-baseline="middle" font-family="Arial" font-weight="bold">Continents</text>
<circle cx="-290.5" cy="-274.5" r="4.5" fill="#8c564b" stroke="#333" stroke-width="0.5" />
<text x="-278.0" y="-271.0" font-size="6" text-anchor="start" dominant-baseline="middle" font-family="Arial">Africa</text>
<circle cx="-290.5" cy="-262.5" r="4.5" fill="#9467bd" stroke="#333" stroke-width="0.5" />
<text x="-278.0" y="-259.0" font-size="6" text-anchor="start" dominant-baseline="middle" font-family="Arial">Asia</text>
<circle cx="-290.5" cy="-250.5" r="4.5" fill="#ff7f0e" stroke="#333" stroke-width="0.5" />
<text x="-278.0" y="-247.0" font-size="6" text-anchor="start" dominant-baseline="middle" font-family="Arial">Central America</text>
<circle cx="-290.5" cy="-238.5" r="4.5" fill="#d62728" stroke="#333" stroke-width="0.5" />
<text x="-278.0" y="-235.0" font-size="6" text-anchor="start" dominant-baseline="middle" font-family="Arial">Europe</text>
<circle cx="-290.5" cy="-226.5" r="4.5" fill="#1f77b4" stroke="#333" stroke-width="0.5" />
<text x="-278.0" y="-223.0" font-size="6" text-anchor="start" dominant-baseline="middle" font-family="Arial">North America</text>
<circle cx="-290.5" cy="-214.5" r="4.5" fill="#e377c2" stroke="#333" stroke-width="0.5" />
<text x="-278.0" y="-211.0" font-size="6" text-anchor="start" dominant-baseline="middle" font-family="Arial">Oceania</text>
<circle cx="-290.5" cy="-202.5" r="4.5" fill="#2ca02c" stroke="#333" stroke-width="0.5" />
<text x="-278.0" y="-199.0" font-size="6" text-anchor="start" dominant-baseline="middle" font-family="Arial">South America</text>
</svg>