<?xml version="1.0" encoding="UTF-8"?>
<svg xmlns="http://www.w3.org/2000/svg" xmlns:xlink="http://www.w3.org/1999/xlink"
     width="600.0" height="600.0" viewBox="-300.0 -300.0 600.0 600.0">
<defs>
<linearGradient x1="0" y1="0" x2="1" y2="1" gradientUnits="userSpaceOnUse" id="gradient_10">
<stop offset="0" stop-color="#14c800" stop-opacity="1" />
<stop offset="1" stop-color="#14c800" stop-opacity="1" />
</linearGradient>
<linearGradient x1="0" y1="0" x2="1" y2="1" gradientUnits="userSpaceOnUse" id="gradient_11">
<stop offset="0" stop-color="#5fc800" stop-opacity="1" />
<stop offset="1" stop-color="#5fc800" stop-opacity="1" />
</linearGradient>
<linearGradient x1="0" y1="0" x2="1" y2="1" gradientUnits="userSpaceOnUse" id="gradient_12">
<stop offset="0" stop-color="#15c800" stop-opacity="1" />
<stop offset="1" stop-color="#17c800" stop-opacity="1" />
</linearGradient>
<linearGradient x1="0" y1="0" x2="1" y2="1" gradientUnits="userSpaceOnUse" id="gradient_13">
<stop offset="0" stop-color="#8dc800" stop-opacity="1" />
<stop offset="1" stop-color="#8dc800" stop-opacity="1" />
</linearGradient>
<linearGradient x1="0" y1="0" x2="1" y2="1" gradientUnits="userSpaceOnUse" id="gradient_14">
<stop offset="0" stop-color="#a4c800" stop-opacity="1" />
<stop offset="1" stop-color="#a4c800" stop-opacity="1" />
</linearGradient>
<linearGradient x1="0" y1="0" x2="1" y2="1" gradientUnits="userSpaceOnUse" id="gradient_15">
<stop offset="0" stop-color="#86c800" stop-opacity="1" />
<stop offset="1" stop-color="#86c800" stop-opacity="1" />
</linearGradient>
<linearGradient x1="0" y1="0" x2="1" y2="1" gradientUnits="userSpaceOnUse" id="gradient_16">
<stop offset="0" stop-color="#47c800" stop-opacity="1" />
<stop offset="1" stop-color="#47c800" stop-opacity="1" />
</linearGradient>
<linearGradient x1="0" y1="0" x2="1" y2="1" gradientUnits="userSpaceOnUse" id="gradient_17">
<stop offset="0" stop-color="#43c800" stop-opacity="1" />
<stop offset="1" stop-color="#43c800" stop-opacity="1" />
</linearGradient>
<linearGradient x1="0" y1="0" x2="1" y2="1" gradientUnits="userSpaceOnUse" id="gradient_18">
<stop offset="0" stop-color="#c3c800" stop-opacity="1" />
<stop offset="1" stop-color="#30c800" stop-opacity="1" />
</linearGradient>
<linearGradient x1="0" y1="0" x2="1" y2="1" gradientUnits="userSpaceOnUse" id="gradient_19">
<stop offset="0" stop-color="#14c800" stop-opacity="1" />
<stop offset="1" stop-color="#41c800" stop-opacity="1" />
</linearGradient>
<linearGradient x1="0" y1="0" x2="1" y2="1" gradientUnits="userSpaceOnUse" id="gradient_20">
<stop offset="0" stop-color="#f03d00" stop-opacity="1" />
<stop offset="1" stop-color="#f03d00" stop-opacity="1" />
</linearGradient>
<linearGradient x1="0" y1="0" x2="1" y2="1" gradientUnits="userSpaceOnUse" id="gradient_21">
<stop offset="0" stop-color="#21c800" stop-opacity="1" />
<stop offset="1" stop-color="#f33400" stop-opacity="1" />
</linearGradient>
<linearGradient x1="0" y1="0" x2="1" y2="1" gradientUnits="userSpaceOnUse" id="gradient_22">
<stop offset="0" stop-color="#24c800" stop-opacity="1" />
<stop offset="1" stop-color="#24c800" stop-opacity="1" />
</linearGradient>
<linearGradient x1="0" y1="0" x2="1" y2="1" gradientUnits="userSpaceOnUse" id="gradient_23">
<stop offset="0" stop-color="#3ac800" stop-opacity="1" />
<stop offset="1" stop-color="#3ac800" stop-opacity="1" />
</linearGradient>
<linearGradient x1="0" y1="0" x2="1" y2="1" gradientUnits="userSpaceOnUse" id="gradient_24">
<stop offset="0" stop-color="#43c800" stop-opacity="1" />
<stop offset="1" stop-color="#1ac800" stop-opacity="1" />
</linearGradient>
<linearGradient x1="0" y1="0" x2="1" y2="1" gradientUnits="userSpaceOnUse" id="gradient_25">
<stop offset="0" stop-color="#ff5600" stop-opacity="1" />
<stop offset="1" stop-color="#ff5600" stop-opacity="1" />
</linearGradient>
<linearGradient x1="0" y1="0" x2="1" y2="1" gradientUnits="userSpaceOnUse" id="gradient_26">
<stop offset="0" stop-color="#de7000" stop-opacity="1" />
<stop offset="1" stop-color="#de7000" stop-opacity="1" />
</linearGradient>
<linearGradient x1="0" y1="0" x2="1" y2="1" gradientUnits="userSpaceOnUse" id="gradient_27">
<stop offset="0" stop-color="#5ac800" stop-opacity="1" />
<stop offset="1" stop-color="#5ac800" stop-opacity="1" />
</linearGradient>
<linearGradient x1="0" y1="0" x2="1" y2="1" gradientUnits="userSpaceOnUse" id="gradient_28">
<stop offset="0" stop-color="#84c800" stop-opacity="1" />
<stop offset="1" stop-color="#84c800" stop-opacity="1" />
</linearGradient>
<linearGradient x1="0" y1="0" x2="1" y2="1" gradientUnits="userSpaceOnUse" id="gradient_29">
<stop offset="0" stop-color="#1dc800" stop-opacity="1" />
<stop offset="1" stop-color="#7ac800" stop-opacity="1" />
</linearGradient>
<linearGradient x1="0" y1="0" x2="1" y2="1" gradientUnits="userSpaceOnUse" id="gradient_30">
<stop offset="0" stop-color="#74c800" stop-opacity="1" />
<stop offset="1" stop-color="#74c800" stop-opacity="1" />
</linearGradient>
<linearGradient x1="0" y1="0" x2="1" y2="1" gradientUnits="userSpaceOnUse" id="gradient_31">
<stop offset="0" stop-color="#30c800" stop-opacity="1" />
<stop offset="1" stop-color="#18c800" stop-opacity="1" />
</linearGradient>
<linearGradient x1="0" y1="0" x2="1" y2="1" gradientUnits="userSpaceOnUse" id="gradient_32">
<stop offset="0" stop-color="#2dc800" stop-opacity="1" />
<stop offset="1" stop-color="#5bc800" stop-opacity="1" />
</linearGradient>
<linearGradient x1="0" y1="0" x2="1" y2="1" gradientUnits="userSpaceOnUse" id="gradient_33">
<stop offset="0" stop-color="#1ec800" stop-opacity="1" />
<stop offset="1" stop-color="#75c800" stop-opacity="1" />
</linearGradient>
<linearGradient x1="0" y1="0" x2="1" y2="1" gradientUnits="userSpaceOnUse" id="gradient_34">
<stop offset="0" stop-color="#1ec800" stop-opacity="1" />
<stop offset="1" stop-color="#6cc800" stop-opacity="1" />
</linearGradient>
<linearGradient x1="0" y1="0" x2="1" y2="1" gradientUnits="userSpaceOnUse" id="gradient_35">
<stop offset="0" stop-color="#1fc800" stop-opacity="1" />
<stop offset="1" stop-color="#1fc800" stop-opacity="1" />
</linearGradient>
<linearGradient x1="0" y1="0" x2="1" y2="1" gradientUnits="userSpaceOnUse" id="gradient_36">
<stop offset="0" stop-color="#85c800" stop-opacity="1" />
<stop offset="1" stop-color="#1ac800" stop-opacity="1" />
</linearGradient>
<linearGradient x1="0" y1="0" x2="1" y2="1" gradientUnits="userSpaceOnUse" id="gradient_37">
<stop offset="0" stop-color="#1cc800" stop-opacity="1" />
<stop offset="1" stop-color="#25c800" stop-opacity="1" />
</linearGradient>
</defs>
<use xlink:href="#gradient_10" />
<use xlink:href="#gradient_11" />
<use xlink:href="#gradient_12" />
<use xlink:href="#gradient_13" />
<use xlink:href="#gradient_14" />
<use xlink:href="#gradient_15" />
<use xlink:href="#gradient_16" />
<use xlink:href="#gradient_17" />
<use xlink:href="#gradient_18" />
<use xlink:href="#gradient_19" />
<use xlink:href="#gradient_20" />
<use xlink:href="#gradient_21" />
<use xlink:href="#gradient_22" />
<use xlink:href="#gradient_23" />
<use xlink:href="#gradient_24" />
<use xlink:href="#gradient_25" />
<use xlink:href="#gradient_26" />
<use xlink:href="#gradient_27" />
<use xlink:href="#gradient_28" />
<use xlink:href="#gradient_29" />
<use xlink:href="#gradient_30" />
<use xlink:href="#gradient_31" />
<use xlink:href="#gradient_32" />
<use xlink:href="#gradient_33" />
<use xlink:href="#gradient_34" />
<use xlink:href="#gradient_35" />
<use xlink:href="#gradient_36" />
<use xlink:href="#gradient_37" />
<rect x="-300.0" y="-300.0" width="600.0" height="600.0" fill="#ffffff" fill-opacity="1.0" />
<path d="M200.0,-0.0 A200,200,0,0,0,199.15205412435958,-18.39726441752035 L213.09269791306477,-19.685072926746777 A214.0,214.0,0,0,1,214.0,-0.0 Z" fill="#1f77b4" fill-opacity="0.9" />
<path d="M198.9581270266533,-20.38783191136551 A200,200,0,0,0,117.30682126743916,-161.98490572929654 L125.51829875615991,-173.3238491303473 A214.0,214.0,0,0,1,212.88519591851903,-21.814980145161098 Z" fill="#1f77b4" fill-opacity="0.9" />
<path d="M115.68113391530981,-163.14985521313884 A200,200,0,0,0,0.9644092424871098,-199.99767477351583 L1.0319178894612075,-213.99751200766195 A214.0,214.0,0,0,1,123.7788132893815,-174.57034507805855 Z" fill="#1f77b4" fill-opacity="0.9" />
<path d="M-1.0355823925292074,-199.99731890480004 A200,200,0,0,0,-8.485478882675592,-199.819910539795 L-9.079462404462884,-213.80730427758064 A214.0,214.0,0,0,1,-1.108073160006252,-213.99713122813606 Z" fill="#ff7f0e" fill-opacity="0.9" />
<path d="M-10.483220414513108,-199.72506625293866 A200,200,0,0,0,-19.213969574892744,-199.0749189957768 L-20.558947445135235,-213.01016332548122 A214.0,214.0,0,0,1,-11.217045843529025,-213.7058208906444 Z" fill="#ff7f0e" fill-opacity="0.9" />
<path d="M-21.20372489539029,-198.87282883933796 A200,200,0,0,0,-28.444480136646817,-197.96694559889514 L-30.435593746212096,-211.82463179081782 A214.0,214.0,0,0,1,-22.687985638067612,-212.79392685809162 Z" fill="#ff7f0e" fill-opacity="0.9" />
<path d="M-30.422694386154802,-197.67260727345766 A200,200,0,0,0,-52.76195688433781,-192.91494474440097 L-56.45529386624146,-206.41899087650904 A214.0,214.0,0,0,1,-32.55228299318564,-211.5096897825997 Z" fill="#2ca02c" fill-opacity="0.9" />
<path d="M-54.688436103591656,-192.37768830231684 A200,200,0,0,0,-64.9463252211295,-189.1612403223009 L-69.49256798660856,-202.40252714486198 A214.0,214.0,0,0,1,-58.51662663084308,-205.84412648347904 Z" fill="#2ca02c" fill-opacity="0.9" />
<path d="M-66.83465880843657,-188.50232991122385 A200,200,0,0,0,-104.19737214917836,-170.71293927879523 L-111.49118819962085,-182.6628450283109 A214.0,214.0,0,0,1,-71.51308492502713,-201.69749300500953 Z" fill="#2ca02c" fill-opacity="0.9" />
<path d="M-105.89926326475995,-169.66244734761156 A200,200,0,0,0,-158.92843791662636,-121.41561522877129 L-170.05342857079023,-129.91470829478527 A214.0,214.0,0,0,1,-113.31221169329315,-181.5388186619444 Z" fill="#d62728" fill-opacity="0.9" />
<path d="M-160.1346274774035,-119.82028660737383 A200,200,0,0,0,-194.50995759741943,-46.538977163772024 L-208.1256546292388,-49.79670556523607 A214.0,214.0,0,0,1,-171.34405140082177,-128.20770666989 Z" fill="#d62728" fill-opacity="0.9" />
<path d="M-194.96561419576543,-44.59158307649504 A200,200,0,0,0,-198.85922277361027,21.330952108980913 L-212.779368367763,22.82411875660958 A214.0,214.0,0,0,1,-208.61320718946902,-47.7129938918497 Z" fill="#d62728" fill-opacity="0.9" />
<path d="M-198.63597392938044,23.31844465496131 A200,200,0,0,0,-194.55207154798205,46.36260838638045 L-208.1707165563408,49.607990973427086 A214.0,214.0,0,0,1,-212.54049210443708,24.950735780808603 Z" fill="#d62728" fill-opacity="0.9" />
<path d="M-194.07872566866672,48.305778565575466 A200,200,0,0,0,-184.6883486112718,76.74772887350697 L-197.61653301406085,82.12006989465246 A214.0,214.0,0,0,1,-207.6642364654734,51.687183065165755 Z" fill="#d62728" fill-opacity="0.9" />
<path d="M-183.9116497732836,78.59074422391656 A200,200,0,0,0,-183.71003316523615,79.06088612220225 L-196.5697354868027,84.59514815075642 A214.0,214.0,0,0,1,-196.78546525741348,84.09209631959072 Z" fill="#9467bd" fill-opacity="0.9" />
<path d="M-182.91025205564995,80.89400282430461 A200,200,0,0,0,-182.78519657644145,81.17617823297456 L-195.58016033679237,86.85851070928278 A214.0,214.0,0,0,1,-195.71396969954546,86.55658302200594 Z" fill="#9467bd" fill-opacity="0.9" />
<path d="M-181.96430913973853,82.99994095960348 A200,200,0,0,0,-174.74894054327586,97.27696427727702 L-186.98136638130518,104.08635177668641 A214.0,214.0,0,0,1,-194.70181077952023,88.80993682677573 Z" fill="#8c564b" fill-opacity="0.9" />
<path d="M-173.7674497390341,99.01956075035001 A200,200,0,0,0,-82.68010334158305,182.1098583586983 L-88.46771057549387,194.8575484438072 A214.0,214.0,0,0,1,-185.93117122076652,105.95093000287451 Z" fill="#8c564b" fill-opacity="0.9" />
<path d="M-80.85490113877026,182.92754019512668 A200,200,0,0,0,110.79278500144036,166.5081343106835 L118.5482799515412,178.16370371243136 A214.0,214.0,0,0,1,-86.51474421848418,195.73246800878556 Z" fill="#8c564b" fill-opacity="0.9" />
<path d="M112.45229900024363,165.39189958870358 A200,200,0,0,0,199.47653443707802,14.460712602538905 L213.4398918476735,15.472962484716628 A214.0,214.0,0,0,1,120.32395993026068,176.96933255991283 Z" fill="#e377c2" fill-opacity="0.9" />
<path d="M199.6111654093898,12.465257474486162 A200,200,0,0,0,199.99000008333306,1.9999666668340497 L213.9893000891664,2.139964333512433 A214.0,214.0,0,0,1,213.5839469880471,13.337825497700194 Z" fill="#e377c2" fill-opacity="0.9" />
<path d="M193.0,-0.0 A193.0,193.0,0,0,0,192.80702070443846,-8.628601687309517 L197.80202124082285,-8.852140591125826 A198.0,198.0,0,0,1,198.0,-0.0 Z" fill="#6fc800" fill-opacity="0.6" />
<path d="M191.99459258072042,-19.674257794467717 A193.0,193.0,0,0,0,187.48197565175775,-45.8203972670874 L192.33902165309863,-47.00745419110521 A198.0,198.0,0,0,1,196.96854575638676,-20.183953592251854 Z" fill="#b3c800" fill-opacity="0.6" />
<path d="M111.63229422827396,-157.43961028067898 A193.0,193.0,0,0,0,66.13102321997076,-181.31654024903435 L67.84426216349331,-186.01385994460517 A198.0,198.0,0,0,1,114.5243225761567,-161.51835666100743 Z" fill="#70c800" fill-opacity="0.6" />
<path d="M-52.774340839965944,-185.64446921173575 A193.0,193.0,0,0,0,-62.673203838389966,-182.54059691102037 L-64.29686196891821,-187.2696279190779 A198.0,198.0,0,0,1,-54.141551742555734,-190.45391141929366 Z" fill="#7ec800" fill-opacity="0.6" />
<path d="M-64.4954457501413,-181.904748364331 A193.0,193.0,0,0,0,-73.86620948167177,-178.30530866132335 L-75.77984185166326,-182.9246171758654 A198.0,198.0,0,0,1,-66.16631222035221,-186.6173066121116 Z" fill="#7ac800" fill-opacity="0.6" />
<path d="M-102.19278905049336,-163.72426169044516 A193.0,193.0,0,0,0,-126.25656801269164,-145.97355593961726 L-129.52746355706188,-149.75525428002186 A198.0,198.0,0,0,1,-104.84027063211236,-167.96582287413543 Z" fill="#5cc800" fill-opacity="0.6" />
<path d="M-154.52991551569437,-115.62657657611574 A193.0,193.0,0,0,0,-167.69184516601993,-95.54289646444471 L-172.03619348638313,-98.01810103606245 A198.0,198.0,0,0,1,-158.53328120262947,-118.62208374130009 Z" fill="#7ac800" fill-opacity="0.6" />
<path d="M-188.14181769891363,-43.030877668817716 A193.0,193.0,0,0,0,-191.247963208679,-25.946417258106333 L-196.2025736544997,-26.618604233704943 A198.0,198.0,0,0,1,-193.01595805380776,-44.14566724573009 Z" fill="#3dc800" fill-opacity="0.6" />
<path d="M-191.68371484185212,22.502299092037667 A193.0,193.0,0,0,0,-188.06265191566516,43.375557108207445 L-192.93474134353212,44.499276204275 A198.0,198.0,0,0,1,-196.64961419008662,23.0852602084117 Z" fill="#67c800" fill-opacity="0.6" />
<path d="M-187.28597027026336,46.61507631578033 A193.0,193.0,0,0,0,-178.80302883131398,72.65312712298278 L-183.4352316507781,74.53533248886318 A198.0,198.0,0,0,1,-192.13793841198003,47.82272077991971 Z" fill="#81c800" fill-opacity="0.6" />
<path d="M197.80202124082285,-8.852140591125826 A198.0,198.0,0,0,0,197.16053358311598,-18.213291773345144 C78.86421343324639,-7.285316709338058,26.61813635533593,-74.59299442285946,66.54534088833982,-186.48248605714866 A198.0,198.0,0,0,0,66.02257479472438,-186.6682073023551 C26.409029917889754,-74.66728292094204,79.12080849632915,-3.5408562364503307,197.80202124082285,-8.852140591125826 Z" fill="url(#gradient_10)" fill-opacity="0.6" />
<path d="M149.08962705602798,-130.2930662172569 A198.0,198.0,0,0,0,116.1337530547648,-160.36505667200353 C46.453501221905924,-64.14602266880142,27.137704865397325,-74.40554397784207,67.84426216349331,-186.01385994460517 A198.0,198.0,0,0,0,66.54534088833982,-186.48248605714866 C26.61813635533593,-74.59299442285946,59.63585082241119,-52.11722648690276,149.08962705602798,-130.2930662172569 Z" fill="url(#gradient_11)" fill-opacity="0.6" />
<path d="M149.3139809650518,-130.03589922928265 A198.0,198.0,0,0,0,149.08962705602798,-130.2930662172569 C59.63585082241119,-52.11722648690276,-9.846115030031926,-78.58558403941133,-24.615287575079815,-196.4639600985283 A198.0,198.0,0,0,0,-28.160035335280348,-195.98727614290618 C-11.26401413411214,-78.39491045716248,59.72559238602072,-52.01435969171306,149.3139809650518,-130.03589922928265 Z" fill="url(#gradient_12)" fill-opacity="0.6" />
<path d="M175.65044611922733,-91.38337254728795 A198.0,198.0,0,0,0,149.3139809650518,-130.03589922928265 C59.72559238602072,-52.01435969171306,-51.81098542282476,-59.902101712008744,-129.52746355706188,-149.75525428002186 A198.0,198.0,0,0,0,-130.2983828934487,-149.08498051565167 C-52.11935315737948,-59.63399220626067,70.26017844769093,-36.55334901891518,175.65044611922733,-91.38337254728795 Z" fill="url(#gradient_13)" fill-opacity="0.6" />
<path d="M192.33902165309863,-47.00745419110521 A198.0,198.0,0,0,0,175.65044611922733,-91.38337254728795 C70.26017844769093,-36.55334901891518,-79.15107946292092,-2.783275023130038,-197.8776986573023,-6.958187557825094 A198.0,198.0,0,0,0,-197.90740733135306,-6.054595228576416 C-79.16296293254123,-2.421838091430567,76.93560866123946,-18.802981676442084,192.33902165309863,-47.00745419110521 Z" fill="url(#gradient_14)" fill-opacity="0.6" />
<path d="M3.1137616866774955,-197.97551487029546 A198.0,198.0,0,0,0,0.9547651500622387,-197.99769802578066 C0.3819060600248955,-79.19907921031228,-0.4100906274415661,-79.19893828630082,-1.0252265686039153,-197.99734571575203 A198.0,198.0,0,0,0,-8.400624093848835,-197.82171143439703 C-3.360249637539534,-79.12868457375882,1.2455046746709983,-79.19020594811819,3.1137616866774955,-197.97551487029546 Z" fill="url(#gradient_15)" fill-opacity="0.6" />
<path d="M4.31791614619429,-197.95291258315558 A198.0,198.0,0,0,0,3.1137616866774955,-197.97551487029546 C1.2455046746709983,-79.19020594811819,-4.151355284147191,-79.09112623616372,-10.378388210367977,-197.72781559040928 A198.0,198.0,0,0,0,-14.712131853207962,-197.45266059573325 C-5.8848527412831855,-78.9810642382933,1.727166458477716,-79.18116503326223,4.31791614619429,-197.95291258315558 Z" fill="url(#gradient_16)" fill-opacity="0.6" />
<path d="M5.392641936451916,-197.92655055081727 A198.0,198.0,0,0,0,4.31791614619429,-197.95291258315558 C1.727166458477716,-79.18116503326223,-8.396675058574557,-78.75364022037783,-20.99168764643639,-196.88410055094457 A198.0,198.0,0,0,0,-24.615287575079815,-196.4639600985283 C-9.846115030031926,-78.58558403941133,2.1570567745807665,-79.17062022032691,5.392641936451916,-197.92655055081727 Z" fill="url(#gradient_17)" fill-opacity="0.6" />
<path d="M9.946373138225992,-197.75001810719306 A198.0,198.0,0,0,0,5.392641936451916,-197.92655055081727 C2.1570567745807665,-79.17062022032691,-12.047386976917302,-78.27835248028924,-30.118467442293255,-195.69588120072308 A198.0,198.0,0,0,0,-52.234337315494436,-190.98579529695695 C-20.893734926197777,-76.39431811878278,3.978549255290397,-79.10000724287723,9.946373138225992,-197.75001810719306 Z" fill="url(#gradient_18)" fill-opacity="0.6" />
<path d="M11.661134155910101,-197.65631270009533 A198.0,198.0,0,0,0,9.946373138225992,-197.75001810719306 C3.978549255290397,-79.10000724287723,-30.311936740665306,-73.16984687034616,-75.77984185166326,-182.9246171758654 A198.0,198.0,0,0,0,-103.15539842768659,-169.00580988600728 C-41.26215937107464,-67.60232395440292,4.664453662364041,-79.06252508003814,11.661134155910101,-197.65631270009533 Z" fill="url(#gradient_19)" fill-opacity="0.6" />
<path d="M60.99466127148017,-188.37104686330485 A198.0,198.0,0,0,0,11.661134155910101,-197.65631270009533 C4.664453662364041,-79.06252508003814,-72.8290133102203,31.12193471267096,-182.07253327555077,77.8048367816774 A198.0,198.0,0,0,0,-182.01285882661395,77.94433412226381 C-72.80514353064558,31.177733648905527,24.39786450859207,-75.34841874532195,60.99466127148017,-188.37104686330485 Z" fill="url(#gradient_20)" fill-opacity="0.6" />
<path d="M66.02257479472438,-186.6682073023551 A198.0,198.0,0,0,0,60.99466127148017,-188.37104686330485 C24.39786450859207,-75.34841874532195,44.58522062112665,65.45836922934654,111.46305155281662,163.64592307336636 A198.0,198.0,0,0,0,197.44400502251122,14.827841402933988 C78.9776020090045,5.931136561173595,26.409029917889754,-74.66728292094204,66.02257479472438,-186.6682073023551 Z" fill="url(#gradient_21)" fill-opacity="0.6" />
<path d="M-14.712131853207962,-197.45266059573325 A198.0,198.0,0,0,0,-19.021829879143816,-197.08416980581904 C-7.608731951657527,-78.83366792232762,-72.43245981403739,32.03402511842463,-181.08114953509346,80.08506279606156 A198.0,198.0,0,0,0,-180.95734461067704,80.36441645064481 C-72.38293784427081,32.14576658025793,-5.8848527412831855,-78.9810642382933,-14.712131853207962,-197.45266059573325 Z" fill="url(#gradient_22)" fill-opacity="0.6" />
<path d="M-157.20438125190844,-120.37766618108452 A198.0,198.0,0,0,0,-157.3391535374601,-120.20145907648357 C-62.93566141498405,-48.08058363059343,-78.50092627366013,-10.499741624315329,-196.2523156841503,-26.24935406078832 A198.0,198.0,0,0,0,-197.8776986573023,-6.958187557825094 C-79.15107946292092,-2.783275023130038,-62.88175250076338,-48.15106647243381,-157.20438125190844,-120.37766618108452 Z" fill="url(#gradient_23)" fill-opacity="0.6" />
<path d="M-156.3537944267859,-121.48041392893907 A198.0,198.0,0,0,0,-157.20438125190844,-120.37766618108452 C-62.88175250076338,-48.15106647243381,-70.82622951357762,35.444113938565714,-177.06557378394405,88.61028484641427 A198.0,198.0,0,0,0,-173.0014511378431,96.30419463450426 C-69.20058045513724,38.521677853801705,-62.541517770714364,-48.592165571575634,-156.3537944267859,-121.48041392893907 Z" fill="url(#gradient_24)" fill-opacity="0.6" />
<path d="M-154.1527292298913,-124.26156312784666 A198.0,198.0,0,0,0,-156.3537944267859,-121.48041392893907 C-62.541517770714364,-48.592165571575634,-31.614774007282946,72.61643109151281,-79.03693501820736,181.541077728782 A198.0,198.0,0,0,0,109.68485715142596,164.84305296757665 C43.87394286057039,65.93722118703066,-61.66109169195652,-49.704625251138665,-154.1527292298913,-124.26156312784666 Z" fill="url(#gradient_25)" fill-opacity="0.6" />
<path d="M-130.2983828934487,-149.08498051565167 A198.0,198.0,0,0,0,-154.1527292298913,-124.26156312784666 C-61.66109169195652,-49.704625251138665,44.53111040409648,65.49519223712662,111.3277760102412,163.73798059281654 A198.0,198.0,0,0,0,111.46305155281662,163.64592307336636 C44.58522062112665,65.45836922934654,-52.11935315737948,-59.63399220626067,-130.2983828934487,-149.08498051565167 Z" fill="url(#gradient_26)" fill-opacity="0.6" />
<path d="M-184.88023354949397,-70.87523716139907 A198.0,198.0,0,0,0,-192.56485802144522,-46.07358739213431 C-77.0259432085781,-18.429434956853722,-78.48102946179989,-10.647441693481978,-196.2025736544997,-26.618604233704943 A198.0,198.0,0,0,0,-196.2523156841503,-26.24935406078832 C-78.50092627366013,-10.499741624315329,-73.95209341979759,-28.35009486455963,-184.88023354949397,-70.87523716139907 Z" fill="url(#gradient_27)" fill-opacity="0.6" />
<path d="M-172.63368607833277,-96.96190195642649 A198.0,198.0,0,0,0,-184.88023354949397,-70.87523716139907 C-73.95209341979759,-28.35009486455963,-73.37409266031123,29.814132995545272,-183.4352316507781,74.53533248886318 A198.0,198.0,0,0,0,-183.31779661771577,74.82369573354286 C-73.32711864708631,29.929478293417148,-69.05347443133311,-38.7847607825706,-172.63368607833277,-96.96190195642649 Z" fill="url(#gradient_28)" fill-opacity="0.6" />
<path d="M-172.03619348638313,-98.01810103606245 A198.0,198.0,0,0,0,-172.63368607833277,-96.96190195642649 C-69.05347443133311,-38.7847607825706,-49.499812134432496,61.82563059650819,-123.74953033608124,154.56407649127047 A198.0,198.0,0,0,0,-103.52826288167265,168.7776607987659 C-41.41130515266906,67.51106431950636,-68.81447739455325,-39.20724041442498,-172.03619348638313,-98.01810103606245 Z" fill="url(#gradient_29)" fill-opacity="0.6" />
<path d="M-197.97423887141926,-3.193860247760488 A198.0,198.0,0,0,0,-196.87063054587418,21.117642587891105 C-78.74825221834968,8.447057035156442,-77.17389653741286,17.79971048171,-192.93474134353212,44.499276204275 A198.0,198.0,0,0,0,-192.89491694614054,44.671590707535145 C-77.15796677845623,17.86863628301406,-79.18969554856771,-1.2775440991041953,-197.97423887141926,-3.193860247760488 Z" fill="url(#gradient_30)" fill-opacity="0.6" />
<path d="M-197.9556372943975,-4.191141058106022 A198.0,198.0,0,0,0,-197.97423887141926,-3.193860247760488 C-79.18969554856771,-1.2775440991041953,-72.05786641933646,32.867976620002985,-180.14466604834115,82.16994155000745 A198.0,198.0,0,0,0,-177.06557378394405,88.61028484641427 C-70.82622951357762,35.444113938565714,-79.182254917759,-1.676456423242409,-197.9556372943975,-4.191141058106022 Z" fill="url(#gradient_31)" fill-opacity="0.6" />
<path d="M-197.90740733135306,-6.054595228576416 A198.0,198.0,0,0,0,-197.9556372943975,-4.191141058106022 C-79.182254917759,-1.676456423242409,-57.30595469529894,54.66870728726212,-143.26488673824733,136.6717682181553 A198.0,198.0,0,0,0,-123.74953033608124,154.56407649127047 C-49.499812134432496,61.82563059650819,-79.16296293254123,-2.421838091430567,-197.90740733135306,-6.054595228576416 Z" fill="url(#gradient_32)" fill-opacity="0.6" />
<path d="M-192.89491694614054,44.671590707535145 A198.0,198.0,0,0,0,-192.60655083250222,45.89898230251664 C-77.0426203330009,18.35959292100666,-63.65702919609247,47.12136069690507,-159.14257299023117,117.80340174226268 A198.0,198.0,0,0,0,-143.26488673824733,136.6717682181553 C-57.30595469529894,54.66870728726212,-77.15796677845623,17.86863628301406,-192.89491694614054,44.671590707535145 Z" fill="url(#gradient_33)" fill-opacity="0.6" />
<path d="M-183.31779661771577,74.82369573354286 A198.0,198.0,0,0,0,-182.8414651251591,75.9802515847719 C-73.13658605006364,30.392100633908765,-68.81191009665751,39.21174605713861,-172.02977524164376,98.02936514284652 A198.0,198.0,0,0,0,-159.14257299023117,117.80340174226268 C-63.65702919609247,47.12136069690507,-73.32711864708631,29.929478293417148,-183.31779661771577,74.82369573354286 Z" fill="url(#gradient_34)" fill-opacity="0.6" />
<path d="M-182.01285882661395,77.94433412226381 A198.0,198.0,0,0,0,-181.8729328335838,78.27027726098022 C-72.74917313343353,31.30811090439209,79.15753605521115,2.5931613270186915,197.89384013802788,6.482903317546728 A198.0,198.0,0,0,0,197.9901000824997,1.9799670001657093 C79.19604003299989,0.7919868000662837,-72.80514353064558,31.177733648905527,-182.01285882661395,77.94433412226381 Z" fill="url(#gradient_35)" fill-opacity="0.6" />
<path d="M-103.52826288167265,168.7776607987659 A198.0,198.0,0,0,0,-81.85330230816723,180.2887597751113 C-32.74132092326689,72.11550391004452,-32.01854085095302,72.43930591727018,-80.04635212738256,181.09826479317542 A198.0,198.0,0,0,0,-79.03693501820736,181.541077728782 C-31.614774007282946,72.61643109151281,-41.41130515266906,67.51106431950636,-103.52826288167265,168.7776607987659 Z" fill="url(#gradient_36)" fill-opacity="0.6" />
<path d="M197.44400502251122,14.827841402933988 A198.0,198.0,0,0,0,197.48176909270725,14.316105476513517 C78.9927076370829,5.7264421906054075,79.04602150211836,4.93624195989652,197.6150537552959,12.340604899741301 A198.0,198.0,0,0,0,197.89384013802788,6.482903317546728 C79.15753605521115,2.5931613270186915,78.9776020090045,5.931136561173595,197.44400502251122,14.827841402933988 Z" fill="url(#gradient_37)" fill-opacity="0.6" />
<text x="220.00000000000003" y="0" font-size="10" text-anchor="start" dominant-baseline="middle" transform="rotate(-2.638945)" font-family="Arial">Canada</text>
<text x="220.0" y="0" font-size="10" text-anchor="start" dominant-baseline="middle" transform="rotate(-29.969703)" font-family="Arial">Mexico</text>
<text x="220.0" y="0" font-size="10" text-anchor="start" dominant-baseline="middle" transform="rotate(-72.192616)" font-family="Arial">United Sta.</text>
<text x="-220.00000000000006" y="0" font-size="10" text-anchor="end" dominant-baseline="middle" transform="rotate(88.635843)" font-family="Arial">Costa Rica</text>
<text x="-220.0" y="0" font-size="10" text-anchor="end" dominant-baseline="middle" transform="rotate(85.741251)" font-family="Arial">Dominican .</text>
<text x="-220.00000000000006" y="0" font-size="10" text-anchor="end" dominant-baseline="middle" transform="rotate(82.868838)" font-family="Arial">Guatemala</text>
<text x="-220.0" y="0" font-size="10" text-anchor="end" dominant-baseline="middle" transform="rotate(77.977166)" font-family="Arial">Argentina</text>
<text x="-220.0" y="0" font-size="10" text-anchor="end" dominant-baseline="middle" transform="rotate(72.590742)" font-family="Arial">Brazil</text>
<text x="-220.00000000000003" y="0" font-size="10" text-anchor="end" dominant-baseline="middle" transform="rotate(64.539627)" font-family="Arial">Colombia</text>
<text x="-220.00000000000003" y="0" font-size="10" text-anchor="end" dominant-baseline="middle" transform="rotate(47.703549)" font-family="Arial">Germany</text>
<text x="-220.00000000000003" y="0" font-size="10" text-anchor="end" dominant-baseline="middle" transform="rotate(25.130676)" font-family="Arial">Spain</text>
<text x="-220.00000000000003" y="0" font-size="10" text-anchor="end" dominant-baseline="middle" transform="rotate(3.380156)" font-family="Arial">France</text>
<text x="-220.0" y="0" font-size="10" text-anchor="end" dominant-baseline="middle" transform="rotate(-10.049654)" font-family="Arial">United Kin.</text>
<text x="-220.00000000000003" y="0" font-size="10" text-anchor="end" dominant-baseline="middle" transform="rotate(-18.271125)" font-family="Arial">Italy</text>
<text x="-220.0" y="0" font-size="10" text-anchor="end" dominant-baseline="middle" transform="rotate(-23.211688)" font-family="Arial">Indonesia</text>
<text x="-220.00000000000006" y="0" font-size="10" text-anchor="end" dominant-baseline="middle" transform="rotate(-23.902130)" font-family="Arial">Japan</text>
<text x="-220.00000000000003" y="0" font-size="10" text-anchor="end" dominant-baseline="middle" transform="rotate(-26.811270)" font-family="Arial">Egypt</text>
<text x="-220.00000000000006" y="0" font-size="10" text-anchor="end" dominant-baseline="middle" transform="rotate(-47.628785)" font-family="Arial">Nigeria</text>
<text x="220.00000000000006" y="0" font-size="10" text-anchor="start" dominant-baseline="middle" transform="rotate(-274.896855)" font-family="Arial">South Afri.</text>
<text x="220.00000000000003" y="0" font-size="10" text-anchor="start" dominant-baseline="middle" transform="rotate(-330.033016)" font-family="Arial">Australia</text>
<text x="220.00000000000006" y="0" font-size="10" text-anchor="start" dominant-baseline="middle" transform="rotate(-357.926846)" font-family="Arial">Papua New .</text>
<text x="-295.0" y="-285.0" font-size="8" text-anchor="start" dominant-baseline="middle" font-family="Arial" font-weight="bold">Continents</text>
<circle cx="-290.5" cy="-274.5" r="4.5" fill="#8c564b" stroke="#333" stroke-width="0.5" />
<text x="-278.0" y="-271.0" font-size="6" text-anchor="start" dominant-baseline="middle" font-family="Arial">Africa</text>
<circle cx="-290.5" cy="-262.5" r="4.5" fill="#9467bd" stroke="#333" stroke-width="0.5" />
<text x="-278.0" y="-259.0" font-size="6" text-anchor="start" dominant-baseline="middle" font-family="Arial">Asia</text>
<circle cx="-290.5" cy="-250.5" r="4.5" fill="#ff7f0e" stroke="#333" stroke-width="0.5" />
<text x="-278.0" y="-247.0" font-size="6" text-anchor="start" dominant-baseline="middle" font-family="Arial">Central America</text>
<circle cx="-290.5" cy="-238.5" r="4.5" fill="#d62728" stroke="#333" stroke-width="0.5" />
<text x="-278.0" y="-235.0" font-size="6" text-anchor="start" dominant-baseline="middle" font-family="Arial">Europe</text>
<circle cx="-290.5" cy="-226.5" r="4.5" fill="#1f77b4" stroke="#333" stroke-width="0.5" />
<text x="-278.0" y="-223.0" font-size="6" text-anchor="start" dominant-baseline="middle" font-family="Arial">North America</text>
<circle cx="-290.5" cy="-214.5" r="4.5" fill="#e377c2" stroke="#333" stroke-width="0.5" />
<text x="-278.0" y="-211.0" font-size="6" text-anchor="start" dominant-baseline="middle" font-family="Arial">Oceania</text>
<circle cx="-290.5" cy="-202.5" r="4.5" fill="#2ca02c" stroke="#333" stroke-width="0.5" />
<text x="-278.0" y="-199.0" font-size="6" text-anchor="start" dominant-baseline="middle" font-family="Arial">South America</text>
</svg>