<?xml version="1.0" encoding="UTF-8"?>
<svg xmlns="http://www.w3.org/2000/svg" xmlns:xlink="http://www.w3.org/1999/xlink"
     width="600.0" height="600.0" viewBox="-300.0 -300.0 600.0 600.0">
<defs>
</defs>
<rect x="-300.0" y="-300.0" width="600.0" height="600.0" fill="#ffffff" fill-opacity="1.0" />
<path d="M200.0,-0.0 A200,200,0,0,0,192.27169377077152,-55.059928936738245 L205.73071233472555,-58.91412396230993 A214.0,214.0,0,0,1,214.0,-0.0 Z" fill="#1f77b4" fill-opacity="0.9" />
<path d="M191.71149015343747,-56.97986085581862 A200,200,0,0,0,180.04246283686842,-87.09024960140401 L192.6454352354492,-93.1865670735023 A214.0,214.0,0,0,1,205.1312944641781,-60.96845111572593 Z" fill="#1f77b4" fill-opacity="0.9" />
<path d="M179.162572807699,-88.88628974665302 A200,200,0,0,0,56.48857610225295,-191.85682362100124 L60.44277642941066,-205.28680127447134 A214.0,214.0,0,0,1,191.70395290423795,-95.10833002891874 Z" fill="#1f77b4" fill-opacity="0.9" />
<path d="M54.567215436752036,-192.4121072060672 A200,200,0,0,0,47.89462984285962,-194.18059746590404 L51.247253931859795,-207.77323928851735 A214.0,214.0,0,0,1,58.38692051732468,-205.8809547104919 Z" fill="#ff7f0e" fill-opacity="0.9" />
<path d="M45.95046151993555,-194.64982683296927 A200,200,0,0,0,39.127403254061925,-196.13527554877533 L41.86632148184626,-209.86474483718962 A214.0,214.0,0,0,1,49.166993826331044,-208.27531471127713 Z" fill="#ff7f0e" fill-opacity="0.9" />
<path d="M37.164126833763646,-196.51673637806 A200,200,0,0,0,30.18603897177612,-197.70888460358682 L32.299061699800454,-211.54850652583792 A214.0,214.0,0,0,1,39.7656157121271,-210.2729079245242 Z" fill="#ff7f0e" fill-opacity="0.9" />
<path d="M28.207473787685146,-198.00085460047148 A200,200,0,0,0,-38.28821465406972,-196.3008217471437 L-40.9683896798546,-210.04187926944377 A214.0,214.0,0,0,1,30.18199695282311,-211.8609144225045 Z" fill="#2ca02c" fill-opacity="0.9" />
<path d="M-40.24927576012178,-195.90813102264457 A200,200,0,0,0,-104.17138505515831,-170.7287982025585 L-111.4633820090194,-182.67981407673759 A214.0,214.0,0,0,1,-43.06672506333031,-209.6217001942297 Z" fill="#2ca02c" fill-opacity="0.9" />
<path d="M-105.87343605667827,-169.67856534504426 A200,200,0,0,0,-145.78846450865134,-136.91502334006194 L-155.99365702425695,-146.49907497386627 A214.0,214.0,0,0,1,-113.28457658064576,-181.55606491919738 Z" fill="#2ca02c" fill-opacity="0.9" />
<path d="M-147.15030256051503,-135.4503172988121 A200,200,0,0,0,-191.11123641711836,-58.961812345960766 L-204.48902296631667,-63.089139210178026 A214.0,214.0,0,0,1,-157.4508237397511,-144.93183950972897 Z" fill="#d62728" fill-opacity="0.9" />
<path d="M-191.69128923146693,-57.04778376745314 A200,200,0,0,0,-199.9931972639612,-1.649559983238584 L-213.9927210724385,-1.765029182065285 A214.0,214.0,0,0,1,-205.10967947766963,-61.041128631174864 Z" fill="#d62728" fill-opacity="0.9" />
<path d="M-199.9996930123353,0.3504211346799496 A200,200,0,0,0,-176.34323178728016,94.35605228504204 L-188.68725801238978,100.96097594499498 A214.0,214.0,0,0,1,-213.9996715231988,0.3749506141075461 Z" fill="#d62728" fill-opacity="0.9" />
<path d="M-175.39086990224658,96.11473744922377 A200,200,0,0,0,-120.49639389894233,159.6264986064373 L-128.9311414718683,170.80035350888792 A214.0,214.0,0,0,1,-187.66823079540384,102.84276907066943 Z" fill="#d62728" fill-opacity="0.9" />
<path d="M-118.89413074767312,160.82346120437532 A200,200,0,0,0,-52.44020684783528,193.00265465986797 L-56.11102132718375,206.51284048605874 A214.0,214.0,0,0,1,-127.21671990001025,172.0811034886816 Z" fill="#d62728" fill-opacity="0.9" />
<path d="M-50.50759047969253,193.51739793604003 A200,200,0,0,0,-38.53188574193903,196.25313699701758 L-41.22911774387476,209.99085658680883 A214.0,214.0,0,0,1,-54.043121813271014,207.06361579156285 Z" fill="#9467bd" fill-opacity="0.9" />
<path d="M-36.56746050242932,196.62863685741016 A200,200,0,0,0,-32.415839042704185,197.35555066720949 L-34.68494777569348,211.17043921391416 A214.0,214.0,0,0,1,-39.12718273759938,210.3926414374289 Z" fill="#9467bd" fill-opacity="0.9" />
<path d="M-30.440695650013872,197.66983595972155 A200,200,0,0,0,40.264119240957214,195.9050808472051 L43.08260758782422,209.61843650650948 A214.0,214.0,0,0,1,-32.571544345514845,211.50672447690206 Z" fill="#9467bd" fill-opacity="0.9" />
<path d="M42.22112420956028,195.49265119303305 A200,200,0,0,0,48.269786318599785,194.08768051774103 L51.64867136090177,207.67381815398292 A214.0,214.0,0,0,1,45.176602904229505,209.17713677654538 Z" fill="#8c564b" fill-opacity="0.9" />
<path d="M50.20821730678855,193.59528639632293 A200,200,0,0,0,76.48981051724424,184.79531619344704 L81.84409725345134,197.73098832698835 A214.0,214.0,0,0,1,53.72279251826375,207.14695644406555 Z" fill="#8c564b" fill-opacity="0.9" />
<path d="M78.33390842145808,184.02119114770073 A200,200,0,0,0,127.33915619249518,154.2230180621016 L136.25289712596984,165.01862932644872 A214.0,214.0,0,0,1,83.81728201096014,196.9026745280398 Z" fill="#8c564b" fill-opacity="0.9" />
<path d="M128.87499376465655,152.94193663661952 A200,200,0,0,0,184.29300320433174,77.69227097934625 L197.193513428635,83.13072994790049 A214.0,214.0,0,0,1,137.89624332818252,163.64787220118288 Z" fill="#e377c2" fill-opacity="0.9" />
<path d="M185.0606983921064,75.84548708147263 A200,200,0,0,0,199.53909240146228,13.570210153151482 L213.50682886956466,14.520124863872086 A214.0,214.0,0,0,1,198.01494727955384,81.15467117717571 Z" fill="#e377c2" fill-opacity="0.9" />
<path d="M199.66481536982434,11.574173980632597 A200,200,0,0,0,199.99000008333306,1.999966666834405 L213.9893000891664,2.1399643335128133 A214.0,214.0,0,0,1,213.64135244571204,12.38436615927688 Z" fill="#e377c2" fill-opacity="0.9" />
<path d="M193.0,-0.0 A193.0,193.0,0,0,0,190.18337154667208,-32.85247611886317 L195.11040189762215,-33.7035765364503 A198.0,198.0,0,0,1,198.0,-0.0 Z" fill="#1f77b4" fill-opacity="0.6" />
<path d="M185.00158799806715,-54.985565725864966 A193.0,193.0,0,0,0,183.49660139821205,-59.816362939464064 L188.25039936189629,-61.366009647740334 A198.0,198.0,0,0,1,189.7943752519031,-56.410062247260434 Z" fill="#1f77b4" fill-opacity="0.6" />
<path d="M172.89188275942954,-85.77526960552015 A193.0,193.0,0,0,0,62.2454464572275,-182.68690263765606 L63.8580227903163,-187.41972394951242 A198.0,198.0,0,0,1,177.37094707962203,-87.99742684918648 Z" fill="#1f77b4" fill-opacity="0.6" />
<path d="M27.220212205116166,-191.070824689455 A193.0,193.0,0,0,0,-33.4153895281586,-190.08527492333914 L-34.2810731946912,-195.00976391099042 A198.0,198.0,0,0,1,27.92539904980829,-196.02084605446677 Z" fill="#2ca02c" fill-opacity="0.6" />
<path d="M-38.84055110851752,-189.05134643685201 A193.0,193.0,0,0,0,-97.63471278155095,-166.48262029432397 L-100.1641094857362,-170.79564154547228 A198.0,198.0,0,0,1,-39.84678300252057,-193.94904971241812 Z" fill="#2ca02c" fill-opacity="0.6" />
<path d="M-102.16786579469453,-163.73981555796772 A193.0,193.0,0,0,0,-126.94858125338175,-145.37213528648994 L-130.23740460191496,-149.1382527809586 A198.0,198.0,0,0,1,-104.81470169611148,-167.98177969159383 Z" fill="#2ca02c" fill-opacity="0.6" />
<path d="M-142.000041970897,-130.7095561933537 A193.0,193.0,0,0,0,-183.77861385278962,-58.94422016065053 L-188.5397178386132,-60.47127249641868 A198.0,198.0,0,0,1,-145.67879953490987,-134.095814125824 Z" fill="#d62728" fill-opacity="0.6" />
<path d="M-184.98209410836557,-55.05111133559228 A193.0,193.0,0,0,0,-191.84048971655054,-21.124074069981596 L-196.8104505900363,-21.6713298749034 A198.0,198.0,0,0,1,-189.77437633915224,-56.47730592977861 Z" fill="#d62728" fill-opacity="0.6" />
<path d="M-192.99970375690359,0.3381563949661514 A193.0,193.0,0,0,0,-189.38711886830868,37.16879345312566 L-194.2935209115291,38.131715563310266 A198.0,198.0,0,0,1,-197.99969608221195,0.34691692333315016 Z" fill="#d62728" fill-opacity="0.6" />
<path d="M-169.25218945566795,92.75072163850093 A193.0,193.0,0,0,0,-117.71735104896092,152.94320927068225 L-120.76702335592881,156.90546857821286 A198.0,198.0,0,0,1,-173.6369612032241,95.15359007473153 Z" fill="#d62728" fill-opacity="0.6" />
<path d="M-114.73283617150456,155.1946400622222 A193.0,193.0,0,0,0,-54.11328349516968,185.25860991967795 L-55.51518203131398,190.05805577251934 A198.0,198.0,0,0,1,-117.70518944019639,159.21522659233156 Z" fill="#d62728" fill-opacity="0.6" />
<path d="M-48.739824812903294,186.74428900827863 A193.0,193.0,0,0,0,-44.19169066851833,187.872548489283 L-45.33655312107062,192.73971295791728 A198.0,198.0,0,0,1,-50.002514574895606,191.58222395667963 Z" fill="#9467bd" fill-opacity="0.6" />
<path d="M-35.2875993848443,189.74663456740078 A193.0,193.0,0,0,0,-34.30821887781012,189.9261596448269 L-35.19703283837515,194.84652647500377 A198.0,198.0,0,0,1,-36.20178589740503,194.66235048883604 Z" fill="#9467bd" fill-opacity="0.6" />
<path d="M-29.375271302263386,190.7513917011313 A193.0,193.0,0,0,0,37.619296770543876,189.29814713961082 L38.59388995112791,194.20224421576654 A198.0,198.0,0,0,1,-30.136288693513734,195.69313760012432 Z" fill="#9467bd" fill-opacity="0.6" />
<path d="M48.45092970105095,186.81945137245162 A193.0,193.0,0,0,0,53.17887364575235,185.52899341550125 L54.55656467284438,190.33544402212044 A198.0,198.0,0,0,1,49.706135133720664,191.6593335323597 Z" fill="#8c564b" fill-opacity="0.6" />
<path d="M75.59222162670704,177.58044945753122 A193.0,193.0,0,0,0,116.71894046703324,153.7065025828548 L119.74274721488383,157.6885363285246 A198.0,198.0,0,0,1,77.5505693372435,182.18097923622375 Z" fill="#8c564b" fill-opacity="0.6" />
<path d="M124.36436898289357,147.58896885433785 A193.0,193.0,0,0,0,176.59429150461264,77.86819766749387 L181.16927314980987,79.88550848789527 A198.0,198.0,0,0,1,127.58624382700998,151.41251727025332 Z" fill="#e377c2" fill-opacity="0.6" />
<path d="M178.58357394838268,73.19089503362109 A193.0,193.0,0,0,0,191.80399246324973,21.452936282887812 L196.77300781203857,22.008711834257962 A198.0,198.0,0,0,1,183.21009140818532,75.08703221065791 Z" fill="#e377c2" fill-opacity="0.6" />
<path d="M194.99911603218786,-34.341589169188694 A198.0,198.0,0,0,0,190.3489768330638,-54.509329647370855 C76.13959073322552,-21.803731858948343,25.1512891122652,-75.10028399407855,62.878222780662995,-187.75070998519638 A198.0,198.0,0,0,0,62.50265769779103,-187.87607027163614 C25.001063079116413,-75.15042810865445,77.99964641287515,-13.736635667675479,194.99911603218786,-34.341589169188694 Z" fill="#1f77b4" fill-opacity="0.6" />
<path d="M194.9995170538443,-34.339312001953175 A198.0,198.0,0,0,0,194.99911603218786,-34.341589169188694 C77.99964641287515,-13.736635667675479,-40.75977566221417,-67.90641124346047,-101.89943915553542,-169.76602810865117 A198.0,198.0,0,0,0,-102.14554589805009,-169.61806346374001 C-40.85821835922004,-67.847225385496,77.99980682153773,-13.73572480078127,194.9995170538443,-34.339312001953175 Z" fill="#1f77b4" fill-opacity="0.6" />
<path d="M195.02729109071396,-34.181218963312574 A198.0,198.0,0,0,0,194.9995170538443,-34.339312001953175 C77.99980682153773,-13.73572480078127,-47.88007333746029,63.088339470930954,-119.7001833436507,157.72084867732738 A198.0,198.0,0,0,0,-119.69801922830588,157.72249108107604 C-47.87920769132236,63.08899643243042,78.01091643628558,-13.67248758532503,195.02729109071396,-34.181218963312574 Z" fill="#d62728" fill-opacity="0.6" />
<path d="M195.0278567405845,-34.1779913858912 A198.0,198.0,0,0,0,195.02729109071396,-34.181218963312574 C78.01091643628558,-13.67248758532503,72.75139040419849,31.302958234900007,181.87847601049623,78.25739558725002 A198.0,198.0,0,0,0,182.10830120865933,77.72108228078281 C72.84332048346373,31.088432912313124,78.0111426962338,-13.671196554356479,195.0278567405845,-34.1779913858912 Z" fill="#1f77b4" fill-opacity="0.6" />
<path d="M195.11040189762215,-33.7035765364503 A198.0,198.0,0,0,0,195.0278567405845,-34.1779913858912 C78.0111426962338,-13.671196554356479,79.19603664692514,0.7923253238995696,197.99009161731283,1.9808133097489238 A198.0,198.0,0,0,0,197.9901000824997,1.979967000166061 C79.19604003299989,0.7919868000664244,78.04416075904886,-13.48143061458012,195.11040189762215,-33.7035765364503 Z" fill="#e377c2" fill-opacity="0.6" />
<path d="M186.49406196992612,-66.5128923589807 A198.0,198.0,0,0,0,178.24203820849974,-86.21934710538999 C71.2968152833999,-34.487738842156,25.54320911612652,-74.96788957980498,63.8580227903163,-187.41972394951242 A198.0,198.0,0,0,0,62.878222780662995,-187.75070998519638 C25.1512891122652,-75.10028399407855,74.59762478797045,-26.605156943592277,186.49406196992612,-66.5128923589807 Z" fill="#1f77b4" fill-opacity="0.6" />
<path d="M186.50025010161121,-66.49553903861869 A198.0,198.0,0,0,0,186.49406196992612,-66.5128923589807 C74.59762478797045,-26.605156943592277,13.051723412860959,-78.11717170990113,32.62930853215239,-195.29292927475282 A198.0,198.0,0,0,0,32.24304724982401,-195.35707282831 C12.897218899929605,-78.142829131324,74.60010004064449,-26.598215615447476,186.50025010161121,-66.49553903861869 Z" fill="#1f77b4" fill-opacity="0.6" />
<path d="M186.93207501564902,-65.27173454370408 A198.0,198.0,0,0,0,186.50025010161121,-66.49553903861869 C74.60010004064449,-26.598215615447476,-75.54772111148269,-23.77355326537525,-188.86930277870673,-59.43388316343812 A198.0,198.0,0,0,0,-188.8799697521809,-59.399974969819915 C-75.55198790087236,-23.759989987927966,74.77283000625961,-26.108693817481637,186.93207501564902,-65.27173454370408 Z" fill="#d62728" fill-opacity="0.6" />
<path d="M187.0325145040606,-64.98337109052099 A198.0,198.0,0,0,0,186.93207501564902,-65.27173454370408 C74.77283000625961,-26.108693817481637,-78.73932033680114,-8.529914003002272,-196.84830084200286,-21.324785007505678 A198.0,198.0,0,0,0,-196.84887785313217,-21.31945796596752 C-78.73955114125287,-8.527783186387008,74.81300580162424,-25.993348436208397,187.0325145040606,-64.98337109052099 Z" fill="#d62728" fill-opacity="0.6" />
<path d="M187.9164241296022,-62.38122748346224 A198.0,198.0,0,0,0,187.0325145040606,-64.98337109052099 C74.81300580162424,-25.993348436208397,-72.14438578291951,32.67763149319856,-180.36096445729876,81.6940787329964 A198.0,198.0,0,0,0,-180.32780139457392,81.76725532998586 C-72.13112055782958,32.70690213199435,75.16656965184089,-24.9524909933849,187.9164241296022,-62.38122748346224 Z" fill="#d62728" fill-opacity="0.6" />
<path d="M188.1317516086525,-61.72879422652182 A198.0,198.0,0,0,0,187.9164241296022,-62.38122748346224 C75.16656965184089,-24.9524909933849,-47.88629490383096,63.08361721067787,-119.7157372595774,157.70904302669467 A198.0,198.0,0,0,0,-119.7001833436507,157.72084867732738 C-47.88007333746029,63.088339470930954,75.25270064346101,-24.69151769060873,188.1317516086525,-61.72879422652182 Z" fill="#d62728" fill-opacity="0.6" />
<path d="M188.1555371042788,-61.65625561936403 A198.0,198.0,0,0,0,188.1317516086525,-61.72879422652182 C75.25270064346101,-24.69151769060873,-15.286603115813627,77.71074420683152,-38.21650778953406,194.27686051707877 A198.0,198.0,0,0,0,-38.215799599306415,194.27699982495523 C-15.286319839722566,77.7107999299821,75.26221484171153,-24.662502247745614,188.1555371042788,-61.65625561936403 Z" fill="#9467bd" fill-opacity="0.6" />
<path d="M188.17929463094578,-61.58370784712223 A198.0,198.0,0,0,0,188.1555371042788,-61.65625561936403 C75.26221484171153,-24.662502247745614,15.939759007035523,77.57940501703806,39.849397517588805,193.94851254259513 A198.0,198.0,0,0,0,39.85100697125107,193.9481818511772 C15.940402788500428,77.57927274047088,75.27171785237832,-24.63348313884889,188.17929463094578,-61.58370784712223 Z" fill="#9467bd" fill-opacity="0.6" />
<path d="M188.2267257632798,-61.438584850524244 A198.0,198.0,0,0,0,188.17929463094578,-61.58370784712223 C75.27171785237832,-24.63348313884889,50.42535496887004,61.07310026733091,126.06338742217508,152.68275066832726 A198.0,198.0,0,0,0,126.06576463057023,152.68078788148057 C50.4263058522281,61.07231515259223,75.29069030531193,-24.5754339402097,188.2267257632798,-61.438584850524244 Z" fill="#8c564b" fill-opacity="0.6" />
<path d="M188.25039936189629,-61.366009647740334 A198.0,198.0,0,0,0,188.2267257632798,-61.438584850524244 C75.29069030531193,-24.5754339402097,72.7510295291924,31.303796933320683,181.87757382298096,78.25949233330171 A198.0,198.0,0,0,0,181.87847601049623,78.25739558725002 C72.75139040419849,31.302958234900007,75.30015974475852,-24.546403859096134,188.25039936189629,-61.366009647740334 Z" fill="#e377c2" fill-opacity="0.6" />
<path d="M57.367670893611255,-189.5071247637996 A198.0,198.0,0,0,0,55.923690341230426,-189.9382553847912 C22.36947613649217,-75.97530215391649,21.608617312953807,-76.19519445360261,54.02154328238451,-190.48798613400652 A198.0,198.0,0,0,0,47.67805701644593,-192.17388708962653 C19.071222806578373,-76.86955483585062,22.947068357444504,-75.80284990551984,57.367670893611255,-189.5071247637996 Z" fill="#1f77b4" fill-opacity="0.6" />
<path d="M58.858343880779934,-189.0494521431148 A198.0,198.0,0,0,0,57.367670893611255,-189.5071247637996 C22.947068357444504,-75.80284990551984,18.19638276189448,-77.08133142585584,45.4909569047362,-192.70332856463958 A198.0,198.0,0,0,0,38.82942495532494,-194.15528774060928 C15.531769982129976,-77.66211509624372,23.543337552311975,-75.61978085724591,58.858343880779934,-189.0494521431148 Z" fill="#1f77b4" fill-opacity="0.6" />
<path d="M59.776843863795555,-188.76103659834942 A198.0,198.0,0,0,0,58.858343880779934,-189.0494521431148 C23.543337552311975,-75.61978085724591,14.716994226170403,-77.82062760571176,36.792485565426006,-194.5515690142794 A198.0,198.0,0,0,0,32.62930853215239,-195.29292927475282 C13.051723412860959,-78.11717170990113,23.910737545518224,-75.50441463933977,59.776843863795555,-188.76103659834942 Z" fill="#1f77b4" fill-opacity="0.6" />
<path d="M59.85272474131327,-188.73698985901146 A198.0,198.0,0,0,0,59.776843863795555,-188.76103659834942 C23.910737545518224,-75.50441463933977,-13.712429277876481,-78.00390556439618,-34.2810731946912,-195.00976391099042 A198.0,198.0,0,0,0,-37.601873518788025,-194.39675693765332 C-15.04074940751521,-77.75870277506134,23.94108989652531,-75.49479594360459,59.85272474131327,-188.73698985901146 Z" fill="#1f77b4" fill-opacity="0.6" />
<path d="M59.887652040713014,-188.72591007344616 A198.0,198.0,0,0,0,59.85272474131327,-188.73698985901146 C23.94108989652531,-75.49479594360459,-40.2168138855171,-68.22937696401515,-100.54203471379275,-170.57344241003784 A198.0,198.0,0,0,0,-101.89943915553542,-169.76602810865117 C-40.75977566221417,-67.90641124346047,23.955060816285208,-75.49036402937847,59.887652040713014,-188.72591007344616 Z" fill="#1f77b4" fill-opacity="0.6" />
<path d="M60.42475435363593,-188.5546315031873 A198.0,198.0,0,0,0,59.887652040713014,-188.72591007344616 C23.955060816285208,-75.49036402937847,-52.19751281135299,-59.56559121093856,-130.49378202838247,-148.9139780273464 A198.0,198.0,0,0,0,-144.2128189019464,-135.6711570834214 C-57.68512756077857,-54.26846283336857,24.169901741454375,-75.42185260127492,60.42475435363593,-188.5546315031873 Z" fill="#1f77b4" fill-opacity="0.6" />
<path d="M60.44145192109463,-188.5492797378712 A198.0,198.0,0,0,0,60.42475435363593,-188.5546315031873 C24.169901741454375,-75.42185260127492,-75.42758807152647,-24.151996971516013,-188.56897017881616,-60.37999242879003 A198.0,198.0,0,0,0,-188.86930277870673,-59.43388316343812 C-75.54772111148269,-23.77355326537525,24.176580768437855,-75.41971189514848,60.44145192109463,-188.5492797378712 Z" fill="#1f77b4" fill-opacity="0.6" />
<path d="M60.4460285812214,-188.5478125801468 A198.0,198.0,0,0,0,60.44145192109463,-188.5492797378712 C24.176580768437855,-75.41971189514848,-78.73178079336886,-8.599226308506832,-196.82945198342213,-21.49806577126708 A198.0,198.0,0,0,0,-196.84830084200286,-21.324785007505678 C-78.73932033680114,-8.529914003002272,24.17841143248856,-75.41912503205872,60.4460285812214,-188.5478125801468 Z" fill="#1f77b4" fill-opacity="0.6" />
<path d="M60.82294103860082,-188.42656352917675 A198.0,198.0,0,0,0,60.4460285812214,-188.5478125801468 C24.17841143248856,-75.41912503205872,-47.887035903029826,63.08305471695178,-119.71758975757456,157.70763679237945 A198.0,198.0,0,0,0,-119.7157372595774,157.70904302669467 C-47.88629490383096,63.08361721067787,24.32917641544033,-75.3706254116707,60.82294103860082,-188.42656352917675 Z" fill="#d62728" fill-opacity="0.6" />
<path d="M62.328143695157955,-187.9340376395818 A198.0,198.0,0,0,0,60.82294103860082,-188.42656352917675 C24.32917641544033,-75.3706254116707,-16.631981432594415,77.433953751735,-41.57995358148604,193.5848843793375 A198.0,198.0,0,0,0,-38.21650778953406,194.27686051707877 C-15.286603115813627,77.71074420683152,24.931257478063184,-75.17361505583271,62.328143695157955,-187.9340376395818 Z" fill="#1f77b4" fill-opacity="0.6" />
<path d="M62.35494835379139,-187.92514577830187 A198.0,198.0,0,0,0,62.328143695157955,-187.9340376395818 C24.931257478063184,-75.17361505583271,15.447204589968758,77.67897959136468,38.61801147492189,194.19744897841167 A198.0,198.0,0,0,0,39.849397517588805,193.94851254259513 C15.939759007035523,77.57940501703806,24.941979341516557,-75.17005831132074,62.35494835379139,-187.92514577830187 Z" fill="#1f77b4" fill-opacity="0.6" />
<path d="M62.36701537568415,-187.92114142141958 A198.0,198.0,0,0,0,62.35494835379139,-187.92514577830187 C24.941979341516557,-75.17005831132074,19.094083031611508,76.86387963915122,47.73520757902877,192.15969909787805 A198.0,198.0,0,0,0,47.78708845541379,192.1468037125636 C19.114835382165516,76.85872148502546,24.94680615027366,-75.16845656856783,62.36701537568415,-187.92114142141958 Z" fill="#1f77b4" fill-opacity="0.6" />
<path d="M62.39476539133538,-187.91192950890644 A198.0,198.0,0,0,0,62.36701537568415,-187.92114142141958 C24.94680615027366,-75.16845656856783,28.248739316410525,73.99086921393398,70.62184829102631,184.97717303483492 A198.0,198.0,0,0,0,71.12744580791278,184.78335004226554 C28.450978323165113,73.91334001690622,24.957906156534154,-75.16477180356257,62.39476539133538,-187.91192950890644 Z" fill="#1f77b4" fill-opacity="0.6" />
<path d="M62.41486663884774,-187.90525384473648 A198.0,198.0,0,0,0,62.39476539133538,-187.91192950890644 C24.957906156534154,-75.16477180356257,50.15220898845368,61.29760136888283,125.3805224711342,153.24400342220707 A198.0,198.0,0,0,0,126.06338742217508,152.68275066832726 C50.42535496887004,61.07310026733091,24.9659466555391,-75.1621015378946,62.41486663884774,-187.90525384473648 Z" fill="#1f77b4" fill-opacity="0.6" />
<path d="M62.432786675447154,-187.89930055201938 A198.0,198.0,0,0,0,62.41486663884774,-187.90525384473648 C24.9659466555391,-75.1621015378946,72.5652698959248,31.7320280620636,181.41317473981198,79.33007015515899 A198.0,198.0,0,0,0,181.87757382298096,78.25949233330171 C72.7510295291924,31.303796933320683,24.973114670178862,-75.15972022080776,62.432786675447154,-187.89930055201938 Z" fill="#1f77b4" fill-opacity="0.6" />
<path d="M62.47839384492632,-187.88414063607996 A198.0,198.0,0,0,0,62.432786675447154,-187.89930055201938 C24.973114670178862,-75.15972022080776,78.96054309108472,6.1540746470086685,197.40135772771177,15.38518661752167 A198.0,198.0,0,0,0,197.54370147744766,13.434508051619968 C79.01748059097906,5.3738032206479875,24.99135753797053,-75.153656254432,62.47839384492632,-187.88414063607996 Z" fill="#1f77b4" fill-opacity="0.6" />
<path d="M62.50265769779103,-187.87607027163614 A198.0,198.0,0,0,0,62.47839384492632,-187.88414063607996 C24.99135753797053,-75.153656254432,79.19538790368192,0.8547132766916367,197.98846975920478,2.1367831917290916 A198.0,198.0,0,0,0,197.99009161731283,1.9808133097489238 C79.19603664692514,0.7923253238995696,25.001063079116413,-75.15042810865445,62.50265769779103,-187.87607027163614 Z" fill="#1f77b4" fill-opacity="0.6" />
<path d="M47.453170889838326,-192.2295413626631 A198.0,198.0,0,0,0,47.415683544431026,-192.238791491245 C18.96627341777241,-76.895516596498,-40.21549724007949,-68.23015302440086,-100.53874310019873,-170.57538256100216 A198.0,198.0,0,0,0,-100.54203471379275,-170.57344241003784 C-40.2168138855171,-68.22937696401515,18.98126835593533,-76.89181654506524,47.453170889838326,-192.2295413626631 Z" fill="#2ca02c" fill-opacity="0.6" />
<path d="M47.49065643067676,-192.2202839238966 A198.0,198.0,0,0,0,47.453170889838326,-192.2295413626631 C18.98126835593533,-76.89181654506524,-75.4269759134754,-24.153908680542816,-188.5674397836885,-60.38477170135704 A198.0,198.0,0,0,0,-188.56897017881616,-60.37999242879003 C-75.42758807152647,-24.151996971516013,18.996262572270705,-76.88811356955864,47.49065643067676,-192.2202839238966 Z" fill="#d62728" fill-opacity="0.6" />
<path d="M47.52814016552088,-192.21101917529757 A198.0,198.0,0,0,0,47.49065643067676,-192.2202839238966 C18.996262572270705,-76.88811356955864,-47.888694893946074,63.08179532444004,-119.72173723486517,157.70448831110008 A198.0,198.0,0,0,0,-119.71758975757456,157.70763679237945 C-47.887035903029826,63.08305471695178,19.011256066208354,-76.88440767011903,47.52814016552088,-192.21101917529757 Z" fill="#d62728" fill-opacity="0.6" />
<path d="M47.640580519833016,-192.18318107402976 A198.0,198.0,0,0,0,47.52814016552088,-192.21101917529757 C19.011256066208354,-76.88440767011903,15.442563382498045,77.67990239552012,38.60640845624511,194.19975598880026 A198.0,198.0,0,0,0,38.61801147492189,194.19744897841167 C15.447204589968758,77.67897959136468,19.056232207933206,-76.87327242961192,47.640580519833016,-192.18318107402976 Z" fill="#9467bd" fill-opacity="0.6" />
<path d="M47.67805701644593,-192.17388708962653 A198.0,198.0,0,0,0,47.640580519833016,-192.18318107402976 C19.056232207933206,-76.87327242961192,78.96043095262439,6.155513282890159,197.40107738156095,15.388783207225398 A198.0,198.0,0,0,0,197.40135772771177,15.38518661752167 C78.96054309108472,6.1540746470086685,19.071222806578373,-76.86955483585062,47.67805701644593,-192.17388708962653 Z" fill="#e377c2" fill-opacity="0.6" />
<path d="M38.76722879422381,-194.16771609002436 A198.0,198.0,0,0,0,38.73612922152131,-194.17392279328757 C15.494451688608525,-77.66956911731504,-72.14510899905754,32.676034758123684,-180.36277249764385,81.69008689530921 A198.0,198.0,0,0,0,-180.36096445729876,81.6940787329964 C-72.14438578291951,32.67763149319856,15.506891517689525,-77.66708643600975,38.76722879422381,-194.16771609002436 Z" fill="#d62728" fill-opacity="0.6" />
<path d="M38.798327372424296,-194.16150440574515 A198.0,198.0,0,0,0,38.76722879422381,-194.16771609002436 C15.506891517689525,-77.66708643600975,-47.89005222551485,63.08076487993358,-119.72513056378712,157.70191219983394 A198.0,198.0,0,0,0,-119.72173723486517,157.70448831110008 C-47.888694893946074,63.08179532444004,15.519330948969719,-77.66460176229806,38.798327372424296,-194.16150440574515 Z" fill="#d62728" fill-opacity="0.6" />
<path d="M38.82942495532494,-194.15528774060928 A198.0,198.0,0,0,0,38.798327372424296,-194.16150440574515 C15.519330948969719,-77.66460176229806,15.441297589074129,77.68015402125343,38.60324397268532,194.20038505313354 A198.0,198.0,0,0,0,38.60640845624511,194.19975598880026 C15.442563382498045,77.67990239552012,15.531769982129976,-77.66211509624372,38.82942495532494,-194.15528774060928 Z" fill="#9467bd" fill-opacity="0.6" />
<path d="M29.922884558017643,-195.72588224281313 A198.0,198.0,0,0,0,29.884178582058357,-195.73179575755094 C11.953671432823343,-78.29271830302038,-40.214173223979486,-68.23093339469843,-100.53543305994872,-170.57733348674606 A198.0,198.0,0,0,0,-100.53874310019873,-170.57538256100216 C-40.21549724007949,-68.23015302440086,11.969153823207058,-78.29035289712526,29.922884558017643,-195.72588224281313 Z" fill="#2ca02c" fill-opacity="0.6" />
<path d="M30.61939055930025,-195.61813035037687 A198.0,198.0,0,0,0,29.922884558017643,-195.72588224281313 C11.969153823207058,-78.29035289712526,-75.41588713544529,-24.18850899856747,-188.5397178386132,-60.47127249641868 A198.0,198.0,0,0,0,-188.5674397836885,-60.38477170135704 C-75.4269759134754,-24.153908680542816,12.247756223720101,-78.24725214015075,30.61939055930025,-195.61813035037687 Z" fill="#d62728" fill-opacity="0.6" />
<path d="M30.696756328181774,-195.6060048948606 A198.0,198.0,0,0,0,30.61939055930025,-195.61813035037687 C12.247756223720101,-78.24725214015075,-72.14688658684956,32.6721097547169,-180.3672164671239,81.68027438679225 A198.0,198.0,0,0,0,-180.36277249764385,81.69008689530921 C-72.14510899905754,32.676034758123684,12.27870253127271,-78.24240195794425,30.696756328181774,-195.6060048948606 Z" fill="#d62728" fill-opacity="0.6" />
<path d="M32.20441416168617,-195.36344516951624 A198.0,198.0,0,0,0,30.696756328181774,-195.6060048948606 C12.27870253127271,-78.24240195794425,-47.9550871320827,63.0313383814302,-119.88771783020675,157.5783459535755 A198.0,198.0,0,0,0,-119.72513056378712,157.70191219983394 C-47.89005222551485,63.08076487993358,12.881765664674468,-78.1453780678065,32.20441416168617,-195.36344516951624 Z" fill="#d62728" fill-opacity="0.6" />
<path d="M32.24304724982401,-195.35707282831 A198.0,198.0,0,0,0,32.20441416168617,-195.36344516951624 C12.881765664674468,-78.1453780678065,15.439741859696568,77.68046325367746,38.59935464924142,194.20115813419363 A198.0,198.0,0,0,0,38.60324397268532,194.20038505313354 C15.441297589074129,77.68015402125343,12.897218899929605,-78.142829131324,32.24304724982401,-195.35707282831 Z" fill="#9467bd" fill-opacity="0.6" />
<path d="M-37.60397006393993,-194.3963513943364 A198.0,198.0,0,0,0,-37.90533250752907,-194.33781352967225 C-15.162133003011627,-77.7351254118689,-40.06564379429449,-68.31825661818891,-100.1641094857362,-170.79564154547228 A198.0,198.0,0,0,0,-100.53543305994872,-170.57733348674606 C-40.214173223979486,-68.23093339469843,-15.041588025575974,-77.75854055773456,-37.60397006393993,-194.3963513943364 Z" fill="#2ca02c" fill-opacity="0.6" />
<path d="M-37.601873518788025,-194.39675693765332 A198.0,198.0,0,0,0,-37.60397006393993,-194.3963513943364 C-15.041588025575974,-77.75854055773456,-52.14625661763578,-59.610468214632206,-130.36564154408944,-149.0261705365805 A198.0,198.0,0,0,0,-130.49378202838247,-148.9139780273464 C-52.19751281135299,-59.56559121093856,-15.04074940751521,-77.75870277506134,-37.601873518788025,-194.39675693765332 Z" fill="#2ca02c" fill-opacity="0.6" />
<path d="M-103.12781915917638,-169.02264024524115 A198.0,198.0,0,0,0,-103.12967120460672,-169.0215102205329 C-41.25186848184269,-67.60860408821316,-52.09496184076599,-59.65530111238344,-130.23740460191496,-149.1382527809586 A198.0,198.0,0,0,0,-130.36564154408944,-149.0261705365805 C-52.14625661763578,-59.610468214632206,-41.25112766367056,-67.60905609809646,-103.12781915917638,-169.02264024524115 Z" fill="#2ca02c" fill-opacity="0.6" />
<path d="M-103.00522412923758,-169.09737964287186 A198.0,198.0,0,0,0,-103.12781915917638,-169.02264024524115 C-41.25112766367056,-67.60905609809646,-47.95571004525647,63.03086445587818,-119.88927511314117,157.57716113969545 A198.0,198.0,0,0,0,-119.88771783020675,157.5783459535755 C-47.9550871320827,63.0313383814302,-41.20208965169503,-67.63895185714874,-103.00522412923758,-169.09737964287186 Z" fill="#d62728" fill-opacity="0.6" />
<path d="M-102.14554589805009,-169.61806346374001 A198.0,198.0,0,0,0,-103.00522412923758,-169.09737964287186 C-41.20208965169503,-67.63895185714874,-16.633763422879255,77.43357097791426,-41.58440855719814,193.58392744478564 A198.0,198.0,0,0,0,-41.57995358148604,193.5848843793375 C-16.631981432594415,77.433953751735,-40.85821835922004,-67.847225385496,-102.14554589805009,-169.61806346374001 Z" fill="#9467bd" fill-opacity="0.6" />
<path d="M-144.32946660338038,-135.54705850730846 A198.0,198.0,0,0,0,-144.33057986356485,-135.5458731066613 C-57.732231945425944,-54.21834924266452,-78.72418023601453,-8.668531949961361,-196.8104505900363,-21.6713298749034 A198.0,198.0,0,0,0,-196.82945198342213,-21.49806577126708 C-78.73178079336886,-8.599226308506832,-57.73178664135216,-54.21882340292339,-144.32946660338038,-135.54705850730846 Z" fill="#2ca02c" fill-opacity="0.6" />
<path d="M-144.2128189019464,-135.6711570834214 A198.0,198.0,0,0,0,-144.32946660338038,-135.54705850730846 C-57.73178664135216,-54.21882340292339,15.438863385167227,77.6806378538059,38.59715846291807,194.20159463451475 A198.0,198.0,0,0,0,38.59935464924142,194.20115813419363 C15.439741859696568,77.68046325367746,-57.68512756077857,-54.26846283336857,-144.2128189019464,-135.6711570834214 Z" fill="#9467bd" fill-opacity="0.6" />
<path d="M-188.97930879629251,-59.08316889669614 A198.0,198.0,0,0,0,-189.20012405294716,-58.37219422250116 C-75.68004962117887,-23.348877689000464,-77.69315166843838,15.37576612156386,-194.23287917109593,38.43941530390965 A198.0,198.0,0,0,0,-180.3672164671239,81.68027438679225 C-72.14688658684956,32.6721097547169,-75.59172351851701,-23.633267558678455,-188.97930879629251,-59.08316889669614 Z" fill="#d62728" fill-opacity="0.6" />
<path d="M-188.90510984783683,-59.31997533189555 A198.0,198.0,0,0,0,-188.97930879629251,-59.08316889669614 C-75.59172351851701,-23.633267558678455,-47.95652975078497,63.03024079171899,-119.89132437696243,157.57560197929746 A198.0,198.0,0,0,0,-119.88927511314117,157.57716113969545 C-47.95571004525647,63.03086445587818,-75.56204393913474,-23.727990132758222,-188.90510984783683,-59.31997533189555 Z" fill="#d62728" fill-opacity="0.6" />
<path d="M-188.8954421866741,-59.35075333221017 A198.0,198.0,0,0,0,-188.90510984783683,-59.31997533189555 C-75.56204393913474,-23.727990132758222,-21.83197680349585,76.13149669388893,-54.57994200873962,190.3287417347223 A198.0,198.0,0,0,0,-52.03091018152181,191.04131591276902 C-20.812364072608727,76.41652636510761,-75.55817687466964,-23.74030133288407,-188.8954421866741,-59.35075333221017 Z" fill="#d62728" fill-opacity="0.6" />
<path d="M-188.89484577907922,-59.35265148329829 A198.0,198.0,0,0,0,-188.8954421866741,-59.35075333221017 C-75.55817687466964,-23.74030133288407,-16.66062117679734,77.42779670120578,-41.651552941993344,193.56949175301443 A198.0,198.0,0,0,0,-41.58440855719814,193.58392744478564 C-16.633763422879255,77.43357097791426,-75.55793831163169,-23.741060593319318,-188.89484577907922,-59.35265148329829 Z" fill="#d62728" fill-opacity="0.6" />
<path d="M-188.88594500045983,-59.38097154209643 A198.0,198.0,0,0,0,-188.89484577907922,-59.35265148329829 C-75.55793831163169,-23.741060593319318,-13.273897234471058,78.07972625597955,-33.18474308617764,195.19931563994885 A198.0,198.0,0,0,0,-32.597150210188026,195.29829952709377 C-13.03886008407521,78.11931981083751,-75.55437800018393,-23.752388616838573,-188.88594500045983,-59.38097154209643 Z" fill="#d62728" fill-opacity="0.6" />
<path d="M-188.88378628938872,-59.38783778674322 A198.0,198.0,0,0,0,-188.88594500045983,-59.38097154209643 C-75.55437800018393,-23.752388616838573,19.073329289125855,76.86903219000857,47.683323222814636,192.17258047502142 A198.0,198.0,0,0,0,47.73520757902877,192.15969909787805 C19.094083031611508,76.86387963915122,-75.5535145157555,-23.75513511469729,-188.88378628938872,-59.38783778674322 Z" fill="#d62728" fill-opacity="0.6" />
<path d="M-188.8823677334056,-59.39234933408966 A198.0,198.0,0,0,0,-188.88378628938872,-59.38783778674322 C-75.5535145157555,-23.75513511469729,28.19091787313986,74.01291880117878,70.47729468284965,185.03229700294696 A198.0,198.0,0,0,0,70.62184829102631,184.97717303483492 C28.248739316410525,73.99086921393398,-75.55294709336225,-23.756939733635864,-188.8823677334056,-59.39234933408966 Z" fill="#d62728" fill-opacity="0.6" />
<path d="M-188.8799697521809,-59.399974969819915 A198.0,198.0,0,0,0,-188.8823677334056,-59.39234933408966 C-75.55294709336225,-23.756939733635864,49.96955605377807,61.446590367475494,124.92389013444517,153.61647591868874 A198.0,198.0,0,0,0,125.3805224711342,153.24400342220707 C50.15220898845368,61.29760136888283,-75.55198790087236,-23.759989987927966,-188.8799697521809,-59.399974969819915 Z" fill="#d62728" fill-opacity="0.6" />
<path d="M-196.9440674934895,-20.42141716727444 A198.0,198.0,0,0,0,-197.9932652913216,-1.6330643834061982 C-79.19730611652864,-0.6532257533624793,-77.71740836461164,15.252686225324107,-194.2935209115291,38.131715563310266 A198.0,198.0,0,0,0,-194.23287917109593,38.43941530390965 C-77.69315166843838,15.37576612156386,-78.77762699739581,-8.168566866909776,-196.9440674934895,-20.42141716727444 Z" fill="#d62728" fill-opacity="0.6" />
<path d="M-196.8522733134761,-21.288083317116836 A198.0,198.0,0,0,0,-196.9440674934895,-20.42141716727444 C-78.77762699739581,-8.168566866909776,-21.836268243087538,76.13026592109033,-54.59067060771884,190.3256648027258 A198.0,198.0,0,0,0,-54.57994200873962,190.3287417347223 C-21.83197680349585,76.13149669388893,-78.74090932539045,-8.515233326846735,-196.8522733134761,-21.288083317116836 Z" fill="#d62728" fill-opacity="0.6" />
<path d="M-196.85080698427592,-21.301638191447783 A198.0,198.0,0,0,0,-196.8522733134761,-21.288083317116836 C-78.74090932539045,-8.515233326846735,27.930508904533298,74.11158257879659,69.82627226133324,185.27895644699146 A198.0,198.0,0,0,0,70.47729468284965,185.03229700294696 C28.19091787313986,74.01291880117878,-78.74032279371038,-8.520655276579113,-196.85080698427592,-21.301638191447783 Z" fill="#d62728" fill-opacity="0.6" />
<path d="M-196.84887785313217,-21.31945796596752 A198.0,198.0,0,0,0,-196.85080698427592,-21.301638191447783 C-78.74032279371038,-8.520655276579113,49.32679592359392,61.963757180404414,123.3169898089848,154.90939295101103 A198.0,198.0,0,0,0,124.92389013444517,153.61647591868874 C49.96955605377807,61.446590367475494,-78.73955114125287,-8.527783186387008,-196.84887785313217,-21.31945796596752 Z" fill="#d62728" fill-opacity="0.6" />
<path d="M-179.40380864705483,83.77513618569013 A198.0,198.0,0,0,0,-174.57979946940736,93.41249176219162 C-69.83191978776294,37.36499670487665,-48.30680934237153,62.76218743128515,-120.76702335592881,156.90546857821286 A198.0,198.0,0,0,0,-119.89132437696243,157.57560197929746 C-47.95652975078497,63.03024079171899,-71.76152345882194,33.51005447427605,-179.40380864705483,83.77513618569013 Z" fill="#d62728" fill-opacity="0.6" />
<path d="M-179.40645733349135,83.7694638101865 A198.0,198.0,0,0,0,-179.40380864705483,83.77513618569013 C-71.76152345882194,33.51005447427605,-22.021235569296735,76.07696881449431,-55.05308892324184,190.19242203623577 A198.0,198.0,0,0,0,-54.59067060771884,190.3256648027258 C-21.836268243087538,76.13026592109033,-71.76258293339654,33.5077855240746,-179.40645733349135,83.7694638101865 Z" fill="#d62728" fill-opacity="0.6" />
<path d="M-179.44507042971702,83.68671757497663 A198.0,198.0,0,0,0,-179.40645733349135,83.7694638101865 C-71.76258293339654,33.5077855240746,-17.813565586187533,77.17069962820472,-44.53391396546883,192.9267490705118 A198.0,198.0,0,0,0,-41.651552941993344,193.56949175301443 C-16.66062117679734,77.42779670120578,-71.77802817188682,33.474687029990655,-179.44507042971702,83.68671757497663 Z" fill="#d62728" fill-opacity="0.6" />
<path d="M-179.45272190487657,83.67030895682788 A198.0,198.0,0,0,0,-179.44507042971702,83.68671757497663 C-71.77802817188682,33.474687029990655,-13.40815033808899,78.05678384683297,-33.520375845222475,195.14195961708242 A198.0,198.0,0,0,0,-33.18474308617764,195.19931563994885 C-13.273897234471058,78.07972625597955,-71.78108876195063,33.46812358273115,-179.45272190487657,83.67030895682788 Z" fill="#d62728" fill-opacity="0.6" />
<path d="M-179.8162115582879,82.8862477183341 A198.0,198.0,0,0,0,-179.45272190487657,83.67030895682788 C-71.78108876195063,33.46812358273115,16.73001597064779,77.41283204754798,41.825039926619475,193.53208011886994 A198.0,198.0,0,0,0,47.683323222814636,192.17258047502142 C19.073329289125855,76.86903219000857,-71.92648462331516,33.15449908733364,-179.8162115582879,82.8862477183341 Z" fill="#d62728" fill-opacity="0.6" />
<path d="M-179.82149369850202,82.87478750524546 A198.0,198.0,0,0,0,-179.8162115582879,82.8862477183341 C-71.92648462331516,33.15449908733364,27.785687845687473,74.16599996590092,69.46421961421868,185.41499991475231 A198.0,198.0,0,0,0,69.82627226133324,185.27895644699146 C27.930508904533298,74.11158257879659,-71.9285974794008,33.14991500209819,-179.82149369850202,82.87478750524546 Z" fill="#d62728" fill-opacity="0.6" />
<path d="M-179.828635112361,82.85929032779192 A198.0,198.0,0,0,0,-179.82149369850202,82.87478750524546 C-71.9285974794008,33.14991500209819,48.95709693081094,62.25626603087582,122.39274232702735,155.64066507718954 A198.0,198.0,0,0,0,123.3169898089848,154.90939295101103 C49.32679592359392,61.963757180404414,-71.9314540449444,33.14371613111677,-179.828635112361,82.85929032779192 Z" fill="#d62728" fill-opacity="0.6" />
<path d="M-180.32652529921626,81.77006954571533 A198.0,198.0,0,0,0,-179.828635112361,82.85929032779192 C-71.9314540449444,33.14371613111677,72.51843588179649,31.838914197217406,181.2960897044912,79.59728549304351 A198.0,198.0,0,0,0,181.41317473981198,79.33007015515899 C72.5652698959248,31.7320280620636,-72.13061011968651,32.70802781828613,-180.32652529921626,81.77006954571533 Z" fill="#e377c2" fill-opacity="0.6" />
<path d="M-180.32780139457392,81.76725532998586 A198.0,198.0,0,0,0,-180.32652529921626,81.77006954571533 C-72.13061011968651,32.70802781828613,79.19525225736707,0.867190804838768,197.98813064341766,2.16797701209692 A198.0,198.0,0,0,0,197.98846975920478,2.1367831917290916 C79.19538790368192,0.8547132766916367,-72.13112055782958,32.70690213199435,-180.32780139457392,81.76725532998586 Z" fill="#d62728" fill-opacity="0.6" />
<path d="M-119.2962875689645,158.0265666660607 A198.0,198.0,0,0,0,-119.29142995995291,158.03023362037294 C-47.71657198398117,63.212093448149176,-22.20607281252559,76.02322230900774,-55.51518203131398,190.05805577251934 A198.0,198.0,0,0,0,-55.05308892324184,190.19242203623577 C-22.021235569296735,76.07696881449431,-47.7185150275858,63.210626666424275,-119.2962875689645,158.0265666660607 Z" fill="#d62728" fill-opacity="0.6" />
<path d="M-119.66607502661662,157.7467289287615 A198.0,198.0,0,0,0,-119.2962875689645,158.0265666660607 C-47.7185150275858,63.210626666424275,22.238709895496957,76.01368154604754,55.59677473874239,190.03420386511883 A198.0,198.0,0,0,0,69.46421961421868,185.41499991475231 C27.785687845687473,74.16599996590092,-47.86643001064665,63.09869157150461,-119.66607502661662,157.7467289287615 Z" fill="#d62728" fill-opacity="0.6" />
<path d="M-119.69581027076391,157.72416746848052 A198.0,198.0,0,0,0,-119.66607502661662,157.7467289287615 C-47.86643001064665,63.09869157150461,48.11895232742958,62.90633057896923,120.29738081857396,157.26582644742308 A198.0,198.0,0,0,0,122.39274232702735,155.64066507718954 C48.95709693081094,62.25626603087582,-47.87832410830557,63.08966698739221,-119.69581027076391,157.72416746848052 Z" fill="#d62728" fill-opacity="0.6" />
<path d="M-119.69801922830588,157.72249108107604 A198.0,198.0,0,0,0,-119.69581027076391,157.72416746848052 C-47.87832410830557,63.08966698739221,72.4714444281863,31.945731209228946,181.17861107046576,79.86432802307236 A198.0,198.0,0,0,0,181.2960897044912,79.59728549304351 C72.51843588179649,31.838914197217406,-47.87920769132236,63.08899643243042,-119.69801922830588,157.72249108107604 Z" fill="#d62728" fill-opacity="0.6" />
<path d="M-51.93470767157717,191.06749105765695 A198.0,198.0,0,0,0,-51.915804779356925,191.07262811326927 C-20.76632191174277,76.42905124530772,-18.13462124842825,77.09588518316691,-45.33655312107062,192.73971295791728 A198.0,198.0,0,0,0,-44.53391396546883,192.9267490705118 C-17.813565586187533,77.17069962820472,-20.77388306863087,76.42699642306279,-51.93470767157717,191.06749105765695 Z" fill="#d62728" fill-opacity="0.6" />
<path d="M-52.001854679535796,191.04922692826696 A198.0,198.0,0,0,0,-51.93470767157717,191.06749105765695 C-20.77388306863087,76.42699642306279,-14.07881313535006,77.93861059000152,-35.19703283837515,194.84652647500377 A198.0,198.0,0,0,0,-33.520375845222475,195.14195961708242 C-13.40815033808899,78.05678384683297,-20.80074187181432,76.41969077130679,-52.001854679535796,191.04922692826696 Z" fill="#d62728" fill-opacity="0.6" />
<path d="M-52.00470360382098,191.0484514542809 A198.0,198.0,0,0,0,-52.001854679535796,191.04922692826696 C-20.80074187181432,76.41969077130679,16.71956518698587,77.4150898724411,41.79891296746467,193.53772468110273 A198.0,198.0,0,0,0,41.825039926619475,193.53208011886994 C16.73001597064779,77.41283204754798,-20.801881441528394,76.41938058171236,-52.00470360382098,191.0484514542809 Z" fill="#d62728" fill-opacity="0.6" />
<path d="M-52.03091018152181,191.04131591276902 A198.0,198.0,0,0,0,-52.00470360382098,191.0484514542809 C-20.801881441528394,76.41938058171236,21.822625869137752,76.13417760884818,54.55656467284438,190.33544402212044 A198.0,198.0,0,0,0,55.59677473874239,190.03420386511883 C22.238709895496957,76.01368154604754,-20.812364072608727,76.41652636510761,-52.03091018152181,191.04131591276902 Z" fill="#d62728" fill-opacity="0.6" />
<path d="M-38.148410013609315,194.29024374227737 A198.0,198.0,0,0,0,-38.14656688451964,194.2906056270474 C-15.258626753807858,77.71624225081896,78.94811585170805,6.3114977196608,197.37028962927013,15.778744299152 A198.0,198.0,0,0,0,197.40107738156095,15.388783207225398 C78.96043095262439,6.155513282890159,-15.259364005443727,77.71609749691095,-38.148410013609315,194.29024374227737 Z" fill="#9467bd" fill-opacity="0.6" />
<path d="M-38.215799599306415,194.27699982495523 A198.0,198.0,0,0,0,-38.148410013609315,194.29024374227737 C-15.259364005443727,77.71609749691095,79.1948335231503,0.9046232588825082,197.9870838078757,2.2615581472062702 A198.0,198.0,0,0,0,197.98813064341766,2.16797701209692 C79.19525225736707,0.867190804838768,-15.286319839722566,77.7107999299821,-38.215799599306415,194.27699982495523 Z" fill="#9467bd" fill-opacity="0.6" />
<path d="M-32.17567672024379,195.36818018191795 A198.0,198.0,0,0,0,-32.09168065227715,195.3819951605374 C-12.83667226091086,78.15279806421496,15.437555980451165,77.68089768630662,38.59388995112791,194.20224421576654 A198.0,198.0,0,0,0,38.59715846291807,194.20159463451475 C15.438863385167227,77.6806378538059,-12.870270688097518,78.14727207276718,-32.17567672024379,195.36818018191795 Z" fill="#9467bd" fill-opacity="0.6" />
<path d="M-32.17725995190051,195.36791942892728 A198.0,198.0,0,0,0,-32.17567672024379,195.36818018191795 C-12.870270688097518,78.14727207276718,47.93152057894831,63.049261177192676,119.82880144737076,157.62315294298168 A198.0,198.0,0,0,0,120.29738081857396,157.26582644742308 C48.11895232742958,62.90633057896923,-12.870903980760204,78.14716777157092,-32.17725995190051,195.36791942892728 Z" fill="#9467bd" fill-opacity="0.6" />
<path d="M-32.597150210188026,195.29829952709377 A198.0,198.0,0,0,0,-32.17725995190051,195.36791942892728 C-12.870903980760204,78.14716777157092,72.46770925992395,31.954203395158107,181.16927314980987,79.88550848789527 A198.0,198.0,0,0,0,181.17861107046576,79.86432802307236 C72.4714444281863,31.945731209228946,-13.03886008407521,78.11931981083751,-32.597150210188026,195.29829952709377 Z" fill="#e377c2" fill-opacity="0.6" />
<path d="M39.85100697125107,193.9481818511772 A198.0,198.0,0,0,0,39.86147804854764,193.94603003873308 C15.944591219419056,77.57841201549324,78.91598008098201,6.701349704205228,197.289950202455,16.75337426051307 A198.0,198.0,0,0,0,197.37028962927013,15.778744299152 C78.94811585170805,6.3114977196608,15.940402788500428,77.57927274047088,39.85100697125107,193.9481818511772 Z" fill="#9467bd" fill-opacity="0.6" />
<path d="M71.2718047027366,184.72771815408476 A198.0,198.0,0,0,0,75.7249124120718,182.94736303151257 C30.289964964828723,73.17894521260503,47.89709888595354,63.07541453140985,119.74274721488383,157.6885363285246 A198.0,198.0,0,0,0,119.82880144737076,157.62315294298168 C47.93152057894831,63.049261177192676,28.508721881094644,73.8910872616339,71.2718047027366,184.72771815408476 Z" fill="#8c564b" fill-opacity="0.6" />
<path d="M71.12744580791278,184.78335004226554 A198.0,198.0,0,0,0,71.2718047027366,184.72771815408476 C28.508721881094644,73.8910872616339,79.19483119470017,0.9048270790290474,197.98707798675042,2.2620676975726184 A198.0,198.0,0,0,0,197.9870838078757,2.2615581472062702 C79.1948335231503,0.9046232588825082,28.450978323165113,73.91334001690622,71.12744580791278,184.78335004226554 Z" fill="#e377c2" fill-opacity="0.6" />
<path d="M182.22262088920874,77.45267223451818 A198.0,198.0,0,0,0,182.45007317228843,76.91534826955278 C72.98002926891537,30.766139307821113,78.70920312481543,8.803484733703185,196.77300781203857,22.008711834257962 A198.0,198.0,0,0,0,197.289950202455,16.75337426051307 C78.91598008098201,6.701349704205228,72.8890483556835,30.981068893807272,182.22262088920874,77.45267223451818 Z" fill="#e377c2" fill-opacity="0.6" />
<path d="M182.10830120865933,77.72108228078281 A198.0,198.0,0,0,0,182.22262088920874,77.45267223451818 C72.8890483556835,30.981068893807272,79.06726688645045,4.583372896330508,197.6681672161261,11.458432240826271 A198.0,198.0,0,0,0,197.98707798675042,2.2620676975726184 C79.19483119470017,0.9048270790290474,72.84332048346373,31.088432912313124,182.10830120865933,77.72108228078281 Z" fill="#e377c2" fill-opacity="0.6" />
<text x="220.00000000000006" y="0" font-size="10" text-anchor="start" dominant-baseline="middle" transform="rotate(-7.989936)" font-family="Arial">Canada</text>
<text x="220.00000000000003" y="0" font-size="10" text-anchor="start" dominant-baseline="middle" transform="rotate(-21.183420)" font-family="Arial">Mexico</text>
<text x="220.0" y="0" font-size="10" text-anchor="start" dominant-baseline="middle" transform="rotate(-49.990456)" font-family="Arial">United Sta.</text>
<text x="220.00000000000006" y="0" font-size="10" text-anchor="start" dominant-baseline="middle" transform="rotate(-75.155726)" font-family="Arial">Costa Rica</text>
<text x="220.00000000000003" y="0" font-size="10" text-anchor="start" dominant-baseline="middle" transform="rotate(-77.717786)" font-family="Arial">Dominican .</text>
<text x="220.00000000000003" y="0" font-size="10" text-anchor="start" dominant-baseline="middle" transform="rotate(-80.305091)" font-family="Arial">Guatemala</text>
<text x="-220.0" y="0" font-size="10" text-anchor="end" dominant-baseline="middle" transform="rotate(88.535492)" font-family="Arial">Argentina</text>
<text x="-220.00000000000003" y="0" font-size="10" text-anchor="end" dominant-baseline="middle" transform="rotate(68.500198)" font-family="Arial">Brazil</text>
<text x="-220.00000000000003" y="0" font-size="10" text-anchor="end" dominant-baseline="middle" transform="rotate(50.619747)" font-family="Arial">Colombia</text>
<text x="-220.00000000000003" y="0" font-size="10" text-anchor="end" dominant-baseline="middle" transform="rotate(29.887666)" font-family="Arial">Germany</text>
<text x="-220.00000000000003" y="0" font-size="10" text-anchor="end" dominant-baseline="middle" transform="rotate(8.522850)" font-family="Arial">Spain</text>
<text x="-220.00000000000003" y="0" font-size="10" text-anchor="end" dominant-baseline="middle" transform="rotate(-14.125154)" font-family="Arial">France</text>
<text x="-220.0" y="0" font-size="10" text-anchor="end" dominant-baseline="middle" transform="rotate(-40.837507)" font-family="Arial">United Kin.</text>
<text x="-220.00000000000003" y="0" font-size="10" text-anchor="end" dominant-baseline="middle" transform="rotate(-64.162195)" font-family="Arial">Italy</text>
<text x="-220.00000000000006" y="0" font-size="10" text-anchor="end" dominant-baseline="middle" transform="rotate(-77.132114)" font-family="Arial">Indonesia</text>
<text x="-220.00000000000003" y="0" font-size="10" text-anchor="end" dominant-baseline="middle" transform="rotate(-80.068665)" font-family="Arial">India</text>
<text x="220.00000000000006" y="0" font-size="10" text-anchor="start" dominant-baseline="middle" transform="rotate(-271.429776)" font-family="Arial">Japan</text>
<text x="220.00000000000003" y="0" font-size="10" text-anchor="start" dominant-baseline="middle" transform="rotate(-283.076661)" font-family="Arial">Egypt</text>
<text x="220.00000000000003" y="0" font-size="10" text-anchor="start" dominant-baseline="middle" transform="rotate(-288.512296)" font-family="Arial">Nigeria</text>
<text x="220.00000000000006" y="0" font-size="10" text-anchor="start" dominant-baseline="middle" transform="rotate(-301.302147)" font-family="Arial">South Afri.</text>
<text x="220.00000000000003" y="0" font-size="10" text-anchor="start" dominant-baseline="middle" transform="rotate(-323.630017)" font-family="Arial">Australia</text>
<text x="220.00000000000003" y="0" font-size="10" text-anchor="start" dominant-baseline="middle" transform="rotate(-346.911798)" font-family="Arial">New Zealan.</text>
<text x="220.00000000000006" y="0" font-size="10" text-anchor="start" dominant-baseline="middle" transform="rotate(-358.054716)" font-family="Arial">Papua New .</text>
<text x="-295.0" y="-285.0" font-size="8" text-anchor="start" dominant-baseline="middle" font-family="Arial" font-weight="bold">Continents</text>
<circle cx="-290.5" cy="-274.5" r="4.5" fill="#8c564b" stroke="#333" stroke-width="0.5" />
<text x="-278.0" y="-271.0" font-size="6" text-anchor="start" dominant-baseline="middle" font-family="Arial">Africa</text>
<circle cx="-290.5" cy="-262.5" r="4.5" fill="#9467bd" stroke="#333" stroke-width="0.5" />
<text x="-278.0" y="-259.0" font-size="6" text-anchor="start" dominant-baseline="middle" font-family="Arial">Asia</text>
<circle cx="-290.5" cy="-250.5" r="4.5" fill="#ff7f0e" stroke="#333" stroke-width="0.5" />
<text x="-278.0" y="-247.0" font-size="6" text-anchor="start" dominant-baseline="middle" font-family="Arial">Central America</text>
<circle cx="-290.5" cy="-238.5" r="4.5" fill="#d62728" stroke="#333" stroke-width="0.5" />
<text x="-278.0" y="-235.0" font-size="6" text-anchor="start" dominant-baseline="middle" font-family="Arial">Europe</text>
<circle cx="-290.5" cy="-226.5" r="4.5" fill="#1f77b4" stroke="#333" stroke-width="0.5" />
<text x="-278.0" y="-223.0" font-size="6" text-anchor="start" dominant-baseline="middle" font-family="Arial">North America</text>
<circle cx="-290.5" cy="-214.5" r="4.5" fill="#e377c2" stroke="#333" stroke-width="0.5" />
<text x="-278.0" y="-211.0" font-size="6" text-anchor="start" dominant-baseline="middle" font-family="Arial">Oceania</text>
<circle cx="-290.5" cy="-202.5" r="4.5" fill="#2ca02c" stroke="#333" stroke-width="0.5" />
<text x="-278.0" y="-199.0" font-size="6" text-anchor="start" dominant-baseline="middle" font-family="Arial">South America</text>
</svg>