<?xml version="1.0" encoding="UTF-8"?>
<svg xmlns="http://www.w3.org/2000/svg" xmlns:xlink="http://www.w3.org/1999/xlink"
     width="600.0" height="600.0" viewBox="-300.0 -300.0 600.0 600.0">
<defs>
</defs>
<rect x="-300.0" y="-300.0" width="600.0" height="600.0" fill="#ffffff" fill-opacity="1.0" />
<path d="M200.0,-0.0 A200,200,0,0,0,192.24453264671317,-55.15468853548927 L205.7016499319831,-59.01551673297352 A214.0,214.0,0,0,1,214.0,-0.0 Z" fill="#1f77b4" fill-opacity="0.9" />
<path d="M191.6833828072297,-57.07434410991543 A200,200,0,0,0,173.33335577048413,-99.77749133618651 L185.46669067441803,-106.76191572971958 A214.0,214.0,0,0,1,205.10121960373579,-61.069548197609514 Z" fill="#1f77b4" fill-opacity="0.9" />
<path d="M172.32693089105447,-101.50580717215018 A200,200,0,0,0,46.093570403885764,-194.61598795428404 L49.32012033215777,-208.23910711108394 A214.0,214.0,0,0,1,184.3898160534283,-108.6112136742007 Z" fill="#1f77b4" fill-opacity="0.9" />
<path d="M44.14513830086413,-195.06718525779155 A200,200,0,0,0,36.78636741256169,-196.58780016213626 L39.36141313144101,-210.3489461734858 A214.0,214.0,0,0,1,47.235297981924624,-208.72188822583698 Z" fill="#ff7f0e" fill-opacity="0.9" />
<path d="M34.818682872366836,-196.9458283971345 A200,200,0,0,0,28.086039703919845,-198.01811627664233 L30.052062483194234,-211.8793844160073 A214.0,214.0,0,0,1,37.255990673432514,-210.73203638493393 Z" fill="#ff7f0e" fill-opacity="0.9" />
<path d="M26.104487253725072,-198.28907116939175 A200,200,0,0,0,19.23021494742987,-199.07335038391162 L20.576329993749965,-213.00848491078546 A214.0,214.0,0,0,1,27.931801361485828,-212.16930615124917 Z" fill="#ff7f0e" fill-opacity="0.9" />
<path d="M17.23855311958178,-199.25569574379386 A200,200,0,0,0,-46.40774346470868,-194.54131012850146 L-49.65628550723829,-208.15920183749657 A214.0,214.0,0,0,1,18.445251837952505,-213.20359444585944 Z" fill="#2ca02c" fill-opacity="0.9" />
<path d="M-48.350803774767385,-194.0675134439918 A200,200,0,0,0,-111.66490928536525,-165.924525113954 L-119.48145293534083,-177.53924187193078 A214.0,214.0,0,0,1,-51.73536003900111,-207.65223938507123 Z" fill="#2ca02c" fill-opacity="0.9" />
<path d="M-113.31854368361813,-164.79959847470482 A200,200,0,0,0,-150.9584145585444,-131.1928240185821 L-161.52550357764252,-140.37632169988285 A214.0,214.0,0,0,1,-121.2508417414714,-176.33557036793417 Z" fill="#2ca02c" fill-opacity="0.9" />
<path d="M-152.26277307554005,-129.6767054460692 A200,200,0,0,0,-192.93060700503935,-52.70465710605714 L-206.43574949539212,-56.39398310348115 A214.0,214.0,0,0,1,-162.92116719082787,-138.75407482729406 Z" fill="#d62728" fill-opacity="0.9" />
<path d="M-193.44799834207157,-50.77274798005208 A200,200,0,0,0,-199.98910562321427,2.0874941980408375 L-213.98834301683928,2.2336187919036963 A214.0,214.0,0,0,1,-206.9893582260166,-54.32684033865573 Z" fill="#d62728" fill-opacity="0.9" />
<path d="M-199.95823165719514,4.087247549081875 A200,200,0,0,0,-179.49946694077155,88.20397591933633 L-192.06442962662558,94.37825423368987 A214.0,214.0,0,0,1,-213.95530787319882,4.373354877517606 Z" fill="#d62728" fill-opacity="0.9" />
<path d="M-178.6084669836115,89.99453051027133 A200,200,0,0,0,-129.79360748001622,152.16313435692456 L-138.87916000361736,162.81455376190928 A214.0,214.0,0,0,1,-191.1110596724643,96.29414764599034 Z" fill="#d62728" fill-opacity="0.9" />
<path d="M-128.2655118705491,153.4534407062482 A200,200,0,0,0,-68.5767934987855,187.87555294243296 L-73.37716904370049,201.0268416484033 A214.0,214.0,0,0,1,-137.24409770148753,164.19518155568556 Z" fill="#d62728" fill-opacity="0.9" />
<path d="M-66.69464047069545,188.55191574864648 A200,200,0,0,0,-55.627758224862056,192.10817919827437 L-59.5217013006024,205.55575174215357 A214.0,214.0,0,0,1,-71.36326530364413,201.75054985105174 Z" fill="#9467bd" fill-opacity="0.9" />
<path d="M-53.703927086016044,192.6548421803612 A200,200,0,0,0,-42.28746240471552,195.4783121560286 L-45.24758477304561,209.16179400695063 A214.0,214.0,0,0,1,-57.46320198203717,206.1406811329865 Z" fill="#9467bd" fill-opacity="0.9" />
<path d="M-40.330597507210555,195.89140589804182 A200,200,0,0,0,31.857112169225104,197.44651023565194 L34.08711002107086,211.26776595214758 A214.0,214.0,0,0,1,-43.1537393327153,209.60380431090476 Z" fill="#9467bd" fill-opacity="0.9" />
<path d="M33.82995152165971,197.11807218020917 A200,200,0,0,0,39.93303446332297,195.97283678752794 L42.72834687575558,209.6909353626549 A214.0,214.0,0,0,1,36.19804812817589,210.91633723282382 Z" fill="#8c564b" fill-opacity="0.9" />
<path d="M41.890733534137595,195.56371453818286 A200,200,0,0,0,70.76184442521539,187.06352229534656 L75.71517353498047,200.15796885602083 A214.0,214.0,0,0,1,44.82308488152723,209.25317455585568 Z" fill="#8c564b" fill-opacity="0.9" />
<path d="M72.62891040833372,186.3465625465043 A200,200,0,0,0,119.93717712758156,160.04709788892495 L128.33277952651227,171.2503947411497 A214.0,214.0,0,0,1,77.71293413691708,199.3908219247596 Z" fill="#8c564b" fill-opacity="0.9" />
<path d="M121.5316246232051,158.83974381887037 A200,200,0,0,0,182.29607824944088,82.26870519750341 L195.05680372690176,88.02751456132866 A214.0,214.0,0,0,1,130.03883834682946,169.95852588619132 Z" fill="#e377c2" fill-opacity="0.9" />
<path d="M183.10963686207756,80.44166139655547 A200,200,0,0,0,198.7630298533168,22.2094115980027 L212.67644194304899,23.76407040986289 A214.0,214.0,0,0,1,195.92731144242302,86.07257769431436 Z" fill="#e377c2" fill-opacity="0.9" />
<path d="M198.9751821990717,20.22070396514957 A200,200,0,0,0,199.99000008333306,1.9999666668340497 L213.9893000891664,2.139964333512433 A214.0,214.0,0,0,1,212.90344495300673,21.636153242710044 Z" fill="#e377c2" fill-opacity="0.9" />
<path d="M193.0,-0.0 A193.0,193.0,0,0,0,190.51191349477125,-30.89030295352881 L195.44745529515393,-31.69056986942334 A198.0,198.0,0,0,1,198.0,-0.0 Z" fill="#1f77b4" fill-opacity="0.6" />
<path d="M184.97446440897664,-55.07674206606839 A193.0,193.0,0,0,0,180.05121299476576,-69.50223520947718 L184.71575219152137,-71.30281125117348 A198.0,198.0,0,0,1,189.7665489791574,-56.503600668816276 Z" fill="#1f77b4" fill-opacity="0.6" />
<path d="M166.29548830986755,-97.95310392112494 A193.0,193.0,0,0,0,57.57142680231567,-184.21327535209184 L59.0629145433083,-188.9856399985191 A198.0,198.0,0,0,1,170.60366158214393,-100.49074910042869 Z" fill="#1f77b4" fill-opacity="0.6" />
<path d="M42.60005846033389,-188.23983377376885 A193.0,193.0,0,0,0,42.587314559166316,-188.24271735883602 L43.690612863807935,-193.11947169455715 A198.0,198.0,0,0,1,43.70368691785549,-193.11651340521365 Z" fill="#ff7f0e" fill-opacity="0.6" />
<path d="M16.63520376039642,-192.28174639276108 A193.0,193.0,0,0,0,-38.722444923756896,-189.0755728779543 L-39.72561707204075,-193.97390378152826 A198.0,198.0,0,0,1,17.066167588385962,-197.26313878635594 Z" fill="#2ca02c" fill-opacity="0.6" />
<path d="M-46.65852564265053,-187.2751504734521 A193.0,193.0,0,0,0,-105.11718184709788,-161.8622194353091 L-107.8404249001315,-166.05554118233783 A198.0,198.0,0,0,1,-47.86729573701971,-192.12683830955189 Z" fill="#2ca02c" fill-opacity="0.6" />
<path d="M-109.3523946546915,-159.03161252809016 A193.0,193.0,0,0,0,-132.58407975005449,-140.25142351089056 L-136.01890046896781,-143.88488007853022 A198.0,198.0,0,0,1,-112.18535824678196,-163.15160248995778 Z" fill="#2ca02c" fill-opacity="0.6" />
<path d="M-146.93357601789614,-125.1380207554568 A193.0,193.0,0,0,0,-185.59569705709453,-52.94560637003979 L-190.4038757373301,-54.31725420346051 A198.0,198.0,0,0,1,-150.74014534478465,-128.37993839160853 Z" fill="#d62728" fill-opacity="0.6" />
<path d="M-186.67731840009907,-48.995701800750254 A193.0,193.0,0,0,0,-192.38511814978034,-15.393710225122955 L-197.36918856816843,-15.792511008157229 A198.0,198.0,0,0,1,-191.51351835865086,-50.26502050025156 Z" fill="#d62728" fill-opacity="0.6" />
<path d="M-192.95969354919333,3.944193884864009 A193.0,193.0,0,0,0,-190.4499065933095,31.2703226494337 L-195.38384199728125,32.08043463517033 A198.0,198.0,0,0,1,-197.9586493406232,4.046375073591056 Z" fill="#d62728" fill-opacity="0.6" />
<path d="M-172.3571706391851,86.84472194241184 A193.0,193.0,0,0,0,-127.26509140593407,145.0951291719996 L-130.56211449935205,148.85407034225867 A198.0,198.0,0,0,1,-176.8223823137754,89.09458520516861 Z" fill="#d62728" fill-opacity="0.6" />
<path d="M-123.77621895507987,148.0825702815295 A193.0,193.0,0,0,0,-71.01102580375012,179.46151179096628 L-72.8506896846763,184.11077375446283 A198.0,198.0,0,0,1,-126.9828567518436,151.91890629918572 Z" fill="#d62728" fill-opacity="0.6" />
<path d="M-64.3603280542211,181.95259869744385 A193.0,193.0,0,0,0,-60.43352683821904,183.29426841528422 L-61.99916224853559,188.042824591846 A198.0,198.0,0,0,1,-66.02769406598848,186.66639659116 Z" fill="#9467bd" fill-opacity="0.6" />
<path d="M-51.82428963800548,185.91192270404852 A193.0,193.0,0,0,0,-44.5173749030575,187.7956424727172 L-45.67067477101236,192.66081455750262 A198.0,198.0,0,0,1,-53.16688781515589,190.72829375855756 Z" fill="#9467bd" fill-opacity="0.6" />
<path d="M-38.91902659445818,189.03520669161037 A193.0,193.0,0,0,0,30.101733959476153,190.63810115670194 L30.881571626820094,195.57691206749732 A198.0,198.0,0,0,1,-39.92729153213845,193.9324918390614 Z" fill="#9467bd" fill-opacity="0.6" />
<path d="M32.645903218401614,190.21893965390186 A193.0,193.0,0,0,0,32.65752945459152,190.21694396115842 L33.50357944046177,195.14484406377912 A198.0,198.0,0,0,1,33.49165200644311,195.14689145840708 Z" fill="#8c564b" fill-opacity="0.6" />
<path d="M40.42455786044278,188.71898452934647 A193.0,193.0,0,0,0,46.92303504180853,187.2090510164111 L48.13865771128544,192.05902643134402 A198.0,198.0,0,0,1,41.47182619879622,193.60807739280102 Z" fill="#8c564b" fill-opacity="0.6" />
<path d="M70.08689854404204,179.82443285737662 A193.0,193.0,0,0,0,110.72839330845774,158.0766362095534 L113.59700453406545,162.17188585228794 A198.0,198.0,0,0,1,71.90262130425039,184.48309692103925 Z" fill="#8c564b" fill-opacity="0.6" />
<path d="M117.27801776139293,153.28035278520989 A193.0,193.0,0,0,0,173.79294987287903,83.93456126342087 L178.29535790067382,86.10903176247322 A198.0,198.0,0,0,1,120.31630837697305,157.25134638068167 Z" fill="#e377c2" fill-opacity="0.6" />
<path d="M176.70079957190487,77.62620324767603 A193.0,193.0,0,0,0,190.03636404579436,33.692437434152964 L194.95958591226574,34.565298507576614 A198.0,198.0,0,0,1,181.2785404934568,79.63724478258992 Z" fill="#e377c2" fill-opacity="0.6" />
<path d="M195.18734704637728,-33.255068079874334 A198.0,198.0,0,0,0,190.32208732024606,-54.60314165013439 C76.12883492809843,-21.84125666005376,23.295801473847,-75.69640436434949,58.239503684617496,-189.2410109108737 A198.0,198.0,0,0,0,57.00839738883891,-189.6155126226655 C22.803358955535565,-75.8462050490662,78.07493881855092,-13.302027231949735,195.18734704637728,-33.255068079874334 Z" fill="#1f77b4" fill-opacity="0.6" />
<path d="M195.18750929522386,-33.254115762216635 A198.0,198.0,0,0,0,195.18734704637728,-33.255068079874334 C78.07493881855092,-13.302027231949735,11.202781275087611,-78.40368417174379,28.006953187719027,-196.00921042935946 A198.0,198.0,0,0,0,27.99508495524766,-196.01090586584326 C11.198033982099064,-78.40436234633731,78.07500371808955,-13.301646304886654,195.18750929522386,-33.254115762216635 Z" fill="#1f77b4" fill-opacity="0.6" />
<path d="M195.18767855528466,-33.25312226241114 A198.0,198.0,0,0,0,195.18750929522386,-33.254115762216635 C78.07500371808955,-13.301646304886654,8.270450146923762,-78.76699597145526,20.676125367309407,-196.91748992863813 A198.0,198.0,0,0,0,20.66362519931073,-196.91880203175728 C8.265450079724292,-78.76752081270291,78.07507142211387,-13.301248904964456,195.18767855528466,-33.25312226241114 Z" fill="#1f77b4" fill-opacity="0.6" />
<path d="M195.18784093485976,-33.25216912004211 A198.0,198.0,0,0,0,195.18767855528466,-33.25312226241114 C78.07507142211387,-13.301248904964456,-17.690495217522617,-77.19900503865843,-44.22623804380654,-192.99751259664606 A198.0,198.0,0,0,0,-44.337071800374815,-192.97208104844702 C-17.734828720149928,-77.18883241937881,78.0751363739439,-13.300867648016846,195.18784093485976,-33.25216912004211 Z" fill="#1f77b4" fill-opacity="0.6" />
<path d="M195.18797551096594,-33.25137915832302 A198.0,198.0,0,0,0,195.18784093485976,-33.25216912004211 C78.0751363739439,-13.300867648016846,-43.870992335564445,-65.93918434051822,-109.67748083891111,-164.84796085129557 A198.0,198.0,0,0,0,-109.76033978944048,-164.79280266233283 C-43.904135915776195,-65.91712106493314,78.07519020438639,-13.300551663329209,195.18797551096594,-33.25137915832302 Z" fill="#1f77b4" fill-opacity="0.6" />
<path d="M195.19550925891537,-33.20712521662604 A198.0,198.0,0,0,0,195.18797551096594,-33.25137915832302 C78.07519020438639,-13.300551663329209,-76.2631912143844,-21.36739726307916,-190.657978035961,-53.418493157697895 A198.0,198.0,0,0,0,-190.65817169449375,-53.41780195883147 C-76.2632686777975,-21.367120783532588,78.07820370356615,-13.282850086650416,195.19550925891537,-33.20712521662604 Z" fill="#d62728" fill-opacity="0.6" />
<path d="M195.2030329734018,-33.16286956801243 A198.0,198.0,0,0,0,195.19550925891537,-33.20712521662604 C78.07820370356615,-13.282850086650416,-51.61576895973786,60.07039532660794,-129.03942239934466,150.17598831651983 A198.0,198.0,0,0,0,-129.03887066802125,150.17646239248575 C-51.6155482672085,60.0705849569943,78.08121318936072,-13.265147827204974,195.2030329734018,-33.16286956801243 Z" fill="#d62728" fill-opacity="0.6" />
<path d="M195.24796453597642,-32.89729995847822 A198.0,198.0,0,0,0,195.2030329734018,-33.16286956801243 C78.08121318936072,-13.265147827204974,-22.3906020900989,75.96907882844742,-55.976505225247244,189.92269707111856 A198.0,198.0,0,0,0,-55.10475269815676,190.17745983705584 C-22.041901079262704,76.07098393482234,78.09918581439058,-13.15891998339129,195.24796453597642,-32.89729995847822 Z" fill="#1f77b4" fill-opacity="0.6" />
<path d="M195.2628614383255,-32.808763203103084 A198.0,198.0,0,0,0,195.24796453597642,-32.89729995847822 C78.09918581439058,-13.15891998339129,12.554343201769031,78.19864747405927,31.385858004422577,195.49661868514818 A198.0,198.0,0,0,0,31.387005972001358,195.496434382097 C12.554802388800544,78.1985737528388,78.1051445753302,-13.123505281241234,195.2628614383255,-32.808763203103084 Z" fill="#9467bd" fill-opacity="0.6" />
<path d="M195.28513151395737,-32.675945427429745 A198.0,198.0,0,0,0,195.2628614383255,-32.808763203103084 C78.1051445753302,-13.123505281241234,47.40618460760911,63.4452020325358,118.51546151902278,158.6130050813395 A198.0,198.0,0,0,0,118.51672373007028,158.6120619508182 C47.406689492028114,63.44482478032728,78.11405260558296,-13.0703781709719,195.28513151395737,-32.675945427429745 Z" fill="#8c564b" fill-opacity="0.6" />
<path d="M195.2868144686286,-32.6658857938283 A198.0,198.0,0,0,0,195.28513151395737,-32.675945427429745 C78.11405260558296,-13.0703781709719,71.749886200519,33.53496429418965,179.3747155012975,83.83741073547412 A198.0,198.0,0,0,0,180.14086811781016,82.17826740545048 C72.05634724712407,32.87130696218019,78.11472578745145,-13.06635431753132,195.2868144686286,-32.6658857938283 Z" fill="#1f77b4" fill-opacity="0.6" />
<path d="M195.2869569826391,-32.66503378937271 A198.0,198.0,0,0,0,195.2868144686286,-32.6658857938283 C78.11472578745145,-13.06635431753132,78.68863776950158,8.985448568667577,196.72159442375394,22.463621421668943 A198.0,198.0,0,0,0,196.7324476932651,22.368371076515874 C78.69297907730605,8.94734843060635,78.11478279305565,-13.066013515749084,195.2869569826391,-32.66503378937271 Z" fill="#1f77b4" fill-opacity="0.6" />
<path d="M195.44745529515393,-31.69056986942334 A198.0,198.0,0,0,0,195.2869569826391,-32.66503378937271 C78.11478279305565,-13.066013515749084,79.19602671000685,0.7933179361911356,197.9900667750171,1.9832948404778388 A198.0,198.0,0,0,0,197.9901000824997,1.9799670001657093 C79.19604003299989,0.7919868000662837,78.17898211806158,-12.676227947769336,195.44745529515393,-31.69056986942334 Z" fill="#e377c2" fill-opacity="0.6" />
<path d="M182.95908241908535,-75.69659279232017 A198.0,198.0,0,0,0,171.6000222127793,-98.77971642282465 C68.64000888511173,-39.511886569129864,23.62516581732332,-75.59425599940765,59.0629145433083,-188.9856399985191 A198.0,198.0,0,0,0,58.239503684617496,-189.2410109108737 C23.295801473847,-75.69640436434949,73.18363296763414,-30.27863711692807,182.95908241908535,-75.69659279232017 Z" fill="#1f77b4" fill-opacity="0.6" />
<path d="M182.9799438530912,-75.6461509101394 A198.0,198.0,0,0,0,182.95908241908535,-75.69659279232017 C73.18363296763414,-30.27863711692807,8.590384248647805,-78.73274603657988,21.47596062161951,-196.83186509144969 A198.0,198.0,0,0,0,20.676125367309407,-196.91748992863813 C8.270450146923762,-78.76699597145526,73.19197754123648,-30.25846036405576,182.9799438530912,-75.6461509101394 Z" fill="#1f77b4" fill-opacity="0.6" />
<path d="M183.00852326395704,-75.57698335304008 A198.0,198.0,0,0,0,182.9799438530912,-75.6461509101394 C73.19197754123648,-30.25846036405576,-43.870626515292344,-65.93942772845189,-109.67656628823086,-164.8485693211297 A198.0,198.0,0,0,0,-109.67748083891111,-164.84796085129557 C-43.870992335564445,-65.93918434051822,73.20340930558282,-30.23079334121603,183.00852326395704,-75.57698335304008 Z" fill="#2ca02c" fill-opacity="0.6" />
<path d="M183.3494356606073,-74.74613329756144 A198.0,198.0,0,0,0,183.00852326395704,-75.57698335304008 C73.20340930558282,-30.23079334121603,-76.26135972413049,-21.373933026627775,-190.6533993103262,-53.43483256656943 A198.0,198.0,0,0,0,-190.657978035961,-53.418493157697895 C-76.2631912143844,-21.36739726307916,73.33977426424292,-29.89845331902458,183.3494356606073,-74.74613329756144 Z" fill="#d62728" fill-opacity="0.6" />
<path d="M183.47630571551008,-74.43416716124845 A198.0,198.0,0,0,0,183.3494356606073,-74.74613329756144 C73.33977426424292,-29.89845331902458,-79.01025521379418,-5.479011868129993,-197.52563803448544,-13.69752967032498 A198.0,198.0,0,0,0,-197.52592206772258,-13.69343314497807 C-79.01036882708904,-5.477373257991228,73.39052228620403,-29.773666864499383,183.47630571551008,-74.43416716124845 Z" fill="#d62728" fill-opacity="0.6" />
<path d="M184.33585655378968,-72.27926389069464 A198.0,198.0,0,0,0,183.47630571551008,-74.43416716124845 C73.39052228620403,-29.773666864499383,-73.85814686149261,28.593952895432103,-184.6453671537315,71.48488223858025 A198.0,198.0,0,0,0,-184.62970282956522,71.52533001018901 C-73.85188113182609,28.610132004075606,73.73434262151588,-28.911705556277855,184.33585655378968,-72.27926389069464 Z" fill="#d62728" fill-opacity="0.6" />
<path d="M184.5400146784047,-71.75641422544872 A198.0,198.0,0,0,0,184.33585655378968,-72.27926389069464 C73.73434262151588,-28.911705556277855,-51.61902954524848,60.06759349938007,-129.0475738631212,150.16898374845016 A198.0,198.0,0,0,0,-129.03942239934466,150.17598831651983 C-51.61576895973786,60.07039532660794,73.81600587136188,-28.70256569017949,184.5400146784047,-71.75641422544872 Z" fill="#d62728" fill-opacity="0.6" />
<path d="M184.5942064492257,-71.61689008453686 A198.0,198.0,0,0,0,184.5400146784047,-71.75641422544872 C73.81600587136188,-28.70256569017949,-22.39100255100487,75.9689607982161,-55.97750637751217,189.92240199554024 A198.0,198.0,0,0,0,-55.976505225247244,189.92269707111856 C-22.3906020900989,75.96907882844742,73.83768257969028,-28.646756033814746,184.5942064492257,-71.61689008453686 Z" fill="#9467bd" fill-opacity="0.6" />
<path d="M184.60773791044832,-71.58200265141525 A198.0,198.0,0,0,0,184.5942064492257,-71.61689008453686 C73.83768257969028,-28.646756033814746,12.554117056534324,78.19868378004092,31.385292641335806,195.4967094501023 A198.0,198.0,0,0,0,31.385858004422577,195.49661868514818 C12.554343201769031,78.19864747405927,73.84309516417933,-28.632801060566102,184.60773791044832,-71.58200265141525 Z" fill="#9467bd" fill-opacity="0.6" />
<path d="M184.63478105173047,-71.51222011642174 A198.0,198.0,0,0,0,184.60773791044832,-71.58200265141525 C73.84309516417933,-28.632801060566102,47.40585307185969,63.44544975433031,118.51463267964921,158.61362438582577 A198.0,198.0,0,0,0,118.51546151902278,158.6130050813395 C47.40618460760911,63.4452020325358,73.8539124206922,-28.6048880465687,184.63478105173047,-71.51222011642174 Z" fill="#8c564b" fill-opacity="0.6" />
<path d="M184.6482927308241,-71.47732501704226 A198.0,198.0,0,0,0,184.63478105173047,-71.51222011642174 C73.8539124206922,-28.6048880465687,71.74975201683051,33.53525138601658,179.37438004207627,83.83812846504145 A198.0,198.0,0,0,0,179.3747155012975,83.83741073547412 C71.749886200519,33.53496429418965,73.85931709232965,-28.590930006816905,184.6482927308241,-71.47732501704226 Z" fill="#e377c2" fill-opacity="0.6" />
<path d="M184.66179781490925,-71.44242736473602 A198.0,198.0,0,0,0,184.6482927308241,-71.47732501704226 C73.85931709232965,-28.590930006816905,78.68861550073021,8.985643581749896,196.7215387518255,22.464108954374737 A198.0,198.0,0,0,0,196.72159442375394,22.463621421668943 C78.68863776950158,8.985448568667577,73.8647191259637,-28.57697094589441,184.66179781490925,-71.44242736473602 Z" fill="#e377c2" fill-opacity="0.6" />
<path d="M184.71575219152137,-71.30281125117348 A198.0,198.0,0,0,0,184.66179781490925,-71.44242736473602 C73.8647191259637,-28.57697094589441,79.19602432166556,0.7935563257630734,197.99006080416387,1.9838908144076834 A198.0,198.0,0,0,0,197.9900667750171,1.9832948404778388 C79.19602671000685,0.7933179361911356,73.88630087660856,-28.521124500469394,184.71575219152137,-71.30281125117348 Z" fill="#e377c2" fill-opacity="0.6" />
<path d="M47.07822928011241,-192.32171049532906 A198.0,198.0,0,0,0,45.63263469984695,-192.66982807474116 C18.253053879938783,-77.06793122989647,17.476245145523176,-77.24778867782287,43.690612863807935,-193.11947169455715 A198.0,198.0,0,0,0,36.73467640308005,-194.56249265868536 C14.693870561232021,-77.82499706347414,18.831291712044965,-76.92868419813163,47.07822928011241,-192.32171049532906 Z" fill="#1f77b4" fill-opacity="0.6" />
<path d="M48.52877910473522,-191.9608230827421 A198.0,198.0,0,0,0,47.07822928011241,-192.32171049532906 C18.831291712044965,-76.92868419813163,13.788198417457266,-77.99054804526527,34.470496043643166,-194.97637011316317 A198.0,198.0,0,0,0,28.006953187719027,-196.00921042935946 C11.202781275087611,-78.40368417174379,19.41151164189409,-76.78432923309684,48.52877910473522,-191.9608230827421 Z" fill="#1f77b4" fill-opacity="0.6" />
<path d="M49.49728984705012,-191.71337537531676 A198.0,198.0,0,0,0,48.52877910473522,-191.9608230827421 C19.41151164189409,-76.78432923309684,10.337376952475129,-78.52247218307913,25.84344238118782,-196.30618045769782 A198.0,198.0,0,0,0,21.47596062161951,-196.83186509144969 C8.590384248647805,-78.73274603657988,19.79891593882005,-76.68535015012671,49.49728984705012,-191.71337537531676 Z" fill="#1f77b4" fill-opacity="0.6" />
<path d="M49.60473046250542,-191.68560383018382 A198.0,198.0,0,0,0,49.49728984705012,-191.71337537531676 C19.79891593882005,-76.68535015012671,-15.8902468288163,-77.58956151261131,-39.72561707204075,-193.97390378152826 A198.0,198.0,0,0,0,-44.22623804380654,-192.99751259664606 C-17.690495217522617,-77.19900503865843,19.84189218500217,-76.67424153207354,49.60473046250542,-191.68560383018382 Z" fill="#1f77b4" fill-opacity="0.6" />
<path d="M49.64869950778962,-191.67422006411087 A198.0,198.0,0,0,0,49.60473046250542,-191.68560383018382 C19.84189218500217,-76.67424153207354,-43.20543526407282,-66.37718255275688,-108.01358816018204,-165.9429563818922 A198.0,198.0,0,0,0,-109.67656628823086,-164.8485693211297 C-43.870626515292344,-65.93942772845189,19.85947980311585,-76.66968802564435,49.64869950778962,-191.67422006411087 Z" fill="#1f77b4" fill-opacity="0.6" />
<path d="M50.18703750290499,-191.53396896290226 A198.0,198.0,0,0,0,49.64869950778962,-191.67422006411087 C19.85947980311585,-76.66968802564435,-54.4504855256399,-57.513343025962946,-136.12621381409974,-143.78335756490736 A198.0,198.0,0,0,0,-149.2486977166481,-130.11082287759385 C-59.699479086659245,-52.044329151037545,20.074815001161998,-76.61358758516091,50.18703750290499,-191.53396896290226 Z" fill="#1f77b4" fill-opacity="0.6" />
<path d="M50.20181988135574,-191.5300949736096 A198.0,198.0,0,0,0,50.18703750290499,-191.53396896290226 C20.074815001161998,-76.61358758516091,-76.1675566757559,-21.705835852265942,-190.41889168938974,-54.26458963066485 A198.0,198.0,0,0,0,-190.6533993103262,-53.43483256656943 C-76.26135972413049,-21.373933026627775,20.080727952542297,-76.61203798944385,50.20181988135574,-191.5300949736096 Z" fill="#1f77b4" fill-opacity="0.6" />
<path d="M50.220827736910884,-191.52511182980555 A198.0,198.0,0,0,0,50.20181988135574,-191.5300949736096 C20.080727952542297,-76.61203798944385,-78.98994016523119,-5.764490670752843,-197.47485041307797,-14.411226676882107 A198.0,198.0,0,0,0,-197.52563803448544,-13.69752967032498 C-79.01025521379418,-5.479011868129993,20.088331094764357,-76.61004473192223,50.220827736910884,-191.52511182980555 Z" fill="#1f77b4" fill-opacity="0.6" />
<path d="M50.33397619013356,-191.49540684019308 A198.0,198.0,0,0,0,50.220827736910884,-191.52511182980555 C20.088331094764357,-76.61004473192223,-73.8797692135344,28.538039542948567,-184.69942303383598,71.34509885737141 A198.0,198.0,0,0,0,-184.6453671537315,71.48488223858025 C-73.85814686149261,28.593952895432103,20.133590476053428,-76.59816273607724,50.33397619013356,-191.49540684019308 Z" fill="#1f77b4" fill-opacity="0.6" />
<path d="M50.447107073251246,-191.46563500518815 A198.0,198.0,0,0,0,50.33397619013356,-191.49540684019308 C20.133590476053428,-76.59816273607724,-51.99582681835066,59.7417274061948,-129.98956704587664,149.354318515487 A198.0,198.0,0,0,0,-129.0475738631212,150.16898374845016 C-51.61902954524848,60.06759349938007,20.1788428293005,-76.58625400207526,50.447107073251246,-191.46563500518815 Z" fill="#1f77b4" fill-opacity="0.6" />
<path d="M50.44845163713926,-191.46528073626095 A198.0,198.0,0,0,0,50.447107073251246,-191.46563500518815 C20.1788428293005,-76.58625400207526,-27.213494444812422,74.37785772729788,-68.03373611203105,185.94464431824468 A198.0,198.0,0,0,0,-67.97486392000239,185.96617400768656 C-27.189945568000958,74.38646960307463,20.179380654855706,-76.58611229450439,50.44845163713926,-191.46528073626095 Z" fill="#1f77b4" fill-opacity="0.6" />
<path d="M55.07119442700873,-190.1871802840102 A198.0,198.0,0,0,0,50.44845163713926,-191.46528073626095 C20.179380654855706,-76.58611229450439,-23.390866687191867,75.66708237815185,-58.477166717979664,189.16770594537962 A198.0,198.0,0,0,0,-55.97750637751217,189.92240199554024 C-22.39100255100487,75.9689607982161,22.02847777080349,-76.07487211360409,55.07119442700873,-190.1871802840102 Z" fill="#1f77b4" fill-opacity="0.6" />
<path d="M55.295889419036605,-190.12197298933566 A198.0,198.0,0,0,0,55.07119442700873,-190.1871802840102 C22.02847777080349,-76.07487211360409,12.36622768144636,78.22861633015523,30.915569203615895,195.57154082538807 A198.0,198.0,0,0,0,31.385292641335806,195.4967094501023 C12.554117056534324,78.19868378004092,22.118355767614645,-76.04878919573427,55.295889419036605,-190.12197298933566 Z" fill="#1f77b4" fill-opacity="0.6" />
<path d="M55.30878799838504,-190.11822103667419 A198.0,198.0,0,0,0,55.295889419036605,-190.12197298933566 C22.118355767614645,-76.04878919573427,15.780277243742603,77.61200197205726,39.45069310935651,194.03000493014312 A198.0,198.0,0,0,0,39.50998742522321,194.0179396181155 C15.803994970089285,77.6071758472462,22.123515199354017,-76.04728841466968,55.30878799838504,-190.11822103667419 Z" fill="#1f77b4" fill-opacity="0.6" />
<path d="M55.35292233568257,-190.1053760126207 A198.0,198.0,0,0,0,55.30878799838504,-190.11822103667419 C22.123515199354017,-76.04728841466968,25.956064599326297,74.82594944613534,64.89016149831573,187.06487361533834 A198.0,198.0,0,0,0,65.78606242460607,186.75169073040766 C26.31442496984243,74.70067629216307,22.14116893427303,-76.04215040504828,55.35292233568257,-190.1053760126207 Z" fill="#1f77b4" fill-opacity="0.6" />
<path d="M55.57752046754169,-190.03983587311367 A198.0,198.0,0,0,0,55.35292233568257,-190.1053760126207 C22.14116893427303,-76.04215040504828,47.14000000887175,63.64322744144559,117.85000002217937,159.10806860361396 A198.0,198.0,0,0,0,118.51463267964921,158.61362438582577 C47.40585307185969,63.44544975433031,22.231008187016677,-76.01593434924547,55.57752046754169,-190.03983587311367 Z" fill="#1f77b4" fill-opacity="0.6" />
<path d="M55.608591143215996,-190.03074643611396 A198.0,198.0,0,0,0,55.57752046754169,-190.03983587311367 C22.231008187016677,-76.01593434924547,71.39925742614626,34.275151917896686,178.49814356536567,85.68787979474172 A198.0,198.0,0,0,0,179.37438004207627,83.83812846504145 C71.74975201683051,33.53525138601658,22.2434364572864,-76.01229857444558,55.608591143215996,-190.03074643611396 Z" fill="#1f77b4" fill-opacity="0.6" />
<path d="M55.66262795544411,-190.0149253324428 A198.0,198.0,0,0,0,55.608591143215996,-190.03074643611396 C22.2434364572864,-76.01229857444558,78.58367409506438,9.8613470540646,196.45918523766093,24.653367635161498 A198.0,198.0,0,0,0,196.7215387518255,22.464108954374737 C78.68861550073021,8.985643581749896,22.265051182177643,-76.00597013297713,55.66262795544411,-190.0149253324428 Z" fill="#1f77b4" fill-opacity="0.6" />
<path d="M57.00839738883891,-189.6155126226655 A198.0,198.0,0,0,0,55.66262795544411,-190.0149253324428 C22.265051182177643,-76.00597013297713,79.19393674120383,0.9799915459881045,197.98484185300956,2.449978864970261 A198.0,198.0,0,0,0,197.99006080416387,1.9838908144076834 C79.19602432166556,0.7935563257630734,22.803358955535565,-75.8462050490662,57.00839738883891,-189.6155126226655 Z" fill="#1f77b4" fill-opacity="0.6" />
<path d="M36.44485514414823,-194.61698932395922 A198.0,198.0,0,0,0,36.41850373843607,-194.62192216051488 C14.56740149537443,-77.84876886420597,-43.20461077283617,-66.3777192133605,-108.01152693209042,-165.94429803340125 A198.0,198.0,0,0,0,-108.01358816018204,-165.9429563818922 C-43.20543526407282,-66.37718255275688,14.577942057659293,-77.84679572958369,36.44485514414823,-194.61698932395922 Z" fill="#2ca02c" fill-opacity="0.6" />
<path d="M36.45803059647977,-194.61452156770355 A198.0,198.0,0,0,0,36.44485514414823,-194.61698932395922 C14.577942057659293,-77.84679572958369,-76.16738313558746,-21.70644480970175,-190.41845783896864,-54.266112024254376 A198.0,198.0,0,0,0,-190.41889168938974,-54.26458963066485 C-76.1675566757559,-21.705835852265942,14.58321223859191,-77.84580862708142,36.45803059647977,-194.61452156770355 Z" fill="#d62728" fill-opacity="0.6" />
<path d="M36.47120588171446,-194.61205291947772 A198.0,198.0,0,0,0,36.45803059647977,-194.61452156770355 C14.58321223859191,-77.84580862708142,-78.98991042339885,-5.764898204081845,-197.47477605849713,-14.412245510204611 A198.0,198.0,0,0,0,-197.47485041307797,-14.411226676882107 C-78.98994016523119,-5.764490670752843,14.588482352685785,-77.8448211677911,36.47120588171446,-194.61205291947772 Z" fill="#d62728" fill-opacity="0.6" />
<path d="M36.48438099979195,-194.60958337929307 A198.0,198.0,0,0,0,36.47120588171446,-194.61205291947772 C14.588482352685785,-77.8448211677911,-51.99631084836839,59.74130613034711,-129.99077712092097,149.35326532586777 A198.0,198.0,0,0,0,-129.98956704587664,149.354318515487 C-51.99582681835066,59.7417274061948,14.59375239991678,-77.84383335171724,36.48438099979195,-194.60958337929307 Z" fill="#d62728" fill-opacity="0.6" />
<path d="M36.49755595065177,-194.6071129471609 A198.0,198.0,0,0,0,36.48438099979195,-194.60958337929307 C14.59375239991678,-77.84383335171724,-23.391089947993265,75.66701336147007,-58.477724869983156,189.16753340367515 A198.0,198.0,0,0,0,-58.477166717979664,189.16770594537962 C-23.390866687191867,75.66708237815185,14.59902238026071,-77.84284517886437,36.49755595065177,-194.6071129471609 Z" fill="#9467bd" fill-opacity="0.6" />
<path d="M36.60294953044987,-194.58731738135285 A198.0,198.0,0,0,0,36.49755595065177,-194.6071129471609 C14.59902238026071,-77.84284517886437,12.362175512074323,78.22925678164577,30.905438780185808,195.57314195411442 A198.0,198.0,0,0,0,30.915569203615895,195.57154082538807 C12.36622768144636,78.22861633015523,14.64117981217995,-77.83492695254114,36.60294953044987,-194.58731738135285 Z" fill="#9467bd" fill-opacity="0.6" />
<path d="M36.61612297363388,-194.5848389222031 A198.0,198.0,0,0,0,36.60294953044987,-194.58731738135285 C14.64117981217995,-77.83492695254114,47.13962770637323,63.643503201069386,117.84906926593307,159.10875800267345 A198.0,198.0,0,0,0,117.85000002217937,159.10806860361396 C47.14000000887175,63.64322744144559,14.646449189453552,-77.83393556888124,36.61612297363388,-194.5848389222031 Z" fill="#8c564b" fill-opacity="0.6" />
<path d="M36.68198767102472,-194.5724332491702 A198.0,198.0,0,0,0,36.61612297363388,-194.5848389222031 C14.646449189453552,-77.83393556888124,78.58340047489216,9.86352724955522,196.45850118723038,24.65881812388805 A198.0,198.0,0,0,0,196.45918523766093,24.653367635161498 C78.58367409506438,9.8613470540646,14.67279506840989,-77.82897329966808,36.68198767102472,-194.5724332491702 Z" fill="#e377c2" fill-opacity="0.6" />
<path d="M36.73467640308005,-194.56249265868536 A198.0,198.0,0,0,0,36.68198767102472,-194.5724332491702 C14.67279506840989,-77.82897329966808,79.19393013477864,0.9805252713727253,197.98482533694659,2.451313178431813 A198.0,198.0,0,0,0,197.98484185300956,2.449978864970261 C79.19393674120383,0.9799915459881045,14.693870561232021,-77.82499706347414,36.73467640308005,-194.56249265868536 Z" fill="#e377c2" fill-opacity="0.6" />
<path d="M27.817049176296752,-196.03625117595848 A198.0,198.0,0,0,0,27.805179306880646,-196.0379351138759 C11.12207172275226,-78.41517404555037,-78.98988139868577,-5.765295883261903,-197.4747034967144,-14.413239708154755 A198.0,198.0,0,0,0,-197.47477605849713,-14.412245510204611 C-78.98991042339885,-5.764898204081845,11.126819670518701,-78.4145004703834,27.817049176296752,-196.03625117595848 Z" fill="#d62728" fill-opacity="0.6" />
<path d="M27.828918943730173,-196.03456651933428 A198.0,198.0,0,0,0,27.817049176296752,-196.03625117595848 C11.126819670518701,-78.4145004703834,-73.87998951362351,28.537469219727228,-184.69997378405878,71.34367304931807 A198.0,198.0,0,0,0,-184.69942303383598,71.34509885737141 C-73.8797692135344,28.538039542948567,11.13156757749207,-78.41382660773371,27.828918943730173,-196.03456651933428 Z" fill="#d62728" fill-opacity="0.6" />
<path d="M27.840788609137395,-196.03288114400942 A198.0,198.0,0,0,0,27.828918943730173,-196.03456651933428 C11.13156757749207,-78.41382660773371,-51.996783171433734,59.74089503700883,-129.99195792858433,149.35223759252207 A198.0,198.0,0,0,0,-129.99077712092097,149.35326532586777 C-51.99631084836839,59.74130613034711,11.136315443654958,-78.41315245760377,27.840788609137395,-196.03288114400942 Z" fill="#d62728" fill-opacity="0.6" />
<path d="M27.8526581724749,-196.03119504999012 A198.0,198.0,0,0,0,27.840788609137395,-196.03288114400942 C11.136315443654958,-78.41315245760377,-17.019629133992566,77.34967500992717,-42.549072834981416,193.3741875248179 A198.0,198.0,0,0,0,-42.548496488890144,193.3743143401804 C-17.01939859555606,77.34972573607217,11.14106326898996,-78.41247801999606,27.8526581724749,-196.03119504999012 Z" fill="#9467bd" fill-opacity="0.6" />
<path d="M27.971348182442252,-196.01429458296295 A198.0,198.0,0,0,0,27.8526581724749,-196.03119504999012 C11.14106326898996,-78.41247801999606,12.357232730350098,78.23003770450303,30.893081825875246,195.57509426125756 A198.0,198.0,0,0,0,30.905438780185808,195.57314195411442 C12.362175512074323,78.22925678164577,11.188539272976902,-78.40571783318518,27.971348182442252,-196.01429458296295 Z" fill="#9467bd" fill-opacity="0.6" />
<path d="M27.99508495524766,-196.01090586584326 A198.0,198.0,0,0,0,27.971348182442252,-196.01429458296295 C11.188539272976902,-78.40571783318518,79.19392691013081,0.9807856814104494,197.98481727532703,2.4519642035261233 A198.0,198.0,0,0,0,197.98482533694659,2.451313178431813 C79.19393013477864,0.9805252713727253,11.198033982099064,-78.40436234633731,27.99508495524766,-196.01090586584326 Z" fill="#e377c2" fill-opacity="0.6" />
<path d="M19.087954617473173,-197.07777649578168 A198.0,198.0,0,0,0,19.037912797955574,-197.08261688007252 C7.61516511918223,-78.83304675202902,-43.20293205836447,-66.37881184203545,-108.00733014591117,-165.9470296050886 A198.0,198.0,0,0,0,-108.01152693209042,-165.94429803340125 C-43.20461077283617,-66.3777192133605,7.635181846989269,-78.83111059831268,19.087954617473173,-197.07777649578168 Z" fill="#2ca02c" fill-opacity="0.6" />
<path d="M19.50075237347198,-197.03735853098652 A198.0,198.0,0,0,0,19.087954617473173,-197.07777649578168 C7.635181846989269,-78.83111059831268,-76.16155029493204,-21.726901681384206,-190.4038757373301,-54.31725420346051 A198.0,198.0,0,0,0,-190.41845783896864,-54.266112024254376 C-76.16738313558746,-21.70644480970175,7.800300949388792,-78.81494341239461,19.50075237347198,-197.03735853098652 Z" fill="#d62728" fill-opacity="0.6" />
<path d="M19.52576768722214,-197.03488116631692 A198.0,198.0,0,0,0,19.50075237347198,-197.03735853098652 C7.800300949388792,-78.81494341239461,-73.88044915260602,28.536279242557136,-184.70112288151503,71.34069810639284 A198.0,198.0,0,0,0,-184.69997378405878,71.34367304931807 C-73.87998951362351,28.537469219727228,7.810307074888856,-78.81395246652677,19.52576768722214,-197.03488116631692 Z" fill="#d62728" fill-opacity="0.6" />
<path d="M20.5386189480154,-196.9318794195298 A198.0,198.0,0,0,0,19.52576768722214,-197.03488116631692 C7.810307074888856,-78.81395246652677,-52.03668400239806,59.7061430510678,-130.09171000599514,149.2653576276695 A198.0,198.0,0,0,0,-129.99195792858433,149.35223759252207 C-51.996783171433734,59.74089503700883,8.215447579206161,-78.77275176781193,20.5386189480154,-196.9318794195298 Z" fill="#d62728" fill-opacity="0.6" />
<path d="M20.551119946405507,-196.9305752516568 A198.0,198.0,0,0,0,20.5386189480154,-196.9318794195298 C8.215447579206161,-78.77275176781193,-17.019869641497575,77.34962208948684,-42.54967410374393,193.37405522371708 A198.0,198.0,0,0,0,-42.549072834981416,193.3741875248179 C-17.019629133992566,77.34967500992717,8.220447978562204,-78.77223010066272,20.551119946405507,-196.9305752516568 Z" fill="#9467bd" fill-opacity="0.6" />
<path d="M20.61362369516157,-196.92404250917224 A198.0,198.0,0,0,0,20.551119946405507,-196.9305752516568 C8.220447978562204,-78.77223010066272,12.35465444895317,78.23044492681198,30.886636122382924,195.57611231702995 A198.0,198.0,0,0,0,30.893081825875246,195.57509426125756 C12.357232730350098,78.23003770450303,8.245449478064629,-78.7696170036689,20.61362369516157,-196.92404250917224 Z" fill="#9467bd" fill-opacity="0.6" />
<path d="M20.626124195921285,-196.92273358008828 A198.0,198.0,0,0,0,20.61362369516157,-196.92404250917224 C8.245449478064629,-78.7696170036689,47.13924869406462,63.64378392709793,117.84812173516154,159.1094598177448 A198.0,198.0,0,0,0,117.84906926593307,159.10875800267345 C47.13962770637323,63.643503201069386,8.250449678368515,-78.76909343203532,20.626124195921285,-196.92273358008828 Z" fill="#8c564b" fill-opacity="0.6" />
<path d="M20.651124948046235,-196.92011334137553 A198.0,198.0,0,0,0,20.626124195921285,-196.92273358008828 C8.250449678368515,-78.76909343203532,78.58328903745586,9.86441503869699,196.45822259363962,24.661037596742474 A198.0,198.0,0,0,0,196.45850118723038,24.65881812388805 C78.58340047489216,9.86352724955522,8.260449979218494,-78.76804533655022,20.651124948046235,-196.92011334137553 Z" fill="#e377c2" fill-opacity="0.6" />
<path d="M20.66362519931073,-196.91880203175728 A198.0,198.0,0,0,0,20.651124948046235,-196.92011334137553 C8.260449979218494,-78.76804533655022,79.19392522774496,0.9809215169123322,197.9848130693624,2.4523037922808304 A198.0,198.0,0,0,0,197.98481727532703,2.4519642035261233 C79.19392691013081,0.9807856814104494,8.265450079724292,-78.76752081270291,20.66362519931073,-196.91880203175728 Z" fill="#e377c2" fill-opacity="0.6" />
<path d="M-45.16902402426608,-192.77904260758032 A198.0,198.0,0,0,0,-45.94366603006159,-192.59589702721644 C-18.37746641202464,-77.03835881088658,-43.1361699600526,-66.42221647293513,-107.8404249001315,-166.05554118233783 A198.0,198.0,0,0,0,-108.00733014591117,-165.9470296050886 C-43.20293205836447,-66.37881184203545,-18.067609609706434,-77.11161704303214,-45.16902402426608,-192.77904260758032 Z" fill="#2ca02c" fill-opacity="0.6" />
<path d="M-45.16785631210527,-192.77931620422615 A198.0,198.0,0,0,0,-45.16902402426608,-192.77904260758032 C-18.067609609706434,-77.11161704303214,-54.421871999903146,-57.540419254869505,-136.05467999975787,-143.85104813717376 A198.0,198.0,0,0,0,-136.12621381409974,-143.78335756490736 C-54.4504855256399,-57.513343025962946,-18.067142524842108,-77.11172648169047,-45.16785631210527,-192.77931620422615 Z" fill="#2ca02c" fill-opacity="0.6" />
<path d="M-44.614092132029725,-192.90822373148006 A198.0,198.0,0,0,0,-45.16785631210527,-192.77931620422615 C-18.067142524842108,-77.11172648169047,-23.392180198765335,75.6666763215386,-58.480450496913335,189.1666908038465 A198.0,198.0,0,0,0,-58.477724869983156,189.16753340367515 C-23.391089947993265,75.66701336147007,-17.84563685281189,-77.16328949259203,-44.614092132029725,-192.90822373148006 Z" fill="#9467bd" fill-opacity="0.6" />
<path d="M-44.5032950038862,-192.93381438668825 A198.0,198.0,0,0,0,-44.614092132029725,-192.90822373148006 C-17.84563685281189,-77.16328949259203,12.3541597382828,78.23052305309606,30.885399345706997,195.57630763274014 A198.0,198.0,0,0,0,30.886636122382924,195.57611231702995 C12.35465444895317,78.23044492681198,-17.80131800155448,-77.17352575467531,-44.5032950038862,-192.93381438668825 Z" fill="#9467bd" fill-opacity="0.6" />
<path d="M-44.337071800374815,-192.97208104844702 A198.0,198.0,0,0,0,-44.5032950038862,-192.93381438668825 C-17.80131800155448,-77.17352575467531,79.19392280627085,0.9811169932346051,197.98480701567712,2.4527924830865127 A198.0,198.0,0,0,0,197.9848130693624,2.4523037922808304 C79.19392522774496,0.9809215169123322,-17.734828720149928,-77.18883241937881,-44.337071800374815,-192.97208104844702 Z" fill="#e377c2" fill-opacity="0.6" />
<path d="M-110.54773475201213,-164.2656334757784 A198.0,198.0,0,0,0,-110.5482601925116,-164.26527986281445 C-44.219304077004644,-65.70611194512578,-54.40756018758713,-57.55395203141209,-136.01890046896781,-143.88488007853022 A198.0,198.0,0,0,0,-136.05467999975787,-143.85104813717376 C-54.421871999903146,-57.540419254869505,-44.21909390080486,-65.70625339031136,-110.54773475201213,-164.2656334757784 Z" fill="#2ca02c" fill-opacity="0.6" />
<path d="M-110.50644122799133,-164.2934157144604 A198.0,198.0,0,0,0,-110.54773475201213,-164.2656334757784 C-44.21909390080486,-65.70625339031136,-52.036879786524324,59.70597241551985,-130.0921994663108,149.26493103879963 A198.0,198.0,0,0,0,-130.09171000599514,149.2653576276695 C-52.03668400239806,59.7061430510678,-44.20257649119654,-65.71736628578417,-110.50644122799133,-164.2934157144604 Z" fill="#d62728" fill-opacity="0.6" />
<path d="M-109.76196639080896,-164.79171925197858 A198.0,198.0,0,0,0,-110.50644122799133,-164.2934157144604 C-44.20257649119654,-65.71736628578417,-23.39380666270287,75.66617348477507,-58.484516656757165,189.16543371193768 A198.0,198.0,0,0,0,-58.480450496913335,189.1666908038465 C-23.392180198765335,75.6666763215386,-43.904786556323586,-65.91668770079143,-109.76196639080896,-164.79171925197858 Z" fill="#9467bd" fill-opacity="0.6" />
<path d="M-109.76033978944048,-164.79280266233283 A198.0,198.0,0,0,0,-109.76196639080896,-164.79171925197858 C-43.904786556323586,-65.91668770079143,47.08005750107459,63.68758266487676,117.70014375268647,159.21895666219189 A198.0,198.0,0,0,0,117.84812173516154,159.1094598177448 C47.13924869406462,63.64378392709793,-43.904135915776195,-65.91712106493314,-109.76033978944048,-164.79280266233283 Z" fill="#2ca02c" fill-opacity="0.6" />
<path d="M-149.44268051091277,-129.88797189006092 A198.0,198.0,0,0,0,-149.44883041295896,-129.88089577839628 C-59.77953216518358,-51.952358311358516,-78.95970342529193,-6.164838602099954,-197.3992585632298,-15.412096505249885 A198.0,198.0,0,0,0,-197.4747034967144,-14.413239708154755 C-78.98988139868577,-5.765295883261903,-59.77707220436511,-51.95518875602437,-149.44268051091277,-129.88797189006092 Z" fill="#2ca02c" fill-opacity="0.6" />
<path d="M-149.31339559365253,-130.03657138010612 A198.0,198.0,0,0,0,-149.44268051091277,-129.88797189006092 C-59.77707220436511,-51.95518875602437,12.35311619929597,78.23068784157975,30.882790498239924,195.57671960394936 A198.0,198.0,0,0,0,30.885399345706997,195.57630763274014 C12.3541597382828,78.23052305309606,-59.725358237461016,-52.01462855204245,-149.31339559365253,-130.03657138010612 Z" fill="#9467bd" fill-opacity="0.6" />
<path d="M-149.2486977166481,-130.11082287759385 A198.0,198.0,0,0,0,-149.31339559365253,-130.03657138010612 C-59.725358237461016,-52.01462855204245,79.19392110337148,0.9812544384481244,197.98480275842869,2.453136096120311 A198.0,198.0,0,0,0,197.98480701567712,2.4527924830865127 C79.19392280627085,0.9811169932346051,-59.699479086659245,-52.044329151037545,-149.2486977166481,-130.11082287759385 Z" fill="#e377c2" fill-opacity="0.6" />
<path d="M-190.99974253693009,-52.183314870046495 A198.0,198.0,0,0,0,-191.00130093498896,-52.17761053499657 C-76.40052037399559,-20.87104421399863,-78.94767542726737,-6.317004403262892,-197.36918856816843,-15.792511008157229 A198.0,198.0,0,0,0,-197.3992585632298,-15.412096505249885 C-78.95970342529193,-6.164838602099954,-76.39989701477204,-20.8733259480186,-190.99974253693009,-52.183314870046495 Z" fill="#d62728" fill-opacity="0.6" />
<path d="M-190.93763047156932,-52.41012564287977 A198.0,198.0,0,0,0,-190.99974253693009,-52.183314870046495 C-76.39989701477204,-20.8733259480186,-78.13926848707041,12.918773947458224,-195.34817121767603,32.29693486864556 A198.0,198.0,0,0,0,-184.70112288151503,71.34069810639284 C-73.88044915260602,28.536279242557136,-76.37505218862773,-20.96405025715191,-190.93763047156932,-52.41012564287977 Z" fill="#d62728" fill-opacity="0.6" />
<path d="M-190.91686659299972,-52.485712820830976 A198.0,198.0,0,0,0,-190.93763047156932,-52.41012564287977 C-76.37505218862773,-20.96405025715191,-52.12028365886394,59.63317894695504,-130.30070914715984,149.0829473673876 A198.0,198.0,0,0,0,-130.0921994663108,149.26493103879963 C-52.036879786524324,59.70597241551985,-76.3667466371999,-20.994285128332393,-190.91686659299972,-52.485712820830976 Z" fill="#d62728" fill-opacity="0.6" />
<path d="M-190.9023013018353,-52.53866535860316 A198.0,198.0,0,0,0,-190.91686659299972,-52.485712820830976 C-76.3667466371999,-20.994285128332393,-28.855003015544476,73.7565509020922,-72.13750753886119,184.3913772552305 A198.0,198.0,0,0,0,-68.03373611203105,185.94464431824468 C-27.213494444812422,74.37785772729788,-76.36092052073413,-21.015466143441266,-190.9023013018353,-52.53866535860316 Z" fill="#d62728" fill-opacity="0.6" />
<path d="M-190.90148502508467,-52.54163125767389 A198.0,198.0,0,0,0,-190.9023013018353,-52.53866535860316 C-76.36092052073413,-21.015466143441266,-23.437187473627944,75.65274775793685,-58.59296868406985,189.1318693948421 A198.0,198.0,0,0,0,-58.484516656757165,189.16543371193768 C-23.39380666270287,75.66617348477507,-76.36059401003386,-21.016652503069558,-190.90148502508467,-52.54163125767389 Z" fill="#d62728" fill-opacity="0.6" />
<path d="M-190.89663230319061,-52.559259653275525 A198.0,198.0,0,0,0,-190.90148502508467,-52.54163125767389 C-76.36059401003386,-21.016652503069558,-17.292638707781165,77.28909785035758,-43.23159676945291,193.22274462589394 A198.0,198.0,0,0,0,-42.54967410374393,193.37405522371708 C-17.019869641497575,77.34962208948684,-76.35865292127625,-21.02370386131021,-190.89663230319061,-52.559259653275525 Z" fill="#d62728" fill-opacity="0.6" />
<path d="M-190.89381519588656,-52.56949039089793 A198.0,198.0,0,0,0,-190.89663230319061,-52.559259653275525 C-76.35865292127625,-21.02370386131021,15.747069951418542,77.61874636932197,39.36767487854635,194.04686592330492 A198.0,198.0,0,0,0,39.45069310935651,194.03000493014312 C15.780277243742603,77.61200197205726,-76.35752607835462,-21.027796156359173,-190.89381519588656,-52.56949039089793 Z" fill="#d62728" fill-opacity="0.6" />
<path d="M-190.89339785242254,-52.571005852624964 A198.0,198.0,0,0,0,-190.89381519588656,-52.56949039089793 C-76.35752607835462,-21.027796156359173,25.934326539710995,74.83348653465,64.83581634927748,187.083716336625 A198.0,198.0,0,0,0,64.89016149831573,187.06487361533834 C25.956064599326297,74.82594944613534,-76.35735914096902,-21.028402341049986,-190.89339785242254,-52.571005852624964 Z" fill="#d62728" fill-opacity="0.6" />
<path d="M-190.88972341946513,-52.5843464620423 A198.0,198.0,0,0,0,-190.89339785242254,-52.571005852624964 C-76.35735914096902,-21.028402341049986,46.75377989140748,63.927490689575954,116.8844497285187,159.81872672393988 A198.0,198.0,0,0,0,117.70014375268647,159.21895666219189 C47.08005750107459,63.68758266487676,-76.35588936778605,-21.03373858481692,-190.88972341946513,-52.5843464620423 Z" fill="#d62728" fill-opacity="0.6" />
<path d="M-190.6589172827398,-53.415140742802336 A198.0,198.0,0,0,0,-190.88972341946513,-52.5843464620423 C-76.35588936778605,-21.03373858481692,71.37392969371926,34.32786273679181,178.43482423429816,85.81965684197951 A198.0,198.0,0,0,0,178.49814356536567,85.68787979474172 C71.39925742614626,34.275151917896686,-76.26356691309591,-21.366056297120934,-190.6589172827398,-53.415140742802336 Z" fill="#e377c2" fill-opacity="0.6" />
<path d="M-190.65854463725148,-53.41647083817107 A198.0,198.0,0,0,0,-190.6589172827398,-53.415140742802336 C-76.26356691309591,-21.366056297120934,78.57850372162432,9.902461960072111,196.44625930406076,24.756154900180277 A198.0,198.0,0,0,0,196.45822259363962,24.661037596742474 C78.58328903745586,9.86441503869699,-76.2634178549006,-21.366588335268432,-190.65854463725148,-53.41647083817107 Z" fill="#d62728" fill-opacity="0.6" />
<path d="M-190.65817169449375,-53.41780195883147 A198.0,198.0,0,0,0,-190.65854463725148,-53.41647083817107 C-76.2634178549006,-21.366588335268432,79.19377587125278,0.9929064677908613,197.98443967813193,2.4822661694771533 A198.0,198.0,0,0,0,197.98480275842869,2.453136096120311 C79.19392110337148,0.9812544384481244,-76.2632686777975,-21.367120783532588,-190.65817169449375,-53.41780195883147 Z" fill="#d62728" fill-opacity="0.6" />
<path d="M-197.62158394151456,-12.235585823609513 A198.0,198.0,0,0,0,-197.98921456698213,2.066619256060341 C-79.19568582679285,0.8266477024241365,-78.15353679891251,12.832173854068131,-195.38384199728125,32.08043463517033 A198.0,198.0,0,0,0,-195.34817121767603,32.29693486864556 C-78.13926848707041,12.918773947458224,-79.04863357660582,-4.8942343294438055,-197.62158394151456,-12.235585823609513 Z" fill="#d62728" fill-opacity="0.6" />
<path d="M-197.6156656571979,-12.33080236085951 A198.0,198.0,0,0,0,-197.62158394151456,-12.235585823609513 C-79.04863357660582,-4.8942343294438055,-52.12073486567809,59.63278458249027,-130.3018371641952,149.08196145622566 A198.0,198.0,0,0,0,-130.30070914715984,149.0829473673876 C-52.12028365886394,59.63317894695504,-79.04626626287916,-4.932320944343804,-197.6156656571979,-12.33080236085951 Z" fill="#d62728" fill-opacity="0.6" />
<path d="M-197.54106828127522,-13.473171204009846 A198.0,198.0,0,0,0,-197.6156656571979,-12.33080236085951 C-79.04626626287916,-4.932320944343804,-28.86028292685326,73.75448507976978,-72.15070731713314,184.38621269942445 A198.0,198.0,0,0,0,-72.13750753886119,184.3913772552305 C-28.855003015544476,73.7565509020922,-79.01642731251009,-5.3892684816039385,-197.54106828127522,-13.473171204009846 Z" fill="#d62728" fill-opacity="0.6" />
<path d="M-197.54103451073792,-13.473666332051195 A198.0,198.0,0,0,0,-197.54106828127522,-13.473171204009846 C-79.01642731251009,-5.3892684816039385,-23.44803147300536,75.64938743995849,-58.6200786825134,189.12346859989623 A198.0,198.0,0,0,0,-58.59296868406985,189.1318693948421 C-23.437187473627944,75.65274775793685,-79.01641380429517,-5.389466532820478,-197.54103451073792,-13.473666332051195 Z" fill="#d62728" fill-opacity="0.6" />
<path d="M-197.5409679390785,-13.474642321484751 A198.0,198.0,0,0,0,-197.54103451073792,-13.473666332051195 C-79.01641380429517,-5.389466532820478,15.742325817066174,77.61970869482398,39.355814542665435,194.04927173705994 A198.0,198.0,0,0,0,39.36767487854635,194.04686592330492 C15.747069951418542,77.61874636932197,-79.01638717563141,-5.3898569285939,-197.5409679390785,-13.474642321484751 Z" fill="#d62728" fill-opacity="0.6" />
<path d="M-197.5396899763379,-13.493364445248762 A198.0,198.0,0,0,0,-197.5409679390785,-13.474642321484751 C-79.01638717563141,-5.3898569285939,25.53177959758708,74.97178289583512,63.829448993967695,187.4294572395878 A198.0,198.0,0,0,0,64.83581634927748,187.083716336625 C25.934326539710995,74.83348653465,-79.01587599053516,-5.397345778099505,-197.5396899763379,-13.493364445248762 Z" fill="#d62728" fill-opacity="0.6" />
<path d="M-197.5390258844955,-13.503083077750167 A198.0,198.0,0,0,0,-197.5396899763379,-13.493364445248762 C-79.01587599053516,-5.397345778099505,46.39644673446498,64.18730194061716,115.99111683616245,160.4682548515429 A198.0,198.0,0,0,0,116.8844497285187,159.81872672393988 C46.75377989140748,63.927490689575954,-79.0156103537982,-5.4012332311000675,-197.5390258844955,-13.503083077750167 Z" fill="#d62728" fill-opacity="0.6" />
<path d="M-197.53249690470986,-13.59825968978323 A198.0,198.0,0,0,0,-197.5390258844955,-13.503083077750167 C-79.0156103537982,-5.4012332311000675,71.37364249287542,34.32845987368509,178.43410623218855,85.82114968421273 A198.0,198.0,0,0,0,178.43482423429816,85.81965684197951 C71.37392969371926,34.32786273679181,-79.01299876188395,-5.439303875913293,-197.53249690470986,-13.59825968978323 Z" fill="#e377c2" fill-opacity="0.6" />
<path d="M-197.52592206772258,-13.69343314497807 A198.0,198.0,0,0,0,-197.53249690470986,-13.59825968978323 C-79.01299876188395,-5.439303875913293,79.1937743088442,0.9930310769807049,197.9844357721105,2.482577692451762 A198.0,198.0,0,0,0,197.98443967813193,2.4822661694771533 C79.19377587125278,0.9929064677908613,-79.01036882708904,-5.477373257991228,-197.52592206772258,-13.69343314497807 Z" fill="#e377c2" fill-opacity="0.6" />
<path d="M-183.77108329843784,73.70338488372576 A198.0,198.0,0,0,0,-177.70447227136384,87.32193616014297 C-71.08178890854553,34.92877446405719,-52.22484579974082,59.54162813690347,-130.56211449935205,148.85407034225867 A198.0,198.0,0,0,0,-130.3018371641952,149.08196145622566 C-52.12073486567809,59.63278458249027,-73.50843331937514,29.481353953490306,-183.77108329843784,73.70338488372576 Z" fill="#d62728" fill-opacity="0.6" />
<path d="M-183.77223916452834,73.70050279648979 A198.0,198.0,0,0,0,-183.77108329843784,73.70338488372576 C-73.50843331937514,29.481353953490306,-28.953660392023068,73.71787808872007,-72.38415098005767,184.29469522180017 A198.0,198.0,0,0,0,-72.15070731713314,184.38621269942445 C-28.86028292685326,73.75448507976978,-73.50889566581134,29.480201118595915,-183.77223916452834,73.70050279648979 Z" fill="#d62728" fill-opacity="0.6" />
<path d="M-183.80253097463165,73.62492517700488 A198.0,198.0,0,0,0,-183.77223916452834,73.70050279648979 C-73.50889566581134,29.480201118595915,-24.605510207340764,75.28086654281053,-61.513775518351906,188.20216635702633 A198.0,198.0,0,0,0,-58.6200786825134,189.12346859989623 C-23.44803147300536,75.64938743995849,-73.52101238985266,29.449970070801953,-183.80253097463165,73.62492517700488 Z" fill="#d62728" fill-opacity="0.6" />
<path d="M-183.80477332610263,73.61932696337307 A198.0,198.0,0,0,0,-183.80253097463165,73.62492517700488 C-73.52101238985266,29.449970070801953,-17.383514071762654,77.26870931054064,-43.45878517940663,193.1717732763516 A198.0,198.0,0,0,0,-43.23159676945291,193.22274462589394 C-17.292638707781165,77.28909785035758,-73.52190933044106,29.44773078534923,-183.80477332610263,73.61932696337307 Z" fill="#d62728" fill-opacity="0.6" />
<path d="M-184.075129594115,72.94070650130676 A198.0,198.0,0,0,0,-183.80477332610263,73.61932696337307 C-73.52190933044106,29.44773078534923,13.425285892903739,78.05383846226783,33.56321473225935,195.13459615566956 A198.0,198.0,0,0,0,39.355814542665435,194.04927173705994 C15.742325817066174,77.61970869482398,-73.63005183764601,29.176282600522708,-184.075129594115,72.94070650130676 Z" fill="#d62728" fill-opacity="0.6" />
<path d="M-184.07885365279148,72.93130766600977 A198.0,198.0,0,0,0,-184.075129594115,72.94070650130676 C-73.63005183764601,29.176282600522708,25.390168524098733,75.01985965274706,63.47542131024683,187.54964913186765 A198.0,198.0,0,0,0,63.829448993967695,187.4294572395878 C25.53177959758708,74.97178289583512,-73.6315414611166,29.17252306640391,-184.07885365279148,72.93130766600977 Z" fill="#d62728" fill-opacity="0.6" />
<path d="M-184.08252123842504,72.92204998835942 A198.0,198.0,0,0,0,-184.07885365279148,72.93130766600977 C-73.6315414611166,29.17252306640391,46.15742186305005,64.35940029985076,115.3935546576251,160.8985007496269 A198.0,198.0,0,0,0,115.99111683616245,160.4682548515429 C46.39644673446498,64.18730194061716,-73.63300849537002,29.168819995343767,-184.08252123842504,72.92204998835942 Z" fill="#d62728" fill-opacity="0.6" />
<path d="M-184.62920870903054,71.52660547989987 A198.0,198.0,0,0,0,-184.08252123842504,72.92204998835942 C-73.63300849537002,29.168819995343767,71.36096381261294,34.35480816035723,178.40240953153233,85.88702040089308 A198.0,198.0,0,0,0,178.43410623218855,85.82114968421273 C71.37364249287542,34.32845987368509,-73.85168348361222,28.61064219195995,-184.62920870903054,71.52660547989987 Z" fill="#e377c2" fill-opacity="0.6" />
<path d="M-184.62970282956522,71.52533001018901 A198.0,198.0,0,0,0,-184.62920870903054,71.52660547989987 C-73.85168348361222,28.61064219195995,79.19362734399482,1.0046830845976502,197.98406835998705,2.5117077114941253 A198.0,198.0,0,0,0,197.9844357721105,2.482577692451762 C79.1937743088442,0.9930310769807049,-73.85188113182609,28.610132004075606,-184.62970282956522,71.52533001018901 Z" fill="#d62728" fill-opacity="0.6" />
<path d="M-128.50051054675106,150.63737514051525 A198.0,198.0,0,0,0,-128.49567140521606,150.64150301335533 C-51.39826856208643,60.256601205342136,-29.14027587387052,73.64430950178513,-72.8506896846763,184.11077375446283 A198.0,198.0,0,0,0,-72.38415098005767,184.29469522180017 C-28.953660392023068,73.71787808872007,-51.400204218700424,60.2549500562061,-128.50051054675106,150.63737514051525 Z" fill="#d62728" fill-opacity="0.6" />
<path d="M-128.5016793025793,150.63637813097162 A198.0,198.0,0,0,0,-128.50051054675106,150.63737514051525 C-51.400204218700424,60.2549500562061,13.420515169795067,78.05465887810477,33.55128792448767,195.13664719526193 A198.0,198.0,0,0,0,33.56321473225935,195.13459615566956 C13.425285892903739,78.05383846226783,-51.40067172103173,60.25455125238865,-128.5016793025793,150.63637813097162 Z" fill="#d62728" fill-opacity="0.6" />
<path d="M-128.8104398395945,150.37243959027268 A198.0,198.0,0,0,0,-128.5016793025793,150.63637813097162 C-51.40067172103173,60.25455125238865,19.76832703757056,76.6932412024401,49.4208175939264,191.73310300610027 A198.0,198.0,0,0,0,63.47542131024683,187.54964913186765 C25.390168524098733,75.01985965274706,-51.5241759358378,60.148975836109074,-128.8104398395945,150.37243959027268 Z" fill="#d62728" fill-opacity="0.6" />
<path d="M-128.82883374669476,150.35668124651622 A198.0,198.0,0,0,0,-128.8104398395945,150.37243959027268 C-51.5241759358378,60.148975836109074,45.58718546411518,64.76456223476205,113.96796366028794,161.91140558690512 A198.0,198.0,0,0,0,115.3935546576251,160.8985007496269 C46.15742186305005,64.35940029985076,-51.5315334986779,60.14267249860649,-128.82883374669476,150.35668124651622 Z" fill="#d62728" fill-opacity="0.6" />
<path d="M-128.93388369523998,150.26660851720297 A198.0,198.0,0,0,0,-128.82883374669476,150.35668124651622 C-51.5315334986779,60.14267249860649,71.34827540561996,34.381151764357845,178.3706885140499,85.95287941089461 A198.0,198.0,0,0,0,178.40240953153233,85.88702040089308 C71.36096381261294,34.35480816035723,-51.573553478095995,60.10664340688119,-128.93388369523998,150.26660851720297 Z" fill="#e377c2" fill-opacity="0.6" />
<path d="M-129.03887066802125,150.17646239248575 A198.0,198.0,0,0,0,-128.93388369523998,150.26660851720297 C-51.573553478095995,60.10664340688119,79.19362588374531,1.004798181419773,197.98406470936328,2.5119954535494324 A198.0,198.0,0,0,0,197.98406835998705,2.5117077114941253 C79.19362734399482,1.0046830845976502,-51.6155482672085,60.0705849569943,-129.03887066802125,150.17646239248575 Z" fill="#e377c2" fill-opacity="0.6" />
<path d="M-67.90141519345784,185.99300474675292 A198.0,198.0,0,0,0,-67.89102556379765,185.99679741300864 C-27.156410225519064,74.39871896520346,-24.79966489941424,75.21712983673841,-61.99916224853559,188.042824591846 A198.0,198.0,0,0,0,-61.513775518351906,188.20216635702633 C-24.605510207340764,75.28086654281053,-27.160566077383137,74.39720189870117,-67.90141519345784,185.99300474675292 Z" fill="#d62728" fill-opacity="0.6" />
<path d="M-67.94601267564386,185.97671725643843 A198.0,198.0,0,0,0,-67.90141519345784,185.99300474675292 C-27.160566077383137,74.39720189870117,-18.268269908404942,77.06432582300106,-45.67067477101236,192.66081455750262 A198.0,198.0,0,0,0,-43.45878517940663,193.1717732763516 C-17.383514071762654,77.26870931054064,-27.178405070257543,74.39068690257538,-67.94601267564386,185.97671725643843 Z" fill="#d62728" fill-opacity="0.6" />
<path d="M-67.95056329861048,185.97505463744736 A198.0,198.0,0,0,0,-67.94601267564386,185.97671725643843 C-27.178405070257543,74.39068690257538,13.401431776184708,78.05793762551166,33.50357944046177,195.14484406377912 A198.0,198.0,0,0,0,33.55128792448767,195.13664719526193 C13.420515169795067,78.05465887810477,-27.18022531944419,74.39002185497894,-67.95056329861048,185.97505463744736 Z" fill="#d62728" fill-opacity="0.6" />
<path d="M-67.97297592258772,185.96686410279472 A198.0,198.0,0,0,0,-67.95056329861048,185.97505463744736 C-27.18022531944419,74.39002185497894,19.3447192084505,76.8011838368798,48.36179802112624,192.0029595921995 A198.0,198.0,0,0,0,49.4208175939264,191.73310300610027 C19.76832703757056,76.6932412024401,-27.18919036903509,74.38674564111788,-67.97297592258772,185.96686410279472 Z" fill="#d62728" fill-opacity="0.6" />
<path d="M-67.97486392000239,185.96617400768656 A198.0,198.0,0,0,0,-67.97297592258772,185.96686410279472 C-27.18919036903509,74.38674564111788,45.526952933289465,64.80691750585,113.81738233322366,162.01729376462498 A198.0,198.0,0,0,0,113.96796366028794,161.91140558690512 C45.58718546411518,64.76456223476205,-27.189945568000958,74.38646960307463,-67.97486392000239,185.96617400768656 Z" fill="#d62728" fill-opacity="0.6" />
<path d="M-55.07259507198044,190.18677470328393 A198.0,198.0,0,0,0,-55.07148064261344,190.18709740629163 C-22.028592257045375,76.07483896251665,19.3000944039697,76.81241016917681,48.25023600992425,192.03102542294204 A198.0,198.0,0,0,0,48.36179802112624,192.0029595921995 C19.3447192084505,76.8011838368798,-22.029038028792176,76.07470988131358,-55.07259507198044,190.18677470328393 Z" fill="#9467bd" fill-opacity="0.6" />
<path d="M-55.07749165428179,190.18535672620152 A198.0,198.0,0,0,0,-55.07259507198044,190.18677470328393 C-22.029038028792176,76.07470988131358,78.52963760578092,10.282802025942212,196.32409401445227,25.70700506485553 A198.0,198.0,0,0,0,196.44625930406076,24.756154900180277 C78.57850372162432,9.902461960072111,-22.03099666171272,76.07414269048061,-55.07749165428179,190.18535672620152 Z" fill="#9467bd" fill-opacity="0.6" />
<path d="M-55.10475269815676,190.17745983705584 A198.0,198.0,0,0,0,-55.07749165428179,190.18535672620152 C-22.03099666171272,76.07414269048061,79.1927079908958,1.074709760219354,197.98176997723948,2.686774400548385 A198.0,198.0,0,0,0,197.98406470936328,2.5119954535494324 C79.19362588374531,1.004798181419773,-22.041901079262704,76.07098393482234,-55.10475269815676,190.17745983705584 Z" fill="#9467bd" fill-opacity="0.6" />
<path d="M-41.92147898518311,193.5112131110103 A198.0,198.0,0,0,0,-41.864587780668366,193.52352903446834 C-16.745835112267347,77.40941161378734,12.352628650728038,78.23076482699894,30.881571626820094,195.57691206749732 A198.0,198.0,0,0,0,30.882790498239924,195.57671960394936 C12.35311619929597,78.23068784157975,-16.768591594073243,77.40448524440413,-41.92147898518311,193.5112131110103 Z" fill="#9467bd" fill-opacity="0.6" />
<path d="M-41.92241833979851,193.51100961067544 A198.0,198.0,0,0,0,-41.92147898518311,193.5112131110103 C-16.768591594073243,77.40448524440413,45.46668105000541,64.84921675931852,113.66670262501353,162.1230418982963 A198.0,198.0,0,0,0,113.81738233322366,162.01729376462498 C45.526952933289465,64.80691750585,-16.768967335919406,77.40440384427018,-41.92241833979851,193.51100961067544 Z" fill="#9467bd" fill-opacity="0.6" />
<path d="M-42.547980716719856,193.37442782573302 A198.0,198.0,0,0,0,-41.92241833979851,193.51100961067544 C-16.768967335919406,77.40440384427018,71.34501397391074,34.38791911503925,178.36253493477685,85.96979778759813 A198.0,198.0,0,0,0,178.3706885140499,85.95287941089461 C71.34827540561996,34.381151764357845,-17.019192286687943,77.34977113029322,-42.547980716719856,193.37442782573302 Z" fill="#e377c2" fill-opacity="0.6" />
<path d="M-42.548496488890144,193.3743143401804 A198.0,198.0,0,0,0,-42.547980716719856,193.37442782573302 C-17.019192286687943,77.34977113029322,79.19254900842746,1.086361610061635,197.98137252106864,2.7159040251540874 A198.0,198.0,0,0,0,197.98176997723948,2.686774400548385 C79.1927079908958,1.074709760219354,-17.01939859555606,77.34972573607217,-42.548496488890144,193.3743143401804 Z" fill="#9467bd" fill-opacity="0.6" />
<path d="M31.536027532653634,195.47245066110904 A198.0,198.0,0,0,0,31.538541047532853,195.4720451332954 C12.615416419013142,78.18881805331817,19.255463084514176,76.82361057253762,48.13865771128544,192.05902643134402 A198.0,198.0,0,0,0,48.25023600992425,192.03102542294204 C19.3000944039697,76.81241016917681,12.614411013061455,78.18898026444361,31.536027532653634,195.47245066110904 Z" fill="#9467bd" fill-opacity="0.6" />
<path d="M31.534984358280468,195.47261895601392 A198.0,198.0,0,0,0,31.536027532653634,195.47245066110904 C12.614411013061455,78.18898026444361,71.31960299062949,34.4405898506253,178.2990074765737,86.10147462656325 A198.0,198.0,0,0,0,178.36253493477685,85.96979778759813 C71.34501397391074,34.38791911503925,12.613993743312188,78.18904758240558,31.534984358280468,195.47261895601392 Z" fill="#9467bd" fill-opacity="0.6" />
<path d="M31.52117933098872,195.47484557759253 A198.0,198.0,0,0,0,31.534984358280468,195.47261895601392 C12.613993743312188,78.18904758240558,78.4659662883126,10.757887080713905,196.1649157207815,26.89471770178476 A198.0,198.0,0,0,0,196.32409401445227,25.70700506485553 C78.52963760578092,10.282802025942212,12.608471732395488,78.18993823103702,31.52117933098872,195.47484557759253 Z" fill="#9467bd" fill-opacity="0.6" />
<path d="M31.387005972001358,195.496434382097 A198.0,198.0,0,0,0,31.52117933098872,195.47484557759253 C12.608471732395488,78.18993823103702,79.19254706803368,1.0865030498210337,197.98136767008418,2.716257624552584 A198.0,198.0,0,0,0,197.98137252106864,2.7159040251540874 C79.19254900842746,1.086361610061635,12.554802388800544,78.1985737528388,31.387005972001358,195.496434382097 Z" fill="#e377c2" fill-opacity="0.6" />
<path d="M39.52184584577783,194.01552438127877 A198.0,198.0,0,0,0,39.53370411868974,194.01310841965264 C15.813481647475896,77.60524336786106,71.31930752091608,34.441201702858784,178.2982688022902,86.10300425714695 A198.0,198.0,0,0,0,178.2990074765737,86.10147462656325 C71.31960299062949,34.4405898506253,15.808738338311134,77.60620975251152,39.52184584577783,194.01552438127877 Z" fill="#e377c2" fill-opacity="0.6" />
<path d="M39.50998742522321,194.0179396181155 A198.0,198.0,0,0,0,39.52184584577783,194.01552438127877 C15.808738338311134,77.60620975251152,79.1925453148845,1.0866308250583063,197.98136328721122,2.716577062645766 A198.0,198.0,0,0,0,197.98136767008418,2.716257624552584 C79.19254706803368,1.0865030498210337,15.803994970089285,77.6071758472462,39.50998742522321,194.0179396181155 Z" fill="#e377c2" fill-opacity="0.6" />
<path d="M66.05725009283498,186.65593939163216 A198.0,198.0,0,0,0,70.05422598096324,185.1928870723931 C28.021690392385295,74.07715482895723,45.438801813626185,64.86875434091517,113.59700453406545,162.17188585228794 A198.0,198.0,0,0,0,113.66670262501353,162.1230418982963 C45.46668105000541,64.84921675931852,26.422900037133992,74.66237575665286,66.05725009283498,186.65593939163216 Z" fill="#8c564b" fill-opacity="0.6" />
<path d="M65.89455417908827,186.71343746377548 A198.0,198.0,0,0,0,66.05725009283498,186.65593939163216 C26.422900037133992,74.66237575665286,71.31838836364233,34.443104987975275,178.29597090910582,86.10776246993818 A198.0,198.0,0,0,0,178.2982688022902,86.10300425714695 C71.31930752091608,34.441201702858784,26.35782167163531,74.6853749855102,65.89455417908827,186.71343746377548 Z" fill="#e377c2" fill-opacity="0.6" />
<path d="M65.78606242460607,186.75169073040766 A198.0,198.0,0,0,0,65.89455417908827,186.71343746377548 C26.35782167163531,74.6853749855102,79.19254167852259,1.086895807087898,197.98135419630646,2.717239517719745 A198.0,198.0,0,0,0,197.98136328721122,2.716577062645766 C79.1925453148845,1.0866308250583063,26.31442496984243,74.70067629216307,65.78606242460607,186.75169073040766 Z" fill="#e377c2" fill-opacity="0.6" />
<path d="M118.66413711822965,158.50180617893915 A198.0,198.0,0,0,0,118.73780535630588,158.4466269100356 C47.495122142522355,63.378650764014246,71.31814316026953,34.44361270498929,178.29535790067382,86.10903176247322 A198.0,198.0,0,0,0,178.29597090910582,86.10776246993818 C71.31838836364233,34.443104987975275,47.46565484729186,63.40072247157566,118.66413711822965,158.50180617893915 Z" fill="#e377c2" fill-opacity="0.6" />
<path d="M118.51672373007028,158.6120619508182 A198.0,198.0,0,0,0,118.66413711822965,158.50180617893915 C47.46565484729186,63.40072247157566,79.19253876777145,1.0871078672406707,197.98134691942863,2.7177696681016767 A198.0,198.0,0,0,0,197.98135419630646,2.717239517719745 C79.19254167852259,1.086895807087898,47.406689492028114,63.44482478032728,118.51672373007028,158.6120619508182 Z" fill="#e377c2" fill-opacity="0.6" />
<path d="M180.35264362118872,81.7124466580734 A198.0,198.0,0,0,0,180.4731174669465,81.44601814552837 C72.1892469867786,32.57840725821135,77.9838343649063,13.826119403030646,194.95958591226574,34.565298507576614 A198.0,198.0,0,0,0,196.1649157207815,26.89471770178476 C78.4659662883126,10.757887080713905,72.1410574484755,32.684978663229366,180.35264362118872,81.7124466580734 Z" fill="#e377c2" fill-opacity="0.6" />
<path d="M180.14086811781016,82.17826740545048 A198.0,198.0,0,0,0,180.35264362118872,81.7124466580734 C72.1410574484755,32.684978663229366,78.79421923918652,8.006935399203043,196.98554809796627,20.017338498007604 A198.0,198.0,0,0,0,197.98134691942863,2.7177696681016767 C79.19253876777145,1.0871078672406707,72.05634724712407,32.87130696218019,180.14086811781016,82.17826740545048 Z" fill="#e377c2" fill-opacity="0.6" />
<path d="M196.7324476932651,22.368371076515874 A198.0,198.0,0,0,0,196.77539955478363,21.98731748202267 C78.71015982191346,8.794926992809069,78.79417215083241,8.00739877019923,196.985430377081,20.018496925498077 A198.0,198.0,0,0,0,196.98554809796627,20.017338498007604 C78.79421923918652,8.006935399203043,78.69297907730605,8.94734843060635,196.7324476932651,22.368371076515874 Z" fill="#e377c2" fill-opacity="0.6" />
<text x="220.0" y="0" font-size="10" text-anchor="start" dominant-baseline="middle" transform="rotate(-8.004056)" font-family="Arial">Canada</text>
<text x="220.00000000000003" y="0" font-size="10" text-anchor="start" dominant-baseline="middle" transform="rotate(-23.253746)" font-family="Arial">Mexico</text>
<text x="220.0" y="0" font-size="10" text-anchor="start" dominant-baseline="middle" transform="rotate(-53.587381)" font-family="Arial">United Sta.</text>
<text x="220.00000000000003" y="0" font-size="10" text-anchor="start" dominant-baseline="middle" transform="rotate(-78.324739)" font-family="Arial">Costa Rica</text>
<text x="220.00000000000006" y="0" font-size="10" text-anchor="start" dominant-baseline="middle" transform="rotate(-80.950677)" font-family="Arial">Dominican .</text>
<text x="220.00000000000006" y="0" font-size="10" text-anchor="start" dominant-baseline="middle" transform="rotate(-83.491321)" font-family="Arial">Guatemala</text>
<text x="-220.00000000000003" y="0" font-size="10" text-anchor="end" dominant-baseline="middle" transform="rotate(85.763744)" font-family="Arial">Argentina</text>
<text x="-220.00000000000006" y="0" font-size="10" text-anchor="end" dominant-baseline="middle" transform="rotate(66.034952)" font-family="Arial">Brazil</text>
<text x="-220.00000000000003" y="0" font-size="10" text-anchor="end" dominant-baseline="middle" transform="rotate(48.239915)" font-family="Arial">Colombia</text>
<text x="-220.00000000000003" y="0" font-size="10" text-anchor="end" dominant-baseline="middle" transform="rotate(27.849531)" font-family="Arial">Germany</text>
<text x="-220.00000000000003" y="0" font-size="10" text-anchor="end" dominant-baseline="middle" transform="rotate(7.054116)" font-family="Arial">Spain</text>
<text x="-220.00000000000006" y="0" font-size="10" text-anchor="end" dominant-baseline="middle" transform="rotate(-13.669982)" font-family="Arial">France</text>
<text x="-220.00000000000006" y="0" font-size="10" text-anchor="end" dominant-baseline="middle" transform="rotate(-38.139044)" font-family="Arial">United Kin.</text>
<text x="-220.00000000000003" y="0" font-size="10" text-anchor="end" dominant-baseline="middle" transform="rotate(-60.028219)" font-family="Arial">Italy</text>
<text x="-220.0" y="0" font-size="10" text-anchor="end" dominant-baseline="middle" transform="rotate(-72.185563)" font-family="Arial">Indonesia</text>
<text x="-220.00000000000003" y="0" font-size="10" text-anchor="end" dominant-baseline="middle" transform="rotate(-76.108604)" font-family="Arial">India</text>
<text x="-220.0" y="0" font-size="10" text-anchor="end" dominant-baseline="middle" transform="rotate(-88.765896)" font-family="Arial">Japan</text>
<text x="220.00000000000006" y="0" font-size="10" text-anchor="start" dominant-baseline="middle" transform="rotate(-280.627884)" font-family="Arial">Egypt</text>
<text x="220.00000000000006" y="0" font-size="10" text-anchor="start" dominant-baseline="middle" transform="rotate(-286.405410)" font-family="Arial">Nigeria</text>
<text x="220.00000000000003" y="0" font-size="10" text-anchor="start" dominant-baseline="middle" transform="rotate(-299.070422)" font-family="Arial">South Afri.</text>
<text x="220.00000000000003" y="0" font-size="10" text-anchor="start" dominant-baseline="middle" transform="rotate(-321.565550)" font-family="Arial">Australia</text>
<text x="220.0" y="0" font-size="10" text-anchor="start" dominant-baseline="middle" transform="rotate(-344.954010)" font-family="Arial">New Zealan.</text>
<text x="220.00000000000003" y="0" font-size="10" text-anchor="start" dominant-baseline="middle" transform="rotate(-356.812161)" font-family="Arial">Papua New .</text>
<text x="-295.0" y="-285.0" font-size="8" text-anchor="start" dominant-baseline="middle" font-family="Arial" font-weight="bold">Continents</text>
<circle cx="-290.5" cy="-274.5" r="4.5" fill="#8c564b" stroke="#333" stroke-width="0.5" />
<text x="-278.0" y="-271.0" font-size="6" text-anchor="start" dominant-baseline="middle" font-family="Arial">Africa</text>
<circle cx="-290.5" cy="-262.5" r="4.5" fill="#9467bd" stroke="#333" stroke-width="0.5" />
<text x="-278.0" y="-259.0" font-size="6" text-anchor="start" dominant-baseline="middle" font-family="Arial">Asia</text>
<circle cx="-290.5" cy="-250.5" r="4.5" fill="#ff7f0e" stroke="#333" stroke-width="0.5" />
<text x="-278.0" y="-247.0" font-size="6" text-anchor="start" dominant-baseline="middle" font-family="Arial">Central America</text>
<circle cx="-290.5" cy="-238.5" r="4.5" fill="#d62728" stroke="#333" stroke-width="0.5" />
<text x="-278.0" y="-235.0" font-size="6" text-anchor="start" dominant-baseline="middle" font-family="Arial">Europe</text>
<circle cx="-290.5" cy="-226.5" r="4.5" fill="#1f77b4" stroke="#333" stroke-width="0.5" />
<text x="-278.0" y="-223.0" font-size="6" text-anchor="start" dominant-baseline="middle" font-family="Arial">North America</text>
<circle cx="-290.5" cy="-214.5" r="4.5" fill="#e377c2" stroke="#333" stroke-width="0.5" />
<text x="-278.0" y="-211.0" font-size="6" text-anchor="start" dominant-baseline="middle" font-family="Arial">Oceania</text>
<circle cx="-290.5" cy="-202.5" r="4.5" fill="#2ca02c" stroke="#333" stroke-width="0.5" />
<text x="-278.0" y="-199.0" font-size="6" text-anchor="start" dominant-baseline="middle" font-family="Arial">South America</text>
</svg>