<?xml version="1.0" encoding="UTF-8"?>
<svg xmlns="http://www.w3.org/2000/svg" xmlns:xlink="http://www.w3.org/1999/xlink"
     width="600.0" height="600.0" viewBox="-300.0 -300.0 600.0 600.0">
<defs>
</defs>
<rect x="-300.0" y="-300.0" width="600.0" height="600.0" fill="#ffffff" fill-opacity="1.0" />
<path d="M200.0,-0.0 A200,200,0,0,0,192.20923833011543,-55.27756055179069 L205.6638850132235,-59.14698979041604 A214.0,214.0,0,0,1,214.0,-0.0 Z" fill="#1f77b4" fill-opacity="0.9" />
<path d="M191.64686155564863,-57.196857045383624 A200,200,0,0,0,167.725262643507,-108.94143505189655 L179.4660310285525,-116.56733550552931 A214.0,214.0,0,0,1,205.06214186454403,-61.20063703856048 Z" fill="#1f77b4" fill-opacity="0.9" />
<path d="M166.62748025655623,-110.61321269790045 A200,200,0,0,0,44.61989728512663,-194.9591361446412 L47.7432900950855,-208.6062756747661 A214.0,214.0,0,0,1,178.29140387451517,-118.35613758675349 Z" fill="#1f77b4" fill-opacity="0.9" />
<path d="M42.66810744043442,-195.3955798053056 A200,200,0,0,0,34.11389064535383,-197.06913118252905 L36.50186299052859,-210.8639703653061 A214.0,214.0,0,0,1,45.65487496126483,-209.073270391677 Z" fill="#ff7f0e" fill-opacity="0.9" />
<path d="M32.14152649790132,-197.4004110289153 A200,200,0,0,0,25.52045362228497,-198.36508373933353 L27.306885375844917,-212.25063960108687 A214.0,214.0,0,0,1,34.39143335275441,-211.2184398009394 Z" fill="#ff7f0e" fill-opacity="0.9" />
<path d="M23.53555983352599,-198.6103658506336 A200,200,0,0,0,16.698764309745375,-199.3016589758539 L17.86767781142755,-213.2527751041637 A214.0,214.0,0,0,1,25.18304902187281,-212.51309146017798 Z" fill="#ff7f0e" fill-opacity="0.9" />
<path d="M14.704946005506223,-199.4586788359312 A200,200,0,0,0,-45.53759591042535,-194.7468288796991 L-48.72522762415513,-208.37910690127805 A214.0,214.0,0,0,1,15.734292225891659,-213.42078635444642 Z" fill="#2ca02c" fill-opacity="0.9" />
<path d="M-47.48275488075823,-194.2817232498565 A200,200,0,0,0,-109.96413329096018,-167.0565454855569 L-117.6616226213274,-178.7505036695459 A214.0,214.0,0,0,1,-50.80654772241131,-207.88144387734647 Z" fill="#2ca02c" fill-opacity="0.9" />
<path d="M-111.62917274235102,-165.94856972224363 A200,200,0,0,0,-152.0705732949817,-129.90204285435854 L-162.71551342563043,-138.99518585416365 A214.0,214.0,0,0,1,-119.4432148343156,-177.5649696028007 Z" fill="#2ca02c" fill-opacity="0.9" />
<path d="M-153.3619686079908,-128.37486741836054 A200,200,0,0,0,-192.91261662972087,-52.77046849398192 L-206.41649979380134,-56.46440128856066 A214.0,214.0,0,0,1,-164.09730641055017,-137.36110813764577 Z" fill="#d62728" fill-opacity="0.9" />
<path d="M-193.4306669691751,-50.838735978189696 A200,200,0,0,0,-199.9961602328182,1.2393111509649395 L-213.99589144911548,1.3260629315324852 A214.0,214.0,0,0,1,-206.97081365701737,-54.39744749666298 Z" fill="#d62728" fill-opacity="0.9" />
<path d="M-199.9737676031792,3.239177455725199 A200,200,0,0,0,-184.74258882873968,76.61707298543338 L-197.67457004675148,81.98026809441372 A214.0,214.0,0,0,1,-213.97193133540176,3.4659198776259634 Z" fill="#d62728" fill-opacity="0.9" />
<path d="M-183.9671938158681,78.46063726171761 A200,200,0,0,0,-140.63566038237255,142.202711045936 L-150.48015660913865,152.15690081915153 A214.0,214.0,0,0,1,-196.84489738297887,83.95288187003784 Z" fill="#d62728" fill-opacity="0.9" />
<path d="M-139.2066252478254,143.60193413429883 A200,200,0,0,0,-82.68748313196583,182.10650766323775 L-88.47560695120345,194.8539631996644 A214.0,214.0,0,0,1,-148.95108901517318,153.65406952369975 Z" fill="#d62728" fill-opacity="0.9" />
<path d="M-80.86231406656276,182.92426346387342 A200,200,0,0,0,-68.42431672959273,187.93113866543877 L-73.21401890066423,201.0863183720195 A214.0,214.0,0,0,1,-86.52267605122216,195.72896190634458 Z" fill="#9467bd" fill-opacity="0.9" />
<path d="M-66.54161547731177,188.60597395011004 A200,200,0,0,0,-48.50751853164793,194.02840164754704 L-51.90304482886329,207.61038976287534 A214.0,214.0,0,0,1,-71.19952856072359,201.80839212661775 Z" fill="#9467bd" fill-opacity="0.9" />
<path d="M-46.56484149736257,194.50376740908 A200,200,0,0,0,24.223619550195142,198.527620889103 L25.919272918708803,212.42455435134022 A214.0,214.0,0,0,1,-49.82438040217796,208.11903112771563 Z" fill="#9467bd" fill-opacity="0.9" />
<path d="M26.207651500430384,198.2754624325259 A200,200,0,0,0,31.746776328819198,197.4642808021945 L33.96905067183654,211.28678045834815 A214.0,214.0,0,0,1,28.042187105460513,212.15474480280272 Z" fill="#8c564b" fill-opacity="0.9" />
<path d="M33.71979890070352,197.13694519824568 A200,200,0,0,0,65.43664283203985,188.9921844280129 L70.01720783028264,202.22163733797382 A214.0,214.0,0,0,1,36.080184823752774,210.9365313621229 Z" fill="#8c564b" fill-opacity="0.9" />
<path d="M67.3232613729036,188.32837937527023 A200,200,0,0,0,117.27078606144723,162.01099572723535 L125.47974108574854,173.35176542814185 A214.0,214.0,0,0,1,72.03588966900686,201.51136593153916 Z" fill="#8c564b" fill-opacity="0.9" />
<path d="M118.88500552658155,160.8302069293722 A200,200,0,0,0,182.16833211441633,82.5511888142849 L194.9201153624255,88.32977203128485 A214.0,214.0,0,0,1,127.20695591344227,172.08832141442826 Z" fill="#e377c2" fill-opacity="0.9" />
<path d="M182.98472190339396,80.72540832933316 A200,200,0,0,0,198.59151472478547,23.694097984842436 L212.49292075552046,25.352684843781407 A214.0,214.0,0,0,1,195.79365243663156,86.37618691238649 Z" fill="#e377c2" fill-opacity="0.9" />
<path d="M198.81852226264726,21.707031240988183 A200,200,0,0,0,199.99000008333306,1.9999666668336944 L213.9893000891664,2.139964333512053 A214.0,214.0,0,0,1,212.73581882103258,23.22652342785736 Z" fill="#e377c2" fill-opacity="0.9" />
<path d="M193.0,-0.0 A193.0,193.0,0,0,0,190.23359015008003,-32.56042350172019 L195.1619215011184,-33.40395778932952 A198.0,198.0,0,0,1,198.0,-0.0 Z" fill="#1f77b4" fill-opacity="0.6" />
<path d="M184.93922140120094,-55.19496704879519 A193.0,193.0,0,0,0,175.35888464624426,-80.61179551173136 L179.90186093241638,-82.70018399649125 A198.0,198.0,0,0,1,189.73039294009214,-56.62488847492978 Z" fill="#1f77b4" fill-opacity="0.6" />
<path d="M160.79551844757677,-106.74175025347394 A193.0,193.0,0,0,0,57.008826112685696,-184.38816053438345 L58.48573870627859,-189.16505588501516 A198.0,198.0,0,0,1,164.96120545399066,-109.50708057092145 Z" fill="#1f77b4" fill-opacity="0.6" />
<path d="M41.17472368001921,-188.5567345121199 A193.0,193.0,0,0,0,41.12461053339161,-188.5676706343822 L42.190014951355124,-193.45284344874446 A198.0,198.0,0,0,1,42.24142636603007,-193.44162400725253 Z" fill="#ff7f0e" fill-opacity="0.6" />
<path d="M14.190272895313505,-192.4776250766736 A193.0,193.0,0,0,0,-37.5554604973042,-189.31082215984227 L-38.52839988842607,-194.21524760439777 A198.0,198.0,0,0,1,14.557896545451161,-197.46409204757188 Z" fill="#2ca02c" fill-opacity="0.6" />
<path d="M-45.82085845993169,-187.4818629361115 A193.0,193.0,0,0,0,-103.83323010038865,-162.6888451213535 L-106.52321015480287,-166.90358204159583 A198.0,198.0,0,0,1,-47.00792733195065,-192.3389060173579 Z" fill="#2ca02c" fill-opacity="0.6" />
<path d="M-107.72215169636874,-160.1403697819651 A193.0,193.0,0,0,0,-137.698380663734,-135.23370867718373 L-141.26569622497064,-138.7371726325512 A198.0,198.0,0,0,1,-110.51288101492752,-164.2890840250212 Z" fill="#2ca02c" fill-opacity="0.6" />
<path d="M-147.99429970671113,-123.8817470587179 A193.0,193.0,0,0,0,-185.7140126176622,-52.52909210567797 L-190.52525646786071,-53.88994941411522 A198.0,198.0,0,0,1,-151.8283489219109,-127.09111874417692 Z" fill="#d62728" fill-opacity="0.6" />
<path d="M-186.66059362525397,-49.05938021895306 A193.0,193.0,0,0,0,-192.28902483629923,-16.55085881472931 L-197.2706057906075,-16.9796375404995 A198.0,198.0,0,0,1,-191.49636029948334,-50.330348618407804 Z" fill="#d62728" fill-opacity="0.6" />
<path d="M-192.97468573706792,3.125806244774817 A193.0,193.0,0,0,0,-191.40006323910276,24.79951193204135 L-196.3586141002194,25.44198633442584 A198.0,198.0,0,0,1,-197.9740299271474,3.2067856811679474 Z" fill="#d62728" fill-opacity="0.6" />
<path d="M-177.5283420323127,75.7145149575575 A193.0,193.0,0,0,0,-137.05453449239727,135.88618242879696 L-140.6051701010086,139.4065498492321 A198.0,198.0,0,0,1,-182.1275218777094,77.67603088910043 Z" fill="#d62728" fill-opacity="0.6" />
<path d="M-134.3343933641515,138.57586643959837 A193.0,193.0,0,0,0,-83.03759429322827,174.22329905610565 L-85.1888273060062,178.7368560264711 A198.0,198.0,0,0,1,-137.81455899534717,142.16591479295585 Z" fill="#d62728" fill-opacity="0.6" />
<path d="M-78.03213307423306,176.52191424263785 A193.0,193.0,0,0,0,-71.733005459424,179.17414971964635 L-73.59137347650753,183.81596706989626 A198.0,198.0,0,0,1,-80.05369092589713,181.09502082923467 Z" fill="#9467bd" fill-opacity="0.6" />
<path d="M-64.21265893560586,182.0047648618562 A193.0,193.0,0,0,0,-48.27800441346358,186.86421350770615 L-49.52872991640305,191.70525530842392 A198.0,198.0,0,0,1,-65.87619932253865,186.71991421060892 Z" fill="#9467bd" fill-opacity="0.6" />
<path d="M-44.93507204495488,187.69613554976223 A193.0,193.0,0,0,0,23.136633769456214,191.6081840053239 L23.736028426696013,196.5721265961354 A198.0,198.0,0,0,1,-46.09919308238894,192.5587297349892 Z" fill="#9467bd" fill-opacity="0.6" />
<path d="M25.29038369791532,191.33582124738749 A193.0,193.0,0,0,0,25.376765993949263,191.3243835680344 L26.034195164776964,196.28097381591093 A198.0,198.0,0,0,1,25.94557498542608,196.29270780820065 Z" fill="#8c564b" fill-opacity="0.6" />
<path d="M32.5396059391789,190.23715211630707 A193.0,193.0,0,0,0,42.2489864704496,188.31893994556089 L43.343519798699596,193.19766895969457 A198.0,198.0,0,0,1,33.382600911696485,195.16557574626322 Z" fill="#8c564b" fill-opacity="0.6" />
<path d="M64.96694722485198,181.73688609713577 A193.0,193.0,0,0,0,109.24064264123943,159.1083969981755 L112.0707111034477,163.2303761950194 A198.0,198.0,0,0,1,66.65002875917456,186.44509558151753 Z" fill="#8c564b" fill-opacity="0.6" />
<path d="M114.72403033315119,155.20114968684416 A193.0,193.0,0,0,0,173.36196302426094,84.82116349340403 L177.8532055896563,87.01860296214507 A198.0,198.0,0,0,1,117.69615547131573,159.22190486007847 Z" fill="#e377c2" fill-opacity="0.6" />
<path d="M176.58025663677518,77.9000190378065 A193.0,193.0,0,0,0,189.57448904797735,36.20100968479075 L194.48574524093016,37.138859676624705 A198.0,198.0,0,0,1,181.15487468436004,79.91815424603983 Z" fill="#e377c2" fill-opacity="0.6" />
<path d="M194.93730821209746,-34.69071730336109 A198.0,198.0,0,0,0,190.28714594681426,-54.72478494627276 C76.11485837872571,-21.889913978509107,23.127536407733608,-75.74798386563802,57.818841019334016,-189.36995966409503 A198.0,198.0,0,0,0,55.88003904509518,-189.9511022245426 C22.352015618038074,-75.98044088981705,77.974923284839,-13.876286921344438,194.93730821209746,-34.69071730336109 Z" fill="#1f77b4" fill-opacity="0.6" />
<path d="M194.93817383015818,-34.685852789906036 A198.0,198.0,0,0,0,194.93730821209746,-34.69071730336109 C77.974923284839,-13.876286921344438,-16.505645957349813,-77.46098147797136,-41.26411489337453,-193.6524536949284 A198.0,198.0,0,0,0,-41.8102899898977,-193.53526720202873 C-16.724115995959078,-77.4141068808115,77.97526953206328,-13.874341115962416,194.93817383015818,-34.685852789906036 Z" fill="#1f77b4" fill-opacity="0.6" />
<path d="M194.9606609175593,-34.55923457758377 A198.0,198.0,0,0,0,194.93817383015818,-34.685852789906036 C77.97526953206328,-13.874341115962416,-76.26386741487951,-21.364983663126914,-190.65966853719877,-53.41245915781728 A198.0,198.0,0,0,0,-190.66020282636873,-53.41055193693414 C-76.2640811305475,-21.364220774773656,77.98426436702373,-13.82369383103351,194.9606609175593,-34.55923457758377 Z" fill="#d62728" fill-opacity="0.6" />
<path d="M195.02762868800227,-34.17929268335895 A198.0,198.0,0,0,0,194.9606609175593,-34.55923457758377 C77.98426436702373,-13.82369383103351,-27.294633628877648,74.34812018514889,-68.23658407219412,185.8703004628722 A198.0,198.0,0,0,0,-67.74875153739593,186.04866746398426 C-27.099500614958373,74.4194669855937,78.01105147520092,-13.671717073343581,195.02762868800227,-34.17929268335895 Z" fill="#1f77b4" fill-opacity="0.6" />
<path d="M195.04978674950786,-34.0526164776146 A198.0,198.0,0,0,0,195.02762868800227,-34.17929268335895 C78.01105147520092,-13.671717073343581,46.346104881867646,64.2236604553098,115.86526220466911,160.5591511382745 A198.0,198.0,0,0,0,115.86647373934083,160.55827684429923 C46.34658949573634,64.2233107377197,78.01991469980315,-13.62104659104584,195.04978674950786,-34.0526164776146 Z" fill="#8c564b" fill-opacity="0.6" />
<path d="M195.05241448193416,-34.03756167482865 A198.0,198.0,0,0,0,195.04978674950786,-34.0526164776146 C78.01991469980315,-13.62104659104584,71.48733612950464,34.09106588399989,178.7183403237616,85.22766470999971 A198.0,198.0,0,0,0,179.87780949032512,82.75248427063865 C71.95112379613005,33.10099370825546,78.02096579277367,-13.615024669931461,195.05241448193416,-34.03756167482865 Z" fill="#1f77b4" fill-opacity="0.6" />
<path d="M195.1619215011184,-33.40395778932952 A198.0,198.0,0,0,0,195.05241448193416,-34.03756167482865 C78.02096579277367,-13.615024669931461,79.19603074468074,0.7929150569795422,197.99007686170182,1.9822876424488556 A198.0,198.0,0,0,0,197.9901000824997,1.9799670001653575 C79.19604003299989,0.7919868000661431,78.06476860044737,-13.361583115731808,195.1619215011184,-33.40395778932952 Z" fill="#e377c2" fill-opacity="0.6" />
<path d="M178.97480025625896,-84.68778467543125 A198.0,198.0,0,0,0,166.04801001707196,-107.85202070137757 C66.41920400682879,-43.14080828055103,23.39429548251144,-75.66602235400607,58.48573870627859,-189.16505588501516 A198.0,198.0,0,0,0,57.818841019334016,-189.36995966409503 C23.127536407733608,-75.74798386563802,71.58992010250358,-33.8751138701725,178.97480025625896,-84.68778467543125 Z" fill="#1f77b4" fill-opacity="0.6" />
<path d="M179.01978020217314,-84.59266100771165 A198.0,198.0,0,0,0,178.97480025625896,-84.68778467543125 C71.58992010250358,-33.8751138701725,7.4981327103716415,-78.84426425465365,18.745331775929102,-197.11066063663412 A198.0,198.0,0,0,0,17.48071443560097,-197.22683545304116 C6.992285774240388,-78.89073418121647,71.60791208086926,-33.83706440308466,179.01978020217314,-84.59266100771165 Z" fill="#1f77b4" fill-opacity="0.6" />
<path d="M179.14701285697538,-84.32287817919108 A198.0,198.0,0,0,0,179.01978020217314,-84.59266100771165 C71.60791208086926,-33.83706440308466,-43.37406583416621,-66.26711411411708,-108.43516458541552,-165.6677852852927 A198.0,198.0,0,0,0,-108.438159331151,-165.66582508433024 C-43.375263732460404,-66.2663300337321,71.65880514279016,-33.729151271676436,179.14701285697538,-84.32287817919108 Z" fill="#2ca02c" fill-opacity="0.6" />
<path d="M179.21047674146072,-84.18791496466919 A198.0,198.0,0,0,0,179.14701285697538,-84.32287817919108 C71.65880514279016,-33.729151271676436,-76.26362299961811,-21.36585610201753,-190.65905749904528,-53.41464025504383 A198.0,198.0,0,0,0,-190.65966853719877,-53.41245915781728 C-76.26386741487951,-21.364983663126914,71.6841906965843,-33.67516598586768,179.21047674146072,-84.18791496466919 Z" fill="#d62728" fill-opacity="0.6" />
<path d="M179.58912358275933,-83.37713529965156 A198.0,198.0,0,0,0,179.21047674146072,-84.18791496466919 C71.6841906965843,-33.67516598586768,-75.37580409399776,24.31312726045892,-188.4395102349944,60.782818151147296 A198.0,198.0,0,0,0,-188.43578804741065,60.7943565057755 C-75.37431521896427,24.3177426023102,71.83564943310374,-33.35085411986062,179.58912358275933,-83.37713529965156 Z" fill="#d62728" fill-opacity="0.6" />
<path d="M179.77707195131356,-82.97110581770156 A198.0,198.0,0,0,0,179.58912358275933,-83.37713529965156 C71.83564943310374,-33.35085411986062,-27.29577941798074,74.34769953377804,-68.23944854495184,185.8692488344451 A198.0,198.0,0,0,0,-68.23658407219412,185.8703004628722 C-27.294633628877648,74.34812018514889,71.91082878052542,-33.18844232708062,179.77707195131356,-82.97110581770156 Z" fill="#9467bd" fill-opacity="0.6" />
<path d="M179.90186093241638,-82.70018399649125 A198.0,198.0,0,0,0,179.77707195131356,-82.97110581770156 C71.91082878052542,-33.18844232708062,79.19602649219354,0.7933396799490735,197.99006623048382,1.9833491998726835 A198.0,198.0,0,0,0,197.99007686170182,1.9822876424488556 C79.19603074468074,0.7929150569795422,71.96074437296656,-33.0800735985965,179.90186093241638,-82.70018399649125 Z" fill="#e377c2" fill-opacity="0.6" />
<path d="M45.51253349273676,-192.6982337622027 A198.0,198.0,0,0,0,44.17369831227536,-193.0095447831948 C17.669479324910146,-77.20381791327793,16.87600598054205,-77.38113737949779,42.190014951355124,-193.45284344874446 A198.0,198.0,0,0,0,34.342959320616,-194.99887472778533 C13.737183728246402,-77.99954989111414,18.205013397094703,-77.0792935048811,45.51253349273676,-192.6982337622027 Z" fill="#1f77b4" fill-opacity="0.6" />
<path d="M46.894245867820494,-192.3666543465587 A198.0,198.0,0,0,0,45.51253349273676,-192.6982337622027 C18.205013397094703,-77.0792935048811,12.728044493168923,-78.17056276745046,31.820111232922304,-195.42640691862616 A198.0,198.0,0,0,0,25.420443382938885,-196.36140419699282 C10.168177353175555,-78.54456167879714,18.757698347128198,-76.94666173862349,46.894245867820494,-192.3666543465587 Z" fill="#1f77b4" fill-opacity="0.6" />
<path d="M47.8627477129716,-192.12797136639017 A198.0,198.0,0,0,0,46.894245867820494,-192.3666543465587 C18.757698347128198,-76.94666173862349,9.320081694076292,-78.6497048768509,23.30020423519073,-196.62426219212725 A198.0,198.0,0,0,0,18.745331775929102,-197.11066063663412 C7.4981327103716415,-78.84426425465365,19.14509908518864,-76.85118854655607,47.8627477129716,-192.12797136639017 Z" fill="#1f77b4" fill-opacity="0.6" />
<path d="M47.9266327606928,-192.11204509926412 A198.0,198.0,0,0,0,47.8627477129716,-192.12797136639017 C19.14509908518864,-76.85118854655607,-15.411359955370429,-77.68609904175912,-38.52839988842607,-194.21524760439777 A198.0,198.0,0,0,0,-41.26411489337453,-193.6524536949284 C-16.505645957349813,-77.46098147797136,19.170653104277118,-76.84481803970566,47.9266327606928,-192.11204509926412 Z" fill="#1f77b4" fill-opacity="0.6" />
<path d="M47.97482488562981,-192.10001607806583 A198.0,198.0,0,0,0,47.9266327606928,-192.11204509926412 C19.170653104277118,-76.84481803970566,-42.61219671179998,-66.75957378080588,-106.53049177949994,-166.8989344520147 A198.0,198.0,0,0,0,-108.43516458541552,-165.6677852852927 C-43.37406583416621,-66.26711411411708,19.189929954251923,-76.84000643122634,47.97482488562981,-192.10001607806583 Z" fill="#1f77b4" fill-opacity="0.6" />
<path d="M48.29261132488205,-192.02037311552093 A198.0,198.0,0,0,0,47.97482488562981,-192.10001607806583 C19.189929954251923,-76.84000643122634,-56.55970670756642,-55.44041465532222,-141.39926676891605,-138.60103663830554 A198.0,198.0,0,0,0,-150.043532374213,-129.19341466448085 C-60.017412949685195,-51.677365865792346,19.317044529952824,-76.80814924620837,48.29261132488205,-192.02037311552093 Z" fill="#1f77b4" fill-opacity="0.6" />
<path d="M48.30061031418674,-192.0183612139138 A198.0,198.0,0,0,0,48.29261132488205,-192.02037311552093 C19.317044529952824,-76.80814924620837,-76.21196636737885,-21.549389374585903,-190.52991591844713,-53.87347343646476 A198.0,198.0,0,0,0,-190.65905749904528,-53.41464025504383 C-76.26362299961811,-21.36585610201753,19.320244125674698,-76.80734448556552,48.30061031418674,-192.0183612139138 Z" fill="#1f77b4" fill-opacity="0.6" />
<path d="M48.31505272146377,-192.01472776983067 A198.0,198.0,0,0,0,48.30061031418674,-192.0183612139138 C19.320244125674698,-76.80734448556552,-56.02814749978185,55.97755521405601,-140.07036874945462,139.94388803514002 A198.0,198.0,0,0,0,-139.46522573439157,140.54697012335487 C-55.78609029375663,56.21878804934195,19.32602108858551,-76.80589110793227,48.31505272146377,-192.01472776983067 Z" fill="#1f77b4" fill-opacity="0.6" />
<path d="M55.15264371558787,-190.16357666803972 A198.0,198.0,0,0,0,48.31505272146377,-192.01472776983067 C19.32602108858551,-76.80589110793227,-27.880042726141955,74.13058220187199,-69.70010681535489,185.32645550467996 A198.0,198.0,0,0,0,-68.23944854495184,185.8692488344451 C-27.29577941798074,74.34769953377804,22.06105748623515,-76.06543066721589,55.15264371558787,-190.16357666803972 Z" fill="#9467bd" fill-opacity="0.6" />
<path d="M55.15663746013498,-190.16241832731103 A198.0,198.0,0,0,0,55.15264371558787,-190.16357666803972 C22.06105748623515,-76.06543066721589,9.50617627268344,78.62742913686465,23.7654406817086,196.56857284216161 A198.0,198.0,0,0,0,23.961527301680665,196.54476642579627 C9.584610920672267,78.61790657031851,22.062654984053992,-76.06496733092442,55.15663746013498,-190.16241832731103 Z" fill="#1f77b4" fill-opacity="0.6" />
<path d="M55.17120030232321,-190.15819376824373 A198.0,198.0,0,0,0,55.15663746013498,-190.16241832731103 C22.062654984053992,-76.06496733092442,12.501110107204076,78.20717515731891,31.252775268010186,195.51793789329727 A198.0,198.0,0,0,0,31.34104511100171,195.50380786918234 C12.536418044400683,78.20152314767294,22.068480120929284,-76.0632775072975,55.17120030232321,-190.15819376824373 Z" fill="#1f77b4" fill-opacity="0.6" />
<path d="M55.19457889115602,-190.15140930592113 A198.0,198.0,0,0,0,55.17120030232321,-190.15819376824373 C22.068480120929284,-76.0632775072975,24.326787658705598,75.37139644592138,60.816969146763995,188.42849111480345 A198.0,198.0,0,0,0,61.385143433206345,188.24416104008296 C24.55405737328254,75.29766441603319,22.07783155646241,-76.06056372236846,55.19457889115602,-190.15140930592113 Z" fill="#1f77b4" fill-opacity="0.6" />
<path d="M55.21692973343432,-190.14492018145785 A198.0,198.0,0,0,0,55.19457889115602,-190.15140930592113 C22.07783155646241,-76.06056372236846,71.21619240688456,34.65391664827511,178.0404810172114,86.63479162068776 A198.0,198.0,0,0,0,178.7183403237616,85.22766470999971 C71.48733612950464,34.09106588399989,22.08677189337373,-76.05796807258314,55.21692973343432,-190.14492018145785 Z" fill="#1f77b4" fill-opacity="0.6" />
<path d="M55.23246408282921,-190.14040841267533 A198.0,198.0,0,0,0,55.21692973343432,-190.14492018145785 C22.08677189337373,-76.05796807258314,78.61088326226475,9.642045048981254,196.52720815566187,24.105112622453134 A198.0,198.0,0,0,0,196.60559957753762,23.457157004994013 C78.64223983101505,9.382862801997605,22.092985633131686,-76.05616336507013,55.23246408282921,-190.14040841267533 Z" fill="#1f77b4" fill-opacity="0.6" />
<path d="M55.88003904509518,-189.9511022245426 A198.0,198.0,0,0,0,55.23246408282921,-190.14040841267533 C22.092985633131686,-76.05616336507013,79.19489820107837,0.8989432244774771,197.9872455026959,2.2473580611936925 A198.0,198.0,0,0,0,197.99006623048382,1.9833491998726835 C79.19602649219354,0.7933396799490735,22.352015618038074,-75.98044088981705,55.88003904509518,-189.9511022245426 Z" fill="#1f77b4" fill-opacity="0.6" />
<path d="M33.82460079199914,-195.08945738112524 A198.0,198.0,0,0,0,33.77275173890029,-195.09843987070374 C13.509100695560116,-78.0393759482815,-42.6108045119137,-66.76046239240316,-106.52701127978423,-166.9011559810079 A198.0,198.0,0,0,0,-106.53049177949994,-166.8989344520147 C-42.61219671179998,-66.75957378080588,13.529840316799657,-78.0357829524501,33.82460079199914,-195.08945738112524 Z" fill="#2ca02c" fill-opacity="0.6" />
<path d="M33.87644745603973,-195.0804611122246 A198.0,198.0,0,0,0,33.82460079199914,-195.08945738112524 C13.529840316799657,-78.0357829524501,-27.88092134758485,74.13025175196553,-69.70230336896212,185.3256293799138 A198.0,198.0,0,0,0,-69.70010681535489,185.32645550467996 C-27.880042726141955,74.13058220187199,13.550578982415892,-78.03218444488985,33.87644745603973,-195.0804611122246 Z" fill="#9467bd" fill-opacity="0.6" />
<path d="M33.980133602298565,-195.06242723899942 A198.0,198.0,0,0,0,33.87644745603973,-195.0804611122246 C13.550578982415892,-78.03218444488985,9.502764622737335,78.62784153545647,23.756911556843335,196.56960383864114 A198.0,198.0,0,0,0,23.7654406817086,196.56857284216161 C9.50617627268344,78.62742913686465,13.592053440919427,-78.02497089559978,33.980133602298565,-195.06242723899942 Z" fill="#9467bd" fill-opacity="0.6" />
<path d="M34.031973077193385,-195.0533896359486 A198.0,198.0,0,0,0,33.980133602298565,-195.06242723899942 C13.592053440919427,-78.02497089559978,46.34482618923367,64.22458318657834,115.86206547308417,160.56145796644586 A198.0,198.0,0,0,0,115.86526220466911,160.5591511382745 C46.346104881867646,64.2236604553098,13.612789230877354,-78.02135585437945,34.031973077193385,-195.0533896359486 Z" fill="#8c564b" fill-opacity="0.6" />
<path d="M34.18747706500224,-195.02619416870635 A198.0,198.0,0,0,0,34.031973077193385,-195.0533896359486 C13.612789230877354,-78.02135585437945,78.61035009468321,9.646390930878743,196.52587523670803,24.115977327196855 A198.0,198.0,0,0,0,196.52720815566187,24.105112622453134 C78.61088326226475,9.642045048981254,13.674990826000897,-78.01047766748255,34.18747706500224,-195.02619416870635 Z" fill="#e377c2" fill-opacity="0.6" />
<path d="M34.342959320616,-194.99887472778533 A198.0,198.0,0,0,0,34.18747706500224,-195.02619416870635 C13.674990826000897,-78.01047766748255,79.19488150674351,0.9004127569370166,197.98720376685878,2.2510318923425414 A198.0,198.0,0,0,0,197.9872455026959,2.2473580611936925 C79.19489820107837,0.8989432244774771,13.737183728246402,-77.99954989111414,34.342959320616,-194.99887472778533 Z" fill="#e377c2" fill-opacity="0.6" />
<path d="M25.316982276521067,-196.37477029499058 A198.0,198.0,0,0,0,25.265249086062116,-196.3814329019402 C10.106099634424847,-78.55257316077609,9.500603033741456,78.62810274955935,23.75150758435364,196.57025687389836 A198.0,198.0,0,0,0,23.756911556843335,196.56960383864114 C9.502764622737335,78.62784153545647,10.126792910608428,-78.54990811799624,25.316982276521067,-196.37477029499058 Z" fill="#9467bd" fill-opacity="0.6" />
<path d="M25.420443382938885,-196.36140419699282 A198.0,198.0,0,0,0,25.316982276521067,-196.37477029499058 C10.126792910608428,-78.54990811799624,79.1948673823931,0.9016541937859899,197.98716845598273,2.2541354844649746 A198.0,198.0,0,0,0,197.98720376685878,2.2510318923425414 C79.19488150674351,0.9004127569370166,10.168177353175555,-78.54456167879714,25.420443382938885,-196.36140419699282 Z" fill="#e377c2" fill-opacity="0.6" />
<path d="M16.576973027813455,-197.30485033377954 A198.0,198.0,0,0,0,16.53177666664792,-197.30864238609539 C6.612710666659169,-78.92345695443817,-42.60928406192115,-66.76143281663833,-106.52321015480287,-166.90358204159583 A198.0,198.0,0,0,0,-106.52701127978423,-166.9011559810079 C-42.6108045119137,-66.76046239240316,6.630789211125382,-78.92194013351182,16.576973027813455,-197.30485033377954 Z" fill="#2ca02c" fill-opacity="0.6" />
<path d="M16.712556882917255,-197.29341206040118 A198.0,198.0,0,0,0,16.576973027813455,-197.30485033377954 C6.630789211125382,-78.92194013351182,-76.21010258714429,-21.55597976564609,-190.52525646786071,-53.88994941411522 A198.0,198.0,0,0,0,-190.52991591844713,-53.87347343646476 C-76.21196636737885,-21.549389374585903,6.685022753166902,-78.91736482416047,16.712556882917255,-197.29341206040118 Z" fill="#d62728" fill-opacity="0.6" />
<path d="M17.345176150521382,-197.23880161952766 A198.0,198.0,0,0,0,16.712556882917255,-197.29341206040118 C6.685022753166902,-78.91736482416047,-56.0505677499183,55.955105709057676,-140.12641937479574,139.88776427264418 A198.0,198.0,0,0,0,-140.07036874945462,139.94388803514002 C-56.02814749978185,55.97755521405601,6.938070460208554,-78.89552064781107,17.345176150521382,-197.23880161952766 Z" fill="#d62728" fill-opacity="0.6" />
<path d="M17.390356492168692,-197.23482324649288 A198.0,198.0,0,0,0,17.345176150521382,-197.23880161952766 C6.938070460208554,-78.89552064781107,9.498740079569606,78.62832782719455,23.746850198924015,196.57081956798638 A198.0,198.0,0,0,0,23.75150758435364,196.57025687389836 C9.500603033741456,78.62810274955935,6.956142596867477,-78.89392929859716,17.390356492168692,-197.23482324649288 Z" fill="#9467bd" fill-opacity="0.6" />
<path d="M17.435535921318735,-197.23083452426093 A198.0,198.0,0,0,0,17.390356492168692,-197.23482324649288 C6.956142596867477,-78.89392929859716,46.343429701290916,64.22559087716911,115.85857425322727,160.56397719292278 A198.0,198.0,0,0,0,115.86206547308417,160.56145796644586 C46.34482618923367,64.22458318657834,6.974214368527495,-78.89233380970438,17.435535921318735,-197.23083452426093 Z" fill="#8c564b" fill-opacity="0.6" />
<path d="M17.48071443560097,-197.22683545304116 A198.0,198.0,0,0,0,17.435535921318735,-197.23083452426093 C6.974214368527495,-78.89233380970438,79.19486128991336,0.9021891549914147,197.98715322478338,2.2554728874785366 A198.0,198.0,0,0,0,197.98716845598273,2.2541354844649746 C79.1948673823931,0.9016541937859899,6.992285774240388,-78.89073418121647,17.48071443560097,-197.22683545304116 Z" fill="#e377c2" fill-opacity="0.6" />
<path d="M-45.08020013153173,-192.7998328736336 A198.0,198.0,0,0,0,-45.08221995132109,-192.79936059090213 C-18.03288798052844,-77.11974423636086,-56.50627848998826,-55.49486905302048,-141.26569622497064,-138.7371726325512 A198.0,198.0,0,0,0,-141.39926676891605,-138.60103663830554 C-56.55970670756642,-55.44041465532222,-18.032080052612695,-77.11993314945344,-45.08020013153173,-192.7998328736336 Z" fill="#2ca02c" fill-opacity="0.6" />
<path d="M-42.901637485209434,-193.29627389343975 A198.0,198.0,0,0,0,-45.08020013153173,-192.7998328736336 C-18.032080052612695,-77.11993314945344,-27.886038854281498,74.12832681922278,-69.71509713570374,185.32081704805694 A198.0,198.0,0,0,0,-69.70230336896212,185.3256293799138 C-27.88092134758485,74.13025175196553,-17.160654994083774,-77.3185095573759,-42.901637485209434,-193.29627389343975 Z" fill="#9467bd" fill-opacity="0.6" />
<path d="M-42.35613230203318,-193.4165402865346 A198.0,198.0,0,0,0,-42.901637485209434,-193.29627389343975 C-17.160654994083774,-77.3185095573759,9.496256132379365,78.62862786204684,23.740640330948413,196.5715696551171 A198.0,198.0,0,0,0,23.746850198924015,196.57081956798638 C9.498740079569606,78.62832782719455,-16.942452920813274,-77.36661611461385,-42.35613230203318,-193.4165402865346 Z" fill="#9467bd" fill-opacity="0.6" />
<path d="M-41.8102899898977,-193.53526720202873 A198.0,198.0,0,0,0,-42.35613230203318,-193.4165402865346 C-16.942452920813274,-77.36661611461385,79.19485316098579,0.9029024365345825,197.98713290246445,2.257256091336456 A198.0,198.0,0,0,0,197.98715322478338,2.2554728874785366 C79.19486128991336,0.9021891549914147,-16.724115995959078,-77.4141068808115,-41.8102899898977,-193.53526720202873 Z" fill="#e377c2" fill-opacity="0.6" />
<path d="M-108.44316793150759,-165.66254654863556 A198.0,198.0,0,0,0,-108.86449195805058,-165.38598003070135 C-43.54579678322023,-66.15439201228054,-27.887111256121813,74.12792338780768,-69.71777814030453,185.3198084695192 A198.0,198.0,0,0,0,-69.71509713570374,185.32081704805694 C-27.886038854281498,74.12832681922278,-43.37726717260304,-66.26501861945422,-108.44316793150759,-165.66254654863556 Z" fill="#9467bd" fill-opacity="0.6" />
<path d="M-108.438159331151,-165.66582508433024 A198.0,198.0,0,0,0,-108.44316793150759,-165.66254654863556 C-43.37726717260304,-66.26501861945422,46.157850142433965,64.359093143305,115.3946253560849,160.89773285826251 A198.0,198.0,0,0,0,115.85857425322727,160.56397719292278 C46.343429701290916,64.22559087716911,-43.375263732460404,-66.2663300337321,-108.438159331151,-165.66582508433024 Z" fill="#2ca02c" fill-opacity="0.6" />
<path d="M-150.54019042085343,-128.6143501637869 A198.0,198.0,0,0,0,-150.5498675620319,-128.60302242581494 C-60.21994702481276,-51.44120897032598,-78.9278577956289,-6.559974374415055,-197.31964448907223,-16.399935936037636 A198.0,198.0,0,0,0,-197.4347874719905,-14.950073440954933 C-78.9739149887962,-5.980029376381974,-60.216076168341374,-51.44574006551476,-150.54019042085343,-128.6143501637869 Z" fill="#2ca02c" fill-opacity="0.6" />
<path d="M-150.2921402843786,-128.9041216126958 A198.0,198.0,0,0,0,-150.54019042085343,-128.6143501637869 C-60.216076168341374,-51.44574006551476,9.494411370678405,78.62885063845417,23.736028426696013,196.5721265961354 A198.0,198.0,0,0,0,23.740640330948413,196.5715696551171 C9.496256132379365,78.62862786204684,-60.116856113751446,-51.56164864507832,-150.2921402843786,-128.9041216126958 Z" fill="#9467bd" fill-opacity="0.6" />
<path d="M-150.043532374213,-129.19341466448085 A198.0,198.0,0,0,0,-150.2921402843786,-128.9041216126958 C-60.116856113751446,-51.56164864507832,79.19484711970969,0.9034321700111785,197.98711779927422,2.258580425027946 A198.0,198.0,0,0,0,197.98713290246445,2.257256091336456 C79.19485316098579,0.9029024365345825,-60.017412949685195,-51.677365865792346,-150.043532374213,-129.19341466448085 Z" fill="#e377c2" fill-opacity="0.6" />
<path d="M-190.98116052391447,-52.25128060573075 A198.0,198.0,0,0,0,-190.98349046342366,-52.24276380904211 C-76.39339618536947,-20.897105523616844,-78.908242316243,-6.791855016199801,-197.2706057906075,-16.9796375404995 A198.0,198.0,0,0,0,-197.31964448907223,-16.399935936037636 C-78.9278577956289,-6.559974374415055,-76.39246420956579,-20.9005122422923,-190.98116052391447,-52.25128060573075 Z" fill="#d62728" fill-opacity="0.6" />
<path d="M-190.87404056272334,-52.64124465910586 A198.0,198.0,0,0,0,-190.98116052391447,-52.25128060573075 C-76.39246420956579,-20.9005122422923,-78.53359129766866,10.252562503625233,-196.33397824417165,25.63140625906308 A198.0,198.0,0,0,0,-188.4395102349944,60.782818151147296 C-75.37580409399776,24.31312726045892,-76.34961622508933,-21.056497863642345,-190.87404056272334,-52.64124465910586 Z" fill="#d62728" fill-opacity="0.6" />
<path d="M-190.87266761796582,-52.64622262234534 A198.0,198.0,0,0,0,-190.87404056272334,-52.64124465910586 C-76.34961622508933,-21.056497863642345,-56.19524345843952,55.80980749515905,-140.4881086460988,139.5245187378976 A198.0,198.0,0,0,0,-140.12641937479574,139.88776427264418 C-56.0505677499183,55.955105709057676,-76.34906704718632,-21.05848904893814,-190.87266761796582,-52.64622262234534 Z" fill="#d62728" fill-opacity="0.6" />
<path d="M-190.86230468822532,-52.68377975334571 A198.0,198.0,0,0,0,-190.87266761796582,-52.64622262234534 C-76.34906704718632,-21.05848904893814,-33.91396827708153,71.571521960212,-84.78492069270382,178.92880490053 A198.0,198.0,0,0,0,-81.9134706853419,180.26143048439852 C-32.76538827413676,72.10457219375941,-76.34492187529013,-21.073511901338286,-190.86230468822532,-52.68377975334571 Z" fill="#d62728" fill-opacity="0.6" />
<path d="M-190.85818213657967,-52.69871261729435 A198.0,198.0,0,0,0,-190.86230468822532,-52.68377975334571 C-76.34492187529013,-21.073511901338286,-19.66097629654153,76.720831663029,-49.15244074135382,191.8020791575725 A198.0,198.0,0,0,0,-48.39929600619742,191.99351068748257 C-19.35971840247897,76.79740427499303,-76.34327285463188,-21.07948504691774,-190.85818213657967,-52.69871261729435 Z" fill="#d62728" fill-opacity="0.6" />
<path d="M-190.85584967082133,-52.70715934698863 A198.0,198.0,0,0,0,-190.85818213657967,-52.69871261729435 C-76.34327285463188,-21.07948504691774,12.465799621819635,78.21281122545489,31.164499054549086,195.5320280636372 A198.0,198.0,0,0,0,31.252775268010186,195.51793789329727 C12.501110107204076,78.20717515731891,-76.34233986832854,-21.082863738795453,-190.85584967082133,-52.70715934698863 Z" fill="#d62728" fill-opacity="0.6" />
<path d="M-190.85282403833335,-52.71811412212096 A198.0,198.0,0,0,0,-190.85584967082133,-52.70715934698863 C-76.34233986832854,-21.082863738795453,45.878760201122844,64.55834076560414,114.69690050280711,161.39585191401036 A198.0,198.0,0,0,0,115.3946253560849,160.89773285826251 C46.157850142433965,64.359093143305,-76.34112961533334,-21.087245648848384,-190.85282403833335,-52.71811412212096 Z" fill="#d62728" fill-opacity="0.6" />
<path d="M-190.66121147546414,-53.40695122086953 A198.0,198.0,0,0,0,-190.85282403833335,-52.71811412212096 C-76.34112961533334,-21.087245648848384,71.14771339188466,34.79429377220116,177.86928347971164,86.98573443050289 A198.0,198.0,0,0,0,178.0404810172114,86.63479162068776 C71.21619240688456,34.65391664827511,-76.26448459018566,-21.362780488347813,-190.66121147546414,-53.40695122086953 Z" fill="#e377c2" fill-opacity="0.6" />
<path d="M-190.66020282636873,-53.41055193693414 A198.0,198.0,0,0,0,-190.66121147546414,-53.40695122086953 C-76.26448459018566,-21.362780488347813,78.59756254538685,9.75003394476159,196.49390636346712,24.375084861903975 A198.0,198.0,0,0,0,196.52587523670803,24.115977327196855 C78.61035009468321,9.646390930878743,-76.2640811305475,-21.364220774773656,-190.66020282636873,-53.41055193693414 Z" fill="#d62728" fill-opacity="0.6" />
<path d="M-197.5811540689,-12.871967868263308 A198.0,198.0,0,0,0,-197.99619863049003,1.22691803945529 C-79.19847945219601,0.4907672157821161,-78.54344564008777,10.176794533770337,-196.3586141002194,25.44198633442584 A198.0,198.0,0,0,0,-196.33397824417165,25.63140625906308 C-78.53359129766866,10.252562503625233,-79.03246162756,-5.148787147305324,-197.5811540689,-12.871967868263308 Z" fill="#d62728" fill-opacity="0.6" />
<path d="M-197.43833520439443,-14.903147040715416 A198.0,198.0,0,0,0,-197.5811540689,-12.871967868263308 C-79.03246162756,-5.148787147305324,-33.92304471365515,71.56722041099091,-84.80761178413788,178.91805102747728 A198.0,198.0,0,0,0,-84.78492069270382,178.92880490053 C-33.91396827708153,71.571521960212,-78.97533408175778,-5.961258816286167,-197.43833520439443,-14.903147040715416 Z" fill="#d62728" fill-opacity="0.6" />
<path d="M-197.4355410766958,-14.940117795799292 A198.0,198.0,0,0,0,-197.43833520439443,-14.903147040715416 C-78.97533408175778,-5.961258816286167,23.41551550884055,75.65945832118578,58.53878877210137,189.14864580296444 A198.0,198.0,0,0,0,60.816969146763995,188.42849111480345 C24.326787658705598,75.37139644592138,-78.97421643067833,-5.976047118319717,-197.4355410766958,-14.940117795799292 Z" fill="#d62728" fill-opacity="0.6" />
<path d="M-197.4347874719905,-14.950073440954933 A198.0,198.0,0,0,0,-197.4355410766958,-14.940117795799292 C-78.97421643067833,-5.976047118319717,45.505303296573594,64.82212100731392,113.76325824143397,162.0553025182848 A198.0,198.0,0,0,0,114.69690050280711,161.39585191401036 C45.878760201122844,64.55834076560414,-78.9739149887962,-5.980029376381974,-197.4347874719905,-14.950073440954933 Z" fill="#d62728" fill-opacity="0.6" />
<path d="M-188.09108385445307,61.85260038557068 A198.0,198.0,0,0,0,-182.89516294045228,75.85090225557904 C-73.15806517618091,30.34036090223162,-56.242068040403446,55.76261993969285,-140.6051701010086,139.4065498492321 A198.0,198.0,0,0,0,-140.4881086460988,139.5245187378976 C-56.19524345843952,55.80980749515905,-75.23643354178124,24.741040154228273,-188.09108385445307,61.85260038557068 Z" fill="#d62728" fill-opacity="0.6" />
<path d="M-188.11524533279731,61.779077958330554 A198.0,198.0,0,0,0,-188.09108385445307,61.85260038557068 C-75.23643354178124,24.741040154228273,-29.340082273566004,73.56493439255131,-73.35020568391501,183.91233598137828 A198.0,198.0,0,0,0,-69.71777814030453,185.3198084695192 C-27.887111256121813,74.12792338780768,-75.24609813311893,24.711631183332223,-188.11524533279731,61.779077958330554 Z" fill="#d62728" fill-opacity="0.6" />
<path d="M-188.2513751549438,61.363016160164534 A198.0,198.0,0,0,0,-188.11524533279731,61.779077958330554 C-75.24609813311893,24.711631183332223,10.484567834089916,78.50295432232069,26.21141958522479,196.2573858058017 A198.0,198.0,0,0,0,31.164499054549086,195.5320280636372 C12.465799621819635,78.21281122545489,-75.30055006197752,24.545206464065814,-188.2513751549438,61.363016160164534 Z" fill="#d62728" fill-opacity="0.6" />
<path d="M-188.25526415300723,61.3510840872553 A198.0,198.0,0,0,0,-188.2513751549438,61.363016160164534 C-75.30055006197752,24.545206464065814,23.187159515470157,75.72975395182624,57.96789878867539,189.3243848795656 A198.0,198.0,0,0,0,58.53878877210137,189.14864580296444 C23.41551550884055,75.65945832118578,-75.3021056612029,24.540433634902122,-188.25526415300723,61.3510840872553 Z" fill="#d62728" fill-opacity="0.6" />
<path d="M-188.25631127942034,61.3478708959487 A198.0,198.0,0,0,0,-188.25526415300723,61.3510840872553 C-75.3021056612029,24.540433634902122,45.411701619339176,64.88772885558646,113.52925404834794,162.21932213896613 A198.0,198.0,0,0,0,113.76325824143397,162.0553025182848 C45.505303296573594,64.82212100731392,-75.30252451176814,24.53914835837948,-188.25631127942034,61.3478708959487 Z" fill="#d62728" fill-opacity="0.6" />
<path d="M-188.43578804741065,60.7943565057755 A198.0,198.0,0,0,0,-188.25631127942034,61.3478708959487 C-75.30252451176814,24.53914835837948,71.14638226523711,34.79701554111724,177.86595566309276,86.99253885279309 A198.0,198.0,0,0,0,177.86928347971164,86.98573443050289 C71.14771339188466,34.79429377220116,-75.37431521896427,24.3177426023102,-188.43578804741065,60.7943565057755 Z" fill="#e377c2" fill-opacity="0.6" />
<path d="M-139.23297026575517,140.777057757915 A198.0,198.0,0,0,0,-139.22930377854883,140.78068393547665 C-55.69172151141953,56.31227357419066,-34.075530922402486,71.49474241058844,-85.1888273060062,178.7368560264711 A198.0,198.0,0,0,0,-84.80761178413788,178.91805102747728 C-33.92304471365515,71.56722041099091,-55.693188106302074,56.310823103166,-139.23297026575517,140.777057757915 Z" fill="#d62728" fill-opacity="0.6" />
<path d="M-139.4545476946328,140.55756517272698 A198.0,198.0,0,0,0,-139.23297026575517,140.777057757915 C-55.693188106302074,56.310823103166,18.036095814228315,77.11899407915001,45.09023953557079,192.79748519787503 A198.0,198.0,0,0,0,57.96789878867539,189.3243848795656 C23.187159515470157,75.72975395182624,-55.78181907785312,56.22302606909079,-139.4545476946328,140.55756517272698 Z" fill="#d62728" fill-opacity="0.6" />
<path d="M-139.46522573439157,140.54697012335487 A198.0,198.0,0,0,0,-139.4545476946328,140.55756517272698 C-55.78181907785312,56.22302606909079,45.03635095506095,65.14880730030735,112.59087738765238,162.87201825076838 A198.0,198.0,0,0,0,113.52925404834794,162.21932213896613 C45.411701619339176,64.88772885558646,-55.78609029375663,56.21878804934195,-139.46522573439157,140.54697012335487 Z" fill="#d62728" fill-opacity="0.6" />
<path d="M-81.864887078615,180.2834996986846 A198.0,198.0,0,0,0,-81.86060830064618,180.28544258660537 C-32.74424332025847,72.11417703464215,-29.436549390603012,73.5263868279585,-73.59137347650753,183.81596706989626 A198.0,198.0,0,0,0,-73.35020568391501,183.91233598137828 C-29.340082273566004,73.56493439255131,-32.745954831446,72.11339987947385,-81.864887078615,180.2834996986846 Z" fill="#d62728" fill-opacity="0.6" />
<path d="M-81.87061751258788,180.28089745757185 A198.0,198.0,0,0,0,-81.864887078615,180.2834996986846 C-32.745954831446,72.11339987947385,-19.81149196656122,76.68210212336957,-49.52872991640305,191.70525530842392 A198.0,198.0,0,0,0,-49.15244074135382,191.8020791575725 C-19.66097629654153,76.720831663029,-32.748247005035154,72.11235898302874,-81.87061751258788,180.28089745757185 Z" fill="#d62728" fill-opacity="0.6" />
<path d="M-81.88358303766759,180.2750088861831 A198.0,198.0,0,0,0,-81.87061751258788,180.28089745757185 C-32.748247005035154,72.11235898302874,10.413678065910787,78.51238952636437,26.034195164776964,196.28097381591093 A198.0,198.0,0,0,0,26.21141958522479,196.2573858058017 C10.484567834089916,78.50295432232069,-32.75343321506704,72.11000355447324,-81.88358303766759,180.2750088861831 Z" fill="#d62728" fill-opacity="0.6" />
<path d="M-81.90786597614235,180.2639772423606 A198.0,198.0,0,0,0,-81.88358303766759,180.2750088861831 C-32.75343321506704,72.11000355447324,17.49279663730268,77.24404226738767,43.731991593256694,193.11010566846915 A198.0,198.0,0,0,0,45.09023953557079,192.79748519787503 C18.036095814228315,77.11899407915001,-32.76314639045694,72.10559089694424,-81.90786597614235,180.2639772423606 Z" fill="#d62728" fill-opacity="0.6" />
<path d="M-81.9134706853419,180.26143048439852 A198.0,198.0,0,0,0,-81.90786597614235,180.2639772423606 C-32.76314639045694,72.10559089694424,44.84811198684634,65.2785328512773,112.12027996711585,163.19633212819326 A198.0,198.0,0,0,0,112.59087738765238,162.87201825076838 C45.03635095506095,65.14880730030735,-32.76538827413676,72.10457219375941,-81.9134706853419,180.26143048439852 Z" fill="#d62728" fill-opacity="0.6" />
<path d="M-67.74875153739593,186.04866746398426 A198.0,198.0,0,0,0,-67.7400735622968,186.0518272787844 C-27.096029424918722,74.42073091151376,78.5247890669242,10.319762690830807,196.31197266731047,25.799406727077013 A198.0,198.0,0,0,0,196.49390636346712,24.375084861903975 C78.59756254538685,9.75003394476159,-27.099500614958373,74.4194669855937,-67.74875153739593,186.04866746398426 Z" fill="#9467bd" fill-opacity="0.6" />
<path d="M-48.39929600619742,191.99351068748257 A198.0,198.0,0,0,0,-48.02244334633145,192.08811763107158 C-19.20897733853258,76.83524705242864,71.14480141710698,34.80024757556205,177.86200354276744,87.00061893890512 A198.0,198.0,0,0,0,177.86595566309276,86.99253885279309 C71.14638226523711,34.79701554111724,-19.35971840247897,76.79740427499303,-48.39929600619742,191.99351068748257 Z" fill="#e377c2" fill-opacity="0.6" />
<path d="M23.97373121706014,196.54327821508463 A198.0,198.0,0,0,0,23.98138335469319,196.54234468021195 C9.592553341877275,78.61693787208479,17.33740791947984,77.27906758387783,43.343519798699596,193.19766895969457 A198.0,198.0,0,0,0,43.731991593256694,193.11010566846915 C17.49279663730268,77.24404226738767,9.589492486824057,78.61731128603385,23.97373121706014,196.54327821508463 Z" fill="#9467bd" fill-opacity="0.6" />
<path d="M23.961527301680665,196.54476642579627 A198.0,198.0,0,0,0,23.97373121706014,196.54327821508463 C9.589492486824057,78.61731128603385,78.46926879541543,10.733771690922165,196.17317198853857,26.83442922730541 A198.0,198.0,0,0,0,196.31197266731047,25.799406727077013 C78.5247890669242,10.319762690830807,9.584610920672267,78.61790657031851,23.961527301680665,196.54476642579627 Z" fill="#9467bd" fill-opacity="0.6" />
<path d="M31.34104511100171,195.50380786918234 A198.0,198.0,0,0,0,31.429308565531006,195.48963799417257 C12.571723426212403,78.19585519766903,71.14301280584837,34.80390393198578,177.85753201462092,87.00975982996445 A198.0,198.0,0,0,0,177.86200354276744,87.00061893890512 C71.14480141710698,34.80024757556205,12.536418044400683,78.20152314767294,31.34104511100171,195.50380786918234 Z" fill="#e377c2" fill-opacity="0.6" />
<path d="M61.574410967801654,188.1823368809312 A198.0,198.0,0,0,0,64.78227640371945,187.1022625837328 C25.91291056148778,74.84090503349312,44.82828444137908,65.29215047800777,112.0707111034477,163.2303761950194 A198.0,198.0,0,0,0,112.12027996711585,163.19633212819326 C44.84811198684634,65.2785328512773,24.629764387120662,75.27293475237248,61.574410967801654,188.1823368809312 Z" fill="#8c564b" fill-opacity="0.6" />
<path d="M61.385143433206345,188.24416104008296 A198.0,198.0,0,0,0,61.574410967801654,188.1823368809312 C24.629764387120662,75.27293475237248,71.1420555799353,34.805860539015505,177.85513894983825,87.01465134753876 A198.0,198.0,0,0,0,177.85753201462092,87.00975982996445 C71.14301280584837,34.80390393198578,24.55405737328254,75.29766441603319,61.385143433206345,188.24416104008296 Z" fill="#e377c2" fill-opacity="0.6" />
<path d="M115.86647373934083,160.55827684429923 A198.0,198.0,0,0,0,116.09807820083263,160.3908857699631 C46.439231280333054,64.15635430798524,71.14128223586253,34.80744118485803,177.8532055896563,87.01860296214507 A198.0,198.0,0,0,0,177.85513894983825,87.01465134753876 C71.1420555799353,34.805860539015505,46.34658949573634,64.2233107377197,115.86647373934083,160.55827684429923 Z" fill="#e377c2" fill-opacity="0.6" />
<path d="M180.27488644509728,81.88385260359507 A198.0,198.0,0,0,0,180.34664879327215,81.72567692614206 C72.13865951730887,32.69027077045683,77.79429809637207,14.855543870649882,194.48574524093016,37.138859676624705 A198.0,198.0,0,0,0,196.17317198853857,26.83442922730541 C78.46926879541543,10.733771690922165,72.10995457803891,32.753541041438034,180.27488644509728,81.88385260359507 Z" fill="#e377c2" fill-opacity="0.6" />
<path d="M179.87780949032512,82.75248427063865 A198.0,198.0,0,0,0,180.27488644509728,81.88385260359507 C72.10995457803891,32.753541041438034,78.73213481600833,8.59598437143132,196.8303370400208,21.489960928578302 A198.0,198.0,0,0,0,197.98711779927422,2.258580425027946 C79.19484711970969,0.9034321700111785,71.95112379613005,33.10099370825546,179.87780949032512,82.75248427063865 Z" fill="#e377c2" fill-opacity="0.6" />
<text x="220.00000000000003" y="0" font-size="10" text-anchor="start" dominant-baseline="middle" transform="rotate(-8.022368)" font-family="Arial">Canada</text>
<text x="220.0" y="0" font-size="10" text-anchor="start" dominant-baseline="middle" transform="rotate(-24.811174)" font-family="Arial">Mexico</text>
<text x="220.00000000000003" y="0" font-size="10" text-anchor="start" dominant-baseline="middle" transform="rotate(-55.343233)" font-family="Arial">United Sta.</text>
<text x="220.00000000000006" y="0" font-size="10" text-anchor="start" dominant-baseline="middle" transform="rotate(-78.930441)" font-family="Arial">Costa Rica</text>
<text x="220.00000000000003" y="0" font-size="10" text-anchor="start" dominant-baseline="middle" transform="rotate(-81.710485)" font-family="Arial">Dominican .</text>
<text x="220.0" y="0" font-size="10" text-anchor="start" dominant-baseline="middle" transform="rotate(-84.226240)" font-family="Arial">Guatemala</text>
<text x="-220.00000000000003" y="0" font-size="10" text-anchor="end" dominant-baseline="middle" transform="rotate(85.527735)" font-family="Arial">Argentina</text>
<text x="-220.00000000000006" y="0" font-size="10" text-anchor="end" dominant-baseline="middle" transform="rotate(66.455670)" font-family="Arial">Brazil</text>
<text x="-220.00000000000003" y="0" font-size="10" text-anchor="end" dominant-baseline="middle" transform="rotate(48.288508)" font-family="Arial">Colombia</text>
<text x="-220.00000000000003" y="0" font-size="10" text-anchor="end" dominant-baseline="middle" transform="rotate(27.615248)" font-family="Arial">Germany</text>
<text x="-220.0" y="0" font-size="10" text-anchor="end" dominant-baseline="middle" transform="rotate(7.185387)" font-family="Arial">Spain</text>
<text x="-220.00000000000006" y="0" font-size="10" text-anchor="end" dominant-baseline="middle" transform="rotate(-11.726463)" font-family="Arial">France</text>
<text x="-220.00000000000003" y="0" font-size="10" text-anchor="end" dominant-baseline="middle" transform="rotate(-34.207664)" font-family="Arial">United Kin.</text>
<text x="-220.00000000000003" y="0" font-size="10" text-anchor="end" dominant-baseline="middle" transform="rotate(-55.734724)" font-family="Arial">Italy</text>
<text x="-220.00000000000003" y="0" font-size="10" text-anchor="end" dominant-baseline="middle" transform="rotate(-68.072910)" font-family="Arial">Indonesia</text>
<text x="-220.0" y="0" font-size="10" text-anchor="end" dominant-baseline="middle" transform="rotate(-73.265206)" font-family="Arial">India</text>
<text x="-220.00000000000003" y="0" font-size="10" text-anchor="end" dominant-baseline="middle" transform="rotate(-86.746617)" font-family="Arial">Japan</text>
<text x="220.0" y="0" font-size="10" text-anchor="start" dominant-baseline="middle" transform="rotate(-278.331504)" font-family="Arial">Egypt</text>
<text x="220.00000000000006" y="0" font-size="10" text-anchor="start" dominant-baseline="middle" transform="rotate(-284.402134)" font-family="Arial">Nigeria</text>
<text x="220.00000000000003" y="0" font-size="10" text-anchor="start" dominant-baseline="middle" transform="rotate(-297.784776)" font-family="Arial">South Afri.</text>
<text x="220.00000000000003" y="0" font-size="10" text-anchor="start" dominant-baseline="middle" transform="rotate(-321.046789)" font-family="Arial">Australia</text>
<text x="220.00000000000006" y="0" font-size="10" text-anchor="start" dominant-baseline="middle" transform="rotate(-344.695521)" font-family="Arial">New Zealan.</text>
<text x="220.00000000000003" y="0" font-size="10" text-anchor="start" dominant-baseline="middle" transform="rotate(-356.598081)" font-family="Arial">Papua New .</text>
<text x="-295.0" y="-285.0" font-size="8" text-anchor="start" dominant-baseline="middle" font-family="Arial" font-weight="bold">Continents</text>
<circle cx="-290.5" cy="-274.5" r="4.5" fill="#8c564b" stroke="#333" stroke-width="0.5" />
<text x="-278.0" y="-271.0" font-size="6" text-anchor="start" dominant-baseline="middle" font-family="Arial">Africa</text>
<circle cx="-290.5" cy="-262.5" r="4.5" fill="#9467bd" stroke="#333" stroke-width="0.5" />
<text x="-278.0" y="-259.0" font-size="6" text-anchor="start" dominant-baseline="middle" font-family="Arial">Asia</text>
<circle cx="-290.5" cy="-250.5" r="4.5" fill="#ff7f0e" stroke="#333" stroke-width="0.5" />
<text x="-278.0" y="-247.0" font-size="6" text-anchor="start" dominant-baseline="middle" font-family="Arial">Central America</text>
<circle cx="-290.5" cy="-238.5" r="4.5" fill="#d62728" stroke="#333" stroke-width="0.5" />
<text x="-278.0" y="-235.0" font-size="6" text-anchor="start" dominant-baseline="middle" font-family="Arial">Europe</text>
<circle cx="-290.5" cy="-226.5" r="4.5" fill="#1f77b4" stroke="#333" stroke-width="0.5" />
<text x="-278.0" y="-223.0" font-size="6" text-anchor="start" dominant-baseline="middle" font-family="Arial">North America</text>
<circle cx="-290.5" cy="-214.5" r="4.5" fill="#e377c2" stroke="#333" stroke-width="0.5" />
<text x="-278.0" y="-211.0" font-size="6" text-anchor="start" dominant-baseline="middle" font-family="Arial">Oceania</text>
<circle cx="-290.5" cy="-202.5" r="4.5" fill="#2ca02c" stroke="#333" stroke-width="0.5" />
<text x="-278.0" y="-199.0" font-size="6" text-anchor="start" dominant-baseline="middle" font-family="Arial">South America</text>
</svg>