<?xml version="1.0" encoding="UTF-8"?>
<svg xmlns="http://www.w3.org/2000/svg" xmlns:xlink="http://www.w3.org/1999/xlink"
     width="600.0" height="600.0" viewBox="-300.0 -300.0 600.0 600.0">
<defs>
</defs>
<rect x="-300.0" y="-300.0" width="600.0" height="600.0" fill="#ffffff" fill-opacity="1.0" />
<path d="M200.0,-0.0 A200,200,0,0,0,193.8592399298996,-49.179214042129914 L207.42938672499258,-52.62175902507901 A214.0,214.0,0,0,1,214.0,-0.0 Z" fill="#1f77b4" fill-opacity="0.9" />
<path d="M193.35776310475092,-51.1153151915063 A200,200,0,0,0,172.67170529305454,-100.91819554068793 L184.75872466356836,-107.98246922853609 A214.0,214.0,0,0,1,206.8928065220835,-54.69338725491174 Z" fill="#1f77b4" fill-opacity="0.9" />
<path d="M171.65390664394445,-102.6398379474169 A200,200,0,0,0,45.313404919680465,-194.7991153331685 L48.4853432640581,-208.43505340649028 A214.0,214.0,0,0,1,183.66968010902056,-109.82462660373608 Z" fill="#1f77b4" fill-opacity="0.9" />
<path d="M43.3631805813402,-195.24250195556826 A200,200,0,0,0,36.75313590757753,-196.5940156794177 L39.32585542110796,-210.35559677697697 A214.0,214.0,0,0,1,46.39860322203402,-208.90947709245805 Z" fill="#ff7f0e" fill-opacity="0.9" />
<path d="M34.785390874807185,-196.95171129413137 A200,200,0,0,0,28.900752543753246,-197.90085018110645 L30.923805221815975,-211.75390969378392 A214.0,214.0,0,0,1,37.22036823604369,-210.73833108472058 Z" fill="#ff7f0e" fill-opacity="0.9" />
<path d="M26.920331999667045,-198.17995792972533 A200,200,0,0,0,20.12731735872939,-198.98465040284134 L21.536229573840448,-212.91357593104024 A214.0,214.0,0,0,1,28.80475523964374,-212.0525549848061 Z" fill="#ff7f0e" fill-opacity="0.9" />
<path d="M18.13649766116197,-199.17597107228238 A200,200,0,0,0,-43.08038040677311,-195.30509676915173 L-46.09600703524723,-208.97645354299237 A214.0,214.0,0,0,1,19.406052497443312,-213.11828904734216 Z" fill="#2ca02c" fill-opacity="0.9" />
<path d="M-45.031244822707684,-194.86453497164987 A200,200,0,0,0,-110.50517281217284,-166.69915051298796 L-118.24053490902494,-178.36809104889713 A214.0,214.0,0,0,1,-48.18343196029723,-208.5050524196654 Z" fill="#2ca02c" fill-opacity="0.9" />
<path d="M-112.16661132165294,-165.58578231423508 A200,200,0,0,0,-149.09175976827532,-133.31034156883283 L-159.5281829520546,-142.64206547865112 A214.0,214.0,0,0,1,-120.01827411416865,-177.17678707623153 Z" fill="#2ca02c" fill-opacity="0.9" />
<path d="M-150.41738643981742,-131.81278335811984 A200,200,0,0,0,-192.60952385337987,-53.86623544461128 L-206.09219052311647,-57.63687192573407 A214.0,214.0,0,0,1,-160.94660349060464,-141.03967819318825 Z" fill="#d62728" fill-opacity="0.9" />
<path d="M-193.13854683422596,-51.93747901817628 A200,200,0,0,0,-199.9725651710816,-3.3125788892512635 L-213.97064473305733,-3.544459411498852 A214.0,214.0,0,0,1,-206.65824511262178,-55.57310254944863 Z" fill="#d62728" fill-opacity="0.9" />
<path d="M-199.9956918629435,-1.3127209385704823 A200,200,0,0,0,-183.08772040417566,80.4915314626477 L-195.90386083246796,86.12593866503305 A214.0,214.0,0,0,1,-213.99539029334954,-1.404611404270416 Z" fill="#d62728" fill-opacity="0.9" />
<path d="M-182.27366419500345,82.31835360918683 A200,200,0,0,0,-142.455678839399,140.37941290091652 L-152.42757635815695,150.20597180398067 A214.0,214.0,0,0,1,-195.03282068865371,88.08063836182991 Z" fill="#d62728" fill-opacity="0.9" />
<path d="M-141.0447853822561,141.79692703466222 A200,200,0,0,0,-88.51508376415408,179.346257129121 L-94.71113962764488,191.9004951281595 A214.0,214.0,0,0,1,-150.91792035901403,151.7227119270886 Z" fill="#d62728" fill-opacity="0.9" />
<path d="M-86.71722536644927,180.22242597619322 A200,200,0,0,0,-83.61176217583746,181.6839927617488 L-89.46458552814609,194.40187225507123 A214.0,214.0,0,0,1,-92.78743114210073,192.83799579452676 Z" fill="#9467bd" fill-opacity="0.9" />
<path d="M-81.7907719754634,182.51101232434647 A200,200,0,0,0,-56.78269509024925,191.76998080588052 L-60.7574837465667,205.19387946229216 A214.0,214.0,0,0,1,-87.51612601374585,195.28678318705073 Z" fill="#9467bd" fill-opacity="0.9" />
<path d="M-54.862188132599,192.32820987391142 A200,200,0,0,0,21.742136277754565,198.81468635410098 L23.264085817197387,212.73171439888807 A214.0,214.0,0,0,1,-58.702541301880935,205.79118456508522 Z" fill="#9467bd" fill-opacity="0.9" />
<path d="M23.729162907925456,198.58732796351617 A200,200,0,0,0,29.976657588543944,197.7407393528688 L32.07502361974202,211.5825911075696 A214.0,214.0,0,0,1,25.39020431148024,212.48844092096232 Z" fill="#8c564b" fill-opacity="0.9" />
<path d="M31.952533205058288,197.43109081849204 A200,200,0,0,0,63.883845416512145,189.5227012650442 L68.355714595668,202.7892903535973 A214.0,214.0,0,0,1,34.18921052941237,211.2512671757865 Z" fill="#8c564b" fill-opacity="0.9" />
<path d="M65.77584667655096,188.8743974020377 A200,200,0,0,0,112.47675572637101,165.37526846923112 L120.35012862721699,176.9515372620773 A214.0,214.0,0,0,1,70.38015594390953,202.09560522018035 Z" fill="#8c564b" fill-opacity="0.9" />
<path d="M114.12485705773518,164.24225096348232 A200,200,0,0,0,178.40810148457206,90.39109095851559 L190.8966685884921,96.71846732561168 A214.0,214.0,0,0,1,122.11359705177665,175.7392085309261 Z" fill="#e377c2" fill-opacity="0.9" />
<path d="M179.30307699831292,88.60252016131972 A200,200,0,0,0,196.5032220099693,37.235517180518876 L210.25844755066717,39.8420033831552 A214.0,214.0,0,0,1,191.85429238819484,94.8046965726121 Z" fill="#e377c2" fill-opacity="0.9" />
<path d="M196.86574589666154,35.2686559504482 A200,200,0,0,0,199.99000008333306,1.999966666834405 L213.9893000891664,2.1399643335128133 A214.0,214.0,0,0,1,210.64634810942786,37.73746186697957 Z" fill="#e377c2" fill-opacity="0.9" />
<path d="M193.0,-0.0 A193.0,193.0,0,0,0,191.8156605907188,-21.348357129909775 L196.7849782226027,-21.90142337679863 A198.0,198.0,0,0,1,198.0,-0.0 Z" fill="#1f77b4" fill-opacity="0.6" />
<path d="M186.59024139608462,-49.326279159803576 A193.0,193.0,0,0,0,179.73256687535527,-70.32214732497825 L184.38885099129712,-72.14396461319012 A198.0,198.0,0,0,1,191.4241854737034,-50.60416203959123 Z" fill="#1f77b4" fill-opacity="0.6" />
<path d="M165.6460199114064,-99.0474436192573 A193.0,193.0,0,0,0,71.53094819678338,-179.25491192731397 L73.38408156975706,-183.8988215627366 A198.0,198.0,0,0,1,169.93736757750503,-101.61343956794272 Z" fill="#1f77b4" fill-opacity="0.6" />
<path d="M17.501720243021303,-192.2048120847525 A193.0,193.0,0,0,0,-31.3407459170355,-190.4383302945177 L-32.15268233975662,-195.37196579437568 A198.0,198.0,0,0,1,17.95513268455035,-197.18421136155956 Z" fill="#2ca02c" fill-opacity="0.6" />
<path d="M-43.455151253912916,-188.04427624764213 A193.0,193.0,0,0,0,-102.22023782440536,-163.70712562109816 L-104.86843051415678,-167.94824286516806 A198.0,198.0,0,0,1,-44.580932374480604,-192.9158896219334 Z" fill="#2ca02c" fill-opacity="0.6" />
<path d="M-108.24077992539507,-159.79027993323683 A193.0,193.0,0,0,0,-129.71433872414292,-142.9097279031708 L-133.0748138206233,-146.61205246024775 A198.0,198.0,0,0,1,-111.0449452084364,-163.92992449109272 Z" fill="#2ca02c" fill-opacity="0.6" />
<path d="M-145.1527779144238,-127.19933594058564 A193.0,193.0,0,0,0,-184.62724732049972,-56.229703421368264 L-189.41033662932097,-57.686431489279364 A198.0,198.0,0,0,1,-148.91321257541924,-130.49465552453864 Z" fill="#d62728" fill-opacity="0.6" />
<path d="M-186.37869769502808,-50.11966725254011 A193.0,193.0,0,0,0,-191.97825825621132,-19.833011796281163 L-196.95178826284894,-20.346820392039742 A198.0,198.0,0,0,1,-191.2071613658837,-51.41810422799452 Z" fill="#d62728" fill-opacity="0.6" />
<path d="M-192.99584264774046,-1.2667757057205153 A193.0,193.0,0,0,0,-192.28585398746588,16.58765674563335 L-197.26735279543132,17.017388785675664 A198.0,198.0,0,0,1,-197.99573494431405,-1.2995937291847774 Z" fill="#d62728" fill-opacity="0.6" />
<path d="M-175.89408594817831,79.43721123286528 A193.0,193.0,0,0,0,-140.78481647952088,132.0175573506328 L-144.43209151785044,135.43770132344716 A198.0,198.0,0,0,1,-180.4509275530534,81.49517007309495 Z" fill="#d62728" fill-opacity="0.6" />
<path d="M-136.10821789387714,136.83403458844904 A193.0,193.0,0,0,0,-93.22526151291436,168.99127378610035 L-95.64042372827484,173.36928606035167 A198.0,198.0,0,0,1,-139.63433752843352,140.3789577643156 Z" fill="#d62728" fill-opacity="0.6" />
<path d="M-83.68212247862354,173.91464106702645 A193.0,193.0,0,0,0,-83.02535741128317,174.22913082125126 L-85.17627340639413,178.74283887361528 A198.0,198.0,0,0,1,-85.85005311278478,178.42020171643128 Z" fill="#9467bd" fill-opacity="0.6" />
<path d="M-78.92809495632217,176.12312689299435 A193.0,193.0,0,0,0,-54.79530076209052,185.05803147767472 L-56.214868139346756,189.8522809978217 A198.0,198.0,0,0,1,-80.97286425570876,180.685902201103 Z" fill="#9467bd" fill-opacity="0.6" />
<path d="M-52.94201154795803,185.5967225283245 A193.0,193.0,0,0,0,19.980961025907803,191.96291620123185 L20.49860250326293,196.93604874530521 A198.0,198.0,0,0,1,-54.31356625127301,190.4049277751723 Z" fill="#9467bd" fill-opacity="0.6" />
<path d="M30.834194542881246,190.52100263984482 A193.0,193.0,0,0,0,40.073121150296636,188.79392193943548 L41.11128491066702,193.6849561865711 A198.0,198.0,0,0,1,31.633007873007703,195.45677991030712 Z" fill="#8c564b" fill-opacity="0.6" />
<path d="M63.47369204287167,182.26379349296636 A193.0,193.0,0,0,0,99.9757772754913,165.08738279517715 L102.56582331889781,169.36425799712475 A198.0,198.0,0,0,1,65.11808820978544,186.98565342801732 Z" fill="#8c564b" fill-opacity="0.6" />
<path d="M110.13048706071446,158.49377217976044 A193.0,193.0,0,0,0,165.99667241338452,98.45864486008075 L170.2971043411924,101.0093869549015 A198.0,198.0,0,0,1,112.98360848715784,162.5998284538475 Z" fill="#e377c2" fill-opacity="0.6" />
<path d="M173.02746930337196,85.50143195567352 A193.0,193.0,0,0,0,185.31214400572946,53.92966979316473 L190.1129767519919,55.32681149765086 A198.0,198.0,0,0,1,177.5100462283298,87.71649495970652 Z" fill="#e377c2" fill-opacity="0.6" />
<path d="M196.20024517208967,-26.635761569962817 A198.0,198.0,0,0,0,191.92064753060058,-48.68742190170862 C76.76825901224024,-19.47496876068345,29.051973005757482,-73.67918881524646,72.6299325143937,-184.19797203811615 A198.0,198.0,0,0,0,70.23711889276602,-185.123599602113 C28.09484755710641,-74.0494398408452,78.48009806883587,-10.654304627985127,196.20024517208967,-26.635761569962817 Z" fill="#1f77b4" fill-opacity="0.6" />
<path d="M196.27068528804875,-26.111646760779472 A198.0,198.0,0,0,0,196.20024517208967,-26.635761569962817 C78.48009806883587,-10.654304627985127,-33.11988681271422,71.94242904929608,-82.79971703178555,179.85607262324018 A198.0,198.0,0,0,0,-82.7966455173657,179.85748661390687 C-33.118658206946286,71.94299464556275,78.5082741152195,-10.44465870431179,196.27068528804875,-26.111646760779472 Z" fill="#9467bd" fill-opacity="0.6" />
<path d="M196.33972532505157,-25.58734568655563 A198.0,198.0,0,0,0,196.27068528804875,-26.111646760779472 C78.5082741152195,-10.44465870431179,8.222193880316082,78.77204788371631,20.555484700790206,196.93011970929075 A198.0,198.0,0,0,0,20.563493667063817,196.9292835720595 C8.225397466825527,78.7717134288238,78.53589013002063,-10.234938274622252,196.33972532505157,-25.58734568655563 Z" fill="#9467bd" fill-opacity="0.6" />
<path d="M196.40736479060737,-25.062862087344985 A198.0,198.0,0,0,0,196.33972532505157,-25.58734568655563 C78.53589013002063,-10.234938274622252,44.08034362118396,65.79941721807533,110.20085905295988,164.4985430451883 A198.0,198.0,0,0,0,110.20647926882292,164.49477781124392 C44.08259170752917,65.79791112449757,78.56294591624295,-10.025144834937995,196.40736479060737,-25.062862087344985 Z" fill="#8c564b" fill-opacity="0.6" />
<path d="M196.40875447909,-25.051969263364317 A198.0,198.0,0,0,0,196.40736479060737,-25.062862087344985 C78.56294591624295,-10.025144834937995,69.64066002109438,37.72026606250741,174.10165005273592,94.30066515626852 A198.0,198.0,0,0,0,175.12644474184984,92.38359352222564 C70.05057789673994,36.95343740889026,78.563501791636,-10.020787705345727,196.40875447909,-25.051969263364317 Z" fill="#1f77b4" fill-opacity="0.6" />
<path d="M196.7849782226027,-21.90142337679863 A198.0,198.0,0,0,0,196.40875447909,-25.051969263364317 C78.563501791636,-10.020787705345727,79.19594627574152,0.8013073629160801,197.9898656893538,2.0032684072902 A198.0,198.0,0,0,0,197.9901000824997,1.979967000166061 C79.19604003299989,0.7919868000664244,78.71399128904108,-8.760569350719452,196.7849782226027,-21.90142337679863 Z" fill="#e377c2" fill-opacity="0.6" />
<path d="M183.6284788436219,-74.05796214842466 A198.0,198.0,0,0,0,170.944988240124,-99.90901358528104 C68.3779952960496,-39.963605434112424,29.353632627902826,-73.55952862509464,73.38408156975706,-183.8988215627366 A198.0,198.0,0,0,0,72.6299325143937,-184.19797203811615 C29.051973005757482,-73.67918881524646,73.45139153744877,-29.623184859369868,183.6284788436219,-74.05796214842466 Z" fill="#1f77b4" fill-opacity="0.6" />
<path d="M183.68010817628806,-73.92981712642818 A198.0,198.0,0,0,0,183.6284788436219,-74.05796214842466 C73.45139153744877,-29.623184859369868,9.11500423314934,-78.67373575615734,22.787510582873352,-196.68433939039335 A198.0,198.0,0,0,0,21.104839479500935,-196.87200347064206 C8.441935791800374,-78.74880138825682,73.47204327051523,-29.571926850571273,183.68010817628806,-73.92981712642818 Z" fill="#1f77b4" fill-opacity="0.6" />
<path d="M183.96568459142097,-73.21630209734587 A198.0,198.0,0,0,0,183.68010817628806,-73.92981712642818 C73.47204327051523,-29.571926850571273,-78.92116730083511,-6.639981315756609,-197.30291825208775,-16.59995328939152 A198.0,198.0,0,0,0,-197.30355589976983,-16.59237262438357 C-78.92142235990794,-6.636949049753429,73.5862738365684,-29.28652083893835,183.96568459142097,-73.21630209734587 Z" fill="#d62728" fill-opacity="0.6" />
<path d="M184.24848933205396,-72.50168397255335 A198.0,198.0,0,0,0,183.96568459142097,-73.21630209734587 C73.5862738365684,-29.28652083893835,-76.15730141634383,21.741790197225164,-190.39325354085955,54.35447549306291 A198.0,198.0,0,0,0,-190.39014636981346,54.36535813623423 C-76.15605854792538,21.746143254493692,73.69939573282159,-29.000673589021343,184.24848933205396,-72.50168397255335 Z" fill="#d62728" fill-opacity="0.6" />
<path d="M184.38885099129712,-72.14396461319012 A198.0,198.0,0,0,0,184.24848933205396,-72.50168397255335 C73.69939573282159,-29.000673589021343,77.65349600109857,15.574805257445997,194.13374000274644,38.93701314361499 A198.0,198.0,0,0,0,194.13449531657994,38.93324707980058 C77.65379812663198,15.573298831920233,73.75554039651885,-28.85758584527605,184.38885099129712,-72.14396461319012 Z" fill="#e377c2" fill-opacity="0.6" />
<path d="M46.31550079919567,-192.5068164655987 A198.0,198.0,0,0,0,44.86027087048362,-192.8511241798368 C17.94410834819345,-77.14044967193473,17.17181951021072,-77.31603077440504,42.929548775526804,-193.29007693601258 A198.0,198.0,0,0,0,36.58158286182348,-194.59133535520934 C14.632633144729391,-77.83653414208374,18.526200319678267,-77.00272658623948,46.31550079919567,-192.5068164655987 Z" fill="#1f77b4" fill-opacity="0.6" />
<path d="M47.61617875176105,-192.1892284210547 A198.0,198.0,0,0,0,46.31550079919567,-192.5068164655987 C18.526200319678267,-77.00272658623948,13.775014786423647,-77.99287767247603,34.43753696605911,-194.98219418119007 A198.0,198.0,0,0,0,28.942234158425876,-195.8732934371576 C11.57689366337035,-78.34931737486305,19.04647150070442,-76.87569136842188,47.61617875176105,-192.1892284210547 Z" fill="#1f77b4" fill-opacity="0.6" />
<path d="M48.48394593124977,-191.97215159219226 A198.0,198.0,0,0,0,47.61617875176105,-192.1892284210547 C19.04647150070442,-76.87569136842188,10.66045147186815,-78.47926334017124,26.651128679670375,-196.1981583504281 A198.0,198.0,0,0,0,22.787510582873352,-196.68433939039335 C9.11500423314934,-78.67373575615734,19.39357837249991,-76.7888606368769,48.48394593124977,-191.97215159219226 Z" fill="#1f77b4" fill-opacity="0.6" />
<path d="M48.7111722052836,-191.91462086664268 A198.0,198.0,0,0,0,48.48394593124977,-191.97215159219226 C19.39357837249991,-76.7888606368769,-12.86107293590265,-78.14878631775028,-32.15268233975662,-195.37196579437568 A198.0,198.0,0,0,0,-41.237668370516445,-193.65808712099607 C-16.49506734820658,-77.46323484839843,19.484468882113443,-76.76584834665708,48.7111722052836,-191.91462086664268 Z" fill="#1f77b4" fill-opacity="0.6" />
<path d="M48.78313448815001,-191.8963412613984 A198.0,198.0,0,0,0,48.7111722052836,-191.91462086664268 C19.484468882113443,-76.76584834665708,-41.9527676217172,-67.17592789741127,-104.881919054293,-167.93981974352818 A198.0,198.0,0,0,0,-107.6023223320897,-166.20992818944683 C-43.04092893283588,-66.48397127577873,19.513253795260006,-76.75853650455936,48.78313448815001,-191.8963412613984 Z" fill="#1f77b4" fill-opacity="0.6" />
<path d="M49.379602646716975,-191.7437217810595 A198.0,198.0,0,0,0,48.78313448815001,-191.8963412613984 C19.513253795260006,-76.75853650455936,-53.22992552824932,-58.644820984099105,-133.0748138206233,-146.61205246024775 A198.0,198.0,0,0,0,-147.3204242521794,-132.2901833023066 C-58.92816970087176,-52.916073320922635,19.751841058686793,-76.6974887124238,49.379602646716975,-191.7437217810595 Z" fill="#1f77b4" fill-opacity="0.6" />
<path d="M49.40277936625274,-191.73775160590924 A198.0,198.0,0,0,0,49.379602646716975,-191.7437217810595 C19.751841058686793,-76.6974887124238,-75.76413465172838,-23.074572595711746,-189.41033662932097,-57.686431489279364 A198.0,198.0,0,0,0,-189.79272893314348,-56.415601070185566 C-75.9170915732574,-22.566240428074227,19.761111746501097,-76.6951006423637,49.40277936625274,-191.73775160590924 Z" fill="#1f77b4" fill-opacity="0.6" />
<path d="M49.48301058447362,-191.7170614825318 A198.0,198.0,0,0,0,49.40277936625274,-191.73775160590924 C19.761111746501097,-76.6951006423637,-78.81492482811147,-7.800488724377442,-197.03731207027866,-19.501221810943605 A198.0,198.0,0,0,0,-197.30291825208775,-16.59995328939152 C-78.92116730083511,-6.639981315756609,19.79320423378945,-76.68682459301272,49.48301058447362,-191.7170614825318 Z" fill="#1f77b4" fill-opacity="0.6" />
<path d="M49.497454423860255,-191.71333288417338 A198.0,198.0,0,0,0,49.48301058447362,-191.7170614825318 C19.79320423378945,-76.68682459301272,-76.24239665836974,21.441477369524037,-190.60599164592435,53.60369342381009 A198.0,198.0,0,0,0,-190.39325354085955,54.35447549306291 C-76.15730141634383,21.741790197225164,19.798981769544103,-76.68533315366936,49.497454423860255,-191.71333288417338 Z" fill="#1f77b4" fill-opacity="0.6" />
<path d="M49.55602933586098,-191.69820019098586 A198.0,198.0,0,0,0,49.497454423860255,-191.71333288417338 C19.798981769544103,-76.68533315366936,-57.67346275745569,54.28085936648731,-144.1836568936392,135.70214841621828 A198.0,198.0,0,0,0,-141.8731992201191,138.1158765061005 C-56.749279688047636,55.2463506024402,19.822411734344392,-76.67928007639435,49.55602933586098,-191.69820019098586 Z" fill="#1f77b4" fill-opacity="0.6" />
<path d="M49.56208854555433,-191.6966337184945 A198.0,198.0,0,0,0,49.55602933586098,-191.69820019098586 C19.822411734344392,-76.67928007639435,-35.167514472792014,70.96397625419509,-87.91878618198002,177.40994063548771 A198.0,198.0,0,0,0,-87.68219753864815,177.52699015866145 C-35.072879015459264,71.01079606346458,19.824835418221735,-76.6786534873978,49.56208854555433,-191.6966337184945 Z" fill="#1f77b4" fill-opacity="0.6" />
<path d="M58.610544844511175,-189.12642341309567 A198.0,198.0,0,0,0,49.56208854555433,-191.6966337184945 C19.824835418221735,-76.6786534873978,-33.25554534446996,71.87982125632968,-83.1388633611749,179.69955314082418 A198.0,198.0,0,0,0,-82.79971703178555,179.85607262324018 C-33.11988681271422,71.94242904929608,23.44421793780447,-75.65056936523827,58.610544844511175,-189.12642341309567 Z" fill="#9467bd" fill-opacity="0.6" />
<path d="M60.24210072628986,-188.6130676811221 A198.0,198.0,0,0,0,58.610544844511175,-189.12642341309567 C23.44421793780447,-75.65056936523827,8.219007053018101,78.77238045827002,20.54751763254525,196.93095114567504 A198.0,198.0,0,0,0,20.555484700790206,196.93011970929075 C8.222193880316082,78.77204788371631,24.096840290515946,-75.44522707244884,60.24210072628986,-188.6130676811221 Z" fill="#9467bd" fill-opacity="0.6" />
<path d="M60.28028375291984,-188.60086794781054 A198.0,198.0,0,0,0,60.24210072628986,-188.6130676811221 C24.096840290515946,-75.44522707244884,22.936156903199674,75.80615216795934,57.340392257999184,189.51538041989835 A198.0,198.0,0,0,0,58.21883703831272,189.24736989957452 C23.28753481532509,75.69894795982981,24.11211350116794,-75.44034717912422,60.28028375291984,-188.60086794781054 Z" fill="#1f77b4" fill-opacity="0.6" />
<path d="M61.907237395530125,-188.07310801402065 A198.0,198.0,0,0,0,60.28028375291984,-188.60086794781054 C24.11211350116794,-75.44034717912422,43.38900247242961,66.25733517466196,108.47250618107402,165.6433379366549 A198.0,198.0,0,0,0,110.20085905295988,164.4985430451883 C44.08034362118396,65.79941721807533,24.76289495821205,-75.22924320560826,61.907237395530125,-188.07310801402065 Z" fill="#1f77b4" fill-opacity="0.6" />
<path d="M62.00896958629345,-188.03959075377222 A198.0,198.0,0,0,0,61.907237395530125,-188.07310801402065 C24.76289495821205,-75.22924320560826,68.36074517946854,39.99310588723724,170.90186294867132,99.9827647180931 A198.0,198.0,0,0,0,174.10165005273592,94.30066515626852 C69.64066002109438,37.72026606250741,24.803587834517383,-75.21583630150889,62.00896958629345,-188.03959075377222 Z" fill="#1f77b4" fill-opacity="0.6" />
<path d="M62.17817473689277,-187.98370830044936 A198.0,198.0,0,0,0,62.00896958629345,-188.03959075377222 C24.803587834517383,-75.21583630150889,77.11622772902638,18.04792012518187,192.79056932256594,45.11980031295467 A198.0,198.0,0,0,0,194.13374000274644,38.93701314361499 C77.65349600109857,15.574805257445997,24.87126989475711,-75.19348332017975,62.17817473689277,-187.98370830044936 Z" fill="#1f77b4" fill-opacity="0.6" />
<path d="M70.23711889276602,-185.123599602113 A198.0,198.0,0,0,0,62.17817473689277,-187.98370830044936 C24.87126989475711,-75.19348332017975,79.17395539765691,2.030957087147413,197.93488849414226,5.077392717868532 A198.0,198.0,0,0,0,197.9898656893538,2.0032684072902 C79.19594627574152,0.8013073629160801,28.09484755710641,-74.0494398408452,70.23711889276602,-185.123599602113 Z" fill="#1f77b4" fill-opacity="0.6" />
<path d="M36.48359832998051,-194.60973010848312 A198.0,198.0,0,0,0,36.38560454850176,-194.62807552262353 C14.554241819400705,-77.85123020904942,-78.81460606126802,-7.803708823830873,-197.03651515317003,-19.50927205957718 A198.0,198.0,0,0,0,-197.03731207027866,-19.501221810943605 C-78.81492482811147,-7.800488724377442,14.593439331992204,-77.84389204339325,36.48359832998051,-194.60973010848312 Z" fill="#d62728" fill-opacity="0.6" />
<path d="M36.58158286182348,-194.59133535520934 A198.0,198.0,0,0,0,36.48359832998051,-194.60973010848312 C14.593439331992204,-77.84389204339325,77.11548304875907,18.051101743565496,192.78870762189766,45.12775435891374 A198.0,198.0,0,0,0,192.79056932256594,45.11980031295467 C77.11622772902638,18.04792012518187,14.632633144729391,-77.83653414208374,36.58158286182348,-194.59133535520934 Z" fill="#e377c2" fill-opacity="0.6" />
<path d="M28.721917159583224,-195.90572088297483 A198.0,198.0,0,0,0,28.611745018315712,-195.9218416792954 C11.444698007326286,-78.36873667171817,-78.81423487188403,-7.8074567920356195,-197.03558717971003,-19.518641980089047 A198.0,198.0,0,0,0,-197.03651515317003,-19.50927205957718 C-78.81460606126802,-7.803708823830873,11.488766863833291,-78.36228835318994,28.721917159583224,-195.90572088297483 Z" fill="#d62728" fill-opacity="0.6" />
<path d="M28.942234158425876,-195.8732934371576 A198.0,198.0,0,0,0,28.721917159583224,-195.90572088297483 C11.488766863833291,-78.36228835318994,8.209028539581508,78.77342096441119,20.52257134895377,196.93355241102796 A198.0,198.0,0,0,0,20.54751763254525,196.93095114567504 C8.219007053018101,78.77238045827002,11.57689366337035,-78.34931737486305,28.942234158425876,-195.8732934371576 Z" fill="#9467bd" fill-opacity="0.6" />
<path d="M20.936485462722988,-196.8899783545856 A198.0,198.0,0,0,0,19.926044185142093,-196.99480389881293 C7.970417674056837,-78.79792155952518,-57.70878252827803,54.24330759737936,-144.27195632069507,135.6082689934484 A198.0,198.0,0,0,0,-144.1836568936392,135.70214841621828 C-57.67346275745569,54.28085936648731,8.374594185089196,-78.75599134183425,20.936485462722988,-196.8899783545856 Z" fill="#d62728" fill-opacity="0.6" />
<path d="M21.104839479500935,-196.87200347064206 A198.0,198.0,0,0,0,20.936485462722988,-196.8899783545856 C8.374594185089196,-78.75599134183425,8.201782155586384,78.77417577780363,20.50445538896596,196.9354394445091 A198.0,198.0,0,0,0,20.52257134895377,196.93355241102796 C8.209028539581508,78.77342096441119,8.441935791800374,-78.74880138825682,21.104839479500935,-196.87200347064206 Z" fill="#9467bd" fill-opacity="0.6" />
<path d="M-41.237668370516445,-193.65808712099607 A198.0,198.0,0,0,0,-42.64957660270538,-193.3520458014602 C-17.059830641082154,-77.34081832058409,-41.94737220566272,-67.17929714606723,-104.86843051415678,-167.94824286516806 A198.0,198.0,0,0,0,-104.881919054293,-167.93981974352818 C-41.9527676217172,-67.17592789741127,-16.49506734820658,-77.46323484839843,-41.237668370516445,-193.65808712099607 Z" fill="#2ca02c" fill-opacity="0.6" />
<path d="M-107.6023223320897,-166.20992818944683 A198.0,198.0,0,0,0,-109.40012108405112,-165.03215900785807 C-43.760048433620454,-66.01286360314323,-33.259079107803174,71.87818623825237,-83.14769776950793,179.6954655956309 A198.0,198.0,0,0,0,-83.1388633611749,179.69955314082418 C-33.25554534446996,71.87982125632968,-43.04092893283588,-66.48397127577873,-107.6023223320897,-166.20992818944683 Z" fill="#9467bd" fill-opacity="0.6" />
<path d="M-147.5956626619727,-131.9830305886827 A198.0,198.0,0,0,0,-147.60084217059259,-131.9772381531445 C-59.040336868237034,-52.7908952612578,-78.78071530513958,-8.138728156815898,-196.95178826284894,-20.346820392039742 A198.0,198.0,0,0,0,-197.03558717971003,-19.518641980089047 C-78.81423487188403,-7.8074567920356195,-59.03826506478909,-52.793212235473085,-147.5956626619727,-131.9830305886827 Z" fill="#2ca02c" fill-opacity="0.6" />
<path d="M-147.3204242521794,-132.2901833023066 A198.0,198.0,0,0,0,-147.5956626619727,-131.9830305886827 C-59.03826506478909,-52.793212235473085,8.199441001305173,78.77441949812209,20.49860250326293,196.93604874530521 A198.0,198.0,0,0,0,20.50445538896596,196.9354394445091 C8.201782155586384,78.77417577780363,-58.92816970087176,-52.916073320922635,-147.3204242521794,-132.2901833023066 Z" fill="#9467bd" fill-opacity="0.6" />
<path d="M-190.57723072918526,-53.70585747937456 A198.0,198.0,0,0,0,-190.68342861484606,-53.32757309016517 C-76.27337144593842,-21.33102923606607,-78.90084308714457,6.877278541530281,-197.2521077178614,17.1931963538257 A198.0,198.0,0,0,0,-190.60599164592435,53.60369342381009 C-76.24239665836974,21.441477369524037,-76.23089229167411,-21.482342991749825,-190.57723072918526,-53.70585747937456 Z" fill="#d62728" fill-opacity="0.6" />
<path d="M-190.54802230844592,-53.809396896267096 A198.0,198.0,0,0,0,-190.57723072918526,-53.70585747937456 C-76.23089229167411,-21.482342991749825,-38.06938355580965,69.45042862128822,-95.17345888952413,173.62607155322056 A198.0,198.0,0,0,0,-87.91878618198002,177.40994063548771 C-35.167514472792014,70.96397625419509,-76.21920892337837,-21.52375875850684,-190.54802230844592,-53.809396896267096 Z" fill="#d62728" fill-opacity="0.6" />
<path d="M-190.54515979614865,-53.819532497599646 A198.0,198.0,0,0,0,-190.54802230844592,-53.809396896267096 C-76.21920892337837,-21.52375875850684,-33.3946161995393,71.81531597706348,-83.48654049884824,179.53828994265868 A198.0,198.0,0,0,0,-83.14769776950793,179.6954655956309 C-33.259079107803174,71.87818623825237,-76.21806391845946,-21.52781299903986,-190.54515979614865,-53.819532497599646 Z" fill="#d62728" fill-opacity="0.6" />
<path d="M-190.53191751515737,-53.86639405043987 A198.0,198.0,0,0,0,-190.54515979614865,-53.819532497599646 C-76.21806391845946,-21.52781299903986,42.22623479378175,67.0043662393759,105.56558698445437,167.51091559843974 A198.0,198.0,0,0,0,108.47250618107402,165.6433379366549 C43.38900247242961,66.25733517466196,-76.21276700606295,-21.54655762017595,-190.53191751515737,-53.86639405043987 Z" fill="#d62728" fill-opacity="0.6" />
<path d="M-189.79272893314348,-56.415601070185566 A198.0,198.0,0,0,0,-190.53191751515737,-53.86639405043987 C-76.21276700606295,-21.54655762017595,68.35485792241768,40.00316735467445,170.8871448060442,100.00791838668613 A198.0,198.0,0,0,0,170.90186294867132,99.9827647180931 C68.36074517946854,39.99310588723724,-75.9170915732574,-22.566240428074227,-189.79272893314348,-56.415601070185566 Z" fill="#e377c2" fill-opacity="0.6" />
<path d="M-197.42133655523403,-15.126660991276646 A198.0,198.0,0,0,0,-197.9728395193708,-3.279453100358751 C-79.18913580774833,-1.3117812401435005,-78.90694111817254,6.806955514270266,-197.26735279543132,17.017388785675664 A198.0,198.0,0,0,0,-197.2521077178614,17.1931963538257 C-78.90084308714457,6.877278541530281,-78.96853462209361,-6.050664396510658,-197.42133655523403,-15.126660991276646 Z" fill="#d62728" fill-opacity="0.6" />
<path d="M-197.40532909547713,-15.33414636379791 A198.0,198.0,0,0,0,-197.42133655523403,-15.126660991276646 C-78.96853462209361,-6.050664396510658,-57.709678001707886,54.24235489854026,-144.2741950042697,135.60588724635065 A198.0,198.0,0,0,0,-144.27195632069507,135.6082689934484 C-57.70878252827803,54.24330759737936,-78.96213163819085,-6.133658545519165,-197.40532909547713,-15.33414636379791 Z" fill="#d62728" fill-opacity="0.6" />
<path d="M-197.3726600067263,-15.74906606339615 A198.0,198.0,0,0,0,-197.40532909547713,-15.33414636379791 C-78.96213163819085,-6.133658545519165,-38.0711346358017,69.44946873477623,-95.17783658950424,173.62367183694056 A198.0,198.0,0,0,0,-95.17345888952413,173.62607155322056 C-38.06938355580965,69.45042862128822,-78.94906400269053,-6.29962642535846,-197.3726600067263,-15.74906606339615 Z" fill="#d62728" fill-opacity="0.6" />
<path d="M-197.37212867202211,-15.755723514797536 A198.0,198.0,0,0,0,-197.3726600067263,-15.74906606339615 C-78.94906400269053,-6.29962642535846,-33.53003444703838,71.75219014065298,-83.82508611759596,179.38047535163247 A198.0,198.0,0,0,0,-83.48654049884824,179.53828994265868 C-33.3946161995393,71.81531597706348,-78.94885146880885,-6.302289405919015,-197.37212867202211,-15.755723514797536 Z" fill="#d62728" fill-opacity="0.6" />
<path d="M-197.37156775632,-15.762748536102006 A198.0,198.0,0,0,0,-197.37212867202211,-15.755723514797536 C-78.94885146880885,-6.302289405919015,22.760282417868435,75.85914278621179,56.90070604467108,189.64785696552948 A198.0,198.0,0,0,0,57.340392257999184,189.51538041989835 C22.936156903199674,75.80615216795934,-78.94862710252801,-6.305099414440803,-197.37156775632,-15.762748536102006 Z" fill="#d62728" fill-opacity="0.6" />
<path d="M-197.337997803944,-16.177596321165367 A198.0,198.0,0,0,0,-197.37156775632,-15.762748536102006 C-78.94862710252801,-6.305099414440803,68.3534018777584,40.00565524694797,170.88350469439598,100.01413811736991 A198.0,198.0,0,0,0,170.8871448060442,100.00791838668613 C68.35485792241768,40.00316735467445,-78.93519912157761,-6.471038528466147,-197.337997803944,-16.177596321165367 Z" fill="#e377c2" fill-opacity="0.6" />
<path d="M-197.30355589976983,-16.59237262438357 A198.0,198.0,0,0,0,-197.337997803944,-16.177596321165367 C-78.93519912157761,-6.471038528466147,79.1739279663035,2.032026177633516,197.9348199157587,5.08006544408379 A198.0,198.0,0,0,0,197.93488849414226,5.077392717868532 C79.17395539765691,2.030957087147413,-78.92142235990794,-6.636949049753429,-197.30355589976983,-16.59237262438357 Z" fill="#e377c2" fill-opacity="0.6" />
<path d="M-188.9300255877039,59.240572510987306 A198.0,198.0,0,0,0,-181.2568432001339,79.68661614802123 C-72.50273728005355,31.874646459208492,-57.77283660714018,54.17508052937887,-144.43209151785044,135.43770132344716 A198.0,198.0,0,0,0,-144.2741950042697,135.60588724635065 C-57.709678001707886,54.24235489854026,-75.57201023508156,23.696229004394922,-188.9300255877039,59.240572510987306 Z" fill="#d62728" fill-opacity="0.6" />
<path d="M-188.93597007785522,59.2216110110135 A198.0,198.0,0,0,0,-188.9300255877039,59.240572510987306 C-75.57201023508156,23.696229004394922,-33.80051248205273,71.62517264168093,-84.50128120513182,179.06293160420233 A198.0,198.0,0,0,0,-83.82508611759596,179.38047535163247 C-33.53003444703838,71.75219014065298,-75.57438803114209,23.6886444044054,-188.93597007785522,59.2216110110135 Z" fill="#d62728" fill-opacity="0.6" />
<path d="M-189.16010465009202,58.50175047608606 A198.0,198.0,0,0,0,-188.93597007785522,59.2216110110135 C-75.57438803114209,23.6886444044054,9.396748511538481,78.6405818735524,23.491871278846205,196.601454683881 A198.0,198.0,0,0,0,29.542725425850424,195.78362386679026 C11.81709017034017,78.31344954671611,-75.66404186003682,23.400700190434424,-189.16010465009202,58.50175047608606 Z" fill="#d62728" fill-opacity="0.6" />
<path d="M-189.16165345243311,58.496742329309214 A198.0,198.0,0,0,0,-189.16010465009202,58.50175047608606 C-75.66404186003682,23.400700190434424,22.672299206656177,75.88548509882412,56.680748016640436,189.7137127470603 A198.0,198.0,0,0,0,56.90070604467108,189.64785696552948 C22.760282417868435,75.85914278621179,-75.66466138097324,23.398696931723688,-189.16165345243311,58.496742329309214 Z" fill="#d62728" fill-opacity="0.6" />
<path d="M-189.16708154048143,58.479186566306225 A198.0,198.0,0,0,0,-189.16165345243311,58.496742329309214 C-75.66466138097324,23.398696931723688,41.75750742971797,67.29747820874901,104.39376857429491,168.24369552187252 A198.0,198.0,0,0,0,105.56558698445437,167.51091559843974 C42.22623479378175,67.0043662393759,-75.66683261619258,23.39167462652249,-189.16708154048143,58.479186566306225 Z" fill="#d62728" fill-opacity="0.6" />
<path d="M-190.39014636981346,54.36535813623423 A198.0,198.0,0,0,0,-189.16708154048143,58.479186566306225 C-75.66683261619258,23.39167462652249,68.34330680520709,40.02289863227468,170.85826701301772,100.0572465806867 A198.0,198.0,0,0,0,170.88350469439598,100.01413811736991 C68.3534018777584,40.00565524694797,-76.15605854792538,21.746143254493692,-190.39014636981346,54.36535813623423 Z" fill="#e377c2" fill-opacity="0.6" />
<path d="M-141.03597426389453,138.970694620967 A198.0,198.0,0,0,0,-141.03112205100504,138.97561877190734 C-56.41244882040202,55.590247508762936,-38.25616949130994,69.34771442414068,-95.64042372827484,173.36928606035167 A198.0,198.0,0,0,0,-95.17783658950424,173.62367183694056 C-38.0711346358017,69.44946873477623,-56.41438970555782,55.58827784838681,-141.03597426389453,138.970694620967 Z" fill="#d62728" fill-opacity="0.6" />
<path d="M-141.26885648755757,138.73395469998636 A198.0,198.0,0,0,0,-141.03597426389453,138.970694620967 C-56.41438970555782,55.58827784838681,17.34179348934857,77.2780835591359,43.35448372337143,193.1952088978397 A198.0,198.0,0,0,0,56.680748016640436,189.7137127470603 C22.672299206656177,75.88548509882412,-56.50754259502303,55.493581879994544,-141.26885648755757,138.73395469998636 Z" fill="#d62728" fill-opacity="0.6" />
<path d="M-141.28924605472747,138.71318952892213 A198.0,198.0,0,0,0,-141.26885648755757,138.73395469998636 C-56.50754259502303,55.493581879994544,41.050608787683586,67.73099377803752,102.62652196920895,169.32748444509377 A198.0,198.0,0,0,0,104.39376857429491,168.24369552187252 C41.75750742971797,67.29747820874901,-56.51569842189099,55.485275811568854,-141.28924605472747,138.71318952892213 Z" fill="#d62728" fill-opacity="0.6" />
<path d="M-141.8731992201191,138.1158765061005 A198.0,198.0,0,0,0,-141.28924605472747,138.71318952892213 C-56.51569842189099,55.485275811568854,79.17389289412172,2.0333922371598203,197.9347322353043,5.083480592899551 A198.0,198.0,0,0,0,197.9348199157587,5.08006544408379 C79.1739279663035,2.032026177633516,-56.749279688047636,55.2463506024402,-141.8731992201191,138.1158765061005 Z" fill="#e377c2" fill-opacity="0.6" />
<path d="M-87.64429984166641,177.5457031450327 A198.0,198.0,0,0,0,-87.62993292651255,177.5527945578298 C-35.051973170605024,71.02111782313192,-34.07050936255765,71.49713554944611,-85.17627340639413,178.74283887361528 A198.0,198.0,0,0,0,-84.50128120513182,179.06293160420233 C-33.80051248205273,71.62517264168093,-35.057719936666565,71.01828125801308,-87.64429984166641,177.5457031450327 Z" fill="#d62728" fill-opacity="0.6" />
<path d="M-87.68219753864815,177.52699015866145 A198.0,198.0,0,0,0,-87.64429984166641,177.5457031450327 C-35.057719936666565,71.01828125801308,16.444513964266807,77.47398247462844,41.11128491066702,193.6849561865711 A198.0,198.0,0,0,0,43.35448372337143,193.1952088978397 C17.34179348934857,77.2780835591359,-35.072879015459264,71.01079606346458,-87.68219753864815,177.52699015866145 Z" fill="#d62728" fill-opacity="0.6" />
<path d="M-82.78448720249851,179.8630831455398 A198.0,198.0,0,0,0,-82.77564455407908,179.86715283413133 C-33.110257821631635,71.94686113365253,76.95221381406859,18.734908302787968,192.38053453517145,46.837270756969914 A198.0,198.0,0,0,0,192.78870762189766,45.12775435891374 C77.11548304875907,18.051101743565496,-33.11379488099941,71.94523325821592,-82.78448720249851,179.8630831455398 Z" fill="#9467bd" fill-opacity="0.6" />
<path d="M-82.7966455173657,179.85748661390687 A198.0,198.0,0,0,0,-82.78448720249851,179.8630831455398 C-33.11379488099941,71.94523325821592,79.15571883110232,2.6480514216067355,197.8892970777558,6.620128554016838 A198.0,198.0,0,0,0,197.9347322353043,5.083480592899551 C79.17389289412172,2.0333922371598203,-33.118658206946286,71.94299464556275,-82.7966455173657,179.85748661390687 Z" fill="#9467bd" fill-opacity="0.6" />
<path d="M21.51640393161997,196.8274481921954 A198.0,198.0,0,0,0,21.524714914977018,196.82653949055998 C8.609885965990808,78.730615796224,68.12257653715923,40.39745741923474,170.30644134289807,100.99364354808685 A198.0,198.0,0,0,0,170.85826701301772,100.0572465806867 C68.34330680520709,40.02289863227468,8.606561572647989,78.73097927687816,21.51640393161997,196.8274481921954 Z" fill="#9467bd" fill-opacity="0.6" />
<path d="M21.50257739249887,196.82895916373585 A198.0,198.0,0,0,0,21.51640393161997,196.8274481921954 C8.606561572647989,78.73097927687816,76.8513410001779,19.14448710397792,192.12835250044472,47.8612177599448 A198.0,198.0,0,0,0,192.38053453517145,46.837270756969914 C76.95221381406859,18.734908302787968,8.60103095699955,78.73158366549434,21.50257739249887,196.82895916373585 Z" fill="#9467bd" fill-opacity="0.6" />
<path d="M20.563493667063817,196.9292835720595 A198.0,198.0,0,0,0,21.50257739249887,196.82895916373585 C8.60103095699955,78.73158366549434,79.15565789116822,2.649872415105946,197.88914472792052,6.624681037764864 A198.0,198.0,0,0,0,197.8892970777558,6.620128554016838 C79.15571883110232,2.6480514216067355,8.225397466825527,78.7717134288238,20.563493667063817,196.9292835720595 Z" fill="#e377c2" fill-opacity="0.6" />
<path d="M29.542725425850424,195.78362386679026 A198.0,198.0,0,0,0,29.6768910126585,195.7633319593401 C11.870756405063402,78.30533278373605,79.15556101811012,2.6527645783689127,197.88890254527527,6.631911445922281 A198.0,198.0,0,0,0,197.88914472792052,6.624681037764864 C79.15565789116822,2.649872415105946,11.81709017034017,78.31344954671611,29.542725425850424,195.78362386679026 Z" fill="#e377c2" fill-opacity="0.6" />
<path d="M59.31512931973224,188.90663152410357 A198.0,198.0,0,0,0,63.24500696234702,187.62747425239374 C25.29800278493881,75.0509897009575,41.026329327559125,67.74570319884991,102.56582331889781,169.36425799712475 A198.0,198.0,0,0,0,102.62652196920895,169.32748444509377 C41.050608787683586,67.73099377803752,23.726051727892898,75.56265260964143,59.31512931973224,188.90663152410357 Z" fill="#8c564b" fill-opacity="0.6" />
<path d="M58.65759088024034,189.11183736648096 A198.0,198.0,0,0,0,59.31512931973224,188.90663152410357 C23.726051727892898,75.56265260964143,68.11884173647697,40.4037547819606,170.2971043411924,101.0093869549015 A198.0,198.0,0,0,0,170.30644134289807,100.99364354808685 C68.12257653715923,40.39745741923474,23.46303635209614,75.64473494659238,58.65759088024034,189.11183736648096 Z" fill="#e377c2" fill-opacity="0.6" />
<path d="M58.21883703831272,189.24736989957452 A198.0,198.0,0,0,0,58.65759088024034,189.11183736648096 C23.46303635209614,75.64473494659238,79.15550034440639,2.6545743965236968,197.88875086101598,6.6364359913092414 A198.0,198.0,0,0,0,197.88890254527527,6.631911445922281 C79.15556101811012,2.6527645783689127,23.28753481532509,75.69894795982981,58.21883703831272,189.24736989957452 Z" fill="#e377c2" fill-opacity="0.6" />
<path d="M110.20647926882292,164.49477781124392 A198.0,198.0,0,0,0,111.3519881691073,163.7215157845388 C44.54079526764292,65.48860631381552,79.155393902503,2.657746440048978,197.88848475625747,6.644366100122445 A198.0,198.0,0,0,0,197.88875086101598,6.6364359913092414 C79.15550034440639,2.6545743965236968,44.08259170752917,65.79791112449757,110.20647926882292,164.49477781124392 Z" fill="#e377c2" fill-opacity="0.6" />
<path d="M176.1301309506105,90.45538663518501 A198.0,198.0,0,0,0,176.62402046972633,89.48718004893043 C70.64960818789054,35.794872019572175,76.04519070079677,22.130724599060343,190.1129767519919,55.32681149765086 A198.0,198.0,0,0,0,192.12835250044472,47.8612177599448 C76.8513410001779,19.14448710397792,70.4520523802442,36.182154654074004,176.1301309506105,90.45538663518501 Z" fill="#e377c2" fill-opacity="0.6" />
<path d="M175.12644474184984,92.38359352222564 A198.0,198.0,0,0,0,176.1301309506105,90.45538663518501 C70.4520523802442,36.182154654074004,77.95978156985285,13.961105170466707,194.89945392463213,34.902762926166766 A198.0,198.0,0,0,0,197.88848475625747,6.644366100122445 C79.155393902503,2.657746440048978,70.05057789673994,36.95343740889026,175.12644474184984,92.38359352222564 Z" fill="#e377c2" fill-opacity="0.6" />
<path d="M194.13449531657994,38.93324707980058 A198.0,198.0,0,0,0,194.53818978986962,36.86316200871369 C77.81527591594785,14.745264803485476,77.95883537507797,13.966387756377486,194.89708843769492,34.915969390943715 A198.0,198.0,0,0,0,194.89945392463213,34.902762926166766 C77.95978156985285,13.961105170466707,77.65379812663198,15.573298831920233,194.13449531657994,38.93324707980058 Z" fill="#e377c2" fill-opacity="0.6" />
<text x="220.00000000000003" y="0" font-size="10" text-anchor="start" dominant-baseline="middle" transform="rotate(-7.117397)" font-family="Arial">Canada</text>
<text x="220.00000000000003" y="0" font-size="10" text-anchor="start" dominant-baseline="middle" transform="rotate(-22.555978)" font-family="Arial">Mexico</text>
<text x="220.00000000000003" y="0" font-size="10" text-anchor="start" dominant-baseline="middle" transform="rotate(-53.891060)" font-family="Arial">United Sta.</text>
<text x="220.00000000000006" y="0" font-size="10" text-anchor="start" dominant-baseline="middle" transform="rotate(-78.444369)" font-family="Arial">Costa Rica</text>
<text x="220.00000000000003" y="0" font-size="10" text-anchor="start" dominant-baseline="middle" transform="rotate(-80.837618)" font-family="Arial">Dominican .</text>
<text x="220.00000000000006" y="0" font-size="10" text-anchor="start" dominant-baseline="middle" transform="rotate(-83.244292)" font-family="Arial">Guatemala</text>
<text x="-220.0" y="0" font-size="10" text-anchor="end" dominant-baseline="middle" transform="rotate(86.381882)" font-family="Arial">Argentina</text>
<text x="-220.00000000000003" y="0" font-size="10" text-anchor="end" dominant-baseline="middle" transform="rotate(66.723732)" font-family="Arial">Brazil</text>
<text x="-220.00000000000003" y="0" font-size="10" text-anchor="end" dominant-baseline="middle" transform="rotate(48.844025)" font-family="Arial">Colombia</text>
<text x="-220.00000000000003" y="0" font-size="10" text-anchor="end" dominant-baseline="middle" transform="rotate(28.426496)" font-family="Arial">Germany</text>
<text x="-220.0" y="0" font-size="10" text-anchor="end" dominant-baseline="middle" transform="rotate(8.000271)" font-family="Arial">Spain</text>
<text x="-220.0" y="0" font-size="10" text-anchor="end" dominant-baseline="middle" transform="rotate(-11.677920)" font-family="Arial">France</text>
<text x="-220.00000000000003" y="0" font-size="10" text-anchor="end" dominant-baseline="middle" transform="rotate(-34.442136)" font-family="Arial">United Kin.</text>
<text x="-220.00000000000003" y="0" font-size="10" text-anchor="end" dominant-baseline="middle" transform="rotate(-54.442022)" font-family="Arial">Italy</text>
<text x="-220.00000000000003" y="0" font-size="10" text-anchor="end" dominant-baseline="middle" transform="rotate(-64.796273)" font-family="Arial">Indonesia</text>
<text x="-220.00000000000003" y="0" font-size="10" text-anchor="end" dominant-baseline="middle" transform="rotate(-69.683476)" font-family="Arial">India</text>
<text x="-220.0" y="0" font-size="10" text-anchor="end" dominant-baseline="middle" transform="rotate(-85.160021)" font-family="Arial">Japan</text>
<text x="220.00000000000003" y="0" font-size="10" text-anchor="start" dominant-baseline="middle" transform="rotate(-277.717059)" font-family="Arial">Egypt</text>
<text x="220.00000000000003" y="0" font-size="10" text-anchor="start" dominant-baseline="middle" transform="rotate(-283.910463)" font-family="Arial">Nigeria</text>
<text x="220.00000000000003" y="0" font-size="10" text-anchor="start" dominant-baseline="middle" transform="rotate(-296.710788)" font-family="Arial">South Afri.</text>
<text x="220.00000000000006" y="0" font-size="10" text-anchor="start" dominant-baseline="middle" transform="rotate(-318.962279)" font-family="Arial">Australia</text>
<text x="220.0" y="0" font-size="10" text-anchor="start" dominant-baseline="middle" transform="rotate(-341.486974)" font-family="Arial">New Zealan.</text>
<text x="220.00000000000003" y="0" font-size="10" text-anchor="start" dominant-baseline="middle" transform="rotate(-354.635102)" font-family="Arial">Papua New .</text>
<text x="-295.0" y="-285.0" font-size="8" text-anchor="start" dominant-baseline="middle" font-family="Arial" font-weight="bold">Continents</text>
<circle cx="-290.5" cy="-274.5" r="4.5" fill="#8c564b" stroke="#333" stroke-width="0.5" />
<text x="-278.0" y="-271.0" font-size="6" text-anchor="start" dominant-baseline="middle" font-family="Arial">Africa</text>
<circle cx="-290.5" cy="-262.5" r="4.5" fill="#9467bd" stroke="#333" stroke-width="0.5" />
<text x="-278.0" y="-259.0" font-size="6" text-anchor="start" dominant-baseline="middle" font-family="Arial">Asia</text>
<circle cx="-290.5" cy="-250.5" r="4.5" fill="#ff7f0e" stroke="#333" stroke-width="0.5" />
<text x="-278.0" y="-247.0" font-size="6" text-anchor="start" dominant-baseline="middle" font-family="Arial">Central America</text>
<circle cx="-290.5" cy="-238.5" r="4.5" fill="#d62728" stroke="#333" stroke-width="0.5" />
<text x="-278.0" y="-235.0" font-size="6" text-anchor="start" dominant-baseline="middle" font-family="Arial">Europe</text>
<circle cx="-290.5" cy="-226.5" r="4.5" fill="#1f77b4" stroke="#333" stroke-width="0.5" />
<text x="-278.0" y="-223.0" font-size="6" text-anchor="start" dominant-baseline="middle" font-family="Arial">North America</text>
<circle cx="-290.5" cy="-214.5" r="4.5" fill="#e377c2" stroke="#333" stroke-width="0.5" />
<text x="-278.0" y="-211.0" font-size="6" text-anchor="start" dominant-baseline="middle" font-family="Arial">Oceania</text>
<circle cx="-290.5" cy="-202.5" r="4.5" fill="#2ca02c" stroke="#333" stroke-width="0.5" />
<text x="-278.0" y="-199.0" font-size="6" text-anchor="start" dominant-baseline="middle" font-family="Arial">South America</text>
</svg>