<?xml version="1.0" encoding="UTF-8"?>
<svg xmlns="http://www.w3.org/2000/svg" xmlns:xlink="http://www.w3.org/1999/xlink"
     width="600.0" height="600.0" viewBox="-300.0 -300.0 600.0 600.0">
<defs>
</defs>
<rect x="-300.0" y="-300.0" width="600.0" height="600.0" fill="#ffffff" fill-opacity="1.0" />
<path d="M200.0,-0.0 A200,200,0,0,0,193.08698786479425,-52.1288319195893 L206.60307701532986,-55.77785015396056 A214.0,214.0,0,0,1,214.0,-0.0 Z" fill="#1f77b4" fill-opacity="0.9" />
<path d="M192.556053964753,-54.0570631973578 A200,200,0,0,0,171.96334347542637,-102.12055865863903 L184.00077751870623,-109.26899776474376 A214.0,214.0,0,0,1,206.03497774228572,-57.84105762117285 Z" fill="#1f77b4" fill-opacity="0.9" />
<path d="M170.9335568133254,-103.83505744759648 A200,200,0,0,0,42.01020904580667,-195.53808410621093 L44.95092367901314,-209.2257499936457 A214.0,214.0,0,0,1,182.8989057902582,-111.10351146892825 Z" fill="#1f77b4" fill-opacity="0.9" />
<path d="M40.0527603013142,-195.94840237227115 A200,200,0,0,0,33.17872289962191,-197.22873103772204 L35.50123350259545,-211.0347422103626 A214.0,214.0,0,0,1,42.8564535224062,-209.66479053833015 Z" fill="#ff7f0e" fill-opacity="0.9" />
<path d="M31.204809538214946,-197.55065138258524 A200,200,0,0,0,24.28587546111379,-198.52001474180702 L25.985886743391756,-212.41641577373352 A214.0,214.0,0,0,1,33.38914620588999,-211.3791969793662 Z" fill="#ff7f0e" fill-opacity="0.9" />
<path d="M22.299494116545432,-198.75294353077177 A200,200,0,0,0,15.5257304141389,-199.39646861242926 L16.612531543128625,-213.35422141529932 A214.0,214.0,0,0,1,23.860458704703614,-212.66564957792582 Z" fill="#ff7f0e" fill-opacity="0.9" />
<path d="M13.531022680541534,-199.5417535886128 A200,200,0,0,0,-50.87839541422924,-193.42023906528846 L-54.43988309322529,-206.95965579985867 A214.0,214.0,0,0,1,14.478194268179443,-213.5096763398157 Z" fill="#2ca02c" fill-opacity="0.9" />
<path d="M-52.81002166976535,-192.90179265947455 A200,200,0,0,0,-114.37868243543596,-164.06558750796492 L-122.38519020591649,-175.55017863352248 A214.0,214.0,0,0,1,-56.50672318664893,-206.4049181456378 Z" fill="#2ca02c" fill-opacity="0.9" />
<path d="M-116.01359207992357,-162.91361653561404 A200,200,0,0,0,-150.87151613194544,-131.2927477816202 L-161.43252226118162,-140.4832401263336 A214.0,214.0,0,0,1,-124.13454352551823,-174.31756969310703 Z" fill="#2ca02c" fill-opacity="0.9" />
<path d="M-152.1768782148027,-129.7774931827438 A200,200,0,0,0,-192.24160890638242,-55.16487836554621 L-205.6985215298292,-59.02641985113445 A214.0,214.0,0,0,1,-162.82925968983892,-138.86191770553586 Z" fill="#d62728" fill-opacity="0.9" />
<path d="M-192.78363649559253,-53.239736095657385 A200,200,0,0,0,-199.94604449205008,4.645351653334396 L-213.9422676064936,4.970526269067804 A214.0,214.0,0,0,1,-206.27849105028403,-56.96651762235341 Z" fill="#d62728" fill-opacity="0.9" />
<path d="M-199.8895945308241,6.644546508433617 A200,200,0,0,0,-181.18323037492158,84.69142241637049 L-193.8660565011661,90.61982198551642 A214.0,214.0,0,0,1,-213.8818661479818,7.109664764023971 Z" fill="#d62728" fill-opacity="0.9" />
<path d="M-180.32727117989836,86.49898998723276 A200,200,0,0,0,-134.25609013487636,148.24069030362733 L-143.6540164443177,158.61753862488126 A214.0,214.0,0,0,1,-192.95018016249125,92.55391928633907 Z" fill="#d62728" fill-opacity="0.9" />
<path d="M-132.7669951899314,149.5758168563245 A200,200,0,0,0,-74.30077681144024,185.68627995955046 L-79.50183118824107,198.684319556719 A214.0,214.0,0,0,1,-142.0606848532266,160.04612403626723 Z" fill="#d62728" fill-opacity="0.9" />
<path d="M-72.44022995152135,186.41999110763498 A200,200,0,0,0,-59.958631109822925,190.80084526918682 L-64.15573528751054,204.15690443802993 A214.0,214.0,0,0,1,-77.51104604812784,199.46939048516944 Z" fill="#9467bd" fill-opacity="0.9" />
<path d="M-58.047656550540175,191.39088162446646 A200,200,0,0,0,-39.703198201260584,196.01952977341676 L-42.48242207534883,209.74089685755595 A214.0,214.0,0,0,1,-62.11099250907799,204.78824333817911 Z" fill="#9467bd" fill-opacity="0.9" />
<path d="M-37.741050429917614,196.4067542434486 A200,200,0,0,0,37.02689427944137,196.54263939415048 L39.61877687900227,210.30062415174103 A214.0,214.0,0,0,1,-40.38292396001185,210.15522704049002 Z" fill="#9467bd" fill-opacity="0.9" />
<path d="M38.9904365871539,196.16254957239704 A200,200,0,0,0,44.24799202356487,195.0438801959255 L47.345351465214414,208.6969518096403 A214.0,214.0,0,0,1,41.719767148254675,209.89392804246484 Z" fill="#8c564b" fill-opacity="0.9" />
<path d="M46.196185937208675,194.59165553757654 A200,200,0,0,0,76.14317774741238,184.93841267439808 L81.47320018973126,197.88410156160595 A214.0,214.0,0,0,1,49.42991895281329,208.21307142520692 Z" fill="#8c564b" fill-opacity="0.9" />
<path d="M77.9887239240805,184.16774674381384 A200,200,0,0,0,119.31030133229312,160.51495879199987 L127.66202242555364,171.75100590743986 A214.0,214.0,0,0,1,83.44793459876614,197.0594890158808 Z" fill="#8c564b" fill-opacity="0.9" />
<path d="M120.90945870249956,159.31384998256917 A200,200,0,0,0,181.25726305454378,84.53286100668736 L193.94527146836185,90.45016127715547 A214.0,214.0,0,0,1,129.37312081167454,170.46581948134903 Z" fill="#e377c2" fill-opacity="0.9" />
<path d="M182.09351478824178,82.71609197770633 A200,200,0,0,0,198.98597665879544,20.114201280322455 L212.91499502491112,21.522195369945027 A214.0,214.0,0,0,1,194.84006082341872,88.50621841614577 Z" fill="#e377c2" fill-opacity="0.9" />
<path d="M199.17716610332613,18.12336897621504 A200,200,0,0,0,199.99000008333306,1.999966666834405 L213.9893000891664,2.1399643335128133 A214.0,214.0,0,0,1,213.11956773055897,19.392004804550094 Z" fill="#e377c2" fill-opacity="0.9" />
<path d="M193.0,-0.0 A193.0,193.0,0,0,0,191.18833937615915,-26.38216986122613 L196.1414051631063,-27.065645764366703 A198.0,198.0,0,0,1,198.0,-0.0 Z" fill="#1f77b4" fill-opacity="0.6" />
<path d="M185.81659207598665,-52.165065985450276 A193.0,193.0,0,0,0,178.1504883720203,-74.23882739382847 L182.76578599823844,-76.1621130776064 A198.0,198.0,0,0,1,190.63049342510547,-53.516492565384226 Z" fill="#1f77b4" fill-opacity="0.6" />
<path d="M164.95088232485898,-100.20083043693062 A193.0,193.0,0,0,0,51.39083019809315,-186.0322084251831 L52.72219885607483,-190.8516956900842 A198.0,198.0,0,0,1,169.22422124519213,-102.79670687312053 Z" fill="#1f77b4" fill-opacity="0.6" />
<path d="M13.05743688672258,-192.55779221301137 A193.0,193.0,0,0,0,-42.742204186107855,-188.20760872322103 L-43.849515175385264,-193.0834535087967 A198.0,198.0,0,0,1,13.39571245373612,-197.54633605272667 Z" fill="#2ca02c" fill-opacity="0.6" />
<path d="M-50.961670911323566,-186.15022991639296 A193.0,193.0,0,0,0,-106.28023955940807,-161.100933203985 L-109.03361364125803,-165.27453250978772 A198.0,198.0,0,0,1,-52.281921453067696,-190.9727747328798 Z" fill="#2ca02c" fill-opacity="0.6" />
<path d="M-111.95311635712625,-157.21163995686754 A193.0,193.0,0,0,0,-132.16761875432846,-140.64394957768528 L-135.5916503282748,-144.2875752144129 A198.0,198.0,0,0,1,-114.85345615912433,-161.2844803702579 Z" fill="#2ca02c" fill-opacity="0.6" />
<path d="M-146.8506874772846,-125.23528092134775 A193.0,193.0,0,0,0,-185.3621311624851,-53.75760719099827 L-190.16425891280855,-55.1502913151174 A198.0,198.0,0,0,1,-150.65510943265468,-128.47971825091633 Z" fill="#d62728" fill-opacity="0.6" />
<path d="M-186.0362092182468,-51.37634533230938 A193.0,193.0,0,0,0,-192.70869504474905,-10.599945950329973 L-197.7011482842503,-10.874555949043184 A198.0,198.0,0,0,1,-190.85580013063662,-52.70733873470081 Z" fill="#d62728" fill-opacity="0.6" />
<path d="M-192.89345872224524,6.411987380638441 A193.0,193.0,0,0,0,-189.74159999765027,35.314660274901186 L-194.65718548981738,36.22954784678982 A198.0,198.0,0,0,1,-197.89069858551585,6.578101043349281 Z" fill="#d62728" fill-opacity="0.6" />
<path d="M-174.01581668860194,83.47152533767961 A193.0,193.0,0,0,0,-133.37686941238056,139.49770860395085 L-136.83222872358215,143.1116388786646 A198.0,198.0,0,0,1,-178.5239984680994,85.63400008736043 Z" fill="#d62728" fill-opacity="0.6" />
<path d="M-128.1201503582838,144.34066326635315 A193.0,193.0,0,0,0,-76.04204501350455,177.38829552753515 L-78.01204617965752,181.98384722513967 A198.0,198.0,0,0,1,-131.4393252380321,148.08005868776127 Z" fill="#d62728" fill-opacity="0.6" />
<path d="M-69.90482190321809,179.89529141886777 A193.0,193.0,0,0,0,-60.824242707478966,183.16498436945224 L-62.400000290574276,187.9101912184018 A198.0,198.0,0,0,1,-71.71582765200613,184.55579119655863 Z" fill="#9467bd" fill-opacity="0.6" />
<path d="M-56.015988571271265,184.69220076761013 A193.0,193.0,0,0,0,-41.566922328846836,188.47066341504615 L-42.64378560161489,193.35332308901107 A198.0,198.0,0,0,1,-57.46717998503477,189.47697280822177 Z" fill="#9467bd" fill-opacity="0.6" />
<path d="M-36.4201136648705,189.5325178449279 A193.0,193.0,0,0,0,35.65303813204418,189.67830891262977 L36.57669196966191,194.59225473938181 A198.0,198.0,0,0,1,-37.36363992561844,194.4426867010141 Z" fill="#9467bd" fill-opacity="0.6" />
<path d="M44.57931942940637,187.78094759376137 A193.0,193.0,0,0,0,51.567364111648196,185.98335129407872 L52.903306187079494,190.80157283019474 A198.0,198.0,0,0,1,45.734224077836586,192.64573898220078 Z" fill="#8c564b" fill-opacity="0.6" />
<path d="M75.25911858673769,177.72187560778036 A193.0,193.0,0,0,0,112.26948560998794,156.98586751955958 L115.17802150661976,161.05285890607666 A198.0,198.0,0,0,1,77.2088366848397,182.3260692763757 Z" fill="#8c564b" fill-opacity="0.6" />
<path d="M116.67762764791208,153.73786523317924 A193.0,193.0,0,0,0,173.37597529537877,84.79251848115028 L177.86758087297923,86.98921585112826 A198.0,198.0,0,0,1,119.70036411547457,157.72071148274347 Z" fill="#e377c2" fill-opacity="0.6" />
<path d="M175.72024177065333,79.8210287584866 A193.0,193.0,0,0,0,190.80024157579487,29.056287006744707 L195.7432530155823,29.809040556142236 A198.0,198.0,0,0,1,180.27257964035937,81.88893105792927 Z" fill="#e377c2" fill-opacity="0.6" />
<path d="M196.01269085566977,-27.982584289511838 A198.0,198.0,0,0,0,191.1561179861463,-51.6075436003934 C76.46244719445853,-20.64301744015736,20.8060114936816,-76.41825623321164,52.015028734203995,-191.04564058302907 A198.0,198.0,0,0,0,51.26299735666355,-191.24880418452477 C20.50519894266542,-76.49952167380991,78.40507634226792,-11.193033715804736,196.01269085566977,-27.982584289511838 Z" fill="#1f77b4" fill-opacity="0.6" />
<path d="M196.0134599593435,-27.977196334994783 A198.0,198.0,0,0,0,196.01269085566977,-27.982584289511838 C78.40507634226792,-11.193033715804736,6.71961610041987,-78.91442681451205,16.799040251049675,-197.28606703628012 A198.0,198.0,0,0,0,16.727632179046125,-197.29213446481475 C6.69105287161845,-78.91685378592591,78.40538398373741,-11.190878533997914,196.0134599593435,-27.977196334994783 Z" fill="#1f77b4" fill-opacity="0.6" />
<path d="M196.05585864596833,-27.678516770088752 A198.0,198.0,0,0,0,196.0134599593435,-27.977196334994783 C78.40538398373741,-11.190878533997914,-23.748007639421516,75.55575512929492,-59.37001909855378,188.8893878232373 A198.0,198.0,0,0,0,-59.36779506257715,188.8900868479017 C-23.74711802503086,75.55603473916068,78.42234345838733,-11.071406708035502,196.05585864596833,-27.678516770088752 Z" fill="#9467bd" fill-opacity="0.6" />
<path d="M196.05735834792813,-27.667891817630363 A198.0,198.0,0,0,0,196.05585864596833,-27.678516770088752 C78.42234345838733,-11.071406708035502,71.29498284966235,34.49152679233484,178.23745712415587,86.2288169808371 A198.0,198.0,0,0,0,179.08495382583808,84.45459912401124 C71.63398153033523,33.7818396496045,78.42294333917125,-11.067156727052145,196.05735834792813,-27.667891817630363 Z" fill="#1f77b4" fill-opacity="0.6" />
<path d="M196.05801991673,-27.663203471960784 A198.0,198.0,0,0,0,196.05735834792813,-27.667891817630363 C78.42294333917125,-11.067156727052145,78.74991613490236,8.43153062888625,196.8747903372559,21.078826572215625 A198.0,198.0,0,0,0,196.9363162136235,20.496032694345857 C78.77452648544941,8.198413077738342,78.423207966692,-11.065281388784314,196.05801991673,-27.663203471960784 Z" fill="#1f77b4" fill-opacity="0.6" />
<path d="M196.1414051631063,-27.065645764366703 A198.0,198.0,0,0,0,196.05801991673,-27.663203471960784 C78.423207966692,-11.065281388784314,79.1960318398875,0.7928056606290578,197.99007959971874,1.9820141515726444 A198.0,198.0,0,0,0,197.9901000824997,1.979967000166061 C79.19604003299989,0.7919868000664244,78.45656206524252,-10.826258305746682,196.1414051631063,-27.065645764366703 Z" fill="#e377c2" fill-opacity="0.6" />
<path d="M181.3557367518611,-79.46129087291285 A198.0,198.0,0,0,0,170.2437100406721,-101.09935307205264 C68.09748401626885,-40.439741228821056,21.088879542429936,-76.34067827603369,52.72219885607483,-190.8516956900842 A198.0,198.0,0,0,0,52.015028734203995,-191.04564058302907 C20.8060114936816,-76.41825623321164,72.54229470074443,-31.784516349165145,181.3557367518611,-79.46129087291285 Z" fill="#1f77b4" fill-opacity="0.6" />
<path d="M181.37996968540716,-79.40596071404707 A198.0,198.0,0,0,0,181.3557367518611,-79.46129087291285 C72.54229470074443,-31.784516349165145,7.033752694002986,-78.88704787884768,17.584381735007465,-197.21761969711918 A198.0,198.0,0,0,0,16.799040251049675,-197.28606703628012 C6.71961610041987,-78.91442681451205,72.55198787416286,-31.76238428561883,181.37996968540716,-79.40596071404707 Z" fill="#1f77b4" fill-opacity="0.6" />
<path d="M181.66175277059648,-78.75917457867803 A198.0,198.0,0,0,0,181.37996968540716,-79.40596071404707 C72.55198787416286,-31.76238428561883,-76.0687583387334,-22.04958060379786,-190.1718958468335,-55.123951509494646 A198.0,198.0,0,0,0,-190.17516529442628,-55.112671004385525 C-76.07006611777051,-22.04506840175421,72.66470110823859,-31.503669831471214,181.66175277059648,-78.75917457867803 Z" fill="#d62728" fill-opacity="0.6" />
<path d="M181.94122947804286,-78.11138851677225 A198.0,198.0,0,0,0,181.66175277059648,-78.75917457867803 C72.66470110823859,-31.503669831471214,-79.14316296215463,-2.999959390698171,-197.85790740538656,-7.499898476745428 A198.0,198.0,0,0,0,-197.85821474390622,-7.491786059030741 C-79.14328589756249,-2.9967144236122962,72.77649179121714,-31.2445554067089,181.94122947804286,-78.11138851677225 Z" fill="#d62728" fill-opacity="0.6" />
<path d="M182.21839625950986,-77.46261075262208 A198.0,198.0,0,0,0,181.94122947804286,-78.11138851677225 C72.77649179121714,-31.2445554067089,-73.9814003329562,28.273528339683203,-184.9535008323905,70.683820849208 A198.0,198.0,0,0,0,-184.94960312186038,70.6940188775991 C-73.97984124874415,28.277607551039644,72.88735850380395,-30.985044301048834,182.21839625950986,-77.46261075262208 Z" fill="#d62728" fill-opacity="0.6" />
<path d="M182.49324959608776,-76.81284952311044 A198.0,198.0,0,0,0,182.21839625950986,-77.46261075262208 C72.88735850380395,-30.985044301048834,-53.60736882466094,58.30000006601005,-134.01842206165233,145.7500001650251 A198.0,198.0,0,0,0,-134.00983880905468,145.7578920757678 C-53.60393552362188,58.30315683030713,72.99729983843511,-30.72513980924418,182.49324959608776,-76.81284952311044 Z" fill="#d62728" fill-opacity="0.6" />
<path d="M182.76578599823844,-76.1621130776064 A198.0,198.0,0,0,0,182.49324959608776,-76.81284952311044 C72.99729983843511,-30.72513980924418,79.19602233396633,0.7937546711088859,197.9900558349158,1.9843866777722146 A198.0,198.0,0,0,0,197.99007959971874,1.9820141515726444 C79.1960318398875,0.7928056606290578,73.10631439929539,-30.464845231042563,182.76578599823844,-76.1621130776064 Z" fill="#e377c2" fill-opacity="0.6" />
<path d="M43.07521299013328,-193.2576674438938 A198.0,198.0,0,0,0,41.59010695534856,-193.58270326514884 C16.636042782139423,-77.43308130605953,15.860893079320423,-77.59556733941938,39.652232698301056,-193.98891834854842 A198.0,198.0,0,0,0,33.11997394164205,-195.21031562421325 C13.24798957665682,-78.08412624968531,17.230085196053313,-77.30306697755753,43.07521299013328,-193.2576674438938 Z" fill="#1f77b4" fill-opacity="0.6" />
<path d="M44.53297872353393,-192.926964953086 A198.0,198.0,0,0,0,43.07521299013328,-193.2576674438938 C17.230085196053313,-77.30306697755753,12.35710457713312,-78.23005794750377,30.892761442832796,-195.5751448687594 A198.0,198.0,0,0,0,24.424405119425696,-196.48778189638708 C9.769762047770278,-78.59511275855483,17.813191489413573,-77.17078598123442,44.53297872353393,-192.926964953086 Z" fill="#1f77b4" fill-opacity="0.6" />
<path d="M45.5478955373947,-192.68987833333276 A198.0,198.0,0,0,0,44.53297872353393,-192.926964953086 C17.813191489413573,-77.17078598123442,8.830599670151992,-78.70616563818562,22.07649917537998,-196.76541409546405 A198.0,198.0,0,0,0,17.584381735007465,-197.21761969711918 C7.033752694002986,-78.88704787884768,18.219158214957883,-77.07595133333311,45.5478955373947,-192.68987833333276 Z" fill="#1f77b4" fill-opacity="0.6" />
<path d="M45.66699842108167,-192.66168600738686 A198.0,198.0,0,0,0,45.5478955373947,-192.68987833333276 C18.219158214957883,-77.07595133333311,-17.539806070154107,-77.23338140351869,-43.849515175385264,-193.0834535087967 A198.0,198.0,0,0,0,-48.744723622775794,-191.90610182831395 C-19.497889449110318,-76.76244073132558,18.266799368432668,-77.06467440295475,45.66699842108167,-192.66168600738686 Z" fill="#1f77b4" fill-opacity="0.6" />
<path d="M45.74961098423001,-192.64208547145563 A198.0,198.0,0,0,0,45.66699842108167,-192.66168600738686 C18.266799368432668,-77.06467440295475,-43.618150383434084,-66.1067088662575,-109.0453759585852,-165.26677216564377 A198.0,198.0,0,0,0,-112.04532448834311,-163.2478032326987 C-44.81812979533725,-65.29912129307948,18.299844393692005,-77.05683418858226,45.74961098423001,-192.64208547145563 Z" fill="#1f77b4" fill-opacity="0.6" />
<path d="M46.33903489620144,-192.5011528404145 A198.0,198.0,0,0,0,45.74961098423001,-192.64208547145563 C18.299844393692005,-77.05683418858226,-54.23666013130992,-57.715030085765164,-135.5916503282748,-144.2875752144129 A198.0,198.0,0,0,0,-149.34921856317467,-129.99542651404732 C-59.73968742526987,-51.99817060561893,18.535613958480578,-77.00046113616581,46.33903489620144,-192.5011528404145 Z" fill="#1f77b4" fill-opacity="0.6" />
<path d="M47.0960314838795,-192.31735183926963 A198.0,198.0,0,0,0,46.33903489620144,-192.5011528404145 C18.535613958480578,-77.00046113616581,-73.9819716885637,28.272033267392676,-184.95492922140926,70.68008316848169 A198.0,198.0,0,0,0,-184.9535008323905,70.683820849208 C-73.9814003329562,28.273528339683203,18.8384125935518,-76.92694073570786,47.0960314838795,-192.31735183926963 Z" fill="#d62728" fill-opacity="0.6" />
<path d="M47.14355035472934,-192.30570885949044 A198.0,198.0,0,0,0,47.0960314838795,-192.31735183926963 C18.8384125935518,-76.92694073570786,-54.39268561279326,57.56800979561334,-135.98171403198313,143.92002448903335 A198.0,198.0,0,0,0,-134.01842206165233,145.7500001650251 C-53.60736882466094,58.30000006601005,18.857420141891737,-76.92228354379618,47.14355035472934,-192.30570885949044 Z" fill="#1f77b4" fill-opacity="0.6" />
<path d="M50.917126357103776,-191.34117759524406 A198.0,198.0,0,0,0,47.14355035472934,-192.30570885949044 C18.857420141891737,-76.92228354379618,-24.201020638512844,75.41187307085188,-60.50255159628211,188.5296826771297 A198.0,198.0,0,0,0,-59.37001909855378,188.8893878232373 C-23.748007639421516,75.55575512929492,20.36685054284151,-76.53647103809763,50.917126357103776,-191.34117759524406 Z" fill="#1f77b4" fill-opacity="0.6" />
<path d="M51.061848870202724,-191.3026073788765 A198.0,198.0,0,0,0,50.917126357103776,-191.34117759524406 C20.36685054284151,-76.53647103809763,27.562415777889637,74.24926421512028,68.90603944472409,185.6231605378007 A198.0,198.0,0,0,0,71.84155782101696,184.5068848846825 C28.736623128406787,73.80275395387301,20.424739548081092,-76.5210429515506,51.061848870202724,-191.3026073788765 Z" fill="#1f77b4" fill-opacity="0.6" />
<path d="M51.097085321540625,-191.29319870722847 A198.0,198.0,0,0,0,51.061848870202724,-191.3026073788765 C20.424739548081092,-76.5210429515506,46.78662484410415,63.90345636737544,116.96656211026038,159.7586409184386 A198.0,198.0,0,0,0,118.1171983189702,158.90980920407986 C47.24687932758808,63.56392368163195,20.43883412861625,-76.5172794828914,51.097085321540625,-191.29319870722847 Z" fill="#1f77b4" fill-opacity="0.6" />
<path d="M51.109689810017805,-191.2898314274017 A198.0,198.0,0,0,0,51.097085321540625,-191.29319870722847 C20.43883412861625,-76.5172794828914,71.15741287206156,34.774453171185435,177.8935321801539,86.93613292796358 A198.0,198.0,0,0,0,178.23745712415587,86.2288169808371 C71.29498284966235,34.49152679233484,20.443875924007124,-76.51593257096069,51.109689810017805,-191.2898314274017 Z" fill="#1f77b4" fill-opacity="0.6" />
<path d="M51.179208336024715,-191.27124361518065 A198.0,198.0,0,0,0,51.109689810017805,-191.2898314274017 C20.443875924007124,-76.51593257096069,78.61652095263003,9.595969638587064,196.54130238157504,23.98992409646766 A198.0,198.0,0,0,0,196.8747903372559,21.078826572215625 C78.74991613490236,8.43153062888625,20.47168333440989,-76.50849744607227,51.179208336024715,-191.27124361518065 Z" fill="#1f77b4" fill-opacity="0.6" />
<path d="M51.26299735666355,-191.24880418452477 A198.0,198.0,0,0,0,51.179208336024715,-191.27124361518065 C20.47168333440989,-76.50849744607227,79.19119356753697,1.1810424839497846,197.9779839188424,2.9526062098744617 A198.0,198.0,0,0,0,197.9900558349158,1.9843866777722146 C79.19602233396633,0.7937546711088859,20.50519894266542,-76.49952167380991,51.26299735666355,-191.24880418452477 Z" fill="#1f77b4" fill-opacity="0.6" />
<path d="M33.028968355842075,-195.22573408582377 A198.0,198.0,0,0,0,32.84693567062569,-195.25644372734482 C13.138774268250277,-78.10257749093793,14.649711898121067,77.83332153584382,36.624279745302665,194.58330383960956 A198.0,198.0,0,0,0,36.64351471231736,194.57968246846374 C14.657405884926945,77.83187298738551,13.21158734233683,-78.09029363432951,33.028968355842075,-195.22573408582377 Z" fill="#9467bd" fill-opacity="0.6" />
<path d="M33.11997394164205,-195.21031562421325 A198.0,198.0,0,0,0,33.028968355842075,-195.22573408582377 C13.21158734233683,-78.09029363432951,79.19117950253539,1.1819851933166454,197.97794875633846,2.9549629832916136 A198.0,198.0,0,0,0,197.9779839188424,2.9526062098744617 C79.19119356753697,1.1810424839497846,13.24798957665682,-78.08412624968531,33.11997394164205,-195.21031562421325 Z" fill="#e377c2" fill-opacity="0.6" />
<path d="M24.424405119425696,-196.48778189638708 A198.0,198.0,0,0,0,24.04301670650265,-196.53481459438893 C9.617206682601061,-78.61392583775557,14.633691082752769,77.83633525092611,36.58422770688192,194.59083812731527 A198.0,198.0,0,0,0,36.624279745302665,194.58330383960956 C14.649711898121067,77.83332153584382,9.769762047770278,-78.59511275855483,24.424405119425696,-196.48778189638708 Z" fill="#9467bd" fill-opacity="0.6" />
<path d="M15.513367304475242,-197.39132563229936 A198.0,198.0,0,0,0,15.37047310999751,-197.40250392630497 C6.1481892439990045,-78.961001570522,-43.613445456503214,-66.1098130039151,-109.03361364125803,-165.27453250978772 A198.0,198.0,0,0,0,-109.0453759585852,-165.26677216564377 C-43.618150383434084,-66.1067088662575,6.205346921790097,-78.95653025291975,15.513367304475242,-197.39132563229936 Z" fill="#2ca02c" fill-opacity="0.6" />
<path d="M15.727693330309489,-197.37436424852072 A198.0,198.0,0,0,0,15.513367304475242,-197.39132563229936 C6.205346921790097,-78.95653025291975,-76.06570356512343,-22.06011652604696,-190.16425891280855,-55.1502913151174 A198.0,198.0,0,0,0,-190.1718958468335,-55.123951509494646 C-76.0687583387334,-22.04958060379786,6.291077332123796,-78.9497456994083,15.727693330309489,-197.37436424852072 Z" fill="#d62728" fill-opacity="0.6" />
<path d="M16.513394852019104,-197.3101816695259 A198.0,198.0,0,0,0,15.727693330309489,-197.37436424852072 C6.291077332123796,-78.9497456994083,-54.42170426339362,57.54057790001525,-136.05426065848405,143.85144475003813 A198.0,198.0,0,0,0,-135.98171403198313,143.92002448903335 C-54.39268561279326,57.56800979561334,6.605357940807642,-78.92407266781036,16.513394852019104,-197.3101816695259 Z" fill="#d62728" fill-opacity="0.6" />
<path d="M16.58480947017556,-197.3041917822274 A198.0,198.0,0,0,0,16.513394852019104,-197.3101816695259 C6.605357940807642,-78.92407266781036,14.630676787864765,77.83690189575273,36.57669196966191,194.59225473938181 A198.0,198.0,0,0,0,36.58422770688192,194.59083812731527 C14.633691082752769,77.83633525092611,6.633923788070224,-78.92167671289097,16.58480947017556,-197.3041917822274 Z" fill="#9467bd" fill-opacity="0.6" />
<path d="M16.727632179046125,-197.29213446481475 A198.0,198.0,0,0,0,16.58480947017556,-197.3041917822274 C6.633923788070224,-78.92167671289097,78.61586782248752,9.601318998823734,196.53966955621877,24.003297497059332 A198.0,198.0,0,0,0,196.54130238157504,23.98992409646766 C78.61652095263003,9.595969638587064,6.69105287161845,-78.91685378592591,16.727632179046125,-197.29213446481475 Z" fill="#e377c2" fill-opacity="0.6" />
<path d="M-49.28674780493342,-191.7676106406212 A198.0,198.0,0,0,0,-50.369611460086944,-191.48603667463556 C-20.14784458403478,-76.59441466985423,-24.203654280738306,75.41102783717047,-60.50913570184576,188.52756959292614 A198.0,198.0,0,0,0,-60.50255159628211,188.5296826771297 C-24.201020638512844,75.41187307085188,-19.714699121973368,-76.70704425624848,-49.28674780493342,-191.7676106406212 Z" fill="#9467bd" fill-opacity="0.6" />
<path d="M-48.744723622775794,-191.90610182831395 A198.0,198.0,0,0,0,-49.28674780493342,-191.7676106406212 C-19.714699121973368,-76.70704425624848,79.19117043777926,1.1825923619726628,197.97792609444815,2.956480904931657 A198.0,198.0,0,0,0,197.97794875633846,2.9549629832916136 C79.19117950253539,1.1819851933166454,-19.497889449110318,-76.76244073132558,-48.744723622775794,-191.90610182831395 Z" fill="#e377c2" fill-opacity="0.6" />
<path d="M-112.04532448834311,-163.2478032326987 A198.0,198.0,0,0,0,-113.2348956110816,-162.42493163288526 C-45.293958244432645,-64.9699726531541,-24.206942808421513,75.40997228397455,-60.517357021053776,188.52493070993637 A198.0,198.0,0,0,0,-60.50913570184576,188.52756959292614 C-24.203654280738306,75.41102783717047,-44.81812979533725,-65.29912129307948,-112.04532448834311,-163.2478032326987 Z" fill="#9467bd" fill-opacity="0.6" />
<path d="M-149.34921856317467,-129.99542651404732 A198.0,198.0,0,0,0,-149.36280097062598,-129.979820303804 C-59.7451203882504,-51.991928121521596,-79.1007247021172,-3.9642592750557477,-197.751811755293,-9.910648187639369 A198.0,198.0,0,0,0,-197.85790740538656,-7.499898476745428 C-79.14316296215463,-2.999959390698171,-59.73968742526987,-51.99817060561893,-149.34921856317467,-129.99542651404732 Z" fill="#2ca02c" fill-opacity="0.6" />
<path d="M-190.31534066963613,-54.626651973192935 A198.0,198.0,0,0,0,-190.3191928173186,-54.61322958189075 C-76.12767712692744,-21.845291832756303,-79.08045931370013,-4.349822379617274,-197.7011482842503,-10.874555949043184 A198.0,198.0,0,0,0,-197.751811755293,-9.910648187639369 C-79.1007247021172,-3.9642592750557477,-76.12613626785445,-21.850660789277175,-190.31534066963613,-54.626651973192935 Z" fill="#d62728" fill-opacity="0.6" />
<path d="M-190.20903571679608,-54.99566102599912 A198.0,198.0,0,0,0,-190.31534066963613,-54.626651973192935 C-76.12613626785445,-21.850660789277175,-77.85240321014497,14.547965988584489,-194.6310080253624,36.36991497146122 A198.0,198.0,0,0,0,-184.95492922140926,70.68008316848169 C-73.9819716885637,28.272033267392676,-76.08361428671843,-21.99826441039965,-190.20903571679608,-54.99566102599912 Z" fill="#d62728" fill-opacity="0.6" />
<path d="M-190.20753385311374,-55.000855134412106 A198.0,198.0,0,0,0,-190.20903571679608,-54.99566102599912 C-76.08361428671843,-21.99826441039965,-54.57749844028979,57.39282763551702,-136.44374610072447,143.48206908879254 A198.0,198.0,0,0,0,-136.05426065848405,143.85144475003813 C-54.42170426339362,57.54057790001525,-76.0830135412455,-22.000342053764843,-190.20753385311374,-55.000855134412106 Z" fill="#d62728" fill-opacity="0.6" />
<path d="M-190.19485070500582,-55.04469788545075 A198.0,198.0,0,0,0,-190.20753385311374,-55.000855134412106 C-76.0830135412455,-22.000342053764843,-30.811991071343314,72.9606826052187,-77.02997767835828,182.40170651304672 A198.0,198.0,0,0,0,-73.63012292369733,183.80044885212118 C-29.452049169478933,73.52017954084847,-76.07794028200233,-22.017879154180303,-190.19485070500582,-55.04469788545075 Z" fill="#d62728" fill-opacity="0.6" />
<path d="M-190.19006331363067,-55.0612369708232 A198.0,198.0,0,0,0,-190.19485070500582,-55.04469788545075 C-76.07794028200233,-22.017879154180303,-24.508460576578685,75.31251795130932,-61.271151441446705,188.2812948782733 A198.0,198.0,0,0,0,-60.517357021053776,188.52493070993637 C-24.206942808421513,75.40997228397455,-76.07602532545228,-22.02449478832928,-190.19006331363067,-55.0612369708232 Z" fill="#d62728" fill-opacity="0.6" />
<path d="M-190.17850032499229,-55.10116164053987 A198.0,198.0,0,0,0,-190.19006331363067,-55.0612369708232 C-76.07602532545228,-22.02449478832928,17.404680074647946,77.26394444693562,43.51170018661986,193.15986111733903 A198.0,198.0,0,0,0,43.80551210332922,193.09344139396626 C17.52220484133169,77.23737655758651,-76.07140012999692,-22.04046465621595,-190.17850032499229,-55.10116164053987 Z" fill="#d62728" fill-opacity="0.6" />
<path d="M-190.17516529442628,-55.112671004385525 A198.0,198.0,0,0,0,-190.17850032499229,-55.10116164053987 C-76.07140012999692,-22.04046465621595,79.18966542076497,1.2794102341713607,197.9741635519124,3.1985255854284014 A198.0,198.0,0,0,0,197.97792609444815,2.956480904931657 C79.19117043777926,1.1825923619726628,-76.07006611777051,-22.04506840175421,-190.17516529442628,-55.112671004385525 Z" fill="#d62728" fill-opacity="0.6" />
<path d="M-197.90854195236696,-6.017393313404026 A198.0,198.0,0,0,0,-197.94658404712956,4.598898136801052 C-79.17863361885183,1.8395592547204211,-77.86287419592696,14.491819138715929,-194.65718548981738,36.22954784678982 A198.0,198.0,0,0,0,-194.6310080253624,36.36991497146122 C-77.85240321014497,14.547965988584489,-79.16341678094679,-2.4069573253616103,-197.90854195236696,-6.017393313404026 Z" fill="#d62728" fill-opacity="0.6" />
<path d="M-197.85924943981476,-7.4644096292449005 A198.0,198.0,0,0,0,-197.90854195236696,-6.017393313404026 C-79.16341678094679,-2.4069573253616103,-30.818208294581048,72.95805670048934,-77.04552073645262,182.39514175122332 A198.0,198.0,0,0,0,-77.02997767835828,182.40170651304672 C-30.811991071343314,72.9606826052187,-79.14369977592591,-2.9857638516979605,-197.85924943981476,-7.4644096292449005 Z" fill="#d62728" fill-opacity="0.6" />
<path d="M-197.85847816128205,-7.484825963339193 A198.0,198.0,0,0,0,-197.85924943981476,-7.4644096292449005 C-79.14369977592591,-2.9857638516979605,27.141360075847082,74.4042107224666,67.8534001896177,186.0105268061665 A198.0,198.0,0,0,0,68.90603944472409,185.6231605378007 C27.562415777889637,74.24926421512028,-79.14339126451283,-2.9939303853356773,-197.85847816128205,-7.484825963339193 Z" fill="#d62728" fill-opacity="0.6" />
<path d="M-197.85821474390622,-7.491786059030741 A198.0,198.0,0,0,0,-197.85847816128205,-7.484825963339193 C-79.14339126451283,-2.9939303853356773,46.55558113062247,64.07197410404981,116.38895282655616,160.17993526012452 A198.0,198.0,0,0,0,116.96656211026038,159.7586409184386 C46.78662484410415,63.90345636737544,-79.14328589756249,-2.9967144236122962,-197.85821474390622,-7.491786059030741 Z" fill="#d62728" fill-opacity="0.6" />
<path d="M-184.24216586435392,72.51775174129367 A198.0,198.0,0,0,0,-179.37139807117237,83.84450819220679 C-71.74855922846895,33.53780327688272,-54.73289148943286,57.24465555146584,-136.83222872358215,143.1116388786646 A198.0,198.0,0,0,0,-136.44374610072447,143.48206908879254 C-54.57749844028979,57.39282763551702,-73.69686634574157,29.00710069651747,-184.24216586435392,72.51775174129367 Z" fill="#d62728" fill-opacity="0.6" />
<path d="M-184.24802721484446,72.50285833977811 A198.0,198.0,0,0,0,-184.24216586435392,72.51775174129367 C-73.69686634574157,29.00710069651747,-24.80958602154177,75.21385804118627,-62.02396505385442,188.03464510296567 A198.0,198.0,0,0,0,-61.271151441446705,188.2812948782733 C-24.508460576578685,75.31251795130932,-73.69921088593779,29.001143335911248,-184.24802721484446,72.50285833977811 Z" fill="#d62728" fill-opacity="0.6" />
<path d="M-184.47817843782605,71.91523955505959 A198.0,198.0,0,0,0,-184.24802721484446,72.50285833977811 C-73.69921088593779,29.001143335911248,15.47960372780029,77.67252968991208,38.699009319500725,194.18132422478018 A198.0,198.0,0,0,0,43.51170018661986,193.15986111733903 C17.404680074647946,77.26394444693562,-73.79127137513042,28.766095822023836,-184.47817843782605,71.91523955505959 Z" fill="#d62728" fill-opacity="0.6" />
<path d="M-184.4821699176306,71.90499970434922 A198.0,198.0,0,0,0,-184.47817843782605,71.91523955505959 C-73.79127137513042,28.766095822023836,26.972693158003807,74.46552104030546,67.43173289500952,186.16380260076366 A198.0,198.0,0,0,0,67.8534001896177,186.0105268061665 C27.141360075847082,74.4042107224666,-73.79286796705225,28.76199988173969,-184.4821699176306,71.90499970434922 Z" fill="#d62728" fill-opacity="0.6" />
<path d="M-184.94960312186038,70.6940188775991 A198.0,198.0,0,0,0,-184.4821699176306,71.90499970434922 C-73.79286796705225,28.76199988173969,71.15473703915373,34.779928074808986,177.8868425978843,86.94982018702245 A198.0,198.0,0,0,0,177.8935321801539,86.93613292796358 C71.15741287206156,34.774453171185435,-73.97984124874415,28.277607551039644,-184.94960312186038,70.6940188775991 Z" fill="#e377c2" fill-opacity="0.6" />
<path d="M-132.923124551588,146.74959270622531 A198.0,198.0,0,0,0,-132.91352923352758,146.75828340059107 C-53.16541169341104,58.70331336023643,-31.204818471863007,72.79353889005587,-78.01204617965752,181.98384722513967 A198.0,198.0,0,0,0,-77.04552073645262,182.39514175122332 C-30.818208294581048,72.95805670048934,-53.1692498206352,58.69983708249013,-132.923124551588,146.74959270622531 Z" fill="#d62728" fill-opacity="0.6" />
<path d="M-132.93331895439246,146.7403581560634 A198.0,198.0,0,0,0,-132.923124551588,146.74959270622531 C-53.1692498206352,58.69983708249013,15.440212888512946,77.68036963066925,38.600532221282364,194.2009240766731 A198.0,198.0,0,0,0,38.699009319500725,194.18132422478018 C15.47960372780029,77.67252968991208,-53.173327581756986,58.69614326242536,-132.93331895439246,146.7403581560634 Z" fill="#d62728" fill-opacity="0.6" />
<path d="M-133.20276178104527,146.4958165064863 A198.0,198.0,0,0,0,-132.93331895439246,146.7403581560634 C-53.173327581756986,58.69614326242536,21.67964929464585,76.17501431874602,54.19912323661462,190.43753579686506 A198.0,198.0,0,0,0,67.43173289500952,186.16380260076366 C26.972693158003807,74.46552104030546,-53.28110471241811,58.598326602594526,-133.20276178104527,146.4958165064863 Z" fill="#d62728" fill-opacity="0.6" />
<path d="M-133.21756414633217,146.48235594404494 A198.0,198.0,0,0,0,-133.20276178104527,146.4958165064863 C-53.28110471241811,58.598326602594526,46.0916758212807,64.40650137979837,115.22918955320175,161.0162534494959 A198.0,198.0,0,0,0,116.38895282655616,160.17993526012452 C46.55558113062247,64.07197410404981,-53.28702565853287,58.59294237761798,-133.21756414633217,146.48235594404494 Z" fill="#d62728" fill-opacity="0.6" />
<path d="M-134.00983880905468,145.7578920757678 A198.0,198.0,0,0,0,-133.21756414633217,146.48235594404494 C-53.28702565853287,58.59294237761798,71.15266461084593,34.78416764530198,177.88166152711483,86.96041911325494 A198.0,198.0,0,0,0,177.8868425978843,86.94982018702245 C71.15473703915373,34.779928074808986,-53.60393552362188,58.30315683030713,-134.00983880905468,145.7578920757678 Z" fill="#e377c2" fill-opacity="0.6" />
<path d="M-73.56420736389322,183.8268407902451 A198.0,198.0,0,0,0,-73.55776904332583,183.82941715995494 C-29.423107617330334,73.53176686398199,-24.96000011622971,75.16407648736072,-62.400000290574276,187.9101912184018 A198.0,198.0,0,0,0,-62.02396505385442,188.03464510296567 C-24.80958602154177,75.21385804118627,-29.425682945557288,73.53073631609804,-73.56420736389322,183.8268407902451 Z" fill="#d62728" fill-opacity="0.6" />
<path d="M-73.60360027066659,183.8110715577164 A198.0,198.0,0,0,0,-73.56420736389322,183.8268407902451 C-29.425682945557288,73.53073631609804,-17.057514240645954,77.34132923560443,-42.64378560161489,193.35332308901107 A198.0,198.0,0,0,0,-40.145971051657405,193.88734102132474 C-16.05838842066296,77.5549364085299,-29.441440108266637,73.52442862308656,-73.60360027066659,183.8110715577164 Z" fill="#d62728" fill-opacity="0.6" />
<path d="M-73.63012292369733,183.80044885212118 A198.0,198.0,0,0,0,-73.60360027066659,183.8110715577164 C-29.441440108266637,73.52442862308656,21.1613224748318,76.3206291320779,52.903306187079494,190.80157283019474 A198.0,198.0,0,0,0,54.19912323661462,190.43753579686506 C21.67964929464585,76.17501431874602,-29.452049169478933,73.52017954084847,-73.63012292369733,183.80044885212118 Z" fill="#d62728" fill-opacity="0.6" />
<path d="M-59.36253548529177,188.89173984258144 A198.0,198.0,0,0,0,-59.359044798724696,188.89283681649496 C-23.74361791948988,75.557134726598,78.58710590617487,9.833960814018761,196.46776476543715,24.584902035046902 A198.0,198.0,0,0,0,196.53966955621877,24.003297497059332 C78.61586782248752,9.601318998823734,-23.74501419411671,75.55669593703259,-59.36253548529177,188.89173984258144 Z" fill="#9467bd" fill-opacity="0.6" />
<path d="M-59.36779506257715,188.8900868479017 A198.0,198.0,0,0,0,-59.36253548529177,188.89173984258144 C-23.74501419411671,75.55669593703259,79.18804203579599,1.3762261939845692,197.97010508948995,3.440565484961423 A198.0,198.0,0,0,0,197.9741635519124,3.1985255854284014 C79.18966542076497,1.2794102341713607,-23.74711802503086,75.55603473916068,-59.36779506257715,188.8900868479017 Z" fill="#9467bd" fill-opacity="0.6" />
<path d="M-40.14028131212818,193.88851904169886 A198.0,198.0,0,0,0,-39.30616621924798,194.0593344756826 C-15.722466487699192,77.62373379027304,71.14929894164311,34.79105143729782,177.87324735410778,86.97762859324453 A198.0,198.0,0,0,0,177.88166152711483,86.96041911325494 C71.15266461084593,34.78416764530198,-16.056112524851272,77.55540761667955,-40.14028131212818,193.88851904169886 Z" fill="#e377c2" fill-opacity="0.6" />
<path d="M-40.145971051657405,193.88734102132474 A198.0,198.0,0,0,0,-40.14028131212818,193.88851904169886 C-16.056112524851272,77.55540761667955,79.18630028529886,1.4730400966974673,197.96575071324713,3.682600241743668 A198.0,198.0,0,0,0,197.97010508948995,3.440565484961423 C79.18804203579599,1.3762261939845692,-16.05838842066296,77.5549364085299,-40.145971051657405,193.88734102132474 Z" fill="#9467bd" fill-opacity="0.6" />
<path d="M36.64351471231736,194.57968246846374 A198.0,198.0,0,0,0,36.656625336646954,194.57721300020899 C14.662650134658783,77.8308852000836,78.52751701971424,10.29898396534788,196.31879254928558,25.747459913369696 A198.0,198.0,0,0,0,196.46776476543715,24.584902035046902 C78.58710590617487,9.833960814018761,14.657405884926945,77.83187298738551,36.64351471231736,194.57968246846374 Z" fill="#9467bd" fill-opacity="0.6" />
<path d="M72.2594592789493,184.34362084084674 A198.0,198.0,0,0,0,75.38174596993827,183.0890285476541 C30.152698387975306,73.23561141906164,46.07120860264791,64.42114356243067,115.17802150661976,161.05285890607666 A198.0,198.0,0,0,0,115.22918955320175,161.0162534494959 C46.0916758212807,64.40650137979837,28.90378371157972,73.7374483363387,72.2594592789493,184.34362084084674 Z" fill="#8c564b" fill-opacity="0.6" />
<path d="M71.84155782101696,184.5068848846825 A198.0,198.0,0,0,0,72.2594592789493,184.34362084084674 C28.90378371157972,73.7374483363387,71.14703234919169,34.795686340451304,177.86758087297923,86.98921585112826 A198.0,198.0,0,0,0,177.87324735410778,86.97762859324453 C71.14929894164311,34.79105143729782,28.736623128406787,73.80275395387301,71.84155782101696,184.5068848846825 Z" fill="#e377c2" fill-opacity="0.6" />
<path d="M179.41901220234328,83.74257017989947 A198.0,198.0,0,0,0,179.44469042399834,83.68753239662048 C71.77787616959934,33.47501295864819,78.29730120623293,11.923616222456895,195.7432530155823,29.809040556142236 A198.0,198.0,0,0,0,196.31879254928558,25.747459913369696 C78.52751701971424,10.29898396534788,71.76760488093731,33.49702807195979,179.41901220234328,83.74257017989947 Z" fill="#e377c2" fill-opacity="0.6" />
<path d="M179.08495382583808,84.45459912401124 A198.0,198.0,0,0,0,179.41901220234328,83.74257017989947 C71.76760488093731,33.49702807195979,78.87421600794433,7.176214122511969,197.1855400198608,17.940535306279923 A198.0,198.0,0,0,0,197.96575071324713,3.682600241743668 C79.18630028529886,1.4730400966974673,71.63398153033523,33.7818396496045,179.08495382583808,84.45459912401124 Z" fill="#e377c2" fill-opacity="0.6" />
<path d="M196.9363162136235,20.496032694345857 A198.0,198.0,0,0,0,196.99611689220748,19.913059267519056 C78.798446756883,7.965223707007623,78.87415777691714,7.176854114581156,197.18539444229285,17.94213528645289 A198.0,198.0,0,0,0,197.1855400198608,17.940535306279923 C78.87421600794433,7.176214122511969,78.77452648544941,8.198413077738342,196.9363162136235,20.496032694345857 Z" fill="#e377c2" fill-opacity="0.6" />
<text x="220.00000000000003" y="0" font-size="10" text-anchor="start" dominant-baseline="middle" transform="rotate(-7.554144)" font-family="Arial">Canada</text>
<text x="220.00000000000003" y="0" font-size="10" text-anchor="start" dominant-baseline="middle" transform="rotate(-23.192618)" font-family="Arial">Mexico</text>
<text x="220.00000000000003" y="0" font-size="10" text-anchor="start" dominant-baseline="middle" transform="rotate(-54.575802)" font-family="Arial">United Sta.</text>
<text x="220.00000000000003" y="0" font-size="10" text-anchor="start" dominant-baseline="middle" transform="rotate(-79.449232)" font-family="Arial">Costa Rica</text>
<text x="220.00000000000003" y="0" font-size="10" text-anchor="start" dominant-baseline="middle" transform="rotate(-82.024602)" font-family="Arial">Dominican .</text>
<text x="220.00000000000006" y="0" font-size="10" text-anchor="start" dominant-baseline="middle" transform="rotate(-84.573041)" font-family="Arial">Guatemala</text>
<text x="-220.00000000000003" y="0" font-size="10" text-anchor="end" dominant-baseline="middle" transform="rotate(84.570878)" font-family="Arial">Argentina</text>
<text x="-220.00000000000003" y="0" font-size="10" text-anchor="end" dominant-baseline="middle" transform="rotate(64.903559)" font-family="Arial">Brazil</text>
<text x="-220.00000000000003" y="0" font-size="10" text-anchor="end" dominant-baseline="middle" transform="rotate(47.787705)" font-family="Arial">Colombia</text>
<text x="-220.00000000000003" y="0" font-size="10" text-anchor="end" dominant-baseline="middle" transform="rotate(28.234461)" font-family="Arial">Germany</text>
<text x="-220.00000000000003" y="0" font-size="10" text-anchor="end" dominant-baseline="middle" transform="rotate(7.053638)" font-family="Arial">Spain</text>
<text x="-220.00000000000003" y="0" font-size="10" text-anchor="end" dominant-baseline="middle" transform="rotate(-13.478458)" font-family="Arial">France</text>
<text x="-220.00000000000003" y="0" font-size="10" text-anchor="end" dominant-baseline="middle" transform="rotate(-36.730016)" font-family="Arial">United Kin.</text>
<text x="-220.00000000000003" y="0" font-size="10" text-anchor="end" dominant-baseline="middle" transform="rotate(-58.299297)" font-family="Arial">Italy</text>
<text x="-220.00000000000003" y="0" font-size="10" text-anchor="end" dominant-baseline="middle" transform="rotate(-70.659691)" font-family="Arial">Indonesia</text>
<text x="-220.00000000000003" y="0" font-size="10" text-anchor="end" dominant-baseline="middle" transform="rotate(-75.838793)" font-family="Arial">India</text>
<text x="-220.00000000000003" y="0" font-size="10" text-anchor="end" dominant-baseline="middle" transform="rotate(-89.895869)" font-family="Arial">Japan</text>
<text x="220.00000000000006" y="0" font-size="10" text-anchor="start" dominant-baseline="middle" transform="rotate(-282.011901)" font-family="Arial">Egypt</text>
<text x="220.0" y="0" font-size="10" text-anchor="start" dominant-baseline="middle" transform="rotate(-287.866432)" font-family="Arial">Nigeria</text>
<text x="220.00000000000003" y="0" font-size="10" text-anchor="start" dominant-baseline="middle" transform="rotate(-299.787153)" font-family="Arial">South Afri.</text>
<text x="220.00000000000003" y="0" font-size="10" text-anchor="start" dominant-baseline="middle" transform="rotate(-321.096681)" font-family="Arial">Australia</text>
<text x="220.00000000000003" y="0" font-size="10" text-anchor="start" dominant-baseline="middle" transform="rotate(-344.898997)" font-family="Arial">New Zealan.</text>
<text x="220.0" y="0" font-size="10" text-anchor="start" dominant-baseline="middle" transform="rotate(-357.113974)" font-family="Arial">Papua New .</text>
<text x="-295.0" y="-285.0" font-size="8" text-anchor="start" dominant-baseline="middle" font-family="Arial" font-weight="bold">Continents</text>
<circle cx="-290.5" cy="-274.5" r="4.5" fill="#8c564b" stroke="#333" stroke-width="0.5" />
<text x="-278.0" y="-271.0" font-size="6" text-anchor="start" dominant-baseline="middle" font-family="Arial">Africa</text>
<circle cx="-290.5" cy="-262.5" r="4.5" fill="#9467bd" stroke="#333" stroke-width="0.5" />
<text x="-278.0" y="-259.0" font-size="6" text-anchor="start" dominant-baseline="middle" font-family="Arial">Asia</text>
<circle cx="-290.5" cy="-250.5" r="4.5" fill="#ff7f0e" stroke="#333" stroke-width="0.5" />
<text x="-278.0" y="-247.0" font-size="6" text-anchor="start" dominant-baseline="middle" font-family="Arial">Central America</text>
<circle cx="-290.5" cy="-238.5" r="4.5" fill="#d62728" stroke="#333" stroke-width="0.5" />
<text x="-278.0" y="-235.0" font-size="6" text-anchor="start" dominant-baseline="middle" font-family="Arial">Europe</text>
<circle cx="-290.5" cy="-226.5" r="4.5" fill="#1f77b4" stroke="#333" stroke-width="0.5" />
<text x="-278.0" y="-223.0" font-size="6" text-anchor="start" dominant-baseline="middle" font-family="Arial">North America</text>
<circle cx="-290.5" cy="-214.5" r="4.5" fill="#e377c2" stroke="#333" stroke-width="0.5" />
<text x="-278.0" y="-211.0" font-size="6" text-anchor="start" dominant-baseline="middle" font-family="Arial">Oceania</text>
<circle cx="-290.5" cy="-202.5" r="4.5" fill="#2ca02c" stroke="#333" stroke-width="0.5" />
<text x="-278.0" y="-199.0" font-size="6" text-anchor="start" dominant-baseline="middle" font-family="Arial">South America</text>
</svg>