<?xml version="1.0" encoding="UTF-8"?>
<svg xmlns="http://www.w3.org/2000/svg" xmlns:xlink="http://www.w3.org/1999/xlink"
     width="600.0" height="600.0" viewBox="-300.0 -300.0 600.0 600.0">
<defs>
</defs>
<rect x="-300.0" y="-300.0" width="600.0" height="600.0" fill="#ffffff" fill-opacity="1.0" />
<path d="M200.0,-0.0 A200,200,0,0,0,192.01241279180763,-55.95742429623144 L205.45328168723418,-59.87444399696764 A214.0,214.0,0,0,1,214.0,-0.0 Z" fill="#1f77b4" fill-opacity="0.9" />
<path d="M191.44324733440138,-57.87471857434143 A200,200,0,0,0,169.23460081946507,-106.58165829764665 L181.08102287682763,-114.04237437848192 A214.0,214.0,0,0,1,204.8442746478095,-61.925948874545334 Z" fill="#1f77b4" fill-opacity="0.9" />
<path d="M168.16034034048272,-108.26864706170952 A200,200,0,0,0,41.76892312588242,-195.58976727043807 L44.69274774469419,-209.28105097936876 A214.0,214.0,0,0,1,179.9315641643165,-115.8474523560292 Z" fill="#1f77b4" fill-opacity="0.9" />
<path d="M39.810969622556954,-195.99767013337646 A200,200,0,0,0,32.93449099300935,-197.26966138519978 L35.239905362520005,-211.07853768216378 A214.0,214.0,0,0,1,42.59773749613594,-209.7175070427128 Z" fill="#ff7f0e" fill-opacity="0.9" />
<path d="M30.96018054644286,-197.58913740520165 A200,200,0,0,0,24.418759562690756,-198.5037132685923 L26.12807273207911,-212.39897319739376 A214.0,214.0,0,0,1,33.127393184693865,-211.42037702356578 Z" fill="#ff7f0e" fill-opacity="0.9" />
<path d="M22.43253458598794,-198.73797169149245 A200,200,0,0,0,14.832539257659944,-199.44923108192214 L15.870817005696141,-213.4106772576567 A214.0,214.0,0,0,1,24.002812007007098,-212.64962970989694 Z" fill="#ff7f0e" fill-opacity="0.9" />
<path d="M12.837338567430349,-199.5875816239707 A200,200,0,0,0,-46.3955885406997,-194.54420927892482 L-49.64327973854868,-208.16230392844957 A214.0,214.0,0,0,1,13.735952267150473,-213.55871233764864 Z" fill="#2ca02c" fill-opacity="0.9" />
<path d="M-48.338678449520586,-194.0705339966731 A200,200,0,0,0,-109.51264810573147,-167.35286046216908 L-117.17853347313269,-179.06756069452092 A214.0,214.0,0,0,1,-51.72238594098703,-207.65547137644023 Z" fill="#2ca02c" fill-opacity="0.9" />
<path d="M-111.18067323157402,-166.24938465983553 A200,200,0,0,0,-148.87253743173844,-133.55511071702065 L-159.29361505196013,-142.9039684672121 A214.0,214.0,0,0,1,-118.96332035778421,-177.88684158602402 Z" fill="#2ca02c" fill-opacity="0.9" />
<path d="M-150.20062271499322,-132.05973245478074 A200,200,0,0,0,-185.8683804075068,-73.84405977931021 L-198.8791670360323,-79.01314396386194 A214.0,214.0,0,0,1,-160.71466630504275,-141.3039137266154 Z" fill="#d62728" fill-opacity="0.9" />
<path d="M-186.59751535644267,-71.98171478092299 A200,200,0,0,0,-199.38061854807154,-15.727967045628919 L-213.33726184643655,-16.828924738822945 A214.0,214.0,0,0,1,-199.65934143139367,-77.02043481558759 Z" fill="#d62728" fill-opacity="0.9" />
<path d="M-199.52792664936067,-13.733407698286202 A200,200,0,0,0,-184.78065612766875,76.52521885645433 L-197.71530205660557,81.88198417640614 A214.0,214.0,0,0,1,-213.49488151481592,-14.694746237166237 Z" fill="#d62728" fill-opacity="0.9" />
<path d="M-184.00617773742889,78.36916839205152 A200,200,0,0,0,-139.119556692738,143.68628656074338 L-148.85792566122967,153.74432661999543 A214.0,214.0,0,0,1,-196.88661017904892,83.85501017949512 Z" fill="#d62728" fill-opacity="0.9" />
<path d="M-137.67576185485692,145.07027468673493 A200,200,0,0,0,-78.21760562238626,184.07065537640932 L-83.6928380159533,196.955601252758 A214.0,214.0,0,0,1,-147.3130651846969,155.2251939148064 Z" fill="#d62728" fill-opacity="0.9" />
<path d="M-76.37301889922082,184.84361494035778 A200,200,0,0,0,-66.53388179171779,188.6087022746451 L-71.19125351713804,201.8113114338703 A214.0,214.0,0,0,1,-81.71913022216629,197.78266798618284 Z" fill="#9467bd" fill-opacity="0.9" />
<path d="M-64.64449953723069,189.2645996471104 A200,200,0,0,0,-57.316077409121704,191.6112399376184 L-61.32820282776023,205.0240267332517 A214.0,214.0,0,0,1,-69.16961450483684,202.51312162240814 Z" fill="#9467bd" fill-opacity="0.9" />
<path d="M-55.397131164803696,192.17481067691867 A200,200,0,0,0,15.051010608763738,199.43286358986796 L16.1045813513772,213.39316404115874 A214.0,214.0,0,0,1,-59.27493034633996,205.627047424303 Z" fill="#9467bd" fill-opacity="0.9" />
<path d="M17.044553461758767,199.2723844321868 A200,200,0,0,0,23.882265936003815,198.56897384476255 L25.554024551524083,212.46880201389595 A214.0,214.0,0,0,1,18.237672204081882,213.2214513424399 Z" fill="#8c564b" fill-opacity="0.9" />
<path d="M25.86672847644201,198.32022679980483 A200,200,0,0,0,56.07786646504973,191.97727181291032 L60.00331711760322,205.41568083981406 A214.0,214.0,0,0,1,27.677399469792952,212.20264267579117 Z" fill="#8c564b" fill-opacity="0.9" />
<path d="M57.99480331716925,191.40690371092379 A200,200,0,0,0,115.18781275486035,163.4985253534454 L123.25095964770058,174.94342212818657 A214.0,214.0,0,0,1,62.054439549371104,204.80538697068846 Z" fill="#8c564b" fill-opacity="0.9" />
<path d="M116.81701141613381,162.33849156562613 A200,200,0,0,0,179.16043348541774,88.89060171535121 L191.701663829397,95.1129438354258 A214.0,214.0,0,0,1,124.99420221526319,173.70218597521998 Z" fill="#e377c2" fill-opacity="0.9" />
<path d="M180.0403667405207,87.09458274737189 A200,200,0,0,0,198.30881336830203,25.954085236354572 L212.19043030408318,27.770871202899393 A214.0,214.0,0,0,1,192.64319241235717,93.19120353968792 Z" fill="#e377c2" fill-opacity="0.9" />
<path d="M198.55843453696627,23.969732460527585 A200,200,0,0,0,199.99000008333306,1.9999666668340497 L213.9893000891664,2.139964333512433 A214.0,214.0,0,0,1,212.45752495455392,25.647613732764516 Z" fill="#e377c2" fill-opacity="0.9" />
<path d="M193.0,-0.0 A193.0,193.0,0,0,0,190.07375002872445,-33.48088335181702 L194.99794044397638,-34.348263749532485 A198.0,198.0,0,0,1,198.0,-0.0 Z" fill="#1f77b4" fill-opacity="0.6" />
<path d="M184.74273367769732,-55.84910342423948 A193.0,193.0,0,0,0,174.2495621567966,-82.98246855911604 L178.76379951837163,-85.13227344406724 A198.0,198.0,0,0,1,189.52881486105736,-57.29597138859802 Z" fill="#1f77b4" fill-opacity="0.6" />
<path d="M162.27472842856582,-104.47924441454968 A193.0,193.0,0,0,0,52.743019644806296,-185.65337023266662 L54.10941911746967,-190.4630430366217 A198.0,198.0,0,0,1,166.4787369370779,-107.18596059109241 Z" fill="#1f77b4" fill-opacity="0.6" />
<path d="M21.647395875478363,-191.7821426822902 A193.0,193.0,0,0,0,21.634134942586464,-191.78363904485167 L22.194604759751915,-196.75212710300846 A198.0,198.0,0,0,1,22.20820924012806,-196.75059197457753 Z" fill="#ff7f0e" fill-opacity="0.6" />
<path d="M12.388031717570286,-192.60201626713172 A193.0,193.0,0,0,0,-38.76299754196164,-189.0672632201616 L-39.76722027620935,-193.96537884762694 A198.0,198.0,0,0,1,12.708965181756044,-197.591705807731 Z" fill="#2ca02c" fill-opacity="0.6" />
<path d="M-46.64682470378736,-187.27806530678956 A193.0,193.0,0,0,0,-97.8017693206987,-166.38453629391415 L-100.33549391449918,-170.6950165087824 A198.0,198.0,0,0,1,-47.855291665025376,-192.1298286567064 Z" fill="#2ca02c" fill-opacity="0.6" />
<path d="M-107.28934966846892,-160.4306561967413 A193.0,193.0,0,0,0,-127.23126529010712,-145.1247915853056 L-130.52741205928086,-148.8845012118679 A198.0,198.0,0,0,1,-110.06886649925828,-164.58689081323718 Z" fill="#2ca02c" fill-opacity="0.6" />
<path d="M-144.94360091996845,-127.43764181886341 A193.0,193.0,0,0,0,-178.3301289654741,-73.80626737044342 L-182.95008049307705,-75.71834683599894 A198.0,198.0,0,0,1,-148.69861648784328,-130.73913513023294 Z" fill="#d62728" fill-opacity="0.6" />
<path d="M-180.06660231896717,-69.46235476359067 A193.0,193.0,0,0,0,-190.01422012470053,-33.81709849176672 L-194.93686831445962,-34.69318912626844 A198.0,198.0,0,0,1,-184.73154020287825,-71.26189763311375 Z" fill="#d62728" fill-opacity="0.6" />
<path d="M-192.54444921663304,-13.252738428846184 A193.0,193.0,0,0,0,-192.46424009346106,14.370674488226927 L-197.45036030313622,14.742971754761303 A198.0,198.0,0,0,1,-197.53264738286708,-13.59607362130334 Z" fill="#d62728" fill-opacity="0.6" />
<path d="M-177.56596151661887,75.6262474983297 A193.0,193.0,0,0,0,-136.16821814519878,136.77432641823376 L-139.6958921904112,140.31770275031235 A198.0,198.0,0,0,1,-182.1661159600546,77.585476708131 Z" fill="#d62728" fill-opacity="0.6" />
<path d="M-132.85711018993695,139.9928150726992 A193.0,193.0,0,0,0,-77.63954220352974,176.69493905153683 L-79.65092930724812,181.27252814613624 A198.0,198.0,0,0,1,-136.29900423630835,143.61957193986757 Z" fill="#d62728" fill-opacity="0.6" />
<path d="M-73.6999632377481,178.37408841744525 A193.0,193.0,0,0,0,-67.80765465221792,180.69621459943633 L-69.56432964320801,185.37746368232328 A198.0,198.0,0,0,1,-75.60928871022861,182.99517879095418 Z" fill="#9467bd" fill-opacity="0.6" />
<path d="M-62.38194205342761,182.64033865946155 A193.0,193.0,0,0,0,-55.47179006645438,184.85637805286356 L-56.908883073357345,189.64540339102064 A198.0,198.0,0,0,1,-63.99805454185837,187.37195365063928 Z" fill="#9467bd" fill-opacity="0.6" />
<path d="M-53.458231574035565,185.44869230322652 A193.0,193.0,0,0,0,13.831956953054666,192.50370637171858 L14.190297806760745,197.49084902383564 A198.0,198.0,0,0,1,-54.843159853155655,190.25306257014947 Z" fill="#9467bd" fill-opacity="0.6" />
<path d="M16.44799409059721,192.29785097706025 A193.0,193.0,0,0,0,16.46032504222447,192.2967958638529 L16.886758333473807,197.27857814011853 A198.0,198.0,0,0,1,16.87410792714118,197.27966058786492 Z" fill="#8c564b" fill-opacity="0.6" />
<path d="M24.961392979766536,191.37901886181166 A193.0,193.0,0,0,0,32.3190300071834,190.27474950553682 L33.15631057731768,195.20414716112066 A198.0,198.0,0,0,1,25.60806119167759,196.33702453180678 Z" fill="#8c564b" fill-opacity="0.6" />
<path d="M55.96498520106833,184.70766208104146 A193.0,193.0,0,0,0,104.36842447275636,162.34602543048152 L107.07226966635109,166.55188101158208 A198.0,198.0,0,0,1,57.41485528399756,189.49283467381454 Z" fill="#8c564b" fill-opacity="0.6" />
<path d="M112.72841601656913,156.6566443608292 A193.0,193.0,0,0,0,170.7248258464422,90.01129840026738 L175.1477487958319,92.3431973225541 A198.0,198.0,0,0,1,115.64884130197247,160.71510664996987 Z" fill="#e377c2" fill-opacity="0.6" />
<path d="M173.73895390460248,84.04627235121387 A193.0,193.0,0,0,0,188.96791427062394,39.24445663033347 L193.8634560911064,40.26115239795868 A198.0,198.0,0,0,1,178.2399630731155,86.22363691989817 Z" fill="#e377c2" fill-opacity="0.6" />
<path d="M191.60888932817247,23.13079182440912 A193.0,193.0,0,0,0,191.61302532268616,23.0965046422102 L196.57709333622725,23.694859684754505 A198.0,198.0,0,0,1,196.57285019159661,23.730035135922307 Z" fill="#e377c2" fill-opacity="0.6" />
<path d="M190.09254817228359,-55.39695956790445 A198.0,198.0,0,0,0,190.09228866388955,-55.39785005326914 C76.03691546555582,-22.159140021307657,71.50551980734865,-34.0529093776269,178.76379951837163,-85.13227344406724 A198.0,198.0,0,0,0,178.72450062018572,-85.21474566097837 C71.48980024807429,-34.085898264391346,76.03701926891344,-22.158783827161784,190.09254817228359,-55.39695956790445 Z" fill="#1f77b4" fill-opacity="0.6" />
<path d="M194.36683959668912,-37.756213597167296 A198.0,198.0,0,0,0,190.09254817228359,-55.39695956790445 C76.03701926891344,-22.158783827161784,21.59882696792206,-76.19797027224388,53.99706741980515,-190.4949256806097 A198.0,198.0,0,0,0,51.85886041555803,-191.0880911946102 C20.743544166223213,-76.43523647784409,77.74673583867565,-15.10248543886692,194.36683959668912,-37.756213597167296 Z" fill="#1f77b4" fill-opacity="0.6" />
<path d="M194.3670287744488,-37.75523970778887 A198.0,198.0,0,0,0,194.36683959668912,-37.756213597167296 C77.74673583867565,-15.10248543886692,10.517541770158816,-78.49854339484882,26.29385442539704,-196.24635848712205 A198.0,198.0,0,0,0,26.282218156471473,-196.24791720875828 C10.51288726258859,-78.49916688350332,77.74681150977953,-15.102095883115547,194.3670287744488,-37.75523970778887 Z" fill="#1f77b4" fill-opacity="0.6" />
<path d="M194.36742670745002,-37.75319105882369 A198.0,198.0,0,0,0,194.3670287744488,-37.75523970778887 C77.74681150977953,-15.102095883115547,5.9665226549054955,-78.97493657742626,14.916306637263737,-197.43734144356563 A198.0,198.0,0,0,0,14.889002668788391,-197.43940234798325 C5.955601067515357,-78.97576093919331,77.74697068298002,-15.101276423529477,194.36742670745002,-37.75319105882369 Z" fill="#1f77b4" fill-opacity="0.6" />
<path d="M194.36759007545032,-37.75234997005755 A198.0,198.0,0,0,0,194.36742670745002,-37.75319105882369 C77.74697068298002,-15.101276423529477,-41.96297858805692,-67.16954985719553,-104.90744647014229,-167.92387464298884 A198.0,198.0,0,0,0,-104.9905405194542,-167.87193452579513 C-41.996216207781686,-67.14877381031805,77.74703603018014,-15.100939988023022,194.36759007545032,-37.75234997005755 Z" fill="#1f77b4" fill-opacity="0.6" />
<path d="M194.36778744344966,-37.751333808727495 A198.0,198.0,0,0,0,194.36759007545032,-37.75234997005755 C77.74703603018014,-15.100939988023022,-58.80421306319804,-53.05378898832778,-147.0105326579951,-132.63447247081945 A198.0,198.0,0,0,0,-147.07171389275106,-132.5666284275525 C-58.82868555710043,-53.026651371021,77.74711497737987,-15.100533523490999,194.36778744344966,-37.751333808727495 Z" fill="#1f77b4" fill-opacity="0.6" />
<path d="M194.37677407930312,-37.705035453153336 A198.0,198.0,0,0,0,194.36778744344966,-37.751333808727495 C77.74711497737987,-15.100533523490999,-73.24352693481033,-30.133465817089707,-183.10881733702584,-75.33366454272426 A198.0,198.0,0,0,0,-183.10907258255287,-75.3330441304305 C-73.24362903302115,-30.1332176521722,77.75070963172125,-15.082014181261336,194.37677407930312,-37.705035453153336 Z" fill="#d62728" fill-opacity="0.6" />
<path d="M194.5891436996732,-36.593239187422725 A198.0,198.0,0,0,0,194.37677407930312,-37.705035453153336 C77.75070963172125,-15.082014181261336,-55.27304398530681,56.723281010519294,-138.18260996326703,141.80820252629823 A198.0,198.0,0,0,0,-138.16995679765105,141.8205310895966 C-55.26798271906043,56.72821243583865,77.83565747986928,-14.63729567496909,194.5891436996732,-36.593239187422725 Z" fill="#d62728" fill-opacity="0.6" />
<path d="M194.6757545858323,-36.12963570860905 A198.0,198.0,0,0,0,194.5891436996732,-36.593239187422725 C77.83565747986928,-14.63729567496909,-26.80493860294831,74.52607105229802,-67.01234650737078,186.31517763074504 A198.0,198.0,0,0,0,-66.02821737430294,186.66621148555996 C-26.411286949721177,74.66648459422399,77.87030183433292,-14.451854283443621,194.6757545858323,-36.12963570860905 Z" fill="#1f77b4" fill-opacity="0.6" />
<path d="M194.69294423611268,-36.036890330242386 A198.0,198.0,0,0,0,194.6757545858323,-36.12963570860905 C77.87030183433292,-14.451854283443621,5.905564259412915,78.9795182992271,14.763910648532287,197.4487957480677 A198.0,198.0,0,0,0,14.76507143347894,197.44870894884136 C5.906028573391577,78.97948357953655,77.87717769444508,-14.414756132096954,194.69294423611268,-36.036890330242386 Z" fill="#9467bd" fill-opacity="0.6" />
<path d="M194.693485647721,-36.03396517649241 A198.0,198.0,0,0,0,194.69294423611268,-36.036890330242386 C77.87717769444508,-14.414756132096954,70.7276871042197,35.640346194833675,176.81921776054924,89.10086548708418 A198.0,198.0,0,0,0,177.0463544757848,88.64867944213695 C70.81854179031392,35.459471776854784,77.8773942590884,-14.413586070596963,194.693485647721,-36.03396517649241 Z" fill="#1f77b4" fill-opacity="0.6" />
<path d="M194.69623885629272,-36.01908626288862 A198.0,198.0,0,0,0,194.693485647721,-36.03396517649241 C77.8773942590884,-14.413586070596963,78.41271105623207,11.13942300174753,196.03177764058015,27.848557504368824 A198.0,198.0,0,0,0,196.26099599840003,26.184374151696048 C78.50439839936001,10.47374966067842,77.8784955425171,-14.40763450515545,194.69623885629272,-36.01908626288862 Z" fill="#1f77b4" fill-opacity="0.6" />
<path d="M194.99794044397638,-34.348263749532485 A198.0,198.0,0,0,0,194.69623885629272,-36.01908626288862 C77.8784955425171,-14.40763450515545,79.19601380077428,0.7946056050458024,197.9900345019357,1.9865140126145058 A198.0,198.0,0,0,0,197.9901000824997,1.9799670001657093 C79.19604003299989,0.7919868000662837,77.99917617759056,-13.739305499812994,194.99794044397638,-34.348263749532485 Z" fill="#e377c2" fill-opacity="0.6" />
<path d="M175.03951518215965,-92.54819352528985 A198.0,198.0,0,0,0,167.54225481127042,-105.51584171467019 C67.01690192450818,-42.20633668586808,21.643767646987868,-76.18521721464869,54.10941911746967,-190.4630430366217 A198.0,198.0,0,0,0,53.99706741980515,-190.4949256806097 C21.59882696792206,-76.19797027224388,70.01580607286387,-37.01927741011594,175.03951518215965,-92.54819352528985 Z" fill="#1f77b4" fill-opacity="0.6" />
<path d="M175.04046409657724,-92.54639878922815 A198.0,198.0,0,0,0,175.03951518215965,-92.54819352528985 C70.01580607286387,-37.01927741011594,13.154840381619335,-78.09987307629967,32.887100954048336,-195.24968269074915 A198.0,198.0,0,0,0,32.862585852566106,-195.25381033691178 C13.145034341026443,-78.10152413476472,70.0161856386309,-37.01855951569126,175.04046409657724,-92.54639878922815 Z" fill="#1f77b4" fill-opacity="0.6" />
<path d="M175.07551950775027,-92.48006525241726 A198.0,198.0,0,0,0,175.04046409657724,-92.54639878922815 C70.0161856386309,-37.01855951569126,6.365080811788301,-78.94381385681469,15.912702029470752,-197.3595346420367 A198.0,198.0,0,0,0,14.916306637263737,-197.43734144356563 C5.9665226549054955,-78.97493657742626,70.03020780310011,-36.9920261009669,175.07551950775027,-92.48006525241726 Z" fill="#1f77b4" fill-opacity="0.6" />
<path d="M175.1181709990567,-92.39927589513425 A198.0,198.0,0,0,0,175.07551950775027,-92.48006525241726 C70.03020780310011,-36.9920261009669,-41.962618721384345,-67.16977467614228,-104.90654680346086,-167.9244366903557 A198.0,198.0,0,0,0,-104.90744647014229,-167.92387464298884 C-41.96297858805692,-67.16954985719553,70.04726839962268,-36.959710358053705,175.1181709990567,-92.39927589513425 Z" fill="#2ca02c" fill-opacity="0.6" />
<path d="M175.16078520976657,-92.31846686713344 A198.0,198.0,0,0,0,175.1181709990567,-92.39927589513425 C70.04726839962268,-36.959710358053705,-58.80399372528819,-53.054032098948596,-147.00998431322046,-132.6350802473715 A198.0,198.0,0,0,0,-147.0105326579951,-132.63447247081945 C-58.80421306319804,-53.05378898832778,70.06431408390664,-36.92738674685338,175.16078520976657,-92.31846686713344 Z" fill="#2ca02c" fill-opacity="0.6" />
<path d="M176.08884757704047,-90.53572642327342 A198.0,198.0,0,0,0,175.16078520976657,-92.31846686713344 C70.06431408390664,-36.92738674685338,-73.23910868035783,-30.144202754538625,-183.09777170089458,-75.36050688634656 A198.0,198.0,0,0,0,-183.10881733702584,-75.33366454272426 C-73.24352693481033,-30.133465817089707,70.43553903081619,-36.21429056930937,176.08884757704047,-90.53572642327342 Z" fill="#d62728" fill-opacity="0.6" />
<path d="M176.81412718082285,-89.11096694169464 A198.0,198.0,0,0,0,176.08884757704047,-90.53572642327342 C70.43553903081619,-36.21429056930937,-78.14269117051538,-12.898054761453759,-195.3567279262884,-32.245136903634396 A198.0,198.0,0,0,0,-195.35944561881004,-32.228667479608966 C-78.14377824752403,-12.891466991843586,70.72565087232914,-35.644386776677855,176.81412718082285,-89.11096694169464 Z" fill="#d62728" fill-opacity="0.6" />
<path d="M178.0106223325532,-86.69612642314023 A198.0,198.0,0,0,0,176.81412718082285,-89.11096694169464 C70.72565087232914,-35.644386776677855,-75.84397576047813,22.810772473636373,-189.6099394011953,57.02693118409093 A198.0,198.0,0,0,0,-189.59728547930064,57.068987540349525 C-75.83891419172026,22.82759501613981,71.20424893302128,-34.67845056925609,178.0106223325532,-86.69612642314023 Z" fill="#d62728" fill-opacity="0.6" />
<path d="M178.1105074593853,-86.49073437403719 A198.0,198.0,0,0,0,178.0106223325532,-86.69612642314023 C71.20424893302128,-34.67845056925609,-26.80548677559132,74.52587388768816,-67.01371693897829,186.3146847192204 A198.0,198.0,0,0,0,-67.01234650737078,186.31517763074504 C-26.80493860294831,74.52607105229802,71.24420298375412,-34.59629374961488,178.1105074593853,-86.49073437403719 Z" fill="#9467bd" fill-opacity="0.6" />
<path d="M178.28970339596137,-86.12073886689618 A198.0,198.0,0,0,0,178.1105074593853,-86.49073437403719 C71.24420298375412,-34.59629374961488,5.903509667607782,78.97967190109404,14.758774169019453,197.44917975273506 A198.0,198.0,0,0,0,14.763910648532287,197.4487957480677 C5.905564259412915,78.9795182992271,71.31588135838454,-34.44829554675847,178.28970339596137,-86.12073886689618 Z" fill="#9467bd" fill-opacity="0.6" />
<path d="M178.3492646119287,-85.99732444898642 A198.0,198.0,0,0,0,178.28970339596137,-86.12073886689618 C71.31588135838454,-34.44829554675847,45.37157965693876,64.91578975437379,113.42894914234691,162.28947438593445 A198.0,198.0,0,0,0,113.43027636078409,162.28854674534537 C45.37211054431364,64.91541869813815,71.33970584477149,-34.39892977959457,178.3492646119287,-85.99732444898642 Z" fill="#8c564b" fill-opacity="0.6" />
<path d="M178.42854667202545,-85.83270782463309 A198.0,198.0,0,0,0,178.3492646119287,-85.99732444898642 C71.33970584477149,-34.39892977959457,70.72711910009632,35.64147336742398,176.81779775024077,89.10368341855994 A198.0,198.0,0,0,0,176.81921776054924,89.10086548708418 C70.7276871042197,35.640346194833675,71.37141866881018,-34.333083129853236,178.42854667202545,-85.83270782463309 Z" fill="#e377c2" fill-opacity="0.6" />
<path d="M178.72450062018572,-85.21474566097837 A198.0,198.0,0,0,0,178.42854667202545,-85.83270782463309 C71.37141866881018,-34.333083129853236,79.19600302783954,0.7956785873908568,197.99000756959882,1.989196468477142 A198.0,198.0,0,0,0,197.9900345019357,1.9865140126145058 C79.19601380077428,0.7946056050458024,71.48980024807429,-34.085898264391346,178.72450062018572,-85.21474566097837 Z" fill="#e377c2" fill-opacity="0.6" />
<path d="M42.76567530592813,-193.32640020345883 A198.0,198.0,0,0,0,41.3512338946236,-193.63386959773368 C16.54049355784944,-77.45354783909347,15.765143970532556,-77.61507737281708,39.412859926331386,-194.0376934320427 A198.0,198.0,0,0,0,32.887100954048336,-195.24968269074915 C13.154840381619335,-78.09987307629967,17.106270122371253,-77.33056008138354,42.76567530592813,-193.32640020345883 Z" fill="#1f77b4" fill-opacity="0.6" />
<path d="M43.72057194076992,-193.11269142439076 A198.0,198.0,0,0,0,42.76567530592813,-193.32640020345883 C17.106270122371253,-77.33056008138354,12.260231496391373,-78.24529841245986,30.650578740978432,-195.61324603114963 A198.0,198.0,0,0,0,26.29385442539704,-196.24635848712205 C10.517541770158816,-78.49854339484882,17.48822877630797,-77.2450765697563,43.72057194076992,-193.11269142439076 Z" fill="#1f77b4" fill-opacity="0.6" />
<path d="M44.9536624311387,-192.82937596234456 A198.0,198.0,0,0,0,43.72057194076992,-193.11269142439076 C17.48822877630797,-77.2450765697563,8.877841903900766,-78.70085084120339,22.194604759751915,-196.75212710300846 A198.0,198.0,0,0,0,15.912702029470752,-197.3595346420367 C6.365080811788301,-78.94381385681469,17.98146497245548,-77.13175038493783,44.9536624311387,-192.82937596234456 Z" fill="#1f77b4" fill-opacity="0.6" />
<path d="M45.054609008269544,-192.80581476478335 A198.0,198.0,0,0,0,44.9536624311387,-192.82937596234456 C17.98146497245548,-77.13175038493783,-15.906888110483742,-77.58615153905077,-39.76722027620935,-193.96537884762694 A198.0,198.0,0,0,0,-44.09268212653821,-193.0280688990284 C-17.637072850615283,-77.21122755961136,18.02184360330782,-77.12232590591334,45.054609008269544,-192.80581476478335 Z" fill="#1f77b4" fill-opacity="0.6" />
<path d="M45.10398248620262,-192.79427056809632 A198.0,198.0,0,0,0,45.054609008269544,-192.80581476478335 C18.02184360330782,-77.12232590591334,-41.21206796049478,-67.63287258737101,-103.03016990123695,-169.0821814684275 A198.0,198.0,0,0,0,-104.90654680346086,-167.9244366903557 C-41.962618721384345,-67.16977467614228,18.041592994481046,-77.11770822723854,45.10398248620262,-192.79427056809632 Z" fill="#1f77b4" fill-opacity="0.6" />
<path d="M45.773100489878566,-192.636505552669 A198.0,198.0,0,0,0,45.10398248620262,-192.79427056809632 C18.041592994481046,-77.11770822723854,-52.2384370922479,-59.52970426735932,-130.59609273061974,-148.8242606683983 A198.0,198.0,0,0,0,-147.00998431322046,-132.6350802473715 C-58.80399372528819,-53.054032098948596,18.30924019595143,-77.05460222106761,45.773100489878566,-192.636505552669 Z" fill="#1f77b4" fill-opacity="0.6" />
<path d="M45.77955683527843,-192.6349713213193 A198.0,198.0,0,0,0,45.773100489878566,-192.636505552669 C18.30924019595143,-77.05460222106761,-73.18434881067388,-30.27690686245239,-182.9608720266847,-75.69226715613097 A198.0,198.0,0,0,0,-183.09777170089458,-75.36050688634656 C-73.23910868035783,-30.144202754538625,18.31182273411137,-77.05398852852773,45.77955683527843,-192.6349713213193 Z" fill="#1f77b4" fill-opacity="0.6" />
<path d="M45.79714821659942,-192.630789894105 A198.0,198.0,0,0,0,45.77955683527843,-192.6349713213193 C18.31182273411137,-77.05398852852773,-78.09614049600937,-13.176981430796886,-195.24035124002341,-32.942453576992214 A198.0,198.0,0,0,0,-195.3567279262884,-32.245136903634396 C-78.14269117051538,-12.898054761453759,18.318859286639768,-77.05231595764201,45.79714821659942,-192.630789894105 Z" fill="#1f77b4" fill-opacity="0.6" />
<path d="M45.79971737263364,-192.630179070121 A198.0,198.0,0,0,0,45.79714821659942,-192.630789894105 C18.318859286639768,-77.05231595764201,-75.86251673183186,22.749034157795176,-189.65629182957963,56.872585394487935 A198.0,198.0,0,0,0,-189.6099394011953,57.02693118409093 C-75.84397576047813,22.810772473636373,18.319886949053455,-77.0520716280484,45.79971737263364,-192.630179070121 Z" fill="#1f77b4" fill-opacity="0.6" />
<path d="M46.02692655218872,-192.5760162433511 A198.0,198.0,0,0,0,45.79971737263364,-192.630179070121 C18.319886949053455,-77.0520716280484,-55.63788135921126,56.365469552362754,-139.09470339802814,140.91367388090688 A198.0,198.0,0,0,0,-138.18260996326703,141.80820252629823 C-55.27304398530681,56.723281010519294,18.41077062087549,-77.03040649734044,46.02692655218872,-192.5760162433511 Z" fill="#1f77b4" fill-opacity="0.6" />
<path d="M46.03501393818975,-192.5740831257173 A198.0,198.0,0,0,0,46.02692655218872,-192.5760162433511 C18.41077062087549,-77.03040649734044,-31.13134928646199,72.82498947205076,-77.82837321615497,182.06247368012689 A198.0,198.0,0,0,0,-77.46277011468105,182.2183285132428 C-30.985108045872423,72.88733140529712,18.4140055752759,-77.02963325028692,46.03501393818975,-192.5740831257173 Z" fill="#1f77b4" fill-opacity="0.6" />
<path d="M50.226453949261845,-191.52363646214187 A198.0,198.0,0,0,0,46.03501393818975,-192.5740831257173 C18.4140055752759,-77.02963325028692,-27.235187030882784,74.36991722055924,-68.08796757720695,185.9247930513981 A198.0,198.0,0,0,0,-67.01371693897829,186.3146847192204 C-26.80548677559132,74.52587388768816,20.09058157970474,-76.60945458485675,50.226453949261845,-191.52363646214187 Z" fill="#1f77b4" fill-opacity="0.6" />
<path d="M50.22897798083319,-191.5229745252537 A198.0,198.0,0,0,0,50.226453949261845,-191.52363646214187 C20.09058157970474,-76.60945458485675,-22.741495504758575,75.86477695351806,-56.85373876189644,189.66194238379515 A198.0,198.0,0,0,0,-56.79887714295345,189.67837925103558 C-22.719550857181382,75.87135170041424,20.09159119233328,-76.60918981010148,50.22897798083319,-191.5229745252537 Z" fill="#1f77b4" fill-opacity="0.6" />
<path d="M50.23862255494047,-191.52044487151295 A198.0,198.0,0,0,0,50.22897798083319,-191.5229745252537 C20.09159119233328,-76.60918981010148,5.716885214072786,78.9933998727053,14.292213035181963,197.48349968176322 A198.0,198.0,0,0,0,14.758774169019453,197.44917975273506 C5.903509667607782,78.97967190109404,20.09544902197619,-76.60817794860519,50.23862255494047,-191.52044487151295 Z" fill="#1f77b4" fill-opacity="0.6" />
<path d="M50.251350461031,-191.51710570297016 A198.0,198.0,0,0,0,50.23862255494047,-191.52044487151295 C20.09544902197619,-76.60817794860519,9.427122724283128,78.63694651460791,23.567806810707822,196.59236628651976 A198.0,198.0,0,0,0,23.630837441736432,196.58479982389846 C9.452334976694573,78.6339199295594,20.100540184412402,-76.60684228118807,50.251350461031,-191.51710570297016 Z" fill="#1f77b4" fill-opacity="0.6" />
<path d="M50.2972083455305,-191.50506738111736 A198.0,198.0,0,0,0,50.251350461031,-191.51710570297016 C20.100540184412402,-76.60684228118807,20.42673249941873,76.52051097187727,51.06683124854682,191.3012774296932 A198.0,198.0,0,0,0,52.083347854301046,191.02702655982446 C20.83333914172042,76.41081062392979,20.1188833382122,-76.60202695244695,50.2972083455305,-191.50506738111736 Z" fill="#1f77b4" fill-opacity="0.6" />
<path d="M50.52308712928186,-191.44559975859198 A198.0,198.0,0,0,0,50.2972083455305,-191.50506738111736 C20.1188833382122,-76.60202695244695,45.04757508141883,65.1410468083215,112.61893770354706,162.85261702080376 A198.0,198.0,0,0,0,113.42894914234691,162.28947438593445 C45.37157965693876,64.91578975437379,20.209234851712747,-76.5782399034368,50.52308712928186,-191.44559975859198 Z" fill="#1f77b4" fill-opacity="0.6" />
<path d="M50.55118646640966,-191.43818205059898 A198.0,198.0,0,0,0,50.52308712928186,-191.44559975859198 C20.209234851712747,-76.5782399034368,70.38560837219171,36.31123977608663,175.96402093047928,90.77809944021656 A198.0,198.0,0,0,0,176.81779775024077,89.10368341855994 C70.72711910009632,35.64147336742398,20.220474586563867,-76.57527282023959,50.55118646640966,-191.43818205059898 Z" fill="#1f77b4" fill-opacity="0.6" />
<path d="M50.61795691387232,-191.42053818194472 A198.0,198.0,0,0,0,50.55118646640966,-191.43818205059898 C20.220474586563867,-76.57527282023959,78.24021484429886,12.292631171476522,195.60053711074715,30.7315779286913 A198.0,198.0,0,0,0,196.03177764058015,27.848557504368824 C78.41271105623207,11.13942300174753,20.247182765548928,-76.56821527277789,50.61795691387232,-191.42053818194472 Z" fill="#1f77b4" fill-opacity="0.6" />
<path d="M51.85886041555803,-191.0880911946102 A198.0,198.0,0,0,0,50.61795691387232,-191.42053818194472 C20.247182765548928,-76.56821527277789,79.19321613857232,1.036589421790156,197.9830403464308,2.5914735544753897 A198.0,198.0,0,0,0,197.99000756959882,1.989196468477142 C79.19600302783954,0.7956785873908568,20.743544166223213,-76.43523647784409,51.85886041555803,-191.0880911946102 Z" fill="#1f77b4" fill-opacity="0.6" />
<path d="M32.6174064082664,-195.29491749453692 A198.0,198.0,0,0,0,32.605146083079255,-195.2969647713478 C13.042058433231702,-78.11878590853912,-41.21166535047814,-67.63311791600474,-103.02916337619534,-169.08279479001183 A198.0,198.0,0,0,0,-103.03016990123695,-169.0821814684275 C-41.21206796049478,-67.63287258737101,13.04696256330656,-78.11796699781478,32.6174064082664,-195.29491749453692 Z" fill="#2ca02c" fill-opacity="0.6" />
<path d="M32.64192667294685,-195.2908206318924 A198.0,198.0,0,0,0,32.6174064082664,-195.29491749453692 C13.04696256330656,-78.11796699781478,-78.09599942877047,-13.177817468059127,-195.23999857192615,-32.944543670147816 A198.0,198.0,0,0,0,-195.24035124002341,-32.942453576992214 C-78.09614049600937,-13.176981430796886,13.056770669178741,-78.11632825275696,32.64192667294685,-195.2908206318924 Z" fill="#d62728" fill-opacity="0.6" />
<path d="M32.65418661234357,-195.28877104607486 A198.0,198.0,0,0,0,32.64192667294685,-195.2908206318924 C13.056770669178741,-78.11632825275696,-55.638339255744796,56.36501756287004,-139.09584813936198,140.9125439071751 A198.0,198.0,0,0,0,-139.09470339802814,140.91367388090688 C-55.63788135921126,56.365469552362754,13.06167464493743,-78.11550841842995,32.65418661234357,-195.28877104607486 Z" fill="#d62728" fill-opacity="0.6" />
<path d="M32.66644642304686,-195.2867206906046 A198.0,198.0,0,0,0,32.65418661234357,-195.28877104607486 C13.06167464493743,-78.11550841842995,-27.235430152864026,74.36982818582054,-68.08857538216006,185.92457046455132 A198.0,198.0,0,0,0,-68.08796757720695,185.9247930513981 C-27.235187030882784,74.36991722055924,13.066578569218743,-78.11468827624185,32.66644642304686,-195.2867206906046 Z" fill="#9467bd" fill-opacity="0.6" />
<path d="M32.75226149049491,-195.27234665271538 A198.0,198.0,0,0,0,32.66644642304686,-195.2867206906046 C13.066578569218743,-78.11468827624185,5.713333441263775,78.99365684021052,14.283333603159438,197.48414210052627 A198.0,198.0,0,0,0,14.292213035181963,197.48349968176322 C5.716885214072786,78.9933998727053,13.100904596197964,-78.10893866108616,32.75226149049491,-195.27234665271538 Z" fill="#9467bd" fill-opacity="0.6" />
<path d="M32.764520269911245,-195.27029014031442 A198.0,198.0,0,0,0,32.75226149049491,-195.27234665271538 C13.100904596197964,-78.10893866108616,45.04718046498445,65.14131969921338,112.61795116246113,162.85329924803344 A198.0,198.0,0,0,0,112.61893770354706,162.85261702080376 C45.04757508141883,65.1410468083215,13.1058081079645,-78.10811605612577,32.764520269911245,-195.27029014031442 Z" fill="#8c564b" fill-opacity="0.6" />
<path d="M32.77677892019935,-195.26823285833353 A198.0,198.0,0,0,0,32.764520269911245,-195.27029014031442 C13.1058081079645,-78.10811605612577,70.38528687661216,36.3118629554724,175.9632171915304,90.779657388681 A198.0,198.0,0,0,0,175.96402093047928,90.77809944021656 C70.38560837219171,36.31123977608663,13.11071156807974,-78.10729314333342,32.77677892019935,-195.26823285833353 Z" fill="#e377c2" fill-opacity="0.6" />
<path d="M32.80129583319747,-195.26411598566457 A198.0,198.0,0,0,0,32.77677892019935,-195.26823285833353 C13.11071156807974,-78.10729314333342,78.24007277120909,12.293535405078059,195.6001819280227,30.733838512695144 A198.0,198.0,0,0,0,195.60053711074715,30.7315779286913 C78.24021484429886,12.292631171476522,13.120518333278989,-78.10564639426583,32.80129583319747,-195.26411598566457 Z" fill="#e377c2" fill-opacity="0.6" />
<path d="M32.862585852566106,-195.25381033691178 A198.0,198.0,0,0,0,32.80129583319747,-195.26411598566457 C13.120518333278989,-78.10564639426583,79.19320573149585,1.037384195452006,197.9830143287396,2.593460488630015 A198.0,198.0,0,0,0,197.9830403464308,2.5914735544753897 C79.19321613857232,1.036589421790156,13.145034341026443,-78.10152413476472,32.862585852566106,-195.25381033691178 Z" fill="#e377c2" fill-opacity="0.6" />
<path d="M24.407602304003618,-196.48986984007496 A198.0,198.0,0,0,0,24.174571967063894,-196.51867613590633 C9.669828786825558,-78.60747045436254,-73.18003219723083,-30.28733873439958,-182.95008049307705,-75.71834683599894 A198.0,198.0,0,0,0,-182.9608720266847,-75.69226715613097 C-73.18434881067388,-30.27690686245239,9.763040921601448,-78.59594793602999,24.407602304003618,-196.48986984007496 Z" fill="#d62728" fill-opacity="0.6" />
<path d="M24.43090345524964,-196.48697401191833 A198.0,198.0,0,0,0,24.407602304003618,-196.48986984007496 C9.763040921601448,-78.59594793602999,-78.09586362214174,-13.178622276696448,-195.23965905535434,-32.94655569174112 A198.0,198.0,0,0,0,-195.23999857192615,-32.944543670147816 C-78.09599942877047,-13.177817468059127,9.772361382099858,-78.59478960476734,24.43090345524964,-196.48697401191833 Z" fill="#d62728" fill-opacity="0.6" />
<path d="M25.106486056419588,-196.40179316365422 A198.0,198.0,0,0,0,24.43090345524964,-196.48697401191833 C9.772361382099858,-78.59478960476734,-75.8731200379763,22.71364470319193,-189.68280009494075,56.78411175797982 A198.0,198.0,0,0,0,-189.65629182957963,56.872585394487935 C-75.86251673183186,22.749034157795176,10.042594422567836,-78.56071726546169,25.106486056419588,-196.40179316365422 Z" fill="#d62728" fill-opacity="0.6" />
<path d="M25.54894863580772,-196.3447254794609 A198.0,198.0,0,0,0,25.106486056419588,-196.40179316365422 C10.042594422567836,-78.56071726546169,-55.65508688221465,56.3484809390026,-139.1377172055366,140.87120234750648 A198.0,198.0,0,0,0,-139.09584813936198,140.9125439071751 C-55.638339255744796,56.36501756287004,10.219579454323089,-78.53789019178436,25.54894863580772,-196.3447254794609 Z" fill="#d62728" fill-opacity="0.6" />
<path d="M26.130938266720516,-196.26811780139138 A198.0,198.0,0,0,0,25.54894863580772,-196.3447254794609 C10.219579454323089,-78.53789019178436,-31.154283805082386,72.81518111350395,-77.88570951270596,182.03795278375986 A198.0,198.0,0,0,0,-77.82837321615497,182.06247368012689 C-31.13134928646199,72.82498947205076,10.452375306688207,-78.50724712055656,26.130938266720516,-196.26811780139138 Z" fill="#d62728" fill-opacity="0.6" />
<path d="M26.224035426627207,-196.2557004673826 A198.0,198.0,0,0,0,26.130938266720516,-196.26811780139138 C10.452375306688207,-78.50724712055656,5.709425874812846,78.9939393635994,14.273564687032113,197.4848484089985 A198.0,198.0,0,0,0,14.283333603159438,197.48414210052627 C5.713333441263775,78.99365684021052,10.489614170650883,-78.50228018695304,26.224035426627207,-196.2557004673826 Z" fill="#9467bd" fill-opacity="0.6" />
<path d="M26.23567215715524,-196.25414519561687 A198.0,198.0,0,0,0,26.224035426627207,-196.2557004673826 C10.489614170650883,-78.50228018695304,45.0468005864817,65.14158239497834,112.61700146620424,162.85395598744586 A198.0,198.0,0,0,0,112.61795116246113,162.85329924803344 C45.04718046498445,65.14131969921338,10.494268862862096,-78.50165807824675,26.23567215715524,-196.25414519561687 Z" fill="#8c564b" fill-opacity="0.6" />
<path d="M26.282218156471473,-196.24791720875828 A198.0,198.0,0,0,0,26.23567215715524,-196.25414519561687 C10.494268862862096,-78.50165807824675,79.1931977113735,1.037996265555679,197.98299427843372,2.594990663889197 A198.0,198.0,0,0,0,197.9830143287396,2.593460488630015 C79.19320573149585,1.037384195452006,10.51288726258859,-78.49916688350332,26.282218156471473,-196.24791720875828 Z" fill="#e377c2" fill-opacity="0.6" />
<path d="M14.725172896596373,-197.45168847889184 A198.0,198.0,0,0,0,14.684213865083343,-197.4547387711029 C5.873685546033338,-78.98189550844117,-41.210442413597534,-67.63386308703328,-103.02610603399383,-169.08465771758318 A198.0,198.0,0,0,0,-103.02916337619534,-169.08279479001183 C-41.21166535047814,-67.63311791600474,5.89006915863855,-78.98067539155674,14.725172896596373,-197.45168847889184 Z" fill="#2ca02c" fill-opacity="0.6" />
<path d="M14.738825766382519,-197.4506698267398 A198.0,198.0,0,0,0,14.725172896596373,-197.45168847889184 C5.89006915863855,-78.98067539155674,-75.87331216844063,22.713002896806906,-189.68328042110159,56.78250724201726 A198.0,198.0,0,0,0,-189.68280009494075,56.78411175797982 C-75.8731200379763,22.71364470319193,5.895530306553008,-78.98026793069593,14.738825766382519,-197.4506698267398 Z" fill="#d62728" fill-opacity="0.6" />
<path d="M14.752478565700772,-197.44965023055508 A198.0,198.0,0,0,0,14.738825766382519,-197.4506698267398 C5.895530306553008,-78.98026793069593,-55.65555036269483,56.348023158097924,-139.13887590673707,140.8700578952448 A198.0,198.0,0,0,0,-139.1377172055366,140.87120234750648 C-55.65508688221465,56.3484809390026,5.900991426280309,-78.97986009222204,14.752478565700772,-197.44965023055508 Z" fill="#d62728" fill-opacity="0.6" />
<path d="M14.861698415569409,-197.4414594764855 A198.0,198.0,0,0,0,14.752478565700772,-197.44965023055508 C5.900991426280309,-78.97986009222204,5.705315937167636,78.99423630909473,14.263289842919088,197.48559077273683 A198.0,198.0,0,0,0,14.273564687032113,197.4848484089985 C5.709425874812846,78.9939393635994,5.9446793662277635,-78.9765837905942,14.861698415569409,-197.4414594764855 Z" fill="#9467bd" fill-opacity="0.6" />
<path d="M14.889002668788391,-197.43940234798325 A198.0,198.0,0,0,0,14.861698415569409,-197.4414594764855 C5.9446793662277635,-78.9765837905942,79.1931934917504,1.0383181488264095,197.982983729376,2.5957953720660236 A198.0,198.0,0,0,0,197.98299427843372,2.594990663889197 C79.1931977113735,1.037996265555679,5.955601067515357,-78.97576093919331,14.889002668788391,-197.43940234798325 Z" fill="#e377c2" fill-opacity="0.6" />
<path d="M-44.66779287443234,-192.89579642834835 A198.0,198.0,0,0,0,-45.9316326552927,-192.59876718613558 C-18.37265306211708,-77.03950687445423,-40.134197565799674,-68.27800660351296,-100.33549391449918,-170.6950165087824 A198.0,198.0,0,0,0,-103.02610603399383,-169.08465771758318 C-41.210442413597534,-67.63386308703328,-17.867117149772934,-77.15831857133935,-44.66779287443234,-192.89579642834835 Z" fill="#2ca02c" fill-opacity="0.6" />
<path d="M-44.265256709236915,-192.98856714444344 A198.0,198.0,0,0,0,-44.66779287443234,-192.89579642834835 C-17.867117149772934,-77.15831857133935,-27.236297912310334,74.36951039257876,-68.09074478077584,185.9237759814469 A198.0,198.0,0,0,0,-68.08857538216006,185.92457046455132 C-27.235430152864026,74.36982818582054,-17.706102683694766,-77.19542685777738,-44.265256709236915,-192.98856714444344 Z" fill="#9467bd" fill-opacity="0.6" />
<path d="M-44.207735773601605,-193.0017515406827 A198.0,198.0,0,0,0,-44.265256709236915,-192.98856714444344 C-17.706102683694766,-77.19542685777738,5.705057217554418,78.99425499455282,14.262643043886044,197.48563748638202 A198.0,198.0,0,0,0,14.263289842919088,197.48559077273683 C5.705315937167636,78.99423630909473,-17.683094309440644,-77.20070061627308,-44.207735773601605,-193.0017515406827 Z" fill="#9467bd" fill-opacity="0.6" />
<path d="M-44.09268212653821,-193.0280688990284 A198.0,198.0,0,0,0,-44.207735773601605,-193.0017515406827 C-17.683094309440644,-77.20070061627308,79.19319136626503,1.038480248308816,197.98297841566256,2.59620062077204 A198.0,198.0,0,0,0,197.982983729376,2.5957953720660236 C79.1931934917504,1.0383181488264095,-17.637072850615283,-77.21122755961136,-44.09268212653821,-193.0280688990284 Z" fill="#e377c2" fill-opacity="0.6" />
<path d="M-108.41653098834419,-165.67998010759598 A198.0,198.0,0,0,0,-108.41752162467415,-165.67933185754737 C-43.36700864986966,-66.27173274301894,-52.210964823712345,-59.553800484747164,-130.52741205928086,-148.8845012118679 A198.0,198.0,0,0,0,-130.59609273061974,-148.8242606683983 C-52.2384370922479,-59.52970426735932,-43.36661239533768,-66.2719920430384,-108.41653098834419,-165.67998010759598 Z" fill="#2ca02c" fill-opacity="0.6" />
<path d="M-107.92407545158308,-166.0011865557623 A198.0,198.0,0,0,0,-108.41653098834419,-165.67998010759598 C-43.36661239533768,-66.2719920430384,-78.09551172093093,-13.180707456200537,-195.23877930232732,-32.95176864050134 A198.0,198.0,0,0,0,-195.23965905535434,-32.94655569174112 C-78.09586362214174,-13.178622276696448,-43.169630180633234,-66.40047462230493,-107.92407545158308,-166.0011865557623 Z" fill="#d62728" fill-opacity="0.6" />
<path d="M-105.69631195777822,-167.42846125591677 A198.0,198.0,0,0,0,-107.92407545158308,-166.0011865557623 C-43.169630180633234,-66.40047462230493,-75.87757032331974,22.69877357545265,-189.69392580829935,56.74693393863162 A198.0,198.0,0,0,0,-189.68328042110159,56.78250724201726 C-75.87331216844063,22.713002896806906,-42.278524783111294,-66.97138450236672,-105.69631195777822,-167.42846125591677 Z" fill="#d62728" fill-opacity="0.6" />
<path d="M-105.65487786398741,-167.45461111461188 A198.0,198.0,0,0,0,-105.69631195777822,-167.42846125591677 C-42.278524783111294,-66.97138450236672,-55.655740646845665,56.34783521175461,-139.13935161711416,140.8695880293865 A198.0,198.0,0,0,0,-139.13887590673707,140.8700578952448 C-55.65555036269483,56.348023158097924,-42.26195114559496,-66.98184444584476,-105.65487786398741,-167.45461111461188 Z" fill="#d62728" fill-opacity="0.6" />
<path d="M-104.991054221364,-167.87161324502307 A198.0,198.0,0,0,0,-105.65487786398741,-167.45461111461188 C-42.26195114559496,-66.98184444584476,-27.237914908708593,74.36891818109197,-68.09478727177148,185.9222954527299 A198.0,198.0,0,0,0,-68.09074478077584,185.9237759814469 C-27.236297912310334,74.36951039257876,-41.9964216885456,-67.14864529800923,-104.991054221364,-167.87161324502307 Z" fill="#9467bd" fill-opacity="0.6" />
<path d="M-104.9905405194542,-167.87193452579513 A198.0,198.0,0,0,0,-104.991054221364,-167.87161324502307 C-41.9964216885456,-67.14864529800923,45.026512918562794,65.15560708330864,112.56628229640698,162.88901770827158 A198.0,198.0,0,0,0,112.61700146620424,162.85395598744586 C45.0468005864817,65.14158239497834,-41.996216207781686,-67.14877381031805,-104.9905405194542,-167.87193452579513 Z" fill="#2ca02c" fill-opacity="0.6" />
<path d="M-147.37744527615186,-132.2266562530977 A198.0,198.0,0,0,0,-147.38381205742104,-132.21955960985045 C-58.95352482296842,-52.88782384394018,-78.02032845432802,-13.618676436378525,-195.05082113582006,-34.04669109094631 A198.0,198.0,0,0,0,-195.23877930232732,-32.95176864050134 C-78.09551172093093,-13.180707456200537,-58.950978110460746,-52.890662501239085,-147.37744527615186,-132.2266562530977 Z" fill="#2ca02c" fill-opacity="0.6" />
<path d="M-147.34693699423462,-132.260652343836 A198.0,198.0,0,0,0,-147.37744527615186,-132.2266562530977 C-58.950978110460746,-52.890662501239085,-75.8776655610359,22.698455211921072,-189.69416390258974,56.74613802980267 A198.0,198.0,0,0,0,-189.69392580829935,56.74693393863162 C-75.87757032331974,22.69877357545265,-58.93877479769385,-52.9042609375344,-147.34693699423462,-132.260652343836 Z" fill="#d62728" fill-opacity="0.6" />
<path d="M-147.19427798711317,-132.43052717501524 A198.0,198.0,0,0,0,-147.34693699423462,-132.260652343836 C-58.93877479769385,-52.9042609375344,5.7037830970432095,78.99434700269308,14.259457742608022,197.4858675067327 A198.0,198.0,0,0,0,14.262643043886044,197.48563748638202 C5.705057217554418,78.99425499455282,-58.87771119484527,-52.9722108700061,-147.19427798711317,-132.43052717501524 Z" fill="#9467bd" fill-opacity="0.6" />
<path d="M-147.19398242100044,-132.43085569098392 A198.0,198.0,0,0,0,-147.19427798711317,-132.43052717501524 C-58.87771119484527,-52.9722108700061,20.415429572470057,76.52352733226243,51.03857393117514,191.30881833065607 A198.0,198.0,0,0,0,51.06683124854682,191.3012774296932 C20.42673249941873,76.52051097187727,-58.87759296840018,-52.97234227639357,-147.19398242100044,-132.43085569098392 Z" fill="#2ca02c" fill-opacity="0.6" />
<path d="M-147.1328638180922,-132.49875616279095 A198.0,198.0,0,0,0,-147.19398242100044,-132.43085569098392 C-58.87759296840018,-52.97234227639357,70.38496395167158,36.312488891866025,175.96240987917895,90.78122222966506 A198.0,198.0,0,0,0,175.9632171915304,90.779657388681 C70.38528687661216,36.3118629554724,-58.85314552723688,-52.999502465116386,-147.1328638180922,-132.49875616279095 Z" fill="#e377c2" fill-opacity="0.6" />
<path d="M-147.07171389275106,-132.5666284275525 A198.0,198.0,0,0,0,-147.1328638180922,-132.49875616279095 C-58.85314552723688,-52.999502465116386,78.24000141612274,12.29398952354823,195.60000354030683,30.734973808870574 A198.0,198.0,0,0,0,195.6001819280227,30.733838512695144 C78.24007277120909,12.293535405078059,-58.82868555710043,-53.026651371021,-147.07171389275106,-132.5666284275525 Z" fill="#e377c2" fill-opacity="0.6" />
<path d="M-184.0063437516377,-73.11405787640393 A198.0,198.0,0,0,0,-184.00969660343173,-73.10561918151711 C-73.6038786413727,-29.242247672606847,-77.97474732578385,-13.877275650507379,-194.93686831445962,-34.69318912626844 A198.0,198.0,0,0,0,-195.05082113582006,-34.04669109094631 C-78.02032845432802,-13.618676436378525,-73.60253750065509,-29.245623150561574,-184.0063437516377,-73.11405787640393 Z" fill="#d62728" fill-opacity="0.6" />
<path d="M-183.95328457833963,-73.24745110132088 A198.0,198.0,0,0,0,-184.0063437516377,-73.11405787640393 C-73.60253750065509,-29.245623150561574,-78.97259198975001,5.997475670686309,-197.431479974375,14.99368917671577 A198.0,198.0,0,0,0,-189.69416390258974,56.74613802980267 C-75.8776655610359,22.698455211921072,-73.58131383133586,-29.298980440528354,-183.95328457833963,-73.24745110132088 Z" fill="#d62728" fill-opacity="0.6" />
<path d="M-183.55226034250896,-74.24666809464118 A198.0,198.0,0,0,0,-183.95328457833963,-73.24745110132088 C-73.58131383133586,-29.298980440528354,-55.796952844947796,56.208007020518636,-139.49238211236948,140.52001755129658 A198.0,198.0,0,0,0,-139.13935161711416,140.8695880293865 C-55.655740646845665,56.34783521175461,-73.42090413700359,-29.698667237856473,-183.55226034250896,-74.24666809464118 Z" fill="#d62728" fill-opacity="0.6" />
<path d="M-183.33616070139368,-74.77868800181471 A198.0,198.0,0,0,0,-183.55226034250896,-74.24666809464118 C-73.42090413700359,-29.698667237856473,-31.42203029967437,72.70004134693697,-78.55507574918592,181.75010336734243 A198.0,198.0,0,0,0,-77.88570951270596,182.03795278375986 C-31.154283805082386,72.81518111350395,-73.33446428055747,-29.91147520072589,-183.33616070139368,-74.77868800181471 Z" fill="#d62728" fill-opacity="0.6" />
<path d="M-183.33588141121794,-74.77937273855564 A198.0,198.0,0,0,0,-183.33616070139368,-74.77868800181471 C-73.33446428055747,-29.91147520072589,-27.25017863028747,74.3644253969425,-68.12544657571867,185.91106349235622 A198.0,198.0,0,0,0,-68.09478727177148,185.9222954527299 C-27.237914908708593,74.36891818109197,-73.33435256448718,-29.911749095422255,-183.33588141121794,-74.77937273855564 Z" fill="#d62728" fill-opacity="0.6" />
<path d="M-183.32996789366018,-74.79386921472594 A198.0,198.0,0,0,0,-183.33588141121794,-74.77937273855564 C-73.33435256448718,-29.911749095422255,9.37165236141668,78.64357654644627,23.4291309035417,196.60894136611566 A198.0,198.0,0,0,0,23.567806810707822,196.59236628651976 C9.427122724283128,78.63694651460791,-73.33198715746407,-29.91754768589038,-183.32996789366018,-74.79386921472594 Z" fill="#d62728" fill-opacity="0.6" />
<path d="M-183.3288916640526,-74.79650714592265 A198.0,198.0,0,0,0,-183.32996789366018,-74.79386921472594 C-73.33198715746407,-29.91754768589038,20.37021341296399,76.53557607747068,50.92553353240997,191.3389401936767 A198.0,198.0,0,0,0,51.03857393117514,191.30881833065607 C20.415429572470057,76.52352733226243,-73.33155666562105,-29.91860285836906,-183.3288916640526,-74.79650714592265 Z" fill="#d62728" fill-opacity="0.6" />
<path d="M-183.3277529464342,-74.7992981224502 A198.0,198.0,0,0,0,-183.3288916640526,-74.79650714592265 C-73.33155666562105,-29.91860285836906,44.94531860267415,65.21164263921064,112.36329650668537,163.02910659802657 A198.0,198.0,0,0,0,112.56628229640698,162.88901770827158 C45.026512918562794,65.15560708330864,-73.33110117857369,-29.91971924898008,-183.3277529464342,-74.7992981224502 Z" fill="#d62728" fill-opacity="0.6" />
<path d="M-183.11005153028555,-75.3306645966712 A198.0,198.0,0,0,0,-183.3277529464342,-74.7992981224502 C-73.33110117857369,-29.91971924898008,70.31855845743495,36.44091569195681,175.79639614358737,91.10228922989202 A198.0,198.0,0,0,0,175.96240987917895,90.78122222966506 C70.38496395167158,36.312488891866025,-73.24402061211423,-30.13226583866848,-183.11005153028555,-75.3306645966712 Z" fill="#e377c2" fill-opacity="0.6" />
<path d="M-183.10956982369882,-75.33183549456344 A198.0,198.0,0,0,0,-183.11005153028555,-75.3306645966712 C-73.24402061211423,-30.13226583866848,78.2338559998372,12.333035935921771,195.58463999959298,30.832589839804427 A198.0,198.0,0,0,0,195.60000354030683,30.734973808870574 C78.24000141612274,12.29398952354823,-73.24382792947954,-30.132734197825375,-183.10956982369882,-75.33183549456344 Z" fill="#d62728" fill-opacity="0.6" />
<path d="M-183.10907258255287,-75.3330441304305 A198.0,198.0,0,0,0,-183.10956982369882,-75.33183549456344 C-73.24382792947954,-30.132734197825375,79.19300427100255,1.0526511924536892,197.98251067750635,2.6316279811342227 A198.0,198.0,0,0,0,197.98297841566256,2.59620062077204 C79.19319136626503,1.038480248308816,-73.24362903302115,-30.1332176521722,-183.10907258255287,-75.3330441304305 Z" fill="#d62728" fill-opacity="0.6" />
<path d="M-195.46854730918673,-31.56021249669006 A198.0,198.0,0,0,0,-197.38681236259083,-15.570687375172628 C-78.95472494503633,-6.228274950069052,-78.9801441212545,5.897188701904522,-197.45036030313622,14.742971754761303 A198.0,198.0,0,0,0,-197.431479974375,14.99368917671577 C-78.97259198975001,5.997475670686309,-78.1874189236747,-12.624084998676025,-195.46854730918673,-31.56021249669006 Z" fill="#d62728" fill-opacity="0.6" />
<path d="M-195.43624956219213,-31.75960259613709 A198.0,198.0,0,0,0,-195.46854730918673,-31.56021249669006 C-78.1874189236747,-12.624084998676025,-55.797823100706495,56.20714311564203,-139.49455775176622,140.51785778910508 A198.0,198.0,0,0,0,-139.49238211236948,140.52001755129658 C-55.796952844947796,56.208007020518636,-78.17449982487686,-12.703841038454836,-195.43624956219213,-31.75960259613709 Z" fill="#d62728" fill-opacity="0.6" />
<path d="M-195.39559136483697,-32.008793716503156 A198.0,198.0,0,0,0,-195.43624956219213,-31.75960259613709 C-78.17449982487686,-12.703841038454836,-31.423163586839646,72.69955151302321,-78.55790896709911,181.74887878255802 A198.0,198.0,0,0,0,-78.55507574918592,181.75010336734243 C-31.42203029967437,72.70004134693697,-78.1582365459348,-12.803517486601264,-195.39559136483697,-32.008793716503156 Z" fill="#d62728" fill-opacity="0.6" />
<path d="M-195.39292691071273,-32.02505446154413 A198.0,198.0,0,0,0,-195.39559136483697,-32.008793716503156 C-78.1582365459348,-12.803517486601264,20.008229470922515,76.63100386553022,50.02057367730628,191.57750966382554 A198.0,198.0,0,0,0,50.92553353240997,191.3389401936767 C20.37021341296399,76.53557607747068,-78.1571707642851,-12.810021784617653,-195.39292691071273,-32.02505446154413 Z" fill="#d62728" fill-opacity="0.6" />
<path d="M-195.3922219205904,-32.02935548734551 A198.0,198.0,0,0,0,-195.39292691071273,-32.02505446154413 C-78.1571707642851,-12.810021784617653,44.782720888261984,65.32341012105863,111.95680222065495,163.30852530264656 A198.0,198.0,0,0,0,112.36329650668537,163.02910659802657 C44.94531860267415,65.21164263921064,-78.15688876823617,-12.811742194938205,-195.3922219205904,-32.02935548734551 Z" fill="#d62728" fill-opacity="0.6" />
<path d="M-195.37585918562993,-32.129015663056066 A198.0,198.0,0,0,0,-195.3922219205904,-32.02935548734551 C-78.15688876823617,-12.811742194938205,70.31825099708878,36.44150897960212,175.79562749272196,91.10377244900529 A198.0,198.0,0,0,0,175.79639614358737,91.10228922989202 C70.31855845743495,36.44091569195681,-78.15034367425199,-12.851606265222427,-195.37585918562993,-32.129015663056066 Z" fill="#e377c2" fill-opacity="0.6" />
<path d="M-195.35944561881004,-32.228667479608966 A198.0,198.0,0,0,0,-195.37585918562993,-32.129015663056066 C-78.15034367425199,-12.851606265222427,79.19300225742974,1.0528026665661574,197.98250564357434,2.6320066664153936 A198.0,198.0,0,0,0,197.98251067750635,2.6316279811342227 C79.19300427100255,1.0526511924536892,-78.14377824752403,-12.891466991843586,-195.35944561881004,-32.228667479608966 Z" fill="#e377c2" fill-opacity="0.6" />
<path d="M-188.829096655003,59.56149978346354 A198.0,198.0,0,0,0,-182.93284956639206,75.75996666788978 C-73.17313982655683,30.303986667155915,-55.87835687616448,56.12708110012494,-139.6958921904112,140.31770275031235 A198.0,198.0,0,0,0,-139.49455775176622,140.51785778910508 C-55.797823100706495,56.20714311564203,-75.53163866200121,23.824599913385416,-188.829096655003,59.56149978346354 Z" fill="#d62728" fill-opacity="0.6" />
<path d="M-188.83189497891482,59.55262747076805 A198.0,198.0,0,0,0,-188.829096655003,59.56149978346354 C-75.53163866200121,23.824599913385416,-31.690482747737725,72.58342306074671,-79.22620686934431,181.45855765186678 A198.0,198.0,0,0,0,-78.55790896709911,181.74887878255802 C-31.423163586839646,72.69955151302321,-75.53275799156593,23.82105098830722,-188.83189497891482,59.55262747076805 Z" fill="#d62728" fill-opacity="0.6" />
<path d="M-188.84368730915065,59.51522295584329 A198.0,198.0,0,0,0,-188.83189497891482,59.55262747076805 C-75.53275799156593,23.82105098830722,-27.825731857283206,74.15098547292932,-69.56432964320801,185.37746368232328 A198.0,198.0,0,0,0,-68.12544657571867,185.91106349235622 C-27.25017863028747,74.3644253969425,-75.53747492366027,23.806089182337317,-188.84368730915065,59.51522295584329 Z" fill="#d62728" fill-opacity="0.6" />
<path d="M-188.844165951141,59.51370418834567 A198.0,198.0,0,0,0,-188.84368730915065,59.51522295584329 C-75.53747492366027,23.806089182337317,-22.763438249688747,75.85819585946273,-56.90859562422187,189.64548964865682 A198.0,198.0,0,0,0,-56.85373876189644,189.66194238379515 C-22.741495504758575,75.86477695351806,-75.5376663804564,23.80548167533827,-188.844165951141,59.51370418834567 Z" fill="#d62728" fill-opacity="0.6" />
<path d="M-189.09160179146465,58.72279056667996 A198.0,198.0,0,0,0,-188.844165951141,59.51370418834567 C-75.5376663804564,23.80548167533827,6.764823575110026,78.91056432441499,16.912058937775065,197.27641081103747 A198.0,198.0,0,0,0,23.4291309035417,196.60894136611566 C9.37165236141668,78.64357654644627,-75.63664071658586,23.489116226671985,-189.09160179146465,58.72279056667996 Z" fill="#d62728" fill-opacity="0.6" />
<path d="M-189.09994259878818,58.69592583080212 A198.0,198.0,0,0,0,-189.09160179146465,58.72279056667996 C-75.63664071658586,23.489116226671985,19.611797989296406,76.73341761988078,49.02949497324101,191.83354404970194 A198.0,198.0,0,0,0,50.02057367730628,191.57750966382554 C20.008229470922515,76.63100386553022,-75.63997703951527,23.47837033232085,-189.09994259878818,58.69592583080212 Z" fill="#d62728" fill-opacity="0.6" />
<path d="M-189.10221116510945,58.68861671965321 A198.0,198.0,0,0,0,-189.09994259878818,58.69592583080212 C-75.63997703951527,23.47837033232085,44.59946628983175,65.44866390280372,111.49866572457937,163.6216597570093 A198.0,198.0,0,0,0,111.95680222065495,163.30852530264656 C44.782720888261984,65.32341012105863,-75.64088446604379,23.475446687861286,-189.10221116510945,58.68861671965321 Z" fill="#d62728" fill-opacity="0.6" />
<path d="M-189.59686041758337,57.07039968140576 A198.0,198.0,0,0,0,-189.10221116510945,58.68861671965321 C-75.64088446604379,23.475446687861286,70.31495023764532,36.447877483846206,175.78737559411329,91.11969370961552 A198.0,198.0,0,0,0,175.79562749272196,91.10377244900529 C70.31825099708878,36.44150897960212,-75.83874416703335,22.828159872562306,-189.59686041758337,57.07039968140576 Z" fill="#e377c2" fill-opacity="0.6" />
<path d="M-189.59728547930064,57.068987540349525 A198.0,198.0,0,0,0,-189.59686041758337,57.07039968140576 C-75.83874416703335,22.828159872562306,79.19281259929305,1.0669735766422794,197.9820314982326,2.6674339416056987 A198.0,198.0,0,0,0,197.98250564357434,2.6320066664153936 C79.19300225742974,1.0528026665661574,-75.83891419172026,22.82759501613981,-189.59728547930064,57.068987540349525 Z" fill="#d62728" fill-opacity="0.6" />
<path d="M-137.7324968343377,142.24541931387162 A198.0,198.0,0,0,0,-137.7283611258106,142.24942369513596 C-55.09134445032424,56.89976947805439,-31.86037172289925,72.50901125845449,-79.65092930724812,181.27252814613624 A198.0,198.0,0,0,0,-79.22620686934431,181.45855765186678 C-31.690482747737725,72.58342306074671,-55.09299873373508,56.89816772554865,-137.7324968343377,142.24541931387162 Z" fill="#d62728" fill-opacity="0.6" />
<path d="M-138.0202350765776,141.9662449648023 A198.0,198.0,0,0,0,-137.7324968343377,142.24541931387162 C-55.09299873373508,56.89816772554865,13.746664445780258,77.99787956486459,34.36666111445064,194.99469891216145 A198.0,198.0,0,0,0,49.02949497324101,191.83354404970194 C19.611797989296406,76.73341761988078,-55.20809403063104,56.78649798592093,-138.0202350765776,141.9662449648023 Z" fill="#d62728" fill-opacity="0.6" />
<path d="M-138.06824844816887,141.9195503461546 A198.0,198.0,0,0,0,-138.0202350765776,141.9662449648023 C-55.20809403063104,56.78649798592093,42.93458400872865,66.5526971354086,107.33646002182162,166.38174283852146 A198.0,198.0,0,0,0,111.49866572457937,163.6216597570093 C44.59946628983175,65.44866390280372,-55.22729937926755,56.76782013846184,-138.06824844816887,141.9195503461546 Z" fill="#d62728" fill-opacity="0.6" />
<path d="M-138.16995679765105,141.8205310895966 A198.0,198.0,0,0,0,-138.06824844816887,141.9195503461546 C-55.22729937926755,56.76782013846184,79.19281070922409,1.0671138519400978,197.98202677306023,2.6677846298502446 A198.0,198.0,0,0,0,197.9820314982326,2.6674339416056987 C79.19281259929305,1.0669735766422794,-55.26798271906043,56.72821243583865,-138.16995679765105,141.8205310895966 Z" fill="#e377c2" fill-opacity="0.6" />
<path d="M-77.43605615365816,182.22968256397613 A198.0,198.0,0,0,0,-77.4354295661624,182.2299488226452 C-30.97417182646496,72.89197952905809,5.677119512304252,78.99626772223492,14.192798780760628,197.4906693055873 A198.0,198.0,0,0,0,14.259457742608022,197.4858675067327 C5.7037830970432095,78.99434700269308,-30.974422461463263,72.89187302559046,-77.43605615365816,182.22968256397613 Z" fill="#d62728" fill-opacity="0.6" />
<path d="M-77.43837151526404,182.22869866479303 A198.0,198.0,0,0,0,-77.43605615365816,182.22968256397613 C-30.974422461463263,72.89187302559046,6.754703333389523,78.91143125604742,16.886758333473807,197.27857814011853 A198.0,198.0,0,0,0,16.912058937775065,197.27641081103747 C6.764823575110026,78.91056432441499,-30.975348606105616,72.89147946591721,-77.43837151526404,182.22869866479303 Z" fill="#d62728" fill-opacity="0.6" />
<path d="M-77.46154428284736,182.21884962131793 A198.0,198.0,0,0,0,-77.43837151526404,182.22869866479303 C-30.975348606105616,72.89147946591721,13.285590248768045,78.07773749118144,33.21397562192011,195.1943437279536 A198.0,198.0,0,0,0,34.36666111445064,194.99469891216145 C13.746664445780258,77.99787956486459,-30.984617713138945,72.88753984852717,-77.46154428284736,182.21884962131793 Z" fill="#d62728" fill-opacity="0.6" />
<path d="M-77.46277011468105,182.2183285132428 A198.0,198.0,0,0,0,-77.46154428284736,182.21884962131793 C-30.984617713138945,72.88753984852717,42.89312585683039,66.57942440596877,107.23281464207597,166.4485610149219 A198.0,198.0,0,0,0,107.33646002182162,166.38174283852146 C42.93458400872865,66.5526971354086,-30.985108045872423,72.88733140529712,-77.46277011468105,182.2183285132428 Z" fill="#d62728" fill-opacity="0.6" />
<path d="M-65.89933428782804,186.71175040800483 A198.0,198.0,0,0,0,-65.86854297380061,186.72261525189867 C-26.347417189520247,74.68904610075947,-22.76355322934294,75.85816135640826,-56.908883073357345,189.64540339102064 A198.0,198.0,0,0,0,-56.90859562422187,189.64548964865682 C-22.763438249688747,75.85819585946273,-26.359733715131217,74.68470016320194,-65.89933428782804,186.71175040800483 Z" fill="#9467bd" fill-opacity="0.6" />
<path d="M-65.960911538663,186.69000548767647 A198.0,198.0,0,0,0,-65.89933428782804,186.71175040800483 C-26.359733715131217,74.68470016320194,5.676607584117033,78.9963045106285,14.19151896029258,197.49076127657125 A198.0,198.0,0,0,0,14.192798780760628,197.4906693055873 C5.677119512304252,78.99626772223492,-26.384364615465202,74.6760021950706,-65.960911538663,186.69000548767647 Z" fill="#9467bd" fill-opacity="0.6" />
<path d="M-65.96150458716248,186.6897959519956 A198.0,198.0,0,0,0,-65.960911538663,186.69000548767647 C-26.384364615465202,74.6760021950706,13.262524230927074,78.08165886444827,33.15631057731768,195.20414716112066 A198.0,198.0,0,0,0,33.21397562192011,195.1943437279536 C13.285590248768045,78.07773749118144,-26.384601834864995,74.67591838079824,-65.96150458716248,186.6897959519956 Z" fill="#9467bd" fill-opacity="0.6" />
<path d="M-66.02307459364842,186.66803052799787 A198.0,198.0,0,0,0,-65.96150458716248,186.6897959519956 C-26.384601834864995,74.67591838079824,70.087376947076,36.88359517019024,175.21844236769,92.2089879254756 A198.0,198.0,0,0,0,175.78737559411329,91.11969370961552 C70.31495023764532,36.447877483846206,-26.409229837459367,74.66721221119916,-66.02307459364842,186.66803052799787 Z" fill="#9467bd" fill-opacity="0.6" />
<path d="M-66.02386515648674,186.66775091000068 A198.0,198.0,0,0,0,-66.02307459364842,186.66803052799787 C-26.409229837459367,74.66721221119916,78.2246013387386,12.39159979160953,195.56150334684648,30.978999479023823 A198.0,198.0,0,0,0,195.58463999959298,30.832589839804427 C78.2338559998372,12.333035935921771,-26.409546062594696,74.66710036400028,-66.02386515648674,186.66775091000068 Z" fill="#9467bd" fill-opacity="0.6" />
<path d="M-66.02821737430294,186.66621148555996 A198.0,198.0,0,0,0,-66.02386515648674,186.66775091000068 C-26.409546062594696,74.66710036400028,79.19120195638035,1.180479861658489,197.97800489095087,2.9511996541462224 A198.0,198.0,0,0,0,197.98202677306023,2.6677846298502446 C79.19281070922409,1.0671138519400978,-26.411286949721177,74.66648459422399,-66.02821737430294,186.66621148555996 Z" fill="#9467bd" fill-opacity="0.6" />
<path d="M-56.797783100714426,189.67870685673762 A198.0,198.0,0,0,0,-56.74291663503048,189.69512753824222 C-22.697166654012193,75.87805101529689,5.676119122704298,78.99633960953426,14.190297806760745,197.49084902383564 A198.0,198.0,0,0,0,14.19151896029258,197.49076127657125 C5.676607584117033,78.9963045106285,-22.719113240285772,75.87148274269505,-56.797783100714426,189.67870685673762 Z" fill="#9467bd" fill-opacity="0.6" />
<path d="M-56.79836904694023,189.67853139880535 A198.0,198.0,0,0,0,-56.797783100714426,189.67870685673762 C-22.719113240285772,75.87148274269505,42.851651066905404,66.60612585070675,107.1291276672635,166.51531462676687 A198.0,198.0,0,0,0,107.23281464207597,166.4485610149219 C42.89312585683039,66.57942440596877,-22.719347618776094,75.87141255952214,-56.79836904694023,189.67853139880535 Z" fill="#9467bd" fill-opacity="0.6" />
<path d="M-56.79887714295345,189.67837925103558 A198.0,198.0,0,0,0,-56.79836904694023,189.67853139880535 C-22.719347618776094,75.87141255952214,79.19098945150382,1.194650447541712,197.97747362875955,2.9866261188542795 A198.0,198.0,0,0,0,197.97800489095087,2.9511996541462224 C79.19120195638035,1.180479861658489,-22.719550857181382,75.87135170041424,-56.79887714295345,189.67837925103558 Z" fill="#9467bd" fill-opacity="0.6" />
<path d="M14.899454583830234,197.43861388569456 A198.0,198.0,0,0,0,14.9005005026761,197.43853495396928 C5.960200201070441,78.97541398158772,70.06042594214841,36.934762985631004,175.15106485537103,92.33690746407751 A198.0,198.0,0,0,0,175.21844236769,92.2089879254756 C70.087376947076,36.88359517019024,5.9597818335320945,78.97544555427783,14.899454583830234,197.43861388569456 Z" fill="#9467bd" fill-opacity="0.6" />
<path d="M14.898359276136862,197.438696538645 A198.0,198.0,0,0,0,14.899454583830234,197.43861388569456 C5.9597818335320945,78.97544555427783,78.21840720913376,12.430638505971189,195.54601802283437,31.076596264927968 A198.0,198.0,0,0,0,195.56150334684648,30.978999479023823 C78.2246013387386,12.39159979160953,5.959343710454745,78.975478615458,14.898359276136862,197.438696538645 Z" fill="#9467bd" fill-opacity="0.6" />
<path d="M14.76507143347894,197.44870894884136 A198.0,198.0,0,0,0,14.898359276136862,197.438696538645 C5.959343710454745,78.975478615458,79.19098693122649,1.1948175000043832,197.9774673280662,2.987043750010958 A198.0,198.0,0,0,0,197.97747362875955,2.9866261188542795 C79.19098945150382,1.194650447541712,5.906028573391577,78.97948357953655,14.76507143347894,197.44870894884136 Z" fill="#e377c2" fill-opacity="0.6" />
<path d="M23.630837441736432,196.58479982389846 A198.0,198.0,0,0,0,23.64344327664378,196.58328410631492 C9.457377310657511,78.63331364252598,79.1909846026777,1.1949718232935354,197.97746150669423,2.9874295582338384 A198.0,198.0,0,0,0,197.9774673280662,2.987043750010958 C79.19098693122649,1.1948175000043832,9.452334976694573,78.6339199295594,23.630837441736432,196.58479982389846 Z" fill="#e377c2" fill-opacity="0.6" />
<path d="M52.25262488584935,190.9807927319884 A198.0,198.0,0,0,0,55.51708780039923,190.0574990947812 C22.206835120159695,76.02299963791249,42.82890786654044,66.62075240463284,107.07226966635109,166.55188101158208 A198.0,198.0,0,0,0,107.1291276672635,166.51531462676687 C42.851651066905404,66.60612585070675,20.90104995433974,76.39231709279537,52.25262488584935,190.9807927319884 Z" fill="#8c564b" fill-opacity="0.6" />
<path d="M52.19620376222985,190.99622067677618 A198.0,198.0,0,0,0,52.25262488584935,190.9807927319884 C20.90104995433974,76.39231709279537,70.06010817334354,36.93536574530437,175.15027043335883,92.33841436326091 A198.0,198.0,0,0,0,175.15106485537103,92.33690746407751 C70.06042594214841,36.934762985631004,20.87848150489194,76.39848827071047,52.19620376222985,190.99622067677618 Z" fill="#e377c2" fill-opacity="0.6" />
<path d="M52.083347854301046,191.02702655982446 A198.0,198.0,0,0,0,52.19620376222985,190.99622067677618 C20.87848150489194,76.39848827071047,79.19097994068595,1.1952807343367777,197.97744985171485,2.988201835841944 A198.0,198.0,0,0,0,197.97746150669423,2.9874295582338384 C79.1909846026777,1.1949718232935354,20.83333914172042,76.41081062392979,52.083347854301046,191.02702655982446 Z" fill="#e377c2" fill-opacity="0.6" />
<path d="M113.73330401857847,162.0763263311999 A198.0,198.0,0,0,0,114.03593462731173,161.86354009991095 C45.61437385092469,64.74541603996438,70.05909951833276,36.937278929021645,175.1477487958319,92.3431973225541 A198.0,198.0,0,0,0,175.15027043335883,92.33841436326091 C70.06010817334354,36.93536574530437,45.49332160743139,64.83053053247997,113.73330401857847,162.0763263311999 Z" fill="#e377c2" fill-opacity="0.6" />
<path d="M113.43027636078409,162.28854674534537 A198.0,198.0,0,0,0,113.73330401857847,162.0763263311999 C45.49332160743139,64.83053053247997,79.19097253946649,1.1957709870477349,197.97743134866622,2.989427467619337 A198.0,198.0,0,0,0,197.97744985171485,2.988201835841944 C79.19097994068595,1.1952807343367777,45.37211054431364,64.91541869813815,113.43027636078409,162.28854674534537 Z" fill="#e377c2" fill-opacity="0.6" />
<path d="M177.27233480200493,88.19591438295694 A198.0,198.0,0,0,0,177.36882915056356,88.00169569819771 C70.94753166022542,35.20067827927908,77.54538243644257,16.104460959183474,193.8634560911064,40.26115239795868 A198.0,198.0,0,0,0,195.54601802283437,31.076596264927968 C78.21840720913376,12.430638505971189,70.90893392080197,35.278365753182776,177.27233480200493,88.19591438295694 Z" fill="#e377c2" fill-opacity="0.6" />
<path d="M177.0463544757848,88.64867944213695 A198.0,198.0,0,0,0,177.27233480200493,88.19591438295694 C70.90893392080197,35.278365753182776,78.70776748772029,8.816310855395384,196.76941871930072,22.040777138488462 A198.0,198.0,0,0,0,197.97743134866622,2.989427467619337 C79.19097253946649,1.1957709870477349,70.81854179031392,35.459471776854784,177.0463544757848,88.64867944213695 Z" fill="#e377c2" fill-opacity="0.6" />
<path d="M196.26099599840003,26.184374151696048 A198.0,198.0,0,0,0,196.325725234619,25.69454438399103 C78.53029009384761,10.277817753596413,78.6308373344909,9.477943873901802,196.57709333622725,23.694859684754505 A198.0,198.0,0,0,0,196.76941871930072,22.040777138488462 C78.70776748772029,8.816310855395384,78.50439839936001,10.47374966067842,196.26099599840003,26.184374151696048 Z" fill="#e377c2" fill-opacity="0.6" />
<text x="220.0" y="0" font-size="10" text-anchor="start" dominant-baseline="middle" transform="rotate(-8.123750)" font-family="Arial">Canada</text>
<text x="220.00000000000006" y="0" font-size="10" text-anchor="start" dominant-baseline="middle" transform="rotate(-24.511313)" font-family="Arial">Mexico</text>
<text x="220.00000000000003" y="0" font-size="10" text-anchor="start" dominant-baseline="middle" transform="rotate(-55.360237)" font-family="Arial">United Sta.</text>
<text x="220.00000000000006" y="0" font-size="10" text-anchor="start" dominant-baseline="middle" transform="rotate(-79.520049)" font-family="Arial">Costa Rica</text>
<text x="220.00000000000003" y="0" font-size="10" text-anchor="start" dominant-baseline="middle" transform="rotate(-82.040897)" font-family="Arial">Dominican .</text>
<text x="220.0" y="0" font-size="10" text-anchor="start" dominant-baseline="middle" transform="rotate(-84.653443)" font-family="Arial">Guatemala</text>
<text x="-220.00000000000006" y="0" font-size="10" text-anchor="end" dominant-baseline="middle" transform="rotate(85.133304)" font-family="Arial">Argentina</text>
<text x="-220.00000000000003" y="0" font-size="10" text-anchor="end" dominant-baseline="middle" transform="rotate(66.406746)" font-family="Arial">Brazil</text>
<text x="-220.00000000000003" y="0" font-size="10" text-anchor="end" dominant-baseline="middle" transform="rotate(49.061327)" font-family="Arial">Colombia</text>
<text x="-220.0" y="0" font-size="10" text-anchor="end" dominant-baseline="middle" transform="rotate(31.495097)" font-family="Arial">Germany</text>
<text x="-220.00000000000003" y="0" font-size="10" text-anchor="end" dominant-baseline="middle" transform="rotate(12.802485)" font-family="Arial">Spain</text>
<text x="-220.00000000000006" y="0" font-size="10" text-anchor="end" dominant-baseline="middle" transform="rotate(-9.279507)" font-family="Arial">France</text>
<text x="-220.00000000000003" y="0" font-size="10" text-anchor="end" dominant-baseline="middle" transform="rotate(-34.497265)" font-family="Arial">United Kin.</text>
<text x="-220.00000000000003" y="0" font-size="10" text-anchor="end" dominant-baseline="middle" transform="rotate(-56.737935)" font-family="Arial">Italy</text>
<text x="-220.00000000000003" y="0" font-size="10" text-anchor="end" dominant-baseline="middle" transform="rotate(-69.059932)" font-family="Arial">Indonesia</text>
<text x="-220.00000000000003" y="0" font-size="10" text-anchor="end" dominant-baseline="middle" transform="rotate(-72.244370)" font-family="Arial">India</text>
<text x="-220.00000000000003" y="0" font-size="10" text-anchor="end" dominant-baseline="middle" transform="rotate(-84.117748)" font-family="Arial">Japan</text>
<text x="220.00000000000006" y="0" font-size="10" text-anchor="start" dominant-baseline="middle" transform="rotate(-275.873482)" font-family="Arial">Egypt</text>
<text x="220.0" y="0" font-size="10" text-anchor="start" dominant-baseline="middle" transform="rotate(-281.857265)" font-family="Arial">Nigeria</text>
<text x="220.00000000000006" y="0" font-size="10" text-anchor="start" dominant-baseline="middle" transform="rotate(-296.010911)" font-family="Arial">South Afri.</text>
<text x="220.00000000000003" y="0" font-size="10" text-anchor="start" dominant-baseline="middle" transform="rotate(-319.675016)" font-family="Arial">Australia</text>
<text x="220.00000000000003" y="0" font-size="10" text-anchor="start" dominant-baseline="middle" transform="rotate(-343.364142)" font-family="Arial">New Zealan.</text>
<text x="220.00000000000003" y="0" font-size="10" text-anchor="start" dominant-baseline="middle" transform="rotate(-356.271837)" font-family="Arial">Papua New .</text>
<text x="-295.0" y="-285.0" font-size="8" text-anchor="start" dominant-baseline="middle" font-family="Arial" font-weight="bold">Continents</text>
<circle cx="-290.5" cy="-274.5" r="4.5" fill="#8c564b" stroke="#333" stroke-width="0.5" />
<text x="-278.0" y="-271.0" font-size="6" text-anchor="start" dominant-baseline="middle" font-family="Arial">Africa</text>
<circle cx="-290.5" cy="-262.5" r="4.5" fill="#9467bd" stroke="#333" stroke-width="0.5" />
<text x="-278.0" y="-259.0" font-size="6" text-anchor="start" dominant-baseline="middle" font-family="Arial">Asia</text>
<circle cx="-290.5" cy="-250.5" r="4.5" fill="#ff7f0e" stroke="#333" stroke-width="0.5" />
<text x="-278.0" y="-247.0" font-size="6" text-anchor="start" dominant-baseline="middle" font-family="Arial">Central America</text>
<circle cx="-290.5" cy="-238.5" r="4.5" fill="#d62728" stroke="#333" stroke-width="0.5" />
<text x="-278.0" y="-235.0" font-size="6" text-anchor="start" dominant-baseline="middle" font-family="Arial">Europe</text>
<circle cx="-290.5" cy="-226.5" r="4.5" fill="#1f77b4" stroke="#333" stroke-width="0.5" />
<text x="-278.0" y="-223.0" font-size="6" text-anchor="start" dominant-baseline="middle" font-family="Arial">North America</text>
<circle cx="-290.5" cy="-214.5" r="4.5" fill="#e377c2" stroke="#333" stroke-width="0.5" />
<text x="-278.0" y="-211.0" font-size="6" text-anchor="start" dominant-baseline="middle" font-family="Arial">Oceania</text>
<circle cx="-290.5" cy="-202.5" r="4.5" fill="#2ca02c" stroke="#333" stroke-width="0.5" />
<text x="-278.0" y="-199.0" font-size="6" text-anchor="start" dominant-baseline="middle" font-family="Arial">South America</text>
</svg>